M48
;Layer_Color=9474304
;FILE_FORMAT=4:3
METRIC,LZ
;TYPE=PLATED
T3F00S00C0.600
T8F00S00C1.000
T13F00S00C2.000
;TYPE=NON_PLATED
%
G90
G05
T03
G00X00096Y0179545
M15
G01X00104
M16
G00X001363Y0179545
M15
G01X001473
M16
G00X001363Y0188185
M15
G01X001473
M16
G00X00096Y0188185
M15
G01X00104
M16
T08
G00X0153Y0081
M15
G01Y0079
M16
G00X0159Y008065
M15
G01Y007935
M16
G00X015925Y00755
M15
G01X016075
M16
G00X015925Y00845
M15
G01X016075
M16
T13
G00X00804Y002205
M15
G01Y001995
M16
G00X00916Y002205
M15
G01Y001995
M16
M17
M30
