%TF.GenerationSoftware,Altium Limited,Altium Designer,22.11.1 (43)*%
G04 Layer_Color=8388736*
%FSLAX43Y43*%
%MOMM*%
%TF.SameCoordinates,25A6F12C-B93B-4C7C-9F5B-633324915364*%
%TF.FilePolarity,Negative*%
%TF.FileFunction,Soldermask,Top*%
%TF.Part,CustomerPanel*%
G01*
G75*
%TA.AperFunction,SMDPad,CuDef*%
%ADD10R,0.355X0.795*%
G04:AMPARAMS|DCode=11|XSize=1.19mm|YSize=0.4mm|CornerRadius=0.05mm|HoleSize=0mm|Usage=FLASHONLY|Rotation=180.000|XOffset=0mm|YOffset=0mm|HoleType=Round|Shape=RoundedRectangle|*
%AMROUNDEDRECTD11*
21,1,1.190,0.300,0,0,180.0*
21,1,1.090,0.400,0,0,180.0*
1,1,0.100,-0.545,0.150*
1,1,0.100,0.545,0.150*
1,1,0.100,0.545,-0.150*
1,1,0.100,-0.545,-0.150*
%
%ADD11ROUNDEDRECTD11*%
%ADD12R,1.341X0.507*%
%ADD13R,0.507X1.341*%
%ADD14R,1.450X1.150*%
%ADD15R,1.150X1.450*%
%ADD16R,2.000X1.800*%
G04:AMPARAMS|DCode=17|XSize=0.28mm|YSize=1.47mm|CornerRadius=0.035mm|HoleSize=0mm|Usage=FLASHONLY|Rotation=0.000|XOffset=0mm|YOffset=0mm|HoleType=Round|Shape=RoundedRectangle|*
%AMROUNDEDRECTD17*
21,1,0.280,1.400,0,0,0.0*
21,1,0.210,1.470,0,0,0.0*
1,1,0.070,0.105,-0.700*
1,1,0.070,-0.105,-0.700*
1,1,0.070,-0.105,0.700*
1,1,0.070,0.105,0.700*
%
%ADD17ROUNDEDRECTD17*%
G04:AMPARAMS|DCode=18|XSize=1.47mm|YSize=0.28mm|CornerRadius=0.035mm|HoleSize=0mm|Usage=FLASHONLY|Rotation=0.000|XOffset=0mm|YOffset=0mm|HoleType=Round|Shape=RoundedRectangle|*
%AMROUNDEDRECTD18*
21,1,1.470,0.210,0,0,0.0*
21,1,1.400,0.280,0,0,0.0*
1,1,0.070,0.700,-0.105*
1,1,0.070,-0.700,-0.105*
1,1,0.070,-0.700,0.105*
1,1,0.070,0.700,0.105*
%
%ADD18ROUNDEDRECTD18*%
%ADD19R,2.199X0.771*%
%ADD20R,1.157X0.466*%
%ADD21R,2.150X0.950*%
%ADD22R,2.150X3.250*%
%ADD23R,0.355X1.455*%
%ADD24R,3.800X2.030*%
%ADD25R,2.030X3.800*%
%ADD26R,1.150X0.300*%
%ADD27R,1.150X0.600*%
%ADD28R,1.285X1.470*%
%ADD31R,1.450X1.200*%
%ADD32R,1.350X1.000*%
%ADD33R,2.000X2.000*%
%ADD34R,6.500X3.500*%
%ADD35R,1.055X1.356*%
%ADD36R,1.550X1.350*%
%ADD37R,1.356X1.055*%
%ADD39R,4.100X2.000*%
%ADD40R,1.150X1.450*%
%ADD41R,1.200X1.450*%
%ADD42R,0.700X0.600*%
%ADD43R,3.400X1.500*%
%ADD44R,3.500X1.000*%
%ADD45R,2.200X2.800*%
%ADD46R,2.800X2.800*%
G04:AMPARAMS|DCode=47|XSize=1.524mm|YSize=0.578mm|CornerRadius=0.289mm|HoleSize=0mm|Usage=FLASHONLY|Rotation=0.000|XOffset=0mm|YOffset=0mm|HoleType=Round|Shape=RoundedRectangle|*
%AMROUNDEDRECTD47*
21,1,1.524,0.000,0,0,0.0*
21,1,0.946,0.578,0,0,0.0*
1,1,0.578,0.473,0.000*
1,1,0.578,-0.473,0.000*
1,1,0.578,-0.473,0.000*
1,1,0.578,0.473,0.000*
%
%ADD47ROUNDEDRECTD47*%
%ADD48R,1.524X0.578*%
%ADD49R,1.456X1.255*%
%ADD50R,0.950X1.350*%
%ADD51R,1.250X1.550*%
G04:AMPARAMS|DCode=52|XSize=1.99mm|YSize=0.48mm|CornerRadius=0.06mm|HoleSize=0mm|Usage=FLASHONLY|Rotation=270.000|XOffset=0mm|YOffset=0mm|HoleType=Round|Shape=RoundedRectangle|*
%AMROUNDEDRECTD52*
21,1,1.990,0.360,0,0,270.0*
21,1,1.870,0.480,0,0,270.0*
1,1,0.120,-0.180,-0.935*
1,1,0.120,-0.180,0.935*
1,1,0.120,0.180,0.935*
1,1,0.120,0.180,-0.935*
%
%ADD52ROUNDEDRECTD52*%
%ADD53R,2.500X1.250*%
%ADD54R,0.700X1.000*%
%ADD55R,0.600X0.700*%
%ADD56R,1.000X1.350*%
%ADD57R,4.860X3.360*%
%ADD58R,1.400X1.390*%
G04:AMPARAMS|DCode=59|XSize=1.1mm|YSize=0.6mm|CornerRadius=0.051mm|HoleSize=0mm|Usage=FLASHONLY|Rotation=0.000|XOffset=0mm|YOffset=0mm|HoleType=Round|Shape=RoundedRectangle|*
%AMROUNDEDRECTD59*
21,1,1.100,0.498,0,0,0.0*
21,1,0.998,0.600,0,0,0.0*
1,1,0.102,0.499,-0.249*
1,1,0.102,-0.499,-0.249*
1,1,0.102,-0.499,0.249*
1,1,0.102,0.499,0.249*
%
%ADD59ROUNDEDRECTD59*%
%ADD60R,1.200X1.200*%
%ADD61R,1.050X1.450*%
%ADD62R,1.450X1.050*%
%ADD63R,1.255X1.456*%
%ADD64R,1.600X3.200*%
%ADD65R,1.341X0.279*%
%ADD66R,0.279X1.341*%
%ADD67R,1.400X1.500*%
%TA.AperFunction,ComponentPad*%
%ADD73R,1.200X1.200*%
%ADD74C,1.200*%
%ADD75C,1.600*%
%ADD76C,6.000*%
%ADD77C,1.800*%
%ADD78C,0.600*%
%ADD79C,2.600*%
%ADD80R,1.800X1.800*%
%ADD81R,1.600X1.600*%
%ADD82R,1.200X1.200*%
%ADD83C,2.400*%
%ADD84C,2.000*%
%ADD85O,2.100X1.050*%
%ADD86O,2.000X1.000*%
%TA.AperFunction,ViaPad*%
%ADD87C,0.800*%
%ADD88C,4.000*%
%TA.AperFunction,ComponentPad*%
G04:AMPARAMS|DCode=89|XSize=2.6mm|YSize=4.7mm|CornerRadius=1.3mm|HoleSize=0mm|Usage=FLASHONLY|Rotation=180.000|XOffset=0mm|YOffset=0mm|HoleType=Round|Shape=RoundedRectangle|*
%AMROUNDEDRECTD89*
21,1,2.600,2.100,0,0,180.0*
21,1,0.000,4.700,0,0,180.0*
1,1,2.600,0.000,1.050*
1,1,2.600,0.000,1.050*
1,1,2.600,0.000,-1.050*
1,1,2.600,0.000,-1.050*
%
%ADD89ROUNDEDRECTD89*%
%ADD90C,1.550*%
%ADD91R,1.550X1.550*%
%ADD92C,1.337*%
%ADD93R,1.337X1.337*%
%ADD94R,1.250X1.250*%
%ADD95C,1.250*%
%ADD96C,1.700*%
%ADD97R,3.000X1.500*%
%ADD98C,1.400*%
%ADD99R,1.500X3.500*%
%ADD100R,1.500X2.800*%
G04:AMPARAMS|DCode=101|XSize=2.4mm|YSize=2.4mm|CornerRadius=0.6mm|HoleSize=0mm|Usage=FLASHONLY|Rotation=270.000|XOffset=0mm|YOffset=0mm|HoleType=Round|Shape=RoundedRectangle|*
%AMROUNDEDRECTD101*
21,1,2.400,1.200,0,0,270.0*
21,1,1.200,2.400,0,0,270.0*
1,1,1.200,-0.600,-0.600*
1,1,1.200,-0.600,0.600*
1,1,1.200,0.600,0.600*
1,1,1.200,0.600,-0.600*
%
%ADD101ROUNDEDRECTD101*%
G04:AMPARAMS|DCode=102|XSize=1.6mm|YSize=1.6mm|CornerRadius=0.4mm|HoleSize=0mm|Usage=FLASHONLY|Rotation=180.000|XOffset=0mm|YOffset=0mm|HoleType=Round|Shape=RoundedRectangle|*
%AMROUNDEDRECTD102*
21,1,1.600,0.800,0,0,180.0*
21,1,0.800,1.600,0,0,180.0*
1,1,0.800,-0.400,0.400*
1,1,0.800,0.400,0.400*
1,1,0.800,0.400,-0.400*
1,1,0.800,-0.400,-0.400*
%
%ADD102ROUNDEDRECTD102*%
G04:AMPARAMS|DCode=103|XSize=1.5mm|YSize=1.5mm|CornerRadius=0.375mm|HoleSize=0mm|Usage=FLASHONLY|Rotation=270.000|XOffset=0mm|YOffset=0mm|HoleType=Round|Shape=RoundedRectangle|*
%AMROUNDEDRECTD103*
21,1,1.500,0.750,0,0,270.0*
21,1,0.750,1.500,0,0,270.0*
1,1,0.750,-0.375,-0.375*
1,1,0.750,-0.375,0.375*
1,1,0.750,0.375,0.375*
1,1,0.750,0.375,-0.375*
%
%ADD103ROUNDEDRECTD103*%
%ADD104C,1.500*%
%TA.AperFunction,ViaPad*%
%ADD105C,3.500*%
%TA.AperFunction,ComponentPad*%
%ADD106C,1.950*%
G04:AMPARAMS|DCode=107|XSize=1.95mm|YSize=1.95mm|CornerRadius=0.488mm|HoleSize=0mm|Usage=FLASHONLY|Rotation=180.000|XOffset=0mm|YOffset=0mm|HoleType=Round|Shape=RoundedRectangle|*
%AMROUNDEDRECTD107*
21,1,1.950,0.975,0,0,180.0*
21,1,0.975,1.950,0,0,180.0*
1,1,0.975,-0.488,0.488*
1,1,0.975,0.488,0.488*
1,1,0.975,0.488,-0.488*
1,1,0.975,-0.488,-0.488*
%
%ADD107ROUNDEDRECTD107*%
G04:AMPARAMS|DCode=108|XSize=1.6mm|YSize=1.6mm|CornerRadius=0.4mm|HoleSize=0mm|Usage=FLASHONLY|Rotation=90.000|XOffset=0mm|YOffset=0mm|HoleType=Round|Shape=RoundedRectangle|*
%AMROUNDEDRECTD108*
21,1,1.600,0.800,0,0,90.0*
21,1,0.800,1.600,0,0,90.0*
1,1,0.800,0.400,0.400*
1,1,0.800,0.400,-0.400*
1,1,0.800,-0.400,-0.400*
1,1,0.800,-0.400,0.400*
%
%ADD108ROUNDEDRECTD108*%
%TA.AperFunction,ViaPad*%
%ADD109C,0.750*%
G36*
X57364Y83602D02*
X57442Y83450D01*
X57641Y83172D01*
X57888Y82937D01*
X58176Y82752D01*
X58493Y82625D01*
X58829Y82560D01*
X59171Y82560D01*
X59506Y82625D01*
X59824Y82752D01*
X60112Y82936D01*
X60359Y83172D01*
X60558Y83450D01*
X60636Y83602D01*
X60636Y83602D01*
X61650D01*
Y81602D01*
X56350D01*
Y83602D01*
X56350Y83602D01*
X57364D01*
X57364Y83602D01*
D02*
G37*
G36*
X61650Y85102D02*
X61650Y85102D01*
X60636D01*
X60558Y85254D01*
X60359Y85532D01*
X60112Y85768D01*
X59824Y85952D01*
X59507Y86079D01*
X59171Y86144D01*
X58829Y86144D01*
X58494Y86079D01*
X58176Y85953D01*
X57888Y85768D01*
X57641Y85532D01*
X57442Y85254D01*
X57364Y85102D01*
X57364Y85102D01*
X56350D01*
Y87102D01*
X61650D01*
Y85102D01*
D02*
G37*
G36*
X123013Y88840D02*
X122401Y87340D01*
X119400Y87340D01*
Y90340D01*
X122401D01*
X123013Y88840D01*
D02*
G37*
G36*
X127512Y87340D02*
X123287D01*
X123900Y88840D01*
X123287Y90340D01*
X127512D01*
Y87340D01*
D02*
G37*
G36*
X133013Y84000D02*
X132401Y82500D01*
X129400Y82500D01*
Y85500D01*
X132401D01*
X133013Y84000D01*
D02*
G37*
G36*
Y88840D02*
X132401Y87340D01*
X129400Y87340D01*
Y90340D01*
X132401D01*
X133013Y88840D01*
D02*
G37*
G36*
X137513Y82500D02*
X133288D01*
X133900Y84000D01*
X133288Y85500D01*
X137513D01*
Y82500D01*
D02*
G37*
G36*
Y87340D02*
X133288D01*
X133900Y88840D01*
X133288Y90340D01*
X137513D01*
Y87340D01*
D02*
G37*
D10*
X74960Y161030D02*
D03*
X74310D02*
D03*
X73660D02*
D03*
Y158890D02*
D03*
X74960D02*
D03*
D11*
X24190Y133910D02*
D03*
Y135210D02*
D03*
X26110D02*
D03*
Y134560D02*
D03*
Y133910D02*
D03*
D12*
X47326Y157000D02*
D03*
Y157800D02*
D03*
Y158600D02*
D03*
Y159400D02*
D03*
Y160200D02*
D03*
Y161000D02*
D03*
Y161800D02*
D03*
Y162600D02*
D03*
Y163400D02*
D03*
Y164200D02*
D03*
Y165000D02*
D03*
X58674D02*
D03*
Y164200D02*
D03*
Y163400D02*
D03*
Y162600D02*
D03*
Y161800D02*
D03*
Y161000D02*
D03*
Y160200D02*
D03*
Y159400D02*
D03*
Y158600D02*
D03*
Y157800D02*
D03*
Y157000D02*
D03*
D13*
X49000Y166674D02*
D03*
X49800D02*
D03*
X50600D02*
D03*
X51400D02*
D03*
X52200D02*
D03*
X53000D02*
D03*
X53800D02*
D03*
X54600D02*
D03*
X55400D02*
D03*
X56200D02*
D03*
X57000D02*
D03*
Y155326D02*
D03*
X56200D02*
D03*
X55400D02*
D03*
X54600D02*
D03*
X53800D02*
D03*
X53000D02*
D03*
X52200D02*
D03*
X51400D02*
D03*
X50600D02*
D03*
X49800D02*
D03*
X49000D02*
D03*
D14*
X142730Y134120D02*
D03*
Y135920D02*
D03*
X67390Y193380D02*
D03*
Y191580D02*
D03*
X64850Y193380D02*
D03*
Y191580D02*
D03*
X73040Y167950D02*
D03*
Y169750D02*
D03*
X75580Y171760D02*
D03*
Y173560D02*
D03*
X140190Y134120D02*
D03*
Y135920D02*
D03*
X147810Y134120D02*
D03*
Y135920D02*
D03*
X145000Y106100D02*
D03*
Y107900D02*
D03*
X149250Y106100D02*
D03*
Y107900D02*
D03*
X147250Y106100D02*
D03*
Y107900D02*
D03*
X73040Y153980D02*
D03*
Y155780D02*
D03*
X118562Y132110D02*
D03*
Y130310D02*
D03*
X103322Y132110D02*
D03*
Y130310D02*
D03*
X13713Y175040D02*
D03*
Y176840D02*
D03*
X15749Y175040D02*
D03*
Y176840D02*
D03*
X67390Y195390D02*
D03*
Y197190D02*
D03*
X64850Y195390D02*
D03*
Y197190D02*
D03*
X75580Y153980D02*
D03*
Y155780D02*
D03*
X80920Y115570D02*
D03*
Y113770D02*
D03*
Y120770D02*
D03*
Y122570D02*
D03*
X52920Y120770D02*
D03*
Y122570D02*
D03*
Y112770D02*
D03*
Y114570D02*
D03*
Y119070D02*
D03*
Y117270D02*
D03*
X80920Y119070D02*
D03*
Y117270D02*
D03*
X43830Y162130D02*
D03*
Y160330D02*
D03*
X61610Y159060D02*
D03*
Y160860D02*
D03*
X75580Y167950D02*
D03*
Y169750D02*
D03*
X145270Y135920D02*
D03*
Y134120D02*
D03*
X25398Y150485D02*
D03*
Y152285D02*
D03*
X25530Y158105D02*
D03*
Y159905D02*
D03*
X20800Y177300D02*
D03*
Y179100D02*
D03*
X18100Y177300D02*
D03*
Y179100D02*
D03*
X24000Y177740D02*
D03*
Y175940D02*
D03*
D15*
X18277Y181007D02*
D03*
X20077D02*
D03*
X12450Y169800D02*
D03*
X14250D02*
D03*
X20092Y183262D02*
D03*
X18292D02*
D03*
X10440Y169800D02*
D03*
X8640D02*
D03*
X69870Y103920D02*
D03*
X71670D02*
D03*
X60770D02*
D03*
X62570D02*
D03*
X73820Y131920D02*
D03*
X72020D02*
D03*
X64070D02*
D03*
X62270D02*
D03*
X66270D02*
D03*
X68070D02*
D03*
X65770Y103920D02*
D03*
X67570D02*
D03*
X51820Y152340D02*
D03*
X53620D02*
D03*
X51820Y170120D02*
D03*
X53620D02*
D03*
X57900Y152340D02*
D03*
X56100D02*
D03*
X26950Y154320D02*
D03*
X25150D02*
D03*
X27014Y161940D02*
D03*
X25214D02*
D03*
X20070Y185294D02*
D03*
X18270D02*
D03*
D16*
X48000Y117460D02*
D03*
Y122540D02*
D03*
X44000D02*
D03*
Y117460D02*
D03*
D17*
X58170Y107250D02*
D03*
X58670D02*
D03*
X59170D02*
D03*
X59670D02*
D03*
X60170D02*
D03*
X60670D02*
D03*
X61170D02*
D03*
X61670D02*
D03*
X62170D02*
D03*
X62670D02*
D03*
X63170D02*
D03*
X63670D02*
D03*
X64170D02*
D03*
X64670D02*
D03*
X65170D02*
D03*
X65670D02*
D03*
X66170D02*
D03*
X66670D02*
D03*
X67170D02*
D03*
X67670D02*
D03*
X68170D02*
D03*
X68670D02*
D03*
X69170D02*
D03*
X69670D02*
D03*
X70170D02*
D03*
X70670D02*
D03*
X71170D02*
D03*
X71670D02*
D03*
X72170D02*
D03*
X72670D02*
D03*
X73170D02*
D03*
X73670D02*
D03*
X74170D02*
D03*
X74670D02*
D03*
X75170D02*
D03*
X75670D02*
D03*
Y128590D02*
D03*
X75170D02*
D03*
X74670D02*
D03*
X74170D02*
D03*
X73670D02*
D03*
X73170D02*
D03*
X72670D02*
D03*
X72170D02*
D03*
X71670D02*
D03*
X71170D02*
D03*
X70670D02*
D03*
X70170D02*
D03*
X69670D02*
D03*
X69170D02*
D03*
X68670D02*
D03*
X68170D02*
D03*
X67670D02*
D03*
X67170D02*
D03*
X66670D02*
D03*
X66170D02*
D03*
X65670D02*
D03*
X65170D02*
D03*
X64670D02*
D03*
X64170D02*
D03*
X63670D02*
D03*
X63170D02*
D03*
X62670D02*
D03*
X62170D02*
D03*
X61670D02*
D03*
X61170D02*
D03*
X60670D02*
D03*
X60170D02*
D03*
X59670D02*
D03*
X59170D02*
D03*
X58670D02*
D03*
X58170D02*
D03*
D18*
X56250Y126670D02*
D03*
Y126170D02*
D03*
Y125670D02*
D03*
Y125170D02*
D03*
Y124670D02*
D03*
Y124170D02*
D03*
Y123670D02*
D03*
Y123170D02*
D03*
Y122670D02*
D03*
Y122170D02*
D03*
Y121670D02*
D03*
Y121170D02*
D03*
Y120670D02*
D03*
Y120170D02*
D03*
Y119670D02*
D03*
Y119170D02*
D03*
Y118670D02*
D03*
Y118170D02*
D03*
Y117670D02*
D03*
Y117170D02*
D03*
Y116670D02*
D03*
Y116170D02*
D03*
Y115670D02*
D03*
Y115170D02*
D03*
Y114670D02*
D03*
Y114170D02*
D03*
Y113670D02*
D03*
Y113170D02*
D03*
Y112670D02*
D03*
Y112170D02*
D03*
Y111670D02*
D03*
Y111170D02*
D03*
Y110670D02*
D03*
Y110170D02*
D03*
Y109670D02*
D03*
Y109170D02*
D03*
X77590D02*
D03*
Y109670D02*
D03*
Y110170D02*
D03*
Y110670D02*
D03*
Y111170D02*
D03*
Y111670D02*
D03*
Y112170D02*
D03*
Y112670D02*
D03*
Y113170D02*
D03*
Y113670D02*
D03*
Y114170D02*
D03*
Y114670D02*
D03*
Y115170D02*
D03*
Y115670D02*
D03*
Y116170D02*
D03*
Y116670D02*
D03*
Y117170D02*
D03*
Y117670D02*
D03*
Y118170D02*
D03*
Y118670D02*
D03*
Y119170D02*
D03*
Y119670D02*
D03*
Y120170D02*
D03*
Y120670D02*
D03*
Y121170D02*
D03*
Y121670D02*
D03*
Y122170D02*
D03*
Y122670D02*
D03*
Y123170D02*
D03*
Y123670D02*
D03*
Y124170D02*
D03*
Y124670D02*
D03*
Y125170D02*
D03*
Y125670D02*
D03*
Y126170D02*
D03*
Y126670D02*
D03*
D19*
X118562Y124570D02*
D03*
Y120070D02*
D03*
X126258D02*
D03*
Y124570D02*
D03*
X103322D02*
D03*
Y120070D02*
D03*
X111018D02*
D03*
Y124570D02*
D03*
D20*
X70106Y159400D02*
D03*
X68354Y158750D02*
D03*
Y160050D02*
D03*
D21*
X22600Y149720D02*
D03*
Y152020D02*
D03*
Y154320D02*
D03*
Y157340D02*
D03*
Y159640D02*
D03*
Y161940D02*
D03*
D22*
X16800Y152020D02*
D03*
Y159640D02*
D03*
D23*
X28019Y179870D02*
D03*
X27384D02*
D03*
X26749D02*
D03*
X26114D02*
D03*
X25479D02*
D03*
X24844D02*
D03*
X24209D02*
D03*
X23574D02*
D03*
Y185313D02*
D03*
X24209D02*
D03*
X24844D02*
D03*
X25479D02*
D03*
X26114D02*
D03*
X26749D02*
D03*
X27384D02*
D03*
X28019D02*
D03*
D24*
X65420Y144720D02*
D03*
X60670Y144720D02*
D03*
X55750D02*
D03*
X50180Y144720D02*
D03*
X92000Y104000D02*
D03*
X31130Y196790D02*
D03*
X41290D02*
D03*
X46370Y196790D02*
D03*
X36210D02*
D03*
X28000Y12000D02*
D03*
X130600Y93500D02*
D03*
X59000Y89699D02*
D03*
X46000Y92000D02*
D03*
X73000Y82079D02*
D03*
X36000Y92000D02*
D03*
X73000Y88300D02*
D03*
X28000Y50560D02*
D03*
Y40400D02*
D03*
Y45480D02*
D03*
Y35320D02*
D03*
X68000Y55100D02*
D03*
X63000Y57100D02*
D03*
X58000Y59100D02*
D03*
X53000Y61100D02*
D03*
X28000Y20120D02*
D03*
Y25200D02*
D03*
Y30280D02*
D03*
D25*
X9540Y152020D02*
D03*
Y144400D02*
D03*
Y159640D02*
D03*
Y164405D02*
D03*
X156000Y22000D02*
D03*
D26*
X14755Y185615D02*
D03*
Y185115D02*
D03*
Y184615D02*
D03*
Y182115D02*
D03*
Y182615D02*
D03*
Y183115D02*
D03*
Y184115D02*
D03*
Y183615D02*
D03*
D27*
Y181465D02*
D03*
Y186265D02*
D03*
Y180665D02*
D03*
Y187065D02*
D03*
D28*
X18197Y187326D02*
D03*
X20143D02*
D03*
D31*
X45300Y81002D02*
D03*
Y83002D02*
D03*
X88500Y11000D02*
D03*
Y9000D02*
D03*
X83500Y11000D02*
D03*
Y9000D02*
D03*
X74700Y51400D02*
D03*
Y49400D02*
D03*
X147500Y69950D02*
D03*
Y71950D02*
D03*
D32*
X88500Y25127D02*
D03*
Y23327D02*
D03*
X73000Y21000D02*
D03*
Y19200D02*
D03*
X118100Y28000D02*
D03*
Y26200D02*
D03*
X71425Y46326D02*
D03*
Y48126D02*
D03*
D33*
X121125Y88840D02*
D03*
X126000D02*
D03*
X131125D02*
D03*
X136000D02*
D03*
X131125Y84000D02*
D03*
X136000D02*
D03*
D34*
X51848Y19000D02*
D03*
X39348D02*
D03*
D35*
X87202Y64800D02*
D03*
X85750D02*
D03*
X83250Y40100D02*
D03*
X81798D02*
D03*
X86248D02*
D03*
X87700D02*
D03*
X54400Y52190D02*
D03*
X55852D02*
D03*
X54400Y49700D02*
D03*
X55852D02*
D03*
X36100Y32150D02*
D03*
X37552D02*
D03*
X54026D02*
D03*
X52574D02*
D03*
X49250D02*
D03*
X50702D02*
D03*
X49452Y78000D02*
D03*
X48000D02*
D03*
X39564Y53500D02*
D03*
X38112D02*
D03*
X43848Y52800D02*
D03*
X45300D02*
D03*
X44050Y32150D02*
D03*
X42598D02*
D03*
X46000D02*
D03*
X47452D02*
D03*
X40800D02*
D03*
X39348D02*
D03*
D36*
X107590Y37450D02*
D03*
Y35500D02*
D03*
D37*
X97600Y49320D02*
D03*
Y50772D02*
D03*
X54200Y81674D02*
D03*
Y83126D02*
D03*
X71425Y49750D02*
D03*
Y51201D02*
D03*
X33075Y35320D02*
D03*
Y33868D02*
D03*
Y45480D02*
D03*
Y44028D02*
D03*
Y50560D02*
D03*
Y52012D02*
D03*
Y40348D02*
D03*
Y41800D02*
D03*
X74700Y47600D02*
D03*
Y46148D02*
D03*
D39*
X48000Y63780D02*
D03*
X39300D02*
D03*
D40*
X47100Y57100D02*
D03*
X45350D02*
D03*
X116350Y29950D02*
D03*
X118100D02*
D03*
X66885Y39000D02*
D03*
X68635D02*
D03*
X131500Y64100D02*
D03*
X129750D02*
D03*
X131500Y54200D02*
D03*
X129750D02*
D03*
X30725Y78070D02*
D03*
X32475D02*
D03*
X30725Y72990D02*
D03*
X32475D02*
D03*
X30775Y67910D02*
D03*
X32525D02*
D03*
X30725Y57750D02*
D03*
X32475D02*
D03*
X30775Y62830D02*
D03*
X32525D02*
D03*
D41*
X79250Y9000D02*
D03*
X81250D02*
D03*
X92750D02*
D03*
X90750D02*
D03*
X72700Y57100D02*
D03*
X74700D02*
D03*
X150500Y66900D02*
D03*
X152500D02*
D03*
D42*
X122400Y29000D02*
D03*
X120400Y28050D02*
D03*
Y29950D02*
D03*
X133100Y52250D02*
D03*
Y50350D02*
D03*
X135100Y51300D02*
D03*
X133100Y62050D02*
D03*
Y60150D02*
D03*
X135100Y61100D02*
D03*
X26400Y68860D02*
D03*
X28400Y69810D02*
D03*
Y67910D02*
D03*
X26400Y73940D02*
D03*
X28400Y74890D02*
D03*
Y72990D02*
D03*
X26400Y79020D02*
D03*
X28400Y79970D02*
D03*
Y78070D02*
D03*
Y57750D02*
D03*
Y59650D02*
D03*
X26400Y58700D02*
D03*
X28400Y62830D02*
D03*
Y64730D02*
D03*
X26400Y63780D02*
D03*
D43*
X132300Y31350D02*
D03*
Y24650D02*
D03*
X163025Y65600D02*
D03*
Y72300D02*
D03*
D44*
X126550Y29000D02*
D03*
Y27000D02*
D03*
X157275Y67950D02*
D03*
Y69950D02*
D03*
D45*
X158100Y54300D02*
D03*
X160100Y61700D02*
D03*
D46*
X150700D02*
D03*
D47*
X152300Y69950D02*
D03*
X150480Y69000D02*
D03*
D48*
Y70900D02*
D03*
D49*
X53882Y88626D02*
D03*
Y86974D02*
D03*
X72030Y68277D02*
D03*
Y66625D02*
D03*
X69490Y68277D02*
D03*
Y66625D02*
D03*
X66950Y68277D02*
D03*
Y66625D02*
D03*
X64410Y68277D02*
D03*
Y66625D02*
D03*
X61870Y68277D02*
D03*
Y66625D02*
D03*
X59330Y68277D02*
D03*
Y66625D02*
D03*
D50*
X92250Y11500D02*
D03*
X90750D02*
D03*
X79750D02*
D03*
X81250D02*
D03*
D51*
X118100Y24200D02*
D03*
X116050D02*
D03*
D52*
X50550Y36480D02*
D03*
X49900D02*
D03*
X49250D02*
D03*
X48600D02*
D03*
X47950D02*
D03*
X47300D02*
D03*
X46650D02*
D03*
X46000D02*
D03*
X45350D02*
D03*
X44700D02*
D03*
X44050D02*
D03*
X43400D02*
D03*
X42750D02*
D03*
X42100D02*
D03*
X41450D02*
D03*
X40800D02*
D03*
X40150D02*
D03*
X39500D02*
D03*
Y49700D02*
D03*
X40150D02*
D03*
X40800D02*
D03*
X41450D02*
D03*
X42100D02*
D03*
X42750D02*
D03*
X43400D02*
D03*
X44050D02*
D03*
X44700D02*
D03*
X45350D02*
D03*
X46000D02*
D03*
X46650D02*
D03*
X47300D02*
D03*
X47950D02*
D03*
X48600D02*
D03*
X49250D02*
D03*
X49900D02*
D03*
X50550D02*
D03*
D53*
X120000Y84950D02*
D03*
Y81550D02*
D03*
D54*
X71425Y37800D02*
D03*
Y43800D02*
D03*
X75125Y37800D02*
D03*
Y43800D02*
D03*
D55*
X67760Y33021D02*
D03*
X66810Y35021D02*
D03*
X68710D02*
D03*
D56*
X68660Y37000D02*
D03*
X66860D02*
D03*
X129700Y62050D02*
D03*
X131500D02*
D03*
X129700Y52250D02*
D03*
X131500D02*
D03*
X32625Y59650D02*
D03*
X30825D02*
D03*
X32625Y64730D02*
D03*
X30825D02*
D03*
X32675Y69810D02*
D03*
X30875D02*
D03*
X32675Y74890D02*
D03*
X30875D02*
D03*
X32675Y79970D02*
D03*
X30875D02*
D03*
D57*
X145000Y80000D02*
D03*
D58*
X148982Y80918D02*
D03*
X148982Y79082D02*
D03*
D59*
X50700Y83002D02*
D03*
Y82052D02*
D03*
Y81102D02*
D03*
X48000D02*
D03*
Y82052D02*
D03*
Y83002D02*
D03*
D60*
X78991Y57100D02*
D03*
X76891D02*
D03*
D61*
X43500Y55100D02*
D03*
X45350D02*
D03*
D62*
X134000Y53840D02*
D03*
Y55690D02*
D03*
Y65490D02*
D03*
Y63640D02*
D03*
D63*
X76600Y67823D02*
D03*
X74948D02*
D03*
X49500Y75000D02*
D03*
X47848D02*
D03*
D64*
X80000Y88300D02*
D03*
Y93300D02*
D03*
Y82300D02*
D03*
Y77300D02*
D03*
X59960Y39498D02*
D03*
Y44498D02*
D03*
D65*
X80326Y55750D02*
D03*
Y55250D02*
D03*
Y54750D02*
D03*
Y54250D02*
D03*
Y53750D02*
D03*
Y53250D02*
D03*
Y52750D02*
D03*
Y52250D02*
D03*
Y51750D02*
D03*
Y51250D02*
D03*
Y50750D02*
D03*
Y50250D02*
D03*
Y49750D02*
D03*
Y49250D02*
D03*
Y48750D02*
D03*
Y48250D02*
D03*
X91674D02*
D03*
Y48750D02*
D03*
Y49250D02*
D03*
Y49750D02*
D03*
Y50250D02*
D03*
Y50750D02*
D03*
Y51250D02*
D03*
Y51750D02*
D03*
Y52250D02*
D03*
Y52750D02*
D03*
Y53250D02*
D03*
Y53750D02*
D03*
Y54250D02*
D03*
Y54750D02*
D03*
Y55250D02*
D03*
Y55750D02*
D03*
D66*
X82250Y46326D02*
D03*
X82750D02*
D03*
X83250D02*
D03*
X83750D02*
D03*
X84250D02*
D03*
X84750D02*
D03*
X85250D02*
D03*
X85750D02*
D03*
X86250D02*
D03*
X86750D02*
D03*
X87250D02*
D03*
X87750D02*
D03*
X88250D02*
D03*
X88750D02*
D03*
X89250D02*
D03*
X89750D02*
D03*
Y57674D02*
D03*
X89250D02*
D03*
X88750D02*
D03*
X88250D02*
D03*
X87750D02*
D03*
X87250D02*
D03*
X86750D02*
D03*
X86250D02*
D03*
X85750D02*
D03*
X85250D02*
D03*
X84750D02*
D03*
X84250D02*
D03*
X83750D02*
D03*
X83250D02*
D03*
X82750D02*
D03*
X82250D02*
D03*
D67*
X45300Y78900D02*
D03*
X43300D02*
D03*
D73*
X24780Y142180D02*
D03*
X56650Y177000D02*
D03*
D74*
X27320Y142180D02*
D03*
X29860D02*
D03*
X12000Y135620D02*
D03*
Y133080D02*
D03*
Y130540D02*
D03*
Y128000D02*
D03*
Y125460D02*
D03*
X32400Y160060D02*
D03*
Y162600D02*
D03*
Y165140D02*
D03*
Y167680D02*
D03*
Y170220D02*
D03*
X69350Y177000D02*
D03*
X66810D02*
D03*
X64270D02*
D03*
X61730D02*
D03*
X59190D02*
D03*
D75*
X94520Y193000D02*
D03*
X97060D02*
D03*
X99600D02*
D03*
X102140D02*
D03*
X104680D02*
D03*
X107220D02*
D03*
X109760D02*
D03*
X112300D02*
D03*
X114840D02*
D03*
X117380D02*
D03*
X119920D02*
D03*
X122460D02*
D03*
X125000D02*
D03*
X127540D02*
D03*
X130080D02*
D03*
X132620D02*
D03*
X169000Y182000D02*
D03*
Y179500D02*
D03*
X68080Y75000D02*
D03*
X65540D02*
D03*
X63000D02*
D03*
X107590D02*
D03*
X105050D02*
D03*
X102510D02*
D03*
X92000Y30700D02*
D03*
X94540D02*
D03*
X99620D02*
D03*
X102160D02*
D03*
X97080D02*
D03*
X122000Y41920D02*
D03*
Y39380D02*
D03*
Y44460D02*
D03*
Y47000D02*
D03*
Y58120D02*
D03*
Y55580D02*
D03*
Y53040D02*
D03*
D76*
X88020Y192000D02*
D03*
Y152000D02*
D03*
X158020D02*
D03*
Y192000D02*
D03*
D77*
X40020Y107890D02*
D03*
Y105350D02*
D03*
X37480Y107890D02*
D03*
Y105350D02*
D03*
X34940D02*
D03*
Y107890D02*
D03*
X32400Y105350D02*
D03*
Y107890D02*
D03*
X29860Y105350D02*
D03*
Y107890D02*
D03*
X142290Y114920D02*
D03*
X147290Y129420D02*
D03*
X144790D02*
D03*
X142290D02*
D03*
X64900Y21000D02*
D03*
X68710Y24810D02*
D03*
X115000Y84460D02*
D03*
Y87000D02*
D03*
D78*
X13680Y186755D02*
D03*
Y180975D02*
D03*
D79*
X150390Y121920D02*
D03*
X139190D02*
D03*
D80*
X147290Y114920D02*
D03*
X115000Y81920D02*
D03*
D81*
X169000Y184500D02*
D03*
D82*
X12000Y122920D02*
D03*
X32400Y172760D02*
D03*
D83*
X10850Y116150D02*
D03*
Y109850D02*
D03*
X17150D02*
D03*
Y116150D02*
D03*
X17000Y20000D02*
D03*
Y25080D02*
D03*
Y35240D02*
D03*
Y45400D02*
D03*
Y40320D02*
D03*
Y30160D02*
D03*
X17000Y58700D02*
D03*
Y63780D02*
D03*
Y73940D02*
D03*
Y79020D02*
D03*
Y68860D02*
D03*
D84*
X14000Y113000D02*
D03*
D85*
X14180Y179545D02*
D03*
Y188185D02*
D03*
D86*
X10000Y179545D02*
D03*
Y188185D02*
D03*
D87*
X27000Y181801D02*
D03*
X97600Y47761D02*
D03*
X149500Y95000D02*
D03*
X151250Y91500D02*
D03*
X146000Y95000D02*
D03*
X147750Y91500D02*
D03*
X142500Y95000D02*
D03*
X139000D02*
D03*
X135500D02*
D03*
Y81000D02*
D03*
X137250Y77500D02*
D03*
X135500Y74000D02*
D03*
Y60000D02*
D03*
Y53000D02*
D03*
Y46000D02*
D03*
X132000Y81000D02*
D03*
X133750Y77500D02*
D03*
X132000Y74000D02*
D03*
Y67000D02*
D03*
Y60000D02*
D03*
Y46000D02*
D03*
X133750Y42500D02*
D03*
X130250Y91500D02*
D03*
X128500Y81000D02*
D03*
X130250Y77500D02*
D03*
X128500Y74000D02*
D03*
Y60000D02*
D03*
X130250Y56500D02*
D03*
X128500Y53000D02*
D03*
X130250Y49500D02*
D03*
X128500Y46000D02*
D03*
X130250Y42500D02*
D03*
X128500Y39000D02*
D03*
X125000Y95000D02*
D03*
Y81000D02*
D03*
X126750Y77500D02*
D03*
X125000Y60000D02*
D03*
X126750Y56500D02*
D03*
X125000Y53000D02*
D03*
X126750Y49500D02*
D03*
X125000Y46000D02*
D03*
X126750Y42500D02*
D03*
X125000Y39000D02*
D03*
X126750Y35500D02*
D03*
X121500Y95000D02*
D03*
X123250Y91500D02*
D03*
Y84500D02*
D03*
Y77500D02*
D03*
Y70500D02*
D03*
Y56500D02*
D03*
Y49500D02*
D03*
Y42500D02*
D03*
Y35500D02*
D03*
X118000Y95000D02*
D03*
X119750Y91500D02*
D03*
Y77500D02*
D03*
X118000Y74000D02*
D03*
X119750Y70500D02*
D03*
X118000Y67000D02*
D03*
X119750Y56500D02*
D03*
Y49500D02*
D03*
X118000Y39000D02*
D03*
X119750Y35500D02*
D03*
X114500Y95000D02*
D03*
X116250Y91500D02*
D03*
Y77500D02*
D03*
X114500Y74000D02*
D03*
X116250Y70500D02*
D03*
X114500Y67000D02*
D03*
X116250Y63500D02*
D03*
Y56500D02*
D03*
Y49500D02*
D03*
Y42500D02*
D03*
Y35500D02*
D03*
X111000Y95000D02*
D03*
X112750Y91500D02*
D03*
Y84500D02*
D03*
X111000Y81000D02*
D03*
X112750Y77500D02*
D03*
X111000Y67000D02*
D03*
X112750Y63500D02*
D03*
Y49500D02*
D03*
Y42500D02*
D03*
Y35500D02*
D03*
X107500Y95000D02*
D03*
X109250Y91500D02*
D03*
X107500Y88000D02*
D03*
Y81000D02*
D03*
X109250Y77500D02*
D03*
X107500Y67000D02*
D03*
X109250Y63500D02*
D03*
Y49500D02*
D03*
Y42500D02*
D03*
Y35500D02*
D03*
X104000Y95000D02*
D03*
X105750Y91500D02*
D03*
X104000Y88000D02*
D03*
X105750Y84500D02*
D03*
X104000Y81000D02*
D03*
X105750Y77500D02*
D03*
X104000Y67000D02*
D03*
X105750Y56500D02*
D03*
Y49500D02*
D03*
Y42500D02*
D03*
Y35500D02*
D03*
X100500Y95000D02*
D03*
X102250Y91500D02*
D03*
X100500Y88000D02*
D03*
X102250Y84500D02*
D03*
X100500Y81000D02*
D03*
X102250Y77500D02*
D03*
X100500Y74000D02*
D03*
X102250Y56500D02*
D03*
X97000Y95000D02*
D03*
X98750Y91500D02*
D03*
X97000Y88000D02*
D03*
X98750Y84500D02*
D03*
X97000Y81000D02*
D03*
X98750Y77500D02*
D03*
Y42500D02*
D03*
Y35500D02*
D03*
X93500Y95000D02*
D03*
X95250Y91500D02*
D03*
X93500Y88000D02*
D03*
X95250Y84500D02*
D03*
X93500Y81000D02*
D03*
X95250Y77500D02*
D03*
X93500Y74000D02*
D03*
X95250Y35500D02*
D03*
X90000Y95000D02*
D03*
X91750Y91500D02*
D03*
X90000Y88000D02*
D03*
X91750Y84500D02*
D03*
X90000Y81000D02*
D03*
X91750Y77500D02*
D03*
X90000Y74000D02*
D03*
Y67000D02*
D03*
X91750Y35500D02*
D03*
X86500Y95000D02*
D03*
Y81000D02*
D03*
X88250Y77500D02*
D03*
X86500Y67000D02*
D03*
X88250Y35500D02*
D03*
X83000Y95000D02*
D03*
X84750Y91500D02*
D03*
X83000Y88000D02*
D03*
X84750Y84500D02*
D03*
X83000Y81000D02*
D03*
X84750Y77500D02*
D03*
Y49500D02*
D03*
X76000Y95000D02*
D03*
X77750Y91500D02*
D03*
X76000Y88000D02*
D03*
X77750Y84500D02*
D03*
X76000Y81000D02*
D03*
Y39000D02*
D03*
X72500Y95000D02*
D03*
X74250Y91500D02*
D03*
Y84500D02*
D03*
X72500Y39000D02*
D03*
X69000Y95000D02*
D03*
X70750Y91500D02*
D03*
Y84500D02*
D03*
X69000Y81000D02*
D03*
X70750Y77500D02*
D03*
Y70500D02*
D03*
Y63500D02*
D03*
Y35500D02*
D03*
X65500Y95000D02*
D03*
Y88000D02*
D03*
X67250Y77500D02*
D03*
Y63500D02*
D03*
Y49500D02*
D03*
X65500Y46000D02*
D03*
X62000Y95000D02*
D03*
X63750Y84500D02*
D03*
X62000Y74000D02*
D03*
X63750Y63500D02*
D03*
X58500Y95000D02*
D03*
X60250Y84500D02*
D03*
X58500Y74000D02*
D03*
X60250Y63500D02*
D03*
Y49500D02*
D03*
X55000Y95000D02*
D03*
X56750Y84500D02*
D03*
X55000Y74000D02*
D03*
X56750Y70500D02*
D03*
Y63500D02*
D03*
X51500Y95000D02*
D03*
X53250Y84500D02*
D03*
Y70500D02*
D03*
Y63500D02*
D03*
X48000Y95000D02*
D03*
X49750Y84500D02*
D03*
X44500Y95000D02*
D03*
X46250Y84500D02*
D03*
Y77500D02*
D03*
X44500Y74000D02*
D03*
X46250Y70500D02*
D03*
X41000Y95000D02*
D03*
X42750Y91500D02*
D03*
Y84500D02*
D03*
X41000Y74000D02*
D03*
X42750Y70500D02*
D03*
X41000Y60000D02*
D03*
X37500Y95000D02*
D03*
X39250Y91500D02*
D03*
Y84500D02*
D03*
Y77500D02*
D03*
X37500Y74000D02*
D03*
Y60000D02*
D03*
X34000Y95000D02*
D03*
X35750Y84500D02*
D03*
Y77500D02*
D03*
X34000Y74000D02*
D03*
X35750Y70500D02*
D03*
X34000Y67000D02*
D03*
X35750Y56500D02*
D03*
X30500Y95000D02*
D03*
X32250Y91500D02*
D03*
X30500Y88000D02*
D03*
X32250Y84500D02*
D03*
X30500Y53000D02*
D03*
X27000Y95000D02*
D03*
X28750Y91500D02*
D03*
X27000Y88000D02*
D03*
Y53000D02*
D03*
X23500Y95000D02*
D03*
X25250Y91500D02*
D03*
X23500Y88000D02*
D03*
Y81000D02*
D03*
Y67000D02*
D03*
Y60000D02*
D03*
Y53000D02*
D03*
X20000Y95000D02*
D03*
X21750Y91500D02*
D03*
X20000Y88000D02*
D03*
Y81000D02*
D03*
X21750Y77500D02*
D03*
Y70500D02*
D03*
X20000Y67000D02*
D03*
Y60000D02*
D03*
X21750Y56500D02*
D03*
X20000Y53000D02*
D03*
X16500Y81000D02*
D03*
X18250Y77500D02*
D03*
Y70500D02*
D03*
X16500Y67000D02*
D03*
X18250Y56500D02*
D03*
X16500Y53000D02*
D03*
X13000Y88000D02*
D03*
X14750Y84500D02*
D03*
X13000Y81000D02*
D03*
X14750Y77500D02*
D03*
X13000Y74000D02*
D03*
X14750Y70500D02*
D03*
X13000Y67000D02*
D03*
X14750Y63500D02*
D03*
X13000Y60000D02*
D03*
X14750Y56500D02*
D03*
X13000Y53000D02*
D03*
X14750Y49500D02*
D03*
X46250Y14500D02*
D03*
X147750Y77500D02*
D03*
X48000Y18000D02*
D03*
X37500Y11000D02*
D03*
X151250Y42500D02*
D03*
X21750Y28500D02*
D03*
X133750Y21500D02*
D03*
X25250Y14500D02*
D03*
X58500Y18000D02*
D03*
X34000D02*
D03*
X39250Y14500D02*
D03*
X56750Y21500D02*
D03*
Y35500D02*
D03*
X146000Y11000D02*
D03*
X151250Y21500D02*
D03*
X100500Y11000D02*
D03*
X51500D02*
D03*
X30500Y39000D02*
D03*
X105750Y21500D02*
D03*
X154750Y28500D02*
D03*
X25250D02*
D03*
X23500Y32000D02*
D03*
X126750Y14500D02*
D03*
X149500Y11000D02*
D03*
X147750Y56500D02*
D03*
X18250Y42500D02*
D03*
X154750D02*
D03*
X160000Y67000D02*
D03*
X100500Y18000D02*
D03*
X160000Y88000D02*
D03*
X149500Y25000D02*
D03*
X151250Y84500D02*
D03*
X14750Y28500D02*
D03*
X133750D02*
D03*
X140750Y35500D02*
D03*
X62000Y11000D02*
D03*
X21750Y42500D02*
D03*
X156500Y25000D02*
D03*
X20000Y32000D02*
D03*
X149500Y88000D02*
D03*
X151250Y56500D02*
D03*
X62000Y18000D02*
D03*
X126750Y21500D02*
D03*
X23500Y39000D02*
D03*
Y18000D02*
D03*
X161750Y70500D02*
D03*
X25250Y42500D02*
D03*
X149500Y53000D02*
D03*
X153000Y18000D02*
D03*
X114500Y11000D02*
D03*
X130250Y14500D02*
D03*
X20000Y39000D02*
D03*
X147750Y35500D02*
D03*
X149500Y39000D02*
D03*
X160000Y53000D02*
D03*
X28750Y28500D02*
D03*
X158250Y56500D02*
D03*
X161750Y63500D02*
D03*
X151250Y14500D02*
D03*
X53250D02*
D03*
X97000Y11000D02*
D03*
X14750Y21500D02*
D03*
X156500Y46000D02*
D03*
X21750Y21500D02*
D03*
X123250D02*
D03*
X114500Y18000D02*
D03*
X30500D02*
D03*
X149500Y32000D02*
D03*
X139000Y18000D02*
D03*
X18250Y21500D02*
D03*
X130250D02*
D03*
X125000Y18000D02*
D03*
X137250Y14500D02*
D03*
X32250D02*
D03*
X146000Y67000D02*
D03*
X112750Y21500D02*
D03*
X146000Y53000D02*
D03*
X21750Y14500D02*
D03*
X161750Y56500D02*
D03*
X98750Y14500D02*
D03*
X97000Y18000D02*
D03*
X149500Y46000D02*
D03*
X161750Y77500D02*
D03*
X160000Y18000D02*
D03*
X60250Y14500D02*
D03*
X149500Y18000D02*
D03*
X151250Y35500D02*
D03*
X34000Y39000D02*
D03*
X119750Y14500D02*
D03*
X56750D02*
D03*
X44500Y11000D02*
D03*
X112750Y14500D02*
D03*
X18250Y28500D02*
D03*
X53250Y21500D02*
D03*
X151250Y28500D02*
D03*
X128500Y11000D02*
D03*
X146000Y46000D02*
D03*
X35750Y14500D02*
D03*
X147750Y63500D02*
D03*
X156500Y18000D02*
D03*
X133750Y14500D02*
D03*
X121500Y11000D02*
D03*
X16500Y32000D02*
D03*
X146000Y39000D02*
D03*
X20000Y18000D02*
D03*
X53250Y35500D02*
D03*
X27000Y18000D02*
D03*
X158250Y77500D02*
D03*
X154750Y49500D02*
D03*
X13000Y25000D02*
D03*
X135500Y11000D02*
D03*
X28750Y14500D02*
D03*
X153000Y39000D02*
D03*
Y53000D02*
D03*
X158250Y42500D02*
D03*
Y28500D02*
D03*
X160000Y46000D02*
D03*
X156500Y32000D02*
D03*
X14750Y35500D02*
D03*
X154750Y84500D02*
D03*
X34000Y25000D02*
D03*
X116250Y21500D02*
D03*
X147750Y49500D02*
D03*
X146000Y74000D02*
D03*
X160000Y25000D02*
D03*
X153000Y88000D02*
D03*
X118000Y18000D02*
D03*
X104000D02*
D03*
X111000D02*
D03*
X135500D02*
D03*
X121500D02*
D03*
X146000D02*
D03*
X144250Y14500D02*
D03*
X132000Y18000D02*
D03*
X153000Y46000D02*
D03*
X142500Y39000D02*
D03*
X158250Y63500D02*
D03*
X153000Y25000D02*
D03*
X154750Y77500D02*
D03*
X48000Y11000D02*
D03*
X34000D02*
D03*
X144250Y21500D02*
D03*
X119750D02*
D03*
X128500Y18000D02*
D03*
X23500Y11000D02*
D03*
X116250Y14500D02*
D03*
X156500Y74000D02*
D03*
X14750Y42500D02*
D03*
X30500Y11000D02*
D03*
X49750Y14500D02*
D03*
X25250Y21500D02*
D03*
X160000Y32000D02*
D03*
X153000D02*
D03*
X142500Y18000D02*
D03*
X102250Y21500D02*
D03*
X151250Y77500D02*
D03*
X144250Y35500D02*
D03*
X55000Y11000D02*
D03*
X98750Y21500D02*
D03*
X160000Y39000D02*
D03*
X42750Y14500D02*
D03*
X142500Y11000D02*
D03*
X158250Y35500D02*
D03*
X118000Y11000D02*
D03*
X158250Y21500D02*
D03*
X156500Y81000D02*
D03*
X58500Y11000D02*
D03*
X41000D02*
D03*
X147750Y84500D02*
D03*
X123250Y14500D02*
D03*
X151250Y49500D02*
D03*
X111000Y11000D02*
D03*
X13000Y32000D02*
D03*
X137250Y21500D02*
D03*
X154750Y56500D02*
D03*
X158250Y49500D02*
D03*
X27000Y32000D02*
D03*
X147750Y14500D02*
D03*
X60250Y35500D02*
D03*
X107500Y18000D02*
D03*
X34000Y32000D02*
D03*
X13000Y39000D02*
D03*
X140750Y14500D02*
D03*
X139000Y11000D02*
D03*
X16500Y18000D02*
D03*
X147750Y21500D02*
D03*
X109250D02*
D03*
X128500Y25000D02*
D03*
X13000Y18000D02*
D03*
X154750Y35500D02*
D03*
X153000Y74000D02*
D03*
X140750Y21500D02*
D03*
X154750Y63500D02*
D03*
X132000Y11000D02*
D03*
X147750Y42500D02*
D03*
X156500Y39000D02*
D03*
X28750Y42500D02*
D03*
X125000Y11000D02*
D03*
X149500Y74000D02*
D03*
X160000D02*
D03*
X60250Y21500D02*
D03*
D88*
X172000Y104000D02*
D03*
X12000D02*
D03*
Y194000D02*
D03*
X172000D02*
D03*
D89*
X80400Y21000D02*
D03*
X91600D02*
D03*
D90*
X83500Y13500D02*
D03*
X86000D02*
D03*
X83500Y28000D02*
D03*
X88500D02*
D03*
D91*
Y13500D02*
D03*
D92*
X59330Y32950D02*
D03*
X64410D02*
D03*
X61870D02*
D03*
X72030Y71050D02*
D03*
X82190D02*
D03*
X79650D02*
D03*
X77110D02*
D03*
X74570D02*
D03*
X69490D02*
D03*
X66950D02*
D03*
X64410D02*
D03*
X61870D02*
D03*
X59330D02*
D03*
X110130Y32950D02*
D03*
X107590D02*
D03*
X84730Y71050D02*
D03*
X112670D02*
D03*
X99970D02*
D03*
X94890D02*
D03*
X92350D02*
D03*
X89810D02*
D03*
X87270D02*
D03*
X102510D02*
D03*
X105050D02*
D03*
X107590D02*
D03*
X97430D02*
D03*
X110130D02*
D03*
D93*
X112670Y32950D02*
D03*
D94*
X137190Y63640D02*
D03*
Y53840D02*
D03*
D95*
Y61100D02*
D03*
Y58560D02*
D03*
X144810D02*
D03*
Y61100D02*
D03*
Y63640D02*
D03*
X137190Y51300D02*
D03*
Y48760D02*
D03*
X144810D02*
D03*
Y51300D02*
D03*
Y53840D02*
D03*
D96*
X159000Y58000D02*
D03*
X152000D02*
D03*
D97*
X160000Y75500D02*
D03*
Y84500D02*
D03*
D98*
X162000Y80000D02*
D03*
D99*
X153000D02*
D03*
D100*
X159000D02*
D03*
D101*
X17000Y50480D02*
D03*
X17000Y84100D02*
D03*
D102*
X70620Y75000D02*
D03*
X110130D02*
D03*
X104700Y30700D02*
D03*
D103*
X88000Y87300D02*
D03*
D104*
Y84760D02*
D03*
Y82220D02*
D03*
D105*
X106000Y12000D02*
D03*
X16000Y92000D02*
D03*
X156000D02*
D03*
X16000Y12000D02*
D03*
X156000D02*
D03*
D106*
X141500Y89000D02*
D03*
D107*
X145000D02*
D03*
D108*
X122000Y36840D02*
D03*
Y50500D02*
D03*
D109*
X84916Y55911D02*
D03*
X69490Y49800D02*
D03*
X70748Y55000D02*
D03*
X102160Y47000D02*
D03*
Y43824D02*
D03*
Y37450D02*
D03*
X79800Y34000D02*
D03*
X79485Y36100D02*
D03*
X78000Y39000D02*
D03*
X81700Y36100D02*
D03*
X75500D02*
D03*
X87034Y44000D02*
D03*
X72700Y61800D02*
D03*
X77600Y64000D02*
D03*
X84469Y64800D02*
D03*
X97600Y52213D02*
D03*
X89839Y48322D02*
D03*
X83153Y51654D02*
D03*
X81953Y53010D02*
D03*
X83245Y24282D02*
D03*
X38795Y80967D02*
D03*
X40021D02*
D03*
X41248D02*
D03*
X42474D02*
D03*
X43700D02*
D03*
X26419Y81500D02*
D03*
X27444D02*
D03*
X28469D02*
D03*
X26419Y76420D02*
D03*
X27444D02*
D03*
X28469D02*
D03*
X26419Y71340D02*
D03*
X27444D02*
D03*
X28469D02*
D03*
X26419Y66260D02*
D03*
X27444D02*
D03*
X28469D02*
D03*
Y61180D02*
D03*
X27444D02*
D03*
X26419D02*
D03*
X138190Y68895D02*
D03*
X88373Y25127D02*
D03*
X98100Y33388D02*
D03*
X62895Y34386D02*
D03*
X80000Y75000D02*
D03*
X83153Y36840D02*
D03*
X85260D02*
D03*
X37498Y19000D02*
D03*
X39349D02*
D03*
X41200D02*
D03*
X49000Y57682D02*
D03*
X76607Y51913D02*
D03*
X84469Y50426D02*
D03*
X83783Y51010D02*
D03*
X72700Y57100D02*
D03*
X73500Y55694D02*
D03*
X135250Y75000D02*
D03*
X87381Y62668D02*
D03*
X87299Y51962D02*
D03*
X88043Y51078D02*
D03*
X96470Y73984D02*
D03*
X40800Y30700D02*
D03*
X44050D02*
D03*
X46000D02*
D03*
X49250D02*
D03*
X89263Y49335D02*
D03*
X88626Y50201D02*
D03*
X39098Y34491D02*
D03*
X31700Y25200D02*
D03*
X32700Y20120D02*
D03*
X51000Y34491D02*
D03*
X49000Y29000D02*
D03*
X46000D02*
D03*
X44050D02*
D03*
X41000D02*
D03*
X115000Y56246D02*
D03*
X42400Y48000D02*
D03*
X39960Y66961D02*
D03*
Y67959D02*
D03*
Y68946D02*
D03*
Y69948D02*
D03*
Y70949D02*
D03*
X96000Y61000D02*
D03*
X97600Y57000D02*
D03*
X49300Y82749D02*
D03*
X90500Y60500D02*
D03*
X127275Y54200D02*
D03*
X115816Y58120D02*
D03*
X64900Y44000D02*
D03*
X81900Y59500D02*
D03*
X86000Y42500D02*
D03*
X85100Y43500D02*
D03*
X47902Y48000D02*
D03*
X50000Y53000D02*
D03*
X49250Y47600D02*
D03*
X30700Y30280D02*
D03*
%TF.MD5,87b9585debf0033d99c623d726a09ca2*%
M02*
