%TF.GenerationSoftware,Altium Limited,Altium Designer,22.11.1 (43)*%
G04 Layer_Color=16776960*
%FSLAX43Y43*%
%MOMM*%
%TF.SameCoordinates,25A6F12C-B93B-4C7C-9F5B-633324915364*%
%TF.FilePolarity,Positive*%
%TF.FileFunction,Other,Top_Dimensions*%
%TF.Part,CustomerPanel*%
G01*
G75*
%TA.AperFunction,NonConductor*%
%ADD113C,0.152*%
%ADD119C,0.254*%
D113*
X-1832Y99293D02*
Y98277D01*
X-2848Y99293D01*
X-3102D01*
X-3355Y99039D01*
Y98531D01*
X-3102Y98277D01*
Y99800D02*
X-3355Y100054D01*
Y100562D01*
X-3102Y100816D01*
X-2086D01*
X-1832Y100562D01*
Y100054D01*
X-2086Y99800D01*
X-3102D01*
X-3355Y102340D02*
X-3102Y101832D01*
X-2594Y101324D01*
X-2086D01*
X-1832Y101578D01*
Y102086D01*
X-2086Y102340D01*
X-2340D01*
X-2594Y102086D01*
Y101324D01*
X-1578Y103101D02*
X-1832Y103355D01*
X-2086D01*
Y103101D01*
X-1832D01*
Y103355D01*
X-1578Y103101D01*
X-1324Y102848D01*
X-3102Y104371D02*
X-3355Y104625D01*
Y105133D01*
X-3102Y105387D01*
X-2086D01*
X-1832Y105133D01*
Y104625D01*
X-2086Y104371D01*
X-3102D01*
Y105895D02*
X-3355Y106148D01*
Y106656D01*
X-3102Y106910D01*
X-2086D01*
X-1832Y106656D01*
Y106148D01*
X-2086Y105895D01*
X-3102D01*
X87404Y-4168D02*
X87912D01*
X87658D01*
Y-2645D01*
X87404Y-2898D01*
X88674D02*
X88927Y-2645D01*
X89435D01*
X89689Y-2898D01*
Y-3152D01*
X89435Y-3406D01*
X89689Y-3660D01*
Y-3914D01*
X89435Y-4168D01*
X88927D01*
X88674Y-3914D01*
Y-3660D01*
X88927Y-3406D01*
X88674Y-3152D01*
Y-2898D01*
X88927Y-3406D02*
X89435D01*
X90959Y-4168D02*
Y-2645D01*
X90197Y-3406D01*
X91213D01*
X91974Y-4422D02*
X92228Y-4168D01*
Y-3914D01*
X91974D01*
Y-4168D01*
X92228D01*
X91974Y-4422D01*
X91721Y-4676D01*
X93244Y-2898D02*
X93498Y-2645D01*
X94006D01*
X94260Y-2898D01*
Y-3914D01*
X94006Y-4168D01*
X93498D01*
X93244Y-3914D01*
Y-2898D01*
X94768D02*
X95021Y-2645D01*
X95529D01*
X95783Y-2898D01*
Y-3914D01*
X95529Y-4168D01*
X95021D01*
X94768Y-3914D01*
Y-2898D01*
X87404Y92832D02*
X87912D01*
X87658D01*
Y94355D01*
X87404Y94102D01*
X88674Y94355D02*
X89689D01*
Y94102D01*
X88674Y93086D01*
Y92832D01*
X90197Y94102D02*
X90451Y94355D01*
X90959D01*
X91213Y94102D01*
Y93086D01*
X90959Y92832D01*
X90451D01*
X90197Y93086D01*
Y94102D01*
X91975Y92578D02*
X92228Y92832D01*
Y93086D01*
X91975D01*
Y92832D01*
X92228D01*
X91975Y92578D01*
X91721Y92324D01*
X93244Y94102D02*
X93498Y94355D01*
X94006D01*
X94260Y94102D01*
Y93086D01*
X94006Y92832D01*
X93498D01*
X93244Y93086D01*
Y94102D01*
X94768D02*
X95022Y94355D01*
X95529D01*
X95783Y94102D01*
Y93086D01*
X95529Y92832D01*
X95022D01*
X94768Y93086D01*
Y94102D01*
X3168Y144404D02*
Y144912D01*
Y144658D01*
X1645D01*
X1898Y144404D01*
Y145674D02*
X1645Y145927D01*
Y146435D01*
X1898Y146689D01*
X2914D01*
X3168Y146435D01*
Y145927D01*
X2914Y145674D01*
X1898D01*
Y147197D02*
X1645Y147451D01*
Y147959D01*
X1898Y148213D01*
X2914D01*
X3168Y147959D01*
Y147451D01*
X2914Y147197D01*
X1898D01*
X3422Y148974D02*
X3168Y149228D01*
X2914D01*
Y148974D01*
X3168D01*
Y149228D01*
X3422Y148974D01*
X3676Y148721D01*
X1898Y150244D02*
X1645Y150498D01*
Y151006D01*
X1898Y151260D01*
X2914D01*
X3168Y151006D01*
Y150498D01*
X2914Y150244D01*
X1898D01*
Y151768D02*
X1645Y152021D01*
Y152529D01*
X1898Y152783D01*
X2914D01*
X3168Y152529D01*
Y152021D01*
X2914Y151768D01*
X1898D01*
X128768Y4484D02*
X127752D01*
Y3722D01*
X128260Y3976D01*
X128514D01*
X128768Y3722D01*
Y3214D01*
X128514Y2960D01*
X128006D01*
X127752Y3214D01*
X129276Y4230D02*
X129530Y4484D01*
X130038D01*
X130292Y4230D01*
Y3214D01*
X130038Y2960D01*
X129530D01*
X129276Y3214D01*
Y4230D01*
X131053Y2706D02*
X131307Y2960D01*
Y3214D01*
X131053D01*
Y2960D01*
X131307D01*
X131053Y2706D01*
X130799Y2452D01*
X132323Y4230D02*
X132577Y4484D01*
X133085D01*
X133339Y4230D01*
Y3214D01*
X133085Y2960D01*
X132577D01*
X132323Y3214D01*
Y4230D01*
X133846D02*
X134100Y4484D01*
X134608D01*
X134862Y4230D01*
Y3214D01*
X134608Y2960D01*
X134100D01*
X133846Y3214D01*
Y4230D01*
X56785Y3114D02*
X57039Y2860D01*
X57547D01*
X57800Y3114D01*
Y4130D01*
X57547Y4384D01*
X57039D01*
X56785Y4130D01*
Y3876D01*
X57039Y3622D01*
X57800D01*
X58308Y4130D02*
X58562Y4384D01*
X59070D01*
X59324Y4130D01*
Y3114D01*
X59070Y2860D01*
X58562D01*
X58308Y3114D01*
Y4130D01*
X60086Y2606D02*
X60340Y2860D01*
Y3114D01*
X60086D01*
Y2860D01*
X60340D01*
X60086Y2606D01*
X59832Y2352D01*
X61355Y4130D02*
X61609Y4384D01*
X62117D01*
X62371Y4130D01*
Y3114D01*
X62117Y2860D01*
X61609D01*
X61355Y3114D01*
Y4130D01*
X62879D02*
X63133Y4384D01*
X63641D01*
X63894Y4130D01*
Y3114D01*
X63641Y2860D01*
X63133D01*
X62879Y3114D01*
Y4130D01*
X161414Y107160D02*
Y108684D01*
X160652Y107922D01*
X161668D01*
X162430Y106906D02*
X162684Y107160D01*
Y107414D01*
X162430D01*
Y107160D01*
X162684D01*
X162430Y106906D01*
X162176Y106652D01*
X163699Y108430D02*
X163953Y108684D01*
X164461D01*
X164715Y108430D01*
Y107414D01*
X164461Y107160D01*
X163953D01*
X163699Y107414D01*
Y108430D01*
X165223D02*
X165477Y108684D01*
X165985D01*
X166239Y108430D01*
Y107414D01*
X165985Y107160D01*
X165477D01*
X165223Y107414D01*
Y108430D01*
X-86Y48039D02*
X168Y48293D01*
Y48800D01*
X-86Y49054D01*
X-1102D01*
X-1355Y48800D01*
Y48293D01*
X-1102Y48039D01*
X-848D01*
X-594Y48293D01*
Y49054D01*
X-1102Y49562D02*
X-1355Y49816D01*
Y50324D01*
X-1102Y50578D01*
X-86D01*
X168Y50324D01*
Y49816D01*
X-86Y49562D01*
X-1102D01*
X422Y51340D02*
X168Y51594D01*
X-86D01*
Y51340D01*
X168D01*
Y51594D01*
X422Y51340D01*
X676Y51086D01*
X-1102Y52609D02*
X-1355Y52863D01*
Y53371D01*
X-1102Y53625D01*
X-86D01*
X168Y53371D01*
Y52863D01*
X-86Y52609D01*
X-1102D01*
Y54133D02*
X-1355Y54387D01*
Y54895D01*
X-1102Y55148D01*
X-86D01*
X168Y54895D01*
Y54387D01*
X-86Y54133D01*
X-1102D01*
X3898Y48039D02*
X3645Y48293D01*
Y48800D01*
X3898Y49054D01*
X4152D01*
X4406Y48800D01*
X4660Y49054D01*
X4914D01*
X5168Y48800D01*
Y48293D01*
X4914Y48039D01*
X4660D01*
X4406Y48293D01*
X4152Y48039D01*
X3898D01*
X4406Y48293D02*
Y48800D01*
X3898Y49562D02*
X3645Y49816D01*
Y50324D01*
X3898Y50578D01*
X4914D01*
X5168Y50324D01*
Y49816D01*
X4914Y49562D01*
X3898D01*
X5422Y51340D02*
X5168Y51594D01*
X4914D01*
Y51340D01*
X5168D01*
Y51594D01*
X5422Y51340D01*
X5676Y51086D01*
X3898Y52609D02*
X3645Y52863D01*
Y53371D01*
X3898Y53625D01*
X4914D01*
X5168Y53371D01*
Y52863D01*
X4914Y52609D01*
X3898D01*
Y54133D02*
X3645Y54387D01*
Y54895D01*
X3898Y55148D01*
X4914D01*
X5168Y54895D01*
Y54387D01*
X4914Y54133D01*
X3898D01*
X81652Y105660D02*
X82160D01*
X81906D01*
Y107184D01*
X81652Y106930D01*
X83938Y107184D02*
X82922D01*
Y106422D01*
X83430Y106676D01*
X83684D01*
X83938Y106422D01*
Y105914D01*
X83684Y105660D01*
X83176D01*
X82922Y105914D01*
X84446Y106930D02*
X84699Y107184D01*
X85207D01*
X85461Y106930D01*
Y105914D01*
X85207Y105660D01*
X84699D01*
X84446Y105914D01*
Y106930D01*
X86223Y105406D02*
X86477Y105660D01*
Y105914D01*
X86223D01*
Y105660D01*
X86477D01*
X86223Y105406D01*
X85969Y105152D01*
X87493Y106930D02*
X87746Y107184D01*
X88254D01*
X88508Y106930D01*
Y105914D01*
X88254Y105660D01*
X87746D01*
X87493Y105914D01*
Y106930D01*
X89016D02*
X89270Y107184D01*
X89778D01*
X90032Y106930D01*
Y105914D01*
X89778Y105660D01*
X89270D01*
X89016Y105914D01*
Y106930D01*
X81652Y101660D02*
X82160D01*
X81906D01*
Y103184D01*
X81652Y102930D01*
X83684Y101660D02*
Y103184D01*
X82922Y102422D01*
X83938D01*
X84446Y102930D02*
X84699Y103184D01*
X85207D01*
X85461Y102930D01*
Y101914D01*
X85207Y101660D01*
X84699D01*
X84446Y101914D01*
Y102930D01*
X86223Y101406D02*
X86477Y101660D01*
Y101914D01*
X86223D01*
Y101660D01*
X86477D01*
X86223Y101406D01*
X85969Y101152D01*
X87493Y102930D02*
X87746Y103184D01*
X88254D01*
X88508Y102930D01*
Y101914D01*
X88254Y101660D01*
X87746D01*
X87493Y101914D01*
Y102930D01*
X89016D02*
X89270Y103184D01*
X89778D01*
X90032Y102930D01*
Y101914D01*
X89778Y101660D01*
X89270D01*
X89016Y101914D01*
Y102930D01*
X173340Y60152D02*
Y60660D01*
Y60406D01*
X171816D01*
X172070Y60152D01*
X173340Y61422D02*
Y61930D01*
Y61676D01*
X171816D01*
X172070Y61422D01*
X173594Y62945D02*
X173340Y63199D01*
X173086D01*
Y62945D01*
X173340D01*
Y63199D01*
X173594Y62945D01*
X173848Y62692D01*
X172070Y64215D02*
X171816Y64469D01*
Y64977D01*
X172070Y65231D01*
X173086D01*
X173340Y64977D01*
Y64469D01*
X173086Y64215D01*
X172070D01*
Y65739D02*
X171816Y65993D01*
Y66500D01*
X172070Y66754D01*
X173086D01*
X173340Y66500D01*
Y65993D01*
X173086Y65739D01*
X172070D01*
X173340Y70676D02*
Y71184D01*
Y70930D01*
X171816D01*
X172070Y70676D01*
X173340Y71946D02*
Y72454D01*
Y72200D01*
X171816D01*
X172070Y71946D01*
X173594Y73469D02*
X173340Y73723D01*
X173086D01*
Y73469D01*
X173340D01*
Y73723D01*
X173594Y73469D01*
X173848Y73216D01*
X172070Y74739D02*
X171816Y74993D01*
Y75501D01*
X172070Y75755D01*
X173086D01*
X173340Y75501D01*
Y74993D01*
X173086Y74739D01*
X172070D01*
Y76263D02*
X171816Y76517D01*
Y77024D01*
X172070Y77278D01*
X173086D01*
X173340Y77024D01*
Y76517D01*
X173086Y76263D01*
X172070D01*
X173340Y82152D02*
Y82660D01*
Y82406D01*
X171816D01*
X172070Y82152D01*
X173340Y84438D02*
Y83422D01*
X172324Y84438D01*
X172070D01*
X171816Y84184D01*
Y83676D01*
X172070Y83422D01*
X173594Y85199D02*
X173340Y85453D01*
X173086D01*
Y85199D01*
X173340D01*
Y85453D01*
X173594Y85199D01*
X173848Y84946D01*
X172070Y86469D02*
X171816Y86723D01*
Y87231D01*
X172070Y87485D01*
X173086D01*
X173340Y87231D01*
Y86723D01*
X173086Y86469D01*
X172070D01*
Y87993D02*
X171816Y88246D01*
Y88754D01*
X172070Y89008D01*
X173086D01*
X173340Y88754D01*
Y88246D01*
X173086Y87993D01*
X172070D01*
D119*
X-3254Y0D02*
X-381D01*
X-3254Y206000D02*
X-381D01*
X-3000Y0D02*
Y97871D01*
Y107317D02*
Y206000D01*
Y0D02*
X-2492Y1524D01*
X-3508D02*
X-3000Y0D01*
X-3508Y204476D02*
X-3000Y206000D01*
X-2492Y204476D01*
X-0Y-3254D02*
Y-381D01*
X184000Y-3254D02*
Y-381D01*
X-0Y-3000D02*
X86998D01*
X96190D02*
X184000D01*
X-0D02*
X1524Y-3508D01*
X-0Y-3000D02*
X1524Y-2492D01*
X182476D02*
X184000Y-3000D01*
X182476Y-3508D02*
X184000Y-3000D01*
X7000Y94000D02*
X8524Y94508D01*
X7000Y94000D02*
X8524Y93492D01*
X175476D02*
X177000Y94000D01*
X175476Y94508D02*
X177000Y94000D01*
X7000D02*
X86998D01*
X96190D02*
X177000D01*
X7000Y93746D02*
Y98619D01*
X177000Y93746D02*
Y98619D01*
X1492Y100524D02*
X2000Y99000D01*
X2508Y100524D01*
X2000Y199000D02*
X2508Y197476D01*
X1492D02*
X2000Y199000D01*
Y99000D02*
Y143998D01*
Y153190D02*
Y199000D01*
X1746Y99000D02*
X6619D01*
X1746Y199000D02*
X6619D01*
X86000Y51000D02*
Y53000D01*
Y2500D02*
Y51000D01*
X85000Y52000D02*
X87000D01*
X106000Y1900D02*
X107524Y2408D01*
X106000Y1900D02*
X107524Y1392D01*
X154476D02*
X156000Y1900D01*
X154476Y2408D02*
X156000Y1900D01*
X106000D02*
X131000D01*
X156000D01*
X106000Y1646D02*
Y9996D01*
X156000Y1646D02*
Y9996D01*
X16000Y1900D02*
X17524Y2408D01*
X16000Y1900D02*
X17524Y1392D01*
X104476D02*
X106000Y1900D01*
X104476Y2408D02*
X106000Y1900D01*
X16000D02*
X61000D01*
X106000D01*
X16000Y1646D02*
Y9996D01*
X106000Y1646D02*
Y9996D01*
X161000Y104000D02*
X162524Y104508D01*
X161000Y104000D02*
X162524Y103492D01*
X163476D02*
X165000Y104000D01*
X163476Y104508D02*
X165000Y104000D01*
X161000D02*
X163000D01*
X165000D01*
X161000Y92381D02*
Y104254D01*
X165000Y85381D02*
Y104254D01*
X-1508Y8524D02*
X-1000Y7000D01*
X-492Y8524D01*
X-1000Y97000D02*
X-492Y95476D01*
X-1508D02*
X-1000Y97000D01*
Y7000D02*
Y47632D01*
Y55555D02*
Y97000D01*
X-1254Y7000D02*
X15619D01*
X-1254Y97000D02*
X15619D01*
X4000Y92000D02*
X4508Y90476D01*
X3492D02*
X4000Y92000D01*
X3492Y13524D02*
X4000Y12000D01*
X4508Y13524D01*
X4000Y55555D02*
Y92000D01*
Y12000D02*
Y47632D01*
X3746Y92000D02*
X13996D01*
X3746Y12000D02*
X13996D01*
X11000Y104000D02*
X12524Y104508D01*
X11000Y104000D02*
X12524Y103492D01*
X159476D02*
X161000Y104000D01*
X159476Y104508D02*
X161000Y104000D01*
X11000D02*
X86000D01*
X161000D01*
X11000Y92381D02*
Y104254D01*
X161000Y92381D02*
Y104254D01*
X154476Y99492D02*
X156000Y100000D01*
X154476Y100508D02*
X156000Y100000D01*
X16000D02*
X17524Y100508D01*
X16000Y100000D02*
X17524Y99492D01*
X86000Y100000D02*
X156000D01*
X16000D02*
X86000D01*
X156000Y94004D02*
Y100254D01*
X16000Y94004D02*
Y100254D01*
X171000Y69000D02*
X171508Y67476D01*
X170492D02*
X171000Y69000D01*
X170492Y59524D02*
X171000Y58000D01*
X171508Y59524D01*
X171000Y63500D02*
Y69000D01*
Y58000D02*
Y63500D01*
X164000Y69000D02*
X171254D01*
X160104Y58000D02*
X171254D01*
X171000Y80000D02*
X171508Y78476D01*
X170492D02*
X171000Y80000D01*
X170492Y70524D02*
X171000Y69000D01*
X171508Y70524D01*
X171000Y74500D02*
Y80000D01*
Y69000D02*
Y74500D01*
X163104Y80000D02*
X171254D01*
X164000Y69000D02*
X171254D01*
X171000Y92000D02*
X171508Y90476D01*
X170492D02*
X171000Y92000D01*
X170492Y81524D02*
X171000Y80000D01*
X171508Y81524D01*
X171000Y86000D02*
Y92000D01*
Y80000D02*
Y86000D01*
X158004Y92000D02*
X171254D01*
X163104Y80000D02*
X171254D01*
%TF.MD5,9324ab0aafb876387c0e694dc834bb72*%
M02*
