M48
;Layer_Color=9474304
;FILE_FORMAT=4:3
METRIC,LZ
;TYPE=PLATED
T1F00S00C0.350
T2F00S00C0.400
T3F00S00C0.750
T4F00S00C0.780
T5F00S00C1.000
T7F00S00C1.100
T8F00S00C1.200
T9F00S00C1.300
T10F00S00C1.600
T12F00S00C3.500
;TYPE=NON_PLATED
T13F00S00C1.400
T14F00S00C1.700
%
T01
X00217Y001312
X0026498Y0012
X00207Y00182
X003Y0022
X003305
X0035
X0038
X00302Y0012
X0028349
X0072245Y0017282
X0077373Y0018127
X0116275Y00472
X012719Y0061895
X0104816Y005112
X0104Y0049246
X00866Y005
Y0045213
X009116Y004
Y0036824
Y003045
X00871Y0026388
X007426Y002984
X0072153
X00707Y00291
X0068485
X00688Y0027
X0075Y00355
X00741Y00365
X0076034Y0037
X0078839Y0041322
X0078263Y0042335
X0077626Y0043201
X0077043Y0044078
X0076299Y0044962
X0073469Y0043426
X0072783Y004401
X0072153Y0044654
X0070953Y004601
X0073916Y0048911
X00709Y00525
X0073469Y00578
X0076381Y0055668
X00795Y00535
X0085Y0054
X00666Y0057
X00617Y00548
X00617Y00501
X00625Y0048694
X0059748Y0048
X005849Y00428
X0065607Y0044913
X0067Y0032
X00645Y00291
X0051895Y0027386
X00539Y0037
X003825Y00406
X0036902Y0041
X00314
X0039Y0046
X0038Y0050682
X002896Y0059961
Y0060959
Y0061946
X0028098Y0027491
X00298Y00237
X003305
X0035
X003825
X004Y0027491
X00197Y002328
X0017469Y005418
X0016444
X0015419
Y005926
X0016444
X0017469
Y006434
X0016444
X0015419
Y006942
X0016444
X0017469
Y00745
X0016444
X0015419
X0027795Y0073967
X0029021
X0030247
X0031474
X00327
X00383Y0075749
X002896Y0063949
Y0062948
X0069Y0068
X008547Y0066984
X012425Y0068
T02
X0002Y0011
X00055
X0009
X00125
X0016
X00195
X0023
X002475Y00075
X002125
X001775
X001425
X001075
X00125Y0004
X00195
X0023
X00265
X0023Y0018
X001775Y00215
X001425
X001075
X000725
X000375
X0002Y0018
X000375Y00145
X000725
X001075
X001425
X002825Y00075
X003175
X003525
X003875
X004225
X004575
X004925
X00475Y0011
X0051
X004925Y00145
X004575
X004225
X0037Y0011
Y0004
X00405
X0044
X00475
X0051
X00335
X003
X0086
X00895
X008775Y00075
X0086Y0011
X00895
X0093
X00965
X01
X01035
X0107
X010525Y00145
X010175
X009825
X009475
X009125
X008775
X010175Y00075
X010525
X01035Y0004
X0107
X01
X01105
X0114
X01175
X0121
X01245
X0128
X01315
X0135
X01385
X014025Y00075
X013675
X013325
X012975
X012625
X012275
X011925
X011575
X011225
X010875
X01105Y0011
X0114
X01175
X0121
X01245
X0128
X01315
X0135
X01385
X0142
X01455
Y0018
X0142
X01385
X014025Y00145
X013675
X013325
X012975
X012625
X012275
X011925
X011575
X011225
X010875
X01175Y0018
X012275Y00215
X014025
X014375
X014725
X0149Y0018
X014725Y00145
X0149Y0011
Y0025
X014725Y00285
X0149Y0032
X014725Y00355
X0149Y0039
X014725Y00425
X0149Y0046
X015075Y00495
X014725
Y00565
X015075
X0149Y006
X014375Y00565
X013675
X0135Y006
X013675Y00495
X014025
X014375
X0142Y0046
X01385
X0135
X013675Y00425
X014025
X014375
X0142Y0039
X01455
X014375Y00355
X014025
X013675
X0135Y0039
X01385
Y0032
X0135
X01315
X013325Y00285
X012975
X013675
X014025
X014375
X0142Y0032
X01455
Y0025
X0142
X01385
X012275Y00355
X011925
X011575
X011225
X0114Y0039
X01175
X0121
X01245
Y0046
Y0053
X0121
X01175
X0114
X011575Y00495
X011925
X01175Y0046
X0114
X011575Y00425
X011925
X011225
X010875
Y00495
X011225
X0121Y006
X01175Y0032
X0114
X011575Y00285
X011225
X010875
X010525
X010175
X009825
X009475
Y00355
X009825
X010175
X010525
X0107Y0032
X010525Y00425
X010175
X009825
X009475
Y00495
X009125
X0093Y006
X00965
X01
X01035
X0107
X010525Y00565
X010175
X009825
X010525Y00495
X00866Y0040761
X008775Y00355
Y00285
X008425
X008075
X007725
X007375Y00425
X00755Y006
X0079
X005975Y00565
X005625
X005275
X004925
X004575
X004225
X003Y0053
X004925Y00425
X005625
X00545Y0039
X00615Y0032
X0065
X005975Y00285
X004925
X004575
X004225
X0023Y0032
X00195
X001775Y00355
X001425
X001075
X000725
X000375
X0002Y0032
X000375Y00285
X0002Y0025
X00055
X0009
X00125
X0016
X0023
X00125Y0032
X0009
Y0046
X00125
X0016
X00195
X002475Y00495
X00265Y0053
X0023Y006
X00125
X0009
X00055
X0002
X000375Y00565
X0002Y0053
X000375Y00495
X000725
X001075
X0009Y0053
X00125
X00055Y0046
X0002
X000375Y00425
Y00635
X000725
X001075
Y00705
X000725
X000375
X0002Y0074
X00055
X0009
X00125
Y0081
X0016
X00195
X002125Y00845
X001775
X001425
X001075
X0009Y0088
X00125
X0016
X00195
X0023
X00265
X002475Y00775
X002125
X002475Y00705
X0023Y0067
X00265
X002475Y00635
X0002Y0067
X000375Y00775
X0002Y0081
X0009
X002825Y00845
X003175
X003Y0088
X00335
X0037
X00405
X0044
X00475
X0051
X00545
X0058
X00615
X0065
X006675Y00845
X006325
X005975
Y00775
X006325
X006675
X0065Y0081
Y0074
X0058
X005975Y00705
X005625
X0051Y0067
X00475
X0044
X004575Y00635
X004225
X003525
X003175
X003Y0067
X00335
X003525Y00705
Y00775
X003875
X004225
X004575
X004925
X005275
X00545Y0081
X005975Y00635
X002825Y00705
Y00775
X003175
X007375
X0072Y0081
X007375Y00845
X0072Y0088
X00755
X0079
X00825
X0086
X00895
X0093
X00965
X01
X01035
X0107
X010525Y00845
X010175
X009825
X009475
X009125
X008775
X008425
X008075
X0079Y0081
X00825
X0086
X00895
X0093
X00965
X009475Y00775
X009125
X008775
X008425
X008075
X0079Y0074
X00825
X0086
X00895
X0093
X00965
X01
X010175Y00775
Y00705
X010525
X01035Y0067
X0107
X010525Y00635
X009825Y00705
X009475
X009125
X008775
X008425
X008075
X007725
X007375
X0072Y0074
X00755
X0079Y0067
X00825
X00895
X010875Y00705
X011225
X011575
X011925
X012275
X012625
X01245Y0074
X0121
X01175
X0114
X011225Y00775
Y00845
X010875
X01105Y0088
X0114
X011925Y00845
X01245Y0088
X0128
X01315
X0135
X01385
X014025Y00845
X013675
X01385Y0081
X0142
X014375Y00775
X014025
X013675
X01315Y0077501
Y0076081
Y007892
Y008034
X013675Y00705
X014025
X014375
X0142Y0067
X01455
Y0074
X01385Y0067
X0135
X01245
X0121
X01175
X011225Y00635
X010875
X015075
X0149Y0067
X015075Y00705
X014725
X0149Y0081
T03
X012619Y004176
Y00443
Y004684
Y005156
Y00541
Y005664
X013381
Y00541
Y005156
Y004684
Y00443
Y004176
T04
X009659Y002595
X009913
X010167
X005341
X005087
X004833
Y006405
X005087
X005341
X005595
X005849
X006103
X006357
X006611
X006865
X007119
X007373
X007627
X007881
X008135
X008389
X008643
X008897
X009151
X009405
X009659
X009913
X010167
T05
X00725Y00065
X0075
X00775
Y0021
X00725
X0077Y007522
Y007776
Y00803
T07
X00539Y0014
X005771Y001781
X0111Y002984
Y003238
Y003492
Y003746
Y004
Y00435
Y004604
Y004858
Y005112
X00937Y00237
X009116
X008862
X008608
X008354
X0081
X005962Y0068
X005708
X005454
X0052
X009151
X009405
X009659
X009913
T08
X0104Y007492
Y007746
Y008
T09
X01305Y0082
X0134
T10
X0006Y0013
Y001808
Y002316
Y002824
Y003332
Y00384
Y004348
X0006Y00517
Y005678
Y006186
Y006694
Y007202
Y00771
T12
X0005Y0005
X0095
X0145
X0005Y0085
X0145
T13
X005009Y001781
X005771Y001019
T14
X0148Y0051
X0141
X0151Y0073
M30
