%TF.GenerationSoftware,Altium Limited,Altium Designer,22.11.1 (43)*%
G04 Layer_Color=0*
%FSLAX43Y43*%
%MOMM*%
%TF.SameCoordinates,713154A8-74CC-4FB3-A553-2C66CAAA5226*%
%TF.FilePolarity,Positive*%
%TF.FileFunction,NonPlated,1,2,NPTH,Drill*%
%TF.Part,Single*%
G01*
G75*
%TA.AperFunction,ComponentDrill*%
%ADD90C,1.700*%
%ADD91C,1.400*%
G36*
X124750Y18075D02*
Y17878D01*
X124827Y17492D01*
X124978Y17128D01*
X125197Y16800D01*
X125475Y16521D01*
X125803Y16303D01*
X126167Y16152D01*
X126553Y16075D01*
X126750D01*
D01*
X134750D01*
X134947D01*
X135333Y16152D01*
X135697Y16303D01*
X136025Y16521D01*
X136303Y16800D01*
X136522Y17128D01*
X136673Y17492D01*
X136750Y17878D01*
Y18075D01*
D01*
Y24075D01*
Y24272D01*
X136673Y24658D01*
X136522Y25022D01*
X136303Y25350D01*
X136025Y25628D01*
X135697Y25847D01*
X135333Y25998D01*
X134947Y26075D01*
X134750D01*
D01*
X126750D01*
X126553D01*
X126167Y25998D01*
X125803Y25847D01*
X125475Y25628D01*
X125197Y25350D01*
X124978Y25022D01*
X124827Y24658D01*
X124750Y24272D01*
Y24075D01*
D01*
Y18075D01*
D02*
G37*
D90*
X148000Y51000D02*
D03*
X141000D02*
D03*
X151000Y73000D02*
D03*
D91*
X50090Y17810D02*
D03*
X57710Y10190D02*
D03*
%TF.MD5,e4ef0a52b981483873d442df23b8ebec*%
M02*
