%TF.GenerationSoftware,Altium Limited,Altium Designer,22.5.1 (42)*%
G04 Layer_Color=128*
%FSLAX43Y43*%
%MOMM*%
%TF.SameCoordinates,16143D8C-65FE-44CA-9B93-5BB87F4A9255*%
%TF.FilePolarity,Positive*%
%TF.FileFunction,Drillmap*%
%TF.Part,Single*%
G01*
G75*
%TA.AperFunction,NonConductor*%
%ADD87C,0.127*%
D87*
X67350Y14000D02*
X71450D01*
X69400Y11950D02*
Y16050D01*
X78550Y14000D02*
X82650D01*
X80600Y11950D02*
Y16050D01*
X72000Y6500D02*
X73000D01*
X72500Y6000D02*
Y7000D01*
X74500Y6500D02*
X75500D01*
X75000Y6000D02*
Y7000D01*
X77000Y6500D02*
X78000D01*
X77500Y6000D02*
Y7000D01*
X72000Y21000D02*
X73000D01*
X72500Y20500D02*
Y21500D01*
X77000Y21000D02*
X78000D01*
X77500Y20500D02*
Y21500D01*
X47940Y25950D02*
X48720D01*
X48330Y25560D02*
Y26340D01*
X53020Y25950D02*
X53800D01*
X53410Y25560D02*
Y26340D01*
X50480Y25950D02*
X51260D01*
X50870Y25560D02*
Y26340D01*
X60640Y64050D02*
X61420D01*
X61030Y63660D02*
Y64440D01*
X70800Y64050D02*
X71580D01*
X71190Y63660D02*
Y64440D01*
X68260Y64050D02*
X69040D01*
X68650Y63660D02*
Y64440D01*
X65720Y64050D02*
X66500D01*
X66110Y63660D02*
Y64440D01*
X63180Y64050D02*
X63960D01*
X63570Y63660D02*
Y64440D01*
X58100Y64050D02*
X58880D01*
X58490Y63660D02*
Y64440D01*
X55560Y64050D02*
X56340D01*
X55950Y63660D02*
Y64440D01*
X53020Y64050D02*
X53800D01*
X53410Y63660D02*
Y64440D01*
X50480Y64050D02*
X51260D01*
X50870Y63660D02*
Y64440D01*
X47940Y64050D02*
X48720D01*
X48330Y63660D02*
Y64440D01*
X101280Y25950D02*
X102060D01*
X101670Y25560D02*
Y26340D01*
X98740Y25950D02*
X99520D01*
X99130Y25560D02*
Y26340D01*
X96200Y25950D02*
X96980D01*
X96590Y25560D02*
Y26340D01*
X73340Y64050D02*
X74120D01*
X73730Y63660D02*
Y64440D01*
X101280Y64050D02*
X102060D01*
X101670Y63660D02*
Y64440D01*
X88580Y64050D02*
X89360D01*
X88970Y63660D02*
Y64440D01*
X83500Y64050D02*
X84280D01*
X83890Y63660D02*
Y64440D01*
X80960Y64050D02*
X81740D01*
X81350Y63660D02*
Y64440D01*
X78420Y64050D02*
X79200D01*
X78810Y63660D02*
Y64440D01*
X75880Y64050D02*
X76660D01*
X76270Y63660D02*
Y64440D01*
X91120Y64050D02*
X91900D01*
X91510Y63660D02*
Y64440D01*
X93660Y64050D02*
X94440D01*
X94050Y63660D02*
Y64440D01*
X96200Y64050D02*
X96980D01*
X96590Y63660D02*
Y64440D01*
X86040Y64050D02*
X86820D01*
X86430Y63660D02*
Y64440D01*
X98740Y64050D02*
X99520D01*
X99130Y63660D02*
Y64440D01*
X125815Y56640D02*
X126565D01*
X126190Y56265D02*
Y57015D01*
X125815Y54100D02*
X126565D01*
X126190Y53725D02*
Y54475D01*
X125815Y51560D02*
X126565D01*
X126190Y51185D02*
Y51935D01*
X133435Y51560D02*
X134185D01*
X133810Y51185D02*
Y51935D01*
X133435Y54100D02*
X134185D01*
X133810Y53725D02*
Y54475D01*
X133435Y56640D02*
X134185D01*
X133810Y56265D02*
Y57015D01*
X147150Y51000D02*
X148850D01*
X148000Y50150D02*
Y51850D01*
X140150Y51000D02*
X141850D01*
X141000Y50150D02*
Y51850D01*
X148500Y68500D02*
X149500D01*
X149000Y68000D02*
Y69000D01*
X150150Y73000D02*
X151850D01*
X151000Y72150D02*
Y73850D01*
X141500Y73000D02*
X142500D01*
X142000Y72500D02*
Y73500D01*
X147500Y73000D02*
X148500D01*
X148000Y72500D02*
Y73500D01*
X148500Y77500D02*
X149500D01*
X149000Y77000D02*
Y78000D01*
X5200Y13000D02*
X6800D01*
X6000Y12200D02*
Y13800D01*
X5200Y18080D02*
X6800D01*
X6000Y17280D02*
Y18880D01*
X5200Y28240D02*
X6800D01*
X6000Y27440D02*
Y29040D01*
X5200Y38400D02*
X6800D01*
X6000Y37600D02*
Y39200D01*
X5200Y43480D02*
X6800D01*
X6000Y42680D02*
Y44280D01*
X5200Y33320D02*
X6800D01*
X6000Y32520D02*
Y34120D01*
X5200Y23160D02*
X6800D01*
X6000Y22360D02*
Y23960D01*
X56530Y68000D02*
X57630D01*
X57080Y67450D02*
Y68550D01*
X59070Y68000D02*
X60170D01*
X59620Y67450D02*
Y68550D01*
X53990Y68000D02*
X55090D01*
X54540Y67450D02*
Y68550D01*
X51450Y68000D02*
X52550D01*
X52000Y67450D02*
Y68550D01*
X96040Y68000D02*
X97140D01*
X96590Y67450D02*
Y68550D01*
X98580Y68000D02*
X99680D01*
X99130Y67450D02*
Y68550D01*
X93500Y68000D02*
X94600D01*
X94050Y67450D02*
Y68550D01*
X90960Y68000D02*
X92060D01*
X91510Y67450D02*
Y68550D01*
X76500Y80300D02*
X77500D01*
X77000Y79800D02*
Y80800D01*
X76500Y77760D02*
X77500D01*
X77000Y77260D02*
Y78260D01*
X76500Y75220D02*
X77500D01*
X77000Y74720D02*
Y75720D01*
X93250Y5000D02*
X96750D01*
X95000Y3250D02*
Y6750D01*
X125815Y46840D02*
X126565D01*
X126190Y46465D02*
Y47215D01*
X125815Y44300D02*
X126565D01*
X126190Y43925D02*
Y44675D01*
X125815Y41760D02*
X126565D01*
X126190Y41385D02*
Y42135D01*
X133435Y41760D02*
X134185D01*
X133810Y41385D02*
Y42135D01*
X133435Y44300D02*
X134185D01*
X133810Y43925D02*
Y44675D01*
X133435Y46840D02*
X134185D01*
X133810Y46465D02*
Y47215D01*
X53350Y14000D02*
X54450D01*
X53900Y13450D02*
Y14550D01*
X57160Y17810D02*
X58260D01*
X57710Y17260D02*
Y18360D01*
X49390Y17810D02*
X50790D01*
X50090Y17110D02*
Y18510D01*
X57010Y10190D02*
X58410D01*
X57710Y9490D02*
Y10890D01*
X80450Y23700D02*
X81550D01*
X81000Y23150D02*
Y24250D01*
X82990Y23700D02*
X84090D01*
X83540Y23150D02*
Y24250D01*
X88070Y23700D02*
X89170D01*
X88620Y23150D02*
Y24250D01*
X93150Y23700D02*
X94250D01*
X93700Y23150D02*
Y24250D01*
X90610Y23700D02*
X91710D01*
X91160Y23150D02*
Y24250D01*
X85530Y23700D02*
X86630D01*
X86080Y23150D02*
Y24250D01*
X5200Y51700D02*
X6800D01*
X6000Y50900D02*
Y52500D01*
X5200Y56780D02*
X6800D01*
X6000Y55980D02*
Y57580D01*
X5200Y66940D02*
X6800D01*
X6000Y66140D02*
Y67740D01*
X5200Y77100D02*
X6800D01*
X6000Y76300D02*
Y77900D01*
X5200Y72020D02*
X6800D01*
X6000Y71220D02*
Y72820D01*
X5200Y61860D02*
X6800D01*
X6000Y61060D02*
Y62660D01*
X3250Y85000D02*
X6750D01*
X5000Y83250D02*
Y86750D01*
X103400Y74920D02*
X104600D01*
X104000Y74320D02*
Y75520D01*
X103400Y77460D02*
X104600D01*
X104000Y76860D02*
Y78060D01*
X103400Y80000D02*
X104600D01*
X104000Y79400D02*
Y80600D01*
X129850Y82000D02*
X131150D01*
X130500Y81350D02*
Y82650D01*
X133350Y82000D02*
X134650D01*
X134000Y81350D02*
Y82650D01*
X143250Y85000D02*
X146750D01*
X145000Y83250D02*
Y86750D01*
X3250Y5000D02*
X6750D01*
X5000Y3250D02*
Y6750D01*
X143250Y5000D02*
X146750D01*
X145000Y3250D02*
Y6750D01*
X110450Y34920D02*
X111550D01*
X111000Y34370D02*
Y35470D01*
X110450Y29840D02*
X111550D01*
X111000Y29290D02*
Y30390D01*
X110450Y32380D02*
X111550D01*
X111000Y31830D02*
Y32930D01*
X110450Y37460D02*
X111550D01*
X111000Y36910D02*
Y38010D01*
X110450Y40000D02*
X111550D01*
X111000Y39450D02*
Y40550D01*
X110450Y51120D02*
X111550D01*
X111000Y50570D02*
Y51670D01*
X110450Y48580D02*
X111550D01*
X111000Y48030D02*
Y49130D01*
X110450Y43500D02*
X111550D01*
X111000Y42950D02*
Y44050D01*
X110450Y46040D02*
X111550D01*
X111000Y45490D02*
Y46590D01*
X131300Y76081D02*
X131700D01*
X131500Y75881D02*
Y76281D01*
X131300Y77501D02*
X131700D01*
X131500Y77301D02*
Y77701D01*
X131300Y80340D02*
X131700D01*
X131500Y80140D02*
Y80540D01*
X131300Y78920D02*
X131700D01*
X131500Y78720D02*
Y79120D01*
X86400Y40761D02*
X86800D01*
X86600Y40561D02*
Y40961D01*
X138300Y88000D02*
X138700D01*
X138500Y87800D02*
Y88200D01*
X140050Y84500D02*
X140450D01*
X140250Y84300D02*
Y84700D01*
X134800Y88000D02*
X135200D01*
X135000Y87800D02*
Y88200D01*
X136550Y84500D02*
X136950D01*
X136750Y84300D02*
Y84700D01*
X131300Y88000D02*
X131700D01*
X131500Y87800D02*
Y88200D01*
X127800Y88000D02*
X128200D01*
X128000Y87800D02*
Y88200D01*
X124300Y88000D02*
X124700D01*
X124500Y87800D02*
Y88200D01*
X124300Y74000D02*
X124700D01*
X124500Y73800D02*
Y74200D01*
X126050Y70500D02*
X126450D01*
X126250Y70300D02*
Y70700D01*
X124300Y67000D02*
X124700D01*
X124500Y66800D02*
Y67200D01*
X124300Y53000D02*
X124700D01*
X124500Y52800D02*
Y53200D01*
X124300Y46000D02*
X124700D01*
X124500Y45800D02*
Y46200D01*
X124300Y39000D02*
X124700D01*
X124500Y38800D02*
Y39200D01*
X120800Y74000D02*
X121200D01*
X121000Y73800D02*
Y74200D01*
X122550Y70500D02*
X122950D01*
X122750Y70300D02*
Y70700D01*
X120800Y67000D02*
X121200D01*
X121000Y66800D02*
Y67200D01*
X120800Y60000D02*
X121200D01*
X121000Y59800D02*
Y60200D01*
X120800Y53000D02*
X121200D01*
X121000Y52800D02*
Y53200D01*
X120800Y39000D02*
X121200D01*
X121000Y38800D02*
Y39200D01*
X122550Y35500D02*
X122950D01*
X122750Y35300D02*
Y35700D01*
X119050Y84500D02*
X119450D01*
X119250Y84300D02*
Y84700D01*
X117300Y74000D02*
X117700D01*
X117500Y73800D02*
Y74200D01*
X119050Y70500D02*
X119450D01*
X119250Y70300D02*
Y70700D01*
X117300Y67000D02*
X117700D01*
X117500Y66800D02*
Y67200D01*
X117300Y53000D02*
X117700D01*
X117500Y52800D02*
Y53200D01*
X119050Y49500D02*
X119450D01*
X119250Y49300D02*
Y49700D01*
X117300Y46000D02*
X117700D01*
X117500Y45800D02*
Y46200D01*
X119050Y42500D02*
X119450D01*
X119250Y42300D02*
Y42700D01*
X117300Y39000D02*
X117700D01*
X117500Y38800D02*
Y39200D01*
X119050Y35500D02*
X119450D01*
X119250Y35300D02*
Y35700D01*
X117300Y32000D02*
X117700D01*
X117500Y31800D02*
Y32200D01*
X113800Y88000D02*
X114200D01*
X114000Y87800D02*
Y88200D01*
X113800Y74000D02*
X114200D01*
X114000Y73800D02*
Y74200D01*
X115550Y70500D02*
X115950D01*
X115750Y70300D02*
Y70700D01*
X113800Y53000D02*
X114200D01*
X114000Y52800D02*
Y53200D01*
X115550Y49500D02*
X115950D01*
X115750Y49300D02*
Y49700D01*
X113800Y46000D02*
X114200D01*
X114000Y45800D02*
Y46200D01*
X115550Y42500D02*
X115950D01*
X115750Y42300D02*
Y42700D01*
X113800Y39000D02*
X114200D01*
X114000Y38800D02*
Y39200D01*
X115550Y35500D02*
X115950D01*
X115750Y35300D02*
Y35700D01*
X113800Y32000D02*
X114200D01*
X114000Y31800D02*
Y32200D01*
X115550Y28500D02*
X115950D01*
X115750Y28300D02*
Y28700D01*
X110300Y88000D02*
X110700D01*
X110500Y87800D02*
Y88200D01*
X112050Y84500D02*
X112450D01*
X112250Y84300D02*
Y84700D01*
X112050Y77500D02*
X112450D01*
X112250Y77300D02*
Y77700D01*
X112050Y70500D02*
X112450D01*
X112250Y70300D02*
Y70700D01*
X112050Y63500D02*
X112450D01*
X112250Y63300D02*
Y63700D01*
X112050Y49500D02*
X112450D01*
X112250Y49300D02*
Y49700D01*
X112050Y42500D02*
X112450D01*
X112250Y42300D02*
Y42700D01*
X112050Y35500D02*
X112450D01*
X112250Y35300D02*
Y35700D01*
X112050Y28500D02*
X112450D01*
X112250Y28300D02*
Y28700D01*
X106800Y88000D02*
X107200D01*
X107000Y87800D02*
Y88200D01*
X108550Y84500D02*
X108950D01*
X108750Y84300D02*
Y84700D01*
X108550Y70500D02*
X108950D01*
X108750Y70300D02*
Y70700D01*
X106800Y67000D02*
X107200D01*
X107000Y66800D02*
Y67200D01*
X108550Y63500D02*
X108950D01*
X108750Y63300D02*
Y63700D01*
X106800Y60000D02*
X107200D01*
X107000Y59800D02*
Y60200D01*
X108550Y49500D02*
X108950D01*
X108750Y49300D02*
Y49700D01*
X108550Y42500D02*
X108950D01*
X108750Y42300D02*
Y42700D01*
X106800Y32000D02*
X107200D01*
X107000Y31800D02*
Y32200D01*
X108550Y28500D02*
X108950D01*
X108750Y28300D02*
Y28700D01*
X103300Y88000D02*
X103700D01*
X103500Y87800D02*
Y88200D01*
X105050Y84500D02*
X105450D01*
X105250Y84300D02*
Y84700D01*
X105050Y70500D02*
X105450D01*
X105250Y70300D02*
Y70700D01*
X103300Y67000D02*
X103700D01*
X103500Y66800D02*
Y67200D01*
X105050Y63500D02*
X105450D01*
X105250Y63300D02*
Y63700D01*
X103300Y60000D02*
X103700D01*
X103500Y59800D02*
Y60200D01*
X105050Y56500D02*
X105450D01*
X105250Y56300D02*
Y56700D01*
X105050Y49500D02*
X105450D01*
X105250Y49300D02*
Y49700D01*
X105050Y42500D02*
X105450D01*
X105250Y42300D02*
Y42700D01*
X105050Y35500D02*
X105450D01*
X105250Y35300D02*
Y35700D01*
X105050Y28500D02*
X105450D01*
X105250Y28300D02*
Y28700D01*
X99800Y88000D02*
X100200D01*
X100000Y87800D02*
Y88200D01*
X101550Y84500D02*
X101950D01*
X101750Y84300D02*
Y84700D01*
X101550Y77500D02*
X101950D01*
X101750Y77300D02*
Y77700D01*
X99800Y74000D02*
X100200D01*
X100000Y73800D02*
Y74200D01*
X101550Y70500D02*
X101950D01*
X101750Y70300D02*
Y70700D01*
X99800Y60000D02*
X100200D01*
X100000Y59800D02*
Y60200D01*
X101550Y56500D02*
X101950D01*
X101750Y56300D02*
Y56700D01*
X101550Y42500D02*
X101950D01*
X101750Y42300D02*
Y42700D01*
X101550Y35500D02*
X101950D01*
X101750Y35300D02*
Y35700D01*
X101550Y28500D02*
X101950D01*
X101750Y28300D02*
Y28700D01*
X96300Y88000D02*
X96700D01*
X96500Y87800D02*
Y88200D01*
X98050Y84500D02*
X98450D01*
X98250Y84300D02*
Y84700D01*
X96300Y81000D02*
X96700D01*
X96500Y80800D02*
Y81200D01*
X96300Y74000D02*
X96700D01*
X96500Y73800D02*
Y74200D01*
X98050Y70500D02*
X98450D01*
X98250Y70300D02*
Y70700D01*
X96300Y60000D02*
X96700D01*
X96500Y59800D02*
Y60200D01*
X98050Y56500D02*
X98450D01*
X98250Y56300D02*
Y56700D01*
X98050Y42500D02*
X98450D01*
X98250Y42300D02*
Y42700D01*
X98050Y35500D02*
X98450D01*
X98250Y35300D02*
Y35700D01*
X98050Y28500D02*
X98450D01*
X98250Y28300D02*
Y28700D01*
X92800Y88000D02*
X93200D01*
X93000Y87800D02*
Y88200D01*
X94550Y84500D02*
X94950D01*
X94750Y84300D02*
Y84700D01*
X92800Y81000D02*
X93200D01*
X93000Y80800D02*
Y81200D01*
X94550Y77500D02*
X94950D01*
X94750Y77300D02*
Y77700D01*
X92800Y74000D02*
X93200D01*
X93000Y73800D02*
Y74200D01*
X94550Y70500D02*
X94950D01*
X94750Y70300D02*
Y70700D01*
X92800Y60000D02*
X93200D01*
X93000Y59800D02*
Y60200D01*
X94550Y49500D02*
X94950D01*
X94750Y49300D02*
Y49700D01*
X94550Y42500D02*
X94950D01*
X94750Y42300D02*
Y42700D01*
X94550Y35500D02*
X94950D01*
X94750Y35300D02*
Y35700D01*
X94550Y28500D02*
X94950D01*
X94750Y28300D02*
Y28700D01*
X89300Y88000D02*
X89700D01*
X89500Y87800D02*
Y88200D01*
X91050Y84500D02*
X91450D01*
X91250Y84300D02*
Y84700D01*
X89300Y81000D02*
X89700D01*
X89500Y80800D02*
Y81200D01*
X91050Y77500D02*
X91450D01*
X91250Y77300D02*
Y77700D01*
X89300Y74000D02*
X89700D01*
X89500Y73800D02*
Y74200D01*
X91050Y70500D02*
X91450D01*
X91250Y70300D02*
Y70700D01*
X89300Y67000D02*
X89700D01*
X89500Y66800D02*
Y67200D01*
X91050Y49500D02*
X91450D01*
X91250Y49300D02*
Y49700D01*
X85800Y88000D02*
X86200D01*
X86000Y87800D02*
Y88200D01*
X87550Y84500D02*
X87950D01*
X87750Y84300D02*
Y84700D01*
X85800Y81000D02*
X86200D01*
X86000Y80800D02*
Y81200D01*
X87550Y77500D02*
X87950D01*
X87750Y77300D02*
Y77700D01*
X85800Y74000D02*
X86200D01*
X86000Y73800D02*
Y74200D01*
X87550Y70500D02*
X87950D01*
X87750Y70300D02*
Y70700D01*
X87550Y35500D02*
X87950D01*
X87750Y35300D02*
Y35700D01*
X87550Y28500D02*
X87950D01*
X87750Y28300D02*
Y28700D01*
X82300Y88000D02*
X82700D01*
X82500Y87800D02*
Y88200D01*
X84050Y84500D02*
X84450D01*
X84250Y84300D02*
Y84700D01*
X82300Y81000D02*
X82700D01*
X82500Y80800D02*
Y81200D01*
X84050Y77500D02*
X84450D01*
X84250Y77300D02*
Y77700D01*
X82300Y74000D02*
X82700D01*
X82500Y73800D02*
Y74200D01*
X84050Y70500D02*
X84450D01*
X84250Y70300D02*
Y70700D01*
X82300Y67000D02*
X82700D01*
X82500Y66800D02*
Y67200D01*
X84050Y28500D02*
X84450D01*
X84250Y28300D02*
Y28700D01*
X78800Y88000D02*
X79200D01*
X79000Y87800D02*
Y88200D01*
X80550Y84500D02*
X80950D01*
X80750Y84300D02*
Y84700D01*
X78800Y81000D02*
X79200D01*
X79000Y80800D02*
Y81200D01*
X80550Y77500D02*
X80950D01*
X80750Y77300D02*
Y77700D01*
X78800Y74000D02*
X79200D01*
X79000Y73800D02*
Y74200D01*
X80550Y70500D02*
X80950D01*
X80750Y70300D02*
Y70700D01*
X78800Y67000D02*
X79200D01*
X79000Y66800D02*
Y67200D01*
X78800Y60000D02*
X79200D01*
X79000Y59800D02*
Y60200D01*
X80550Y28500D02*
X80950D01*
X80750Y28300D02*
Y28700D01*
X75300Y88000D02*
X75700D01*
X75500Y87800D02*
Y88200D01*
X75300Y74000D02*
X75700D01*
X75500Y73800D02*
Y74200D01*
X77050Y70500D02*
X77450D01*
X77250Y70300D02*
Y70700D01*
X75300Y60000D02*
X75700D01*
X75500Y59800D02*
Y60200D01*
X77050Y28500D02*
X77450D01*
X77250Y28300D02*
Y28700D01*
X71800Y88000D02*
X72200D01*
X72000Y87800D02*
Y88200D01*
X73550Y84500D02*
X73950D01*
X73750Y84300D02*
Y84700D01*
X71800Y81000D02*
X72200D01*
X72000Y80800D02*
Y81200D01*
X73550Y77500D02*
X73950D01*
X73750Y77300D02*
Y77700D01*
X71800Y74000D02*
X72200D01*
X72000Y73800D02*
Y74200D01*
X73550Y70500D02*
X73950D01*
X73750Y70300D02*
Y70700D01*
X73550Y42500D02*
X73950D01*
X73750Y42300D02*
Y42700D01*
X64800Y88000D02*
X65200D01*
X65000Y87800D02*
Y88200D01*
X66550Y84500D02*
X66950D01*
X66750Y84300D02*
Y84700D01*
X64800Y81000D02*
X65200D01*
X65000Y80800D02*
Y81200D01*
X66550Y77500D02*
X66950D01*
X66750Y77300D02*
Y77700D01*
X64800Y74000D02*
X65200D01*
X65000Y73800D02*
Y74200D01*
X64800Y32000D02*
X65200D01*
X65000Y31800D02*
Y32200D01*
X61300Y88000D02*
X61700D01*
X61500Y87800D02*
Y88200D01*
X63050Y84500D02*
X63450D01*
X63250Y84300D02*
Y84700D01*
X63050Y77500D02*
X63450D01*
X63250Y77300D02*
Y77700D01*
X61300Y32000D02*
X61700D01*
X61500Y31800D02*
Y32200D01*
X57800Y88000D02*
X58200D01*
X58000Y87800D02*
Y88200D01*
X59550Y84500D02*
X59950D01*
X59750Y84300D02*
Y84700D01*
X59550Y77500D02*
X59950D01*
X59750Y77300D02*
Y77700D01*
X57800Y74000D02*
X58200D01*
X58000Y73800D02*
Y74200D01*
X59550Y70500D02*
X59950D01*
X59750Y70300D02*
Y70700D01*
X59550Y63500D02*
X59950D01*
X59750Y63300D02*
Y63700D01*
X59550Y56500D02*
X59950D01*
X59750Y56300D02*
Y56700D01*
X59550Y28500D02*
X59950D01*
X59750Y28300D02*
Y28700D01*
X54300Y88000D02*
X54700D01*
X54500Y87800D02*
Y88200D01*
X54300Y81000D02*
X54700D01*
X54500Y80800D02*
Y81200D01*
X56050Y70500D02*
X56450D01*
X56250Y70300D02*
Y70700D01*
X56050Y56500D02*
X56450D01*
X56250Y56300D02*
Y56700D01*
X56050Y42500D02*
X56450D01*
X56250Y42300D02*
Y42700D01*
X54300Y39000D02*
X54700D01*
X54500Y38800D02*
Y39200D01*
X50800Y88000D02*
X51200D01*
X51000Y87800D02*
Y88200D01*
X52550Y77500D02*
X52950D01*
X52750Y77300D02*
Y77700D01*
X50800Y67000D02*
X51200D01*
X51000Y66800D02*
Y67200D01*
X52550Y56500D02*
X52950D01*
X52750Y56300D02*
Y56700D01*
X47300Y88000D02*
X47700D01*
X47500Y87800D02*
Y88200D01*
X49050Y77500D02*
X49450D01*
X49250Y77300D02*
Y77700D01*
X47300Y67000D02*
X47700D01*
X47500Y66800D02*
Y67200D01*
X49050Y56500D02*
X49450D01*
X49250Y56300D02*
Y56700D01*
X49050Y42500D02*
X49450D01*
X49250Y42300D02*
Y42700D01*
X43800Y88000D02*
X44200D01*
X44000Y87800D02*
Y88200D01*
X45550Y77500D02*
X45950D01*
X45750Y77300D02*
Y77700D01*
X43800Y67000D02*
X44200D01*
X44000Y66800D02*
Y67200D01*
X45550Y63500D02*
X45950D01*
X45750Y63300D02*
Y63700D01*
X45550Y56500D02*
X45950D01*
X45750Y56300D02*
Y56700D01*
X40300Y88000D02*
X40700D01*
X40500Y87800D02*
Y88200D01*
X42050Y77500D02*
X42450D01*
X42250Y77300D02*
Y77700D01*
X42050Y63500D02*
X42450D01*
X42250Y63300D02*
Y63700D01*
X42050Y56500D02*
X42450D01*
X42250Y56300D02*
Y56700D01*
X36800Y88000D02*
X37200D01*
X37000Y87800D02*
Y88200D01*
X38550Y77500D02*
X38950D01*
X38750Y77300D02*
Y77700D01*
X33300Y88000D02*
X33700D01*
X33500Y87800D02*
Y88200D01*
X35050Y77500D02*
X35450D01*
X35250Y77300D02*
Y77700D01*
X35050Y70500D02*
X35450D01*
X35250Y70300D02*
Y70700D01*
X33300Y67000D02*
X33700D01*
X33500Y66800D02*
Y67200D01*
X35050Y63500D02*
X35450D01*
X35250Y63300D02*
Y63700D01*
X29800Y88000D02*
X30200D01*
X30000Y87800D02*
Y88200D01*
X31550Y84500D02*
X31950D01*
X31750Y84300D02*
Y84700D01*
X31550Y77500D02*
X31950D01*
X31750Y77300D02*
Y77700D01*
X29800Y67000D02*
X30200D01*
X30000Y66800D02*
Y67200D01*
X31550Y63500D02*
X31950D01*
X31750Y63300D02*
Y63700D01*
X29800Y53000D02*
X30200D01*
X30000Y52800D02*
Y53200D01*
X26300Y88000D02*
X26700D01*
X26500Y87800D02*
Y88200D01*
X28050Y84500D02*
X28450D01*
X28250Y84300D02*
Y84700D01*
X28050Y77500D02*
X28450D01*
X28250Y77300D02*
Y77700D01*
X28050Y70500D02*
X28450D01*
X28250Y70300D02*
Y70700D01*
X26300Y67000D02*
X26700D01*
X26500Y66800D02*
Y67200D01*
X26300Y53000D02*
X26700D01*
X26500Y52800D02*
Y53200D01*
X22800Y88000D02*
X23200D01*
X23000Y87800D02*
Y88200D01*
X24550Y77500D02*
X24950D01*
X24750Y77300D02*
Y77700D01*
X24550Y70500D02*
X24950D01*
X24750Y70300D02*
Y70700D01*
X22800Y67000D02*
X23200D01*
X23000Y66800D02*
Y67200D01*
X24550Y63500D02*
X24950D01*
X24750Y63300D02*
Y63700D01*
X22800Y60000D02*
X23200D01*
X23000Y59800D02*
Y60200D01*
X24550Y49500D02*
X24950D01*
X24750Y49300D02*
Y49700D01*
X19300Y88000D02*
X19700D01*
X19500Y87800D02*
Y88200D01*
X21050Y84500D02*
X21450D01*
X21250Y84300D02*
Y84700D01*
X19300Y81000D02*
X19700D01*
X19500Y80800D02*
Y81200D01*
X21050Y77500D02*
X21450D01*
X21250Y77300D02*
Y77700D01*
X19300Y46000D02*
X19700D01*
X19500Y45800D02*
Y46200D01*
X15800Y88000D02*
X16200D01*
X16000Y87800D02*
Y88200D01*
X17550Y84500D02*
X17950D01*
X17750Y84300D02*
Y84700D01*
X15800Y81000D02*
X16200D01*
X16000Y80800D02*
Y81200D01*
X15800Y46000D02*
X16200D01*
X16000Y45800D02*
Y46200D01*
X12300Y88000D02*
X12700D01*
X12500Y87800D02*
Y88200D01*
X14050Y84500D02*
X14450D01*
X14250Y84300D02*
Y84700D01*
X12300Y81000D02*
X12700D01*
X12500Y80800D02*
Y81200D01*
X12300Y74000D02*
X12700D01*
X12500Y73800D02*
Y74200D01*
X12300Y60000D02*
X12700D01*
X12500Y59800D02*
Y60200D01*
X12300Y53000D02*
X12700D01*
X12500Y52800D02*
Y53200D01*
X12300Y46000D02*
X12700D01*
X12500Y45800D02*
Y46200D01*
X8800Y88000D02*
X9200D01*
X9000Y87800D02*
Y88200D01*
X10550Y84500D02*
X10950D01*
X10750Y84300D02*
Y84700D01*
X8800Y81000D02*
X9200D01*
X9000Y80800D02*
Y81200D01*
X8800Y74000D02*
X9200D01*
X9000Y73800D02*
Y74200D01*
X10550Y70500D02*
X10950D01*
X10750Y70300D02*
Y70700D01*
X10550Y63500D02*
X10950D01*
X10750Y63300D02*
Y63700D01*
X8800Y60000D02*
X9200D01*
X9000Y59800D02*
Y60200D01*
X8800Y53000D02*
X9200D01*
X9000Y52800D02*
Y53200D01*
X10550Y49500D02*
X10950D01*
X10750Y49300D02*
Y49700D01*
X8800Y46000D02*
X9200D01*
X9000Y45800D02*
Y46200D01*
X5300Y74000D02*
X5700D01*
X5500Y73800D02*
Y74200D01*
X7050Y70500D02*
X7450D01*
X7250Y70300D02*
Y70700D01*
X7050Y63500D02*
X7450D01*
X7250Y63300D02*
Y63700D01*
X5300Y60000D02*
X5700D01*
X5500Y59800D02*
Y60200D01*
X7050Y49500D02*
X7450D01*
X7250Y49300D02*
Y49700D01*
X5300Y46000D02*
X5700D01*
X5500Y45800D02*
Y46200D01*
X1800Y81000D02*
X2200D01*
X2000Y80800D02*
Y81200D01*
X3550Y77500D02*
X3950D01*
X3750Y77300D02*
Y77700D01*
X1800Y74000D02*
X2200D01*
X2000Y73800D02*
Y74200D01*
X3550Y70500D02*
X3950D01*
X3750Y70300D02*
Y70700D01*
X1800Y67000D02*
X2200D01*
X2000Y66800D02*
Y67200D01*
X3550Y63500D02*
X3950D01*
X3750Y63300D02*
Y63700D01*
X1800Y60000D02*
X2200D01*
X2000Y59800D02*
Y60200D01*
X3550Y56500D02*
X3950D01*
X3750Y56300D02*
Y56700D01*
X1800Y53000D02*
X2200D01*
X2000Y52800D02*
Y53200D01*
X3550Y49500D02*
X3950D01*
X3750Y49300D02*
Y49700D01*
X1800Y46000D02*
X2200D01*
X2000Y45800D02*
Y46200D01*
X3550Y42500D02*
X3950D01*
X3750Y42300D02*
Y42700D01*
X73741Y48911D02*
X74091D01*
X73916Y48736D02*
Y49086D01*
X58315Y42800D02*
X58665D01*
X58490Y42625D02*
Y42975D01*
X59573Y48000D02*
X59923D01*
X59748Y47825D02*
Y48175D01*
X90985Y40000D02*
X91335D01*
X91160Y39825D02*
Y40175D01*
X90985Y36824D02*
X91335D01*
X91160Y36649D02*
Y36999D01*
X90985Y30450D02*
X91335D01*
X91160Y30275D02*
Y30625D01*
X68625Y27000D02*
X68975D01*
X68800Y26825D02*
Y27175D01*
X68310Y29100D02*
X68660D01*
X68485Y28925D02*
Y29275D01*
X66825Y32000D02*
X67175D01*
X67000Y31825D02*
Y32175D01*
X70525Y29100D02*
X70875D01*
X70700Y28925D02*
Y29275D01*
X64325Y29100D02*
X64675D01*
X64500Y28925D02*
Y29275D01*
X75859Y37000D02*
X76209D01*
X76034Y36825D02*
Y37175D01*
X61525Y54800D02*
X61875D01*
X61700Y54625D02*
Y54975D01*
X66425Y57000D02*
X66775D01*
X66600Y56825D02*
Y57175D01*
X73294Y57800D02*
X73644D01*
X73469Y57625D02*
Y57975D01*
X86425Y45213D02*
X86775D01*
X86600Y45038D02*
Y45388D01*
X78664Y41322D02*
X79014D01*
X78839Y41147D02*
Y41497D01*
X35050Y7500D02*
X35450D01*
X35250Y7300D02*
Y7700D01*
X136550Y70500D02*
X136950D01*
X136750Y70300D02*
Y70700D01*
X36800Y11000D02*
X37200D01*
X37000Y10800D02*
Y11200D01*
X26300Y4000D02*
X26700D01*
X26500Y3800D02*
Y4200D01*
X140050Y35500D02*
X140450D01*
X140250Y35300D02*
Y35700D01*
X10550Y21500D02*
X10950D01*
X10750Y21300D02*
Y21700D01*
X122550Y14500D02*
X122950D01*
X122750Y14300D02*
Y14700D01*
X14050Y7500D02*
X14450D01*
X14250Y7300D02*
Y7700D01*
X47300Y11000D02*
X47700D01*
X47500Y10800D02*
Y11200D01*
X22800Y11000D02*
X23200D01*
X23000Y10800D02*
Y11200D01*
X28050Y7500D02*
X28450D01*
X28250Y7300D02*
Y7700D01*
X45550Y14500D02*
X45950D01*
X45750Y14300D02*
Y14700D01*
X45550Y28500D02*
X45950D01*
X45750Y28300D02*
Y28700D01*
X134800Y4000D02*
X135200D01*
X135000Y3800D02*
Y4200D01*
X140050Y14500D02*
X140450D01*
X140250Y14300D02*
Y14700D01*
X89300Y4000D02*
X89700D01*
X89500Y3800D02*
Y4200D01*
X40300Y4000D02*
X40700D01*
X40500Y3800D02*
Y4200D01*
X19300Y32000D02*
X19700D01*
X19500Y31800D02*
Y32200D01*
X94550Y14500D02*
X94950D01*
X94750Y14300D02*
Y14700D01*
X143550Y21500D02*
X143950D01*
X143750Y21300D02*
Y21700D01*
X14050Y21500D02*
X14450D01*
X14250Y21300D02*
Y21700D01*
X12300Y25000D02*
X12700D01*
X12500Y24800D02*
Y25200D01*
X115550Y7500D02*
X115950D01*
X115750Y7300D02*
Y7700D01*
X138300Y4000D02*
X138700D01*
X138500Y3800D02*
Y4200D01*
X136550Y49500D02*
X136950D01*
X136750Y49300D02*
Y49700D01*
X7050Y35500D02*
X7450D01*
X7250Y35300D02*
Y35700D01*
X143550Y35500D02*
X143950D01*
X143750Y35300D02*
Y35700D01*
X148800Y60000D02*
X149200D01*
X149000Y59800D02*
Y60200D01*
X89300Y11000D02*
X89700D01*
X89500Y10800D02*
Y11200D01*
X148800Y81000D02*
X149200D01*
X149000Y80800D02*
Y81200D01*
X138300Y18000D02*
X138700D01*
X138500Y17800D02*
Y18200D01*
X140050Y77500D02*
X140450D01*
X140250Y77300D02*
Y77700D01*
X3550Y21500D02*
X3950D01*
X3750Y21300D02*
Y21700D01*
X122550Y21500D02*
X122950D01*
X122750Y21300D02*
Y21700D01*
X129550Y28500D02*
X129950D01*
X129750Y28300D02*
Y28700D01*
X50800Y4000D02*
X51200D01*
X51000Y3800D02*
Y4200D01*
X10550Y35500D02*
X10950D01*
X10750Y35300D02*
Y35700D01*
X145300Y18000D02*
X145700D01*
X145500Y17800D02*
Y18200D01*
X8800Y25000D02*
X9200D01*
X9000Y24800D02*
Y25200D01*
X138300Y81000D02*
X138700D01*
X138500Y80800D02*
Y81200D01*
X140050Y49500D02*
X140450D01*
X140250Y49300D02*
Y49700D01*
X50800Y11000D02*
X51200D01*
X51000Y10800D02*
Y11200D01*
X115550Y14500D02*
X115950D01*
X115750Y14300D02*
Y14700D01*
X12300Y32000D02*
X12700D01*
X12500Y31800D02*
Y32200D01*
X12300Y11000D02*
X12700D01*
X12500Y10800D02*
Y11200D01*
X150550Y63500D02*
X150950D01*
X150750Y63300D02*
Y63700D01*
X14050Y35500D02*
X14450D01*
X14250Y35300D02*
Y35700D01*
X138300Y46000D02*
X138700D01*
X138500Y45800D02*
Y46200D01*
X141800Y11000D02*
X142200D01*
X142000Y10800D02*
Y11200D01*
X103300Y4000D02*
X103700D01*
X103500Y3800D02*
Y4200D01*
X119050Y7500D02*
X119450D01*
X119250Y7300D02*
Y7700D01*
X8800Y32000D02*
X9200D01*
X9000Y31800D02*
Y32200D01*
X136550Y28500D02*
X136950D01*
X136750Y28300D02*
Y28700D01*
X138300Y32000D02*
X138700D01*
X138500Y31800D02*
Y32200D01*
X148800Y46000D02*
X149200D01*
X149000Y45800D02*
Y46200D01*
X17550Y21500D02*
X17950D01*
X17750Y21300D02*
Y21700D01*
X147050Y49500D02*
X147450D01*
X147250Y49300D02*
Y49700D01*
X150550Y56500D02*
X150950D01*
X150750Y56300D02*
Y56700D01*
X140050Y7500D02*
X140450D01*
X140250Y7300D02*
Y7700D01*
X42050Y7500D02*
X42450D01*
X42250Y7300D02*
Y7700D01*
X85800Y4000D02*
X86200D01*
X86000Y3800D02*
Y4200D01*
X3550Y14500D02*
X3950D01*
X3750Y14300D02*
Y14700D01*
X145300Y39000D02*
X145700D01*
X145500Y38800D02*
Y39200D01*
X10550Y14500D02*
X10950D01*
X10750Y14300D02*
Y14700D01*
X112050Y14500D02*
X112450D01*
X112250Y14300D02*
Y14700D01*
X103300Y11000D02*
X103700D01*
X103500Y10800D02*
Y11200D01*
X19300Y11000D02*
X19700D01*
X19500Y10800D02*
Y11200D01*
X138300Y25000D02*
X138700D01*
X138500Y24800D02*
Y25200D01*
X127800Y11000D02*
X128200D01*
X128000Y10800D02*
Y11200D01*
X7050Y14500D02*
X7450D01*
X7250Y14300D02*
Y14700D01*
X119050Y14500D02*
X119450D01*
X119250Y14300D02*
Y14700D01*
X113800Y11000D02*
X114200D01*
X114000Y10800D02*
Y11200D01*
X126050Y7500D02*
X126450D01*
X126250Y7300D02*
Y7700D01*
X21050Y7500D02*
X21450D01*
X21250Y7300D02*
Y7700D01*
X134800Y60000D02*
X135200D01*
X135000Y59800D02*
Y60200D01*
X101550Y14500D02*
X101950D01*
X101750Y14300D02*
Y14700D01*
X134800Y46000D02*
X135200D01*
X135000Y45800D02*
Y46200D01*
X10550Y7500D02*
X10950D01*
X10750Y7300D02*
Y7700D01*
X150550Y49500D02*
X150950D01*
X150750Y49300D02*
Y49700D01*
X87550Y7500D02*
X87950D01*
X87750Y7300D02*
Y7700D01*
X85800Y11000D02*
X86200D01*
X86000Y10800D02*
Y11200D01*
X138300Y39000D02*
X138700D01*
X138500Y38800D02*
Y39200D01*
X150550Y70500D02*
X150950D01*
X150750Y70300D02*
Y70700D01*
X148800Y11000D02*
X149200D01*
X149000Y10800D02*
Y11200D01*
X49050Y7500D02*
X49450D01*
X49250Y7300D02*
Y7700D01*
X138300Y11000D02*
X138700D01*
X138500Y10800D02*
Y11200D01*
X140050Y28500D02*
X140450D01*
X140250Y28300D02*
Y28700D01*
X22800Y32000D02*
X23200D01*
X23000Y31800D02*
Y32200D01*
X108550Y7500D02*
X108950D01*
X108750Y7300D02*
Y7700D01*
X45550Y7500D02*
X45950D01*
X45750Y7300D02*
Y7700D01*
X33300Y4000D02*
X33700D01*
X33500Y3800D02*
Y4200D01*
X101550Y7500D02*
X101950D01*
X101750Y7300D02*
Y7700D01*
X7050Y21500D02*
X7450D01*
X7250Y21300D02*
Y21700D01*
X42050Y14500D02*
X42450D01*
X42250Y14300D02*
Y14700D01*
X140050Y21500D02*
X140450D01*
X140250Y21300D02*
Y21700D01*
X117300Y4000D02*
X117700D01*
X117500Y3800D02*
Y4200D01*
X134800Y39000D02*
X135200D01*
X135000Y38800D02*
Y39200D01*
X24550Y7500D02*
X24950D01*
X24750Y7300D02*
Y7700D01*
X136550Y56500D02*
X136950D01*
X136750Y56300D02*
Y56700D01*
X145300Y11000D02*
X145700D01*
X145500Y10800D02*
Y11200D01*
X122550Y7500D02*
X122950D01*
X122750Y7300D02*
Y7700D01*
X110300Y4000D02*
X110700D01*
X110500Y3800D02*
Y4200D01*
X5300Y25000D02*
X5700D01*
X5500Y24800D02*
Y25200D01*
X134800Y32000D02*
X135200D01*
X135000Y31800D02*
Y32200D01*
X8800Y11000D02*
X9200D01*
X9000Y10800D02*
Y11200D01*
X42050Y28500D02*
X42450D01*
X42250Y28300D02*
Y28700D01*
X15800Y11000D02*
X16200D01*
X16000Y10800D02*
Y11200D01*
X147050Y70500D02*
X147450D01*
X147250Y70300D02*
Y70700D01*
X143550Y42500D02*
X143950D01*
X143750Y42300D02*
Y42700D01*
X1800Y18000D02*
X2200D01*
X2000Y17800D02*
Y18200D01*
X124300Y4000D02*
X124700D01*
X124500Y3800D02*
Y4200D01*
X17550Y7500D02*
X17950D01*
X17750Y7300D02*
Y7700D01*
X141800Y32000D02*
X142200D01*
X142000Y31800D02*
Y32200D01*
X141800Y46000D02*
X142200D01*
X142000Y45800D02*
Y46200D01*
X147050Y35500D02*
X147450D01*
X147250Y35300D02*
Y35700D01*
X147050Y21500D02*
X147450D01*
X147250Y21300D02*
Y21700D01*
X148800Y39000D02*
X149200D01*
X149000Y38800D02*
Y39200D01*
X145300Y25000D02*
X145700D01*
X145500Y24800D02*
Y25200D01*
X3550Y28500D02*
X3950D01*
X3750Y28300D02*
Y28700D01*
X143550Y77500D02*
X143950D01*
X143750Y77300D02*
Y77700D01*
X22800Y18000D02*
X23200D01*
X23000Y17800D02*
Y18200D01*
X105050Y14500D02*
X105450D01*
X105250Y14300D02*
Y14700D01*
X136550Y42500D02*
X136950D01*
X136750Y42300D02*
Y42700D01*
X134800Y67000D02*
X135200D01*
X135000Y66800D02*
Y67200D01*
X148800Y18000D02*
X149200D01*
X149000Y17800D02*
Y18200D01*
X141800Y81000D02*
X142200D01*
X142000Y80800D02*
Y81200D01*
X106800Y11000D02*
X107200D01*
X107000Y10800D02*
Y11200D01*
X92800Y11000D02*
X93200D01*
X93000Y10800D02*
Y11200D01*
X99800Y11000D02*
X100200D01*
X100000Y10800D02*
Y11200D01*
X124300Y11000D02*
X124700D01*
X124500Y10800D02*
Y11200D01*
X110300Y11000D02*
X110700D01*
X110500Y10800D02*
Y11200D01*
X134800Y11000D02*
X135200D01*
X135000Y10800D02*
Y11200D01*
X133050Y7500D02*
X133450D01*
X133250Y7300D02*
Y7700D01*
X120800Y11000D02*
X121200D01*
X121000Y10800D02*
Y11200D01*
X141800Y39000D02*
X142200D01*
X142000Y38800D02*
Y39200D01*
X131300Y32000D02*
X131700D01*
X131500Y31800D02*
Y32200D01*
X147050Y56500D02*
X147450D01*
X147250Y56300D02*
Y56700D01*
X141800Y18000D02*
X142200D01*
X142000Y17800D02*
Y18200D01*
X143550Y70500D02*
X143950D01*
X143750Y70300D02*
Y70700D01*
X36800Y4000D02*
X37200D01*
X37000Y3800D02*
Y4200D01*
X22800Y4000D02*
X23200D01*
X23000Y3800D02*
Y4200D01*
X133050Y14500D02*
X133450D01*
X133250Y14300D02*
Y14700D01*
X108550Y14500D02*
X108950D01*
X108750Y14300D02*
Y14700D01*
X117300Y11000D02*
X117700D01*
X117500Y10800D02*
Y11200D01*
X12300Y4000D02*
X12700D01*
X12500Y3800D02*
Y4200D01*
X105050Y7500D02*
X105450D01*
X105250Y7300D02*
Y7700D01*
X145300Y67000D02*
X145700D01*
X145500Y66800D02*
Y67200D01*
X3550Y35500D02*
X3950D01*
X3750Y35300D02*
Y35700D01*
X19300Y4000D02*
X19700D01*
X19500Y3800D02*
Y4200D01*
X38550Y7500D02*
X38950D01*
X38750Y7300D02*
Y7700D01*
X14050Y14500D02*
X14450D01*
X14250Y14300D02*
Y14700D01*
X148800Y25000D02*
X149200D01*
X149000Y24800D02*
Y25200D01*
X141800Y25000D02*
X142200D01*
X142000Y24800D02*
Y25200D01*
X131300Y11000D02*
X131700D01*
X131500Y10800D02*
Y11200D01*
X91050Y14500D02*
X91450D01*
X91250Y14300D02*
Y14700D01*
X140050Y70500D02*
X140450D01*
X140250Y70300D02*
Y70700D01*
X133050Y28500D02*
X133450D01*
X133250Y28300D02*
Y28700D01*
X43800Y4000D02*
X44200D01*
X44000Y3800D02*
Y4200D01*
X87550Y14500D02*
X87950D01*
X87750Y14300D02*
Y14700D01*
X148800Y32000D02*
X149200D01*
X149000Y31800D02*
Y32200D01*
X31550Y7500D02*
X31950D01*
X31750Y7300D02*
Y7700D01*
X131300Y4000D02*
X131700D01*
X131500Y3800D02*
Y4200D01*
X147050Y28500D02*
X147450D01*
X147250Y28300D02*
Y28700D01*
X106800Y4000D02*
X107200D01*
X107000Y3800D02*
Y4200D01*
X147050Y14500D02*
X147450D01*
X147250Y14300D02*
Y14700D01*
X145300Y74000D02*
X145700D01*
X145500Y73800D02*
Y74200D01*
X47300Y4000D02*
X47700D01*
X47500Y3800D02*
Y4200D01*
X29800Y4000D02*
X30200D01*
X30000Y3800D02*
Y4200D01*
X136550Y77500D02*
X136950D01*
X136750Y77300D02*
Y77700D01*
X112050Y7500D02*
X112450D01*
X112250Y7300D02*
Y7700D01*
X140050Y42500D02*
X140450D01*
X140250Y42300D02*
Y42700D01*
X99800Y4000D02*
X100200D01*
X100000Y3800D02*
Y4200D01*
X1800Y25000D02*
X2200D01*
X2000Y24800D02*
Y25200D01*
X126050Y14500D02*
X126450D01*
X126250Y14300D02*
Y14700D01*
X143550Y49500D02*
X143950D01*
X143750Y49300D02*
Y49700D01*
X147050Y42500D02*
X147450D01*
X147250Y42300D02*
Y42700D01*
X15800Y25000D02*
X16200D01*
X16000Y24800D02*
Y25200D01*
X136550Y7500D02*
X136950D01*
X136750Y7300D02*
Y7700D01*
X49050Y28500D02*
X49450D01*
X49250Y28300D02*
Y28700D01*
X96300Y11000D02*
X96700D01*
X96500Y10800D02*
Y11200D01*
X22800Y25000D02*
X23200D01*
X23000Y24800D02*
Y25200D01*
X1800Y32000D02*
X2200D01*
X2000Y31800D02*
Y32200D01*
X129550Y7500D02*
X129950D01*
X129750Y7300D02*
Y7700D01*
X127800Y4000D02*
X128200D01*
X128000Y3800D02*
Y4200D01*
X5300Y11000D02*
X5700D01*
X5500Y10800D02*
Y11200D01*
X136550Y14500D02*
X136950D01*
X136750Y14300D02*
Y14700D01*
X98050Y14500D02*
X98450D01*
X98250Y14300D02*
Y14700D01*
X117300Y18000D02*
X117700D01*
X117500Y17800D02*
Y18200D01*
X1800Y11000D02*
X2200D01*
X2000Y10800D02*
Y11200D01*
X143550Y28500D02*
X143950D01*
X143750Y28300D02*
Y28700D01*
X141800Y67000D02*
X142200D01*
X142000Y66800D02*
Y67200D01*
X129550Y14500D02*
X129950D01*
X129750Y14300D02*
Y14700D01*
X143550Y56500D02*
X143950D01*
X143750Y56300D02*
Y56700D01*
X120800Y4000D02*
X121200D01*
X121000Y3800D02*
Y4200D01*
X136550Y35500D02*
X136950D01*
X136750Y35300D02*
Y35700D01*
X145300Y32000D02*
X145700D01*
X145500Y31800D02*
Y32200D01*
X17550Y35500D02*
X17950D01*
X17750Y35300D02*
Y35700D01*
X113800Y4000D02*
X114200D01*
X114000Y3800D02*
Y4200D01*
X138300Y67000D02*
X138700D01*
X138500Y66800D02*
Y67200D01*
X148800Y67000D02*
X149200D01*
X149000Y66800D02*
Y67200D01*
X49050Y14500D02*
X49450D01*
X49250Y14300D02*
Y14700D01*
X71978Y44654D02*
X72328D01*
X72153Y44479D02*
Y44829D01*
X70778Y46010D02*
X71128D01*
X70953Y45835D02*
Y46185D01*
X72070Y17282D02*
X72420D01*
X72245Y17107D02*
Y17457D01*
X27620Y73967D02*
X27970D01*
X27795Y73792D02*
Y74142D01*
X28846Y73967D02*
X29196D01*
X29021Y73792D02*
Y74142D01*
X30073Y73967D02*
X30423D01*
X30247Y73792D02*
Y74142D01*
X31299Y73967D02*
X31649D01*
X31474Y73792D02*
Y74142D01*
X32525Y73967D02*
X32875D01*
X32700Y73792D02*
Y74142D01*
X15244Y74500D02*
X15594D01*
X15419Y74325D02*
Y74675D01*
X16269Y74500D02*
X16619D01*
X16444Y74325D02*
Y74675D01*
X17294Y74500D02*
X17644D01*
X17469Y74325D02*
Y74675D01*
X15244Y69420D02*
X15594D01*
X15419Y69245D02*
Y69595D01*
X16269Y69420D02*
X16619D01*
X16444Y69245D02*
Y69595D01*
X17294Y69420D02*
X17644D01*
X17469Y69245D02*
Y69595D01*
X15244Y64340D02*
X15594D01*
X15419Y64165D02*
Y64515D01*
X16269Y64340D02*
X16619D01*
X16444Y64165D02*
Y64515D01*
X17294Y64340D02*
X17644D01*
X17469Y64165D02*
Y64515D01*
X15244Y59260D02*
X15594D01*
X15419Y59085D02*
Y59435D01*
X16269Y59260D02*
X16619D01*
X16444Y59085D02*
Y59435D01*
X17294Y59260D02*
X17644D01*
X17469Y59085D02*
Y59435D01*
X17294Y54180D02*
X17644D01*
X17469Y54005D02*
Y54355D01*
X16269Y54180D02*
X16619D01*
X16444Y54005D02*
Y54355D01*
X15244Y54180D02*
X15594D01*
X15419Y54005D02*
Y54355D01*
X127015Y61895D02*
X127365D01*
X127190Y61720D02*
Y62070D01*
X77198Y18127D02*
X77548D01*
X77373Y17952D02*
Y18302D01*
X86925Y26388D02*
X87275D01*
X87100Y26213D02*
Y26563D01*
X51720Y27386D02*
X52070D01*
X51895Y27211D02*
Y27561D01*
X68825Y68000D02*
X69175D01*
X69000Y67825D02*
Y68175D01*
X71978Y29840D02*
X72328D01*
X72153Y29665D02*
Y30015D01*
X74085Y29840D02*
X74435D01*
X74260Y29665D02*
Y30015D01*
X26323Y12000D02*
X26673D01*
X26498Y11825D02*
Y12175D01*
X28174Y12000D02*
X28524D01*
X28349Y11825D02*
Y12175D01*
X30025Y12000D02*
X30375D01*
X30200Y11825D02*
Y12175D01*
X37825Y50682D02*
X38175D01*
X38000Y50507D02*
Y50857D01*
X65432Y44913D02*
X65782D01*
X65607Y44738D02*
Y45088D01*
X73294Y43426D02*
X73644D01*
X73469Y43251D02*
Y43601D01*
X72608Y44010D02*
X72958D01*
X72783Y43835D02*
Y44185D01*
X61525Y50100D02*
X61875D01*
X61700Y49925D02*
Y50275D01*
X62325Y48694D02*
X62675D01*
X62500Y48519D02*
Y48869D01*
X124075Y68000D02*
X124425D01*
X124250Y67825D02*
Y68175D01*
X76206Y55668D02*
X76556D01*
X76381Y55493D02*
Y55843D01*
X76124Y44962D02*
X76474D01*
X76299Y44787D02*
Y45137D01*
X76868Y44078D02*
X77218D01*
X77043Y43903D02*
Y44253D01*
X85296Y66984D02*
X85646D01*
X85470Y66809D02*
Y67159D01*
X29625Y23700D02*
X29975D01*
X29800Y23525D02*
Y23875D01*
X32875Y23700D02*
X33225D01*
X33050Y23525D02*
Y23875D01*
X34825Y23700D02*
X35175D01*
X35000Y23525D02*
Y23875D01*
X38075Y23700D02*
X38425D01*
X38250Y23525D02*
Y23875D01*
X78088Y42335D02*
X78438D01*
X78263Y42160D02*
Y42510D01*
X77451Y43201D02*
X77801D01*
X77626Y43026D02*
Y43376D01*
X27923Y27491D02*
X28273D01*
X28098Y27316D02*
Y27666D01*
X20525Y18200D02*
X20875D01*
X20700Y18025D02*
Y18375D01*
X21525Y13120D02*
X21875D01*
X21700Y12945D02*
Y13295D01*
X39825Y27491D02*
X40175D01*
X40000Y27316D02*
Y27666D01*
X37825Y22000D02*
X38175D01*
X38000Y21825D02*
Y22175D01*
X34825Y22000D02*
X35175D01*
X35000Y21825D02*
Y22175D01*
X32875Y22000D02*
X33225D01*
X33050Y21825D02*
Y22175D01*
X29825Y22000D02*
X30175D01*
X30000Y21825D02*
Y22175D01*
X103825Y49246D02*
X104175D01*
X104000Y49071D02*
Y49421D01*
X31225Y41000D02*
X31575D01*
X31400Y40825D02*
Y41175D01*
X28785Y59961D02*
X29135D01*
X28960Y59786D02*
Y60136D01*
X28785Y60959D02*
X29135D01*
X28960Y60784D02*
Y61134D01*
X28785Y61946D02*
X29135D01*
X28960Y61771D02*
Y62121D01*
X28785Y62948D02*
X29135D01*
X28960Y62773D02*
Y63123D01*
X28785Y63949D02*
X29135D01*
X28960Y63774D02*
Y64124D01*
X84825Y54000D02*
X85175D01*
X85000Y53825D02*
Y54175D01*
X86425Y50000D02*
X86775D01*
X86600Y49825D02*
Y50175D01*
X38125Y75749D02*
X38475D01*
X38300Y75574D02*
Y75924D01*
X79325Y53500D02*
X79675D01*
X79500Y53325D02*
Y53675D01*
X116100Y47200D02*
X116450D01*
X116275Y47025D02*
Y47375D01*
X104641Y51120D02*
X104991D01*
X104816Y50945D02*
Y51295D01*
X53725Y37000D02*
X54075D01*
X53900Y36825D02*
Y37175D01*
X70725Y52500D02*
X71075D01*
X70900Y52325D02*
Y52675D01*
X74825Y35500D02*
X75175D01*
X75000Y35325D02*
Y35675D01*
X73925Y36500D02*
X74275D01*
X74100Y36325D02*
Y36675D01*
X36727Y41000D02*
X37077D01*
X36902Y40825D02*
Y41175D01*
X38825Y46000D02*
X39175D01*
X39000Y45825D02*
Y46175D01*
X38075Y40600D02*
X38425D01*
X38250Y40425D02*
Y40775D01*
X19525Y23280D02*
X19875D01*
X19700Y23105D02*
Y23455D01*
%TF.MD5,b238572c38ca43831438412e359c6bd8*%
M02*
