%TF.GenerationSoftware,Altium Limited,Altium Designer,22.11.1 (43)*%
G04 Layer_Color=32768*
%FSLAX43Y43*%
%MOMM*%
%TF.SameCoordinates,713154A8-74CC-4FB3-A553-2C66CAAA5226*%
%TF.FilePolarity,Positive*%
%TF.FileFunction,Other,Outline*%
%TF.Part,Single*%
G01*
G75*
%TA.AperFunction,NonConductor*%
%ADD84C,0.254*%
D84*
X134750Y16075D02*
G03*
X136750Y18075I0J2000D01*
G01*
Y24075D02*
G03*
X134750Y26075I-2000J0D01*
G01*
X126750D02*
G03*
X124750Y24075I0J-2000D01*
G01*
Y18075D02*
G03*
X126750Y16075I2000J0D01*
G01*
X5000Y90000D02*
G03*
X0Y85000I0J-5000D01*
G01*
X150000D02*
G03*
X145000Y90000I-5000J0D01*
G01*
X0Y5000D02*
G03*
X5000Y0I5000J0D01*
G01*
X145000D02*
G03*
X150000Y5000I0J5000D01*
G01*
Y46000D02*
Y46500D01*
X152000Y48500D01*
X154000D01*
X150000Y46000D02*
X150000Y46000D01*
X150000Y45000D02*
Y46000D01*
X151000Y79000D02*
X152000Y78000D01*
X150000Y80000D02*
Y81000D01*
Y80000D02*
X151000Y79000D01*
X152000Y78000D02*
X154000D01*
Y77000D02*
Y78000D01*
X154000Y48000D02*
X154000Y48000D01*
Y48500D02*
Y49000D01*
X136750Y18075D02*
Y24075D01*
X126750Y16075D02*
X134750D01*
X126750Y26075D02*
X134750D01*
X124750Y18075D02*
Y24075D01*
X150000Y81000D02*
Y85000D01*
X154000Y76000D02*
Y77000D01*
X5000Y90000D02*
X145000D01*
X5000Y0D02*
X145000D01*
X150000Y45000D02*
X150000Y5000D01*
X154000Y49000D02*
X154000Y76000D01*
X-0Y5000D02*
X0Y85000D01*
%TF.MD5,c1445d1e883d1d8a7d82a02e841bc2b2*%
M02*
