%TF.GenerationSoftware,Altium Limited,Altium Designer,22.11.1 (43)*%
G04 Layer_Physical_Order=2*
G04 Layer_Color=16711680*
%FSLAX43Y43*%
%MOMM*%
%TF.SameCoordinates,713154A8-74CC-4FB3-A553-2C66CAAA5226*%
%TF.FilePolarity,Positive*%
%TF.FileFunction,Copper,L2,Bot,Signal*%
%TF.Part,Single*%
G01*
G75*
%TA.AperFunction,SMDPad,CuDef*%
%ADD10R,1.450X1.200*%
%ADD18R,1.356X1.055*%
%ADD21R,1.150X1.450*%
%ADD22R,1.200X1.450*%
%ADD23R,0.700X0.600*%
%ADD37R,1.000X1.350*%
%TA.AperFunction,Conductor*%
%ADD49C,0.280*%
%ADD50C,2.000*%
%ADD51C,0.480*%
%ADD52C,1.000*%
%TA.AperFunction,ComponentPad*%
G04:AMPARAMS|DCode=54|XSize=2.6mm|YSize=4.7mm|CornerRadius=1.3mm|HoleSize=0mm|Usage=FLASHONLY|Rotation=180.000|XOffset=0mm|YOffset=0mm|HoleType=Round|Shape=RoundedRectangle|*
%AMROUNDEDRECTD54*
21,1,2.600,2.100,0,0,180.0*
21,1,0.000,4.700,0,0,180.0*
1,1,2.600,0.000,1.050*
1,1,2.600,0.000,1.050*
1,1,2.600,0.000,-1.050*
1,1,2.600,0.000,-1.050*
%
%ADD54ROUNDEDRECTD54*%
%ADD55C,1.550*%
%ADD56R,1.550X1.550*%
%ADD57C,1.337*%
%ADD58R,1.337X1.337*%
%ADD59R,1.250X1.250*%
%ADD60C,1.250*%
%ADD61C,1.700*%
%ADD62R,3.000X1.500*%
%ADD63C,1.400*%
%ADD64R,1.500X3.500*%
%ADD65R,1.500X2.800*%
%ADD66C,2.400*%
G04:AMPARAMS|DCode=67|XSize=2.4mm|YSize=2.4mm|CornerRadius=0.6mm|HoleSize=0mm|Usage=FLASHONLY|Rotation=270.000|XOffset=0mm|YOffset=0mm|HoleType=Round|Shape=RoundedRectangle|*
%AMROUNDEDRECTD67*
21,1,2.400,1.200,0,0,270.0*
21,1,1.200,2.400,0,0,270.0*
1,1,1.200,-0.600,-0.600*
1,1,1.200,-0.600,0.600*
1,1,1.200,0.600,0.600*
1,1,1.200,0.600,-0.600*
%
%ADD67ROUNDEDRECTD67*%
%ADD68C,1.600*%
G04:AMPARAMS|DCode=69|XSize=1.6mm|YSize=1.6mm|CornerRadius=0.4mm|HoleSize=0mm|Usage=FLASHONLY|Rotation=180.000|XOffset=0mm|YOffset=0mm|HoleType=Round|Shape=RoundedRectangle|*
%AMROUNDEDRECTD69*
21,1,1.600,0.800,0,0,180.0*
21,1,0.800,1.600,0,0,180.0*
1,1,0.800,-0.400,0.400*
1,1,0.800,0.400,0.400*
1,1,0.800,0.400,-0.400*
1,1,0.800,-0.400,-0.400*
%
%ADD69ROUNDEDRECTD69*%
G04:AMPARAMS|DCode=70|XSize=1.5mm|YSize=1.5mm|CornerRadius=0.375mm|HoleSize=0mm|Usage=FLASHONLY|Rotation=270.000|XOffset=0mm|YOffset=0mm|HoleType=Round|Shape=RoundedRectangle|*
%AMROUNDEDRECTD70*
21,1,1.500,0.750,0,0,270.0*
21,1,0.750,1.500,0,0,270.0*
1,1,0.750,-0.375,-0.375*
1,1,0.750,-0.375,0.375*
1,1,0.750,0.375,0.375*
1,1,0.750,0.375,-0.375*
%
%ADD70ROUNDEDRECTD70*%
%ADD71C,1.500*%
%TA.AperFunction,ViaPad*%
%ADD72C,3.500*%
%TA.AperFunction,ComponentPad*%
%ADD73C,1.800*%
%ADD74R,1.800X1.800*%
%ADD75C,1.950*%
G04:AMPARAMS|DCode=76|XSize=1.95mm|YSize=1.95mm|CornerRadius=0.488mm|HoleSize=0mm|Usage=FLASHONLY|Rotation=180.000|XOffset=0mm|YOffset=0mm|HoleType=Round|Shape=RoundedRectangle|*
%AMROUNDEDRECTD76*
21,1,1.950,0.975,0,0,180.0*
21,1,0.975,1.950,0,0,180.0*
1,1,0.975,-0.488,0.488*
1,1,0.975,0.488,0.488*
1,1,0.975,0.488,-0.488*
1,1,0.975,-0.488,-0.488*
%
%ADD76ROUNDEDRECTD76*%
G04:AMPARAMS|DCode=77|XSize=1.6mm|YSize=1.6mm|CornerRadius=0.4mm|HoleSize=0mm|Usage=FLASHONLY|Rotation=90.000|XOffset=0mm|YOffset=0mm|HoleType=Round|Shape=RoundedRectangle|*
%AMROUNDEDRECTD77*
21,1,1.600,0.800,0,0,90.0*
21,1,0.800,1.600,0,0,90.0*
1,1,0.800,0.400,0.400*
1,1,0.800,0.400,-0.400*
1,1,0.800,-0.400,-0.400*
1,1,0.800,-0.400,0.400*
%
%ADD77ROUNDEDRECTD77*%
%TA.AperFunction,ViaPad*%
%ADD78C,0.800*%
%ADD79C,0.750*%
%TA.AperFunction,SMDPad,CuDef*%
%ADD80R,1.300X3.400*%
%ADD81R,0.900X0.950*%
G36*
X145928Y89664D02*
X146529Y89503D01*
X147103Y89265D01*
X147642Y88954D01*
X148135Y88575D01*
X148575Y88135D01*
X148954Y87642D01*
X149265Y87103D01*
X149503Y86529D01*
X149664Y85928D01*
X149745Y85311D01*
Y85000D01*
Y80000D01*
X149765Y79902D01*
X149820Y79820D01*
X151820Y77820D01*
X151902Y77765D01*
X152000Y77745D01*
X153745D01*
Y76000D01*
X153745Y49000D01*
Y48755D01*
X152000D01*
X151902Y48735D01*
X151820Y48680D01*
X149820Y46680D01*
X149765Y46598D01*
X149745Y46500D01*
Y46000D01*
X149745Y45000D01*
X149745Y5000D01*
Y4689D01*
X149664Y4072D01*
X149503Y3471D01*
X149265Y2897D01*
X148954Y2358D01*
X148575Y1865D01*
X148135Y1425D01*
X147642Y1046D01*
X147103Y735D01*
X146529Y497D01*
X145928Y336D01*
X145311Y255D01*
X4689D01*
X4072Y336D01*
X3471Y497D01*
X2897Y735D01*
X2358Y1046D01*
X1865Y1425D01*
X1425Y1865D01*
X1046Y2358D01*
X735Y2897D01*
X497Y3471D01*
X336Y4072D01*
X255Y4689D01*
Y5000D01*
Y39100D01*
X4587D01*
X4722Y38850D01*
X4649Y38578D01*
Y38222D01*
X4741Y37879D01*
X4919Y37570D01*
X5170Y37319D01*
X5479Y37141D01*
X5822Y37049D01*
X6178D01*
X6521Y37141D01*
X6830Y37319D01*
X7081Y37570D01*
X7259Y37879D01*
X7351Y38222D01*
Y38578D01*
X7278Y38850D01*
X7413Y39100D01*
X36026D01*
Y38349D01*
X37778D01*
Y39100D01*
X50000D01*
Y36097D01*
X38069D01*
X37881Y36246D01*
X37881Y36347D01*
Y36973D01*
X35923D01*
Y36347D01*
X35923Y36246D01*
X35734Y36097D01*
X28800D01*
X28800Y36097D01*
X28686Y36074D01*
X28590Y36010D01*
X28590Y36010D01*
X19490Y26910D01*
X19426Y26814D01*
X19403Y26700D01*
X19403Y26700D01*
Y23726D01*
X19402Y23726D01*
X19254Y23578D01*
X19174Y23385D01*
Y23175D01*
X19254Y22982D01*
X19402Y22834D01*
X19595Y22754D01*
X19805D01*
X19998Y22834D01*
X20146Y22982D01*
X20153Y23000D01*
X20403Y22950D01*
Y18646D01*
X20402Y18646D01*
X20254Y18498D01*
X20174Y18305D01*
Y18095D01*
X20254Y17902D01*
X20402Y17754D01*
X20595Y17674D01*
X20805D01*
X20998Y17754D01*
X21146Y17902D01*
X21153Y17920D01*
X21403Y17870D01*
Y13566D01*
X21402Y13566D01*
X21254Y13418D01*
X21174Y13225D01*
Y13015D01*
X21254Y12822D01*
X21402Y12674D01*
X21595Y12594D01*
X21805D01*
X21998Y12674D01*
X22146Y12822D01*
X22226Y13015D01*
Y13225D01*
X22146Y13418D01*
X21998Y13566D01*
X21997Y13566D01*
Y27358D01*
X29280Y34641D01*
X50000D01*
Y26349D01*
X49046D01*
X48986Y26453D01*
X48833Y26606D01*
X48646Y26714D01*
X48438Y26770D01*
X48222D01*
X48014Y26714D01*
X47827Y26606D01*
X47674Y26453D01*
X47566Y26266D01*
X47511Y26058D01*
Y25842D01*
X47533Y25760D01*
X47370Y25510D01*
X24979Y25510D01*
X24784Y25471D01*
X24619Y25360D01*
X24390Y25131D01*
X24279Y24966D01*
X24240Y24771D01*
Y18127D01*
Y11150D01*
X24250Y11101D01*
X24250Y11051D01*
X24258Y11009D01*
X24258Y11009D01*
Y11009D01*
X24278Y10962D01*
X24279Y10955D01*
X24283Y10949D01*
X24334Y10825D01*
X24334Y10825D01*
X24334Y10825D01*
X24405Y10755D01*
X24475Y10684D01*
X24475Y10684D01*
X24475Y10684D01*
X24599Y10633D01*
X24605Y10629D01*
X24612Y10628D01*
X24659Y10608D01*
X24659D01*
X24659Y10608D01*
X24701Y10600D01*
X24751Y10600D01*
X24800Y10590D01*
X34050D01*
X34062Y10593D01*
X34099D01*
X34137Y10600D01*
X34149D01*
X34161Y10602D01*
X34168Y10605D01*
X34222Y10608D01*
X34257Y10624D01*
X34294Y10631D01*
X34340Y10662D01*
X34347Y10664D01*
X34358Y10669D01*
X34368Y10676D01*
X34402Y10692D01*
X34433Y10715D01*
X34444Y10720D01*
X43768Y17617D01*
X43768Y17617D01*
X49261D01*
X49297Y17482D01*
X49409Y17287D01*
X49567Y17129D01*
X49762Y17017D01*
X49978Y16959D01*
X50202D01*
X50418Y17017D01*
X50613Y17129D01*
X50771Y17287D01*
X50883Y17482D01*
X50919Y17617D01*
X56674D01*
X56731Y17404D01*
X56869Y17165D01*
X57065Y16969D01*
X57304Y16831D01*
X57572Y16759D01*
X57848D01*
X58116Y16831D01*
X58355Y16969D01*
X58551Y17165D01*
X58689Y17404D01*
X58746Y17617D01*
X67337D01*
Y11000D01*
X67384Y10884D01*
X67500Y10837D01*
X82413D01*
X82529Y10884D01*
X82577Y11000D01*
Y17617D01*
X115077D01*
X115126Y17627D01*
X115176D01*
X115223Y17636D01*
X115269Y17656D01*
X115272Y17656D01*
X115274Y17658D01*
X115355Y17691D01*
X115358Y17692D01*
X115360Y17693D01*
X115406Y17712D01*
X115446Y17739D01*
X115481Y17774D01*
X115523Y17802D01*
X124338Y26617D01*
X133152Y35431D01*
X133180Y35473D01*
X133216Y35509D01*
X133242Y35548D01*
X133261Y35594D01*
X133263Y35597D01*
X133264Y35600D01*
X133280Y35639D01*
X133296Y35678D01*
X133298Y35681D01*
X133298Y35684D01*
X133318Y35730D01*
X133327Y35776D01*
X133327Y35826D01*
X133337Y35876D01*
X133357Y40837D01*
X133394Y40885D01*
X133608Y41011D01*
X133708Y40984D01*
X133912D01*
X134110Y41037D01*
X134286Y41139D01*
X134431Y41284D01*
X134533Y41460D01*
X134586Y41658D01*
Y41862D01*
X134533Y42060D01*
X134431Y42236D01*
X134286Y42381D01*
X134110Y42483D01*
X133912Y42536D01*
X133708D01*
X133614Y42511D01*
X133365Y42662D01*
X133367Y43371D01*
X133397Y43413D01*
X133618Y43548D01*
X133708Y43524D01*
X133912D01*
X134110Y43577D01*
X134286Y43679D01*
X134431Y43824D01*
X134533Y44000D01*
X134586Y44198D01*
Y44402D01*
X134533Y44600D01*
X134431Y44776D01*
X134286Y44921D01*
X134110Y45023D01*
X133912Y45076D01*
X133708D01*
X133624Y45054D01*
X133375Y45210D01*
X133378Y45928D01*
X133628Y46085D01*
X133708Y46064D01*
X133912D01*
X134110Y46117D01*
X134286Y46219D01*
X134431Y46364D01*
X134533Y46540D01*
X134586Y46738D01*
Y46942D01*
X134533Y47140D01*
X134431Y47316D01*
X134286Y47461D01*
X134110Y47563D01*
X133912Y47616D01*
X133708D01*
X133634Y47596D01*
X133405Y47745D01*
X133385Y47779D01*
X133390Y49054D01*
X133396Y50633D01*
X133647Y50800D01*
X133708Y50784D01*
X133912D01*
X134110Y50837D01*
X134286Y50939D01*
X134431Y51084D01*
X134533Y51260D01*
X134586Y51458D01*
Y51662D01*
X134533Y51860D01*
X134431Y52036D01*
X134286Y52181D01*
X134110Y52283D01*
X133912Y52336D01*
X133708D01*
X133653Y52321D01*
X133404Y52492D01*
X133407Y53165D01*
X133657Y53338D01*
X133708Y53324D01*
X133912D01*
X134110Y53377D01*
X134286Y53479D01*
X134431Y53624D01*
X134533Y53800D01*
X134586Y53998D01*
Y54202D01*
X134533Y54400D01*
X134431Y54576D01*
X134286Y54721D01*
X134110Y54823D01*
X133912Y54876D01*
X133708D01*
X133663Y54864D01*
X133414Y55040D01*
X133417Y55698D01*
X133667Y55875D01*
X133708Y55864D01*
X133912D01*
X134110Y55917D01*
X134286Y56019D01*
X134431Y56164D01*
X134533Y56340D01*
X134586Y56538D01*
Y56742D01*
X134533Y56940D01*
X134431Y57116D01*
X134286Y57261D01*
X134110Y57363D01*
X133912Y57416D01*
X133708D01*
X133674Y57407D01*
X133424Y57588D01*
X133498Y76160D01*
X133517Y80861D01*
X134488D01*
X134737Y80911D01*
X134948Y81052D01*
X135089Y81263D01*
X135139Y81512D01*
Y82488D01*
X135089Y82737D01*
X134948Y82948D01*
X134737Y83089D01*
X134488Y83139D01*
X133703D01*
X133527Y83316D01*
X133529Y83751D01*
X133519Y83801D01*
X133519Y83852D01*
X133510Y83898D01*
X133491Y83943D01*
X133491Y83947D01*
X133489Y83949D01*
X133472Y83990D01*
X133456Y84029D01*
X133455Y84032D01*
X133454Y84035D01*
X133435Y84081D01*
X133409Y84120D01*
X133373Y84156D01*
X133345Y84198D01*
X133239Y84305D01*
X133197Y84333D01*
X133161Y84369D01*
X133122Y84395D01*
X133077Y84414D01*
X133074Y84416D01*
X133071Y84416D01*
X133030Y84433D01*
X132991Y84449D01*
X132988Y84451D01*
X132985Y84452D01*
X132939Y84471D01*
X132894Y84480D01*
X132843Y84480D01*
X132793Y84490D01*
X123050D01*
X123001Y84480D01*
X122951Y84480D01*
X122909Y84472D01*
X122909Y84472D01*
X122909D01*
X122862Y84453D01*
X122855Y84451D01*
X122849Y84447D01*
X122725Y84396D01*
X122725Y84396D01*
X122725Y84396D01*
X122655Y84325D01*
X122584Y84255D01*
X122584Y84255D01*
X122584Y84255D01*
X122533Y84131D01*
X122529Y84125D01*
X122528Y84118D01*
X122508Y84071D01*
Y84071D01*
X122508Y84071D01*
X122500Y84029D01*
X122500Y83979D01*
X122490Y83930D01*
X122490Y75149D01*
X122529Y74954D01*
X122640Y74789D01*
X122869Y74560D01*
X123034Y74449D01*
X123229Y74410D01*
X127490D01*
Y67522D01*
X127460Y67499D01*
X127240Y67429D01*
X126511Y68158D01*
X126415Y68222D01*
X126302Y68245D01*
X126302Y68245D01*
X124718D01*
X124696Y68298D01*
X124548Y68446D01*
X124355Y68526D01*
X124145D01*
X123952Y68446D01*
X123804Y68298D01*
X123724Y68105D01*
Y67895D01*
X123804Y67702D01*
X123952Y67554D01*
X124145Y67474D01*
X124355D01*
X124548Y67554D01*
X124646Y67652D01*
X126179D01*
X126789Y67041D01*
Y66376D01*
X126439D01*
Y64624D01*
X126893D01*
Y62342D01*
X126892Y62341D01*
X126744Y62193D01*
X126664Y62000D01*
Y61791D01*
X126744Y61597D01*
X126892Y61449D01*
X127085Y61369D01*
X127295D01*
X127490Y61180D01*
Y39647D01*
X120422Y32578D01*
X113353Y25510D01*
X102490D01*
Y26770D01*
X100851D01*
Y25510D01*
X100090D01*
X99927Y25760D01*
X99950Y25842D01*
Y26058D01*
X99894Y26266D01*
X99786Y26453D01*
X99633Y26606D01*
X99446Y26714D01*
X99238Y26770D01*
X99022D01*
X98814Y26714D01*
X98627Y26606D01*
X98474Y26453D01*
X98366Y26266D01*
X98311Y26058D01*
Y25842D01*
X98333Y25760D01*
X98170Y25510D01*
X97550D01*
X97387Y25760D01*
X97410Y25842D01*
Y26058D01*
X97354Y26266D01*
X97246Y26453D01*
X97093Y26606D01*
X96906Y26714D01*
X96698Y26770D01*
X96482D01*
X96274Y26714D01*
X96087Y26606D01*
X95934Y26453D01*
X95826Y26266D01*
X95771Y26058D01*
Y25842D01*
X95793Y25760D01*
X95630Y25510D01*
X95434D01*
X95396Y25502D01*
X95396Y25502D01*
X95390Y25501D01*
X95384Y25502D01*
X95374Y25502D01*
X95354Y25497D01*
X95313Y25495D01*
X95285Y25488D01*
X95255Y25474D01*
X95201Y25464D01*
X95192Y25457D01*
X95181Y25455D01*
X95137Y25422D01*
X95106Y25410D01*
X95082Y25393D01*
X95053Y25365D01*
X95035Y25353D01*
X95029Y25346D01*
X95025Y25341D01*
X95020Y25337D01*
X95020Y25337D01*
X94989Y25314D01*
X94805Y25113D01*
X91457D01*
Y27290D01*
X94091Y29925D01*
X94092Y29924D01*
X94301D01*
X94495Y30004D01*
X94643Y30152D01*
X94723Y30345D01*
Y30555D01*
X94643Y30748D01*
X94495Y30896D01*
X94301Y30976D01*
X94092D01*
X93899Y30896D01*
X93751Y30748D01*
X93671Y30555D01*
Y30345D01*
X93671Y30344D01*
X90950Y27623D01*
X90886Y27527D01*
X90863Y27413D01*
X90863Y27413D01*
Y25113D01*
X79754D01*
X79734Y25170D01*
X79727Y25182D01*
X79724Y25195D01*
X79714Y25210D01*
X79709Y25228D01*
X79667Y25282D01*
X79632Y25341D01*
X79621Y25349D01*
X79613Y25360D01*
X79598Y25371D01*
X79587Y25385D01*
X79527Y25419D01*
X79472Y25460D01*
X79459Y25463D01*
X79448Y25471D01*
X79430Y25475D01*
X79414Y25484D01*
X79414Y25484D01*
X79346Y25492D01*
X79280Y25509D01*
X79266Y25507D01*
X79253Y25510D01*
X54390D01*
X54358Y25529D01*
X54207Y25760D01*
X54229Y25842D01*
Y26058D01*
X54174Y26266D01*
X54066Y26453D01*
X53913Y26606D01*
X53726Y26714D01*
X53518Y26770D01*
X53454D01*
X53273Y27007D01*
X53302Y27090D01*
X85857D01*
X86574Y26373D01*
Y26283D01*
X86654Y26090D01*
X86802Y25942D01*
X86995Y25862D01*
X87205D01*
X87398Y25942D01*
X87546Y26090D01*
X87626Y26283D01*
Y26493D01*
X87546Y26686D01*
X87398Y26834D01*
X87205Y26914D01*
X86995D01*
X86908Y26878D01*
X86190Y27596D01*
X86093Y27660D01*
X85980Y27683D01*
X85980Y27683D01*
X53059D01*
Y34641D01*
X64981D01*
X64981Y34641D01*
X65094Y34664D01*
X65190Y34728D01*
X73358Y42896D01*
X73596Y42859D01*
X73692Y42679D01*
Y42626D01*
X73772Y42433D01*
X73920Y42285D01*
X73922Y42285D01*
Y40882D01*
X73922Y40882D01*
X73944Y40768D01*
X74009Y40672D01*
X74640Y40040D01*
X74736Y39976D01*
X74850Y39953D01*
X74850Y39953D01*
X79500D01*
X79500Y39953D01*
X79614Y39976D01*
X79710Y40040D01*
X80210Y40540D01*
X80274Y40636D01*
X80297Y40750D01*
X80297Y40750D01*
Y42750D01*
X80274Y42864D01*
X80210Y42960D01*
X80210Y42960D01*
X79748Y43421D01*
X79749Y43422D01*
Y43632D01*
X79669Y43825D01*
X79521Y43973D01*
X79328Y44053D01*
X79118D01*
X79085Y44039D01*
X74536Y48588D01*
X74536Y48589D01*
Y48799D01*
X74456Y48992D01*
X74308Y49140D01*
X74115Y49220D01*
X73905D01*
X73712Y49140D01*
X73564Y48992D01*
X73484Y48799D01*
Y48589D01*
X73564Y48396D01*
X73712Y48248D01*
X73905Y48168D01*
X74115D01*
X74116Y48169D01*
X76611Y45673D01*
X76470Y45461D01*
X76404Y45488D01*
X76195D01*
X76001Y45408D01*
X75853Y45260D01*
X75853Y45259D01*
X75586D01*
X67873Y52972D01*
X67969Y53203D01*
X70570D01*
X70620Y52953D01*
X70602Y52946D01*
X70454Y52798D01*
X70374Y52605D01*
Y52395D01*
X70454Y52202D01*
X70602Y52054D01*
X70795Y51974D01*
X71005D01*
X71198Y52054D01*
X71346Y52202D01*
X71346Y52203D01*
X88030D01*
X88134Y51953D01*
X86706Y50525D01*
X86705Y50526D01*
X86495D01*
X86302Y50446D01*
X86154Y50298D01*
X86074Y50105D01*
Y49895D01*
X86154Y49702D01*
X86302Y49554D01*
X86495Y49474D01*
X86705D01*
X86898Y49554D01*
X87046Y49702D01*
X87126Y49895D01*
Y50105D01*
X87125Y50106D01*
X88623Y51603D01*
X98905D01*
X98976Y51353D01*
X98941Y51330D01*
X98941Y51330D01*
X86158Y38547D01*
X75850D01*
X75736Y38524D01*
X75640Y38460D01*
X75640Y38460D01*
X74206Y37025D01*
X74205Y37026D01*
X73995D01*
X73802Y36946D01*
X73654Y36798D01*
X73574Y36605D01*
Y36395D01*
X73654Y36202D01*
X73802Y36054D01*
X73995Y35974D01*
X74205D01*
X74398Y36054D01*
X74546Y36202D01*
X74626Y36395D01*
Y36605D01*
X74625Y36606D01*
X75353Y37333D01*
X75565Y37191D01*
X75529Y37105D01*
Y36895D01*
X75609Y36702D01*
X75757Y36554D01*
X75950Y36474D01*
X76159D01*
X76353Y36554D01*
X76501Y36702D01*
X76501Y36703D01*
X85207D01*
X85302Y36472D01*
X84627Y35797D01*
X75446D01*
X75446Y35798D01*
X75298Y35946D01*
X75105Y36026D01*
X74895D01*
X74702Y35946D01*
X74554Y35798D01*
X74474Y35605D01*
Y35395D01*
X74554Y35202D01*
X74702Y35054D01*
X74895Y34974D01*
X75105D01*
X75298Y35054D01*
X75446Y35202D01*
X75446Y35203D01*
X84750D01*
X84750Y35203D01*
X84863Y35226D01*
X84960Y35290D01*
X96573Y46903D01*
X110165D01*
X110268Y46653D01*
X110239Y46624D01*
X110114Y46407D01*
X110049Y46165D01*
Y45915D01*
X110114Y45673D01*
X110239Y45456D01*
X110416Y45279D01*
X110633Y45154D01*
X110875Y45089D01*
X111125D01*
X111367Y45154D01*
X111584Y45279D01*
X111761Y45456D01*
X111886Y45673D01*
X111951Y45915D01*
Y46165D01*
X111886Y46407D01*
X111761Y46624D01*
X111732Y46653D01*
X111835Y46903D01*
X115829D01*
X115829Y46902D01*
X115977Y46754D01*
X116170Y46674D01*
X116380D01*
X116573Y46754D01*
X116721Y46902D01*
X116801Y47095D01*
Y47305D01*
X116721Y47498D01*
X116573Y47646D01*
X116380Y47726D01*
X116170D01*
X115977Y47646D01*
X115829Y47498D01*
X115829Y47497D01*
X111526D01*
X111459Y47747D01*
X111584Y47819D01*
X111761Y47996D01*
X111886Y48213D01*
X111951Y48455D01*
Y48705D01*
X111886Y48947D01*
X111761Y49164D01*
X111584Y49341D01*
X111367Y49466D01*
X111125Y49531D01*
X110875D01*
X110633Y49466D01*
X110416Y49341D01*
X110239Y49164D01*
X110114Y48947D01*
X110049Y48705D01*
Y48455D01*
X110114Y48213D01*
X110239Y47996D01*
X110416Y47819D01*
X110541Y47747D01*
X110474Y47497D01*
X96883D01*
X96787Y47728D01*
X98009Y48949D01*
X103554D01*
X103554Y48948D01*
X103702Y48800D01*
X103895Y48720D01*
X104105D01*
X104298Y48800D01*
X104446Y48948D01*
X104526Y49141D01*
Y49351D01*
X104446Y49544D01*
X104298Y49692D01*
X104105Y49772D01*
X103895D01*
X103702Y49692D01*
X103554Y49544D01*
X103554Y49543D01*
X98320D01*
X98224Y49774D01*
X99274Y50823D01*
X104370D01*
X104370Y50822D01*
X104518Y50674D01*
X104712Y50594D01*
X104921D01*
X105114Y50674D01*
X105262Y50822D01*
X105342Y51015D01*
Y51225D01*
X105289Y51353D01*
X105376Y51543D01*
X105431Y51603D01*
X109740D01*
X110059Y51284D01*
X110049Y51245D01*
Y50995D01*
X110114Y50753D01*
X110239Y50536D01*
X110416Y50359D01*
X110633Y50234D01*
X110875Y50169D01*
X111125D01*
X111367Y50234D01*
X111584Y50359D01*
X111761Y50536D01*
X111886Y50753D01*
X111951Y50995D01*
Y51245D01*
X111886Y51487D01*
X111761Y51704D01*
X111584Y51881D01*
X111367Y52006D01*
X111125Y52071D01*
X110875D01*
X110633Y52006D01*
X110416Y51881D01*
X110359Y51824D01*
X110186Y51996D01*
X110180Y52015D01*
X110209Y52286D01*
X110222Y52302D01*
X111960Y54040D01*
X111960Y54040D01*
X112024Y54136D01*
X112047Y54250D01*
X112047Y54250D01*
Y58624D01*
X112476D01*
X112476Y60353D01*
X112554Y60571D01*
X112554Y60594D01*
Y61373D01*
X111800D01*
X111046D01*
Y60617D01*
X111024Y60376D01*
X111024Y60330D01*
Y58624D01*
X111453D01*
Y54373D01*
X109877Y52797D01*
X79830D01*
X79780Y53047D01*
X79798Y53054D01*
X79946Y53202D01*
X80026Y53395D01*
Y53605D01*
X79946Y53798D01*
X79798Y53946D01*
X79605Y54026D01*
X79395D01*
X79202Y53946D01*
X79054Y53798D01*
X79054Y53797D01*
X67729D01*
X61355Y60171D01*
X61259Y60235D01*
X61210Y60244D01*
X59095Y62360D01*
X58999Y62424D01*
X58885Y62447D01*
X58885Y62447D01*
X42371D01*
X38597Y66221D01*
Y75303D01*
X38598Y75303D01*
X38746Y75451D01*
X38826Y75644D01*
Y75854D01*
X38746Y76047D01*
X38598Y76195D01*
X38405Y76275D01*
X38195D01*
X38002Y76195D01*
X37854Y76047D01*
X37774Y75854D01*
Y75644D01*
X37854Y75451D01*
X38002Y75303D01*
X38003Y75303D01*
Y66098D01*
X38003Y66098D01*
X38026Y65984D01*
X38090Y65888D01*
X41766Y62212D01*
X41670Y61981D01*
X31410D01*
X29486Y63906D01*
Y64054D01*
X29406Y64247D01*
X29258Y64395D01*
X29064Y64475D01*
X28855D01*
X28662Y64395D01*
X28514Y64247D01*
X28434Y64054D01*
Y63845D01*
X28514Y63651D01*
X28553Y63612D01*
X28634Y63448D01*
X28553Y63285D01*
X28514Y63245D01*
X28434Y63052D01*
Y62843D01*
X28514Y62650D01*
X28553Y62610D01*
X28634Y62447D01*
X28553Y62283D01*
X28514Y62244D01*
X28434Y62050D01*
Y61841D01*
X28514Y61648D01*
X28546Y61615D01*
X28636Y61452D01*
X28546Y61289D01*
X28514Y61256D01*
X28434Y61063D01*
Y60854D01*
X28514Y60661D01*
X28551Y60623D01*
X28635Y60460D01*
X28551Y60296D01*
X28514Y60259D01*
X28434Y60065D01*
Y59856D01*
X28514Y59663D01*
X28662Y59515D01*
X28855Y59435D01*
X29064D01*
X29258Y59515D01*
X29406Y59663D01*
X29406Y59664D01*
X57904D01*
X70801Y46767D01*
X70728Y46486D01*
X70655Y46456D01*
X70507Y46308D01*
X70427Y46115D01*
Y45951D01*
X61773Y37297D01*
X54346D01*
X54346Y37298D01*
X54198Y37446D01*
X54005Y37526D01*
X53795D01*
X53602Y37446D01*
X53454Y37298D01*
X53374Y37105D01*
Y36895D01*
X53454Y36702D01*
X53602Y36554D01*
X53795Y36474D01*
X54005D01*
X54198Y36554D01*
X54346Y36702D01*
X54346Y36703D01*
X61896D01*
X61896Y36703D01*
X62009Y36726D01*
X62105Y36790D01*
X70814Y45498D01*
X70849Y45484D01*
X71058D01*
X71251Y45564D01*
X71399Y45712D01*
X71429Y45785D01*
X71710Y45858D01*
X72138Y45430D01*
X72048Y45180D01*
X71855Y45100D01*
X71707Y44952D01*
X71627Y44759D01*
Y44578D01*
X63145Y36097D01*
X53059D01*
Y40303D01*
X62435D01*
X62435Y40303D01*
X62549Y40326D01*
X62645Y40390D01*
X65817Y43562D01*
X65817Y43562D01*
X65881Y43658D01*
X65904Y43772D01*
X65904Y43772D01*
Y44467D01*
X65905Y44467D01*
X66053Y44615D01*
X66133Y44809D01*
Y45018D01*
X66053Y45211D01*
X65905Y45359D01*
X65711Y45439D01*
X65502D01*
X65309Y45359D01*
X65161Y45211D01*
X65081Y45018D01*
Y44809D01*
X65161Y44615D01*
X65309Y44467D01*
X65310Y44467D01*
Y43895D01*
X62312Y40897D01*
X53059D01*
Y41962D01*
X35709D01*
X35613Y42193D01*
X38894Y45475D01*
X38895Y45474D01*
X39105D01*
X39298Y45554D01*
X39446Y45702D01*
X39526Y45895D01*
Y46105D01*
X39446Y46298D01*
X39298Y46446D01*
X39105Y46526D01*
X38895D01*
X38702Y46446D01*
X38554Y46298D01*
X38474Y46105D01*
Y45895D01*
X38475Y45894D01*
X34543Y41962D01*
X33939D01*
X33779Y42146D01*
X33779Y42212D01*
Y42873D01*
X32800D01*
X31821D01*
Y42212D01*
X31821Y42146D01*
X31661Y41962D01*
X7000D01*
X6951Y42212D01*
X6979Y42224D01*
X7136Y42344D01*
X7256Y42501D01*
X7332Y42684D01*
X7357Y42880D01*
Y44080D01*
X7332Y44276D01*
X7256Y44459D01*
X7136Y44616D01*
X6979Y44736D01*
X6796Y44812D01*
X6600Y44837D01*
X5400D01*
X5204Y44812D01*
X5021Y44736D01*
X4864Y44616D01*
X4744Y44459D01*
X4668Y44276D01*
X4643Y44080D01*
Y42880D01*
X4668Y42684D01*
X4744Y42501D01*
X4864Y42344D01*
X5021Y42224D01*
X5049Y42212D01*
X5000Y41962D01*
X255D01*
X255Y85000D01*
X255Y85311D01*
X336Y85928D01*
X497Y86529D01*
X735Y87103D01*
X1046Y87642D01*
X1425Y88135D01*
X1865Y88575D01*
X2358Y88954D01*
X2897Y89265D01*
X3471Y89503D01*
X4072Y89664D01*
X4689Y89745D01*
X5000Y89745D01*
X145311D01*
X145928Y89664D01*
D02*
G37*
G36*
X132743Y83980D02*
X132793D01*
X132795Y83979D01*
X132834Y83962D01*
X132835Y83962D01*
X132835Y83962D01*
X132875Y83945D01*
X132878Y83945D01*
X132913Y83910D01*
X132913Y83909D01*
X132949Y83874D01*
X132949Y83873D01*
X132984Y83838D01*
X132984Y83836D01*
X133000Y83797D01*
X133001Y83796D01*
X133001Y83796D01*
X133017Y83755D01*
X133019Y83753D01*
X133019Y83704D01*
X133019Y83703D01*
X133018Y83580D01*
X133016Y82893D01*
X132911Y82737D01*
X132861Y82488D01*
Y81512D01*
X132911Y81263D01*
X133008Y81118D01*
X133004Y79946D01*
X132989Y76162D01*
X132914Y57590D01*
D01*
X132907Y55700D01*
Y55700D01*
X132904Y55042D01*
X132904Y55042D01*
X132897Y53168D01*
Y53168D01*
X132895Y52824D01*
X132865Y45319D01*
X132865Y45212D01*
D01*
X132858Y43373D01*
Y43373D01*
X132856Y42917D01*
X132848Y40839D01*
X132848Y40839D01*
X132828Y35878D01*
D01*
Y35878D01*
Y35878D01*
X132826Y35875D01*
X132810Y35836D01*
X132809Y35835D01*
X132809Y35834D01*
X132793Y35795D01*
X132792Y35792D01*
X132792Y35792D01*
X132756Y35756D01*
D01*
X123977Y26977D01*
X115198Y18198D01*
X115198Y18198D01*
X115163Y18163D01*
X115160Y18162D01*
X115079Y18129D01*
X115077Y18127D01*
D01*
X115027D01*
X77899D01*
Y18232D01*
X77819Y18425D01*
X77671Y18573D01*
X77477Y18653D01*
X77268D01*
X77075Y18573D01*
X76927Y18425D01*
X76847Y18232D01*
Y18127D01*
X58713D01*
X58689Y18216D01*
X58551Y18455D01*
X58355Y18651D01*
X58116Y18789D01*
X57848Y18861D01*
X57572D01*
X57304Y18789D01*
X57065Y18651D01*
X56869Y18455D01*
X56731Y18216D01*
X56707Y18127D01*
X50886D01*
X50883Y18138D01*
X50771Y18333D01*
X50613Y18491D01*
X50418Y18603D01*
X50202Y18661D01*
X49978D01*
X49762Y18603D01*
X49567Y18491D01*
X49409Y18333D01*
X49297Y18138D01*
X49294Y18127D01*
X43600D01*
X34150Y11137D01*
X34150Y11137D01*
X34140Y11130D01*
X34129Y11125D01*
X34102Y11105D01*
X34099Y11103D01*
X34095Y11102D01*
X34062D01*
X34050Y11100D01*
X24800D01*
X24800D01*
X24794Y11104D01*
X24766Y11116D01*
X24754Y11144D01*
X24750Y11150D01*
Y11150D01*
Y18127D01*
Y24721D01*
X24759Y24767D01*
X24786Y24806D01*
X24944Y24965D01*
X24983Y24991D01*
X25029Y25000D01*
X25038D01*
X25212D01*
X47370Y25000D01*
X47370D01*
X52681D01*
X54390D01*
X54390D01*
X69157D01*
X79213D01*
X79221Y24998D01*
X79251Y24997D01*
X79263Y24973D01*
X79273Y24943D01*
X79280Y24932D01*
X79283Y24918D01*
X79331Y24847D01*
X79337Y24837D01*
Y22450D01*
X79384Y22334D01*
X79500Y22287D01*
X95000D01*
X95116Y22334D01*
X95163Y22450D01*
Y24752D01*
X95166Y24753D01*
X95172Y24762D01*
X95181Y24769D01*
X95365Y24970D01*
X95365Y24970D01*
X95389Y24986D01*
X95394Y24991D01*
X95396Y24992D01*
X95399Y24993D01*
X95406Y24993D01*
X95417Y24996D01*
X95434Y25000D01*
X95434Y25000D01*
X95630D01*
X95630D01*
X95739D01*
X97550D01*
X97550D01*
X98170D01*
X98170D01*
X99101D01*
X100090D01*
X100090D01*
X100851D01*
X100851D01*
X102490D01*
X102490D01*
X113353D01*
D01*
X113564D01*
X113857Y25293D01*
X120782Y32218D01*
X127851Y39287D01*
D01*
X128000Y39436D01*
Y74920D01*
X123279D01*
X123233Y74929D01*
X123194Y74956D01*
X123035Y75114D01*
X123009Y75153D01*
X123000Y75199D01*
X123000Y82352D01*
Y83930D01*
X123000Y83930D01*
X123004Y83936D01*
X123016Y83964D01*
X123044Y83976D01*
X123050Y83980D01*
X123050D01*
X132743D01*
X132743Y83980D01*
D02*
G37*
%LPC*%
G36*
X145262Y89163D02*
X144738D01*
X144727Y89159D01*
X144716Y89162D01*
X144197Y89094D01*
X144187Y89088D01*
X144176Y89089D01*
X143669Y88954D01*
X143660Y88947D01*
X143649D01*
X143165Y88746D01*
X143157Y88738D01*
X143145Y88737D01*
X142691Y88475D01*
X142684Y88466D01*
X142673Y88463D01*
X142257Y88143D01*
X142252Y88134D01*
X142241Y88129D01*
X141871Y87759D01*
X141866Y87748D01*
X141857Y87743D01*
X141537Y87327D01*
X141534Y87316D01*
X141525Y87309D01*
X141263Y86855D01*
X141262Y86843D01*
X141254Y86836D01*
X141053Y86351D01*
Y86340D01*
X141046Y86331D01*
X140911Y85824D01*
X140912Y85813D01*
X140906Y85803D01*
X140838Y85284D01*
X140841Y85273D01*
X140837Y85262D01*
Y84738D01*
X140841Y84727D01*
X140838Y84716D01*
X140906Y84197D01*
X140912Y84187D01*
X140911Y84176D01*
X141046Y83669D01*
X141053Y83660D01*
Y83649D01*
X141254Y83164D01*
X141262Y83157D01*
X141263Y83145D01*
X141525Y82691D01*
X141534Y82684D01*
X141537Y82673D01*
X141857Y82257D01*
X141866Y82252D01*
X141871Y82241D01*
X142241Y81871D01*
X142252Y81866D01*
X142257Y81857D01*
X142673Y81537D01*
X142684Y81534D01*
X142691Y81525D01*
X143145Y81263D01*
X143157Y81262D01*
X143165Y81254D01*
X143649Y81053D01*
X143660D01*
X143669Y81046D01*
X144176Y80911D01*
X144187Y80912D01*
X144197Y80906D01*
X144716Y80838D01*
X144727Y80841D01*
X144738Y80837D01*
X145262D01*
X145273Y80841D01*
X145284Y80838D01*
X145803Y80906D01*
X145813Y80912D01*
X145824Y80911D01*
X146331Y81046D01*
X146340Y81053D01*
X146351D01*
X146835Y81254D01*
X146843Y81262D01*
X146855Y81263D01*
X147309Y81525D01*
X147316Y81534D01*
X147327Y81537D01*
X147743Y81857D01*
X147748Y81866D01*
X147759Y81871D01*
X148129Y82241D01*
X148134Y82252D01*
X148143Y82257D01*
X148463Y82673D01*
X148466Y82684D01*
X148475Y82691D01*
X148737Y83145D01*
X148738Y83157D01*
X148746Y83164D01*
X148947Y83649D01*
Y83660D01*
X148954Y83669D01*
X149089Y84176D01*
X149088Y84187D01*
X149094Y84197D01*
X149162Y84716D01*
X149159Y84727D01*
X149163Y84738D01*
Y85262D01*
X149159Y85273D01*
X149162Y85284D01*
X149094Y85803D01*
X149088Y85813D01*
X149089Y85824D01*
X148954Y86331D01*
X148947Y86340D01*
Y86351D01*
X148746Y86836D01*
X148738Y86843D01*
X148737Y86855D01*
X148475Y87309D01*
X148466Y87316D01*
X148463Y87327D01*
X148143Y87743D01*
X148134Y87748D01*
X148129Y87759D01*
X147759Y88129D01*
X147748Y88134D01*
X147743Y88143D01*
X147327Y88463D01*
X147316Y88466D01*
X147309Y88475D01*
X146855Y88737D01*
X146843Y88738D01*
X146835Y88746D01*
X146351Y88947D01*
X146340D01*
X146331Y88954D01*
X145824Y89089D01*
X145813Y89088D01*
X145803Y89094D01*
X145284Y89162D01*
X145273Y89159D01*
X145262Y89163D01*
D02*
G37*
G36*
X5262D02*
X4738D01*
X4727Y89159D01*
X4716Y89162D01*
X4197Y89094D01*
X4187Y89088D01*
X4176Y89089D01*
X3669Y88954D01*
X3660Y88947D01*
X3649D01*
X3164Y88746D01*
X3157Y88738D01*
X3145Y88737D01*
X2691Y88475D01*
X2684Y88466D01*
X2673Y88463D01*
X2257Y88143D01*
X2252Y88134D01*
X2241Y88129D01*
X1871Y87759D01*
X1866Y87748D01*
X1857Y87743D01*
X1537Y87327D01*
X1534Y87316D01*
X1525Y87309D01*
X1263Y86855D01*
X1262Y86843D01*
X1254Y86836D01*
X1053Y86351D01*
Y86340D01*
X1046Y86331D01*
X911Y85824D01*
X912Y85813D01*
X906Y85803D01*
X838Y85284D01*
X841Y85273D01*
X837Y85262D01*
Y84738D01*
X841Y84727D01*
X838Y84716D01*
X906Y84197D01*
X912Y84187D01*
X911Y84176D01*
X1046Y83669D01*
X1053Y83660D01*
Y83649D01*
X1254Y83164D01*
X1262Y83157D01*
X1263Y83145D01*
X1525Y82691D01*
X1534Y82684D01*
X1537Y82673D01*
X1857Y82257D01*
X1866Y82252D01*
X1871Y82241D01*
X2241Y81871D01*
X2252Y81866D01*
X2257Y81857D01*
X2673Y81537D01*
X2684Y81534D01*
X2691Y81525D01*
X3145Y81263D01*
X3157Y81262D01*
X3164Y81254D01*
X3649Y81053D01*
X3660D01*
X3669Y81046D01*
X4176Y80911D01*
X4187Y80912D01*
X4197Y80906D01*
X4716Y80838D01*
X4727Y80841D01*
X4738Y80837D01*
X5262D01*
X5273Y80841D01*
X5284Y80838D01*
X5803Y80906D01*
X5813Y80912D01*
X5824Y80911D01*
X6331Y81046D01*
X6340Y81053D01*
X6351D01*
X6835Y81254D01*
X6843Y81262D01*
X6855Y81263D01*
X7309Y81525D01*
X7316Y81534D01*
X7327Y81537D01*
X7743Y81857D01*
X7748Y81866D01*
X7759Y81871D01*
X8129Y82241D01*
X8134Y82252D01*
X8143Y82257D01*
X8463Y82673D01*
X8466Y82684D01*
X8475Y82691D01*
X8737Y83145D01*
X8738Y83157D01*
X8746Y83164D01*
X8947Y83649D01*
Y83660D01*
X8954Y83669D01*
X9089Y84176D01*
X9088Y84187D01*
X9094Y84197D01*
X9162Y84716D01*
X9159Y84727D01*
X9163Y84738D01*
Y85262D01*
X9159Y85273D01*
X9162Y85284D01*
X9094Y85803D01*
X9088Y85813D01*
X9089Y85824D01*
X8954Y86331D01*
X8947Y86340D01*
Y86351D01*
X8746Y86836D01*
X8738Y86843D01*
X8737Y86855D01*
X8475Y87309D01*
X8466Y87316D01*
X8463Y87327D01*
X8143Y87743D01*
X8134Y87748D01*
X8129Y87759D01*
X7759Y88129D01*
X7748Y88134D01*
X7743Y88143D01*
X7327Y88463D01*
X7316Y88466D01*
X7309Y88475D01*
X6855Y88737D01*
X6843Y88738D01*
X6835Y88746D01*
X6351Y88947D01*
X6340D01*
X6331Y88954D01*
X5824Y89089D01*
X5813Y89088D01*
X5803Y89094D01*
X5284Y89162D01*
X5273Y89159D01*
X5262Y89163D01*
D02*
G37*
G36*
X104138Y81051D02*
X103862D01*
X103594Y80979D01*
X103355Y80841D01*
X103170Y80657D01*
X99959D01*
Y80678D01*
X98301D01*
Y79330D01*
X98198D01*
Y78675D01*
X99130D01*
X100062D01*
Y79330D01*
X100306Y79343D01*
X103170D01*
X103355Y79159D01*
X103594Y79021D01*
X103862Y78949D01*
X104138D01*
X104406Y79021D01*
X104645Y79159D01*
X104841Y79355D01*
X104979Y79594D01*
X105051Y79862D01*
Y80138D01*
X104979Y80406D01*
X104841Y80645D01*
X104645Y80841D01*
X104406Y80979D01*
X104138Y81051D01*
D02*
G37*
G36*
X77375Y81211D02*
X76625D01*
X76420Y81170D01*
X76246Y81054D01*
X76130Y80880D01*
X76089Y80675D01*
Y79925D01*
X76130Y79720D01*
X76246Y79546D01*
X76420Y79430D01*
X76625Y79389D01*
X77375D01*
X77580Y79430D01*
X77754Y79546D01*
X77870Y79720D01*
X77911Y79925D01*
Y80675D01*
X77870Y80880D01*
X77754Y81054D01*
X77580Y81170D01*
X77375Y81211D01*
D02*
G37*
G36*
X77250Y78780D02*
Y78010D01*
X78020D01*
X77978Y78165D01*
X77840Y78405D01*
X77645Y78600D01*
X77405Y78738D01*
X77250Y78780D01*
D02*
G37*
G36*
X76750Y78780D02*
X76595Y78738D01*
X76355Y78600D01*
X76160Y78405D01*
X76022Y78165D01*
X75980Y78010D01*
X76750D01*
Y78780D01*
D02*
G37*
G36*
X100062Y78421D02*
X99257D01*
Y77767D01*
X100062D01*
Y78421D01*
D02*
G37*
G36*
X99003D02*
X98198D01*
Y77767D01*
X99003D01*
Y78421D01*
D02*
G37*
G36*
X104250Y78635D02*
Y77710D01*
X105175D01*
X105118Y77923D01*
X104960Y78197D01*
X104737Y78420D01*
X104463Y78578D01*
X104250Y78635D01*
D02*
G37*
G36*
X103750Y78635D02*
X103537Y78578D01*
X103263Y78420D01*
X103040Y78197D01*
X102882Y77923D01*
X102825Y77710D01*
X103750D01*
Y78635D01*
D02*
G37*
G36*
X78020Y77510D02*
X77250D01*
Y76740D01*
X77405Y76782D01*
X77645Y76920D01*
X77840Y77115D01*
X77978Y77355D01*
X78020Y77510D01*
D02*
G37*
G36*
X76750D02*
X75980D01*
X76022Y77355D01*
X76160Y77115D01*
X76355Y76920D01*
X76595Y76782D01*
X76750Y76740D01*
Y77510D01*
D02*
G37*
G36*
X150651Y78401D02*
X147349D01*
Y76599D01*
X150651D01*
Y78401D01*
D02*
G37*
G36*
X105175Y77210D02*
X104250D01*
Y76285D01*
X104463Y76342D01*
X104737Y76500D01*
X104960Y76723D01*
X105118Y76997D01*
X105175Y77210D01*
D02*
G37*
G36*
X103750D02*
X102825D01*
X102882Y76997D01*
X103040Y76723D01*
X103263Y76500D01*
X103537Y76342D01*
X103750Y76285D01*
Y77210D01*
D02*
G37*
G36*
X6600Y78457D02*
X5400D01*
X5204Y78432D01*
X5021Y78356D01*
X4864Y78236D01*
X4744Y78079D01*
X4668Y77896D01*
X4643Y77700D01*
Y76500D01*
X4668Y76304D01*
X4744Y76121D01*
X4864Y75964D01*
X5021Y75844D01*
X5204Y75768D01*
X5400Y75743D01*
X6600D01*
X6796Y75768D01*
X6979Y75844D01*
X7136Y75964D01*
X7256Y76121D01*
X7332Y76304D01*
X7357Y76500D01*
Y77700D01*
X7332Y77896D01*
X7256Y78079D01*
X7136Y78236D01*
X6979Y78356D01*
X6796Y78432D01*
X6600Y78457D01*
D02*
G37*
G36*
X77119Y76121D02*
X76881D01*
X76652Y76060D01*
X76447Y75941D01*
X76279Y75773D01*
X76160Y75568D01*
X76099Y75339D01*
Y75101D01*
X76160Y74872D01*
X76279Y74667D01*
X76447Y74499D01*
X76652Y74380D01*
X76881Y74319D01*
X77119D01*
X77348Y74380D01*
X77553Y74499D01*
X77721Y74667D01*
X77840Y74872D01*
X77901Y75101D01*
Y75339D01*
X77840Y75568D01*
X77721Y75773D01*
X77553Y75941D01*
X77348Y76060D01*
X77119Y76121D01*
D02*
G37*
G36*
X105051Y75971D02*
X102949D01*
Y73869D01*
X105051D01*
Y75971D01*
D02*
G37*
G36*
X149050Y74700D02*
X148250D01*
Y73250D01*
X149050D01*
Y74700D01*
D02*
G37*
G36*
X147750D02*
X146950D01*
Y73250D01*
X147750D01*
Y74700D01*
D02*
G37*
G36*
X151132Y74001D02*
X150868D01*
X150614Y73933D01*
X150385Y73801D01*
X150199Y73615D01*
X150067Y73386D01*
X149999Y73132D01*
Y72868D01*
X150067Y72614D01*
X150199Y72385D01*
X150385Y72199D01*
X150614Y72067D01*
X150868Y71999D01*
X151132D01*
X151386Y72067D01*
X151615Y72199D01*
X151801Y72385D01*
X151933Y72614D01*
X152001Y72868D01*
Y73132D01*
X151933Y73386D01*
X151801Y73615D01*
X151615Y73801D01*
X151386Y73933D01*
X151132Y74001D01*
D02*
G37*
G36*
X149050Y72750D02*
X148250D01*
Y71300D01*
X149050D01*
Y72750D01*
D02*
G37*
G36*
X147750D02*
X146950D01*
Y71300D01*
X147750D01*
Y72750D01*
D02*
G37*
G36*
X142901Y74901D02*
X141099D01*
Y71099D01*
X142901D01*
Y74901D01*
D02*
G37*
G36*
X6178Y73371D02*
X5822D01*
X5479Y73279D01*
X5170Y73101D01*
X4919Y72850D01*
X4741Y72541D01*
X4649Y72198D01*
Y71842D01*
X4741Y71499D01*
X4919Y71190D01*
X5170Y70939D01*
X5479Y70761D01*
X5822Y70669D01*
X6178D01*
X6521Y70761D01*
X6830Y70939D01*
X7081Y71190D01*
X7259Y71499D01*
X7351Y71842D01*
Y72198D01*
X7259Y72541D01*
X7081Y72850D01*
X6830Y73101D01*
X6521Y73279D01*
X6178Y73371D01*
D02*
G37*
G36*
X150651Y69401D02*
X147349D01*
Y67599D01*
X150651D01*
Y69401D01*
D02*
G37*
G36*
X96715Y68951D02*
X96465D01*
X96223Y68886D01*
X96006Y68761D01*
X95829Y68584D01*
X95704Y68367D01*
X95639Y68125D01*
Y67875D01*
X95704Y67633D01*
X95829Y67416D01*
X96006Y67239D01*
X96223Y67114D01*
X96465Y67049D01*
X96715D01*
X96957Y67114D01*
X97174Y67239D01*
X97351Y67416D01*
X97476Y67633D01*
X97541Y67875D01*
Y68125D01*
X97476Y68367D01*
X97351Y68584D01*
X97174Y68761D01*
X96957Y68886D01*
X96715Y68951D01*
D02*
G37*
G36*
X94175D02*
X93925D01*
X93683Y68886D01*
X93466Y68761D01*
X93289Y68584D01*
X93164Y68367D01*
X93099Y68125D01*
Y67875D01*
X93164Y67633D01*
X93289Y67416D01*
X93466Y67239D01*
X93683Y67114D01*
X93925Y67049D01*
X94175D01*
X94417Y67114D01*
X94634Y67239D01*
X94811Y67416D01*
X94936Y67633D01*
X95001Y67875D01*
Y68125D01*
X94936Y68367D01*
X94811Y68584D01*
X94634Y68761D01*
X94417Y68886D01*
X94175Y68951D01*
D02*
G37*
G36*
X91635D02*
X91385D01*
X91143Y68886D01*
X90926Y68761D01*
X90749Y68584D01*
X90624Y68367D01*
X90559Y68125D01*
Y67875D01*
X90624Y67633D01*
X90749Y67416D01*
X90926Y67239D01*
X91143Y67114D01*
X91385Y67049D01*
X91635D01*
X91877Y67114D01*
X92094Y67239D01*
X92271Y67416D01*
X92396Y67633D01*
X92461Y67875D01*
Y68125D01*
X92396Y68367D01*
X92271Y68584D01*
X92094Y68761D01*
X91877Y68886D01*
X91635Y68951D01*
D02*
G37*
G36*
X57205D02*
X56955D01*
X56713Y68886D01*
X56496Y68761D01*
X56319Y68584D01*
X56194Y68367D01*
X56129Y68125D01*
Y67875D01*
X56194Y67633D01*
X56319Y67416D01*
X56496Y67239D01*
X56713Y67114D01*
X56955Y67049D01*
X57205D01*
X57447Y67114D01*
X57664Y67239D01*
X57841Y67416D01*
X57966Y67633D01*
X58031Y67875D01*
Y68125D01*
X57966Y68367D01*
X57841Y68584D01*
X57664Y68761D01*
X57447Y68886D01*
X57205Y68951D01*
D02*
G37*
G36*
X54665D02*
X54415D01*
X54173Y68886D01*
X53956Y68761D01*
X53779Y68584D01*
X53654Y68367D01*
X53589Y68125D01*
Y67875D01*
X53654Y67633D01*
X53779Y67416D01*
X53956Y67239D01*
X54173Y67114D01*
X54415Y67049D01*
X54665D01*
X54907Y67114D01*
X55124Y67239D01*
X55301Y67416D01*
X55426Y67633D01*
X55491Y67875D01*
Y68125D01*
X55426Y68367D01*
X55301Y68584D01*
X55124Y68761D01*
X54907Y68886D01*
X54665Y68951D01*
D02*
G37*
G36*
X52125D02*
X51875D01*
X51633Y68886D01*
X51416Y68761D01*
X51239Y68584D01*
X51114Y68367D01*
X51049Y68125D01*
Y67875D01*
X51114Y67633D01*
X51239Y67416D01*
X51416Y67239D01*
X51633Y67114D01*
X51875Y67049D01*
X52125D01*
X52367Y67114D01*
X52584Y67239D01*
X52761Y67416D01*
X52886Y67633D01*
X52951Y67875D01*
Y68125D01*
X52886Y68367D01*
X52761Y68584D01*
X52584Y68761D01*
X52367Y68886D01*
X52125Y68951D01*
D02*
G37*
G36*
X99530Y68962D02*
X98730D01*
X98515Y68919D01*
X98333Y68797D01*
X98211Y68615D01*
X98168Y68400D01*
Y67600D01*
X98211Y67385D01*
X98333Y67203D01*
X98515Y67081D01*
X98730Y67038D01*
X99530D01*
X99745Y67081D01*
X99927Y67203D01*
X100049Y67385D01*
X100092Y67600D01*
Y68400D01*
X100049Y68615D01*
X99927Y68797D01*
X99745Y68919D01*
X99530Y68962D01*
D02*
G37*
G36*
X60020D02*
X59220D01*
X59005Y68919D01*
X58823Y68797D01*
X58701Y68615D01*
X58658Y68400D01*
Y67600D01*
X58701Y67385D01*
X58823Y67203D01*
X59005Y67081D01*
X59220Y67038D01*
X60020D01*
X60235Y67081D01*
X60417Y67203D01*
X60539Y67385D01*
X60582Y67600D01*
Y68400D01*
X60539Y68615D01*
X60417Y68797D01*
X60235Y68919D01*
X60020Y68962D01*
D02*
G37*
G36*
X110604Y67004D02*
X110127D01*
Y66577D01*
X110604D01*
Y67004D01*
D02*
G37*
G36*
X109873D02*
X109396D01*
Y66577D01*
X109873D01*
Y67004D01*
D02*
G37*
G36*
X110604Y66323D02*
X110127D01*
Y65896D01*
X110604D01*
Y66323D01*
D02*
G37*
G36*
X109873D02*
X109396D01*
Y65896D01*
X109873D01*
Y66323D01*
D02*
G37*
G36*
X114951Y67351D02*
X113349D01*
Y65797D01*
X112501D01*
Y65951D01*
X111499D01*
Y65049D01*
X112501D01*
Y65203D01*
X113349D01*
Y63649D01*
X113853D01*
Y59850D01*
X113853Y59850D01*
X113876Y59736D01*
X113940Y59640D01*
X114790Y58790D01*
X114790Y58790D01*
X114886Y58726D01*
X115000Y58703D01*
X115000Y58703D01*
X116324D01*
Y58374D01*
X117526D01*
Y59626D01*
X116324D01*
Y59297D01*
X115123D01*
X114447Y59973D01*
Y63649D01*
X114951D01*
Y67351D01*
D02*
G37*
G36*
X6178Y68291D02*
X5822D01*
X5479Y68199D01*
X5170Y68021D01*
X4919Y67770D01*
X4741Y67461D01*
X4649Y67118D01*
Y66762D01*
X4741Y66419D01*
X4919Y66110D01*
X5170Y65859D01*
X5479Y65681D01*
X5822Y65589D01*
X6178D01*
X6521Y65681D01*
X6830Y65859D01*
X7081Y66110D01*
X7259Y66419D01*
X7351Y66762D01*
Y67118D01*
X7259Y67461D01*
X7081Y67770D01*
X6830Y68021D01*
X6521Y68199D01*
X6178Y68291D01*
D02*
G37*
G36*
X123651Y67351D02*
X122049D01*
Y63649D01*
X122553D01*
Y59973D01*
X121877Y59297D01*
X120676D01*
Y59626D01*
X119474D01*
Y58374D01*
X120676D01*
Y58703D01*
X122000D01*
X122000Y58703D01*
X122114Y58726D01*
X122210Y58790D01*
X123060Y59640D01*
X123060Y59640D01*
X123124Y59736D01*
X123147Y59850D01*
X123147Y59850D01*
Y63649D01*
X123651D01*
Y65203D01*
X124439D01*
Y64624D01*
X125941D01*
Y66376D01*
X124439D01*
Y65797D01*
X123651D01*
Y67351D01*
D02*
G37*
G36*
X63820Y64986D02*
Y64300D01*
X64506D01*
X64473Y64424D01*
X64345Y64645D01*
X64165Y64825D01*
X63944Y64952D01*
X63820Y64986D01*
D02*
G37*
G36*
X63320Y64986D02*
X63196Y64952D01*
X62975Y64825D01*
X62795Y64645D01*
X62667Y64424D01*
X62634Y64300D01*
X63320D01*
Y64986D01*
D02*
G37*
G36*
X101778Y64869D02*
X101562D01*
X101354Y64814D01*
X101167Y64706D01*
X101014Y64553D01*
X100906Y64366D01*
X100851Y64158D01*
Y63942D01*
X100906Y63734D01*
X100916Y63716D01*
X91497Y54297D01*
X85446D01*
X85446Y54298D01*
X85298Y54446D01*
X85105Y54526D01*
X84895D01*
X84702Y54446D01*
X84554Y54298D01*
X84474Y54105D01*
Y53895D01*
X84554Y53702D01*
X84702Y53554D01*
X84895Y53474D01*
X85105D01*
X85298Y53554D01*
X85446Y53702D01*
X85446Y53703D01*
X91620D01*
X91620Y53703D01*
X91734Y53726D01*
X91830Y53790D01*
X101336Y63297D01*
X101354Y63286D01*
X101562Y63230D01*
X101778D01*
X101986Y63286D01*
X102173Y63394D01*
X102326Y63547D01*
X102434Y63734D01*
X102490Y63942D01*
Y64158D01*
X102434Y64366D01*
X102326Y64553D01*
X102173Y64706D01*
X101986Y64814D01*
X101778Y64869D01*
D02*
G37*
G36*
X69105Y68526D02*
X68895D01*
X68702Y68446D01*
X68554Y68298D01*
X68474Y68105D01*
Y67895D01*
X68489Y67859D01*
X68440Y67811D01*
X68376Y67715D01*
X68353Y67601D01*
X68353Y67601D01*
Y65500D01*
Y64819D01*
X68334Y64814D01*
X68147Y64706D01*
X67994Y64553D01*
X67886Y64366D01*
X67881Y64347D01*
X66879D01*
X66874Y64366D01*
X66766Y64553D01*
X66613Y64706D01*
X66426Y64814D01*
X66218Y64869D01*
X66002D01*
X65794Y64814D01*
X65607Y64706D01*
X65454Y64553D01*
X65346Y64366D01*
X65290Y64158D01*
Y63942D01*
X65346Y63734D01*
X65454Y63547D01*
X65607Y63394D01*
X65794Y63286D01*
X66002Y63230D01*
X66218D01*
X66426Y63286D01*
X66613Y63394D01*
X66766Y63547D01*
X66874Y63734D01*
X66879Y63753D01*
X67881D01*
X67886Y63734D01*
X67994Y63547D01*
X68147Y63394D01*
X68334Y63286D01*
X68542Y63230D01*
X68758D01*
X68966Y63286D01*
X69153Y63394D01*
X69306Y63547D01*
X69414Y63734D01*
X69469Y63942D01*
Y64158D01*
X69414Y64366D01*
X69306Y64553D01*
X69153Y64706D01*
X68966Y64814D01*
X68947Y64819D01*
Y65203D01*
X70786D01*
X70819Y64953D01*
X70816Y64952D01*
X70595Y64825D01*
X70415Y64645D01*
X70287Y64424D01*
X70254Y64300D01*
X71190D01*
X72126D01*
X72092Y64424D01*
X71965Y64645D01*
X71785Y64825D01*
X71564Y64952D01*
X71561Y64953D01*
X71594Y65203D01*
X72157D01*
X72977Y64384D01*
X72966Y64366D01*
X72910Y64158D01*
Y63942D01*
X72966Y63734D01*
X73074Y63547D01*
X73227Y63394D01*
X73414Y63286D01*
X73622Y63230D01*
X73838D01*
X74046Y63286D01*
X74233Y63394D01*
X74386Y63547D01*
X74494Y63734D01*
X74499Y63753D01*
X75501D01*
X75506Y63734D01*
X75614Y63547D01*
X75767Y63394D01*
X75954Y63286D01*
X76162Y63230D01*
X76378D01*
X76586Y63286D01*
X76773Y63394D01*
X76926Y63547D01*
X77034Y63734D01*
X77039Y63753D01*
X78041D01*
X78046Y63734D01*
X78154Y63547D01*
X78307Y63394D01*
X78494Y63286D01*
X78702Y63230D01*
X78918D01*
X79126Y63286D01*
X79313Y63394D01*
X79466Y63547D01*
X79574Y63734D01*
X79579Y63753D01*
X80581D01*
X80586Y63734D01*
X80694Y63547D01*
X80847Y63394D01*
X81034Y63286D01*
X81242Y63230D01*
X81458D01*
X81666Y63286D01*
X81853Y63394D01*
X82006Y63547D01*
X82114Y63734D01*
X82119Y63753D01*
X83121D01*
X83126Y63734D01*
X83234Y63547D01*
X83387Y63394D01*
X83574Y63286D01*
X83782Y63230D01*
X83998D01*
X84206Y63286D01*
X84393Y63394D01*
X84546Y63547D01*
X84654Y63734D01*
X84710Y63942D01*
Y64158D01*
X84654Y64366D01*
X84546Y64553D01*
X84393Y64706D01*
X84206Y64814D01*
X84187Y64819D01*
Y66767D01*
X84791Y67371D01*
X85003Y67230D01*
X84945Y67089D01*
Y66879D01*
X85025Y66686D01*
X85173Y66538D01*
X85174Y66538D01*
Y58593D01*
X82546Y55965D01*
X76827D01*
X76827Y55966D01*
X76679Y56114D01*
X76486Y56194D01*
X76276D01*
X76083Y56114D01*
X75935Y55966D01*
X75855Y55773D01*
Y55564D01*
X75935Y55370D01*
X76083Y55223D01*
X76276Y55142D01*
X76486D01*
X76679Y55223D01*
X76827Y55370D01*
X76827Y55372D01*
X82668D01*
X82668Y55372D01*
X82782Y55394D01*
X82878Y55459D01*
X85680Y58261D01*
X85745Y58357D01*
X85767Y58471D01*
X85767Y58471D01*
Y63210D01*
X85786Y63232D01*
X86017Y63342D01*
X86114Y63286D01*
X86322Y63230D01*
X86538D01*
X86746Y63286D01*
X86933Y63394D01*
X87086Y63547D01*
X87194Y63734D01*
X87249Y63942D01*
Y64158D01*
X87194Y64366D01*
X87086Y64553D01*
X86933Y64706D01*
X86746Y64814D01*
X86538Y64869D01*
X86322D01*
X86114Y64814D01*
X86017Y64758D01*
X85786Y64868D01*
X85767Y64890D01*
Y66538D01*
X85768Y66538D01*
X85916Y66686D01*
X85996Y66879D01*
Y67089D01*
X85916Y67282D01*
X85768Y67430D01*
X85712Y67453D01*
X85762Y67703D01*
X86827D01*
X89240Y65290D01*
X89240Y65290D01*
X89336Y65226D01*
X89450Y65203D01*
X89450Y65203D01*
X92477D01*
X93297Y64384D01*
X93286Y64366D01*
X93230Y64158D01*
Y63942D01*
X93286Y63734D01*
X93394Y63547D01*
X93547Y63394D01*
X93734Y63286D01*
X93942Y63230D01*
X94158D01*
X94366Y63286D01*
X94553Y63394D01*
X94706Y63547D01*
X94814Y63734D01*
X94819Y63753D01*
X95821D01*
X95826Y63734D01*
X95934Y63547D01*
X96087Y63394D01*
X96274Y63286D01*
X96482Y63230D01*
X96698D01*
X96906Y63286D01*
X97093Y63394D01*
X97246Y63547D01*
X97354Y63734D01*
X97359Y63753D01*
X98361D01*
X98366Y63734D01*
X98474Y63547D01*
X98627Y63394D01*
X98814Y63286D01*
X99022Y63230D01*
X99238D01*
X99446Y63286D01*
X99633Y63394D01*
X99786Y63547D01*
X99894Y63734D01*
X99950Y63942D01*
Y64158D01*
X99894Y64366D01*
X99786Y64553D01*
X99633Y64706D01*
X99446Y64814D01*
X99238Y64869D01*
X99022D01*
X98814Y64814D01*
X98627Y64706D01*
X98474Y64553D01*
X98366Y64366D01*
X98361Y64347D01*
X97359D01*
X97354Y64366D01*
X97246Y64553D01*
X97093Y64706D01*
X96906Y64814D01*
X96698Y64869D01*
X96482D01*
X96274Y64814D01*
X96087Y64706D01*
X95934Y64553D01*
X95826Y64366D01*
X95821Y64347D01*
X94819D01*
X94814Y64366D01*
X94706Y64553D01*
X94553Y64706D01*
X94366Y64814D01*
X94158Y64869D01*
X93942D01*
X93734Y64814D01*
X93716Y64803D01*
X92810Y65710D01*
X92714Y65774D01*
X92600Y65797D01*
X92600Y65797D01*
X89573D01*
X87160Y68210D01*
X87064Y68274D01*
X86950Y68297D01*
X86950Y68297D01*
X85000D01*
X85000Y68297D01*
X84886Y68274D01*
X84790Y68210D01*
X84790Y68210D01*
X83680Y67100D01*
X83616Y67004D01*
X83593Y66890D01*
X83593Y66890D01*
Y64819D01*
X83574Y64814D01*
X83387Y64706D01*
X83234Y64553D01*
X83126Y64366D01*
X83121Y64347D01*
X82119D01*
X82114Y64366D01*
X82006Y64553D01*
X81853Y64706D01*
X81666Y64814D01*
X81458Y64869D01*
X81242D01*
X81034Y64814D01*
X80847Y64706D01*
X80694Y64553D01*
X80586Y64366D01*
X80581Y64347D01*
X79579D01*
X79574Y64366D01*
X79466Y64553D01*
X79313Y64706D01*
X79126Y64814D01*
X78918Y64869D01*
X78702D01*
X78494Y64814D01*
X78307Y64706D01*
X78154Y64553D01*
X78046Y64366D01*
X78041Y64347D01*
X77039D01*
X77034Y64366D01*
X76926Y64553D01*
X76773Y64706D01*
X76586Y64814D01*
X76378Y64869D01*
X76162D01*
X75954Y64814D01*
X75767Y64706D01*
X75614Y64553D01*
X75506Y64366D01*
X75501Y64347D01*
X74499D01*
X74494Y64366D01*
X74386Y64553D01*
X74233Y64706D01*
X74046Y64814D01*
X73838Y64869D01*
X73622D01*
X73414Y64814D01*
X73396Y64803D01*
X72490Y65710D01*
X72394Y65774D01*
X72280Y65797D01*
X72280Y65797D01*
X68947D01*
Y67474D01*
X69105D01*
X69298Y67554D01*
X69446Y67702D01*
X69526Y67895D01*
Y68105D01*
X69446Y68298D01*
X69298Y68446D01*
X69105Y68526D01*
D02*
G37*
G36*
X91618Y64869D02*
X91402D01*
X91194Y64814D01*
X91007Y64706D01*
X90854Y64553D01*
X90746Y64366D01*
X90690Y64158D01*
Y63942D01*
X90746Y63734D01*
X90854Y63547D01*
X91007Y63394D01*
X91194Y63286D01*
X91402Y63230D01*
X91618D01*
X91826Y63286D01*
X92013Y63394D01*
X92166Y63547D01*
X92274Y63734D01*
X92329Y63942D01*
Y64158D01*
X92274Y64366D01*
X92166Y64553D01*
X92013Y64706D01*
X91826Y64814D01*
X91618Y64869D01*
D02*
G37*
G36*
X89078D02*
X88862D01*
X88654Y64814D01*
X88467Y64706D01*
X88314Y64553D01*
X88206Y64366D01*
X88150Y64158D01*
Y63942D01*
X88206Y63734D01*
X88314Y63547D01*
X88467Y63394D01*
X88654Y63286D01*
X88862Y63230D01*
X89078D01*
X89286Y63286D01*
X89473Y63394D01*
X89626Y63547D01*
X89734Y63734D01*
X89789Y63942D01*
Y64158D01*
X89734Y64366D01*
X89626Y64553D01*
X89473Y64706D01*
X89286Y64814D01*
X89078Y64869D01*
D02*
G37*
G36*
X61138D02*
X60922D01*
X60714Y64814D01*
X60527Y64706D01*
X60374Y64553D01*
X60266Y64366D01*
X60210Y64158D01*
Y63942D01*
X60266Y63734D01*
X60374Y63547D01*
X60527Y63394D01*
X60714Y63286D01*
X60922Y63230D01*
X61138D01*
X61346Y63286D01*
X61533Y63394D01*
X61686Y63547D01*
X61794Y63734D01*
X61849Y63942D01*
Y64158D01*
X61794Y64366D01*
X61686Y64553D01*
X61533Y64706D01*
X61346Y64814D01*
X61138Y64869D01*
D02*
G37*
G36*
X58598D02*
X58382D01*
X58174Y64814D01*
X57987Y64706D01*
X57834Y64553D01*
X57726Y64366D01*
X57671Y64158D01*
Y63942D01*
X57726Y63734D01*
X57834Y63547D01*
X57987Y63394D01*
X58174Y63286D01*
X58382Y63230D01*
X58598D01*
X58806Y63286D01*
X58993Y63394D01*
X59146Y63547D01*
X59254Y63734D01*
X59310Y63942D01*
Y64158D01*
X59254Y64366D01*
X59146Y64553D01*
X58993Y64706D01*
X58806Y64814D01*
X58598Y64869D01*
D02*
G37*
G36*
X56058D02*
X55842D01*
X55634Y64814D01*
X55447Y64706D01*
X55294Y64553D01*
X55186Y64366D01*
X55131Y64158D01*
Y63942D01*
X55186Y63734D01*
X55294Y63547D01*
X55447Y63394D01*
X55634Y63286D01*
X55842Y63230D01*
X56058D01*
X56266Y63286D01*
X56453Y63394D01*
X56606Y63547D01*
X56714Y63734D01*
X56770Y63942D01*
Y64158D01*
X56714Y64366D01*
X56606Y64553D01*
X56453Y64706D01*
X56266Y64814D01*
X56058Y64869D01*
D02*
G37*
G36*
X53518D02*
X53302D01*
X53094Y64814D01*
X52907Y64706D01*
X52754Y64553D01*
X52646Y64366D01*
X52590Y64158D01*
Y63942D01*
X52646Y63734D01*
X52754Y63547D01*
X52907Y63394D01*
X53094Y63286D01*
X53302Y63230D01*
X53518D01*
X53726Y63286D01*
X53913Y63394D01*
X54066Y63547D01*
X54174Y63734D01*
X54229Y63942D01*
Y64158D01*
X54174Y64366D01*
X54066Y64553D01*
X53913Y64706D01*
X53726Y64814D01*
X53518Y64869D01*
D02*
G37*
G36*
X50978D02*
X50762D01*
X50554Y64814D01*
X50367Y64706D01*
X50214Y64553D01*
X50106Y64366D01*
X50050Y64158D01*
Y63942D01*
X50106Y63734D01*
X50214Y63547D01*
X50367Y63394D01*
X50554Y63286D01*
X50762Y63230D01*
X50978D01*
X51186Y63286D01*
X51373Y63394D01*
X51526Y63547D01*
X51634Y63734D01*
X51689Y63942D01*
Y64158D01*
X51634Y64366D01*
X51526Y64553D01*
X51373Y64706D01*
X51186Y64814D01*
X50978Y64869D01*
D02*
G37*
G36*
X48438D02*
X48222D01*
X48014Y64814D01*
X47827Y64706D01*
X47674Y64553D01*
X47566Y64366D01*
X47511Y64158D01*
Y63942D01*
X47566Y63734D01*
X47674Y63547D01*
X47827Y63394D01*
X48014Y63286D01*
X48222Y63230D01*
X48438D01*
X48646Y63286D01*
X48833Y63394D01*
X48986Y63547D01*
X49094Y63734D01*
X49150Y63942D01*
Y64158D01*
X49094Y64366D01*
X48986Y64553D01*
X48833Y64706D01*
X48646Y64814D01*
X48438Y64869D01*
D02*
G37*
G36*
X70940Y63800D02*
X70254D01*
X70287Y63676D01*
X70415Y63455D01*
X70595Y63275D01*
X70816Y63147D01*
X70940Y63114D01*
Y63800D01*
D02*
G37*
G36*
X63320D02*
X62634D01*
X62667Y63676D01*
X62795Y63455D01*
X62975Y63275D01*
X63196Y63147D01*
X63320Y63114D01*
Y63800D01*
D02*
G37*
G36*
X72126D02*
X71440D01*
Y63114D01*
X71564Y63147D01*
X71785Y63275D01*
X71965Y63455D01*
X72092Y63676D01*
X72126Y63800D01*
D02*
G37*
G36*
X64506D02*
X63820D01*
Y63114D01*
X63944Y63147D01*
X64165Y63275D01*
X64345Y63455D01*
X64473Y63676D01*
X64506Y63800D01*
D02*
G37*
G36*
X112554Y62429D02*
X111927D01*
Y61627D01*
X112554D01*
Y62429D01*
D02*
G37*
G36*
X111673D02*
X111046D01*
Y61627D01*
X111673D01*
Y62429D01*
D02*
G37*
G36*
X6178Y63211D02*
X5822D01*
X5479Y63119D01*
X5170Y62941D01*
X4919Y62690D01*
X4741Y62381D01*
X4649Y62038D01*
Y61682D01*
X4741Y61339D01*
X4919Y61030D01*
X5170Y60779D01*
X5479Y60601D01*
X5822Y60509D01*
X6178D01*
X6521Y60601D01*
X6830Y60779D01*
X7081Y61030D01*
X7259Y61339D01*
X7351Y61682D01*
Y62038D01*
X7259Y62381D01*
X7081Y62690D01*
X6830Y62941D01*
X6521Y63119D01*
X6178Y63211D01*
D02*
G37*
G36*
X110501Y65001D02*
X109499D01*
Y64099D01*
X109703D01*
Y62326D01*
X109349D01*
Y60674D01*
X109703D01*
Y60376D01*
X109274D01*
Y58624D01*
X110726D01*
Y60376D01*
X110297D01*
Y60674D01*
X110651D01*
Y62326D01*
X110297D01*
Y64099D01*
X110501D01*
Y65001D01*
D02*
G37*
G36*
X126966Y57416D02*
X125414D01*
Y55864D01*
X126966D01*
Y57416D01*
D02*
G37*
G36*
X6178Y58131D02*
X5822D01*
X5479Y58039D01*
X5170Y57861D01*
X4919Y57610D01*
X4741Y57301D01*
X4649Y56958D01*
Y56602D01*
X4741Y56259D01*
X4919Y55950D01*
X5170Y55699D01*
X5479Y55521D01*
X5822Y55429D01*
X6178D01*
X6521Y55521D01*
X6830Y55699D01*
X7081Y55950D01*
X7259Y56259D01*
X7351Y56602D01*
Y56958D01*
X7259Y57301D01*
X7081Y57610D01*
X6830Y57861D01*
X6521Y58039D01*
X6178Y58131D01*
D02*
G37*
G36*
X126292Y54876D02*
X126088D01*
X125890Y54823D01*
X125714Y54721D01*
X125569Y54576D01*
X125467Y54400D01*
X125414Y54202D01*
Y53998D01*
X125467Y53800D01*
X125569Y53624D01*
X125714Y53479D01*
X125890Y53377D01*
X126088Y53324D01*
X126292D01*
X126490Y53377D01*
X126666Y53479D01*
X126811Y53624D01*
X126913Y53800D01*
X126966Y53998D01*
Y54202D01*
X126913Y54400D01*
X126811Y54576D01*
X126666Y54721D01*
X126490Y54823D01*
X126292Y54876D01*
D02*
G37*
G36*
Y52336D02*
X126088D01*
X125890Y52283D01*
X125714Y52181D01*
X125569Y52036D01*
X125467Y51860D01*
X125414Y51662D01*
Y51458D01*
X125467Y51260D01*
X125569Y51084D01*
X125714Y50939D01*
X125890Y50837D01*
X126088Y50784D01*
X126292D01*
X126490Y50837D01*
X126666Y50939D01*
X126811Y51084D01*
X126913Y51260D01*
X126966Y51458D01*
Y51662D01*
X126913Y51860D01*
X126811Y52036D01*
X126666Y52181D01*
X126490Y52283D01*
X126292Y52336D01*
D02*
G37*
G36*
X6178Y53051D02*
X5822D01*
X5479Y52959D01*
X5170Y52781D01*
X4919Y52530D01*
X4741Y52221D01*
X4649Y51878D01*
Y51522D01*
X4741Y51179D01*
X4919Y50870D01*
X5170Y50619D01*
X5479Y50441D01*
X5822Y50349D01*
X6178D01*
X6521Y50441D01*
X6830Y50619D01*
X7081Y50870D01*
X7259Y51179D01*
X7351Y51522D01*
Y51878D01*
X7259Y52221D01*
X7081Y52530D01*
X6830Y52781D01*
X6521Y52959D01*
X6178Y53051D01*
D02*
G37*
G36*
X148132Y52001D02*
X147868D01*
X147614Y51933D01*
X147385Y51801D01*
X147199Y51615D01*
X147067Y51386D01*
X146999Y51132D01*
Y50868D01*
X147067Y50614D01*
X147199Y50385D01*
X147385Y50199D01*
X147614Y50067D01*
X147868Y49999D01*
X148132D01*
X148386Y50067D01*
X148615Y50199D01*
X148801Y50385D01*
X148933Y50614D01*
X149001Y50868D01*
Y51132D01*
X148933Y51386D01*
X148801Y51615D01*
X148615Y51801D01*
X148386Y51933D01*
X148132Y52001D01*
D02*
G37*
G36*
X141132D02*
X140868D01*
X140614Y51933D01*
X140385Y51801D01*
X140199Y51615D01*
X140067Y51386D01*
X139999Y51132D01*
Y50868D01*
X140067Y50614D01*
X140199Y50385D01*
X140385Y50199D01*
X140614Y50067D01*
X140868Y49999D01*
X141132D01*
X141386Y50067D01*
X141615Y50199D01*
X141801Y50385D01*
X141933Y50614D01*
X142001Y50868D01*
Y51132D01*
X141933Y51386D01*
X141801Y51615D01*
X141615Y51801D01*
X141386Y51933D01*
X141132Y52001D01*
D02*
G37*
G36*
X35000Y75663D02*
X14500D01*
X14384Y75616D01*
X14337Y75500D01*
Y49100D01*
X14384Y48984D01*
X14500Y48937D01*
X18332D01*
X18384Y48884D01*
X18500Y48837D01*
X18616Y48884D01*
X18663Y49000D01*
Y73137D01*
X35000D01*
X35116Y73184D01*
X35163Y73300D01*
Y75500D01*
X35116Y75616D01*
X35000Y75663D01*
D02*
G37*
G36*
X61805Y50626D02*
X61595D01*
X61402Y50546D01*
X61254Y50398D01*
X61174Y50205D01*
Y49995D01*
X61254Y49802D01*
X61402Y49654D01*
X61595Y49574D01*
X61805D01*
X61998Y49654D01*
X62146Y49802D01*
X62146Y49803D01*
X62777D01*
X63273Y49307D01*
Y48805D01*
X63026Y48799D01*
X63012Y48832D01*
X62946Y48992D01*
X62798Y49140D01*
X62605Y49220D01*
X62395D01*
X62202Y49140D01*
X62054Y48992D01*
X62054Y48991D01*
X60442D01*
X60329Y48968D01*
X60233Y48904D01*
X60233Y48904D01*
X59854Y48525D01*
X59853Y48526D01*
X59644D01*
X59450Y48446D01*
X59303Y48298D01*
X59222Y48105D01*
Y47895D01*
X59303Y47702D01*
X59450Y47554D01*
X59644Y47474D01*
X59853D01*
X60046Y47554D01*
X60194Y47702D01*
X60274Y47895D01*
Y48105D01*
X60274Y48106D01*
X60565Y48397D01*
X62054D01*
X62054Y48396D01*
X62202Y48248D01*
X62395Y48168D01*
X62605D01*
X62798Y48248D01*
X62946Y48396D01*
X63012Y48556D01*
X63026Y48589D01*
X63273Y48583D01*
Y48175D01*
X60990Y45892D01*
X60926Y45796D01*
X60903Y45682D01*
X60903Y45682D01*
Y44588D01*
X60902Y44587D01*
X60754Y44439D01*
X60674Y44246D01*
Y44037D01*
X60754Y43844D01*
X60902Y43696D01*
X61095Y43616D01*
X61305D01*
X61498Y43696D01*
X61646Y43844D01*
X61726Y44037D01*
Y44246D01*
X61646Y44439D01*
X61498Y44587D01*
X61497Y44588D01*
Y45559D01*
X63780Y47842D01*
X63780Y47842D01*
X63844Y47938D01*
X63867Y48052D01*
X63867Y48052D01*
Y49430D01*
X63844Y49544D01*
X63780Y49640D01*
X63780Y49640D01*
X63110Y50310D01*
X63014Y50374D01*
X62900Y50397D01*
X62900Y50397D01*
X62146D01*
X62146Y50398D01*
X61998Y50546D01*
X61805Y50626D01*
D02*
G37*
G36*
X126966Y47616D02*
X125414D01*
Y46064D01*
X126966D01*
Y47616D01*
D02*
G37*
G36*
X126292Y45076D02*
X126088D01*
X125890Y45023D01*
X125714Y44921D01*
X125569Y44776D01*
X125467Y44600D01*
X125414Y44402D01*
Y44198D01*
X125467Y44000D01*
X125569Y43824D01*
X125714Y43679D01*
X125890Y43577D01*
X126088Y43524D01*
X126292D01*
X126490Y43577D01*
X126666Y43679D01*
X126811Y43824D01*
X126913Y44000D01*
X126966Y44198D01*
Y44402D01*
X126913Y44600D01*
X126811Y44776D01*
X126666Y44921D01*
X126490Y45023D01*
X126292Y45076D01*
D02*
G37*
G36*
X33779Y43854D02*
X32927D01*
Y43127D01*
X33779D01*
Y43854D01*
D02*
G37*
G36*
X32673D02*
X31821D01*
Y43127D01*
X32673D01*
Y43854D01*
D02*
G37*
G36*
X111400Y44462D02*
X110600D01*
X110385Y44419D01*
X110203Y44297D01*
X110081Y44115D01*
X110038Y43900D01*
Y43100D01*
X110081Y42885D01*
X110203Y42703D01*
X110385Y42581D01*
X110600Y42538D01*
X111400D01*
X111615Y42581D01*
X111797Y42703D01*
X111919Y42885D01*
X111962Y43100D01*
Y43900D01*
X111919Y44115D01*
X111797Y44297D01*
X111615Y44419D01*
X111400Y44462D01*
D02*
G37*
G36*
X126292Y42536D02*
X126088D01*
X125890Y42483D01*
X125714Y42381D01*
X125569Y42236D01*
X125467Y42060D01*
X125414Y41862D01*
Y41658D01*
X125467Y41460D01*
X125569Y41284D01*
X125714Y41139D01*
X125890Y41037D01*
X126088Y40984D01*
X126292D01*
X126490Y41037D01*
X126666Y41139D01*
X126811Y41284D01*
X126913Y41460D01*
X126966Y41658D01*
Y41862D01*
X126913Y42060D01*
X126811Y42236D01*
X126666Y42381D01*
X126490Y42483D01*
X126292Y42536D01*
D02*
G37*
G36*
X111125Y40951D02*
X110875D01*
X110633Y40886D01*
X110416Y40761D01*
X110239Y40584D01*
X110114Y40367D01*
X110049Y40125D01*
Y39875D01*
X110114Y39633D01*
X110239Y39416D01*
X110416Y39239D01*
X110633Y39114D01*
X110875Y39049D01*
X111125D01*
X111367Y39114D01*
X111584Y39239D01*
X111761Y39416D01*
X111886Y39633D01*
X111951Y39875D01*
Y40125D01*
X111886Y40367D01*
X111761Y40584D01*
X111584Y40761D01*
X111367Y40886D01*
X111125Y40951D01*
D02*
G37*
G36*
X37881Y37954D02*
X37029D01*
Y37227D01*
X37881D01*
Y37954D01*
D02*
G37*
G36*
X36775D02*
X35923D01*
Y37227D01*
X36775D01*
Y37954D01*
D02*
G37*
G36*
X111125Y38411D02*
X110875D01*
X110633Y38346D01*
X110416Y38221D01*
X110239Y38044D01*
X110114Y37827D01*
X110049Y37585D01*
Y37335D01*
X110114Y37093D01*
X110239Y36876D01*
X110416Y36699D01*
X110633Y36574D01*
X110875Y36509D01*
X111125D01*
X111367Y36574D01*
X111584Y36699D01*
X111761Y36876D01*
X111886Y37093D01*
X111951Y37335D01*
Y37585D01*
X111886Y37827D01*
X111761Y38044D01*
X111584Y38221D01*
X111367Y38346D01*
X111125Y38411D01*
D02*
G37*
G36*
Y35871D02*
X110875D01*
X110633Y35806D01*
X110416Y35681D01*
X110239Y35504D01*
X110114Y35287D01*
X110049Y35045D01*
Y34795D01*
X110114Y34553D01*
X110239Y34336D01*
X110416Y34159D01*
X110633Y34034D01*
X110875Y33969D01*
X111125D01*
X111367Y34034D01*
X111584Y34159D01*
X111761Y34336D01*
X111886Y34553D01*
X111951Y34795D01*
Y35045D01*
X111886Y35287D01*
X111761Y35504D01*
X111584Y35681D01*
X111367Y35806D01*
X111125Y35871D01*
D02*
G37*
G36*
X6178Y34671D02*
X5822D01*
X5479Y34579D01*
X5170Y34401D01*
X4919Y34150D01*
X4741Y33841D01*
X4649Y33498D01*
Y33142D01*
X4741Y32799D01*
X4919Y32490D01*
X5170Y32239D01*
X5479Y32061D01*
X5822Y31969D01*
X6178D01*
X6521Y32061D01*
X6830Y32239D01*
X7081Y32490D01*
X7259Y32799D01*
X7351Y33142D01*
Y33498D01*
X7259Y33841D01*
X7081Y34150D01*
X6830Y34401D01*
X6521Y34579D01*
X6178Y34671D01*
D02*
G37*
G36*
X111125Y33331D02*
X110875D01*
X110633Y33266D01*
X110416Y33141D01*
X110239Y32964D01*
X110114Y32747D01*
X110049Y32505D01*
Y32255D01*
X110114Y32013D01*
X110239Y31796D01*
X110416Y31619D01*
X110633Y31494D01*
X110875Y31429D01*
X111125D01*
X111367Y31494D01*
X111584Y31619D01*
X111761Y31796D01*
X111886Y32013D01*
X111951Y32255D01*
Y32505D01*
X111886Y32747D01*
X111761Y32964D01*
X111584Y33141D01*
X111367Y33266D01*
X111125Y33331D01*
D02*
G37*
G36*
X67105Y32526D02*
X66895D01*
X66702Y32446D01*
X66554Y32298D01*
X66474Y32105D01*
Y31895D01*
X66554Y31702D01*
X66702Y31554D01*
X66895Y31474D01*
X67105D01*
X67298Y31554D01*
X67446Y31702D01*
X67446Y31703D01*
X102694D01*
X104767Y29630D01*
X104767Y29630D01*
X104863Y29566D01*
X104976Y29543D01*
X104976Y29543D01*
X110038D01*
Y29440D01*
X110081Y29225D01*
X110203Y29043D01*
X110385Y28921D01*
X110600Y28878D01*
X111400D01*
X111615Y28921D01*
X111797Y29043D01*
X111919Y29225D01*
X111962Y29440D01*
Y30240D01*
X111919Y30455D01*
X111797Y30637D01*
X111615Y30759D01*
X111400Y30802D01*
X110600D01*
X110385Y30759D01*
X110203Y30637D01*
X110081Y30455D01*
X110038Y30240D01*
Y30137D01*
X105099D01*
X103026Y32210D01*
X102930Y32274D01*
X102816Y32297D01*
X102816Y32297D01*
X67446D01*
X67446Y32298D01*
X67298Y32446D01*
X67105Y32526D01*
D02*
G37*
G36*
X40105Y28017D02*
X39895D01*
X39702Y27937D01*
X39655Y27890D01*
X28443D01*
X28396Y27937D01*
X28203Y28017D01*
X27994D01*
X27800Y27937D01*
X27652Y27789D01*
X27572Y27596D01*
Y27386D01*
X27652Y27193D01*
X27800Y27045D01*
X27994Y26965D01*
X28203D01*
X28396Y27045D01*
X28443Y27092D01*
X39655D01*
X39702Y27045D01*
X39895Y26965D01*
X40105D01*
X40298Y27045D01*
X40446Y27193D01*
X40526Y27386D01*
Y27596D01*
X40446Y27789D01*
X40298Y27937D01*
X40105Y28017D01*
D02*
G37*
G36*
X6178Y29591D02*
X5822D01*
X5479Y29499D01*
X5170Y29321D01*
X4919Y29070D01*
X4741Y28761D01*
X4649Y28418D01*
Y28062D01*
X4741Y27719D01*
X4919Y27410D01*
X5170Y27159D01*
X5479Y26981D01*
X5822Y26889D01*
X6178D01*
X6521Y26981D01*
X6830Y27159D01*
X7081Y27410D01*
X7259Y27719D01*
X7351Y28062D01*
Y28418D01*
X7259Y28761D01*
X7081Y29070D01*
X6830Y29321D01*
X6521Y29499D01*
X6178Y29591D01*
D02*
G37*
G36*
Y24511D02*
X5822D01*
X5479Y24419D01*
X5170Y24241D01*
X4919Y23990D01*
X4741Y23681D01*
X4649Y23338D01*
Y22982D01*
X4741Y22639D01*
X4919Y22330D01*
X5170Y22079D01*
X5479Y21901D01*
X5822Y21809D01*
X6178D01*
X6521Y21901D01*
X6830Y22079D01*
X7081Y22330D01*
X7259Y22639D01*
X7351Y22982D01*
Y23338D01*
X7259Y23681D01*
X7081Y23990D01*
X6830Y24241D01*
X6521Y24419D01*
X6178Y24511D01*
D02*
G37*
G36*
Y19431D02*
X5822D01*
X5479Y19339D01*
X5170Y19161D01*
X4919Y18910D01*
X4741Y18601D01*
X4649Y18258D01*
Y17902D01*
X4741Y17559D01*
X4919Y17250D01*
X5170Y16999D01*
X5479Y16821D01*
X5822Y16729D01*
X6178D01*
X6521Y16821D01*
X6830Y16999D01*
X7081Y17250D01*
X7259Y17559D01*
X7351Y17902D01*
Y18258D01*
X7259Y18601D01*
X7081Y18910D01*
X6830Y19161D01*
X6521Y19339D01*
X6178Y19431D01*
D02*
G37*
G36*
X134947Y26330D02*
X126553D01*
X126528Y26325D01*
X126503D01*
X126117Y26248D01*
X126094Y26239D01*
X126069Y26234D01*
X125705Y26083D01*
X125684Y26069D01*
X125661Y26059D01*
X125333Y25840D01*
X125316Y25823D01*
X125295Y25809D01*
X125016Y25530D01*
X125002Y25509D01*
X124985Y25492D01*
X124766Y25164D01*
X124756Y25141D01*
X124742Y25120D01*
X124591Y24756D01*
X124586Y24731D01*
X124577Y24708D01*
X124500Y24322D01*
Y24297D01*
X124495Y24272D01*
Y24075D01*
Y18075D01*
Y17878D01*
X124500Y17853D01*
Y17828D01*
X124577Y17442D01*
X124586Y17419D01*
X124591Y17394D01*
X124742Y17030D01*
X124756Y17009D01*
X124766Y16986D01*
X124985Y16658D01*
X125002Y16641D01*
X125016Y16620D01*
X125295Y16341D01*
X125316Y16327D01*
X125333Y16310D01*
X125661Y16091D01*
X125684Y16081D01*
X125705Y16067D01*
X126069Y15916D01*
X126094Y15911D01*
X126117Y15902D01*
X126503Y15825D01*
X126528D01*
X126553Y15820D01*
X134947D01*
X134972Y15825D01*
X134997D01*
X135383Y15902D01*
X135406Y15911D01*
X135431Y15916D01*
X135795Y16067D01*
X135816Y16081D01*
X135839Y16091D01*
X136167Y16310D01*
X136184Y16327D01*
X136205Y16341D01*
X136484Y16620D01*
X136498Y16641D01*
X136515Y16658D01*
X136734Y16986D01*
X136744Y17009D01*
X136758Y17030D01*
X136909Y17394D01*
X136914Y17419D01*
X136923Y17442D01*
X137000Y17828D01*
Y17853D01*
X137005Y17878D01*
Y18075D01*
Y24075D01*
Y24272D01*
X137000Y24297D01*
Y24322D01*
X136923Y24708D01*
X136914Y24731D01*
X136909Y24756D01*
X136758Y25120D01*
X136744Y25141D01*
X136734Y25164D01*
X136515Y25492D01*
X136498Y25509D01*
X136484Y25530D01*
X136205Y25809D01*
X136184Y25823D01*
X136167Y25840D01*
X135839Y26059D01*
X135816Y26069D01*
X135795Y26083D01*
X135431Y26234D01*
X135406Y26239D01*
X135383Y26248D01*
X134997Y26325D01*
X134972D01*
X134947Y26330D01*
D02*
G37*
G36*
X54038Y15051D02*
X53762D01*
X53494Y14979D01*
X53255Y14841D01*
X53059Y14645D01*
X52921Y14406D01*
X52849Y14138D01*
Y13862D01*
X52921Y13594D01*
X53059Y13355D01*
X53255Y13159D01*
X53494Y13021D01*
X53762Y12949D01*
X54038D01*
X54306Y13021D01*
X54545Y13159D01*
X54741Y13355D01*
X54879Y13594D01*
X54951Y13862D01*
Y14138D01*
X54879Y14406D01*
X54741Y14645D01*
X54545Y14841D01*
X54306Y14979D01*
X54038Y15051D01*
D02*
G37*
G36*
X6178Y14351D02*
X5822D01*
X5479Y14259D01*
X5170Y14081D01*
X4919Y13830D01*
X4741Y13521D01*
X4649Y13178D01*
Y12822D01*
X4741Y12479D01*
X4919Y12170D01*
X5170Y11919D01*
X5479Y11741D01*
X5822Y11649D01*
X6178D01*
X6521Y11741D01*
X6830Y11919D01*
X7081Y12170D01*
X7259Y12479D01*
X7351Y12822D01*
Y13178D01*
X7259Y13521D01*
X7081Y13830D01*
X6830Y14081D01*
X6521Y14259D01*
X6178Y14351D01*
D02*
G37*
G36*
X57822Y11041D02*
X57598D01*
X57382Y10983D01*
X57187Y10871D01*
X57029Y10713D01*
X56917Y10518D01*
X56859Y10302D01*
Y10078D01*
X56917Y9862D01*
X57029Y9667D01*
X57187Y9509D01*
X57382Y9397D01*
X57598Y9339D01*
X57822D01*
X58038Y9397D01*
X58233Y9509D01*
X58391Y9667D01*
X58503Y9862D01*
X58561Y10078D01*
Y10302D01*
X58503Y10518D01*
X58391Y10713D01*
X58233Y10871D01*
X58038Y10983D01*
X57822Y11041D01*
D02*
G37*
G36*
X145262Y9163D02*
X144738D01*
X144727Y9159D01*
X144716Y9162D01*
X144197Y9094D01*
X144187Y9088D01*
X144176Y9089D01*
X143669Y8954D01*
X143660Y8947D01*
X143649D01*
X143165Y8746D01*
X143157Y8738D01*
X143145Y8737D01*
X142691Y8475D01*
X142684Y8466D01*
X142673Y8463D01*
X142257Y8143D01*
X142252Y8134D01*
X142241Y8129D01*
X141871Y7759D01*
X141866Y7748D01*
X141857Y7743D01*
X141537Y7327D01*
X141534Y7316D01*
X141525Y7309D01*
X141263Y6855D01*
X141262Y6843D01*
X141254Y6835D01*
X141053Y6351D01*
Y6340D01*
X141046Y6331D01*
X140911Y5824D01*
X140912Y5813D01*
X140906Y5803D01*
X140838Y5284D01*
X140841Y5273D01*
X140837Y5262D01*
Y4738D01*
X140841Y4727D01*
X140838Y4716D01*
X140906Y4197D01*
X140912Y4187D01*
X140911Y4176D01*
X141046Y3669D01*
X141053Y3660D01*
Y3649D01*
X141254Y3164D01*
X141262Y3157D01*
X141263Y3145D01*
X141525Y2691D01*
X141534Y2684D01*
X141537Y2673D01*
X141857Y2257D01*
X141866Y2252D01*
X141871Y2241D01*
X142241Y1871D01*
X142252Y1866D01*
X142257Y1857D01*
X142673Y1537D01*
X142684Y1534D01*
X142691Y1525D01*
X143145Y1263D01*
X143157Y1262D01*
X143165Y1254D01*
X143649Y1053D01*
X143660D01*
X143669Y1046D01*
X144176Y911D01*
X144187Y912D01*
X144197Y906D01*
X144716Y838D01*
X144727Y841D01*
X144738Y837D01*
X145262D01*
X145273Y841D01*
X145284Y838D01*
X145803Y906D01*
X145813Y912D01*
X145824Y911D01*
X146331Y1046D01*
X146340Y1053D01*
X146351D01*
X146835Y1254D01*
X146843Y1262D01*
X146855Y1263D01*
X147309Y1525D01*
X147316Y1534D01*
X147327Y1537D01*
X147743Y1857D01*
X147748Y1866D01*
X147759Y1871D01*
X148129Y2241D01*
X148134Y2252D01*
X148143Y2257D01*
X148463Y2673D01*
X148466Y2684D01*
X148475Y2691D01*
X148737Y3145D01*
X148738Y3157D01*
X148746Y3164D01*
X148947Y3649D01*
Y3660D01*
X148954Y3669D01*
X149089Y4176D01*
X149088Y4187D01*
X149094Y4197D01*
X149162Y4716D01*
X149159Y4727D01*
X149163Y4738D01*
Y5262D01*
X149159Y5273D01*
X149162Y5284D01*
X149094Y5803D01*
X149088Y5813D01*
X149089Y5824D01*
X148954Y6331D01*
X148947Y6340D01*
Y6351D01*
X148746Y6835D01*
X148738Y6843D01*
X148737Y6855D01*
X148475Y7309D01*
X148466Y7316D01*
X148463Y7327D01*
X148143Y7743D01*
X148134Y7748D01*
X148129Y7759D01*
X147759Y8129D01*
X147748Y8134D01*
X147743Y8143D01*
X147327Y8463D01*
X147316Y8466D01*
X147309Y8475D01*
X146855Y8737D01*
X146843Y8738D01*
X146835Y8746D01*
X146351Y8947D01*
X146340D01*
X146331Y8954D01*
X145824Y9089D01*
X145813Y9088D01*
X145803Y9094D01*
X145284Y9162D01*
X145273Y9159D01*
X145262Y9163D01*
D02*
G37*
G36*
X95262D02*
X94738D01*
X94727Y9159D01*
X94716Y9162D01*
X94197Y9094D01*
X94187Y9088D01*
X94176Y9089D01*
X93669Y8954D01*
X93660Y8947D01*
X93649D01*
X93164Y8746D01*
X93157Y8738D01*
X93145Y8737D01*
X92691Y8475D01*
X92684Y8466D01*
X92673Y8463D01*
X92257Y8143D01*
X92252Y8134D01*
X92241Y8129D01*
X91871Y7759D01*
X91866Y7748D01*
X91857Y7743D01*
X91537Y7327D01*
X91534Y7316D01*
X91525Y7309D01*
X91263Y6855D01*
X91262Y6843D01*
X91254Y6835D01*
X91053Y6351D01*
Y6340D01*
X91046Y6331D01*
X90911Y5824D01*
X90912Y5813D01*
X90906Y5803D01*
X90838Y5284D01*
X90841Y5273D01*
X90837Y5262D01*
Y4738D01*
X90841Y4727D01*
X90838Y4716D01*
X90906Y4197D01*
X90912Y4187D01*
X90911Y4176D01*
X91046Y3669D01*
X91053Y3660D01*
Y3649D01*
X91254Y3164D01*
X91262Y3157D01*
X91263Y3145D01*
X91525Y2691D01*
X91534Y2684D01*
X91537Y2673D01*
X91857Y2257D01*
X91866Y2252D01*
X91871Y2241D01*
X92241Y1871D01*
X92252Y1866D01*
X92257Y1857D01*
X92673Y1537D01*
X92684Y1534D01*
X92691Y1525D01*
X93145Y1263D01*
X93157Y1262D01*
X93164Y1254D01*
X93649Y1053D01*
X93660D01*
X93669Y1046D01*
X94176Y911D01*
X94187Y912D01*
X94197Y906D01*
X94716Y838D01*
X94727Y841D01*
X94738Y837D01*
X95262D01*
X95273Y841D01*
X95284Y838D01*
X95803Y906D01*
X95813Y912D01*
X95824Y911D01*
X96331Y1046D01*
X96340Y1053D01*
X96351D01*
X96836Y1254D01*
X96843Y1262D01*
X96855Y1263D01*
X97309Y1525D01*
X97316Y1534D01*
X97327Y1537D01*
X97743Y1857D01*
X97748Y1866D01*
X97759Y1871D01*
X98129Y2241D01*
X98134Y2252D01*
X98143Y2257D01*
X98463Y2673D01*
X98466Y2684D01*
X98475Y2691D01*
X98737Y3145D01*
X98738Y3157D01*
X98746Y3164D01*
X98947Y3649D01*
Y3660D01*
X98954Y3669D01*
X99089Y4176D01*
X99088Y4187D01*
X99094Y4197D01*
X99162Y4716D01*
X99159Y4727D01*
X99163Y4738D01*
Y5262D01*
X99159Y5273D01*
X99162Y5284D01*
X99094Y5803D01*
X99088Y5813D01*
X99089Y5824D01*
X98954Y6331D01*
X98947Y6340D01*
Y6351D01*
X98746Y6835D01*
X98738Y6843D01*
X98737Y6855D01*
X98475Y7309D01*
X98466Y7316D01*
X98463Y7327D01*
X98143Y7743D01*
X98134Y7748D01*
X98129Y7759D01*
X97759Y8129D01*
X97748Y8134D01*
X97743Y8143D01*
X97327Y8463D01*
X97316Y8466D01*
X97309Y8475D01*
X96855Y8737D01*
X96843Y8738D01*
X96836Y8746D01*
X96351Y8947D01*
X96340D01*
X96331Y8954D01*
X95824Y9089D01*
X95813Y9088D01*
X95803Y9094D01*
X95284Y9162D01*
X95273Y9159D01*
X95262Y9163D01*
D02*
G37*
G36*
X5262D02*
X4738D01*
X4727Y9159D01*
X4716Y9162D01*
X4197Y9094D01*
X4187Y9088D01*
X4176Y9089D01*
X3669Y8954D01*
X3660Y8947D01*
X3649D01*
X3164Y8746D01*
X3157Y8738D01*
X3145Y8737D01*
X2691Y8475D01*
X2684Y8466D01*
X2673Y8463D01*
X2257Y8143D01*
X2252Y8134D01*
X2241Y8129D01*
X1871Y7759D01*
X1866Y7748D01*
X1857Y7743D01*
X1537Y7327D01*
X1534Y7316D01*
X1525Y7309D01*
X1263Y6855D01*
X1262Y6843D01*
X1254Y6835D01*
X1053Y6351D01*
Y6340D01*
X1046Y6331D01*
X911Y5824D01*
X912Y5813D01*
X906Y5803D01*
X838Y5284D01*
X841Y5273D01*
X837Y5262D01*
Y4738D01*
X841Y4727D01*
X838Y4716D01*
X906Y4197D01*
X912Y4187D01*
X911Y4176D01*
X1046Y3669D01*
X1053Y3660D01*
Y3649D01*
X1254Y3164D01*
X1262Y3157D01*
X1263Y3145D01*
X1525Y2691D01*
X1534Y2684D01*
X1537Y2673D01*
X1857Y2257D01*
X1866Y2252D01*
X1871Y2241D01*
X2241Y1871D01*
X2252Y1866D01*
X2257Y1857D01*
X2673Y1537D01*
X2684Y1534D01*
X2691Y1525D01*
X3145Y1263D01*
X3157Y1262D01*
X3164Y1254D01*
X3649Y1053D01*
X3660D01*
X3669Y1046D01*
X4176Y911D01*
X4187Y912D01*
X4197Y906D01*
X4716Y838D01*
X4727Y841D01*
X4738Y837D01*
X5262D01*
X5273Y841D01*
X5284Y838D01*
X5803Y906D01*
X5813Y912D01*
X5824Y911D01*
X6331Y1046D01*
X6340Y1053D01*
X6351D01*
X6835Y1254D01*
X6843Y1262D01*
X6855Y1263D01*
X7309Y1525D01*
X7316Y1534D01*
X7327Y1537D01*
X7743Y1857D01*
X7748Y1866D01*
X7759Y1871D01*
X8129Y2241D01*
X8134Y2252D01*
X8143Y2257D01*
X8463Y2673D01*
X8466Y2684D01*
X8475Y2691D01*
X8737Y3145D01*
X8738Y3157D01*
X8746Y3164D01*
X8947Y3649D01*
Y3660D01*
X8954Y3669D01*
X9089Y4176D01*
X9088Y4187D01*
X9094Y4197D01*
X9162Y4716D01*
X9159Y4727D01*
X9163Y4738D01*
Y5262D01*
X9159Y5273D01*
X9162Y5284D01*
X9094Y5803D01*
X9088Y5813D01*
X9089Y5824D01*
X8954Y6331D01*
X8947Y6340D01*
Y6351D01*
X8746Y6835D01*
X8738Y6843D01*
X8737Y6855D01*
X8475Y7309D01*
X8466Y7316D01*
X8463Y7327D01*
X8143Y7743D01*
X8134Y7748D01*
X8129Y7759D01*
X7759Y8129D01*
X7748Y8134D01*
X7743Y8143D01*
X7327Y8463D01*
X7316Y8466D01*
X7309Y8475D01*
X6855Y8737D01*
X6843Y8738D01*
X6835Y8746D01*
X6351Y8947D01*
X6340D01*
X6331Y8954D01*
X5824Y9089D01*
X5813Y9088D01*
X5803Y9094D01*
X5284Y9162D01*
X5273Y9159D01*
X5262Y9163D01*
D02*
G37*
G36*
X78426Y7426D02*
X76574D01*
Y5574D01*
X78426D01*
Y7426D01*
D02*
G37*
G36*
X72622D02*
X72378D01*
X72143Y7363D01*
X71931Y7241D01*
X71759Y7069D01*
X71637Y6857D01*
X71574Y6622D01*
Y6378D01*
X71637Y6143D01*
X71759Y5931D01*
X71931Y5759D01*
X72143Y5637D01*
X72378Y5574D01*
X72622D01*
X72857Y5637D01*
X73069Y5759D01*
X73241Y5931D01*
X73363Y6143D01*
X73426Y6378D01*
Y6622D01*
X73363Y6857D01*
X73241Y7069D01*
X73069Y7241D01*
X72857Y7363D01*
X72622Y7426D01*
D02*
G37*
G36*
X76000Y8163D02*
X74000D01*
X73884Y8116D01*
X73837Y8000D01*
Y5500D01*
X73884Y5384D01*
X74000Y5337D01*
X76000D01*
X76116Y5384D01*
X76163Y5500D01*
Y8000D01*
X76116Y8116D01*
X76000Y8163D01*
D02*
G37*
%LPD*%
G36*
X35000Y73300D02*
X18500D01*
Y49000D01*
X18400Y49100D01*
X14500D01*
Y75500D01*
X35000D01*
Y73300D01*
D02*
G37*
%LPC*%
G36*
X130750Y83253D02*
Y82250D01*
X131753D01*
X131688Y82492D01*
X131520Y82783D01*
X131283Y83020D01*
X130992Y83188D01*
X130750Y83253D01*
D02*
G37*
G36*
X130250Y83253D02*
X130008Y83188D01*
X129717Y83020D01*
X129480Y82783D01*
X129312Y82492D01*
X129247Y82250D01*
X130250D01*
Y83253D01*
D02*
G37*
G36*
X131753Y81750D02*
X130750D01*
Y80747D01*
X130992Y80812D01*
X131283Y80980D01*
X131520Y81217D01*
X131688Y81508D01*
X131753Y81750D01*
D02*
G37*
G36*
X130250D02*
X129247D01*
X129312Y81508D01*
X129480Y81217D01*
X129717Y80980D01*
X130008Y80812D01*
X130250Y80747D01*
Y81750D01*
D02*
G37*
G36*
X77622Y21926D02*
X77378D01*
X77143Y21863D01*
X76931Y21741D01*
X76759Y21569D01*
X76637Y21357D01*
X76574Y21122D01*
Y20878D01*
X76637Y20643D01*
X76759Y20431D01*
X76931Y20259D01*
X77143Y20137D01*
X77378Y20074D01*
X77622D01*
X77857Y20137D01*
X78069Y20259D01*
X78241Y20431D01*
X78363Y20643D01*
X78426Y20878D01*
Y21122D01*
X78363Y21357D01*
X78241Y21569D01*
X78069Y21741D01*
X77857Y21863D01*
X77622Y21926D01*
D02*
G37*
G36*
X72622D02*
X72378D01*
X72143Y21863D01*
X71931Y21741D01*
X71759Y21569D01*
X71637Y21357D01*
X71574Y21122D01*
Y20878D01*
X71637Y20643D01*
X71759Y20431D01*
X71931Y20259D01*
X72143Y20137D01*
X72378Y20074D01*
X72622D01*
X72857Y20137D01*
X73069Y20259D01*
X73241Y20431D01*
X73363Y20643D01*
X73426Y20878D01*
Y21122D01*
X73363Y21357D01*
X73241Y21569D01*
X73069Y21741D01*
X72857Y21863D01*
X72622Y21926D01*
D02*
G37*
%LPD*%
D10*
X32800Y41000D02*
D03*
Y43000D02*
D03*
X36902Y37100D02*
D03*
Y39100D02*
D03*
D18*
X99130Y78548D02*
D03*
Y80000D02*
D03*
D21*
X110000Y59500D02*
D03*
X111750D02*
D03*
D22*
X125190Y65500D02*
D03*
X127190D02*
D03*
D23*
X112000D02*
D03*
X110000Y66450D02*
D03*
Y64550D02*
D03*
D37*
X110000Y61500D02*
D03*
X111800D02*
D03*
D49*
X72122Y44654D02*
X72153D01*
X63268Y35800D02*
X72122Y44654D01*
X61896Y37000D02*
X70906Y46010D01*
X70953D01*
X72250Y17287D02*
X76533D01*
X72245Y17282D02*
X72250Y17287D01*
X69400Y14000D02*
X80600D01*
X67000Y32000D02*
X102816D01*
X68650Y65500D02*
Y67601D01*
Y64050D02*
Y65500D01*
X72280D01*
X68650Y67601D02*
X69000Y67951D01*
Y68000D01*
X127190Y61895D02*
Y65500D01*
X76533Y17287D02*
X77373Y18127D01*
X87088Y26400D02*
X87100Y26388D01*
X86966Y26400D02*
X87088D01*
X51895Y27386D02*
X85980D01*
X86966Y26400D01*
X88620Y23700D02*
Y28380D01*
X91160Y23700D02*
Y27413D01*
X94197Y30450D01*
X102816Y32000D02*
X104976Y29840D01*
X87160D02*
X88620Y28380D01*
X74260Y29840D02*
X87160D01*
X72153D02*
X74260D01*
X21700Y27481D02*
X29157Y34938D01*
X64981D02*
X73469Y43426D01*
X28979Y35369D02*
X64142D01*
X29157Y34938D02*
X64981D01*
X20700Y27090D02*
X28979Y35369D01*
X64142D02*
X72783Y44010D01*
X62435Y40600D02*
X65607Y43772D01*
Y44913D01*
X76347Y42250D02*
X78178D01*
X58027Y59961D02*
X76622Y41366D01*
X75738Y44078D02*
X77043D01*
X58205Y60392D02*
X76347Y42250D01*
X58384Y60823D02*
X76055Y43152D01*
X58741Y61685D02*
X75463Y44962D01*
X58562Y61254D02*
X75738Y44078D01*
X76622Y41366D02*
X78795D01*
X76055Y43152D02*
X77577D01*
X75463Y44962D02*
X76299D01*
X61200Y44142D02*
Y45682D01*
X63570Y48052D01*
Y49430D01*
X61700Y50100D02*
X62900D01*
X63570Y49430D01*
X59748Y48000D02*
X60442Y48694D01*
X62500D01*
X126302Y67948D02*
X127086Y67164D01*
Y65604D02*
Y67164D01*
X124302Y67948D02*
X126302D01*
X82668Y55668D02*
X85470Y58471D01*
X76381Y55668D02*
X82668D01*
X74218Y40882D02*
Y42731D01*
Y40882D02*
X74850Y40250D01*
X84750Y35500D02*
X96450Y47200D01*
X75000Y35500D02*
X84750D01*
X76055Y37000D02*
X85640D01*
X86281Y38250D02*
X99151Y51120D01*
X75850Y38250D02*
X86281D01*
X74100Y36500D02*
X75850Y38250D01*
X85640Y37000D02*
X97886Y49246D01*
X74850Y40250D02*
X79500D01*
X80000Y40750D01*
Y42750D01*
X79223Y43527D02*
X80000Y42750D01*
X74010Y48694D02*
X79193Y43511D01*
X96450Y47200D02*
X116275D01*
X99151Y51120D02*
X104816D01*
X97886Y49246D02*
X104000D01*
X53900Y37000D02*
X61896D01*
X88500Y51900D02*
X109863D01*
X110000Y52500D02*
X111750Y54250D01*
X70900Y52500D02*
X110000D01*
X109863Y51900D02*
X110643Y51120D01*
X86600Y50000D02*
X88500Y51900D01*
X111750Y54250D02*
Y59500D01*
X91620Y54000D02*
X101670Y64050D01*
X85000Y54000D02*
X91620D01*
X72280Y65500D02*
X73730Y64050D01*
X76270D01*
X66110D02*
X68650D01*
X86950Y68000D02*
X89450Y65500D01*
X85000Y68000D02*
X86950D01*
X89450Y65500D02*
X92600D01*
X83890Y64050D02*
Y66890D01*
X85000Y68000D01*
X85470Y58471D02*
Y66984D01*
X92600Y65500D02*
X94050Y64050D01*
X96590D02*
X99130D01*
X94050D02*
X96590D01*
X81350D02*
X83890D01*
X78810D02*
X81350D01*
X76270D02*
X78810D01*
X78178Y42250D02*
X78263Y42335D01*
X77577Y43152D02*
X77626Y43201D01*
X78795Y41366D02*
X78839Y41322D01*
X20700Y18200D02*
Y27090D01*
X21700Y13120D02*
Y27481D01*
X19700Y26700D02*
X28800Y35800D01*
X63268D01*
X19700Y23280D02*
Y26700D01*
X28961Y59961D02*
X58027D01*
X30037Y60823D02*
X58384D01*
X42248Y62150D02*
X58885D01*
X31287Y61685D02*
X58741D01*
X30728Y61254D02*
X58562D01*
X29526Y60392D02*
X58205D01*
X28960Y60959D02*
X29526Y60392D01*
X38300Y66098D02*
X42248Y62150D01*
X38300Y66098D02*
Y75749D01*
X29022Y63949D02*
X31287Y61685D01*
X28997Y61862D02*
Y61946D01*
Y61862D02*
X30037Y60823D01*
X29035Y62948D02*
X30728Y61254D01*
X58885Y62150D02*
X61074Y59961D01*
X32800Y41000D02*
X34000D01*
X31400D02*
X32800D01*
X38250Y40600D02*
X62435D01*
X104976Y29840D02*
X111000D01*
X112000Y65500D02*
X114150D01*
X122850D02*
X125190D01*
X122850Y59850D02*
Y65500D01*
X122000Y59000D02*
X122850Y59850D01*
X120075Y59000D02*
X122000D01*
X115000D02*
X116925D01*
X114150Y59850D02*
X115000Y59000D01*
X114150Y59850D02*
Y65500D01*
X110643Y51120D02*
X111000D01*
X61145Y59961D02*
X67606Y53500D01*
X61074Y59961D02*
X61145D01*
X67606Y53500D02*
X79500D01*
X110000Y61500D02*
Y64550D01*
Y59500D02*
Y61500D01*
X36902Y39100D02*
Y41000D01*
X34000D02*
X39000Y46000D01*
D50*
X30000Y22000D02*
X33050D01*
X35000D01*
X38000D01*
X28349Y20349D02*
X30000Y22000D01*
X38000Y22000D02*
X39280Y23280D01*
D51*
X127086Y65604D02*
X127190Y65500D01*
X124250Y68000D02*
X124302Y67948D01*
X28098Y27491D02*
X40000D01*
X50870Y25950D02*
X53410D01*
X48330D02*
X50870D01*
D52*
X99130Y78548D02*
X102695D01*
X103784Y77460D01*
X104000D01*
X99130Y80000D02*
X104000D01*
D54*
X69400Y14000D02*
D03*
X80600D02*
D03*
D55*
X72500Y6500D02*
D03*
X75000D02*
D03*
X72500Y21000D02*
D03*
X77500D02*
D03*
D56*
Y6500D02*
D03*
D57*
X48330Y25950D02*
D03*
X53410D02*
D03*
X50870D02*
D03*
X61030Y64050D02*
D03*
X71190D02*
D03*
X68650D02*
D03*
X66110D02*
D03*
X63570D02*
D03*
X58490D02*
D03*
X55950D02*
D03*
X53410D02*
D03*
X50870D02*
D03*
X48330D02*
D03*
X99130Y25950D02*
D03*
X96590D02*
D03*
X73730Y64050D02*
D03*
X101670D02*
D03*
X88970D02*
D03*
X83890D02*
D03*
X81350D02*
D03*
X78810D02*
D03*
X76270D02*
D03*
X91510D02*
D03*
X94050D02*
D03*
X96590D02*
D03*
X86430D02*
D03*
X99130D02*
D03*
D58*
X101670Y25950D02*
D03*
D59*
X126190Y56640D02*
D03*
Y46840D02*
D03*
D60*
Y54100D02*
D03*
Y51560D02*
D03*
X133810D02*
D03*
Y54100D02*
D03*
Y56640D02*
D03*
X126190Y44300D02*
D03*
Y41760D02*
D03*
X133810D02*
D03*
Y44300D02*
D03*
Y46840D02*
D03*
D61*
X148000Y51000D02*
D03*
X141000D02*
D03*
D62*
X149000Y68500D02*
D03*
Y77500D02*
D03*
D63*
X151000Y73000D02*
D03*
D64*
X142000D02*
D03*
D65*
X148000D02*
D03*
D66*
X6000Y13000D02*
D03*
Y18080D02*
D03*
Y28240D02*
D03*
Y38400D02*
D03*
Y33320D02*
D03*
Y23160D02*
D03*
X6000Y51700D02*
D03*
Y56780D02*
D03*
Y66940D02*
D03*
Y72020D02*
D03*
Y61860D02*
D03*
D67*
X6000Y43480D02*
D03*
X6000Y77100D02*
D03*
D68*
X57080Y68000D02*
D03*
X54540D02*
D03*
X52000D02*
D03*
X96590D02*
D03*
X94050D02*
D03*
X91510D02*
D03*
X81000Y23700D02*
D03*
X83540D02*
D03*
X88620D02*
D03*
X91160D02*
D03*
X86080D02*
D03*
X111000Y34920D02*
D03*
Y32380D02*
D03*
Y37460D02*
D03*
Y40000D02*
D03*
Y51120D02*
D03*
Y48580D02*
D03*
Y46040D02*
D03*
D69*
X59620Y68000D02*
D03*
X99130D02*
D03*
X93700Y23700D02*
D03*
D70*
X77000Y80300D02*
D03*
D71*
Y77760D02*
D03*
Y75220D02*
D03*
D72*
X95000Y5000D02*
D03*
X5000Y85000D02*
D03*
X145000D02*
D03*
X5000Y5000D02*
D03*
X145000D02*
D03*
D73*
X53900Y14000D02*
D03*
X57710Y17810D02*
D03*
X104000Y77460D02*
D03*
Y80000D02*
D03*
D74*
Y74920D02*
D03*
D75*
X130500Y82000D02*
D03*
D76*
X134000D02*
D03*
D77*
X111000Y29840D02*
D03*
Y43500D02*
D03*
D78*
X138500Y88000D02*
D03*
X140250Y84500D02*
D03*
X135000Y88000D02*
D03*
X136750Y84500D02*
D03*
X131500Y88000D02*
D03*
X128000D02*
D03*
X124500D02*
D03*
Y74000D02*
D03*
X126250Y70500D02*
D03*
X124500Y67000D02*
D03*
Y53000D02*
D03*
Y46000D02*
D03*
Y39000D02*
D03*
X121000Y74000D02*
D03*
X122750Y70500D02*
D03*
X121000Y67000D02*
D03*
Y60000D02*
D03*
Y53000D02*
D03*
Y39000D02*
D03*
X122750Y35500D02*
D03*
X119250Y84500D02*
D03*
X117500Y74000D02*
D03*
X119250Y70500D02*
D03*
X117500Y67000D02*
D03*
Y53000D02*
D03*
X119250Y49500D02*
D03*
X117500Y46000D02*
D03*
X119250Y42500D02*
D03*
X117500Y39000D02*
D03*
X119250Y35500D02*
D03*
X117500Y32000D02*
D03*
X114000Y88000D02*
D03*
Y74000D02*
D03*
X115750Y70500D02*
D03*
X114000Y53000D02*
D03*
X115750Y49500D02*
D03*
X114000Y46000D02*
D03*
X115750Y42500D02*
D03*
X114000Y39000D02*
D03*
X115750Y35500D02*
D03*
X114000Y32000D02*
D03*
X115750Y28500D02*
D03*
X110500Y88000D02*
D03*
X112250Y84500D02*
D03*
Y77500D02*
D03*
Y70500D02*
D03*
Y63500D02*
D03*
Y49500D02*
D03*
Y42500D02*
D03*
Y35500D02*
D03*
Y28500D02*
D03*
X107000Y88000D02*
D03*
X108750Y84500D02*
D03*
Y70500D02*
D03*
X107000Y67000D02*
D03*
X108750Y63500D02*
D03*
X107000Y60000D02*
D03*
X108750Y49500D02*
D03*
Y42500D02*
D03*
X107000Y32000D02*
D03*
X108750Y28500D02*
D03*
X103500Y88000D02*
D03*
X105250Y84500D02*
D03*
Y70500D02*
D03*
X103500Y67000D02*
D03*
X105250Y63500D02*
D03*
X103500Y60000D02*
D03*
X105250Y56500D02*
D03*
Y49500D02*
D03*
Y42500D02*
D03*
Y35500D02*
D03*
Y28500D02*
D03*
X100000Y88000D02*
D03*
X101750Y84500D02*
D03*
Y77500D02*
D03*
X100000Y74000D02*
D03*
X101750Y70500D02*
D03*
X100000Y60000D02*
D03*
X101750Y56500D02*
D03*
Y42500D02*
D03*
Y35500D02*
D03*
Y28500D02*
D03*
X96500Y88000D02*
D03*
X98250Y84500D02*
D03*
X96500Y81000D02*
D03*
Y74000D02*
D03*
X98250Y70500D02*
D03*
X96500Y60000D02*
D03*
X98250Y56500D02*
D03*
Y42500D02*
D03*
Y35500D02*
D03*
Y28500D02*
D03*
X93000Y88000D02*
D03*
X94750Y84500D02*
D03*
X93000Y81000D02*
D03*
X94750Y77500D02*
D03*
X93000Y74000D02*
D03*
X94750Y70500D02*
D03*
X93000Y60000D02*
D03*
X94750Y49500D02*
D03*
Y42500D02*
D03*
Y35500D02*
D03*
Y28500D02*
D03*
X89500Y88000D02*
D03*
X91250Y84500D02*
D03*
X89500Y81000D02*
D03*
X91250Y77500D02*
D03*
X89500Y74000D02*
D03*
X91250Y70500D02*
D03*
X89500Y67000D02*
D03*
X91250Y49500D02*
D03*
Y35500D02*
D03*
Y28500D02*
D03*
X86000Y88000D02*
D03*
X87750Y84500D02*
D03*
X86000Y81000D02*
D03*
X87750Y77500D02*
D03*
X86000Y74000D02*
D03*
X87750Y70500D02*
D03*
Y42500D02*
D03*
Y35500D02*
D03*
Y28500D02*
D03*
X82500Y88000D02*
D03*
X84250Y84500D02*
D03*
X82500Y81000D02*
D03*
X84250Y77500D02*
D03*
X82500Y74000D02*
D03*
X84250Y70500D02*
D03*
X82500Y67000D02*
D03*
X84250Y42500D02*
D03*
Y28500D02*
D03*
X79000Y88000D02*
D03*
X80750Y84500D02*
D03*
X79000Y81000D02*
D03*
X80750Y77500D02*
D03*
X79000Y74000D02*
D03*
X80750Y70500D02*
D03*
X79000Y67000D02*
D03*
Y60000D02*
D03*
X80750Y28500D02*
D03*
X75500Y88000D02*
D03*
Y74000D02*
D03*
X77250Y70500D02*
D03*
X75500Y60000D02*
D03*
X77250Y28500D02*
D03*
X72000Y88000D02*
D03*
X73750Y84500D02*
D03*
X72000Y81000D02*
D03*
X73750Y77500D02*
D03*
X72000Y74000D02*
D03*
X73750Y70500D02*
D03*
X65000Y88000D02*
D03*
X66750Y84500D02*
D03*
X65000Y81000D02*
D03*
X66750Y77500D02*
D03*
X65000Y74000D02*
D03*
X66750Y56500D02*
D03*
X65000Y32000D02*
D03*
X61500Y88000D02*
D03*
X63250Y84500D02*
D03*
Y77500D02*
D03*
X61500Y32000D02*
D03*
X63250Y28500D02*
D03*
X58000Y88000D02*
D03*
X59750Y84500D02*
D03*
Y77500D02*
D03*
X58000Y74000D02*
D03*
X59750Y70500D02*
D03*
Y63500D02*
D03*
Y56500D02*
D03*
Y42500D02*
D03*
X58000Y39000D02*
D03*
X59750Y28500D02*
D03*
X54500Y88000D02*
D03*
Y81000D02*
D03*
X56250Y70500D02*
D03*
Y56500D02*
D03*
Y42500D02*
D03*
X51000Y88000D02*
D03*
X52750Y77500D02*
D03*
X51000Y67000D02*
D03*
X52750Y56500D02*
D03*
X47500Y88000D02*
D03*
X49250Y77500D02*
D03*
X47500Y67000D02*
D03*
X49250Y56500D02*
D03*
Y42500D02*
D03*
X44000Y88000D02*
D03*
X45750Y77500D02*
D03*
X44000Y67000D02*
D03*
X45750Y63500D02*
D03*
Y56500D02*
D03*
X40500Y88000D02*
D03*
X42250Y77500D02*
D03*
Y63500D02*
D03*
Y56500D02*
D03*
X37000Y88000D02*
D03*
X38750Y77500D02*
D03*
X33500Y88000D02*
D03*
X35250Y77500D02*
D03*
Y70500D02*
D03*
X33500Y67000D02*
D03*
X35250Y63500D02*
D03*
X30000Y88000D02*
D03*
X31750Y84500D02*
D03*
Y77500D02*
D03*
X30000Y67000D02*
D03*
X31750Y63500D02*
D03*
X30000Y53000D02*
D03*
X26500Y88000D02*
D03*
X28250Y84500D02*
D03*
Y77500D02*
D03*
Y70500D02*
D03*
X26500Y67000D02*
D03*
Y53000D02*
D03*
X23000Y88000D02*
D03*
X24750Y77500D02*
D03*
Y70500D02*
D03*
X23000Y67000D02*
D03*
X24750Y63500D02*
D03*
X23000Y60000D02*
D03*
X24750Y49500D02*
D03*
X19500Y88000D02*
D03*
X21250Y84500D02*
D03*
X19500Y81000D02*
D03*
X21250Y77500D02*
D03*
X19500Y46000D02*
D03*
X16000Y88000D02*
D03*
X17750Y84500D02*
D03*
X16000Y81000D02*
D03*
Y46000D02*
D03*
X12500Y88000D02*
D03*
X14250Y84500D02*
D03*
X12500Y81000D02*
D03*
Y74000D02*
D03*
Y60000D02*
D03*
Y53000D02*
D03*
Y46000D02*
D03*
X9000Y88000D02*
D03*
X10750Y84500D02*
D03*
X9000Y81000D02*
D03*
Y74000D02*
D03*
X10750Y70500D02*
D03*
Y63500D02*
D03*
X9000Y60000D02*
D03*
Y53000D02*
D03*
X10750Y49500D02*
D03*
X9000Y46000D02*
D03*
X5500Y74000D02*
D03*
X7250Y70500D02*
D03*
Y63500D02*
D03*
X5500Y60000D02*
D03*
X7250Y49500D02*
D03*
X5500Y46000D02*
D03*
X2000Y81000D02*
D03*
X3750Y77500D02*
D03*
X2000Y74000D02*
D03*
X3750Y70500D02*
D03*
X2000Y67000D02*
D03*
X3750Y63500D02*
D03*
X2000Y60000D02*
D03*
X3750Y56500D02*
D03*
X2000Y53000D02*
D03*
X3750Y49500D02*
D03*
X2000Y46000D02*
D03*
X3750Y42500D02*
D03*
X35250Y7500D02*
D03*
X136750Y70500D02*
D03*
X37000Y11000D02*
D03*
X26500Y4000D02*
D03*
X140250Y35500D02*
D03*
X10750Y21500D02*
D03*
X122750Y14500D02*
D03*
X14250Y7500D02*
D03*
X47500Y11000D02*
D03*
X23000D02*
D03*
X28250Y7500D02*
D03*
X45750Y14500D02*
D03*
Y28500D02*
D03*
X135000Y4000D02*
D03*
X140250Y14500D02*
D03*
X89500Y4000D02*
D03*
X40500D02*
D03*
X19500Y32000D02*
D03*
X94750Y14500D02*
D03*
X143750Y21500D02*
D03*
X14250D02*
D03*
X12500Y25000D02*
D03*
X115750Y7500D02*
D03*
X138500Y4000D02*
D03*
X136750Y49500D02*
D03*
X7250Y35500D02*
D03*
X143750D02*
D03*
X149000Y60000D02*
D03*
X89500Y11000D02*
D03*
X149000Y81000D02*
D03*
X138500Y18000D02*
D03*
X140250Y77500D02*
D03*
X3750Y21500D02*
D03*
X122750D02*
D03*
X129750Y28500D02*
D03*
X51000Y4000D02*
D03*
X10750Y35500D02*
D03*
X145500Y18000D02*
D03*
X9000Y25000D02*
D03*
X138500Y81000D02*
D03*
X140250Y49500D02*
D03*
X51000Y11000D02*
D03*
X115750Y14500D02*
D03*
X12500Y32000D02*
D03*
Y11000D02*
D03*
X150750Y63500D02*
D03*
X14250Y35500D02*
D03*
X138500Y46000D02*
D03*
X142000Y11000D02*
D03*
X103500Y4000D02*
D03*
X119250Y7500D02*
D03*
X9000Y32000D02*
D03*
X136750Y28500D02*
D03*
X138500Y32000D02*
D03*
X149000Y46000D02*
D03*
X17750Y21500D02*
D03*
X147250Y49500D02*
D03*
X150750Y56500D02*
D03*
X140250Y7500D02*
D03*
X42250D02*
D03*
X86000Y4000D02*
D03*
X3750Y14500D02*
D03*
X145500Y39000D02*
D03*
X10750Y14500D02*
D03*
X112250D02*
D03*
X103500Y11000D02*
D03*
X19500D02*
D03*
X138500Y25000D02*
D03*
X128000Y11000D02*
D03*
X7250Y14500D02*
D03*
X119250D02*
D03*
X114000Y11000D02*
D03*
X126250Y7500D02*
D03*
X21250D02*
D03*
X135000Y60000D02*
D03*
X101750Y14500D02*
D03*
X135000Y46000D02*
D03*
X10750Y7500D02*
D03*
X150750Y49500D02*
D03*
X87750Y7500D02*
D03*
X86000Y11000D02*
D03*
X138500Y39000D02*
D03*
X150750Y70500D02*
D03*
X149000Y11000D02*
D03*
X49250Y7500D02*
D03*
X138500Y11000D02*
D03*
X140250Y28500D02*
D03*
X23000Y32000D02*
D03*
X108750Y7500D02*
D03*
X45750D02*
D03*
X33500Y4000D02*
D03*
X101750Y7500D02*
D03*
X7250Y21500D02*
D03*
X42250Y14500D02*
D03*
X140250Y21500D02*
D03*
X117500Y4000D02*
D03*
X135000Y39000D02*
D03*
X24750Y7500D02*
D03*
X136750Y56500D02*
D03*
X145500Y11000D02*
D03*
X122750Y7500D02*
D03*
X110500Y4000D02*
D03*
X5500Y25000D02*
D03*
X135000Y32000D02*
D03*
X9000Y11000D02*
D03*
X42250Y28500D02*
D03*
X16000Y11000D02*
D03*
X147250Y70500D02*
D03*
X143750Y42500D02*
D03*
X2000Y18000D02*
D03*
X124500Y4000D02*
D03*
X17750Y7500D02*
D03*
X142000Y32000D02*
D03*
Y46000D02*
D03*
X147250Y35500D02*
D03*
Y21500D02*
D03*
X149000Y39000D02*
D03*
X145500Y25000D02*
D03*
X3750Y28500D02*
D03*
X143750Y77500D02*
D03*
X23000Y18000D02*
D03*
X105250Y14500D02*
D03*
X136750Y42500D02*
D03*
X135000Y67000D02*
D03*
X149000Y18000D02*
D03*
X142000Y81000D02*
D03*
X107000Y11000D02*
D03*
X93000D02*
D03*
X100000D02*
D03*
X124500D02*
D03*
X110500D02*
D03*
X135000D02*
D03*
X133250Y7500D02*
D03*
X121000Y11000D02*
D03*
X142000Y39000D02*
D03*
X131500Y32000D02*
D03*
X147250Y56500D02*
D03*
X142000Y18000D02*
D03*
X143750Y70500D02*
D03*
X37000Y4000D02*
D03*
X23000D02*
D03*
X133250Y14500D02*
D03*
X108750D02*
D03*
X117500Y11000D02*
D03*
X12500Y4000D02*
D03*
X105250Y7500D02*
D03*
X145500Y67000D02*
D03*
X3750Y35500D02*
D03*
X19500Y4000D02*
D03*
X38750Y7500D02*
D03*
X14250Y14500D02*
D03*
X149000Y25000D02*
D03*
X142000D02*
D03*
X131500Y11000D02*
D03*
X91250Y14500D02*
D03*
X140250Y70500D02*
D03*
X133250Y28500D02*
D03*
X44000Y4000D02*
D03*
X87750Y14500D02*
D03*
X149000Y32000D02*
D03*
X31750Y7500D02*
D03*
X131500Y4000D02*
D03*
X147250Y28500D02*
D03*
X107000Y4000D02*
D03*
X147250Y14500D02*
D03*
X145500Y74000D02*
D03*
X47500Y4000D02*
D03*
X30000D02*
D03*
X136750Y77500D02*
D03*
X112250Y7500D02*
D03*
X140250Y42500D02*
D03*
X100000Y4000D02*
D03*
X2000Y25000D02*
D03*
X126250Y14500D02*
D03*
X143750Y49500D02*
D03*
X147250Y42500D02*
D03*
X16000Y25000D02*
D03*
X136750Y7500D02*
D03*
X49250Y28500D02*
D03*
X96500Y11000D02*
D03*
X23000Y25000D02*
D03*
X2000Y32000D02*
D03*
X129750Y7500D02*
D03*
X128000Y4000D02*
D03*
X5500Y11000D02*
D03*
X136750Y14500D02*
D03*
X98250D02*
D03*
X117500Y18000D02*
D03*
X2000Y11000D02*
D03*
X143750Y28500D02*
D03*
X142000Y67000D02*
D03*
X129750Y14500D02*
D03*
X143750Y56500D02*
D03*
X121000Y4000D02*
D03*
X136750Y35500D02*
D03*
X145500Y32000D02*
D03*
X17750Y35500D02*
D03*
X114000Y4000D02*
D03*
X138500Y67000D02*
D03*
X149000D02*
D03*
X49250Y14500D02*
D03*
D79*
X72153Y44654D02*
D03*
X70953Y46010D02*
D03*
X69400Y25950D02*
D03*
X72245Y17282D02*
D03*
X67000Y32000D02*
D03*
X27795Y73967D02*
D03*
X29021D02*
D03*
X30247D02*
D03*
X31474D02*
D03*
X32700D02*
D03*
X15419Y74500D02*
D03*
X16444D02*
D03*
X17469D02*
D03*
X15419Y69420D02*
D03*
X16444D02*
D03*
X17469D02*
D03*
X15419Y64340D02*
D03*
X16444D02*
D03*
X17469D02*
D03*
X15419Y59260D02*
D03*
X16444D02*
D03*
X17469D02*
D03*
Y54180D02*
D03*
X16444D02*
D03*
X15419D02*
D03*
X127190Y61895D02*
D03*
X77373Y18127D02*
D03*
X87100Y26388D02*
D03*
X51895Y27386D02*
D03*
X94197Y30450D02*
D03*
X69000Y68000D02*
D03*
X72153Y29840D02*
D03*
X74260D02*
D03*
X26498Y12000D02*
D03*
X28349D02*
D03*
X30200D02*
D03*
X38000Y50682D02*
D03*
X65607Y44913D02*
D03*
X73469Y43426D02*
D03*
X72783Y44010D02*
D03*
X61200Y44142D02*
D03*
X61700Y50100D02*
D03*
X62500Y48694D02*
D03*
X124250Y68000D02*
D03*
X76381Y55668D02*
D03*
X76299Y44962D02*
D03*
X74218Y42731D02*
D03*
X76055Y37000D02*
D03*
X79223Y43527D02*
D03*
X77043Y44078D02*
D03*
X74010Y48694D02*
D03*
X85470Y66984D02*
D03*
X29800Y23700D02*
D03*
X33050D02*
D03*
X35000D02*
D03*
X38250D02*
D03*
X78263Y42335D02*
D03*
X77626Y43201D02*
D03*
X78839Y41322D02*
D03*
X28098Y27491D02*
D03*
X20700Y18200D02*
D03*
X21700Y13120D02*
D03*
X40000Y27491D02*
D03*
X38000Y22000D02*
D03*
X35000D02*
D03*
X33050D02*
D03*
X30000D02*
D03*
X104000Y49246D02*
D03*
X31400Y41000D02*
D03*
X28960Y59961D02*
D03*
Y60959D02*
D03*
Y61946D02*
D03*
Y62948D02*
D03*
Y63949D02*
D03*
X85000Y54000D02*
D03*
X86600Y50000D02*
D03*
X38300Y75749D02*
D03*
X79500Y53500D02*
D03*
X116275Y47200D02*
D03*
X104816Y51120D02*
D03*
X53900Y37000D02*
D03*
X70900Y52500D02*
D03*
X75000Y35500D02*
D03*
X59748Y48000D02*
D03*
X74100Y36500D02*
D03*
X36902Y41000D02*
D03*
X39000Y46000D02*
D03*
X38250Y40600D02*
D03*
X19700Y23280D02*
D03*
D80*
X122850Y65500D02*
D03*
X114150D02*
D03*
D81*
X120075Y59000D02*
D03*
X116925D02*
D03*
%TF.MD5,a1d25ee57f59ac058c11fc792b0d0050*%
M02*
