%TF.GenerationSoftware,Altium Limited,Altium Designer,22.11.1 (43)*%
G04 Layer_Color=2752767*
%FSLAX43Y43*%
%MOMM*%
%TF.SameCoordinates,713154A8-74CC-4FB3-A553-2C66CAAA5226*%
%TF.FilePolarity,Positive*%
%TF.FileFunction,Drawing*%
%TF.Part,Single*%
G01*
G75*
%TA.AperFunction,NonConductor*%
%ADD86C,0.127*%
%ADD113C,0.169*%
%ADD114C,0.102*%
D86*
X69146Y13746D02*
Y13492D01*
X69654D01*
Y13746D01*
X69908D01*
Y14254D01*
X69654D01*
Y14508D01*
X69146D01*
Y14254D01*
X68892D01*
Y13746D01*
X69146D01*
X80346D02*
Y13492D01*
X80854D01*
Y13746D01*
X81108D01*
Y14254D01*
X80854D01*
Y14508D01*
X80346D01*
Y14254D01*
X80092D01*
Y13746D01*
X80346D01*
X47822Y25442D02*
X48076Y25950D01*
X47822Y26458D01*
X48330Y26204D01*
X48838Y26458D01*
X48584Y25950D01*
X48838Y25442D01*
X48330Y25696D01*
X47822Y25442D01*
X52902D02*
X53156Y25950D01*
X52902Y26458D01*
X53410Y26204D01*
X53918Y26458D01*
X53664Y25950D01*
X53918Y25442D01*
X53410Y25696D01*
X52902Y25442D01*
X50362D02*
X50616Y25950D01*
X50362Y26458D01*
X50870Y26204D01*
X51378Y26458D01*
X51124Y25950D01*
X51378Y25442D01*
X50870Y25696D01*
X50362Y25442D01*
X60522Y63542D02*
X60776Y64050D01*
X60522Y64558D01*
X61030Y64304D01*
X61538Y64558D01*
X61284Y64050D01*
X61538Y63542D01*
X61030Y63796D01*
X60522Y63542D01*
X70682D02*
X70936Y64050D01*
X70682Y64558D01*
X71190Y64304D01*
X71698Y64558D01*
X71444Y64050D01*
X71698Y63542D01*
X71190Y63796D01*
X70682Y63542D01*
X68142D02*
X68396Y64050D01*
X68142Y64558D01*
X68650Y64304D01*
X69158Y64558D01*
X68904Y64050D01*
X69158Y63542D01*
X68650Y63796D01*
X68142Y63542D01*
X65602D02*
X65856Y64050D01*
X65602Y64558D01*
X66110Y64304D01*
X66618Y64558D01*
X66364Y64050D01*
X66618Y63542D01*
X66110Y63796D01*
X65602Y63542D01*
X63062D02*
X63316Y64050D01*
X63062Y64558D01*
X63570Y64304D01*
X64078Y64558D01*
X63824Y64050D01*
X64078Y63542D01*
X63570Y63796D01*
X63062Y63542D01*
X57982D02*
X58236Y64050D01*
X57982Y64558D01*
X58490Y64304D01*
X58998Y64558D01*
X58744Y64050D01*
X58998Y63542D01*
X58490Y63796D01*
X57982Y63542D01*
X55442D02*
X55696Y64050D01*
X55442Y64558D01*
X55950Y64304D01*
X56458Y64558D01*
X56204Y64050D01*
X56458Y63542D01*
X55950Y63796D01*
X55442Y63542D01*
X52902D02*
X53156Y64050D01*
X52902Y64558D01*
X53410Y64304D01*
X53918Y64558D01*
X53664Y64050D01*
X53918Y63542D01*
X53410Y63796D01*
X52902Y63542D01*
X50362D02*
X50616Y64050D01*
X50362Y64558D01*
X50870Y64304D01*
X51378Y64558D01*
X51124Y64050D01*
X51378Y63542D01*
X50870Y63796D01*
X50362Y63542D01*
X47822D02*
X48076Y64050D01*
X47822Y64558D01*
X48330Y64304D01*
X48838Y64558D01*
X48584Y64050D01*
X48838Y63542D01*
X48330Y63796D01*
X47822Y63542D01*
X101162Y25442D02*
X101416Y25950D01*
X101162Y26458D01*
X101670Y26204D01*
X102178Y26458D01*
X101924Y25950D01*
X102178Y25442D01*
X101670Y25696D01*
X101162Y25442D01*
X98622D02*
X98876Y25950D01*
X98622Y26458D01*
X99130Y26204D01*
X99638Y26458D01*
X99384Y25950D01*
X99638Y25442D01*
X99130Y25696D01*
X98622Y25442D01*
X96082D02*
X96336Y25950D01*
X96082Y26458D01*
X96590Y26204D01*
X97098Y26458D01*
X96844Y25950D01*
X97098Y25442D01*
X96590Y25696D01*
X96082Y25442D01*
X73222Y63542D02*
X73476Y64050D01*
X73222Y64558D01*
X73730Y64304D01*
X74238Y64558D01*
X73984Y64050D01*
X74238Y63542D01*
X73730Y63796D01*
X73222Y63542D01*
X101162D02*
X101416Y64050D01*
X101162Y64558D01*
X101670Y64304D01*
X102178Y64558D01*
X101924Y64050D01*
X102178Y63542D01*
X101670Y63796D01*
X101162Y63542D01*
X88462D02*
X88716Y64050D01*
X88462Y64558D01*
X88970Y64304D01*
X89478Y64558D01*
X89224Y64050D01*
X89478Y63542D01*
X88970Y63796D01*
X88462Y63542D01*
X83382D02*
X83636Y64050D01*
X83382Y64558D01*
X83890Y64304D01*
X84398Y64558D01*
X84144Y64050D01*
X84398Y63542D01*
X83890Y63796D01*
X83382Y63542D01*
X80842D02*
X81096Y64050D01*
X80842Y64558D01*
X81350Y64304D01*
X81858Y64558D01*
X81604Y64050D01*
X81858Y63542D01*
X81350Y63796D01*
X80842Y63542D01*
X78302D02*
X78556Y64050D01*
X78302Y64558D01*
X78810Y64304D01*
X79318Y64558D01*
X79064Y64050D01*
X79318Y63542D01*
X78810Y63796D01*
X78302Y63542D01*
X75762D02*
X76016Y64050D01*
X75762Y64558D01*
X76270Y64304D01*
X76778Y64558D01*
X76524Y64050D01*
X76778Y63542D01*
X76270Y63796D01*
X75762Y63542D01*
X91002D02*
X91256Y64050D01*
X91002Y64558D01*
X91510Y64304D01*
X92018Y64558D01*
X91764Y64050D01*
X92018Y63542D01*
X91510Y63796D01*
X91002Y63542D01*
X93542D02*
X93796Y64050D01*
X93542Y64558D01*
X94050Y64304D01*
X94558Y64558D01*
X94304Y64050D01*
X94558Y63542D01*
X94050Y63796D01*
X93542Y63542D01*
X96082D02*
X96336Y64050D01*
X96082Y64558D01*
X96590Y64304D01*
X97098Y64558D01*
X96844Y64050D01*
X97098Y63542D01*
X96590Y63796D01*
X96082Y63542D01*
X85922D02*
X86176Y64050D01*
X85922Y64558D01*
X86430Y64304D01*
X86938Y64558D01*
X86684Y64050D01*
X86938Y63542D01*
X86430Y63796D01*
X85922Y63542D01*
X98622D02*
X98876Y64050D01*
X98622Y64558D01*
X99130Y64304D01*
X99638Y64558D01*
X99384Y64050D01*
X99638Y63542D01*
X99130Y63796D01*
X98622Y63542D01*
X125682Y56132D02*
X125936D01*
X126190Y56386D01*
X126444Y56132D01*
X126698D01*
Y56386D01*
X126444Y56640D01*
X126698Y56894D01*
Y57148D01*
X126444D01*
X126190Y56894D01*
X125936Y57148D01*
X125682D01*
Y56894D01*
X125936Y56640D01*
X125682Y56386D01*
Y56132D01*
Y53592D02*
X125936D01*
X126190Y53846D01*
X126444Y53592D01*
X126698D01*
Y53846D01*
X126444Y54100D01*
X126698Y54354D01*
Y54608D01*
X126444D01*
X126190Y54354D01*
X125936Y54608D01*
X125682D01*
Y54354D01*
X125936Y54100D01*
X125682Y53846D01*
Y53592D01*
Y51052D02*
X125936D01*
X126190Y51306D01*
X126444Y51052D01*
X126698D01*
Y51306D01*
X126444Y51560D01*
X126698Y51814D01*
Y52068D01*
X126444D01*
X126190Y51814D01*
X125936Y52068D01*
X125682D01*
Y51814D01*
X125936Y51560D01*
X125682Y51306D01*
Y51052D01*
X133302D02*
X133556D01*
X133810Y51306D01*
X134064Y51052D01*
X134318D01*
Y51306D01*
X134064Y51560D01*
X134318Y51814D01*
Y52068D01*
X134064D01*
X133810Y51814D01*
X133556Y52068D01*
X133302D01*
Y51814D01*
X133556Y51560D01*
X133302Y51306D01*
Y51052D01*
Y53592D02*
X133556D01*
X133810Y53846D01*
X134064Y53592D01*
X134318D01*
Y53846D01*
X134064Y54100D01*
X134318Y54354D01*
Y54608D01*
X134064D01*
X133810Y54354D01*
X133556Y54608D01*
X133302D01*
Y54354D01*
X133556Y54100D01*
X133302Y53846D01*
Y53592D01*
Y56132D02*
X133556D01*
X133810Y56386D01*
X134064Y56132D01*
X134318D01*
Y56386D01*
X134064Y56640D01*
X134318Y56894D01*
Y57148D01*
X134064D01*
X133810Y56894D01*
X133556Y57148D01*
X133302D01*
Y56894D01*
X133556Y56640D01*
X133302Y56386D01*
Y56132D01*
X147492Y51000D02*
X148000Y51508D01*
X148508Y51000D01*
X148000Y50492D01*
X147492Y51000D01*
X140492D02*
X141000Y51508D01*
X141508Y51000D01*
X141000Y50492D01*
X140492Y51000D01*
X149000Y67992D02*
X148492Y69008D01*
X149508D01*
X149000Y67992D01*
Y68195D02*
X148695Y68805D01*
X149305D01*
X149000Y68195D01*
X150492Y73000D02*
X151000Y73508D01*
X151508Y73000D01*
X151000Y72492D01*
X150492Y73000D01*
X142000Y72492D02*
X142254Y72746D01*
X142508D01*
X142254Y73000D01*
X142508Y73254D01*
X142254D01*
X142000Y73508D01*
X141746Y73254D01*
X141492D01*
X141746Y73000D01*
X141492Y72746D01*
X141746D01*
X142000Y72492D01*
Y72695D02*
X142152Y72848D01*
X142305D01*
X142152Y73000D01*
X142305Y73152D01*
X142152D01*
X142000Y73305D01*
X141848Y73152D01*
X141695D01*
X141848Y73000D01*
X141695Y72848D01*
X141848D01*
X142000Y72695D01*
X147492Y72492D02*
X147746Y73000D01*
X147492Y73508D01*
X148000Y73254D01*
X148508Y73508D01*
X148254Y73000D01*
X148508Y72492D01*
X148000Y72746D01*
X147492Y72492D01*
X147695Y72695D02*
X147848Y73000D01*
X147695Y73305D01*
X148000Y73152D01*
X148305Y73305D01*
X148152Y73000D01*
X148305Y72695D01*
X148000Y72848D01*
X147695Y72695D01*
X149000Y76992D02*
X148492Y78008D01*
X149508D01*
X149000Y76992D01*
Y77195D02*
X148695Y77805D01*
X149305D01*
X149000Y77195D01*
X5492Y12492D02*
X5746D01*
X6000Y12746D01*
X6254Y12492D01*
X6508D01*
Y12746D01*
X6254Y13000D01*
X6508Y13254D01*
Y13508D01*
X6254D01*
X6000Y13254D01*
X5746Y13508D01*
X5492D01*
Y13254D01*
X5746Y13000D01*
X5492Y12746D01*
Y12492D01*
X5695Y12695D02*
X5848D01*
X6000Y12848D01*
X6152Y12695D01*
X6305D01*
Y12848D01*
X6152Y13000D01*
X6305Y13152D01*
Y13305D01*
X6152D01*
X6000Y13152D01*
X5848Y13305D01*
X5695D01*
Y13152D01*
X5848Y13000D01*
X5695Y12848D01*
Y12695D01*
X5492Y17572D02*
X5746D01*
X6000Y17826D01*
X6254Y17572D01*
X6508D01*
Y17826D01*
X6254Y18080D01*
X6508Y18334D01*
Y18588D01*
X6254D01*
X6000Y18334D01*
X5746Y18588D01*
X5492D01*
Y18334D01*
X5746Y18080D01*
X5492Y17826D01*
Y17572D01*
X5695Y17775D02*
X5848D01*
X6000Y17928D01*
X6152Y17775D01*
X6305D01*
Y17928D01*
X6152Y18080D01*
X6305Y18232D01*
Y18385D01*
X6152D01*
X6000Y18232D01*
X5848Y18385D01*
X5695D01*
Y18232D01*
X5848Y18080D01*
X5695Y17928D01*
Y17775D01*
X5492Y27732D02*
X5746D01*
X6000Y27986D01*
X6254Y27732D01*
X6508D01*
Y27986D01*
X6254Y28240D01*
X6508Y28494D01*
Y28748D01*
X6254D01*
X6000Y28494D01*
X5746Y28748D01*
X5492D01*
Y28494D01*
X5746Y28240D01*
X5492Y27986D01*
Y27732D01*
X5695Y27935D02*
X5848D01*
X6000Y28088D01*
X6152Y27935D01*
X6305D01*
Y28088D01*
X6152Y28240D01*
X6305Y28392D01*
Y28545D01*
X6152D01*
X6000Y28392D01*
X5848Y28545D01*
X5695D01*
Y28392D01*
X5848Y28240D01*
X5695Y28088D01*
Y27935D01*
X5492Y37892D02*
X5746D01*
X6000Y38146D01*
X6254Y37892D01*
X6508D01*
Y38146D01*
X6254Y38400D01*
X6508Y38654D01*
Y38908D01*
X6254D01*
X6000Y38654D01*
X5746Y38908D01*
X5492D01*
Y38654D01*
X5746Y38400D01*
X5492Y38146D01*
Y37892D01*
X5695Y38095D02*
X5848D01*
X6000Y38248D01*
X6152Y38095D01*
X6305D01*
Y38248D01*
X6152Y38400D01*
X6305Y38552D01*
Y38705D01*
X6152D01*
X6000Y38552D01*
X5848Y38705D01*
X5695D01*
Y38552D01*
X5848Y38400D01*
X5695Y38248D01*
Y38095D01*
X5492Y42972D02*
X5746D01*
X6000Y43226D01*
X6254Y42972D01*
X6508D01*
Y43226D01*
X6254Y43480D01*
X6508Y43734D01*
Y43988D01*
X6254D01*
X6000Y43734D01*
X5746Y43988D01*
X5492D01*
Y43734D01*
X5746Y43480D01*
X5492Y43226D01*
Y42972D01*
X5695Y43175D02*
X5848D01*
X6000Y43328D01*
X6152Y43175D01*
X6305D01*
Y43328D01*
X6152Y43480D01*
X6305Y43632D01*
Y43785D01*
X6152D01*
X6000Y43632D01*
X5848Y43785D01*
X5695D01*
Y43632D01*
X5848Y43480D01*
X5695Y43328D01*
Y43175D01*
X5492Y32812D02*
X5746D01*
X6000Y33066D01*
X6254Y32812D01*
X6508D01*
Y33066D01*
X6254Y33320D01*
X6508Y33574D01*
Y33828D01*
X6254D01*
X6000Y33574D01*
X5746Y33828D01*
X5492D01*
Y33574D01*
X5746Y33320D01*
X5492Y33066D01*
Y32812D01*
X5695Y33015D02*
X5848D01*
X6000Y33168D01*
X6152Y33015D01*
X6305D01*
Y33168D01*
X6152Y33320D01*
X6305Y33472D01*
Y33625D01*
X6152D01*
X6000Y33472D01*
X5848Y33625D01*
X5695D01*
Y33472D01*
X5848Y33320D01*
X5695Y33168D01*
Y33015D01*
X5492Y22652D02*
X5746D01*
X6000Y22906D01*
X6254Y22652D01*
X6508D01*
Y22906D01*
X6254Y23160D01*
X6508Y23414D01*
Y23668D01*
X6254D01*
X6000Y23414D01*
X5746Y23668D01*
X5492D01*
Y23414D01*
X5746Y23160D01*
X5492Y22906D01*
Y22652D01*
X5695Y22855D02*
X5848D01*
X6000Y23008D01*
X6152Y22855D01*
X6305D01*
Y23008D01*
X6152Y23160D01*
X6305Y23312D01*
Y23465D01*
X6152D01*
X6000Y23312D01*
X5848Y23465D01*
X5695D01*
Y23312D01*
X5848Y23160D01*
X5695Y23008D01*
Y22855D01*
X57080Y67492D02*
X57334Y67746D01*
X57588D01*
X57334Y68000D01*
X57588Y68254D01*
X57334D01*
X57080Y68508D01*
X56826Y68254D01*
X56572D01*
X56826Y68000D01*
X56572Y67746D01*
X56826D01*
X57080Y67492D01*
X59620D02*
X59874Y67746D01*
X60128D01*
X59874Y68000D01*
X60128Y68254D01*
X59874D01*
X59620Y68508D01*
X59366Y68254D01*
X59112D01*
X59366Y68000D01*
X59112Y67746D01*
X59366D01*
X59620Y67492D01*
X54540D02*
X54794Y67746D01*
X55048D01*
X54794Y68000D01*
X55048Y68254D01*
X54794D01*
X54540Y68508D01*
X54286Y68254D01*
X54032D01*
X54286Y68000D01*
X54032Y67746D01*
X54286D01*
X54540Y67492D01*
X52000D02*
X52254Y67746D01*
X52508D01*
X52254Y68000D01*
X52508Y68254D01*
X52254D01*
X52000Y68508D01*
X51746Y68254D01*
X51492D01*
X51746Y68000D01*
X51492Y67746D01*
X51746D01*
X52000Y67492D01*
X96590D02*
X96844Y67746D01*
X97098D01*
X96844Y68000D01*
X97098Y68254D01*
X96844D01*
X96590Y68508D01*
X96336Y68254D01*
X96082D01*
X96336Y68000D01*
X96082Y67746D01*
X96336D01*
X96590Y67492D01*
X99130D02*
X99384Y67746D01*
X99638D01*
X99384Y68000D01*
X99638Y68254D01*
X99384D01*
X99130Y68508D01*
X98876Y68254D01*
X98622D01*
X98876Y68000D01*
X98622Y67746D01*
X98876D01*
X99130Y67492D01*
X94050D02*
X94304Y67746D01*
X94558D01*
X94304Y68000D01*
X94558Y68254D01*
X94304D01*
X94050Y68508D01*
X93796Y68254D01*
X93542D01*
X93796Y68000D01*
X93542Y67746D01*
X93796D01*
X94050Y67492D01*
X91510D02*
X91764Y67746D01*
X92018D01*
X91764Y68000D01*
X92018Y68254D01*
X91764D01*
X91510Y68508D01*
X91256Y68254D01*
X91002D01*
X91256Y68000D01*
X91002Y67746D01*
X91256D01*
X91510Y67492D01*
X95000Y6270D02*
Y5000D01*
X95635D01*
X95846Y5212D01*
Y5423D01*
X95635Y5635D01*
X95000D01*
X95635D01*
X95846Y5846D01*
Y6058D01*
X95635Y6270D01*
X95000D01*
X125682Y46332D02*
X125936D01*
X126190Y46586D01*
X126444Y46332D01*
X126698D01*
Y46586D01*
X126444Y46840D01*
X126698Y47094D01*
Y47348D01*
X126444D01*
X126190Y47094D01*
X125936Y47348D01*
X125682D01*
Y47094D01*
X125936Y46840D01*
X125682Y46586D01*
Y46332D01*
Y43792D02*
X125936D01*
X126190Y44046D01*
X126444Y43792D01*
X126698D01*
Y44046D01*
X126444Y44300D01*
X126698Y44554D01*
Y44808D01*
X126444D01*
X126190Y44554D01*
X125936Y44808D01*
X125682D01*
Y44554D01*
X125936Y44300D01*
X125682Y44046D01*
Y43792D01*
Y41252D02*
X125936D01*
X126190Y41506D01*
X126444Y41252D01*
X126698D01*
Y41506D01*
X126444Y41760D01*
X126698Y42014D01*
Y42268D01*
X126444D01*
X126190Y42014D01*
X125936Y42268D01*
X125682D01*
Y42014D01*
X125936Y41760D01*
X125682Y41506D01*
Y41252D01*
X133302D02*
X133556D01*
X133810Y41506D01*
X134064Y41252D01*
X134318D01*
Y41506D01*
X134064Y41760D01*
X134318Y42014D01*
Y42268D01*
X134064D01*
X133810Y42014D01*
X133556Y42268D01*
X133302D01*
Y42014D01*
X133556Y41760D01*
X133302Y41506D01*
Y41252D01*
Y43792D02*
X133556D01*
X133810Y44046D01*
X134064Y43792D01*
X134318D01*
Y44046D01*
X134064Y44300D01*
X134318Y44554D01*
Y44808D01*
X134064D01*
X133810Y44554D01*
X133556Y44808D01*
X133302D01*
Y44554D01*
X133556Y44300D01*
X133302Y44046D01*
Y43792D01*
Y46332D02*
X133556D01*
X133810Y46586D01*
X134064Y46332D01*
X134318D01*
Y46586D01*
X134064Y46840D01*
X134318Y47094D01*
Y47348D01*
X134064D01*
X133810Y47094D01*
X133556Y47348D01*
X133302D01*
Y47094D01*
X133556Y46840D01*
X133302Y46586D01*
Y46332D01*
X53900Y13492D02*
X54154Y13746D01*
X54408D01*
X54154Y14000D01*
X54408Y14254D01*
X54154D01*
X53900Y14508D01*
X53646Y14254D01*
X53392D01*
X53646Y14000D01*
X53392Y13746D01*
X53646D01*
X53900Y13492D01*
X57710Y17302D02*
X57964Y17556D01*
X58218D01*
X57964Y17810D01*
X58218Y18064D01*
X57964D01*
X57710Y18318D01*
X57456Y18064D01*
X57202D01*
X57456Y17810D01*
X57202Y17556D01*
X57456D01*
X57710Y17302D01*
X50090Y17810D02*
Y18656D01*
X50513Y19080D01*
X50936Y18656D01*
Y17810D01*
Y18445D01*
X50090D01*
X57710Y10190D02*
Y11036D01*
X58133Y11460D01*
X58556Y11036D01*
Y10190D01*
Y10825D01*
X57710D01*
X81000Y23192D02*
X81254Y23446D01*
X81508D01*
X81254Y23700D01*
X81508Y23954D01*
X81254D01*
X81000Y24208D01*
X80746Y23954D01*
X80492D01*
X80746Y23700D01*
X80492Y23446D01*
X80746D01*
X81000Y23192D01*
X83540D02*
X83794Y23446D01*
X84048D01*
X83794Y23700D01*
X84048Y23954D01*
X83794D01*
X83540Y24208D01*
X83286Y23954D01*
X83032D01*
X83286Y23700D01*
X83032Y23446D01*
X83286D01*
X83540Y23192D01*
X88620D02*
X88874Y23446D01*
X89128D01*
X88874Y23700D01*
X89128Y23954D01*
X88874D01*
X88620Y24208D01*
X88366Y23954D01*
X88112D01*
X88366Y23700D01*
X88112Y23446D01*
X88366D01*
X88620Y23192D01*
X93700D02*
X93954Y23446D01*
X94208D01*
X93954Y23700D01*
X94208Y23954D01*
X93954D01*
X93700Y24208D01*
X93446Y23954D01*
X93192D01*
X93446Y23700D01*
X93192Y23446D01*
X93446D01*
X93700Y23192D01*
X91160D02*
X91414Y23446D01*
X91668D01*
X91414Y23700D01*
X91668Y23954D01*
X91414D01*
X91160Y24208D01*
X90906Y23954D01*
X90652D01*
X90906Y23700D01*
X90652Y23446D01*
X90906D01*
X91160Y23192D01*
X86080D02*
X86334Y23446D01*
X86588D01*
X86334Y23700D01*
X86588Y23954D01*
X86334D01*
X86080Y24208D01*
X85826Y23954D01*
X85572D01*
X85826Y23700D01*
X85572Y23446D01*
X85826D01*
X86080Y23192D01*
X5492Y51192D02*
X5746D01*
X6000Y51446D01*
X6254Y51192D01*
X6508D01*
Y51446D01*
X6254Y51700D01*
X6508Y51954D01*
Y52208D01*
X6254D01*
X6000Y51954D01*
X5746Y52208D01*
X5492D01*
Y51954D01*
X5746Y51700D01*
X5492Y51446D01*
Y51192D01*
X5695Y51395D02*
X5848D01*
X6000Y51548D01*
X6152Y51395D01*
X6305D01*
Y51548D01*
X6152Y51700D01*
X6305Y51852D01*
Y52005D01*
X6152D01*
X6000Y51852D01*
X5848Y52005D01*
X5695D01*
Y51852D01*
X5848Y51700D01*
X5695Y51548D01*
Y51395D01*
X5492Y56272D02*
X5746D01*
X6000Y56526D01*
X6254Y56272D01*
X6508D01*
Y56526D01*
X6254Y56780D01*
X6508Y57034D01*
Y57288D01*
X6254D01*
X6000Y57034D01*
X5746Y57288D01*
X5492D01*
Y57034D01*
X5746Y56780D01*
X5492Y56526D01*
Y56272D01*
X5695Y56475D02*
X5848D01*
X6000Y56628D01*
X6152Y56475D01*
X6305D01*
Y56628D01*
X6152Y56780D01*
X6305Y56932D01*
Y57085D01*
X6152D01*
X6000Y56932D01*
X5848Y57085D01*
X5695D01*
Y56932D01*
X5848Y56780D01*
X5695Y56628D01*
Y56475D01*
X5492Y66432D02*
X5746D01*
X6000Y66686D01*
X6254Y66432D01*
X6508D01*
Y66686D01*
X6254Y66940D01*
X6508Y67194D01*
Y67448D01*
X6254D01*
X6000Y67194D01*
X5746Y67448D01*
X5492D01*
Y67194D01*
X5746Y66940D01*
X5492Y66686D01*
Y66432D01*
X5695Y66635D02*
X5848D01*
X6000Y66788D01*
X6152Y66635D01*
X6305D01*
Y66788D01*
X6152Y66940D01*
X6305Y67092D01*
Y67245D01*
X6152D01*
X6000Y67092D01*
X5848Y67245D01*
X5695D01*
Y67092D01*
X5848Y66940D01*
X5695Y66788D01*
Y66635D01*
X5492Y76592D02*
X5746D01*
X6000Y76846D01*
X6254Y76592D01*
X6508D01*
Y76846D01*
X6254Y77100D01*
X6508Y77354D01*
Y77608D01*
X6254D01*
X6000Y77354D01*
X5746Y77608D01*
X5492D01*
Y77354D01*
X5746Y77100D01*
X5492Y76846D01*
Y76592D01*
X5695Y76795D02*
X5848D01*
X6000Y76948D01*
X6152Y76795D01*
X6305D01*
Y76948D01*
X6152Y77100D01*
X6305Y77252D01*
Y77405D01*
X6152D01*
X6000Y77252D01*
X5848Y77405D01*
X5695D01*
Y77252D01*
X5848Y77100D01*
X5695Y76948D01*
Y76795D01*
X5492Y71512D02*
X5746D01*
X6000Y71766D01*
X6254Y71512D01*
X6508D01*
Y71766D01*
X6254Y72020D01*
X6508Y72274D01*
Y72528D01*
X6254D01*
X6000Y72274D01*
X5746Y72528D01*
X5492D01*
Y72274D01*
X5746Y72020D01*
X5492Y71766D01*
Y71512D01*
X5695Y71715D02*
X5848D01*
X6000Y71868D01*
X6152Y71715D01*
X6305D01*
Y71868D01*
X6152Y72020D01*
X6305Y72172D01*
Y72325D01*
X6152D01*
X6000Y72172D01*
X5848Y72325D01*
X5695D01*
Y72172D01*
X5848Y72020D01*
X5695Y71868D01*
Y71715D01*
X5492Y61352D02*
X5746D01*
X6000Y61606D01*
X6254Y61352D01*
X6508D01*
Y61606D01*
X6254Y61860D01*
X6508Y62114D01*
Y62368D01*
X6254D01*
X6000Y62114D01*
X5746Y62368D01*
X5492D01*
Y62114D01*
X5746Y61860D01*
X5492Y61606D01*
Y61352D01*
X5695Y61555D02*
X5848D01*
X6000Y61708D01*
X6152Y61555D01*
X6305D01*
Y61708D01*
X6152Y61860D01*
X6305Y62012D01*
Y62165D01*
X6152D01*
X6000Y62012D01*
X5848Y62165D01*
X5695D01*
Y62012D01*
X5848Y61860D01*
X5695Y61708D01*
Y61555D01*
X5000Y86270D02*
Y85000D01*
X5635D01*
X5846Y85212D01*
Y85423D01*
X5635Y85635D01*
X5000D01*
X5635D01*
X5846Y85846D01*
Y86058D01*
X5635Y86270D01*
X5000D01*
X103746Y74666D02*
Y74412D01*
X104254D01*
Y74666D01*
X104508D01*
Y75174D01*
X104254D01*
Y75428D01*
X103746D01*
Y75174D01*
X103492D01*
Y74666D01*
X103746D01*
X103848Y74768D02*
Y74615D01*
X104152D01*
Y74768D01*
X104305D01*
Y75072D01*
X104152D01*
Y75225D01*
X103848D01*
Y75072D01*
X103695D01*
Y74768D01*
X103848D01*
X103746Y77206D02*
Y76952D01*
X104254D01*
Y77206D01*
X104508D01*
Y77714D01*
X104254D01*
Y77968D01*
X103746D01*
Y77714D01*
X103492D01*
Y77206D01*
X103746D01*
X103848Y77308D02*
Y77155D01*
X104152D01*
Y77308D01*
X104305D01*
Y77612D01*
X104152D01*
Y77765D01*
X103848D01*
Y77612D01*
X103695D01*
Y77308D01*
X103848D01*
X103746Y79746D02*
Y79492D01*
X104254D01*
Y79746D01*
X104508D01*
Y80254D01*
X104254D01*
Y80508D01*
X103746D01*
Y80254D01*
X103492D01*
Y79746D01*
X103746D01*
X103848Y79848D02*
Y79695D01*
X104152D01*
Y79848D01*
X104305D01*
Y80152D01*
X104152D01*
Y80305D01*
X103848D01*
Y80152D01*
X103695D01*
Y79848D01*
X103848D01*
X145000Y86270D02*
Y85000D01*
X145635D01*
X145846Y85212D01*
Y85423D01*
X145635Y85635D01*
X145000D01*
X145635D01*
X145846Y85846D01*
Y86058D01*
X145635Y86270D01*
X145000D01*
X5000Y6270D02*
Y5000D01*
X5635D01*
X5846Y5212D01*
Y5423D01*
X5635Y5635D01*
X5000D01*
X5635D01*
X5846Y5846D01*
Y6058D01*
X5635Y6270D01*
X5000D01*
X145000D02*
Y5000D01*
X145635D01*
X145846Y5212D01*
Y5423D01*
X145635Y5635D01*
X145000D01*
X145635D01*
X145846Y5846D01*
Y6058D01*
X145635Y6270D01*
X145000D01*
X111000Y34412D02*
X111254Y34666D01*
X111508D01*
X111254Y34920D01*
X111508Y35174D01*
X111254D01*
X111000Y35428D01*
X110746Y35174D01*
X110492D01*
X110746Y34920D01*
X110492Y34666D01*
X110746D01*
X111000Y34412D01*
Y29332D02*
X111254Y29586D01*
X111508D01*
X111254Y29840D01*
X111508Y30094D01*
X111254D01*
X111000Y30348D01*
X110746Y30094D01*
X110492D01*
X110746Y29840D01*
X110492Y29586D01*
X110746D01*
X111000Y29332D01*
Y31872D02*
X111254Y32126D01*
X111508D01*
X111254Y32380D01*
X111508Y32634D01*
X111254D01*
X111000Y32888D01*
X110746Y32634D01*
X110492D01*
X110746Y32380D01*
X110492Y32126D01*
X110746D01*
X111000Y31872D01*
Y36952D02*
X111254Y37206D01*
X111508D01*
X111254Y37460D01*
X111508Y37714D01*
X111254D01*
X111000Y37968D01*
X110746Y37714D01*
X110492D01*
X110746Y37460D01*
X110492Y37206D01*
X110746D01*
X111000Y36952D01*
Y39492D02*
X111254Y39746D01*
X111508D01*
X111254Y40000D01*
X111508Y40254D01*
X111254D01*
X111000Y40508D01*
X110746Y40254D01*
X110492D01*
X110746Y40000D01*
X110492Y39746D01*
X110746D01*
X111000Y39492D01*
Y50612D02*
X111254Y50866D01*
X111508D01*
X111254Y51120D01*
X111508Y51374D01*
X111254D01*
X111000Y51628D01*
X110746Y51374D01*
X110492D01*
X110746Y51120D01*
X110492Y50866D01*
X110746D01*
X111000Y50612D01*
Y48072D02*
X111254Y48326D01*
X111508D01*
X111254Y48580D01*
X111508Y48834D01*
X111254D01*
X111000Y49088D01*
X110746Y48834D01*
X110492D01*
X110746Y48580D01*
X110492Y48326D01*
X110746D01*
X111000Y48072D01*
Y42992D02*
X111254Y43246D01*
X111508D01*
X111254Y43500D01*
X111508Y43754D01*
X111254D01*
X111000Y44008D01*
X110746Y43754D01*
X110492D01*
X110746Y43500D01*
X110492Y43246D01*
X110746D01*
X111000Y42992D01*
Y45532D02*
X111254Y45786D01*
X111508D01*
X111254Y46040D01*
X111508Y46294D01*
X111254D01*
X111000Y46548D01*
X110746Y46294D01*
X110492D01*
X110746Y46040D01*
X110492Y45786D01*
X110746D01*
X111000Y45532D01*
X137992Y87492D02*
Y88508D01*
X139008D01*
Y87492D01*
X137992D01*
X139742Y83992D02*
Y85008D01*
X140758D01*
Y83992D01*
X139742D01*
X134492Y87492D02*
Y88508D01*
X135508D01*
Y87492D01*
X134492D01*
X136242Y83992D02*
Y85008D01*
X137258D01*
Y83992D01*
X136242D01*
X130992Y87492D02*
Y88508D01*
X132008D01*
Y87492D01*
X130992D01*
X127492D02*
Y88508D01*
X128508D01*
Y87492D01*
X127492D01*
X123992D02*
Y88508D01*
X125008D01*
Y87492D01*
X123992D01*
Y73492D02*
Y74508D01*
X125008D01*
Y73492D01*
X123992D01*
X125742Y69992D02*
Y71008D01*
X126758D01*
Y69992D01*
X125742D01*
X123992Y66492D02*
Y67508D01*
X125008D01*
Y66492D01*
X123992D01*
Y52492D02*
Y53508D01*
X125008D01*
Y52492D01*
X123992D01*
Y45492D02*
Y46508D01*
X125008D01*
Y45492D01*
X123992D01*
Y38492D02*
Y39508D01*
X125008D01*
Y38492D01*
X123992D01*
X120492Y73492D02*
Y74508D01*
X121508D01*
Y73492D01*
X120492D01*
X122242Y69992D02*
Y71008D01*
X123258D01*
Y69992D01*
X122242D01*
X120492Y66492D02*
Y67508D01*
X121508D01*
Y66492D01*
X120492D01*
Y59492D02*
Y60508D01*
X121508D01*
Y59492D01*
X120492D01*
Y52492D02*
Y53508D01*
X121508D01*
Y52492D01*
X120492D01*
Y38492D02*
Y39508D01*
X121508D01*
Y38492D01*
X120492D01*
X122242Y34992D02*
Y36008D01*
X123258D01*
Y34992D01*
X122242D01*
X118742Y83992D02*
Y85008D01*
X119758D01*
Y83992D01*
X118742D01*
X116992Y73492D02*
Y74508D01*
X118008D01*
Y73492D01*
X116992D01*
X118742Y69992D02*
Y71008D01*
X119758D01*
Y69992D01*
X118742D01*
X116992Y66492D02*
Y67508D01*
X118008D01*
Y66492D01*
X116992D01*
Y52492D02*
Y53508D01*
X118008D01*
Y52492D01*
X116992D01*
X118742Y48992D02*
Y50008D01*
X119758D01*
Y48992D01*
X118742D01*
X116992Y45492D02*
Y46508D01*
X118008D01*
Y45492D01*
X116992D01*
X118742Y41992D02*
Y43008D01*
X119758D01*
Y41992D01*
X118742D01*
X116992Y38492D02*
Y39508D01*
X118008D01*
Y38492D01*
X116992D01*
X118742Y34992D02*
Y36008D01*
X119758D01*
Y34992D01*
X118742D01*
X116992Y31492D02*
Y32508D01*
X118008D01*
Y31492D01*
X116992D01*
X113492Y87492D02*
Y88508D01*
X114508D01*
Y87492D01*
X113492D01*
Y73492D02*
Y74508D01*
X114508D01*
Y73492D01*
X113492D01*
X115242Y69992D02*
Y71008D01*
X116258D01*
Y69992D01*
X115242D01*
X113492Y52492D02*
Y53508D01*
X114508D01*
Y52492D01*
X113492D01*
X115242Y48992D02*
Y50008D01*
X116258D01*
Y48992D01*
X115242D01*
X113492Y45492D02*
Y46508D01*
X114508D01*
Y45492D01*
X113492D01*
X115242Y41992D02*
Y43008D01*
X116258D01*
Y41992D01*
X115242D01*
X113492Y38492D02*
Y39508D01*
X114508D01*
Y38492D01*
X113492D01*
X115242Y34992D02*
Y36008D01*
X116258D01*
Y34992D01*
X115242D01*
X113492Y31492D02*
Y32508D01*
X114508D01*
Y31492D01*
X113492D01*
X115242Y27992D02*
Y29008D01*
X116258D01*
Y27992D01*
X115242D01*
X109992Y87492D02*
Y88508D01*
X111008D01*
Y87492D01*
X109992D01*
X111742Y83992D02*
Y85008D01*
X112758D01*
Y83992D01*
X111742D01*
Y76992D02*
Y78008D01*
X112758D01*
Y76992D01*
X111742D01*
Y69992D02*
Y71008D01*
X112758D01*
Y69992D01*
X111742D01*
Y62992D02*
Y64008D01*
X112758D01*
Y62992D01*
X111742D01*
Y48992D02*
Y50008D01*
X112758D01*
Y48992D01*
X111742D01*
Y41992D02*
Y43008D01*
X112758D01*
Y41992D01*
X111742D01*
Y34992D02*
Y36008D01*
X112758D01*
Y34992D01*
X111742D01*
Y27992D02*
Y29008D01*
X112758D01*
Y27992D01*
X111742D01*
X106492Y87492D02*
Y88508D01*
X107508D01*
Y87492D01*
X106492D01*
X108242Y83992D02*
Y85008D01*
X109258D01*
Y83992D01*
X108242D01*
Y69992D02*
Y71008D01*
X109258D01*
Y69992D01*
X108242D01*
X106492Y66492D02*
Y67508D01*
X107508D01*
Y66492D01*
X106492D01*
X108242Y62992D02*
Y64008D01*
X109258D01*
Y62992D01*
X108242D01*
X106492Y59492D02*
Y60508D01*
X107508D01*
Y59492D01*
X106492D01*
X108242Y48992D02*
Y50008D01*
X109258D01*
Y48992D01*
X108242D01*
Y41992D02*
Y43008D01*
X109258D01*
Y41992D01*
X108242D01*
X106492Y31492D02*
Y32508D01*
X107508D01*
Y31492D01*
X106492D01*
X108242Y27992D02*
Y29008D01*
X109258D01*
Y27992D01*
X108242D01*
X102992Y87492D02*
Y88508D01*
X104008D01*
Y87492D01*
X102992D01*
X104742Y83992D02*
Y85008D01*
X105758D01*
Y83992D01*
X104742D01*
Y69992D02*
Y71008D01*
X105758D01*
Y69992D01*
X104742D01*
X102992Y66492D02*
Y67508D01*
X104008D01*
Y66492D01*
X102992D01*
X104742Y62992D02*
Y64008D01*
X105758D01*
Y62992D01*
X104742D01*
X102992Y59492D02*
Y60508D01*
X104008D01*
Y59492D01*
X102992D01*
X104742Y55992D02*
Y57008D01*
X105758D01*
Y55992D01*
X104742D01*
Y48992D02*
Y50008D01*
X105758D01*
Y48992D01*
X104742D01*
Y41992D02*
Y43008D01*
X105758D01*
Y41992D01*
X104742D01*
Y34992D02*
Y36008D01*
X105758D01*
Y34992D01*
X104742D01*
Y27992D02*
Y29008D01*
X105758D01*
Y27992D01*
X104742D01*
X99492Y87492D02*
Y88508D01*
X100508D01*
Y87492D01*
X99492D01*
X101242Y83992D02*
Y85008D01*
X102258D01*
Y83992D01*
X101242D01*
Y76992D02*
Y78008D01*
X102258D01*
Y76992D01*
X101242D01*
X99492Y73492D02*
Y74508D01*
X100508D01*
Y73492D01*
X99492D01*
X101242Y69992D02*
Y71008D01*
X102258D01*
Y69992D01*
X101242D01*
X99492Y59492D02*
Y60508D01*
X100508D01*
Y59492D01*
X99492D01*
X101242Y55992D02*
Y57008D01*
X102258D01*
Y55992D01*
X101242D01*
Y41992D02*
Y43008D01*
X102258D01*
Y41992D01*
X101242D01*
Y34992D02*
Y36008D01*
X102258D01*
Y34992D01*
X101242D01*
Y27992D02*
Y29008D01*
X102258D01*
Y27992D01*
X101242D01*
X95992Y87492D02*
Y88508D01*
X97008D01*
Y87492D01*
X95992D01*
X97742Y83992D02*
Y85008D01*
X98758D01*
Y83992D01*
X97742D01*
X95992Y80492D02*
Y81508D01*
X97008D01*
Y80492D01*
X95992D01*
Y73492D02*
Y74508D01*
X97008D01*
Y73492D01*
X95992D01*
X97742Y69992D02*
Y71008D01*
X98758D01*
Y69992D01*
X97742D01*
X95992Y59492D02*
Y60508D01*
X97008D01*
Y59492D01*
X95992D01*
X97742Y55992D02*
Y57008D01*
X98758D01*
Y55992D01*
X97742D01*
Y41992D02*
Y43008D01*
X98758D01*
Y41992D01*
X97742D01*
Y34992D02*
Y36008D01*
X98758D01*
Y34992D01*
X97742D01*
Y27992D02*
Y29008D01*
X98758D01*
Y27992D01*
X97742D01*
X92492Y87492D02*
Y88508D01*
X93508D01*
Y87492D01*
X92492D01*
X94242Y83992D02*
Y85008D01*
X95258D01*
Y83992D01*
X94242D01*
X92492Y80492D02*
Y81508D01*
X93508D01*
Y80492D01*
X92492D01*
X94242Y76992D02*
Y78008D01*
X95258D01*
Y76992D01*
X94242D01*
X92492Y73492D02*
Y74508D01*
X93508D01*
Y73492D01*
X92492D01*
X94242Y69992D02*
Y71008D01*
X95258D01*
Y69992D01*
X94242D01*
X92492Y59492D02*
Y60508D01*
X93508D01*
Y59492D01*
X92492D01*
X94242Y48992D02*
Y50008D01*
X95258D01*
Y48992D01*
X94242D01*
Y41992D02*
Y43008D01*
X95258D01*
Y41992D01*
X94242D01*
Y34992D02*
Y36008D01*
X95258D01*
Y34992D01*
X94242D01*
Y27992D02*
Y29008D01*
X95258D01*
Y27992D01*
X94242D01*
X88992Y87492D02*
Y88508D01*
X90008D01*
Y87492D01*
X88992D01*
X90742Y83992D02*
Y85008D01*
X91758D01*
Y83992D01*
X90742D01*
X88992Y80492D02*
Y81508D01*
X90008D01*
Y80492D01*
X88992D01*
X90742Y76992D02*
Y78008D01*
X91758D01*
Y76992D01*
X90742D01*
X88992Y73492D02*
Y74508D01*
X90008D01*
Y73492D01*
X88992D01*
X90742Y69992D02*
Y71008D01*
X91758D01*
Y69992D01*
X90742D01*
X88992Y66492D02*
Y67508D01*
X90008D01*
Y66492D01*
X88992D01*
X90742Y48992D02*
Y50008D01*
X91758D01*
Y48992D01*
X90742D01*
Y34992D02*
Y36008D01*
X91758D01*
Y34992D01*
X90742D01*
Y27992D02*
Y29008D01*
X91758D01*
Y27992D01*
X90742D01*
X85492Y87492D02*
Y88508D01*
X86508D01*
Y87492D01*
X85492D01*
X87242Y83992D02*
Y85008D01*
X88258D01*
Y83992D01*
X87242D01*
X85492Y80492D02*
Y81508D01*
X86508D01*
Y80492D01*
X85492D01*
X87242Y76992D02*
Y78008D01*
X88258D01*
Y76992D01*
X87242D01*
X85492Y73492D02*
Y74508D01*
X86508D01*
Y73492D01*
X85492D01*
X87242Y69992D02*
Y71008D01*
X88258D01*
Y69992D01*
X87242D01*
Y41992D02*
Y43008D01*
X88258D01*
Y41992D01*
X87242D01*
Y34992D02*
Y36008D01*
X88258D01*
Y34992D01*
X87242D01*
Y27992D02*
Y29008D01*
X88258D01*
Y27992D01*
X87242D01*
X81992Y87492D02*
Y88508D01*
X83008D01*
Y87492D01*
X81992D01*
X83742Y83992D02*
Y85008D01*
X84758D01*
Y83992D01*
X83742D01*
X81992Y80492D02*
Y81508D01*
X83008D01*
Y80492D01*
X81992D01*
X83742Y76992D02*
Y78008D01*
X84758D01*
Y76992D01*
X83742D01*
X81992Y73492D02*
Y74508D01*
X83008D01*
Y73492D01*
X81992D01*
X83742Y69992D02*
Y71008D01*
X84758D01*
Y69992D01*
X83742D01*
X81992Y66492D02*
Y67508D01*
X83008D01*
Y66492D01*
X81992D01*
X83742Y41992D02*
Y43008D01*
X84758D01*
Y41992D01*
X83742D01*
Y27992D02*
Y29008D01*
X84758D01*
Y27992D01*
X83742D01*
X78492Y87492D02*
Y88508D01*
X79508D01*
Y87492D01*
X78492D01*
X80242Y83992D02*
Y85008D01*
X81258D01*
Y83992D01*
X80242D01*
X78492Y80492D02*
Y81508D01*
X79508D01*
Y80492D01*
X78492D01*
X80242Y76992D02*
Y78008D01*
X81258D01*
Y76992D01*
X80242D01*
X78492Y73492D02*
Y74508D01*
X79508D01*
Y73492D01*
X78492D01*
X80242Y69992D02*
Y71008D01*
X81258D01*
Y69992D01*
X80242D01*
X78492Y66492D02*
Y67508D01*
X79508D01*
Y66492D01*
X78492D01*
Y59492D02*
Y60508D01*
X79508D01*
Y59492D01*
X78492D01*
X80242Y27992D02*
Y29008D01*
X81258D01*
Y27992D01*
X80242D01*
X74992Y87492D02*
Y88508D01*
X76008D01*
Y87492D01*
X74992D01*
Y73492D02*
Y74508D01*
X76008D01*
Y73492D01*
X74992D01*
X76742Y69992D02*
Y71008D01*
X77758D01*
Y69992D01*
X76742D01*
X74992Y59492D02*
Y60508D01*
X76008D01*
Y59492D01*
X74992D01*
X76742Y27992D02*
Y29008D01*
X77758D01*
Y27992D01*
X76742D01*
X71492Y87492D02*
Y88508D01*
X72508D01*
Y87492D01*
X71492D01*
X73242Y83992D02*
Y85008D01*
X74258D01*
Y83992D01*
X73242D01*
X71492Y80492D02*
Y81508D01*
X72508D01*
Y80492D01*
X71492D01*
X73242Y76992D02*
Y78008D01*
X74258D01*
Y76992D01*
X73242D01*
X71492Y73492D02*
Y74508D01*
X72508D01*
Y73492D01*
X71492D01*
X73242Y69992D02*
Y71008D01*
X74258D01*
Y69992D01*
X73242D01*
X64492Y87492D02*
Y88508D01*
X65508D01*
Y87492D01*
X64492D01*
X66242Y83992D02*
Y85008D01*
X67258D01*
Y83992D01*
X66242D01*
X64492Y80492D02*
Y81508D01*
X65508D01*
Y80492D01*
X64492D01*
X66242Y76992D02*
Y78008D01*
X67258D01*
Y76992D01*
X66242D01*
X64492Y73492D02*
Y74508D01*
X65508D01*
Y73492D01*
X64492D01*
X66242Y55992D02*
Y57008D01*
X67258D01*
Y55992D01*
X66242D01*
X64492Y31492D02*
Y32508D01*
X65508D01*
Y31492D01*
X64492D01*
X60992Y87492D02*
Y88508D01*
X62008D01*
Y87492D01*
X60992D01*
X62742Y83992D02*
Y85008D01*
X63758D01*
Y83992D01*
X62742D01*
Y76992D02*
Y78008D01*
X63758D01*
Y76992D01*
X62742D01*
X60992Y31492D02*
Y32508D01*
X62008D01*
Y31492D01*
X60992D01*
X62742Y27992D02*
Y29008D01*
X63758D01*
Y27992D01*
X62742D01*
X57492Y87492D02*
Y88508D01*
X58508D01*
Y87492D01*
X57492D01*
X59242Y83992D02*
Y85008D01*
X60258D01*
Y83992D01*
X59242D01*
Y76992D02*
Y78008D01*
X60258D01*
Y76992D01*
X59242D01*
X57492Y73492D02*
Y74508D01*
X58508D01*
Y73492D01*
X57492D01*
X59242Y69992D02*
Y71008D01*
X60258D01*
Y69992D01*
X59242D01*
Y62992D02*
Y64008D01*
X60258D01*
Y62992D01*
X59242D01*
Y55992D02*
Y57008D01*
X60258D01*
Y55992D01*
X59242D01*
Y41992D02*
Y43008D01*
X60258D01*
Y41992D01*
X59242D01*
X57492Y38492D02*
Y39508D01*
X58508D01*
Y38492D01*
X57492D01*
X59242Y27992D02*
Y29008D01*
X60258D01*
Y27992D01*
X59242D01*
X53992Y87492D02*
Y88508D01*
X55008D01*
Y87492D01*
X53992D01*
Y80492D02*
Y81508D01*
X55008D01*
Y80492D01*
X53992D01*
X55742Y69992D02*
Y71008D01*
X56758D01*
Y69992D01*
X55742D01*
Y55992D02*
Y57008D01*
X56758D01*
Y55992D01*
X55742D01*
Y41992D02*
Y43008D01*
X56758D01*
Y41992D01*
X55742D01*
X50492Y87492D02*
Y88508D01*
X51508D01*
Y87492D01*
X50492D01*
X52242Y76992D02*
Y78008D01*
X53258D01*
Y76992D01*
X52242D01*
X50492Y66492D02*
Y67508D01*
X51508D01*
Y66492D01*
X50492D01*
X52242Y55992D02*
Y57008D01*
X53258D01*
Y55992D01*
X52242D01*
X46992Y87492D02*
Y88508D01*
X48008D01*
Y87492D01*
X46992D01*
X48742Y76992D02*
Y78008D01*
X49758D01*
Y76992D01*
X48742D01*
X46992Y66492D02*
Y67508D01*
X48008D01*
Y66492D01*
X46992D01*
X48742Y55992D02*
Y57008D01*
X49758D01*
Y55992D01*
X48742D01*
Y41992D02*
Y43008D01*
X49758D01*
Y41992D01*
X48742D01*
X43492Y87492D02*
Y88508D01*
X44508D01*
Y87492D01*
X43492D01*
X45242Y76992D02*
Y78008D01*
X46258D01*
Y76992D01*
X45242D01*
X43492Y66492D02*
Y67508D01*
X44508D01*
Y66492D01*
X43492D01*
X45242Y62992D02*
Y64008D01*
X46258D01*
Y62992D01*
X45242D01*
Y55992D02*
Y57008D01*
X46258D01*
Y55992D01*
X45242D01*
X39992Y87492D02*
Y88508D01*
X41008D01*
Y87492D01*
X39992D01*
X41742Y76992D02*
Y78008D01*
X42758D01*
Y76992D01*
X41742D01*
Y62992D02*
Y64008D01*
X42758D01*
Y62992D01*
X41742D01*
Y55992D02*
Y57008D01*
X42758D01*
Y55992D01*
X41742D01*
X36492Y87492D02*
Y88508D01*
X37508D01*
Y87492D01*
X36492D01*
X38242Y76992D02*
Y78008D01*
X39258D01*
Y76992D01*
X38242D01*
X32992Y87492D02*
Y88508D01*
X34008D01*
Y87492D01*
X32992D01*
X34742Y76992D02*
Y78008D01*
X35758D01*
Y76992D01*
X34742D01*
Y69992D02*
Y71008D01*
X35758D01*
Y69992D01*
X34742D01*
X32992Y66492D02*
Y67508D01*
X34008D01*
Y66492D01*
X32992D01*
X34742Y62992D02*
Y64008D01*
X35758D01*
Y62992D01*
X34742D01*
X29492Y87492D02*
Y88508D01*
X30508D01*
Y87492D01*
X29492D01*
X31242Y83992D02*
Y85008D01*
X32258D01*
Y83992D01*
X31242D01*
Y76992D02*
Y78008D01*
X32258D01*
Y76992D01*
X31242D01*
X29492Y66492D02*
Y67508D01*
X30508D01*
Y66492D01*
X29492D01*
X31242Y62992D02*
Y64008D01*
X32258D01*
Y62992D01*
X31242D01*
X29492Y52492D02*
Y53508D01*
X30508D01*
Y52492D01*
X29492D01*
X25992Y87492D02*
Y88508D01*
X27008D01*
Y87492D01*
X25992D01*
X27742Y83992D02*
Y85008D01*
X28758D01*
Y83992D01*
X27742D01*
Y76992D02*
Y78008D01*
X28758D01*
Y76992D01*
X27742D01*
Y69992D02*
Y71008D01*
X28758D01*
Y69992D01*
X27742D01*
X25992Y66492D02*
Y67508D01*
X27008D01*
Y66492D01*
X25992D01*
Y52492D02*
Y53508D01*
X27008D01*
Y52492D01*
X25992D01*
X22492Y87492D02*
Y88508D01*
X23508D01*
Y87492D01*
X22492D01*
X24242Y76992D02*
Y78008D01*
X25258D01*
Y76992D01*
X24242D01*
Y69992D02*
Y71008D01*
X25258D01*
Y69992D01*
X24242D01*
X22492Y66492D02*
Y67508D01*
X23508D01*
Y66492D01*
X22492D01*
X24242Y62992D02*
Y64008D01*
X25258D01*
Y62992D01*
X24242D01*
X22492Y59492D02*
Y60508D01*
X23508D01*
Y59492D01*
X22492D01*
X24242Y48992D02*
Y50008D01*
X25258D01*
Y48992D01*
X24242D01*
X18992Y87492D02*
Y88508D01*
X20008D01*
Y87492D01*
X18992D01*
X20742Y83992D02*
Y85008D01*
X21758D01*
Y83992D01*
X20742D01*
X18992Y80492D02*
Y81508D01*
X20008D01*
Y80492D01*
X18992D01*
X20742Y76992D02*
Y78008D01*
X21758D01*
Y76992D01*
X20742D01*
X18992Y45492D02*
Y46508D01*
X20008D01*
Y45492D01*
X18992D01*
X15492Y87492D02*
Y88508D01*
X16508D01*
Y87492D01*
X15492D01*
X17242Y83992D02*
Y85008D01*
X18258D01*
Y83992D01*
X17242D01*
X15492Y80492D02*
Y81508D01*
X16508D01*
Y80492D01*
X15492D01*
Y45492D02*
Y46508D01*
X16508D01*
Y45492D01*
X15492D01*
X11992Y87492D02*
Y88508D01*
X13008D01*
Y87492D01*
X11992D01*
X13742Y83992D02*
Y85008D01*
X14758D01*
Y83992D01*
X13742D01*
X11992Y80492D02*
Y81508D01*
X13008D01*
Y80492D01*
X11992D01*
Y73492D02*
Y74508D01*
X13008D01*
Y73492D01*
X11992D01*
Y59492D02*
Y60508D01*
X13008D01*
Y59492D01*
X11992D01*
Y52492D02*
Y53508D01*
X13008D01*
Y52492D01*
X11992D01*
Y45492D02*
Y46508D01*
X13008D01*
Y45492D01*
X11992D01*
X8492Y87492D02*
Y88508D01*
X9508D01*
Y87492D01*
X8492D01*
X10242Y83992D02*
Y85008D01*
X11258D01*
Y83992D01*
X10242D01*
X8492Y80492D02*
Y81508D01*
X9508D01*
Y80492D01*
X8492D01*
Y73492D02*
Y74508D01*
X9508D01*
Y73492D01*
X8492D01*
X10242Y69992D02*
Y71008D01*
X11258D01*
Y69992D01*
X10242D01*
Y62992D02*
Y64008D01*
X11258D01*
Y62992D01*
X10242D01*
X8492Y59492D02*
Y60508D01*
X9508D01*
Y59492D01*
X8492D01*
Y52492D02*
Y53508D01*
X9508D01*
Y52492D01*
X8492D01*
X10242Y48992D02*
Y50008D01*
X11258D01*
Y48992D01*
X10242D01*
X8492Y45492D02*
Y46508D01*
X9508D01*
Y45492D01*
X8492D01*
X4992Y73492D02*
Y74508D01*
X6008D01*
Y73492D01*
X4992D01*
X6742Y69992D02*
Y71008D01*
X7758D01*
Y69992D01*
X6742D01*
Y62992D02*
Y64008D01*
X7758D01*
Y62992D01*
X6742D01*
X4992Y59492D02*
Y60508D01*
X6008D01*
Y59492D01*
X4992D01*
X6742Y48992D02*
Y50008D01*
X7758D01*
Y48992D01*
X6742D01*
X4992Y45492D02*
Y46508D01*
X6008D01*
Y45492D01*
X4992D01*
X1492Y80492D02*
Y81508D01*
X2508D01*
Y80492D01*
X1492D01*
X3242Y76992D02*
Y78008D01*
X4258D01*
Y76992D01*
X3242D01*
X1492Y73492D02*
Y74508D01*
X2508D01*
Y73492D01*
X1492D01*
X3242Y69992D02*
Y71008D01*
X4258D01*
Y69992D01*
X3242D01*
X1492Y66492D02*
Y67508D01*
X2508D01*
Y66492D01*
X1492D01*
X3242Y62992D02*
Y64008D01*
X4258D01*
Y62992D01*
X3242D01*
X1492Y59492D02*
Y60508D01*
X2508D01*
Y59492D01*
X1492D01*
X3242Y55992D02*
Y57008D01*
X4258D01*
Y55992D01*
X3242D01*
X1492Y52492D02*
Y53508D01*
X2508D01*
Y52492D01*
X1492D01*
X3242Y48992D02*
Y50008D01*
X4258D01*
Y48992D01*
X3242D01*
X1492Y45492D02*
Y46508D01*
X2508D01*
Y45492D01*
X1492D01*
X3242Y41992D02*
Y43008D01*
X4258D01*
Y41992D01*
X3242D01*
X34742Y6992D02*
Y8008D01*
X35758D01*
Y6992D01*
X34742D01*
X136242Y69992D02*
Y71008D01*
X137258D01*
Y69992D01*
X136242D01*
X36492Y10492D02*
Y11508D01*
X37508D01*
Y10492D01*
X36492D01*
X25992Y3492D02*
Y4508D01*
X27008D01*
Y3492D01*
X25992D01*
X139742Y34992D02*
Y36008D01*
X140758D01*
Y34992D01*
X139742D01*
X10242Y20992D02*
Y22008D01*
X11258D01*
Y20992D01*
X10242D01*
X122242Y13992D02*
Y15008D01*
X123258D01*
Y13992D01*
X122242D01*
X13742Y6992D02*
Y8008D01*
X14758D01*
Y6992D01*
X13742D01*
X46992Y10492D02*
Y11508D01*
X48008D01*
Y10492D01*
X46992D01*
X22492D02*
Y11508D01*
X23508D01*
Y10492D01*
X22492D01*
X27742Y6992D02*
Y8008D01*
X28758D01*
Y6992D01*
X27742D01*
X45242Y13992D02*
Y15008D01*
X46258D01*
Y13992D01*
X45242D01*
Y27992D02*
Y29008D01*
X46258D01*
Y27992D01*
X45242D01*
X134492Y3492D02*
Y4508D01*
X135508D01*
Y3492D01*
X134492D01*
X139742Y13992D02*
Y15008D01*
X140758D01*
Y13992D01*
X139742D01*
X88992Y3492D02*
Y4508D01*
X90008D01*
Y3492D01*
X88992D01*
X39992D02*
Y4508D01*
X41008D01*
Y3492D01*
X39992D01*
X18992Y31492D02*
Y32508D01*
X20008D01*
Y31492D01*
X18992D01*
X94242Y13992D02*
Y15008D01*
X95258D01*
Y13992D01*
X94242D01*
X143242Y20992D02*
Y22008D01*
X144258D01*
Y20992D01*
X143242D01*
X13742D02*
Y22008D01*
X14758D01*
Y20992D01*
X13742D01*
X11992Y24492D02*
Y25508D01*
X13008D01*
Y24492D01*
X11992D01*
X115242Y6992D02*
Y8008D01*
X116258D01*
Y6992D01*
X115242D01*
X137992Y3492D02*
Y4508D01*
X139008D01*
Y3492D01*
X137992D01*
X136242Y48992D02*
Y50008D01*
X137258D01*
Y48992D01*
X136242D01*
X6742Y34992D02*
Y36008D01*
X7758D01*
Y34992D01*
X6742D01*
X143242D02*
Y36008D01*
X144258D01*
Y34992D01*
X143242D01*
X148492Y59492D02*
Y60508D01*
X149508D01*
Y59492D01*
X148492D01*
X88992Y10492D02*
Y11508D01*
X90008D01*
Y10492D01*
X88992D01*
X148492Y80492D02*
Y81508D01*
X149508D01*
Y80492D01*
X148492D01*
X137992Y17492D02*
Y18508D01*
X139008D01*
Y17492D01*
X137992D01*
X139742Y76992D02*
Y78008D01*
X140758D01*
Y76992D01*
X139742D01*
X3242Y20992D02*
Y22008D01*
X4258D01*
Y20992D01*
X3242D01*
X122242D02*
Y22008D01*
X123258D01*
Y20992D01*
X122242D01*
X129242Y27992D02*
Y29008D01*
X130258D01*
Y27992D01*
X129242D01*
X50492Y3492D02*
Y4508D01*
X51508D01*
Y3492D01*
X50492D01*
X10242Y34992D02*
Y36008D01*
X11258D01*
Y34992D01*
X10242D01*
X144992Y17492D02*
Y18508D01*
X146008D01*
Y17492D01*
X144992D01*
X8492Y24492D02*
Y25508D01*
X9508D01*
Y24492D01*
X8492D01*
X137992Y80492D02*
Y81508D01*
X139008D01*
Y80492D01*
X137992D01*
X139742Y48992D02*
Y50008D01*
X140758D01*
Y48992D01*
X139742D01*
X50492Y10492D02*
Y11508D01*
X51508D01*
Y10492D01*
X50492D01*
X115242Y13992D02*
Y15008D01*
X116258D01*
Y13992D01*
X115242D01*
X11992Y31492D02*
Y32508D01*
X13008D01*
Y31492D01*
X11992D01*
Y10492D02*
Y11508D01*
X13008D01*
Y10492D01*
X11992D01*
X150242Y62992D02*
Y64008D01*
X151258D01*
Y62992D01*
X150242D01*
X13742Y34992D02*
Y36008D01*
X14758D01*
Y34992D01*
X13742D01*
X137992Y45492D02*
Y46508D01*
X139008D01*
Y45492D01*
X137992D01*
X141492Y10492D02*
Y11508D01*
X142508D01*
Y10492D01*
X141492D01*
X102992Y3492D02*
Y4508D01*
X104008D01*
Y3492D01*
X102992D01*
X118742Y6992D02*
Y8008D01*
X119758D01*
Y6992D01*
X118742D01*
X8492Y31492D02*
Y32508D01*
X9508D01*
Y31492D01*
X8492D01*
X136242Y27992D02*
Y29008D01*
X137258D01*
Y27992D01*
X136242D01*
X137992Y31492D02*
Y32508D01*
X139008D01*
Y31492D01*
X137992D01*
X148492Y45492D02*
Y46508D01*
X149508D01*
Y45492D01*
X148492D01*
X17242Y20992D02*
Y22008D01*
X18258D01*
Y20992D01*
X17242D01*
X146742Y48992D02*
Y50008D01*
X147758D01*
Y48992D01*
X146742D01*
X150242Y55992D02*
Y57008D01*
X151258D01*
Y55992D01*
X150242D01*
X139742Y6992D02*
Y8008D01*
X140758D01*
Y6992D01*
X139742D01*
X41742D02*
Y8008D01*
X42758D01*
Y6992D01*
X41742D01*
X85492Y3492D02*
Y4508D01*
X86508D01*
Y3492D01*
X85492D01*
X3242Y13992D02*
Y15008D01*
X4258D01*
Y13992D01*
X3242D01*
X144992Y38492D02*
Y39508D01*
X146008D01*
Y38492D01*
X144992D01*
X10242Y13992D02*
Y15008D01*
X11258D01*
Y13992D01*
X10242D01*
X111742D02*
Y15008D01*
X112758D01*
Y13992D01*
X111742D01*
X102992Y10492D02*
Y11508D01*
X104008D01*
Y10492D01*
X102992D01*
X18992D02*
Y11508D01*
X20008D01*
Y10492D01*
X18992D01*
X137992Y24492D02*
Y25508D01*
X139008D01*
Y24492D01*
X137992D01*
X127492Y10492D02*
Y11508D01*
X128508D01*
Y10492D01*
X127492D01*
X6742Y13992D02*
Y15008D01*
X7758D01*
Y13992D01*
X6742D01*
X118742D02*
Y15008D01*
X119758D01*
Y13992D01*
X118742D01*
X113492Y10492D02*
Y11508D01*
X114508D01*
Y10492D01*
X113492D01*
X125742Y6992D02*
Y8008D01*
X126758D01*
Y6992D01*
X125742D01*
X20742D02*
Y8008D01*
X21758D01*
Y6992D01*
X20742D01*
X134492Y59492D02*
Y60508D01*
X135508D01*
Y59492D01*
X134492D01*
X101242Y13992D02*
Y15008D01*
X102258D01*
Y13992D01*
X101242D01*
X134492Y45492D02*
Y46508D01*
X135508D01*
Y45492D01*
X134492D01*
X10242Y6992D02*
Y8008D01*
X11258D01*
Y6992D01*
X10242D01*
X150242Y48992D02*
Y50008D01*
X151258D01*
Y48992D01*
X150242D01*
X87242Y6992D02*
Y8008D01*
X88258D01*
Y6992D01*
X87242D01*
X85492Y10492D02*
Y11508D01*
X86508D01*
Y10492D01*
X85492D01*
X137992Y38492D02*
Y39508D01*
X139008D01*
Y38492D01*
X137992D01*
X150242Y69992D02*
Y71008D01*
X151258D01*
Y69992D01*
X150242D01*
X148492Y10492D02*
Y11508D01*
X149508D01*
Y10492D01*
X148492D01*
X48742Y6992D02*
Y8008D01*
X49758D01*
Y6992D01*
X48742D01*
X137992Y10492D02*
Y11508D01*
X139008D01*
Y10492D01*
X137992D01*
X139742Y27992D02*
Y29008D01*
X140758D01*
Y27992D01*
X139742D01*
X22492Y31492D02*
Y32508D01*
X23508D01*
Y31492D01*
X22492D01*
X108242Y6992D02*
Y8008D01*
X109258D01*
Y6992D01*
X108242D01*
X45242D02*
Y8008D01*
X46258D01*
Y6992D01*
X45242D01*
X32992Y3492D02*
Y4508D01*
X34008D01*
Y3492D01*
X32992D01*
X101242Y6992D02*
Y8008D01*
X102258D01*
Y6992D01*
X101242D01*
X6742Y20992D02*
Y22008D01*
X7758D01*
Y20992D01*
X6742D01*
X41742Y13992D02*
Y15008D01*
X42758D01*
Y13992D01*
X41742D01*
X139742Y20992D02*
Y22008D01*
X140758D01*
Y20992D01*
X139742D01*
X116992Y3492D02*
Y4508D01*
X118008D01*
Y3492D01*
X116992D01*
X134492Y38492D02*
Y39508D01*
X135508D01*
Y38492D01*
X134492D01*
X24242Y6992D02*
Y8008D01*
X25258D01*
Y6992D01*
X24242D01*
X136242Y55992D02*
Y57008D01*
X137258D01*
Y55992D01*
X136242D01*
X144992Y10492D02*
Y11508D01*
X146008D01*
Y10492D01*
X144992D01*
X122242Y6992D02*
Y8008D01*
X123258D01*
Y6992D01*
X122242D01*
X109992Y3492D02*
Y4508D01*
X111008D01*
Y3492D01*
X109992D01*
X4992Y24492D02*
Y25508D01*
X6008D01*
Y24492D01*
X4992D01*
X134492Y31492D02*
Y32508D01*
X135508D01*
Y31492D01*
X134492D01*
X8492Y10492D02*
Y11508D01*
X9508D01*
Y10492D01*
X8492D01*
X41742Y27992D02*
Y29008D01*
X42758D01*
Y27992D01*
X41742D01*
X15492Y10492D02*
Y11508D01*
X16508D01*
Y10492D01*
X15492D01*
X146742Y69992D02*
Y71008D01*
X147758D01*
Y69992D01*
X146742D01*
X143242Y41992D02*
Y43008D01*
X144258D01*
Y41992D01*
X143242D01*
X1492Y17492D02*
Y18508D01*
X2508D01*
Y17492D01*
X1492D01*
X123992Y3492D02*
Y4508D01*
X125008D01*
Y3492D01*
X123992D01*
X17242Y6992D02*
Y8008D01*
X18258D01*
Y6992D01*
X17242D01*
X141492Y31492D02*
Y32508D01*
X142508D01*
Y31492D01*
X141492D01*
Y45492D02*
Y46508D01*
X142508D01*
Y45492D01*
X141492D01*
X146742Y34992D02*
Y36008D01*
X147758D01*
Y34992D01*
X146742D01*
Y20992D02*
Y22008D01*
X147758D01*
Y20992D01*
X146742D01*
X148492Y38492D02*
Y39508D01*
X149508D01*
Y38492D01*
X148492D01*
X144992Y24492D02*
Y25508D01*
X146008D01*
Y24492D01*
X144992D01*
X3242Y27992D02*
Y29008D01*
X4258D01*
Y27992D01*
X3242D01*
X143242Y76992D02*
Y78008D01*
X144258D01*
Y76992D01*
X143242D01*
X22492Y17492D02*
Y18508D01*
X23508D01*
Y17492D01*
X22492D01*
X104742Y13992D02*
Y15008D01*
X105758D01*
Y13992D01*
X104742D01*
X136242Y41992D02*
Y43008D01*
X137258D01*
Y41992D01*
X136242D01*
X134492Y66492D02*
Y67508D01*
X135508D01*
Y66492D01*
X134492D01*
X148492Y17492D02*
Y18508D01*
X149508D01*
Y17492D01*
X148492D01*
X141492Y80492D02*
Y81508D01*
X142508D01*
Y80492D01*
X141492D01*
X106492Y10492D02*
Y11508D01*
X107508D01*
Y10492D01*
X106492D01*
X92492D02*
Y11508D01*
X93508D01*
Y10492D01*
X92492D01*
X99492D02*
Y11508D01*
X100508D01*
Y10492D01*
X99492D01*
X123992D02*
Y11508D01*
X125008D01*
Y10492D01*
X123992D01*
X109992D02*
Y11508D01*
X111008D01*
Y10492D01*
X109992D01*
X134492D02*
Y11508D01*
X135508D01*
Y10492D01*
X134492D01*
X132742Y6992D02*
Y8008D01*
X133758D01*
Y6992D01*
X132742D01*
X120492Y10492D02*
Y11508D01*
X121508D01*
Y10492D01*
X120492D01*
X141492Y38492D02*
Y39508D01*
X142508D01*
Y38492D01*
X141492D01*
X130992Y31492D02*
Y32508D01*
X132008D01*
Y31492D01*
X130992D01*
X146742Y55992D02*
Y57008D01*
X147758D01*
Y55992D01*
X146742D01*
X141492Y17492D02*
Y18508D01*
X142508D01*
Y17492D01*
X141492D01*
X143242Y69992D02*
Y71008D01*
X144258D01*
Y69992D01*
X143242D01*
X36492Y3492D02*
Y4508D01*
X37508D01*
Y3492D01*
X36492D01*
X22492D02*
Y4508D01*
X23508D01*
Y3492D01*
X22492D01*
X132742Y13992D02*
Y15008D01*
X133758D01*
Y13992D01*
X132742D01*
X108242D02*
Y15008D01*
X109258D01*
Y13992D01*
X108242D01*
X116992Y10492D02*
Y11508D01*
X118008D01*
Y10492D01*
X116992D01*
X11992Y3492D02*
Y4508D01*
X13008D01*
Y3492D01*
X11992D01*
X104742Y6992D02*
Y8008D01*
X105758D01*
Y6992D01*
X104742D01*
X144992Y66492D02*
Y67508D01*
X146008D01*
Y66492D01*
X144992D01*
X3242Y34992D02*
Y36008D01*
X4258D01*
Y34992D01*
X3242D01*
X18992Y3492D02*
Y4508D01*
X20008D01*
Y3492D01*
X18992D01*
X38242Y6992D02*
Y8008D01*
X39258D01*
Y6992D01*
X38242D01*
X13742Y13992D02*
Y15008D01*
X14758D01*
Y13992D01*
X13742D01*
X148492Y24492D02*
Y25508D01*
X149508D01*
Y24492D01*
X148492D01*
X141492D02*
Y25508D01*
X142508D01*
Y24492D01*
X141492D01*
X130992Y10492D02*
Y11508D01*
X132008D01*
Y10492D01*
X130992D01*
X90742Y13992D02*
Y15008D01*
X91758D01*
Y13992D01*
X90742D01*
X139742Y69992D02*
Y71008D01*
X140758D01*
Y69992D01*
X139742D01*
X132742Y27992D02*
Y29008D01*
X133758D01*
Y27992D01*
X132742D01*
X43492Y3492D02*
Y4508D01*
X44508D01*
Y3492D01*
X43492D01*
X87242Y13992D02*
Y15008D01*
X88258D01*
Y13992D01*
X87242D01*
X148492Y31492D02*
Y32508D01*
X149508D01*
Y31492D01*
X148492D01*
X31242Y6992D02*
Y8008D01*
X32258D01*
Y6992D01*
X31242D01*
X130992Y3492D02*
Y4508D01*
X132008D01*
Y3492D01*
X130992D01*
X146742Y27992D02*
Y29008D01*
X147758D01*
Y27992D01*
X146742D01*
X106492Y3492D02*
Y4508D01*
X107508D01*
Y3492D01*
X106492D01*
X146742Y13992D02*
Y15008D01*
X147758D01*
Y13992D01*
X146742D01*
X144992Y73492D02*
Y74508D01*
X146008D01*
Y73492D01*
X144992D01*
X46992Y3492D02*
Y4508D01*
X48008D01*
Y3492D01*
X46992D01*
X29492D02*
Y4508D01*
X30508D01*
Y3492D01*
X29492D01*
X136242Y76992D02*
Y78008D01*
X137258D01*
Y76992D01*
X136242D01*
X111742Y6992D02*
Y8008D01*
X112758D01*
Y6992D01*
X111742D01*
X139742Y41992D02*
Y43008D01*
X140758D01*
Y41992D01*
X139742D01*
X99492Y3492D02*
Y4508D01*
X100508D01*
Y3492D01*
X99492D01*
X1492Y24492D02*
Y25508D01*
X2508D01*
Y24492D01*
X1492D01*
X125742Y13992D02*
Y15008D01*
X126758D01*
Y13992D01*
X125742D01*
X143242Y48992D02*
Y50008D01*
X144258D01*
Y48992D01*
X143242D01*
X146742Y41992D02*
Y43008D01*
X147758D01*
Y41992D01*
X146742D01*
X15492Y24492D02*
Y25508D01*
X16508D01*
Y24492D01*
X15492D01*
X136242Y6992D02*
Y8008D01*
X137258D01*
Y6992D01*
X136242D01*
X48742Y27992D02*
Y29008D01*
X49758D01*
Y27992D01*
X48742D01*
X95992Y10492D02*
Y11508D01*
X97008D01*
Y10492D01*
X95992D01*
X22492Y24492D02*
Y25508D01*
X23508D01*
Y24492D01*
X22492D01*
X1492Y31492D02*
Y32508D01*
X2508D01*
Y31492D01*
X1492D01*
X129242Y6992D02*
Y8008D01*
X130258D01*
Y6992D01*
X129242D01*
X127492Y3492D02*
Y4508D01*
X128508D01*
Y3492D01*
X127492D01*
X4992Y10492D02*
Y11508D01*
X6008D01*
Y10492D01*
X4992D01*
X136242Y13992D02*
Y15008D01*
X137258D01*
Y13992D01*
X136242D01*
X97742D02*
Y15008D01*
X98758D01*
Y13992D01*
X97742D01*
X116992Y17492D02*
Y18508D01*
X118008D01*
Y17492D01*
X116992D01*
X1492Y10492D02*
Y11508D01*
X2508D01*
Y10492D01*
X1492D01*
X143242Y27992D02*
Y29008D01*
X144258D01*
Y27992D01*
X143242D01*
X141492Y66492D02*
Y67508D01*
X142508D01*
Y66492D01*
X141492D01*
X129242Y13992D02*
Y15008D01*
X130258D01*
Y13992D01*
X129242D01*
X143242Y55992D02*
Y57008D01*
X144258D01*
Y55992D01*
X143242D01*
X120492Y3492D02*
Y4508D01*
X121508D01*
Y3492D01*
X120492D01*
X136242Y34992D02*
Y36008D01*
X137258D01*
Y34992D01*
X136242D01*
X144992Y31492D02*
Y32508D01*
X146008D01*
Y31492D01*
X144992D01*
X17242Y34992D02*
Y36008D01*
X18258D01*
Y34992D01*
X17242D01*
X113492Y3492D02*
Y4508D01*
X114508D01*
Y3492D01*
X113492D01*
X137992Y66492D02*
Y67508D01*
X139008D01*
Y66492D01*
X137992D01*
X148492D02*
Y67508D01*
X149508D01*
Y66492D01*
X148492D01*
X48742Y13992D02*
Y15008D01*
X49758D01*
Y13992D01*
X48742D01*
X72153Y44146D02*
X71645Y45162D01*
X72661D01*
X72153Y44146D01*
X70953Y45502D02*
X70445Y46518D01*
X71461D01*
X70953Y45502D01*
X69400Y25442D02*
X68892Y26458D01*
X69908D01*
X69400Y25442D01*
X72245Y16774D02*
X71737Y17790D01*
X72753D01*
X72245Y16774D01*
X67000Y31492D02*
X66492Y32508D01*
X67508D01*
X67000Y31492D01*
X27795Y73459D02*
X27287Y74475D01*
X28303D01*
X27795Y73459D01*
X29021D02*
X28513Y74475D01*
X29529D01*
X29021Y73459D01*
X30247D02*
X29740Y74475D01*
X30756D01*
X30247Y73459D01*
X31474D02*
X30966Y74475D01*
X31982D01*
X31474Y73459D01*
X32700D02*
X32192Y74475D01*
X33208D01*
X32700Y73459D01*
X15419Y73992D02*
X14911Y75008D01*
X15927D01*
X15419Y73992D01*
X16444D02*
X15936Y75008D01*
X16952D01*
X16444Y73992D01*
X17469D02*
X16961Y75008D01*
X17977D01*
X17469Y73992D01*
X15419Y68912D02*
X14911Y69928D01*
X15927D01*
X15419Y68912D01*
X16444D02*
X15936Y69928D01*
X16952D01*
X16444Y68912D01*
X17469D02*
X16961Y69928D01*
X17977D01*
X17469Y68912D01*
X15419Y63832D02*
X14911Y64848D01*
X15927D01*
X15419Y63832D01*
X16444D02*
X15936Y64848D01*
X16952D01*
X16444Y63832D01*
X17469D02*
X16961Y64848D01*
X17977D01*
X17469Y63832D01*
X15419Y58752D02*
X14911Y59768D01*
X15927D01*
X15419Y58752D01*
X16444D02*
X15936Y59768D01*
X16952D01*
X16444Y58752D01*
X17469D02*
X16961Y59768D01*
X17977D01*
X17469Y58752D01*
Y53672D02*
X16961Y54688D01*
X17977D01*
X17469Y53672D01*
X16444D02*
X15936Y54688D01*
X16952D01*
X16444Y53672D01*
X15419D02*
X14911Y54688D01*
X15927D01*
X15419Y53672D01*
X127190Y61387D02*
X126682Y62403D01*
X127698D01*
X127190Y61387D01*
X77373Y17619D02*
X76865Y18635D01*
X77881D01*
X77373Y17619D01*
X87100Y25880D02*
X86592Y26896D01*
X87608D01*
X87100Y25880D01*
X51895Y26878D02*
X51387Y27894D01*
X52403D01*
X51895Y26878D01*
X94197Y29942D02*
X93689Y30958D01*
X94705D01*
X94197Y29942D01*
X69000Y67492D02*
X68492Y68508D01*
X69508D01*
X69000Y67492D01*
X72153Y29332D02*
X71645Y30348D01*
X72661D01*
X72153Y29332D01*
X74260D02*
X73752Y30348D01*
X74768D01*
X74260Y29332D01*
X26498Y11492D02*
X25990Y12508D01*
X27006D01*
X26498Y11492D01*
X28349D02*
X27841Y12508D01*
X28857D01*
X28349Y11492D01*
X30200D02*
X29692Y12508D01*
X30708D01*
X30200Y11492D01*
X38000Y50174D02*
X37492Y51190D01*
X38508D01*
X38000Y50174D01*
X65607Y44405D02*
X65099Y45421D01*
X66115D01*
X65607Y44405D01*
X73469Y42918D02*
X72961Y43934D01*
X73977D01*
X73469Y42918D01*
X72783Y43502D02*
X72275Y44518D01*
X73291D01*
X72783Y43502D01*
X61200Y43634D02*
X60692Y44650D01*
X61708D01*
X61200Y43634D01*
X61700Y49592D02*
X61192Y50608D01*
X62208D01*
X61700Y49592D01*
X62500Y48186D02*
X61992Y49202D01*
X63008D01*
X62500Y48186D01*
X124250Y67492D02*
X123742Y68508D01*
X124758D01*
X124250Y67492D01*
X76381Y55160D02*
X75873Y56176D01*
X76889D01*
X76381Y55160D01*
X76299Y44454D02*
X75791Y45470D01*
X76807D01*
X76299Y44454D01*
X74218Y42223D02*
X73710Y43239D01*
X74726D01*
X74218Y42223D01*
X76055Y36492D02*
X75547Y37508D01*
X76563D01*
X76055Y36492D01*
X79223Y43019D02*
X78715Y44035D01*
X79731D01*
X79223Y43019D01*
X77043Y43570D02*
X76535Y44586D01*
X77551D01*
X77043Y43570D01*
X74010Y48186D02*
X73502Y49202D01*
X74518D01*
X74010Y48186D01*
X85470Y66476D02*
X84963Y67492D01*
X85979D01*
X85470Y66476D01*
X29800Y23192D02*
X29292Y24208D01*
X30308D01*
X29800Y23192D01*
X33050D02*
X32542Y24208D01*
X33558D01*
X33050Y23192D01*
X35000D02*
X34492Y24208D01*
X35508D01*
X35000Y23192D01*
X38250D02*
X37742Y24208D01*
X38758D01*
X38250Y23192D01*
X78263Y41827D02*
X77755Y42843D01*
X78771D01*
X78263Y41827D01*
X77626Y42693D02*
X77118Y43709D01*
X78134D01*
X77626Y42693D01*
X78839Y40814D02*
X78331Y41830D01*
X79347D01*
X78839Y40814D01*
X28098Y26983D02*
X27590Y27999D01*
X28606D01*
X28098Y26983D01*
X20700Y17692D02*
X20192Y18708D01*
X21208D01*
X20700Y17692D01*
X21700Y12612D02*
X21192Y13628D01*
X22208D01*
X21700Y12612D01*
X40000Y26983D02*
X39492Y27999D01*
X40508D01*
X40000Y26983D01*
X38000Y21492D02*
X37492Y22508D01*
X38508D01*
X38000Y21492D01*
X35000D02*
X34492Y22508D01*
X35508D01*
X35000Y21492D01*
X33050D02*
X32542Y22508D01*
X33558D01*
X33050Y21492D01*
X30000D02*
X29492Y22508D01*
X30508D01*
X30000Y21492D01*
X104000Y48738D02*
X103492Y49754D01*
X104508D01*
X104000Y48738D01*
X31400Y40492D02*
X30892Y41508D01*
X31908D01*
X31400Y40492D01*
X28960Y59453D02*
X28452Y60469D01*
X29468D01*
X28960Y59453D01*
Y60451D02*
X28452Y61467D01*
X29468D01*
X28960Y60451D01*
Y61438D02*
X28452Y62454D01*
X29468D01*
X28960Y61438D01*
Y62440D02*
X28452Y63456D01*
X29468D01*
X28960Y62440D01*
Y63441D02*
X28452Y64457D01*
X29468D01*
X28960Y63441D01*
X85000Y53492D02*
X84492Y54508D01*
X85508D01*
X85000Y53492D01*
X86600Y49492D02*
X86092Y50508D01*
X87108D01*
X86600Y49492D01*
X38300Y75241D02*
X37792Y76257D01*
X38808D01*
X38300Y75241D01*
X79500Y52992D02*
X78992Y54008D01*
X80008D01*
X79500Y52992D01*
X116275Y46692D02*
X115767Y47708D01*
X116783D01*
X116275Y46692D01*
X104816Y50612D02*
X104308Y51628D01*
X105324D01*
X104816Y50612D01*
X53900Y36492D02*
X53392Y37508D01*
X54408D01*
X53900Y36492D01*
X70900Y51992D02*
X70392Y53008D01*
X71408D01*
X70900Y51992D01*
X75000Y34992D02*
X74492Y36008D01*
X75508D01*
X75000Y34992D01*
X59748Y47492D02*
X59240Y48508D01*
X60256D01*
X59748Y47492D01*
X74100Y35992D02*
X73592Y37008D01*
X74608D01*
X74100Y35992D01*
X36902Y40492D02*
X36394Y41508D01*
X37410D01*
X36902Y40492D01*
X39000Y45492D02*
X38492Y46508D01*
X39508D01*
X39000Y45492D01*
X38250Y40092D02*
X37742Y41108D01*
X38758D01*
X38250Y40092D01*
X19700Y22772D02*
X19192Y23788D01*
X20208D01*
X19700Y22772D01*
D113*
X73008Y6500D02*
G03*
X73008Y6500I-508J0D01*
G01*
X75508D02*
G03*
X75508Y6500I-508J0D01*
G01*
X78008D02*
G03*
X78008Y6500I-508J0D01*
G01*
X73008Y21000D02*
G03*
X73008Y21000I-508J0D01*
G01*
X78008D02*
G03*
X78008Y21000I-508J0D01*
G01*
X77508Y80300D02*
G03*
X77508Y80300I-508J0D01*
G01*
Y77760D02*
G03*
X77508Y77760I-508J0D01*
G01*
Y75220D02*
G03*
X77508Y75220I-508J0D01*
G01*
X131008Y82000D02*
G03*
X131008Y82000I-508J0D01*
G01*
X134508D02*
G03*
X134508Y82000I-508J0D01*
G01*
D114*
X130805D02*
G03*
X130805Y82000I-305J0D01*
G01*
X134305D02*
G03*
X134305Y82000I-305J0D01*
G01*
%TF.MD5,1c0a6cf3cd432c4d8d6fd323355ff2f3*%
M02*
