%TF.GenerationSoftware,Altium Limited,Altium Designer,22.11.1 (43)*%
G04 Layer_Color=255*
%FSLAX43Y43*%
%MOMM*%
%TF.SameCoordinates,713154A8-74CC-4FB3-A553-2C66CAAA5226*%
%TF.FilePolarity,Positive*%
%TF.FileFunction,Pads,Top*%
%TF.Part,Single*%
G01*
G75*
%TA.AperFunction,SMDPad,CuDef*%
%ADD10R,1.450X1.200*%
%ADD11R,1.350X1.000*%
%ADD12R,3.800X2.030*%
%ADD13R,2.030X3.800*%
%ADD14R,2.000X2.000*%
%ADD15R,6.500X3.500*%
%ADD16R,1.055X1.356*%
%ADD17R,1.550X1.350*%
%ADD18R,1.356X1.055*%
%TA.AperFunction,SMDPad,SMDef*%
%ADD19R,5.300X0.900*%
%TA.AperFunction,SMDPad,CuDef*%
%ADD20R,4.100X2.000*%
%ADD21R,1.150X1.450*%
%ADD22R,1.200X1.450*%
%ADD23R,0.700X0.600*%
%ADD24R,3.400X1.500*%
%ADD25R,3.500X1.000*%
%ADD26R,2.200X2.800*%
%ADD27R,2.800X2.800*%
G04:AMPARAMS|DCode=28|XSize=1.524mm|YSize=0.578mm|CornerRadius=0.289mm|HoleSize=0mm|Usage=FLASHONLY|Rotation=0.000|XOffset=0mm|YOffset=0mm|HoleType=Round|Shape=RoundedRectangle|*
%AMROUNDEDRECTD28*
21,1,1.524,0.000,0,0,0.0*
21,1,0.946,0.578,0,0,0.0*
1,1,0.578,0.473,0.000*
1,1,0.578,-0.473,0.000*
1,1,0.578,-0.473,0.000*
1,1,0.578,0.473,0.000*
%
%ADD28ROUNDEDRECTD28*%
%ADD29R,1.524X0.578*%
%ADD30R,1.456X1.255*%
%ADD31R,0.950X1.350*%
%ADD32R,1.250X1.550*%
G04:AMPARAMS|DCode=33|XSize=1.99mm|YSize=0.48mm|CornerRadius=0.06mm|HoleSize=0mm|Usage=FLASHONLY|Rotation=270.000|XOffset=0mm|YOffset=0mm|HoleType=Round|Shape=RoundedRectangle|*
%AMROUNDEDRECTD33*
21,1,1.990,0.360,0,0,270.0*
21,1,1.870,0.480,0,0,270.0*
1,1,0.120,-0.180,-0.935*
1,1,0.120,-0.180,0.935*
1,1,0.120,0.180,0.935*
1,1,0.120,0.180,-0.935*
%
%ADD33ROUNDEDRECTD33*%
%ADD34R,2.500X1.250*%
%ADD35R,1.000X0.700*%
%ADD36R,0.600X0.700*%
%ADD37R,1.000X1.350*%
%ADD38R,4.860X3.360*%
%ADD39R,1.400X1.390*%
G04:AMPARAMS|DCode=40|XSize=1.1mm|YSize=0.6mm|CornerRadius=0.051mm|HoleSize=0mm|Usage=FLASHONLY|Rotation=0.000|XOffset=0mm|YOffset=0mm|HoleType=Round|Shape=RoundedRectangle|*
%AMROUNDEDRECTD40*
21,1,1.100,0.498,0,0,0.0*
21,1,0.998,0.600,0,0,0.0*
1,1,0.102,0.499,-0.249*
1,1,0.102,-0.499,-0.249*
1,1,0.102,-0.499,0.249*
1,1,0.102,0.499,0.249*
%
%ADD40ROUNDEDRECTD40*%
%ADD41R,1.200X1.200*%
%ADD42R,1.050X1.450*%
%ADD43R,1.450X1.050*%
%ADD44R,1.255X1.456*%
%ADD45R,1.600X3.200*%
%ADD46R,1.341X0.279*%
%ADD47R,0.279X1.341*%
%ADD48R,1.400X1.500*%
%TA.AperFunction,ComponentPad*%
G04:AMPARAMS|DCode=54|XSize=2.6mm|YSize=4.7mm|CornerRadius=1.3mm|HoleSize=0mm|Usage=FLASHONLY|Rotation=180.000|XOffset=0mm|YOffset=0mm|HoleType=Round|Shape=RoundedRectangle|*
%AMROUNDEDRECTD54*
21,1,2.600,2.100,0,0,180.0*
21,1,0.000,4.700,0,0,180.0*
1,1,2.600,0.000,1.050*
1,1,2.600,0.000,1.050*
1,1,2.600,0.000,-1.050*
1,1,2.600,0.000,-1.050*
%
%ADD54ROUNDEDRECTD54*%
%ADD55C,1.550*%
%ADD56R,1.550X1.550*%
%ADD57C,1.337*%
%ADD58R,1.337X1.337*%
%ADD59R,1.250X1.250*%
%ADD60C,1.250*%
%ADD61C,1.700*%
%ADD62R,3.000X1.500*%
%ADD63C,1.400*%
%ADD64R,1.500X3.500*%
%ADD65R,1.500X2.800*%
%ADD66C,2.400*%
G04:AMPARAMS|DCode=67|XSize=2.4mm|YSize=2.4mm|CornerRadius=0.6mm|HoleSize=0mm|Usage=FLASHONLY|Rotation=270.000|XOffset=0mm|YOffset=0mm|HoleType=Round|Shape=RoundedRectangle|*
%AMROUNDEDRECTD67*
21,1,2.400,1.200,0,0,270.0*
21,1,1.200,2.400,0,0,270.0*
1,1,1.200,-0.600,-0.600*
1,1,1.200,-0.600,0.600*
1,1,1.200,0.600,0.600*
1,1,1.200,0.600,-0.600*
%
%ADD67ROUNDEDRECTD67*%
%ADD68C,1.600*%
G04:AMPARAMS|DCode=69|XSize=1.6mm|YSize=1.6mm|CornerRadius=0.4mm|HoleSize=0mm|Usage=FLASHONLY|Rotation=180.000|XOffset=0mm|YOffset=0mm|HoleType=Round|Shape=RoundedRectangle|*
%AMROUNDEDRECTD69*
21,1,1.600,0.800,0,0,180.0*
21,1,0.800,1.600,0,0,180.0*
1,1,0.800,-0.400,0.400*
1,1,0.800,0.400,0.400*
1,1,0.800,0.400,-0.400*
1,1,0.800,-0.400,-0.400*
%
%ADD69ROUNDEDRECTD69*%
G04:AMPARAMS|DCode=70|XSize=1.5mm|YSize=1.5mm|CornerRadius=0.375mm|HoleSize=0mm|Usage=FLASHONLY|Rotation=270.000|XOffset=0mm|YOffset=0mm|HoleType=Round|Shape=RoundedRectangle|*
%AMROUNDEDRECTD70*
21,1,1.500,0.750,0,0,270.0*
21,1,0.750,1.500,0,0,270.0*
1,1,0.750,-0.375,-0.375*
1,1,0.750,-0.375,0.375*
1,1,0.750,0.375,0.375*
1,1,0.750,0.375,-0.375*
%
%ADD70ROUNDEDRECTD70*%
%ADD71C,1.500*%
%TA.AperFunction,ViaPad*%
%ADD72C,3.500*%
%TA.AperFunction,ComponentPad*%
%ADD73C,1.800*%
%ADD74R,1.800X1.800*%
%ADD75C,1.950*%
G04:AMPARAMS|DCode=76|XSize=1.95mm|YSize=1.95mm|CornerRadius=0.488mm|HoleSize=0mm|Usage=FLASHONLY|Rotation=180.000|XOffset=0mm|YOffset=0mm|HoleType=Round|Shape=RoundedRectangle|*
%AMROUNDEDRECTD76*
21,1,1.950,0.975,0,0,180.0*
21,1,0.975,1.950,0,0,180.0*
1,1,0.975,-0.488,0.488*
1,1,0.975,0.488,0.488*
1,1,0.975,0.488,-0.488*
1,1,0.975,-0.488,-0.488*
%
%ADD76ROUNDEDRECTD76*%
G04:AMPARAMS|DCode=77|XSize=1.6mm|YSize=1.6mm|CornerRadius=0.4mm|HoleSize=0mm|Usage=FLASHONLY|Rotation=90.000|XOffset=0mm|YOffset=0mm|HoleType=Round|Shape=RoundedRectangle|*
%AMROUNDEDRECTD77*
21,1,1.600,0.800,0,0,90.0*
21,1,0.800,1.600,0,0,90.0*
1,1,0.800,0.400,0.400*
1,1,0.800,0.400,-0.400*
1,1,0.800,-0.400,-0.400*
1,1,0.800,-0.400,0.400*
%
%ADD77ROUNDEDRECTD77*%
D10*
X34300Y74002D02*
D03*
Y76002D02*
D03*
X77500Y4000D02*
D03*
Y2000D02*
D03*
X72500Y4000D02*
D03*
Y2000D02*
D03*
X63700Y44400D02*
D03*
Y42400D02*
D03*
X136500Y62950D02*
D03*
Y64950D02*
D03*
D11*
X77500Y18127D02*
D03*
Y16327D02*
D03*
X62000Y14000D02*
D03*
Y12200D02*
D03*
X107100Y21000D02*
D03*
Y19200D02*
D03*
X61200Y40600D02*
D03*
Y42400D02*
D03*
D12*
X17000Y5000D02*
D03*
X119600Y86500D02*
D03*
X48000Y82699D02*
D03*
X35000Y85000D02*
D03*
X62000Y75079D02*
D03*
X25000Y85000D02*
D03*
X62000Y81300D02*
D03*
X17000Y43560D02*
D03*
Y33400D02*
D03*
Y38480D02*
D03*
Y28320D02*
D03*
X57000Y48100D02*
D03*
X52000Y50100D02*
D03*
X47000Y52100D02*
D03*
X42000Y54100D02*
D03*
X17000Y13120D02*
D03*
Y18200D02*
D03*
Y23280D02*
D03*
D13*
X145000Y15000D02*
D03*
D14*
X110125Y81840D02*
D03*
X115000D02*
D03*
X120125D02*
D03*
X125000D02*
D03*
X120125Y77000D02*
D03*
X125000D02*
D03*
D15*
X40848Y12000D02*
D03*
X28348D02*
D03*
D16*
X76202Y57800D02*
D03*
X74750D02*
D03*
X72250Y33100D02*
D03*
X70798D02*
D03*
X74298D02*
D03*
X75750D02*
D03*
X59568Y44142D02*
D03*
X58117D02*
D03*
X43400Y45190D02*
D03*
X44852D02*
D03*
X43400Y42700D02*
D03*
X44852D02*
D03*
X25100Y25150D02*
D03*
X26552D02*
D03*
X43026D02*
D03*
X41574D02*
D03*
X38250D02*
D03*
X39702D02*
D03*
X38452Y71000D02*
D03*
X37000D02*
D03*
X28564Y46500D02*
D03*
X27112D02*
D03*
X32848Y45800D02*
D03*
X34300D02*
D03*
X33050Y25150D02*
D03*
X31598D02*
D03*
X35000D02*
D03*
X36452D02*
D03*
X29800D02*
D03*
X28348D02*
D03*
D17*
X96590Y30450D02*
D03*
Y28500D02*
D03*
D18*
X87100Y45202D02*
D03*
Y43750D02*
D03*
X43200Y74674D02*
D03*
Y76126D02*
D03*
X22075Y28320D02*
D03*
Y26868D02*
D03*
Y38480D02*
D03*
Y37028D02*
D03*
Y43560D02*
D03*
Y45012D02*
D03*
Y33348D02*
D03*
Y34800D02*
D03*
X63700Y40600D02*
D03*
Y39148D02*
D03*
D19*
X48000Y79652D02*
D03*
Y75052D02*
D03*
D20*
X37000Y56780D02*
D03*
X28300D02*
D03*
D21*
X36100Y50100D02*
D03*
X34350D02*
D03*
X105350Y22950D02*
D03*
X107100D02*
D03*
X55885Y32000D02*
D03*
X57635D02*
D03*
X120500Y57100D02*
D03*
X118750D02*
D03*
X120500Y47200D02*
D03*
X118750D02*
D03*
X19725Y71070D02*
D03*
X21475D02*
D03*
X19725Y65990D02*
D03*
X21475D02*
D03*
X19775Y60910D02*
D03*
X21525D02*
D03*
X19725Y50750D02*
D03*
X21475D02*
D03*
X19775Y55830D02*
D03*
X21525D02*
D03*
D22*
X68250Y2000D02*
D03*
X70250D02*
D03*
X81750D02*
D03*
X79750D02*
D03*
X61700Y50100D02*
D03*
X63700D02*
D03*
X139500Y59900D02*
D03*
X141500D02*
D03*
D23*
X111400Y22000D02*
D03*
X109400Y21050D02*
D03*
Y22950D02*
D03*
X122100Y45250D02*
D03*
Y43350D02*
D03*
X124100Y44300D02*
D03*
X122100Y55050D02*
D03*
Y53150D02*
D03*
X124100Y54100D02*
D03*
X15400Y61860D02*
D03*
X17400Y62810D02*
D03*
Y60910D02*
D03*
X15400Y66940D02*
D03*
X17400Y67890D02*
D03*
Y65990D02*
D03*
X15400Y72020D02*
D03*
X17400Y72970D02*
D03*
Y71070D02*
D03*
Y50750D02*
D03*
Y52650D02*
D03*
X15400Y51700D02*
D03*
X17400Y55830D02*
D03*
Y57730D02*
D03*
X15400Y56780D02*
D03*
D24*
X121300Y24350D02*
D03*
Y17650D02*
D03*
X152025Y58600D02*
D03*
Y65300D02*
D03*
D25*
X115550Y22000D02*
D03*
Y20000D02*
D03*
X146275Y60950D02*
D03*
Y62950D02*
D03*
D26*
X147100Y47300D02*
D03*
X149100Y54700D02*
D03*
D27*
X139700D02*
D03*
D28*
X141300Y62950D02*
D03*
X139480Y62000D02*
D03*
D29*
Y63900D02*
D03*
D30*
X42882Y81626D02*
D03*
Y79974D02*
D03*
X61030Y61277D02*
D03*
Y59625D02*
D03*
X58490Y61277D02*
D03*
Y59625D02*
D03*
X55950Y61277D02*
D03*
Y59625D02*
D03*
X53410Y61277D02*
D03*
Y59625D02*
D03*
X50870Y61277D02*
D03*
Y59625D02*
D03*
X48330Y61277D02*
D03*
Y59625D02*
D03*
D31*
X81250Y4500D02*
D03*
X79750D02*
D03*
X68750D02*
D03*
X70250D02*
D03*
D32*
X107100Y17200D02*
D03*
X105050D02*
D03*
D33*
X39550Y29480D02*
D03*
X38900D02*
D03*
X38250D02*
D03*
X37600D02*
D03*
X36950D02*
D03*
X36300D02*
D03*
X35650D02*
D03*
X35000D02*
D03*
X34350D02*
D03*
X33700D02*
D03*
X33050D02*
D03*
X32400D02*
D03*
X31750D02*
D03*
X31100D02*
D03*
X30450D02*
D03*
X29800D02*
D03*
X29150D02*
D03*
X28500D02*
D03*
Y42700D02*
D03*
X29150D02*
D03*
X29800D02*
D03*
X30450D02*
D03*
X31100D02*
D03*
X31750D02*
D03*
X32400D02*
D03*
X33050D02*
D03*
X33700D02*
D03*
X34350D02*
D03*
X35000D02*
D03*
X35650D02*
D03*
X36300D02*
D03*
X36950D02*
D03*
X37600D02*
D03*
X38250D02*
D03*
X38900D02*
D03*
X39550D02*
D03*
D34*
X109000Y77950D02*
D03*
Y74550D02*
D03*
D35*
X55200Y38175D02*
D03*
X61200D02*
D03*
X55200Y34475D02*
D03*
X61200D02*
D03*
D36*
X56760Y26021D02*
D03*
X55810Y28021D02*
D03*
X57710D02*
D03*
D37*
X57660Y30000D02*
D03*
X55860D02*
D03*
X118700Y55050D02*
D03*
X120500D02*
D03*
X118700Y45250D02*
D03*
X120500D02*
D03*
X21625Y52650D02*
D03*
X19825D02*
D03*
X21625Y57730D02*
D03*
X19825D02*
D03*
X21675Y62810D02*
D03*
X19875D02*
D03*
X21675Y67890D02*
D03*
X19875D02*
D03*
X21675Y72970D02*
D03*
X19875D02*
D03*
D38*
X134000Y73000D02*
D03*
D39*
X137982Y73918D02*
D03*
X137982Y72082D02*
D03*
D40*
X39700Y76002D02*
D03*
Y75052D02*
D03*
Y74102D02*
D03*
X37000D02*
D03*
Y75052D02*
D03*
Y76002D02*
D03*
D41*
X67991Y50100D02*
D03*
X65891D02*
D03*
D42*
X32500Y48100D02*
D03*
X34350D02*
D03*
D43*
X123000Y46840D02*
D03*
Y48690D02*
D03*
Y58490D02*
D03*
Y56640D02*
D03*
D44*
X65600Y60823D02*
D03*
X63948D02*
D03*
X38500Y68000D02*
D03*
X36848D02*
D03*
D45*
X69000Y81300D02*
D03*
Y86300D02*
D03*
Y75300D02*
D03*
Y70300D02*
D03*
X48960Y32498D02*
D03*
Y37498D02*
D03*
D46*
X69326Y48750D02*
D03*
Y48250D02*
D03*
Y47750D02*
D03*
Y47250D02*
D03*
Y46750D02*
D03*
Y46250D02*
D03*
Y45750D02*
D03*
Y45250D02*
D03*
Y44750D02*
D03*
Y44250D02*
D03*
Y43750D02*
D03*
Y43250D02*
D03*
Y42750D02*
D03*
Y42250D02*
D03*
Y41750D02*
D03*
Y41250D02*
D03*
X80674D02*
D03*
Y41750D02*
D03*
Y42250D02*
D03*
Y42750D02*
D03*
Y43250D02*
D03*
Y43750D02*
D03*
Y44250D02*
D03*
Y44750D02*
D03*
Y45250D02*
D03*
Y45750D02*
D03*
Y46250D02*
D03*
Y46750D02*
D03*
Y47250D02*
D03*
Y47750D02*
D03*
Y48250D02*
D03*
Y48750D02*
D03*
D47*
X71250Y39326D02*
D03*
X71750D02*
D03*
X72250D02*
D03*
X72750D02*
D03*
X73250D02*
D03*
X73750D02*
D03*
X74250D02*
D03*
X74750D02*
D03*
X75250D02*
D03*
X75750D02*
D03*
X76250D02*
D03*
X76750D02*
D03*
X77250D02*
D03*
X77750D02*
D03*
X78250D02*
D03*
X78750D02*
D03*
Y50674D02*
D03*
X78250D02*
D03*
X77750D02*
D03*
X77250D02*
D03*
X76750D02*
D03*
X76250D02*
D03*
X75750D02*
D03*
X75250D02*
D03*
X74750D02*
D03*
X74250D02*
D03*
X73750D02*
D03*
X73250D02*
D03*
X72750D02*
D03*
X72250D02*
D03*
X71750D02*
D03*
X71250D02*
D03*
D48*
X34300Y71900D02*
D03*
X32300D02*
D03*
D54*
X69400Y14000D02*
D03*
X80600D02*
D03*
D55*
X72500Y6500D02*
D03*
X75000D02*
D03*
X72500Y21000D02*
D03*
X77500D02*
D03*
D56*
Y6500D02*
D03*
D57*
X48330Y25950D02*
D03*
X53410D02*
D03*
X50870D02*
D03*
X61030Y64050D02*
D03*
X71190D02*
D03*
X68650D02*
D03*
X66110D02*
D03*
X63570D02*
D03*
X58490D02*
D03*
X55950D02*
D03*
X53410D02*
D03*
X50870D02*
D03*
X48330D02*
D03*
X99130Y25950D02*
D03*
X96590D02*
D03*
X73730Y64050D02*
D03*
X101670D02*
D03*
X88970D02*
D03*
X83890D02*
D03*
X81350D02*
D03*
X78810D02*
D03*
X76270D02*
D03*
X91510D02*
D03*
X94050D02*
D03*
X96590D02*
D03*
X86430D02*
D03*
X99130D02*
D03*
D58*
X101670Y25950D02*
D03*
D59*
X126190Y56640D02*
D03*
Y46840D02*
D03*
D60*
Y54100D02*
D03*
Y51560D02*
D03*
X133810D02*
D03*
Y54100D02*
D03*
Y56640D02*
D03*
X126190Y44300D02*
D03*
Y41760D02*
D03*
X133810D02*
D03*
Y44300D02*
D03*
Y46840D02*
D03*
D61*
X148000Y51000D02*
D03*
X141000D02*
D03*
D62*
X149000Y68500D02*
D03*
Y77500D02*
D03*
D63*
X151000Y73000D02*
D03*
D64*
X142000D02*
D03*
D65*
X148000D02*
D03*
D66*
X6000Y13000D02*
D03*
Y18080D02*
D03*
Y28240D02*
D03*
Y38400D02*
D03*
Y33320D02*
D03*
Y23160D02*
D03*
X6000Y51700D02*
D03*
Y56780D02*
D03*
Y66940D02*
D03*
Y72020D02*
D03*
Y61860D02*
D03*
D67*
X6000Y43480D02*
D03*
X6000Y77100D02*
D03*
D68*
X57080Y68000D02*
D03*
X54540D02*
D03*
X52000D02*
D03*
X96590D02*
D03*
X94050D02*
D03*
X91510D02*
D03*
X81000Y23700D02*
D03*
X83540D02*
D03*
X88620D02*
D03*
X91160D02*
D03*
X86080D02*
D03*
X111000Y34920D02*
D03*
Y32380D02*
D03*
Y37460D02*
D03*
Y40000D02*
D03*
Y51120D02*
D03*
Y48580D02*
D03*
Y46040D02*
D03*
D69*
X59620Y68000D02*
D03*
X99130D02*
D03*
X93700Y23700D02*
D03*
D70*
X77000Y80300D02*
D03*
D71*
Y77760D02*
D03*
Y75220D02*
D03*
D72*
X95000Y5000D02*
D03*
X5000Y85000D02*
D03*
X145000D02*
D03*
X5000Y5000D02*
D03*
X145000D02*
D03*
D73*
X53900Y14000D02*
D03*
X57710Y17810D02*
D03*
X104000Y77460D02*
D03*
Y80000D02*
D03*
D74*
Y74920D02*
D03*
D75*
X130500Y82000D02*
D03*
D76*
X134000D02*
D03*
D77*
X111000Y29840D02*
D03*
Y43500D02*
D03*
%TF.MD5,3ac0c0b85444375c12a9746866d65b1e*%
M02*
