%TF.GenerationSoftware,Altium Limited,Altium Designer,22.5.1 (42)*%
G04 Layer_Color=32768*
%FSLAX43Y43*%
%MOMM*%
%TF.SameCoordinates,16143D8C-65FE-44CA-9B93-5BB87F4A9255*%
%TF.FilePolarity,Positive*%
%TF.FileFunction,Other,Top_Dimensions*%
%TF.Part,Single*%
G01*
G75*
%TA.AperFunction,NonConductor*%
%ADD84C,0.254*%
%ADD88C,0.152*%
D84*
X75000Y44000D02*
Y46000D01*
Y-4500D02*
Y44000D01*
X74000Y45000D02*
X76000D01*
X95000Y-5100D02*
X96524Y-4592D01*
X95000Y-5100D02*
X96524Y-5608D01*
X143476D02*
X145000Y-5100D01*
X143476Y-4592D02*
X145000Y-5100D01*
X95000D02*
X120000D01*
X145000D01*
X95000Y-5354D02*
Y2996D01*
X145000Y-5354D02*
Y2996D01*
X5000Y-5100D02*
X6524Y-4592D01*
X5000Y-5100D02*
X6524Y-5608D01*
X93476D02*
X95000Y-5100D01*
X93476Y-4592D02*
X95000Y-5100D01*
X5000D02*
X50000D01*
X95000D01*
X5000Y-5354D02*
Y2996D01*
X95000Y-5354D02*
Y2996D01*
X150000Y97000D02*
X151524Y97508D01*
X150000Y97000D02*
X151524Y96492D01*
X152476D02*
X154000Y97000D01*
X152476Y97508D02*
X154000Y97000D01*
X150000D02*
X152000D01*
X154000D01*
X150000Y85381D02*
Y97254D01*
X154000Y78381D02*
Y97254D01*
X-12508Y1524D02*
X-12000Y0D01*
X-11492Y1524D01*
X-12000Y90000D02*
X-11492Y88476D01*
X-12508D02*
X-12000Y90000D01*
Y0D02*
Y40759D01*
Y48428D02*
Y90000D01*
X-12254Y0D02*
X4619D01*
X-12254Y90000D02*
X4619D01*
X-7000Y85000D02*
X-6492Y83476D01*
X-7508D02*
X-7000Y85000D01*
X-7508Y6524D02*
X-7000Y5000D01*
X-6492Y6524D01*
X-7000Y48428D02*
Y85000D01*
Y5000D02*
Y40759D01*
X-7254Y85000D02*
X2996D01*
X-7254Y5000D02*
X2996D01*
X0Y97000D02*
X1524Y97508D01*
X0Y97000D02*
X1524Y96492D01*
X148476D02*
X150000Y97000D01*
X148476Y97508D02*
X150000Y97000D01*
X0D02*
X75000D01*
X150000D01*
X0Y85381D02*
Y97254D01*
X150000Y85381D02*
Y97254D01*
X143476Y92492D02*
X145000Y93000D01*
X143476Y93508D02*
X145000Y93000D01*
X5000D02*
X6524Y93508D01*
X5000Y93000D02*
X6524Y92492D01*
X75000Y93000D02*
X145000D01*
X5000D02*
X75000D01*
X145000Y87004D02*
Y93254D01*
X5000Y87004D02*
Y93254D01*
X160000Y62000D02*
X160508Y60476D01*
X159492D02*
X160000Y62000D01*
X159492Y52524D02*
X160000Y51000D01*
X160508Y52524D01*
X160000Y56500D02*
Y62000D01*
Y51000D02*
Y56500D01*
X153000Y62000D02*
X160254D01*
X149104Y51000D02*
X160254D01*
X160000Y73000D02*
X160508Y71476D01*
X159492D02*
X160000Y73000D01*
X159492Y63524D02*
X160000Y62000D01*
X160508Y63524D01*
X160000Y67500D02*
Y73000D01*
Y62000D02*
Y67500D01*
X152104Y73000D02*
X160254D01*
X153000Y62000D02*
X160254D01*
X160000Y85000D02*
X160508Y83476D01*
X159492D02*
X160000Y85000D01*
X159492Y74524D02*
X160000Y73000D01*
X160508Y74524D01*
X160000Y79000D02*
Y85000D01*
Y73000D02*
Y79000D01*
X147004Y85000D02*
X160254D01*
X152104Y73000D02*
X160254D01*
D88*
X117768Y-2516D02*
X116752D01*
Y-3278D01*
X117260Y-3024D01*
X117514D01*
X117768Y-3278D01*
Y-3786D01*
X117514Y-4040D01*
X117006D01*
X116752Y-3786D01*
X118276Y-2770D02*
X118530Y-2516D01*
X119038D01*
X119292Y-2770D01*
Y-3786D01*
X119038Y-4040D01*
X118530D01*
X118276Y-3786D01*
Y-2770D01*
X119799Y-4040D02*
Y-3786D01*
X120053D01*
Y-4040D01*
X119799D01*
X121069Y-2770D02*
X121323Y-2516D01*
X121831D01*
X122085Y-2770D01*
Y-3786D01*
X121831Y-4040D01*
X121323D01*
X121069Y-3786D01*
Y-2770D01*
X122593D02*
X122846Y-2516D01*
X123354D01*
X123608Y-2770D01*
Y-3786D01*
X123354Y-4040D01*
X122846D01*
X122593Y-3786D01*
Y-2770D01*
X45785Y-3886D02*
X46039Y-4140D01*
X46547D01*
X46800Y-3886D01*
Y-2870D01*
X46547Y-2616D01*
X46039D01*
X45785Y-2870D01*
Y-3124D01*
X46039Y-3378D01*
X46800D01*
X47308Y-2870D02*
X47562Y-2616D01*
X48070D01*
X48324Y-2870D01*
Y-3886D01*
X48070Y-4140D01*
X47562D01*
X47308Y-3886D01*
Y-2870D01*
X48832Y-4140D02*
Y-3886D01*
X49086D01*
Y-4140D01*
X48832D01*
X50101Y-2870D02*
X50355Y-2616D01*
X50863D01*
X51117Y-2870D01*
Y-3886D01*
X50863Y-4140D01*
X50355D01*
X50101Y-3886D01*
Y-2870D01*
X51625D02*
X51879Y-2616D01*
X52387D01*
X52641Y-2870D01*
Y-3886D01*
X52387Y-4140D01*
X51879D01*
X51625Y-3886D01*
Y-2870D01*
X150414Y100160D02*
Y101684D01*
X149652Y100922D01*
X150668D01*
X151176Y100160D02*
Y100414D01*
X151430D01*
Y100160D01*
X151176D01*
X152445Y101430D02*
X152699Y101684D01*
X153207D01*
X153461Y101430D01*
Y100414D01*
X153207Y100160D01*
X152699D01*
X152445Y100414D01*
Y101430D01*
X153969D02*
X154223Y101684D01*
X154731D01*
X154985Y101430D01*
Y100414D01*
X154731Y100160D01*
X154223D01*
X153969Y100414D01*
Y101430D01*
X-11340Y41166D02*
X-11086Y41420D01*
Y41927D01*
X-11340Y42181D01*
X-12355D01*
X-12609Y41927D01*
Y41420D01*
X-12355Y41166D01*
X-12102D01*
X-11848Y41420D01*
Y42181D01*
X-12355Y42689D02*
X-12609Y42943D01*
Y43451D01*
X-12355Y43705D01*
X-11340D01*
X-11086Y43451D01*
Y42943D01*
X-11340Y42689D01*
X-12355D01*
X-11086Y44213D02*
X-11340D01*
Y44467D01*
X-11086D01*
Y44213D01*
X-12355Y45482D02*
X-12609Y45736D01*
Y46244D01*
X-12355Y46498D01*
X-11340D01*
X-11086Y46244D01*
Y45736D01*
X-11340Y45482D01*
X-12355D01*
Y47006D02*
X-12609Y47260D01*
Y47768D01*
X-12355Y48021D01*
X-11340D01*
X-11086Y47768D01*
Y47260D01*
X-11340Y47006D01*
X-12355D01*
X-7355Y41166D02*
X-7609Y41420D01*
Y41927D01*
X-7355Y42181D01*
X-7102D01*
X-6848Y41927D01*
X-6594Y42181D01*
X-6340D01*
X-6086Y41927D01*
Y41420D01*
X-6340Y41166D01*
X-6594D01*
X-6848Y41420D01*
X-7102Y41166D01*
X-7355D01*
X-6848Y41420D02*
Y41927D01*
X-7355Y42689D02*
X-7609Y42943D01*
Y43451D01*
X-7355Y43705D01*
X-6340D01*
X-6086Y43451D01*
Y42943D01*
X-6340Y42689D01*
X-7355D01*
X-6086Y44213D02*
X-6340D01*
Y44467D01*
X-6086D01*
Y44213D01*
X-7355Y45482D02*
X-7609Y45736D01*
Y46244D01*
X-7355Y46498D01*
X-6340D01*
X-6086Y46244D01*
Y45736D01*
X-6340Y45482D01*
X-7355D01*
Y47006D02*
X-7609Y47260D01*
Y47768D01*
X-7355Y48021D01*
X-6340D01*
X-6086Y47768D01*
Y47260D01*
X-6340Y47006D01*
X-7355D01*
X70652Y98660D02*
X71160D01*
X70906D01*
Y100184D01*
X70652Y99930D01*
X72938Y100184D02*
X71922D01*
Y99422D01*
X72430Y99676D01*
X72684D01*
X72938Y99422D01*
Y98914D01*
X72684Y98660D01*
X72176D01*
X71922Y98914D01*
X73446Y99930D02*
X73699Y100184D01*
X74207D01*
X74461Y99930D01*
Y98914D01*
X74207Y98660D01*
X73699D01*
X73446Y98914D01*
Y99930D01*
X74969Y98660D02*
Y98914D01*
X75223D01*
Y98660D01*
X74969D01*
X76239Y99930D02*
X76493Y100184D01*
X77000D01*
X77254Y99930D01*
Y98914D01*
X77000Y98660D01*
X76493D01*
X76239Y98914D01*
Y99930D01*
X77762D02*
X78016Y100184D01*
X78524D01*
X78778Y99930D01*
Y98914D01*
X78524Y98660D01*
X78016D01*
X77762Y98914D01*
Y99930D01*
X70652Y94660D02*
X71160D01*
X70906D01*
Y96184D01*
X70652Y95930D01*
X72684Y94660D02*
Y96184D01*
X71922Y95422D01*
X72938D01*
X73446Y95930D02*
X73699Y96184D01*
X74207D01*
X74461Y95930D01*
Y94914D01*
X74207Y94660D01*
X73699D01*
X73446Y94914D01*
Y95930D01*
X74969Y94660D02*
Y94914D01*
X75223D01*
Y94660D01*
X74969D01*
X76239Y95930D02*
X76493Y96184D01*
X77000D01*
X77254Y95930D01*
Y94914D01*
X77000Y94660D01*
X76493D01*
X76239Y94914D01*
Y95930D01*
X77762D02*
X78016Y96184D01*
X78524D01*
X78778Y95930D01*
Y94914D01*
X78524Y94660D01*
X78016D01*
X77762Y94914D01*
Y95930D01*
X162340Y53152D02*
Y53660D01*
Y53406D01*
X160816D01*
X161070Y53152D01*
X162340Y54422D02*
Y54930D01*
Y54676D01*
X160816D01*
X161070Y54422D01*
X162340Y55692D02*
X162086D01*
Y55945D01*
X162340D01*
Y55692D01*
X161070Y56961D02*
X160816Y57215D01*
Y57723D01*
X161070Y57977D01*
X162086D01*
X162340Y57723D01*
Y57215D01*
X162086Y56961D01*
X161070D01*
Y58485D02*
X160816Y58739D01*
Y59246D01*
X161070Y59500D01*
X162086D01*
X162340Y59246D01*
Y58739D01*
X162086Y58485D01*
X161070D01*
X162340Y63676D02*
Y64184D01*
Y63930D01*
X160816D01*
X161070Y63676D01*
X162340Y64946D02*
Y65454D01*
Y65200D01*
X160816D01*
X161070Y64946D01*
X162340Y66216D02*
X162086D01*
Y66469D01*
X162340D01*
Y66216D01*
X161070Y67485D02*
X160816Y67739D01*
Y68247D01*
X161070Y68501D01*
X162086D01*
X162340Y68247D01*
Y67739D01*
X162086Y67485D01*
X161070D01*
Y69009D02*
X160816Y69263D01*
Y69770D01*
X161070Y70024D01*
X162086D01*
X162340Y69770D01*
Y69263D01*
X162086Y69009D01*
X161070D01*
X162340Y75152D02*
Y75660D01*
Y75406D01*
X160816D01*
X161070Y75152D01*
X162340Y77438D02*
Y76422D01*
X161324Y77438D01*
X161070D01*
X160816Y77184D01*
Y76676D01*
X161070Y76422D01*
X162340Y77946D02*
X162086D01*
Y78199D01*
X162340D01*
Y77946D01*
X161070Y79215D02*
X160816Y79469D01*
Y79977D01*
X161070Y80231D01*
X162086D01*
X162340Y79977D01*
Y79469D01*
X162086Y79215D01*
X161070D01*
Y80739D02*
X160816Y80993D01*
Y81500D01*
X161070Y81754D01*
X162086D01*
X162340Y81500D01*
Y80993D01*
X162086Y80739D01*
X161070D01*
%TF.MD5,89fb350655b01b6586108e655aa71f8e*%
M02*
