%TF.GenerationSoftware,Altium Limited,Altium Designer,22.11.1 (43)*%
G04 Layer_Color=65535*
%FSLAX43Y43*%
%MOMM*%
%TF.SameCoordinates,713154A8-74CC-4FB3-A553-2C66CAAA5226*%
%TF.FilePolarity,Positive*%
%TF.FileFunction,Legend,Top*%
%TF.Part,Single*%
G01*
G75*
%TA.AperFunction,NonConductor*%
%ADD82C,0.250*%
%ADD83C,0.200*%
%ADD84C,0.254*%
%ADD85C,0.300*%
%ADD86C,0.127*%
%ADD87C,0.152*%
G36*
X72940Y38402D02*
X72560D01*
Y38148D01*
X72940D01*
Y38402D01*
D02*
G37*
G36*
X77940D02*
X77560D01*
Y38148D01*
X77940D01*
Y38402D01*
D02*
G37*
G36*
X68402Y44440D02*
X68148D01*
Y44060D01*
X68402D01*
Y44440D01*
D02*
G37*
G36*
X73440Y51598D02*
X73060D01*
Y51852D01*
X73440D01*
Y51598D01*
D02*
G37*
G36*
X78440D02*
X78060D01*
Y51852D01*
X78440D01*
Y51598D01*
D02*
G37*
G36*
X98330Y57592D02*
X98377D01*
Y57568D01*
X98400D01*
Y57545D01*
X98423D01*
Y57522D01*
X98447D01*
Y57499D01*
X98470D01*
Y57475D01*
X98493D01*
Y57452D01*
X98517D01*
Y57429D01*
X98540D01*
Y57405D01*
X98563D01*
Y57382D01*
X98586D01*
Y57336D01*
X98610D01*
Y57312D01*
X98633D01*
Y57289D01*
X98656D01*
Y57243D01*
X98679D01*
Y57219D01*
X98703D01*
Y57173D01*
X98726D01*
Y57149D01*
X98749D01*
Y57103D01*
X98773D01*
Y57056D01*
X98796D01*
Y57010D01*
X98819D01*
Y56963D01*
X98842D01*
Y56917D01*
X98866D01*
Y56847D01*
X98889D01*
Y56754D01*
X98912D01*
Y56381D01*
X98889D01*
Y56288D01*
X98866D01*
Y56219D01*
X98842D01*
Y56172D01*
X98819D01*
Y56125D01*
X98796D01*
Y56079D01*
X98773D01*
Y56032D01*
X98749D01*
Y56009D01*
X98726D01*
Y55963D01*
X98703D01*
Y55939D01*
X98679D01*
Y55893D01*
X98656D01*
Y55869D01*
X98633D01*
Y55846D01*
X98610D01*
Y55800D01*
X98586D01*
Y55776D01*
X98563D01*
Y55753D01*
X98540D01*
Y55730D01*
X98517D01*
Y55707D01*
X98493D01*
Y55660D01*
X98470D01*
Y55637D01*
X98447D01*
Y55613D01*
X98423D01*
Y55590D01*
X98400D01*
Y55567D01*
X98377D01*
Y55520D01*
X98354D01*
Y55497D01*
X98330D01*
Y55474D01*
X98307D01*
Y55451D01*
X98284D01*
Y55404D01*
X98261D01*
Y55381D01*
X98237D01*
Y55357D01*
X98214D01*
Y55311D01*
X98191D01*
Y55264D01*
X98167D01*
Y55218D01*
X98144D01*
Y55171D01*
X98121D01*
Y55125D01*
X98098D01*
Y55101D01*
Y55078D01*
Y54985D01*
X98074D01*
Y54915D01*
X98098D01*
Y54776D01*
X98121D01*
Y54706D01*
X98144D01*
Y54659D01*
X98167D01*
Y54613D01*
X98191D01*
Y54566D01*
X98214D01*
Y54520D01*
X98237D01*
Y54496D01*
X98261D01*
Y54450D01*
X98284D01*
Y54426D01*
X98307D01*
Y54380D01*
X98330D01*
Y54357D01*
X98354D01*
Y54333D01*
X98377D01*
Y54310D01*
X98400D01*
Y54264D01*
X98423D01*
Y54240D01*
X98447D01*
Y54194D01*
X98470D01*
Y54054D01*
X98447D01*
Y54008D01*
X98423D01*
Y53984D01*
X98400D01*
Y53961D01*
X98354D01*
Y53938D01*
X98191D01*
Y53961D01*
X98144D01*
Y53984D01*
X98121D01*
Y54008D01*
X98098D01*
Y54054D01*
X98074D01*
Y54077D01*
X98051D01*
Y54101D01*
X98028D01*
Y54124D01*
X98005D01*
Y54171D01*
X97981D01*
Y54194D01*
X97958D01*
Y54217D01*
X97935D01*
Y54264D01*
X97911D01*
Y54287D01*
X97888D01*
Y54333D01*
X97865D01*
Y54380D01*
X97842D01*
Y54426D01*
X97818D01*
Y54473D01*
X97795D01*
Y54520D01*
X97772D01*
Y54566D01*
X97748D01*
Y54636D01*
X97725D01*
Y54729D01*
X97702D01*
Y54869D01*
X97679D01*
Y55032D01*
X97702D01*
Y55171D01*
X97725D01*
Y55264D01*
X97748D01*
Y55311D01*
X97772D01*
Y55381D01*
X97795D01*
Y55404D01*
X97818D01*
Y55451D01*
X97842D01*
Y55497D01*
X97865D01*
Y55544D01*
X97888D01*
Y55567D01*
X97911D01*
Y55613D01*
X97935D01*
Y55637D01*
X97958D01*
Y55660D01*
X97981D01*
Y55707D01*
X98005D01*
Y55730D01*
X98028D01*
Y55753D01*
X98051D01*
Y55776D01*
X98074D01*
Y55823D01*
X98098D01*
Y55846D01*
X98121D01*
Y55869D01*
X98144D01*
Y55893D01*
X98167D01*
Y55916D01*
X98191D01*
Y55963D01*
X98214D01*
Y55986D01*
X98237D01*
Y56009D01*
X98261D01*
Y56032D01*
X98284D01*
Y56056D01*
X98307D01*
Y56102D01*
X98330D01*
Y56125D01*
X98354D01*
Y56149D01*
X98377D01*
Y56195D01*
X98400D01*
Y56219D01*
X98423D01*
Y56265D01*
X98447D01*
Y56312D01*
X98470D01*
Y56358D01*
X98493D01*
Y56428D01*
X98517D01*
Y56707D01*
X98493D01*
Y56777D01*
X98470D01*
Y56824D01*
X98447D01*
Y56870D01*
X98423D01*
Y56917D01*
X98400D01*
Y56963D01*
X98377D01*
Y56987D01*
X98354D01*
Y57033D01*
X98330D01*
Y57056D01*
X98307D01*
Y57080D01*
X98284D01*
Y57126D01*
X98261D01*
Y57149D01*
X98237D01*
Y57173D01*
X98214D01*
Y57196D01*
X98191D01*
Y57219D01*
X98167D01*
Y57243D01*
X98144D01*
Y57266D01*
X98121D01*
Y57312D01*
X98098D01*
Y57359D01*
X98074D01*
Y57475D01*
X98098D01*
Y57522D01*
X98121D01*
Y57545D01*
X98144D01*
Y57568D01*
X98167D01*
Y57592D01*
X98214D01*
Y57615D01*
X98330D01*
Y57592D01*
D02*
G37*
G36*
X100378Y57545D02*
X100425D01*
Y57522D01*
X100471D01*
Y57499D01*
X100495D01*
Y57475D01*
X100518D01*
Y57452D01*
X100541D01*
Y57429D01*
X100565D01*
Y57382D01*
X100588D01*
Y57359D01*
X100611D01*
Y57336D01*
X100634D01*
Y57312D01*
X100658D01*
Y57289D01*
X100681D01*
Y57243D01*
X100704D01*
Y57219D01*
X100727D01*
Y57196D01*
X100751D01*
Y57149D01*
X100774D01*
Y57103D01*
X100797D01*
Y57080D01*
X100821D01*
Y57033D01*
X100844D01*
Y56987D01*
X100867D01*
Y56940D01*
X100890D01*
Y56893D01*
X100914D01*
Y56824D01*
X100937D01*
Y56754D01*
X100960D01*
Y56637D01*
X100983D01*
Y56381D01*
X100960D01*
Y56288D01*
X100937D01*
Y56195D01*
X100914D01*
Y56149D01*
X100890D01*
Y56102D01*
X100867D01*
Y56056D01*
X100844D01*
Y56009D01*
X100821D01*
Y55963D01*
X100797D01*
Y55939D01*
X100774D01*
Y55893D01*
X100751D01*
Y55869D01*
X100727D01*
Y55846D01*
X100704D01*
Y55800D01*
X100681D01*
Y55776D01*
X100658D01*
Y55753D01*
X100634D01*
Y55730D01*
X100611D01*
Y55683D01*
X100588D01*
Y55660D01*
X100565D01*
Y55637D01*
X100541D01*
Y55613D01*
X100518D01*
Y55590D01*
X100495D01*
Y55544D01*
X100471D01*
Y55520D01*
X100448D01*
Y55497D01*
X100425D01*
Y55474D01*
X100402D01*
Y55451D01*
X100378D01*
Y55404D01*
X100355D01*
Y55381D01*
X100332D01*
Y55357D01*
X100309D01*
Y55311D01*
X100285D01*
Y55288D01*
X100262D01*
Y55241D01*
X100239D01*
Y55195D01*
X100215D01*
Y55148D01*
X100192D01*
Y55101D01*
X100169D01*
Y55032D01*
X100146D01*
Y54776D01*
X100169D01*
Y54683D01*
X100192D01*
Y54636D01*
X100215D01*
Y54589D01*
X100239D01*
Y54543D01*
X100262D01*
Y54496D01*
X100285D01*
Y54450D01*
X100309D01*
Y54426D01*
X100332D01*
Y54380D01*
X100355D01*
Y54357D01*
X100378D01*
Y54333D01*
X100402D01*
Y54287D01*
X100425D01*
Y54264D01*
X100448D01*
Y54240D01*
X100471D01*
Y54217D01*
X100495D01*
Y54171D01*
X100518D01*
Y54101D01*
X100541D01*
Y54054D01*
X100518D01*
Y53984D01*
X100495D01*
Y53938D01*
X100471D01*
Y53914D01*
X100425D01*
Y53891D01*
X100239D01*
Y53914D01*
X100215D01*
Y53938D01*
X100192D01*
Y53961D01*
X100169D01*
Y53984D01*
X100146D01*
Y54008D01*
X100122D01*
Y54031D01*
X100099D01*
Y54077D01*
X100076D01*
Y54101D01*
X100053D01*
Y54124D01*
X100029D01*
Y54171D01*
X100006D01*
Y54194D01*
X99983D01*
Y54240D01*
X99959D01*
Y54264D01*
X99936D01*
Y54310D01*
X99913D01*
Y54357D01*
X99890D01*
Y54380D01*
X99866D01*
Y54450D01*
X99843D01*
Y54496D01*
X99820D01*
Y54543D01*
X99797D01*
Y54636D01*
X99773D01*
Y54729D01*
X99750D01*
Y55078D01*
X99773D01*
Y55171D01*
X99797D01*
Y55241D01*
X99820D01*
Y55288D01*
X99843D01*
Y55357D01*
X99866D01*
Y55381D01*
X99890D01*
Y55427D01*
X99913D01*
Y55474D01*
X99936D01*
Y55497D01*
X99959D01*
Y55544D01*
X99983D01*
Y55567D01*
X100006D01*
Y55613D01*
X100029D01*
Y55637D01*
X100053D01*
Y55660D01*
X100076D01*
Y55707D01*
X100099D01*
Y55730D01*
X100122D01*
Y55753D01*
X100146D01*
Y55776D01*
X100169D01*
Y55800D01*
X100192D01*
Y55846D01*
X100215D01*
Y55869D01*
X100239D01*
Y55893D01*
X100262D01*
Y55916D01*
X100285D01*
Y55939D01*
X100309D01*
Y55986D01*
X100332D01*
Y56009D01*
X100355D01*
Y56032D01*
X100378D01*
Y56056D01*
X100402D01*
Y56102D01*
X100425D01*
Y56125D01*
X100448D01*
Y56149D01*
X100471D01*
Y56195D01*
X100495D01*
Y56242D01*
X100518D01*
Y56288D01*
X100541D01*
Y56335D01*
X100565D01*
Y56428D01*
X100588D01*
Y56591D01*
X100565D01*
Y56684D01*
X100541D01*
Y56754D01*
X100518D01*
Y56800D01*
X100495D01*
Y56847D01*
X100471D01*
Y56893D01*
X100448D01*
Y56917D01*
X100425D01*
Y56963D01*
X100402D01*
Y56987D01*
X100378D01*
Y57033D01*
X100355D01*
Y57056D01*
X100332D01*
Y57080D01*
X100309D01*
Y57103D01*
X100285D01*
Y57126D01*
X100262D01*
Y57173D01*
X100239D01*
Y57196D01*
X100215D01*
Y57219D01*
X100192D01*
Y57243D01*
X100169D01*
Y57266D01*
X100146D01*
Y57452D01*
X100169D01*
Y57499D01*
X100192D01*
Y57522D01*
X100239D01*
Y57545D01*
X100285D01*
Y57568D01*
X100378D01*
Y57545D01*
D02*
G37*
G36*
X99308D02*
X99354D01*
Y57522D01*
X99378D01*
Y57499D01*
X99401D01*
Y57475D01*
X99424D01*
Y57452D01*
X99447D01*
Y57429D01*
X99471D01*
Y57405D01*
X99494D01*
Y57382D01*
X99517D01*
Y57359D01*
X99541D01*
Y57336D01*
X99564D01*
Y57289D01*
X99587D01*
Y57266D01*
X99610D01*
Y57243D01*
X99634D01*
Y57196D01*
X99657D01*
Y57173D01*
X99680D01*
Y57149D01*
X99703D01*
Y57103D01*
X99727D01*
Y57056D01*
X99750D01*
Y57010D01*
X99773D01*
Y56987D01*
X99797D01*
Y56917D01*
X99820D01*
Y56870D01*
X99843D01*
Y56800D01*
X99866D01*
Y56731D01*
X99890D01*
Y56521D01*
X99913D01*
Y56498D01*
X99890D01*
Y56312D01*
X99866D01*
Y56219D01*
X99843D01*
Y56172D01*
X99820D01*
Y56125D01*
X99797D01*
Y56056D01*
X99773D01*
Y56032D01*
X99750D01*
Y55986D01*
X99727D01*
Y55939D01*
X99703D01*
Y55916D01*
X99680D01*
Y55869D01*
X99657D01*
Y55846D01*
X99634D01*
Y55823D01*
X99610D01*
Y55776D01*
X99587D01*
Y55753D01*
X99564D01*
Y55730D01*
X99541D01*
Y55707D01*
X99517D01*
Y55660D01*
X99494D01*
Y55637D01*
X99471D01*
Y55613D01*
X99447D01*
Y55590D01*
X99424D01*
Y55567D01*
X99401D01*
Y55544D01*
X99378D01*
Y55497D01*
X99354D01*
Y55474D01*
X99331D01*
Y55451D01*
X99308D01*
Y55427D01*
X99285D01*
Y55381D01*
X99261D01*
Y55357D01*
X99238D01*
Y55334D01*
X99215D01*
Y55288D01*
X99191D01*
Y55264D01*
X99168D01*
Y55218D01*
X99145D01*
Y55171D01*
X99122D01*
Y55125D01*
X99098D01*
Y55055D01*
X99075D01*
Y54729D01*
X99098D01*
Y54659D01*
X99122D01*
Y54613D01*
X99145D01*
Y54566D01*
X99168D01*
Y54520D01*
X99191D01*
Y54473D01*
X99215D01*
Y54450D01*
X99238D01*
Y54403D01*
X99261D01*
Y54380D01*
X99285D01*
Y54333D01*
X99308D01*
Y54310D01*
X99331D01*
Y54287D01*
X99354D01*
Y54264D01*
X99378D01*
Y54217D01*
X99401D01*
Y54194D01*
X99424D01*
Y54147D01*
X99447D01*
Y54008D01*
X99424D01*
Y53961D01*
X99401D01*
Y53938D01*
X99378D01*
Y53914D01*
X99354D01*
Y53891D01*
X99261D01*
Y53868D01*
X99238D01*
Y53891D01*
X99168D01*
Y53914D01*
X99122D01*
Y53938D01*
X99098D01*
Y53961D01*
X99075D01*
Y54008D01*
X99052D01*
Y54031D01*
X99029D01*
Y54054D01*
X99005D01*
Y54077D01*
X98982D01*
Y54124D01*
X98959D01*
Y54147D01*
X98935D01*
Y54171D01*
X98912D01*
Y54194D01*
Y54217D01*
X98889D01*
Y54264D01*
X98866D01*
Y54287D01*
X98842D01*
Y54333D01*
X98819D01*
Y54380D01*
X98796D01*
Y54426D01*
X98773D01*
Y54473D01*
X98749D01*
Y54543D01*
X98726D01*
Y54589D01*
X98703D01*
Y54683D01*
X98679D01*
Y54869D01*
X98656D01*
Y54915D01*
X98679D01*
Y55101D01*
X98703D01*
Y55195D01*
X98726D01*
Y55264D01*
X98749D01*
Y55311D01*
X98773D01*
Y55357D01*
X98796D01*
Y55404D01*
X98819D01*
Y55451D01*
X98842D01*
Y55474D01*
X98866D01*
Y55520D01*
X98889D01*
Y55544D01*
X98912D01*
Y55590D01*
X98935D01*
Y55613D01*
X98959D01*
Y55637D01*
X98982D01*
Y55683D01*
X99005D01*
Y55707D01*
X99029D01*
Y55730D01*
X99052D01*
Y55753D01*
X99075D01*
Y55800D01*
X99098D01*
Y55823D01*
X99122D01*
Y55846D01*
X99145D01*
Y55869D01*
X99168D01*
Y55893D01*
X99191D01*
Y55939D01*
X99215D01*
Y55963D01*
X99238D01*
Y55986D01*
X99261D01*
Y56009D01*
X99285D01*
Y56032D01*
X99308D01*
Y56079D01*
X99331D01*
Y56102D01*
X99354D01*
Y56149D01*
X99378D01*
Y56172D01*
X99401D01*
Y56219D01*
X99424D01*
Y56265D01*
X99447D01*
Y56312D01*
X99471D01*
Y56358D01*
X99494D01*
Y56661D01*
X99471D01*
Y56731D01*
X99447D01*
Y56777D01*
X99424D01*
Y56824D01*
X99401D01*
Y56870D01*
X99378D01*
Y56917D01*
X99354D01*
Y56940D01*
X99331D01*
Y56987D01*
X99308D01*
Y57010D01*
X99285D01*
Y57033D01*
X99261D01*
Y57080D01*
X99238D01*
Y57103D01*
X99215D01*
Y57126D01*
X99191D01*
Y57149D01*
X99168D01*
Y57173D01*
X99145D01*
Y57196D01*
X99122D01*
Y57219D01*
X99098D01*
Y57266D01*
X99075D01*
Y57312D01*
X99052D01*
Y57405D01*
X99075D01*
Y57475D01*
X99098D01*
Y57499D01*
X99122D01*
Y57522D01*
X99145D01*
Y57545D01*
X99215D01*
Y57568D01*
X99308D01*
Y57545D01*
D02*
G37*
G36*
X103101Y53682D02*
X103171D01*
Y53658D01*
X103218D01*
Y53635D01*
X103241D01*
Y53612D01*
X103264D01*
Y53589D01*
X103288D01*
Y53565D01*
X103311D01*
Y53519D01*
X103334D01*
Y53449D01*
X103357D01*
Y52890D01*
X103334D01*
Y52797D01*
X103381D01*
Y52821D01*
X103404D01*
Y52844D01*
X103427D01*
Y52867D01*
X103450D01*
Y52890D01*
X103474D01*
Y52914D01*
X103497D01*
Y52937D01*
X103520D01*
Y52960D01*
X103544D01*
Y52984D01*
X103590D01*
Y53007D01*
X103613D01*
Y53030D01*
X103637D01*
Y53053D01*
X103683D01*
Y53077D01*
X103706D01*
Y53100D01*
X103753D01*
Y53123D01*
X103800D01*
Y53146D01*
X103846D01*
Y53170D01*
X103869D01*
Y53193D01*
X103939D01*
Y53216D01*
X103986D01*
Y53240D01*
X104032D01*
Y53263D01*
X104102D01*
Y53286D01*
X104172D01*
Y53309D01*
X104288D01*
Y53333D01*
X104428D01*
Y53356D01*
X104730D01*
Y53333D01*
X104847D01*
Y53309D01*
X104940D01*
Y53286D01*
X105010D01*
Y53263D01*
X105080D01*
Y53240D01*
X105126D01*
Y53216D01*
X105173D01*
Y53193D01*
X105219D01*
Y53170D01*
X105266D01*
Y53146D01*
X105312D01*
Y53123D01*
X105336D01*
Y53100D01*
X105359D01*
Y53077D01*
X105405D01*
Y53053D01*
X105429D01*
Y53030D01*
X105452D01*
Y53007D01*
X105475D01*
Y52984D01*
X105498D01*
Y52960D01*
X105522D01*
Y52937D01*
X105545D01*
Y52914D01*
X105568D01*
Y52890D01*
X105592D01*
Y52867D01*
X105615D01*
Y52844D01*
X105638D01*
Y52821D01*
X105661D01*
Y52774D01*
X105685D01*
Y52751D01*
X105708D01*
Y52704D01*
X105731D01*
Y52681D01*
X105755D01*
Y52634D01*
X105778D01*
Y52588D01*
X105801D01*
Y52541D01*
X105824D01*
Y52495D01*
X105848D01*
Y52448D01*
X105871D01*
Y52402D01*
X105894D01*
Y52332D01*
X105917D01*
Y52262D01*
X105941D01*
Y52192D01*
X105964D01*
Y52076D01*
X105987D01*
Y51960D01*
X106011D01*
Y51750D01*
X106034D01*
Y51448D01*
X106011D01*
Y51238D01*
X105987D01*
Y51098D01*
X105964D01*
Y51005D01*
X105941D01*
Y50912D01*
X105917D01*
Y50842D01*
X105894D01*
Y50773D01*
X105871D01*
Y50703D01*
X105848D01*
Y50633D01*
X105824D01*
Y50586D01*
X105801D01*
Y50540D01*
X105778D01*
Y50470D01*
X105755D01*
Y50424D01*
X105731D01*
Y50377D01*
X105708D01*
Y50354D01*
X105685D01*
Y50307D01*
X105661D01*
Y50261D01*
X105638D01*
Y50214D01*
X105615D01*
Y50191D01*
X105592D01*
Y50144D01*
X105568D01*
Y50121D01*
X105545D01*
Y50098D01*
X105522D01*
Y50051D01*
X105498D01*
Y50028D01*
X105475D01*
Y50005D01*
X105452D01*
Y49958D01*
X105429D01*
Y49935D01*
X105405D01*
Y49911D01*
X105382D01*
Y49888D01*
X105359D01*
Y49865D01*
X105336D01*
Y49842D01*
X105312D01*
Y49818D01*
X105289D01*
Y49795D01*
X105266D01*
Y49772D01*
X105242D01*
Y49749D01*
X105219D01*
Y49725D01*
X105196D01*
Y49702D01*
X105173D01*
Y49679D01*
X105149D01*
Y49655D01*
X105103D01*
Y49632D01*
X105080D01*
Y49609D01*
X105056D01*
Y49586D01*
X105010D01*
Y49562D01*
X104986D01*
Y49539D01*
X104940D01*
Y49516D01*
X104917D01*
Y49493D01*
X104870D01*
Y49469D01*
X104824D01*
Y49446D01*
X104800D01*
Y49423D01*
X104754D01*
Y49399D01*
X104684D01*
Y49376D01*
X104637D01*
Y49353D01*
X104568D01*
Y49330D01*
X104498D01*
Y49306D01*
X104405D01*
Y49283D01*
X104288D01*
Y49260D01*
X103893D01*
Y49283D01*
X103776D01*
Y49306D01*
X103683D01*
Y49330D01*
X103613D01*
Y49353D01*
X103567D01*
Y49376D01*
X103520D01*
Y49399D01*
X103474D01*
Y49423D01*
X103427D01*
Y49446D01*
X103381D01*
Y49469D01*
X103357D01*
Y49493D01*
X103311D01*
Y49516D01*
X103288D01*
Y49539D01*
X103264D01*
Y49562D01*
X103218D01*
Y49586D01*
X103194D01*
Y49609D01*
X103171D01*
Y49632D01*
X103148D01*
Y49655D01*
X103125D01*
Y49679D01*
X103101D01*
Y49702D01*
X103078D01*
Y49725D01*
X103055D01*
Y49749D01*
X103032D01*
Y49795D01*
X103008D01*
Y49818D01*
X102985D01*
Y49842D01*
X102962D01*
Y49888D01*
X102938D01*
Y49911D01*
X102915D01*
Y49958D01*
X102892D01*
Y50005D01*
X102869D01*
Y50028D01*
X102822D01*
Y49958D01*
X102799D01*
Y49911D01*
X102776D01*
Y49865D01*
X102752D01*
Y49818D01*
X102729D01*
Y49772D01*
X102706D01*
Y49725D01*
X102682D01*
Y49679D01*
X102659D01*
Y49632D01*
X102636D01*
Y49586D01*
X102613D01*
Y49539D01*
X102589D01*
Y49516D01*
X102566D01*
Y49469D01*
X102543D01*
Y49423D01*
X102520D01*
Y49376D01*
X102496D01*
Y49353D01*
X102473D01*
Y49306D01*
X102450D01*
Y49283D01*
X102426D01*
Y49237D01*
X102403D01*
Y49213D01*
X102380D01*
Y49167D01*
X102357D01*
Y49143D01*
X102333D01*
Y49097D01*
X102310D01*
Y49074D01*
X102287D01*
Y49027D01*
X102264D01*
Y49004D01*
X102240D01*
Y48981D01*
X102217D01*
Y48957D01*
X103939D01*
Y48934D01*
X104009D01*
Y48911D01*
X104056D01*
Y48887D01*
X104079D01*
Y48864D01*
X104102D01*
Y48841D01*
X104125D01*
Y48794D01*
X104149D01*
Y48748D01*
X104172D01*
Y48562D01*
X104149D01*
Y48515D01*
X104125D01*
Y48469D01*
X104102D01*
Y48445D01*
X104079D01*
Y48422D01*
X104056D01*
Y48399D01*
X104032D01*
Y48375D01*
X104009D01*
Y48352D01*
X103986D01*
Y48329D01*
X103962D01*
Y48306D01*
X103939D01*
Y48282D01*
X103916D01*
Y48259D01*
X103893D01*
Y48236D01*
X103869D01*
Y48213D01*
X103846D01*
Y48189D01*
X103823D01*
Y48166D01*
X103800D01*
Y48143D01*
X103776D01*
Y48119D01*
X103753D01*
Y48096D01*
X103730D01*
Y48050D01*
X103706D01*
Y48026D01*
X103683D01*
Y48003D01*
X103660D01*
Y47980D01*
X103637D01*
Y47957D01*
X103613D01*
Y47933D01*
X103590D01*
Y47910D01*
X103567D01*
Y47887D01*
X103544D01*
Y47863D01*
X103520D01*
Y47840D01*
X103497D01*
Y47817D01*
X103474D01*
Y47794D01*
X103450D01*
Y47770D01*
X103427D01*
Y47747D01*
X103404D01*
Y47724D01*
X103381D01*
Y47701D01*
X103357D01*
Y47677D01*
X103334D01*
Y47654D01*
X103311D01*
Y47631D01*
X103288D01*
Y47607D01*
X103264D01*
Y47584D01*
X103241D01*
Y47561D01*
X103194D01*
Y47538D01*
X103171D01*
Y47514D01*
X103148D01*
Y47491D01*
X103101D01*
Y47468D01*
X103078D01*
Y47445D01*
X103055D01*
Y47421D01*
X103008D01*
Y47398D01*
X102985D01*
Y47375D01*
X102938D01*
Y47351D01*
X102892D01*
Y47328D01*
X102845D01*
Y47305D01*
X102822D01*
Y47282D01*
X102776D01*
Y47258D01*
X102729D01*
Y47235D01*
X102682D01*
Y47212D01*
X102613D01*
Y47189D01*
X102566D01*
Y47165D01*
X102496D01*
Y47142D01*
X102450D01*
Y47119D01*
X102380D01*
Y47095D01*
X102310D01*
Y47072D01*
X102240D01*
Y47049D01*
X102147D01*
Y47026D01*
X102077D01*
Y47002D01*
X101984D01*
Y46979D01*
X101891D01*
Y46956D01*
X101798D01*
Y46933D01*
X101682D01*
Y46909D01*
X101565D01*
Y46886D01*
X101426D01*
Y46863D01*
X101309D01*
Y46839D01*
X101146D01*
Y46816D01*
X97074D01*
Y46839D01*
X96887D01*
Y46863D01*
X96748D01*
Y46886D01*
X96608D01*
Y46909D01*
X96468D01*
Y46933D01*
X96352D01*
Y46956D01*
X96259D01*
Y46979D01*
X96166D01*
Y47002D01*
X96073D01*
Y47026D01*
X95980D01*
Y47049D01*
X95910D01*
Y47072D01*
X95840D01*
Y47095D01*
X95770D01*
Y47119D01*
X95700D01*
Y47142D01*
X95654D01*
Y47165D01*
X95584D01*
Y47189D01*
X95538D01*
Y47212D01*
X95491D01*
Y47235D01*
X95444D01*
Y47258D01*
X95398D01*
Y47282D01*
X95351D01*
Y47305D01*
X95328D01*
Y47328D01*
X95282D01*
Y47351D01*
X95235D01*
Y47375D01*
X95212D01*
Y47398D01*
X95165D01*
Y47421D01*
X95142D01*
Y47445D01*
X95119D01*
Y47468D01*
X95072D01*
Y47491D01*
X95049D01*
Y47514D01*
X95026D01*
Y47538D01*
X95002D01*
Y47561D01*
X94956D01*
Y47584D01*
X94932D01*
Y47607D01*
X94909D01*
Y47631D01*
X94886D01*
Y47654D01*
X94863D01*
Y47677D01*
X94839D01*
Y47701D01*
X94816D01*
Y47724D01*
X94793D01*
Y47747D01*
X94770D01*
Y47770D01*
X94746D01*
Y47794D01*
X94723D01*
Y47817D01*
X94700D01*
Y47840D01*
X94676D01*
Y47887D01*
X94653D01*
Y47910D01*
X94630D01*
Y47933D01*
X94607D01*
Y47957D01*
X94583D01*
Y47980D01*
X94560D01*
Y48003D01*
X94537D01*
Y48026D01*
X94514D01*
Y48050D01*
X94490D01*
Y48096D01*
X94467D01*
Y48119D01*
X94444D01*
Y48143D01*
X94420D01*
Y48166D01*
X94397D01*
Y48189D01*
X94374D01*
Y48213D01*
X94351D01*
Y48236D01*
X94327D01*
Y48282D01*
X94304D01*
Y48306D01*
X94281D01*
Y48329D01*
X94258D01*
Y48352D01*
X94234D01*
Y48375D01*
X94211D01*
Y48399D01*
X94188D01*
Y48422D01*
X94164D01*
Y48445D01*
X94141D01*
Y48469D01*
X94118D01*
Y48492D01*
X94095D01*
Y48562D01*
X94071D01*
Y48771D01*
X94095D01*
Y48818D01*
X94118D01*
Y48841D01*
X94141D01*
Y48864D01*
X94164D01*
Y48887D01*
X94188D01*
Y48911D01*
X94234D01*
Y48934D01*
X94304D01*
Y48957D01*
X95980D01*
Y48981D01*
X95956D01*
Y49004D01*
X95933D01*
Y49027D01*
X95910D01*
Y49074D01*
X95887D01*
Y49097D01*
X95863D01*
Y49143D01*
X95840D01*
Y49167D01*
X95817D01*
Y49213D01*
X95794D01*
Y49260D01*
X95770D01*
Y49283D01*
X95747D01*
Y49330D01*
X95724D01*
Y49353D01*
X95700D01*
Y49399D01*
X95677D01*
Y49446D01*
X95654D01*
Y49493D01*
X95631D01*
Y49539D01*
X95607D01*
Y49562D01*
X95584D01*
Y49609D01*
X95561D01*
Y49655D01*
X95538D01*
Y49702D01*
X95514D01*
Y49749D01*
X95491D01*
Y49795D01*
X95468D01*
Y49865D01*
X95444D01*
Y49911D01*
X95421D01*
Y49958D01*
X95398D01*
Y50028D01*
X95375D01*
Y50074D01*
X95351D01*
Y50144D01*
X95328D01*
Y50191D01*
X95305D01*
Y50261D01*
X95282D01*
Y50330D01*
X95258D01*
Y50400D01*
X95235D01*
Y50470D01*
X95212D01*
Y50540D01*
X95188D01*
Y50610D01*
X95165D01*
Y50703D01*
X95142D01*
Y50796D01*
X95119D01*
Y50866D01*
X95095D01*
Y50982D01*
X95072D01*
Y51075D01*
X95049D01*
Y51192D01*
X95026D01*
Y51308D01*
X95002D01*
Y51448D01*
X94979D01*
Y51587D01*
X94956D01*
Y51750D01*
X94932D01*
Y51983D01*
X94909D01*
Y52216D01*
X94886D01*
Y52565D01*
X94863D01*
Y53519D01*
X94886D01*
Y53565D01*
X94909D01*
Y53589D01*
X94932D01*
Y53612D01*
X94956D01*
Y53635D01*
X94979D01*
Y53658D01*
X95026D01*
Y53682D01*
X95095D01*
Y53705D01*
X103101D01*
Y53682D01*
D02*
G37*
G36*
X81852Y44560D02*
X81598D01*
Y44940D01*
X81852D01*
Y44560D01*
D02*
G37*
%LPC*%
G36*
X104730Y52751D02*
X104405D01*
Y52728D01*
X104312D01*
Y52704D01*
X104242D01*
Y52681D01*
X104195D01*
Y52658D01*
X104149D01*
Y52634D01*
X104102D01*
Y52611D01*
X104056D01*
Y52588D01*
X104009D01*
Y52565D01*
X103986D01*
Y52541D01*
X103962D01*
Y52518D01*
X103916D01*
Y52495D01*
X103893D01*
Y52472D01*
X103869D01*
Y52448D01*
X103846D01*
Y52425D01*
X103823D01*
Y52402D01*
X103800D01*
Y52378D01*
X103776D01*
Y52355D01*
X103753D01*
Y52332D01*
X103730D01*
Y52309D01*
X103706D01*
Y52285D01*
X103683D01*
Y52262D01*
X103660D01*
Y52239D01*
X103637D01*
Y52192D01*
X103613D01*
Y52169D01*
X103590D01*
Y52146D01*
X103567D01*
Y52099D01*
X103544D01*
Y52053D01*
X103520D01*
Y52029D01*
X103497D01*
Y51983D01*
X103474D01*
Y51936D01*
X103450D01*
Y51890D01*
X103427D01*
Y51843D01*
X103404D01*
Y51797D01*
X103381D01*
Y51727D01*
X103357D01*
Y51680D01*
X103334D01*
Y51610D01*
X103311D01*
Y51541D01*
X103288D01*
Y51424D01*
X103264D01*
Y51331D01*
X103241D01*
Y51122D01*
X103218D01*
Y50889D01*
X103241D01*
Y50703D01*
X103264D01*
Y50586D01*
X103288D01*
Y50517D01*
X103311D01*
Y50447D01*
X103334D01*
Y50400D01*
X103357D01*
Y50330D01*
X103381D01*
Y50307D01*
X103404D01*
Y50261D01*
X103427D01*
Y50214D01*
X103450D01*
Y50191D01*
X103474D01*
Y50144D01*
X103497D01*
Y50121D01*
X103520D01*
Y50098D01*
X103544D01*
Y50074D01*
X103567D01*
Y50051D01*
X103590D01*
Y50028D01*
X103613D01*
Y50005D01*
X103660D01*
Y49981D01*
X103683D01*
Y49958D01*
X103730D01*
Y49935D01*
X103776D01*
Y49911D01*
X103823D01*
Y49888D01*
X103893D01*
Y49865D01*
X104032D01*
Y49842D01*
X104149D01*
Y49865D01*
X104288D01*
Y49888D01*
X104358D01*
Y49911D01*
X104428D01*
Y49935D01*
X104474D01*
Y49958D01*
X104521D01*
Y49981D01*
X104568D01*
Y50005D01*
X104614D01*
Y50028D01*
X104637D01*
Y50051D01*
X104684D01*
Y50074D01*
X104707D01*
Y50098D01*
X104754D01*
Y50121D01*
X104777D01*
Y50144D01*
X104800D01*
Y50167D01*
X104824D01*
Y50191D01*
X104847D01*
Y50214D01*
X104870D01*
Y50237D01*
X104893D01*
Y50261D01*
X104917D01*
Y50284D01*
X104940D01*
Y50307D01*
X104963D01*
Y50330D01*
X104986D01*
Y50354D01*
X105010D01*
Y50400D01*
X105033D01*
Y50424D01*
X105056D01*
Y50447D01*
X105080D01*
Y50493D01*
X105103D01*
Y50517D01*
X105126D01*
Y50563D01*
X105149D01*
Y50610D01*
X105173D01*
Y50656D01*
X105196D01*
Y50680D01*
X105219D01*
Y50726D01*
X105242D01*
Y50796D01*
X105266D01*
Y50842D01*
X105289D01*
Y50889D01*
X105312D01*
Y50959D01*
X105336D01*
Y51029D01*
X105359D01*
Y51122D01*
X105382D01*
Y51215D01*
X105405D01*
Y51354D01*
X105429D01*
Y51843D01*
X105405D01*
Y51983D01*
X105382D01*
Y52053D01*
X105359D01*
Y52122D01*
X105336D01*
Y52192D01*
X105312D01*
Y52239D01*
X105289D01*
Y52285D01*
X105266D01*
Y52332D01*
X105242D01*
Y52378D01*
X105219D01*
Y52402D01*
X105196D01*
Y52448D01*
X105173D01*
Y52472D01*
X105149D01*
Y52495D01*
X105126D01*
Y52518D01*
X105103D01*
Y52541D01*
X105080D01*
Y52565D01*
X105056D01*
Y52588D01*
X105033D01*
Y52611D01*
X104986D01*
Y52634D01*
X104963D01*
Y52658D01*
X104917D01*
Y52681D01*
X104870D01*
Y52704D01*
X104824D01*
Y52728D01*
X104730D01*
Y52751D01*
D02*
G37*
G36*
X102752Y53100D02*
X95444D01*
Y52867D01*
X95468D01*
Y52378D01*
X95491D01*
Y52099D01*
X95514D01*
Y51890D01*
X95538D01*
Y51704D01*
X95561D01*
Y51564D01*
X95584D01*
Y51424D01*
X95607D01*
Y51308D01*
X95631D01*
Y51192D01*
X95654D01*
Y51098D01*
X95677D01*
Y51005D01*
X95700D01*
Y50912D01*
X95724D01*
Y50819D01*
X95747D01*
Y50749D01*
X95770D01*
Y50656D01*
X95794D01*
Y50586D01*
X95817D01*
Y50517D01*
X95840D01*
Y50470D01*
X95863D01*
Y50400D01*
X95887D01*
Y50330D01*
X95910D01*
Y50284D01*
X95933D01*
Y50214D01*
X95956D01*
Y50167D01*
X95980D01*
Y50121D01*
X96003D01*
Y50051D01*
X96026D01*
Y50005D01*
X96050D01*
Y49958D01*
X96073D01*
Y49911D01*
X96096D01*
Y49865D01*
X96119D01*
Y49842D01*
X96143D01*
Y49795D01*
X96166D01*
Y49749D01*
X96189D01*
Y49702D01*
X96212D01*
Y49655D01*
X96236D01*
Y49632D01*
X96259D01*
Y49586D01*
X96282D01*
Y49539D01*
X96306D01*
Y49516D01*
X96329D01*
Y49469D01*
X96352D01*
Y49446D01*
X96375D01*
Y49399D01*
X96399D01*
Y49376D01*
X96422D01*
Y49353D01*
X96445D01*
Y49306D01*
X96468D01*
Y49283D01*
X96492D01*
Y49237D01*
X96515D01*
Y49213D01*
X96538D01*
Y49190D01*
X96562D01*
Y49167D01*
X96585D01*
Y49120D01*
X96608D01*
Y49097D01*
X96631D01*
Y49074D01*
X96655D01*
Y49050D01*
X96678D01*
Y49004D01*
X96701D01*
Y48981D01*
X96724D01*
Y48957D01*
X101449D01*
Y48981D01*
X101472D01*
Y49004D01*
X101495D01*
Y49027D01*
X101519D01*
Y49050D01*
X101542D01*
Y49074D01*
X101565D01*
Y49097D01*
X101589D01*
Y49143D01*
X101612D01*
Y49167D01*
X101635D01*
Y49190D01*
X101658D01*
Y49213D01*
X101682D01*
Y49260D01*
X101705D01*
Y49283D01*
X101728D01*
Y49306D01*
X101752D01*
Y49353D01*
X101775D01*
Y49376D01*
X101798D01*
Y49399D01*
X101821D01*
Y49446D01*
X101845D01*
Y49469D01*
X101868D01*
Y49516D01*
X101891D01*
Y49539D01*
X101914D01*
Y49586D01*
X101938D01*
Y49609D01*
X101961D01*
Y49655D01*
X101984D01*
Y49679D01*
X102008D01*
Y49725D01*
X102031D01*
Y49772D01*
X102054D01*
Y49818D01*
X102077D01*
Y49842D01*
X102101D01*
Y49888D01*
X102124D01*
Y49935D01*
X102147D01*
Y49981D01*
X102170D01*
Y50028D01*
X102194D01*
Y50074D01*
X102217D01*
Y50121D01*
X102240D01*
Y50167D01*
X102264D01*
Y50214D01*
X102287D01*
Y50284D01*
X102310D01*
Y50330D01*
X102333D01*
Y50400D01*
X102357D01*
Y50447D01*
X102380D01*
Y50517D01*
X102403D01*
Y50586D01*
X102426D01*
Y50656D01*
X102450D01*
Y50726D01*
X102473D01*
Y50819D01*
X102496D01*
Y50889D01*
X102520D01*
Y50982D01*
X102543D01*
Y51075D01*
X102566D01*
Y51192D01*
X102589D01*
Y51285D01*
X102613D01*
Y51424D01*
X102636D01*
Y51564D01*
X102659D01*
Y51727D01*
X102682D01*
Y51936D01*
X102706D01*
Y52169D01*
X102729D01*
Y52541D01*
X102752D01*
Y53100D01*
D02*
G37*
G36*
X103171Y48352D02*
X95049D01*
Y48329D01*
X95072D01*
Y48306D01*
X95095D01*
Y48282D01*
X95119D01*
Y48236D01*
X95142D01*
Y48213D01*
X95165D01*
Y48189D01*
X95188D01*
Y48166D01*
X95212D01*
Y48143D01*
X95235D01*
Y48119D01*
X95258D01*
Y48096D01*
X95282D01*
Y48073D01*
X95305D01*
Y48050D01*
X95328D01*
Y48026D01*
X95351D01*
Y48003D01*
X95398D01*
Y47980D01*
X95421D01*
Y47957D01*
X95444D01*
Y47933D01*
X95468D01*
Y47910D01*
X95514D01*
Y47887D01*
X95538D01*
Y47863D01*
X95584D01*
Y47840D01*
X95631D01*
Y47817D01*
X95654D01*
Y47794D01*
X95700D01*
Y47770D01*
X95747D01*
Y47747D01*
X95794D01*
Y47724D01*
X95863D01*
Y47701D01*
X95910D01*
Y47677D01*
X95980D01*
Y47654D01*
X96050D01*
Y47631D01*
X96119D01*
Y47607D01*
X96189D01*
Y47584D01*
X96282D01*
Y47561D01*
X96375D01*
Y47538D01*
X96492D01*
Y47514D01*
X96585D01*
Y47491D01*
X96724D01*
Y47468D01*
X96864D01*
Y47445D01*
X97027D01*
Y47421D01*
X97190D01*
Y47398D01*
X101030D01*
Y47421D01*
X101170D01*
Y47445D01*
X101309D01*
Y47468D01*
X101449D01*
Y47491D01*
X101565D01*
Y47514D01*
X101658D01*
Y47538D01*
X101775D01*
Y47561D01*
X101868D01*
Y47584D01*
X101938D01*
Y47607D01*
X102031D01*
Y47631D01*
X102101D01*
Y47654D01*
X102170D01*
Y47677D01*
X102240D01*
Y47701D01*
X102310D01*
Y47724D01*
X102357D01*
Y47747D01*
X102403D01*
Y47770D01*
X102473D01*
Y47794D01*
X102520D01*
Y47817D01*
X102566D01*
Y47840D01*
X102589D01*
Y47863D01*
X102636D01*
Y47887D01*
X102682D01*
Y47910D01*
X102706D01*
Y47933D01*
X102752D01*
Y47957D01*
X102776D01*
Y47980D01*
X102799D01*
Y48003D01*
X102822D01*
Y48026D01*
X102869D01*
Y48050D01*
X102892D01*
Y48073D01*
X102915D01*
Y48096D01*
X102938D01*
Y48119D01*
X102962D01*
Y48143D01*
X102985D01*
Y48166D01*
X103008D01*
Y48189D01*
X103032D01*
Y48213D01*
X103055D01*
Y48236D01*
X103078D01*
Y48259D01*
X103101D01*
Y48282D01*
X103125D01*
Y48306D01*
X103148D01*
Y48329D01*
X103171D01*
Y48352D01*
D02*
G37*
%LPD*%
D82*
X48125Y74102D02*
G03*
X48125Y74102I-125J0D01*
G01*
X39725Y56780D02*
G03*
X39725Y56780I-125J0D01*
G01*
X113375Y20000D02*
G03*
X113375Y20000I-125J0D01*
G01*
X125075Y56640D02*
G03*
X125075Y56640I-125J0D01*
G01*
X144100Y60950D02*
G03*
X144100Y60950I-125J0D01*
G01*
X140825Y73000D02*
G03*
X140825Y73000I-125J0D01*
G01*
X62450Y34125D02*
G03*
X62450Y34125I-125J0D01*
G01*
X131070Y73000D02*
G03*
X131070Y73000I-125J0D01*
G01*
X36025Y76002D02*
G03*
X36025Y76002I-125J0D01*
G01*
X125075Y46840D02*
G03*
X125075Y46840I-125J0D01*
G01*
X69125Y79100D02*
G03*
X69125Y79100I-125J0D01*
G01*
Y77525D02*
G03*
X69125Y77525I-125J0D01*
G01*
X49085Y30323D02*
G03*
X49085Y30323I-125J0D01*
G01*
D83*
X152400Y54300D02*
G03*
X152400Y54300I-100J0D01*
G01*
X40130Y44690D02*
G03*
X40130Y44690I-100J0D01*
G01*
X106000Y74920D02*
G03*
X106000Y74920I-100J0D01*
G01*
X33675Y74902D02*
Y75102D01*
X34925Y74902D02*
Y75102D01*
X78075Y17127D02*
Y17327D01*
X76925Y17127D02*
Y17327D01*
X28448Y3350D02*
X43248D01*
X25948Y5850D02*
X28448Y3350D01*
X43248D02*
Y9950D01*
X25948Y5850D02*
Y9950D01*
Y14050D02*
Y18150D01*
X43248Y14050D02*
Y20650D01*
X25948Y18150D02*
X28448Y20650D01*
X43248D01*
X74223Y58925D02*
X76729D01*
X74223Y56675D02*
X76729D01*
X70271Y34225D02*
X72777D01*
X70271Y31975D02*
X72777D01*
X73771D02*
X76277D01*
X73771Y34225D02*
X76277D01*
X85975Y43223D02*
Y45729D01*
X88225Y43223D02*
Y45729D01*
X45500Y76902D02*
Y77802D01*
X50500Y76902D02*
Y77802D01*
X37900Y58155D02*
Y62030D01*
Y51530D02*
Y55405D01*
X28400Y51530D02*
X37900D01*
X27400Y52530D02*
X28400Y51530D01*
X27400Y52530D02*
Y55405D01*
X28400Y62030D02*
X37900D01*
X27400Y61030D02*
X28400Y62030D01*
X27400Y58155D02*
Y61030D01*
X62575Y13000D02*
Y13200D01*
X61425Y13000D02*
Y13200D01*
X69150Y2625D02*
X69350D01*
X69150Y1375D02*
X69350D01*
X109700Y21725D02*
Y22275D01*
X110125Y20500D02*
X111100D01*
Y22675D02*
Y23500D01*
Y20500D02*
Y21325D01*
X110125Y23500D02*
X111100D01*
X122800Y18800D02*
Y23200D01*
X115200Y24950D02*
X119200D01*
X115200Y24150D02*
Y24950D01*
Y24150D02*
X116800D01*
Y22900D02*
Y24150D01*
Y17850D02*
Y19100D01*
X115200Y17850D02*
X116800D01*
X115200Y17050D02*
Y17850D01*
Y17050D02*
X119200D01*
X126700Y58545D02*
X133300D01*
Y49655D02*
Y50560D01*
Y52560D02*
Y53100D01*
Y55100D02*
Y55640D01*
Y57640D02*
Y58545D01*
X126700Y49655D02*
X133300D01*
X126700D02*
Y50560D01*
Y52560D02*
Y53100D01*
Y55100D02*
Y55640D01*
Y57640D02*
Y58545D01*
X139740Y62664D02*
Y63236D01*
X140617Y61500D02*
X141040D01*
Y63614D02*
Y64400D01*
Y61500D02*
Y62286D01*
X140617Y64400D02*
X141040D01*
X145925Y58000D02*
X149925D01*
X145925D02*
Y58800D01*
X147525D01*
Y60050D01*
Y63850D02*
Y65100D01*
X145925D02*
X147525D01*
X145925D02*
Y65900D01*
X149925D01*
X153525Y59750D02*
Y64150D01*
X141000Y75062D02*
Y78000D01*
Y68000D02*
Y70938D01*
Y78000D02*
X147100D01*
X150900D02*
X154000D01*
X150900Y68000D02*
X154000D01*
X141000D02*
X147100D01*
X154000D02*
Y78000D01*
X41754Y79347D02*
Y82253D01*
X44010Y79347D02*
Y82253D01*
X80650Y1375D02*
X80850D01*
X80650Y2625D02*
X80850D01*
X78125Y2900D02*
Y3100D01*
X76875Y2900D02*
Y3100D01*
X79400Y3425D02*
X81600D01*
X79400Y5575D02*
X81600D01*
X73125Y2900D02*
Y3100D01*
X71875Y2900D02*
Y3100D01*
X68400Y5575D02*
X70600D01*
X68400Y3425D02*
X70600D01*
X107675Y20000D02*
Y20200D01*
X106525Y20000D02*
Y20200D01*
X105975Y16525D02*
X106175D01*
X105975Y17875D02*
X106175D01*
X62600Y50725D02*
X62800D01*
X62600Y49475D02*
X62800D01*
X64325Y43300D02*
Y43500D01*
X63075Y43300D02*
Y43500D01*
X110350Y75550D02*
Y76950D01*
X107650Y75550D02*
Y76950D01*
X60900Y33625D02*
Y33750D01*
Y35200D02*
Y37450D01*
Y38900D02*
Y39025D01*
X55500D02*
X60900D01*
X55500Y33625D02*
Y33750D01*
Y35200D02*
Y37450D01*
Y38900D02*
Y39025D01*
Y33625D02*
X60900D01*
X56485Y27721D02*
X57035D01*
X55260Y26321D02*
Y27296D01*
X57435Y26321D02*
X58260D01*
X55260D02*
X56085D01*
X58260D02*
Y27296D01*
X56660Y29425D02*
X56860D01*
X56660Y30575D02*
X56860D01*
X-4000Y9460D02*
X8000D01*
X-4000D02*
Y47020D01*
X8000D01*
Y9460D02*
Y47020D01*
X137845Y70975D02*
Y71007D01*
Y74988D02*
Y75025D01*
X136805D02*
X137845D01*
X136805Y70975D02*
X137845D01*
X37925Y73527D02*
X38775D01*
X37925Y76577D02*
X38775D01*
X65880Y49098D02*
X67980D01*
X65891Y51100D02*
X67991D01*
X64741Y49950D02*
Y50250D01*
X64591Y50100D02*
X64891D01*
X33325Y48725D02*
X33525D01*
X33325Y47475D02*
X33525D01*
X50580Y69345D02*
X61040D01*
Y66655D02*
Y69345D01*
X50580Y66655D02*
X61040D01*
X50580D02*
Y69345D01*
X90090D02*
X100550D01*
Y66655D02*
Y69345D01*
X90090Y66655D02*
X100550D01*
X90090D02*
Y69345D01*
X74750Y83810D02*
X83750D01*
X74750Y71710D02*
X83750D01*
Y83810D01*
X74750Y71710D02*
Y83810D01*
X140400Y60525D02*
X140600D01*
X140400Y59275D02*
X140600D01*
X135875Y63850D02*
Y64050D01*
X137125Y63850D02*
Y64050D01*
X122375Y47665D02*
Y47865D01*
X123625Y47665D02*
Y47865D01*
X122825Y45800D02*
X123800D01*
Y42800D02*
Y43625D01*
Y44975D02*
Y45800D01*
X122825Y42800D02*
X123800D01*
X122400Y44025D02*
Y44575D01*
X119500Y55625D02*
X119700D01*
X119500Y54475D02*
X119700D01*
X119500Y45825D02*
X119700D01*
X119500Y44675D02*
X119700D01*
X122825Y55600D02*
X123800D01*
Y52600D02*
Y53425D01*
Y54775D02*
Y55600D01*
X122825Y52600D02*
X123800D01*
X122400Y53825D02*
Y54375D01*
X126700Y48745D02*
X133300D01*
Y39855D02*
Y40760D01*
Y42760D02*
Y43300D01*
Y45300D02*
Y45840D01*
Y47840D02*
Y48745D01*
X126700Y39855D02*
X133300D01*
X126700D02*
Y40760D01*
Y42760D02*
Y43300D01*
Y45300D02*
Y45840D01*
Y47840D02*
Y48745D01*
X44325Y74147D02*
Y76653D01*
X42075Y74147D02*
Y76653D01*
X79580Y22355D02*
Y25045D01*
Y22355D02*
X95120D01*
Y25045D01*
X79580D02*
X95120D01*
X17100Y61585D02*
Y62135D01*
X15700Y63360D02*
X16675D01*
X15700Y60360D02*
Y61185D01*
Y62535D02*
Y63360D01*
Y60360D02*
X16675D01*
X17100Y66665D02*
Y67215D01*
X15700Y68440D02*
X16675D01*
X15700Y65440D02*
Y66265D01*
Y67615D02*
Y68440D01*
Y65440D02*
X16675D01*
X17100Y71745D02*
Y72295D01*
X15700Y73520D02*
X16675D01*
X15700Y70520D02*
Y71345D01*
Y72695D02*
Y73520D01*
Y70520D02*
X16675D01*
X8000Y48160D02*
Y80640D01*
X-4000D02*
X8000D01*
X-4000Y48160D02*
Y80640D01*
Y48160D02*
X8000D01*
X63321Y61951D02*
X66227D01*
X63321Y59695D02*
X66227D01*
X60625Y41400D02*
Y41600D01*
X61775Y41400D02*
Y41600D01*
X20625Y52075D02*
X20825D01*
X20625Y53225D02*
X20825D01*
X20625Y57155D02*
X20825D01*
X20625Y58305D02*
X20825D01*
X20675Y62235D02*
X20875D01*
X20675Y63385D02*
X20875D01*
X20675Y67315D02*
X20875D01*
X20675Y68465D02*
X20875D01*
X20675Y72395D02*
X20875D01*
X20675Y73545D02*
X20875D01*
X59902Y58998D02*
Y61904D01*
X62158Y58998D02*
Y61904D01*
X57362Y58998D02*
Y61904D01*
X59618Y58998D02*
Y61904D01*
X54822Y58998D02*
Y61904D01*
X57078Y58998D02*
Y61904D01*
X52282Y58998D02*
Y61904D01*
X54538Y58998D02*
Y61904D01*
X49742Y58998D02*
Y61904D01*
X51998Y58998D02*
Y61904D01*
X47202Y58998D02*
Y61904D01*
X49458Y58998D02*
Y61904D01*
X128750Y78000D02*
X135750D01*
X128750Y85400D02*
X135750D01*
X128750Y78000D02*
Y85400D01*
X136150Y84245D02*
Y84895D01*
X135750Y84820D02*
X136150Y84895D01*
X135750Y84320D02*
X136150Y84245D01*
X135750Y84820D02*
Y85400D01*
Y79080D02*
X136150Y79155D01*
X135750Y78580D02*
X136150Y78505D01*
Y79155D01*
X135750Y78000D02*
Y78580D01*
Y79080D02*
Y84320D01*
X109655Y41420D02*
X112345D01*
X109655Y28420D02*
Y41420D01*
Y28420D02*
X112345D01*
Y41420D01*
X109655Y52540D02*
X112345D01*
X109655Y42080D02*
Y52540D01*
Y42080D02*
X112345D01*
Y52540D01*
X70175Y80400D02*
X72400D01*
X65600D02*
X67825D01*
X65600D02*
Y86200D01*
X72400Y80400D02*
Y86200D01*
X66600Y87200D02*
X67800D01*
X70200D02*
X71400D01*
X65600Y86200D02*
X66600Y87200D01*
X71400D02*
X72400Y86200D01*
X65600Y76200D02*
X67825D01*
X70175D02*
X72400D01*
X65600Y70400D02*
Y76200D01*
X72400Y70400D02*
Y76200D01*
X70300Y69400D02*
X71400D01*
X66600D02*
X67700D01*
X65600Y70400D02*
X66600Y69400D01*
X71400D02*
X72400Y70400D01*
X57589Y45267D02*
X60095D01*
X57589Y43017D02*
X60095D01*
X42873Y44065D02*
X45379D01*
X42873Y46315D02*
X45379D01*
X42873Y41575D02*
X45379D01*
X42873Y43825D02*
X45379D01*
X45560Y31598D02*
Y36998D01*
Y31598D02*
X47660D01*
X50360D02*
X52360D01*
Y36998D01*
X45560D02*
X46960Y38398D01*
X50960D02*
X52360Y36998D01*
X46960Y38398D02*
X47660D01*
X50260D02*
X50960D01*
X24573Y24025D02*
X27079D01*
X24573Y26275D02*
X27079D01*
X41047D02*
X43553D01*
X41047Y24025D02*
X43553D01*
X37723D02*
X40229D01*
X37723Y26275D02*
X40229D01*
X20950Y26341D02*
Y28847D01*
X23200Y26341D02*
Y28847D01*
X20950Y36501D02*
Y39007D01*
X23200Y36501D02*
Y39007D01*
Y43033D02*
Y45539D01*
X20950Y43033D02*
Y45539D01*
X23200Y32821D02*
Y35327D01*
X20950Y32821D02*
Y35327D01*
X33300Y71250D02*
Y72550D01*
X36221Y69128D02*
X39127D01*
X36221Y66872D02*
X39127D01*
X36473Y72125D02*
X38979D01*
X36473Y69875D02*
X38979D01*
X26585Y47625D02*
X29091D01*
X26585Y45375D02*
X29091D01*
X32321Y44675D02*
X34827D01*
X32321Y46925D02*
X34827D01*
X15700Y50200D02*
X16675D01*
X15700Y52375D02*
Y53200D01*
Y50200D02*
Y51025D01*
Y53200D02*
X16675D01*
X17100Y51425D02*
Y51975D01*
X15700Y55280D02*
X16675D01*
X15700Y57455D02*
Y58280D01*
Y55280D02*
Y56105D01*
Y58280D02*
X16675D01*
X17100Y56505D02*
Y57055D01*
X62575Y38621D02*
Y41127D01*
X64825Y38621D02*
Y41127D01*
X31071Y26275D02*
X33577D01*
X31071Y24025D02*
X33577D01*
X34473D02*
X36979D01*
X34473Y26275D02*
X36979D01*
X27821D02*
X30327D01*
X27821Y24025D02*
X30327D01*
X123625Y57465D02*
Y57665D01*
X122375Y57465D02*
Y57665D01*
X118500Y71439D02*
Y70439D01*
X119000D01*
X119166Y70606D01*
Y71272D01*
X119000Y71439D01*
X118500D01*
X119666Y70439D02*
X120000D01*
X120166Y70606D01*
Y70939D01*
X120000Y71105D01*
X119666D01*
X119500Y70939D01*
Y70606D01*
X119666Y70439D01*
X121499D02*
Y71105D01*
X121999D01*
X122165Y70939D01*
Y70439D01*
X122665D02*
X122999D01*
X123165Y70606D01*
Y70939D01*
X122999Y71105D01*
X122665D01*
X122499Y70939D01*
Y70606D01*
X122665Y70439D01*
X123665Y71272D02*
Y71105D01*
X123498D01*
X123832D01*
X123665D01*
Y70606D01*
X123832Y70439D01*
X118500Y68759D02*
X119000D01*
X119166Y68926D01*
X119000Y69093D01*
X118667D01*
X118500Y69259D01*
X118667Y69426D01*
X119166D01*
X119666Y68759D02*
X120000D01*
X120166Y68926D01*
Y69259D01*
X120000Y69426D01*
X119666D01*
X119500Y69259D01*
Y68926D01*
X119666Y68759D01*
X120499D02*
X120833D01*
X120666D01*
Y69759D01*
X120499D01*
X121999D02*
Y68759D01*
X121499D01*
X121332Y68926D01*
Y69259D01*
X121499Y69426D01*
X121999D01*
X122832Y68759D02*
X122499D01*
X122332Y68926D01*
Y69259D01*
X122499Y69426D01*
X122832D01*
X122999Y69259D01*
Y69093D01*
X122332D01*
X123332Y69426D02*
Y68759D01*
Y69093D01*
X123498Y69259D01*
X123665Y69426D01*
X123832D01*
X118500Y68079D02*
Y67080D01*
X119000D01*
X119166Y67246D01*
Y67413D01*
Y67580D01*
X119000Y67746D01*
X118500D01*
X119666Y67080D02*
X120000D01*
X120166Y67246D01*
Y67580D01*
X120000Y67746D01*
X119666D01*
X119500Y67580D01*
Y67246D01*
X119666Y67080D01*
X120666Y67913D02*
Y67746D01*
X120499D01*
X120833D01*
X120666D01*
Y67246D01*
X120833Y67080D01*
X121332Y68079D02*
Y67080D01*
Y67580D01*
X121499Y67746D01*
X121832D01*
X121999Y67580D01*
Y67080D01*
X123332Y67580D02*
X123998D01*
X123665Y67913D02*
Y67246D01*
X124331Y67080D02*
X124665D01*
X124498D01*
Y68079D01*
X124331Y67913D01*
X125831Y67080D02*
X125165D01*
X125831Y67746D01*
Y67913D01*
X125664Y68079D01*
X125331D01*
X125165Y67913D01*
X126164Y68079D02*
Y67413D01*
X126497Y67080D01*
X126831Y67413D01*
Y68079D01*
X118667Y66067D02*
X119000D01*
X119166Y65900D01*
Y65400D01*
X118667D01*
X118500Y65567D01*
X118667Y65733D01*
X119166D01*
X119500Y65400D02*
Y66067D01*
X120000D01*
X120166Y65900D01*
Y65400D01*
X121166Y66400D02*
Y65400D01*
X120666D01*
X120499Y65567D01*
Y65900D01*
X120666Y66067D01*
X121166D01*
X122499Y65900D02*
X123165D01*
X122832Y66233D02*
Y65567D01*
X124165Y65400D02*
X123498D01*
X124165Y66067D01*
Y66233D01*
X123998Y66400D01*
X123665D01*
X123498Y66233D01*
X124998Y65400D02*
Y66400D01*
X124498Y65900D01*
X125165D01*
X125498Y66400D02*
Y65733D01*
X125831Y65400D01*
X126164Y65733D01*
Y66400D01*
X24370Y11643D02*
Y12500D01*
X24798Y12072D02*
X23941D01*
X122700Y84361D02*
X123366D01*
X123033Y84694D02*
Y84028D01*
X123700Y83861D02*
X124033D01*
X123866D01*
Y84861D01*
X123700Y84694D01*
X125199Y83861D02*
X124533D01*
X125199Y84527D01*
Y84694D01*
X125033Y84861D01*
X124699D01*
X124533Y84694D01*
X125532Y84861D02*
Y84194D01*
X125866Y83861D01*
X126199Y84194D01*
Y84861D01*
X122386Y74500D02*
X123053D01*
X122719Y74833D02*
Y74167D01*
X124052Y74000D02*
X123386D01*
X124052Y74667D01*
Y74833D01*
X123886Y75000D01*
X123552D01*
X123386Y74833D01*
X124885Y74000D02*
Y75000D01*
X124386Y74500D01*
X125052D01*
X125385Y75000D02*
Y74333D01*
X125718Y74000D01*
X126052Y74333D01*
Y75000D01*
X108300Y40286D02*
Y39620D01*
X108800D01*
X108634Y39953D01*
Y40120D01*
X108800Y40286D01*
X109133D01*
X109300Y40120D01*
Y39787D01*
X109133Y39620D01*
X109300Y29720D02*
Y30053D01*
Y29887D01*
X108300D01*
X108467Y29720D01*
X15667Y7500D02*
X16334D01*
X16000D01*
Y6500D01*
X16667D02*
Y7500D01*
X17167D01*
X17333Y7333D01*
Y7000D01*
X17167Y6833D01*
X16667D01*
X18333Y7500D02*
X18000Y7333D01*
X17666Y7000D01*
Y6667D01*
X17833Y6500D01*
X18166D01*
X18333Y6667D01*
Y6833D01*
X18166Y7000D01*
X17666D01*
X98950Y28309D02*
X97950D01*
Y28809D01*
X98117Y28975D01*
X98450D01*
X98617Y28809D01*
Y28309D01*
Y28642D02*
X98950Y28975D01*
Y29975D02*
Y29308D01*
X98283Y29975D01*
X98117D01*
X97950Y29808D01*
Y29475D01*
X98117Y29308D01*
X98950Y30308D02*
Y30641D01*
Y30475D01*
X97950D01*
X98117Y30308D01*
X13233Y61344D02*
Y62010D01*
X13067Y62177D01*
X12734D01*
X12567Y62010D01*
Y61344D01*
X12734Y61177D01*
X13067D01*
X12900Y61511D02*
X13233Y61177D01*
X13067D02*
X13233Y61344D01*
X13567Y62010D02*
X13733Y62177D01*
X14066D01*
X14233Y62010D01*
Y61844D01*
X14066Y61677D01*
X13900D01*
X14066D01*
X14233Y61511D01*
Y61344D01*
X14066Y61177D01*
X13733D01*
X13567Y61344D01*
X13233Y66767D02*
Y67433D01*
X13067Y67600D01*
X12734D01*
X12567Y67433D01*
Y66767D01*
X12734Y66600D01*
X13067D01*
X12900Y66933D02*
X13233Y66600D01*
X13067D02*
X13233Y66767D01*
X14233Y66600D02*
X13567D01*
X14233Y67267D01*
Y67433D01*
X14066Y67600D01*
X13733D01*
X13567Y67433D01*
X13400Y71607D02*
Y72273D01*
X13233Y72440D01*
X12900D01*
X12734Y72273D01*
Y71607D01*
X12900Y71440D01*
X13233D01*
X13067Y71773D02*
X13400Y71440D01*
X13233D02*
X13400Y71607D01*
X13733Y71440D02*
X14066D01*
X13900D01*
Y72440D01*
X13733Y72273D01*
X57585Y41224D02*
Y42223D01*
X58085D01*
X58252Y42057D01*
Y41724D01*
X58085Y41557D01*
X57585D01*
X57918D02*
X58252Y41224D01*
X58585Y42057D02*
X58751Y42223D01*
X59085D01*
X59251Y42057D01*
Y41890D01*
X59085Y41724D01*
X58918D01*
X59085D01*
X59251Y41557D01*
Y41390D01*
X59085Y41224D01*
X58751D01*
X58585Y41390D01*
X59584Y42223D02*
X60251D01*
Y42057D01*
X59584Y41390D01*
Y41224D01*
X38584Y23342D02*
X38417Y23509D01*
X38084D01*
X37917Y23342D01*
Y22676D01*
X38084Y22509D01*
X38417D01*
X38584Y22676D01*
X39583Y22509D02*
X38917D01*
X39583Y23176D01*
Y23342D01*
X39417Y23509D01*
X39083D01*
X38917Y23342D01*
X39916D02*
X40083Y23509D01*
X40416D01*
X40583Y23342D01*
Y22676D01*
X40416Y22509D01*
X40083D01*
X39916Y22676D01*
Y23342D01*
X95647Y23150D02*
Y24150D01*
X96147D01*
X96313Y23983D01*
Y23650D01*
X96147Y23483D01*
X95647D01*
X97313Y24150D02*
X96647D01*
Y23650D01*
X96980Y23817D01*
X97146D01*
X97313Y23650D01*
Y23317D01*
X97146Y23150D01*
X96813D01*
X96647Y23317D01*
X34800Y77199D02*
X33800D01*
Y77699D01*
X33967Y77866D01*
X34300D01*
X34467Y77699D01*
Y77199D01*
Y77532D02*
X34800Y77866D01*
Y78699D02*
X33800D01*
X34300Y78199D01*
Y78865D01*
X34800Y79865D02*
Y79199D01*
X34133Y79865D01*
X33967D01*
X33800Y79698D01*
Y79365D01*
X33967Y79199D01*
X109035Y84974D02*
X108868Y85140D01*
X108535D01*
X108369Y84974D01*
Y84807D01*
X108535Y84641D01*
X108868D01*
X109035Y84474D01*
Y84307D01*
X108868Y84141D01*
X108535D01*
X108369Y84307D01*
X109368Y85140D02*
Y84141D01*
X109868D01*
X110035Y84307D01*
Y84474D01*
X109868Y84641D01*
X109368D01*
X109868D01*
X110035Y84807D01*
Y84974D01*
X109868Y85140D01*
X109368D01*
X110368Y84974D02*
X110535Y85140D01*
X110868D01*
X111034Y84974D01*
Y84807D01*
X110868Y84641D01*
X110701D01*
X110868D01*
X111034Y84474D01*
Y84307D01*
X110868Y84141D01*
X110535D01*
X110368Y84307D01*
X118934Y84694D02*
X118767Y84861D01*
X118434D01*
X118267Y84694D01*
Y84527D01*
X118434Y84361D01*
X118767D01*
X118934Y84194D01*
Y84028D01*
X118767Y83861D01*
X118434D01*
X118267Y84028D01*
X119267Y84861D02*
Y83861D01*
X119767D01*
X119933Y84028D01*
Y84194D01*
X119767Y84361D01*
X119267D01*
X119767D01*
X119933Y84527D01*
Y84694D01*
X119767Y84861D01*
X119267D01*
X120933Y83861D02*
X120266D01*
X120933Y84527D01*
Y84694D01*
X120766Y84861D01*
X120433D01*
X120266Y84694D01*
X119000Y74833D02*
X118834Y75000D01*
X118500D01*
X118334Y74833D01*
Y74667D01*
X118500Y74500D01*
X118834D01*
X119000Y74333D01*
Y74167D01*
X118834Y74000D01*
X118500D01*
X118334Y74167D01*
X119333Y75000D02*
Y74000D01*
X119833D01*
X120000Y74167D01*
Y74333D01*
X119833Y74500D01*
X119333D01*
X119833D01*
X120000Y74667D01*
Y74833D01*
X119833Y75000D01*
X119333D01*
X120333Y74000D02*
X120666D01*
X120500D01*
Y75000D01*
X120333Y74833D01*
X79917Y51912D02*
Y51079D01*
X80084Y50913D01*
X80417D01*
X80584Y51079D01*
Y51912D01*
X81583D02*
X80917D01*
Y51412D01*
X81250Y51579D01*
X81417D01*
X81583Y51412D01*
Y51079D01*
X81417Y50913D01*
X81083D01*
X80917Y51079D01*
X25867Y43300D02*
Y42467D01*
X26034Y42300D01*
X26367D01*
X26533Y42467D01*
Y43300D01*
X27366Y42300D02*
Y43300D01*
X26867Y42800D01*
X27533D01*
X85390Y84685D02*
Y83852D01*
X85556Y83685D01*
X85890D01*
X86056Y83852D01*
Y84685D01*
X86389Y84519D02*
X86556Y84685D01*
X86889D01*
X87056Y84519D01*
Y84352D01*
X86889Y84185D01*
X86723D01*
X86889D01*
X87056Y84019D01*
Y83852D01*
X86889Y83685D01*
X86556D01*
X86389Y83852D01*
X74755Y85383D02*
Y84550D01*
X74922Y84384D01*
X75255D01*
X75422Y84550D01*
Y85383D01*
X76421Y84384D02*
X75755D01*
X76421Y85050D01*
Y85217D01*
X76255Y85383D01*
X75921D01*
X75755Y85217D01*
X37724Y77986D02*
Y77153D01*
X37891Y76986D01*
X38224D01*
X38390Y77153D01*
Y77986D01*
X38724Y76986D02*
X39057D01*
X38890D01*
Y77986D01*
X38724Y77819D01*
X15176Y26136D02*
X15842D01*
X15509D01*
Y25137D01*
X16176D02*
Y26136D01*
X16676D01*
X16842Y25970D01*
Y25636D01*
X16676Y25470D01*
X16176D01*
X17175Y25137D02*
X17509D01*
X17342D01*
Y26136D01*
X17175Y25970D01*
X18008Y25303D02*
X18175Y25137D01*
X18508D01*
X18675Y25303D01*
Y25970D01*
X18508Y26136D01*
X18175D01*
X18008Y25970D01*
Y25803D01*
X18175Y25636D01*
X18675D01*
X15176Y21056D02*
X15842D01*
X15509D01*
Y20057D01*
X16176D02*
Y21056D01*
X16676D01*
X16842Y20890D01*
Y20556D01*
X16676Y20390D01*
X16176D01*
X17175Y20057D02*
X17509D01*
X17342D01*
Y21056D01*
X17175Y20890D01*
X18008D02*
X18175Y21056D01*
X18508D01*
X18675Y20890D01*
Y20723D01*
X18508Y20556D01*
X18675Y20390D01*
Y20223D01*
X18508Y20057D01*
X18175D01*
X18008Y20223D01*
Y20390D01*
X18175Y20556D01*
X18008Y20723D01*
Y20890D01*
X18175Y20556D02*
X18508D01*
X15176Y15976D02*
X15842D01*
X15509D01*
Y14977D01*
X16176D02*
Y15976D01*
X16676D01*
X16842Y15810D01*
Y15476D01*
X16676Y15310D01*
X16176D01*
X17175Y14977D02*
X17509D01*
X17342D01*
Y15976D01*
X17175Y15810D01*
X18008Y15976D02*
X18675D01*
Y15810D01*
X18008Y15143D01*
Y14977D01*
X40245Y56820D02*
X40911D01*
X40578D01*
Y55821D01*
X41245D02*
Y56820D01*
X41744D01*
X41911Y56654D01*
Y56321D01*
X41744Y56154D01*
X41245D01*
X42244Y55821D02*
X42578D01*
X42411D01*
Y56820D01*
X42244Y56654D01*
X43744Y56820D02*
X43411Y56654D01*
X43077Y56321D01*
Y55987D01*
X43244Y55821D01*
X43577D01*
X43744Y55987D01*
Y56154D01*
X43577Y56321D01*
X43077D01*
X45265Y54619D02*
X45931D01*
X45598D01*
Y53619D01*
X46264D02*
Y54619D01*
X46764D01*
X46931Y54452D01*
Y54119D01*
X46764Y53953D01*
X46264D01*
X47264Y53619D02*
X47597D01*
X47431D01*
Y54619D01*
X47264Y54452D01*
X48764Y54619D02*
X48097D01*
Y54119D01*
X48430Y54286D01*
X48597D01*
X48764Y54119D01*
Y53786D01*
X48597Y53619D01*
X48264D01*
X48097Y53786D01*
X50365Y52625D02*
X51031D01*
X50698D01*
Y51625D01*
X51365D02*
Y52625D01*
X51865D01*
X52031Y52458D01*
Y52125D01*
X51865Y51958D01*
X51365D01*
X52364Y51625D02*
X52698D01*
X52531D01*
Y52625D01*
X52364Y52458D01*
X53697Y51625D02*
Y52625D01*
X53197Y52125D01*
X53864D01*
X55266Y50602D02*
X55932D01*
X55599D01*
Y49602D01*
X56266D02*
Y50602D01*
X56765D01*
X56932Y50435D01*
Y50102D01*
X56765Y49935D01*
X56266D01*
X57265Y49602D02*
X57598D01*
X57432D01*
Y50602D01*
X57265Y50435D01*
X58098D02*
X58265Y50602D01*
X58598D01*
X58765Y50435D01*
Y50268D01*
X58598Y50102D01*
X58431D01*
X58598D01*
X58765Y49935D01*
Y49768D01*
X58598Y49602D01*
X58265D01*
X58098Y49768D01*
X15176Y31165D02*
X15842D01*
X15509D01*
Y30166D01*
X16176D02*
Y31165D01*
X16676D01*
X16842Y30999D01*
Y30666D01*
X16676Y30499D01*
X16176D01*
X17175Y30166D02*
X17509D01*
X17342D01*
Y31165D01*
X17175Y30999D01*
X18675Y30166D02*
X18008D01*
X18675Y30832D01*
Y30999D01*
X18508Y31165D01*
X18175D01*
X18008Y30999D01*
X15176Y41325D02*
X15842D01*
X15509D01*
Y40326D01*
X16176D02*
Y41325D01*
X16676D01*
X16842Y41159D01*
Y40826D01*
X16676Y40659D01*
X16176D01*
X17175Y40326D02*
X17509D01*
X17342D01*
Y41325D01*
X17175Y41159D01*
X18008Y40326D02*
X18342D01*
X18175D01*
Y41325D01*
X18008Y41159D01*
X15176Y36245D02*
X15842D01*
X15509D01*
Y35246D01*
X16176D02*
Y36245D01*
X16676D01*
X16842Y36079D01*
Y35746D01*
X16676Y35579D01*
X16176D01*
X17175Y35246D02*
X17509D01*
X17342D01*
Y36245D01*
X17175Y36079D01*
X18008D02*
X18175Y36245D01*
X18508D01*
X18675Y36079D01*
Y35412D01*
X18508Y35246D01*
X18175D01*
X18008Y35412D01*
Y36079D01*
X15176Y46405D02*
X15842D01*
X15509D01*
Y45406D01*
X16176D02*
Y46405D01*
X16676D01*
X16842Y46239D01*
Y45906D01*
X16676Y45739D01*
X16176D01*
X17175Y45572D02*
X17342Y45406D01*
X17675D01*
X17842Y45572D01*
Y46239D01*
X17675Y46405D01*
X17342D01*
X17175Y46239D01*
Y46072D01*
X17342Y45906D01*
X17842D01*
X60185Y84150D02*
X60851D01*
X60518D01*
Y83150D01*
X61184D02*
Y84150D01*
X61684D01*
X61851Y83983D01*
Y83650D01*
X61684Y83483D01*
X61184D01*
X62184Y83983D02*
X62351Y84150D01*
X62684D01*
X62851Y83983D01*
Y83817D01*
X62684Y83650D01*
X62851Y83483D01*
Y83317D01*
X62684Y83150D01*
X62351D01*
X62184Y83317D01*
Y83483D01*
X62351Y83650D01*
X62184Y83817D01*
Y83983D01*
X62351Y83650D02*
X62684D01*
X23667Y87500D02*
X24334D01*
X24000D01*
Y86500D01*
X24667D02*
Y87500D01*
X25167D01*
X25333Y87333D01*
Y87000D01*
X25167Y86833D01*
X24667D01*
X25666Y87500D02*
X26333D01*
Y87333D01*
X25666Y86667D01*
Y86500D01*
X60667Y77579D02*
X61334D01*
X61000D01*
Y76579D01*
X61667D02*
Y77579D01*
X62167D01*
X62333Y77412D01*
Y77079D01*
X62167Y76912D01*
X61667D01*
X63333Y77579D02*
X62666D01*
Y77079D01*
X63000Y77246D01*
X63166D01*
X63333Y77079D01*
Y76746D01*
X63166Y76579D01*
X62833D01*
X62666Y76746D01*
X33592Y87500D02*
X34259D01*
X33925D01*
Y86500D01*
X34592D02*
Y87500D01*
X35092D01*
X35258Y87333D01*
Y87000D01*
X35092Y86833D01*
X34592D01*
X36091Y86500D02*
Y87500D01*
X35591Y87000D01*
X36258D01*
X46667Y85500D02*
X47334D01*
X47000D01*
Y84500D01*
X47667D02*
Y85500D01*
X48167D01*
X48333Y85333D01*
Y85000D01*
X48167Y84833D01*
X47667D01*
X48666Y85333D02*
X48833Y85500D01*
X49166D01*
X49333Y85333D01*
Y85167D01*
X49166Y85000D01*
X49000D01*
X49166D01*
X49333Y84833D01*
Y84667D01*
X49166Y84500D01*
X48833D01*
X48666Y84667D01*
X142332Y13691D02*
Y14358D01*
Y14025D01*
X143331D01*
Y14691D02*
X142332D01*
Y15191D01*
X142498Y15358D01*
X142831D01*
X142998Y15191D01*
Y14691D01*
X143331Y16357D02*
Y15691D01*
X142665Y16357D01*
X142498D01*
X142332Y16191D01*
Y15857D01*
X142498Y15691D01*
X118660Y89000D02*
X119326D01*
X118993D01*
Y88000D01*
X119659D02*
Y89000D01*
X120159D01*
X120326Y88833D01*
Y88500D01*
X120159Y88333D01*
X119659D01*
X120659Y88000D02*
X120992D01*
X120826D01*
Y89000D01*
X120659Y88833D01*
X57734Y40358D02*
X57567Y40525D01*
X57234D01*
X57067Y40358D01*
Y40192D01*
X57234Y40025D01*
X57567D01*
X57734Y39858D01*
Y39692D01*
X57567Y39525D01*
X57234D01*
X57067Y39692D01*
X58067Y40525D02*
Y39525D01*
X58400Y39858D01*
X58733Y39525D01*
Y40525D01*
X59733Y39525D02*
X59066D01*
X59733Y40192D01*
Y40358D01*
X59566Y40525D01*
X59233D01*
X59066Y40358D01*
X135334Y66300D02*
Y67300D01*
X135834D01*
X136000Y67133D01*
Y66800D01*
X135834Y66633D01*
X135334D01*
X135667D02*
X136000Y66300D01*
X136833D02*
Y67300D01*
X136333Y66800D01*
X137000D01*
X137333Y66300D02*
X137666D01*
X137500D01*
Y67300D01*
X137333Y67133D01*
X135667Y59452D02*
Y60452D01*
X136167D01*
X136334Y60285D01*
Y59952D01*
X136167Y59785D01*
X135667D01*
X136000D02*
X136334Y59452D01*
X137167D02*
Y60452D01*
X136667Y59952D01*
X137333D01*
X137666Y60285D02*
X137833Y60452D01*
X138166D01*
X138333Y60285D01*
Y59619D01*
X138166Y59452D01*
X137833D01*
X137666Y59619D01*
Y60285D01*
X64777Y42900D02*
Y43900D01*
X65277D01*
X65444Y43733D01*
Y43400D01*
X65277Y43233D01*
X64777D01*
X65110D02*
X65444Y42900D01*
X65777Y43733D02*
X65943Y43900D01*
X66277D01*
X66443Y43733D01*
Y43567D01*
X66277Y43400D01*
X66110D01*
X66277D01*
X66443Y43233D01*
Y43067D01*
X66277Y42900D01*
X65943D01*
X65777Y43067D01*
X66776D02*
X66943Y42900D01*
X67276D01*
X67443Y43067D01*
Y43733D01*
X67276Y43900D01*
X66943D01*
X66776Y43733D01*
Y43567D01*
X66943Y43400D01*
X67443D01*
X105900Y18667D02*
X104900D01*
Y19167D01*
X105067Y19334D01*
X105400D01*
X105567Y19167D01*
Y18667D01*
Y19000D02*
X105900Y19334D01*
X105067Y19667D02*
X104900Y19833D01*
Y20167D01*
X105067Y20333D01*
X105233D01*
X105400Y20167D01*
Y20000D01*
Y20167D01*
X105567Y20333D01*
X105733D01*
X105900Y20167D01*
Y19833D01*
X105733Y19667D01*
X105900Y21166D02*
X104900D01*
X105400Y20666D01*
Y21333D01*
X118267Y48500D02*
Y49500D01*
X118767D01*
X118934Y49333D01*
Y49000D01*
X118767Y48833D01*
X118267D01*
X118600D02*
X118934Y48500D01*
X119267Y49333D02*
X119433Y49500D01*
X119767D01*
X119933Y49333D01*
Y49167D01*
X119767Y49000D01*
X119600D01*
X119767D01*
X119933Y48833D01*
Y48667D01*
X119767Y48500D01*
X119433D01*
X119267Y48667D01*
X120266Y49333D02*
X120433Y49500D01*
X120766D01*
X120933Y49333D01*
Y49167D01*
X120766Y49000D01*
X120600D01*
X120766D01*
X120933Y48833D01*
Y48667D01*
X120766Y48500D01*
X120433D01*
X120266Y48667D01*
X121667Y49600D02*
Y50600D01*
X122167D01*
X122334Y50433D01*
Y50100D01*
X122167Y49933D01*
X121667D01*
X122000D02*
X122334Y49600D01*
X122667Y50433D02*
X122833Y50600D01*
X123167D01*
X123333Y50433D01*
Y50267D01*
X123167Y50100D01*
X123000D01*
X123167D01*
X123333Y49933D01*
Y49767D01*
X123167Y49600D01*
X122833D01*
X122667Y49767D01*
X124333Y49600D02*
X123666D01*
X124333Y50267D01*
Y50433D01*
X124166Y50600D01*
X123833D01*
X123666Y50433D01*
X118434Y43000D02*
Y44000D01*
X118934D01*
X119100Y43833D01*
Y43500D01*
X118934Y43333D01*
X118434D01*
X118767D02*
X119100Y43000D01*
X119433Y43833D02*
X119600Y44000D01*
X119933D01*
X120100Y43833D01*
Y43667D01*
X119933Y43500D01*
X119767D01*
X119933D01*
X120100Y43333D01*
Y43167D01*
X119933Y43000D01*
X119600D01*
X119433Y43167D01*
X120433Y43000D02*
X120766D01*
X120600D01*
Y44000D01*
X120433Y43833D01*
X101467Y22400D02*
Y23400D01*
X101967D01*
X102134Y23233D01*
Y22900D01*
X101967Y22733D01*
X101467D01*
X101800D02*
X102134Y22400D01*
X102467Y23233D02*
X102633Y23400D01*
X102967D01*
X103133Y23233D01*
Y23067D01*
X102967Y22900D01*
X102800D01*
X102967D01*
X103133Y22733D01*
Y22567D01*
X102967Y22400D01*
X102633D01*
X102467Y22567D01*
X103466Y23233D02*
X103633Y23400D01*
X103966D01*
X104133Y23233D01*
Y22567D01*
X103966Y22400D01*
X103633D01*
X103466Y22567D01*
Y23233D01*
X118167Y52600D02*
Y53600D01*
X118667D01*
X118834Y53433D01*
Y53100D01*
X118667Y52933D01*
X118167D01*
X118500D02*
X118834Y52600D01*
X119833D02*
X119167D01*
X119833Y53267D01*
Y53433D01*
X119667Y53600D01*
X119333D01*
X119167Y53433D01*
X120166Y52767D02*
X120333Y52600D01*
X120666D01*
X120833Y52767D01*
Y53433D01*
X120666Y53600D01*
X120333D01*
X120166Y53433D01*
Y53267D01*
X120333Y53100D01*
X120833D01*
X118267Y58400D02*
Y59400D01*
X118767D01*
X118934Y59233D01*
Y58900D01*
X118767Y58733D01*
X118267D01*
X118600D02*
X118934Y58400D01*
X119933D02*
X119267D01*
X119933Y59067D01*
Y59233D01*
X119767Y59400D01*
X119433D01*
X119267Y59233D01*
X120266D02*
X120433Y59400D01*
X120766D01*
X120933Y59233D01*
Y59067D01*
X120766Y58900D01*
X120933Y58733D01*
Y58567D01*
X120766Y58400D01*
X120433D01*
X120266Y58567D01*
Y58733D01*
X120433Y58900D01*
X120266Y59067D01*
Y59233D01*
X120433Y58900D02*
X120766D01*
X122186Y59985D02*
Y60985D01*
X122686D01*
X122853Y60818D01*
Y60485D01*
X122686Y60319D01*
X122186D01*
X122519D02*
X122853Y59985D01*
X123852D02*
X123186D01*
X123852Y60652D01*
Y60818D01*
X123686Y60985D01*
X123352D01*
X123186Y60818D01*
X124186Y60985D02*
X124852D01*
Y60818D01*
X124186Y60152D01*
Y59985D01*
X104842Y14900D02*
Y15900D01*
X105342D01*
X105509Y15733D01*
Y15400D01*
X105342Y15233D01*
X104842D01*
X105175D02*
X105509Y14900D01*
X106508D02*
X105842D01*
X106508Y15567D01*
Y15733D01*
X106342Y15900D01*
X106008D01*
X105842Y15733D01*
X107508Y15900D02*
X107175Y15733D01*
X106841Y15400D01*
Y15067D01*
X107008Y14900D01*
X107341D01*
X107508Y15067D01*
Y15233D01*
X107341Y15400D01*
X106841D01*
X61381Y51340D02*
Y52340D01*
X61881D01*
X62047Y52173D01*
Y51840D01*
X61881Y51673D01*
X61381D01*
X61714D02*
X62047Y51340D01*
X63047D02*
X62381D01*
X63047Y52006D01*
Y52173D01*
X62881Y52340D01*
X62547D01*
X62381Y52173D01*
X64047Y52340D02*
X63380D01*
Y51840D01*
X63714Y52006D01*
X63880D01*
X64047Y51840D01*
Y51507D01*
X63880Y51340D01*
X63547D01*
X63380Y51507D01*
X58667Y29500D02*
Y30500D01*
X59167D01*
X59334Y30333D01*
Y30000D01*
X59167Y29833D01*
X58667D01*
X59000D02*
X59334Y29500D01*
X60333D02*
X59667D01*
X60333Y30167D01*
Y30333D01*
X60167Y30500D01*
X59833D01*
X59667Y30333D01*
X61166Y29500D02*
Y30500D01*
X60666Y30000D01*
X61333D01*
X60595Y11667D02*
X59596D01*
Y12167D01*
X59762Y12334D01*
X60095D01*
X60262Y12167D01*
Y11667D01*
Y12000D02*
X60595Y12334D01*
Y13333D02*
Y12667D01*
X59929Y13333D01*
X59762D01*
X59596Y13167D01*
Y12833D01*
X59762Y12667D01*
Y13666D02*
X59596Y13833D01*
Y14166D01*
X59762Y14333D01*
X59929D01*
X60095Y14166D01*
Y14000D01*
Y14166D01*
X60262Y14333D01*
X60429D01*
X60595Y14166D01*
Y13833D01*
X60429Y13666D01*
X58763Y31475D02*
Y32475D01*
X59262D01*
X59429Y32308D01*
Y31975D01*
X59262Y31808D01*
X58763D01*
X59096D02*
X59429Y31475D01*
X60429D02*
X59762D01*
X60429Y32142D01*
Y32308D01*
X60262Y32475D01*
X59929D01*
X59762Y32308D01*
X61428Y31475D02*
X60762D01*
X61428Y32142D01*
Y32308D01*
X61262Y32475D01*
X60929D01*
X60762Y32308D01*
X76200Y15967D02*
X75200D01*
Y16467D01*
X75367Y16634D01*
X75700D01*
X75867Y16467D01*
Y15967D01*
Y16300D02*
X76200Y16634D01*
Y17633D02*
Y16967D01*
X75533Y17633D01*
X75367D01*
X75200Y17467D01*
Y17133D01*
X75367Y16967D01*
Y17966D02*
X75200Y18133D01*
Y18466D01*
X75367Y18633D01*
X76033D01*
X76200Y18466D01*
Y18133D01*
X76033Y17966D01*
X75367D01*
X74776Y1680D02*
X73776D01*
Y2180D01*
X73943Y2346D01*
X74276D01*
X74443Y2180D01*
Y1680D01*
Y2013D02*
X74776Y2346D01*
Y2680D02*
Y3013D01*
Y2846D01*
X73776D01*
X73943Y2680D01*
X74609Y3513D02*
X74776Y3679D01*
Y4012D01*
X74609Y4179D01*
X73943D01*
X73776Y4012D01*
Y3679D01*
X73943Y3513D01*
X74110D01*
X74276Y3679D01*
Y4179D01*
X76200Y1675D02*
X75200D01*
Y2175D01*
X75367Y2342D01*
X75700D01*
X75867Y2175D01*
Y1675D01*
Y2009D02*
X76200Y2342D01*
Y2675D02*
Y3008D01*
Y2842D01*
X75200D01*
X75367Y2675D01*
Y3508D02*
X75200Y3675D01*
Y4008D01*
X75367Y4175D01*
X75533D01*
X75700Y4008D01*
X75867Y4175D01*
X76033D01*
X76200Y4008D01*
Y3675D01*
X76033Y3508D01*
X75867D01*
X75700Y3675D01*
X75533Y3508D01*
X75367D01*
X75700Y3675D02*
Y4008D01*
X64600Y1575D02*
Y2575D01*
X65100D01*
X65267Y2408D01*
Y2075D01*
X65100Y1908D01*
X64600D01*
X64934D02*
X65267Y1575D01*
X65600D02*
X65933D01*
X65767D01*
Y2575D01*
X65600Y2408D01*
X66433Y2575D02*
X67100D01*
Y2408D01*
X66433Y1742D01*
Y1575D01*
X82950Y1600D02*
Y2600D01*
X83450D01*
X83617Y2433D01*
Y2100D01*
X83450Y1933D01*
X82950D01*
X83284D02*
X83617Y1600D01*
X83950D02*
X84283D01*
X84117D01*
Y2600D01*
X83950Y2433D01*
X85450Y2600D02*
X85116Y2433D01*
X84783Y2100D01*
Y1767D01*
X84950Y1600D01*
X85283D01*
X85450Y1767D01*
Y1933D01*
X85283Y2100D01*
X84783D01*
X22734Y52030D02*
Y53030D01*
X23234D01*
X23400Y52863D01*
Y52530D01*
X23234Y52363D01*
X22734D01*
X23067D02*
X23400Y52030D01*
X23734D02*
X24067D01*
X23900D01*
Y53030D01*
X23734Y52863D01*
X25233Y53030D02*
X24567D01*
Y52530D01*
X24900Y52697D01*
X25066D01*
X25233Y52530D01*
Y52197D01*
X25066Y52030D01*
X24733D01*
X24567Y52197D01*
X22850Y57275D02*
Y58275D01*
X23350D01*
X23517Y58108D01*
Y57775D01*
X23350Y57608D01*
X22850D01*
X23184D02*
X23517Y57275D01*
X23850D02*
X24183D01*
X24017D01*
Y58275D01*
X23850Y58108D01*
X25183Y57275D02*
Y58275D01*
X24683Y57775D01*
X25350D01*
X22734Y50182D02*
Y51182D01*
X23234D01*
X23400Y51015D01*
Y50682D01*
X23234Y50515D01*
X22734D01*
X23067D02*
X23400Y50182D01*
X23734D02*
X24067D01*
X23900D01*
Y51182D01*
X23734Y51015D01*
X24567D02*
X24733Y51182D01*
X25066D01*
X25233Y51015D01*
Y50849D01*
X25066Y50682D01*
X24900D01*
X25066D01*
X25233Y50515D01*
Y50349D01*
X25066Y50182D01*
X24733D01*
X24567Y50349D01*
X22750Y55384D02*
Y56384D01*
X23250D01*
X23417Y56217D01*
Y55884D01*
X23250Y55717D01*
X22750D01*
X23084D02*
X23417Y55384D01*
X23750D02*
X24083D01*
X23917D01*
Y56384D01*
X23750Y56217D01*
X25250Y55384D02*
X24583D01*
X25250Y56050D01*
Y56217D01*
X25083Y56384D01*
X24750D01*
X24583Y56217D01*
X22692Y62322D02*
Y63322D01*
X23192D01*
X23358Y63156D01*
Y62822D01*
X23192Y62656D01*
X22692D01*
X23025D02*
X23358Y62322D01*
X23691D02*
X24025D01*
X23858D01*
Y63322D01*
X23691Y63156D01*
X24524Y62322D02*
X24858D01*
X24691D01*
Y63322D01*
X24524Y63156D01*
X22750Y67351D02*
Y68351D01*
X23249D01*
X23416Y68184D01*
Y67851D01*
X23249Y67684D01*
X22750D01*
X23083D02*
X23416Y67351D01*
X23749D02*
X24082D01*
X23916D01*
Y68351D01*
X23749Y68184D01*
X24582D02*
X24749Y68351D01*
X25082D01*
X25249Y68184D01*
Y67518D01*
X25082Y67351D01*
X24749D01*
X24582Y67518D01*
Y68184D01*
X22740Y72424D02*
Y73424D01*
X23239D01*
X23406Y73257D01*
Y72924D01*
X23239Y72758D01*
X22740D01*
X23073D02*
X23406Y72424D01*
X23739Y72591D02*
X23906Y72424D01*
X24239D01*
X24406Y72591D01*
Y73257D01*
X24239Y73424D01*
X23906D01*
X23739Y73257D01*
Y73091D01*
X23906Y72924D01*
X24406D01*
X22817Y60375D02*
Y61375D01*
X23317D01*
X23483Y61208D01*
Y60875D01*
X23317Y60708D01*
X22817D01*
X23150D02*
X23483Y60375D01*
X23817Y61208D02*
X23983Y61375D01*
X24316D01*
X24483Y61208D01*
Y61042D01*
X24316Y60875D01*
X24483Y60708D01*
Y60542D01*
X24316Y60375D01*
X23983D01*
X23817Y60542D01*
Y60708D01*
X23983Y60875D01*
X23817Y61042D01*
Y61208D01*
X23983Y60875D02*
X24316D01*
X22672Y65398D02*
Y66398D01*
X23172D01*
X23339Y66231D01*
Y65898D01*
X23172Y65731D01*
X22672D01*
X23005D02*
X23339Y65398D01*
X23672Y66398D02*
X24338D01*
Y66231D01*
X23672Y65565D01*
Y65398D01*
X22717Y70494D02*
Y71493D01*
X23217D01*
X23384Y71327D01*
Y70994D01*
X23217Y70827D01*
X22717D01*
X23050D02*
X23384Y70494D01*
X24383Y71493D02*
X24050Y71327D01*
X23717Y70994D01*
Y70660D01*
X23883Y70494D01*
X24217D01*
X24383Y70660D01*
Y70827D01*
X24217Y70994D01*
X23717D01*
X37167Y49600D02*
Y50600D01*
X37667D01*
X37833Y50433D01*
Y50100D01*
X37667Y49933D01*
X37167D01*
X37500D02*
X37833Y49600D01*
X38167Y50433D02*
X38333Y50600D01*
X38666D01*
X38833Y50433D01*
Y50267D01*
X38666Y50100D01*
X38500D01*
X38666D01*
X38833Y49933D01*
Y49767D01*
X38666Y49600D01*
X38333D01*
X38167Y49767D01*
X35640Y47500D02*
Y48500D01*
X36139D01*
X36306Y48333D01*
Y48000D01*
X36139Y47833D01*
X35640D01*
X35973D02*
X36306Y47500D01*
X37306D02*
X36639D01*
X37306Y48167D01*
Y48333D01*
X37139Y48500D01*
X36806D01*
X36639Y48333D01*
X29734Y71400D02*
Y72400D01*
X30233D01*
X30400Y72233D01*
Y71900D01*
X30233Y71733D01*
X29734D01*
X30067D02*
X30400Y71400D01*
X30733D02*
X31066D01*
X30900D01*
Y72400D01*
X30733Y72233D01*
X122583Y41427D02*
Y42093D01*
X122417Y42260D01*
X122084D01*
X121917Y42093D01*
Y41427D01*
X122084Y41260D01*
X122417D01*
X122250Y41593D02*
X122583Y41260D01*
X122417D02*
X122583Y41427D01*
X122917Y41260D02*
X123250D01*
X123083D01*
Y42260D01*
X122917Y42093D01*
X123750Y41260D02*
X124083D01*
X123916D01*
Y42260D01*
X123750Y42093D01*
X127517Y38267D02*
Y38933D01*
X127350Y39100D01*
X127017D01*
X126850Y38933D01*
Y38267D01*
X127017Y38100D01*
X127350D01*
X127184Y38433D02*
X127517Y38100D01*
X127350D02*
X127517Y38267D01*
X127850Y38100D02*
X128183D01*
X128017D01*
Y39100D01*
X127850Y38933D01*
X128683D02*
X128850Y39100D01*
X129183D01*
X129350Y38933D01*
Y38267D01*
X129183Y38100D01*
X128850D01*
X128683Y38267D01*
Y38933D01*
X110233Y24267D02*
Y24933D01*
X110067Y25100D01*
X109734D01*
X109567Y24933D01*
Y24267D01*
X109734Y24100D01*
X110067D01*
X109900Y24433D02*
X110233Y24100D01*
X110067D02*
X110233Y24267D01*
X110567D02*
X110733Y24100D01*
X111066D01*
X111233Y24267D01*
Y24933D01*
X111066Y25100D01*
X110733D01*
X110567Y24933D01*
Y24767D01*
X110733Y24600D01*
X111233D01*
X122658Y51227D02*
Y51893D01*
X122492Y52060D01*
X122159D01*
X121992Y51893D01*
Y51227D01*
X122159Y51060D01*
X122492D01*
X122325Y51393D02*
X122658Y51060D01*
X122492D02*
X122658Y51227D01*
X122992Y51893D02*
X123158Y52060D01*
X123491D01*
X123658Y51893D01*
Y51727D01*
X123491Y51560D01*
X123658Y51393D01*
Y51227D01*
X123491Y51060D01*
X123158D01*
X122992Y51227D01*
Y51393D01*
X123158Y51560D01*
X122992Y51727D01*
Y51893D01*
X123158Y51560D02*
X123491D01*
X127333Y59367D02*
Y60033D01*
X127167Y60200D01*
X126834D01*
X126667Y60033D01*
Y59367D01*
X126834Y59200D01*
X127167D01*
X127000Y59533D02*
X127333Y59200D01*
X127167D02*
X127333Y59367D01*
X127667Y60200D02*
X128333D01*
Y60033D01*
X127667Y59367D01*
Y59200D01*
X59608Y26450D02*
Y27117D01*
X59441Y27283D01*
X59108D01*
X58941Y27117D01*
Y26450D01*
X59108Y26284D01*
X59441D01*
X59274Y26617D02*
X59608Y26284D01*
X59441D02*
X59608Y26450D01*
X60607Y27283D02*
X60274Y27117D01*
X59941Y26784D01*
Y26450D01*
X60107Y26284D01*
X60441D01*
X60607Y26450D01*
Y26617D01*
X60441Y26784D01*
X59941D01*
X13233Y51367D02*
Y52033D01*
X13067Y52200D01*
X12734D01*
X12567Y52033D01*
Y51367D01*
X12734Y51200D01*
X13067D01*
X12900Y51533D02*
X13233Y51200D01*
X13067D02*
X13233Y51367D01*
X14233Y52200D02*
X13567D01*
Y51700D01*
X13900Y51867D01*
X14066D01*
X14233Y51700D01*
Y51367D01*
X14066Y51200D01*
X13733D01*
X13567Y51367D01*
X13233Y56447D02*
Y57113D01*
X13067Y57280D01*
X12734D01*
X12567Y57113D01*
Y56447D01*
X12734Y56280D01*
X13067D01*
X12900Y56613D02*
X13233Y56280D01*
X13067D02*
X13233Y56447D01*
X14066Y56280D02*
Y57280D01*
X13567Y56780D01*
X14233D01*
X61667Y67500D02*
Y68500D01*
X62167D01*
X62333Y68333D01*
Y68000D01*
X62167Y67833D01*
X61667D01*
X62667Y68500D02*
X63333D01*
Y68333D01*
X62667Y67667D01*
Y67500D01*
X101192Y67365D02*
Y68365D01*
X101692D01*
X101859Y68198D01*
Y67865D01*
X101692Y67698D01*
X101192D01*
X102858Y68365D02*
X102525Y68198D01*
X102192Y67865D01*
Y67532D01*
X102359Y67365D01*
X102692D01*
X102858Y67532D01*
Y67698D01*
X102692Y67865D01*
X102192D01*
X109963Y52979D02*
Y53979D01*
X110463D01*
X110630Y53812D01*
Y53479D01*
X110463Y53312D01*
X109963D01*
X111463Y52979D02*
Y53979D01*
X110963Y53479D01*
X111629D01*
X109767Y26900D02*
Y27900D01*
X110267D01*
X110433Y27733D01*
Y27400D01*
X110267Y27233D01*
X109767D01*
X110767Y27733D02*
X110933Y27900D01*
X111266D01*
X111433Y27733D01*
Y27567D01*
X111266Y27400D01*
X111100D01*
X111266D01*
X111433Y27233D01*
Y27067D01*
X111266Y26900D01*
X110933D01*
X110767Y27067D01*
X9167Y47740D02*
Y48740D01*
X9667D01*
X9833Y48573D01*
Y48240D01*
X9667Y48073D01*
X9167D01*
X10833Y47740D02*
X10167D01*
X10833Y48407D01*
Y48573D01*
X10666Y48740D01*
X10333D01*
X10167Y48573D01*
X8834Y79500D02*
Y80500D01*
X9333D01*
X9500Y80333D01*
Y80000D01*
X9333Y79833D01*
X8834D01*
X9833Y79500D02*
X10166D01*
X10000D01*
Y80500D01*
X9833Y80333D01*
X51235Y79685D02*
Y78685D01*
X51902D01*
X52235D02*
X52568D01*
X52402D01*
Y79685D01*
X52235Y79518D01*
X137433Y47300D02*
X137100D01*
X137267D01*
Y46467D01*
X137100Y46300D01*
X136934D01*
X136767Y46467D01*
X138433Y47300D02*
X137767D01*
Y46800D01*
X138100Y46967D01*
X138266D01*
X138433Y46800D01*
Y46467D01*
X138266Y46300D01*
X137933D01*
X137767Y46467D01*
X116108Y26700D02*
X115775D01*
X115942D01*
Y25867D01*
X115775Y25700D01*
X115609D01*
X115442Y25867D01*
X116941Y25700D02*
Y26700D01*
X116442Y26200D01*
X117108D01*
X143933Y65946D02*
X143600D01*
X143767D01*
Y65113D01*
X143600Y64947D01*
X143434D01*
X143267Y65113D01*
X144267Y65780D02*
X144433Y65946D01*
X144766D01*
X144933Y65780D01*
Y65613D01*
X144766Y65446D01*
X144600D01*
X144766D01*
X144933Y65280D01*
Y65113D01*
X144766Y64947D01*
X144433D01*
X144267Y65113D01*
X141633Y79400D02*
X141300D01*
X141467D01*
Y78567D01*
X141300Y78400D01*
X141134D01*
X140967Y78567D01*
X142633Y78400D02*
X141967D01*
X142633Y79067D01*
Y79233D01*
X142466Y79400D01*
X142133D01*
X141967Y79233D01*
X134900Y86900D02*
X134567D01*
X134733D01*
Y86067D01*
X134567Y85900D01*
X134400D01*
X134234Y86067D01*
X135233Y85900D02*
X135566D01*
X135400D01*
Y86900D01*
X135233Y86733D01*
X66098Y52739D02*
Y51739D01*
X66598D01*
X66764Y51905D01*
Y52572D01*
X66598Y52739D01*
X66098D01*
X67098Y52572D02*
X67264Y52739D01*
X67597D01*
X67764Y52572D01*
Y52405D01*
X67597Y52239D01*
X67431D01*
X67597D01*
X67764Y52072D01*
Y51905D01*
X67597Y51739D01*
X67264D01*
X67098Y51905D01*
X139267Y66200D02*
Y65200D01*
X139767D01*
X139933Y65367D01*
Y66033D01*
X139767Y66200D01*
X139267D01*
X140933Y65200D02*
X140267D01*
X140933Y65867D01*
Y66033D01*
X140766Y66200D01*
X140433D01*
X140267Y66033D01*
X131334Y76500D02*
Y75500D01*
X131833D01*
X132000Y75667D01*
Y76333D01*
X131833Y76500D01*
X131334D01*
X132333Y75500D02*
X132666D01*
X132500D01*
Y76500D01*
X132333Y76333D01*
X74824Y60414D02*
X74657Y60581D01*
X74324D01*
X74157Y60414D01*
Y59748D01*
X74324Y59581D01*
X74657D01*
X74824Y59748D01*
X75657Y59581D02*
Y60581D01*
X75157Y60081D01*
X75823D01*
X76157Y60414D02*
X76323Y60581D01*
X76656D01*
X76823Y60414D01*
Y59748D01*
X76656Y59581D01*
X76323D01*
X76157Y59748D01*
Y60414D01*
X89039Y43779D02*
X88872Y43613D01*
Y43279D01*
X89039Y43113D01*
X89706D01*
X89872Y43279D01*
Y43613D01*
X89706Y43779D01*
X89039Y44112D02*
X88872Y44279D01*
Y44612D01*
X89039Y44779D01*
X89206D01*
X89372Y44612D01*
Y44446D01*
Y44612D01*
X89539Y44779D01*
X89706D01*
X89872Y44612D01*
Y44279D01*
X89706Y44112D01*
Y45112D02*
X89872Y45279D01*
Y45612D01*
X89706Y45779D01*
X89039D01*
X88872Y45612D01*
Y45279D01*
X89039Y45112D01*
X89206D01*
X89372Y45279D01*
Y45779D01*
X74559Y31258D02*
X74392Y31425D01*
X74059D01*
X73892Y31258D01*
Y30592D01*
X74059Y30425D01*
X74392D01*
X74559Y30592D01*
X74892Y31258D02*
X75058Y31425D01*
X75392D01*
X75558Y31258D01*
Y31092D01*
X75392Y30925D01*
X75225D01*
X75392D01*
X75558Y30758D01*
Y30592D01*
X75392Y30425D01*
X75058D01*
X74892Y30592D01*
X75891Y31258D02*
X76058Y31425D01*
X76391D01*
X76558Y31258D01*
Y31092D01*
X76391Y30925D01*
X76558Y30758D01*
Y30592D01*
X76391Y30425D01*
X76058D01*
X75891Y30592D01*
Y30758D01*
X76058Y30925D01*
X75891Y31092D01*
Y31258D01*
X76058Y30925D02*
X76391D01*
X58260Y46899D02*
X58094Y47066D01*
X57761D01*
X57594Y46899D01*
Y46233D01*
X57761Y46066D01*
X58094D01*
X58260Y46233D01*
X58594Y46899D02*
X58760Y47066D01*
X59094D01*
X59260Y46899D01*
Y46733D01*
X59094Y46566D01*
X58927D01*
X59094D01*
X59260Y46399D01*
Y46233D01*
X59094Y46066D01*
X58760D01*
X58594Y46233D01*
X59593Y47066D02*
X60260D01*
Y46899D01*
X59593Y46233D01*
Y46066D01*
X70934Y31308D02*
X70767Y31475D01*
X70434D01*
X70267Y31308D01*
Y30642D01*
X70434Y30475D01*
X70767D01*
X70934Y30642D01*
X71267Y31308D02*
X71433Y31475D01*
X71767D01*
X71933Y31308D01*
Y31142D01*
X71767Y30975D01*
X71600D01*
X71767D01*
X71933Y30808D01*
Y30642D01*
X71767Y30475D01*
X71433D01*
X71267Y30642D01*
X72933Y31475D02*
X72600Y31308D01*
X72266Y30975D01*
Y30642D01*
X72433Y30475D01*
X72766D01*
X72933Y30642D01*
Y30808D01*
X72766Y30975D01*
X72266D01*
X65934Y40133D02*
X65767Y40300D01*
X65434D01*
X65267Y40133D01*
Y39467D01*
X65434Y39300D01*
X65767D01*
X65934Y39467D01*
X66267Y40133D02*
X66433Y40300D01*
X66767D01*
X66933Y40133D01*
Y39967D01*
X66767Y39800D01*
X66600D01*
X66767D01*
X66933Y39633D01*
Y39467D01*
X66767Y39300D01*
X66433D01*
X66267Y39467D01*
X67933Y40300D02*
X67266D01*
Y39800D01*
X67600Y39967D01*
X67766D01*
X67933Y39800D01*
Y39467D01*
X67766Y39300D01*
X67433D01*
X67266Y39467D01*
X68684Y7033D02*
X68517Y7200D01*
X68184D01*
X68017Y7033D01*
Y6367D01*
X68184Y6200D01*
X68517D01*
X68684Y6367D01*
X69017Y7033D02*
X69183Y7200D01*
X69517D01*
X69683Y7033D01*
Y6867D01*
X69517Y6700D01*
X69350D01*
X69517D01*
X69683Y6533D01*
Y6367D01*
X69517Y6200D01*
X69183D01*
X69017Y6367D01*
X70516Y6200D02*
Y7200D01*
X70016Y6700D01*
X70683D01*
X79784Y7033D02*
X79617Y7200D01*
X79284D01*
X79117Y7033D01*
Y6367D01*
X79284Y6200D01*
X79617D01*
X79784Y6367D01*
X80117Y7033D02*
X80283Y7200D01*
X80617D01*
X80783Y7033D01*
Y6867D01*
X80617Y6700D01*
X80450D01*
X80617D01*
X80783Y6533D01*
Y6367D01*
X80617Y6200D01*
X80283D01*
X80117Y6367D01*
X81116Y7033D02*
X81283Y7200D01*
X81616D01*
X81783Y7033D01*
Y6867D01*
X81616Y6700D01*
X81450D01*
X81616D01*
X81783Y6533D01*
Y6367D01*
X81616Y6200D01*
X81283D01*
X81116Y6367D01*
X64148Y58993D02*
X63982Y59160D01*
X63648D01*
X63482Y58993D01*
Y58327D01*
X63648Y58160D01*
X63982D01*
X64148Y58327D01*
X64481Y58993D02*
X64648Y59160D01*
X64981D01*
X65148Y58993D01*
Y58827D01*
X64981Y58660D01*
X64815D01*
X64981D01*
X65148Y58493D01*
Y58327D01*
X64981Y58160D01*
X64648D01*
X64481Y58327D01*
X66147Y58160D02*
X65481D01*
X66147Y58827D01*
Y58993D01*
X65981Y59160D01*
X65648D01*
X65481Y58993D01*
X47792Y56550D02*
X47625Y56384D01*
Y56050D01*
X47792Y55884D01*
X48458D01*
X48625Y56050D01*
Y56384D01*
X48458Y56550D01*
X47792Y56884D02*
X47625Y57050D01*
Y57383D01*
X47792Y57550D01*
X47958D01*
X48125Y57383D01*
Y57217D01*
Y57383D01*
X48292Y57550D01*
X48458D01*
X48625Y57383D01*
Y57050D01*
X48458Y56884D01*
X48625Y57883D02*
Y58216D01*
Y58050D01*
X47625D01*
X47792Y57883D01*
X50537Y56217D02*
X50370Y56050D01*
Y55717D01*
X50537Y55551D01*
X51203D01*
X51370Y55717D01*
Y56050D01*
X51203Y56217D01*
X50537Y56550D02*
X50370Y56717D01*
Y57050D01*
X50537Y57217D01*
X50703D01*
X50870Y57050D01*
Y56884D01*
Y57050D01*
X51037Y57217D01*
X51203D01*
X51370Y57050D01*
Y56717D01*
X51203Y56550D01*
X50537Y57550D02*
X50370Y57717D01*
Y58050D01*
X50537Y58216D01*
X51203D01*
X51370Y58050D01*
Y57717D01*
X51203Y57550D01*
X50537D01*
X53077Y56217D02*
X52910Y56050D01*
Y55717D01*
X53077Y55551D01*
X53743D01*
X53910Y55717D01*
Y56050D01*
X53743Y56217D01*
X53910Y57217D02*
Y56550D01*
X53243Y57217D01*
X53077D01*
X52910Y57050D01*
Y56717D01*
X53077Y56550D01*
X53743Y57550D02*
X53910Y57717D01*
Y58050D01*
X53743Y58216D01*
X53077D01*
X52910Y58050D01*
Y57717D01*
X53077Y57550D01*
X53243D01*
X53410Y57717D01*
Y58216D01*
X55617Y56217D02*
X55450Y56050D01*
Y55717D01*
X55617Y55551D01*
X56283D01*
X56450Y55717D01*
Y56050D01*
X56283Y56217D01*
X56450Y57217D02*
Y56550D01*
X55783Y57217D01*
X55617D01*
X55450Y57050D01*
Y56717D01*
X55617Y56550D01*
Y57550D02*
X55450Y57717D01*
Y58050D01*
X55617Y58216D01*
X55783D01*
X55950Y58050D01*
X56117Y58216D01*
X56283D01*
X56450Y58050D01*
Y57717D01*
X56283Y57550D01*
X56117D01*
X55950Y57717D01*
X55783Y57550D01*
X55617D01*
X55950Y57717D02*
Y58050D01*
X58167Y56234D02*
X58000Y56067D01*
Y55734D01*
X58167Y55567D01*
X58833D01*
X59000Y55734D01*
Y56067D01*
X58833Y56234D01*
X59000Y57233D02*
Y56567D01*
X58333Y57233D01*
X58167D01*
X58000Y57067D01*
Y56733D01*
X58167Y56567D01*
X58000Y57566D02*
Y58233D01*
X58167D01*
X58833Y57566D01*
X59000D01*
X60697Y56217D02*
X60530Y56050D01*
Y55717D01*
X60697Y55551D01*
X61363D01*
X61530Y55717D01*
Y56050D01*
X61363Y56217D01*
X61530Y57217D02*
Y56550D01*
X60863Y57217D01*
X60697D01*
X60530Y57050D01*
Y56717D01*
X60697Y56550D01*
X60530Y58216D02*
X60697Y57883D01*
X61030Y57550D01*
X61363D01*
X61530Y57717D01*
Y58050D01*
X61363Y58216D01*
X61197D01*
X61030Y58050D01*
Y57550D01*
X51450Y30358D02*
X51283Y30525D01*
X50950D01*
X50783Y30358D01*
Y29692D01*
X50950Y29525D01*
X51283D01*
X51450Y29692D01*
X52449Y29525D02*
X51783D01*
X52449Y30192D01*
Y30358D01*
X52283Y30525D01*
X51949D01*
X51783Y30358D01*
X53449Y30525D02*
X52782D01*
Y30025D01*
X53116Y30192D01*
X53282D01*
X53449Y30025D01*
Y29692D01*
X53282Y29525D01*
X52949D01*
X52782Y29692D01*
X43634Y40933D02*
X43467Y41100D01*
X43134D01*
X42967Y40933D01*
Y40267D01*
X43134Y40100D01*
X43467D01*
X43634Y40267D01*
X44633Y40100D02*
X43967D01*
X44633Y40767D01*
Y40933D01*
X44467Y41100D01*
X44133D01*
X43967Y40933D01*
X45466Y40100D02*
Y41100D01*
X44966Y40600D01*
X45633D01*
X28334Y23333D02*
X28167Y23500D01*
X27834D01*
X27667Y23333D01*
Y22667D01*
X27834Y22500D01*
X28167D01*
X28334Y22667D01*
X29333Y22500D02*
X28667D01*
X29333Y23167D01*
Y23333D01*
X29167Y23500D01*
X28833D01*
X28667Y23333D01*
X29666D02*
X29833Y23500D01*
X30166D01*
X30333Y23333D01*
Y23167D01*
X30166Y23000D01*
X30000D01*
X30166D01*
X30333Y22833D01*
Y22667D01*
X30166Y22500D01*
X29833D01*
X29666Y22667D01*
X31734Y23233D02*
X31567Y23400D01*
X31234D01*
X31067Y23233D01*
Y22567D01*
X31234Y22400D01*
X31567D01*
X31734Y22567D01*
X32733Y22400D02*
X32067D01*
X32733Y23067D01*
Y23233D01*
X32567Y23400D01*
X32233D01*
X32067Y23233D01*
X33733Y22400D02*
X33066D01*
X33733Y23067D01*
Y23233D01*
X33566Y23400D01*
X33233D01*
X33066Y23233D01*
X35200D02*
X35034Y23400D01*
X34700D01*
X34534Y23233D01*
Y22567D01*
X34700Y22400D01*
X35034D01*
X35200Y22567D01*
X36200Y22400D02*
X35533D01*
X36200Y23067D01*
Y23233D01*
X36033Y23400D01*
X35700D01*
X35533Y23233D01*
X36533Y22400D02*
X36866D01*
X36700D01*
Y23400D01*
X36533Y23233D01*
X44417Y20183D02*
X44250Y20350D01*
X43917D01*
X43750Y20183D01*
Y19517D01*
X43917Y19350D01*
X44250D01*
X44417Y19517D01*
X44750Y19350D02*
X45083D01*
X44917D01*
Y20350D01*
X44750Y20183D01*
X45583Y19517D02*
X45750Y19350D01*
X46083D01*
X46250Y19517D01*
Y20183D01*
X46083Y20350D01*
X45750D01*
X45583Y20183D01*
Y20017D01*
X45750Y19850D01*
X46250D01*
X35890Y46239D02*
X35723Y46405D01*
X35390D01*
X35223Y46239D01*
Y45572D01*
X35390Y45406D01*
X35723D01*
X35890Y45572D01*
X36223Y45406D02*
X36556D01*
X36389D01*
Y46405D01*
X36223Y46239D01*
X37056D02*
X37222Y46405D01*
X37556D01*
X37722Y46239D01*
Y46072D01*
X37556Y45906D01*
X37722Y45739D01*
Y45572D01*
X37556Y45406D01*
X37222D01*
X37056Y45572D01*
Y45739D01*
X37222Y45906D01*
X37056Y46072D01*
Y46239D01*
X37222Y45906D02*
X37556D01*
X23942Y27137D02*
X23775Y26970D01*
Y26637D01*
X23942Y26470D01*
X24608D01*
X24775Y26637D01*
Y26970D01*
X24608Y27137D01*
X24775Y27470D02*
Y27803D01*
Y27637D01*
X23775D01*
X23942Y27470D01*
X23775Y28303D02*
Y28970D01*
X23942D01*
X24608Y28303D01*
X24775D01*
X23899Y33417D02*
X23733Y33250D01*
Y32917D01*
X23899Y32750D01*
X24566D01*
X24732Y32917D01*
Y33250D01*
X24566Y33417D01*
X24732Y33750D02*
Y34083D01*
Y33917D01*
X23733D01*
X23899Y33750D01*
X23733Y35250D02*
X23899Y34916D01*
X24233Y34583D01*
X24566D01*
X24732Y34750D01*
Y35083D01*
X24566Y35250D01*
X24399D01*
X24233Y35083D01*
Y34583D01*
X24067Y37017D02*
X23900Y36850D01*
Y36517D01*
X24067Y36350D01*
X24733D01*
X24900Y36517D01*
Y36850D01*
X24733Y37017D01*
X24900Y37350D02*
Y37683D01*
Y37517D01*
X23900D01*
X24067Y37350D01*
X23900Y38850D02*
Y38183D01*
X24400D01*
X24233Y38516D01*
Y38683D01*
X24400Y38850D01*
X24733D01*
X24900Y38683D01*
Y38350D01*
X24733Y38183D01*
X25217Y23333D02*
X25050Y23500D01*
X24717D01*
X24550Y23333D01*
Y22667D01*
X24717Y22500D01*
X25050D01*
X25217Y22667D01*
X25550Y22500D02*
X25883D01*
X25717D01*
Y23500D01*
X25550Y23333D01*
X26883Y22500D02*
Y23500D01*
X26383Y23000D01*
X27050D01*
X27255Y49027D02*
X27088Y49194D01*
X26755D01*
X26589Y49027D01*
Y48361D01*
X26755Y48194D01*
X27088D01*
X27255Y48361D01*
X27588Y48194D02*
X27921D01*
X27755D01*
Y49194D01*
X27588Y49027D01*
X28421D02*
X28588Y49194D01*
X28921D01*
X29088Y49027D01*
Y48861D01*
X28921Y48694D01*
X28755D01*
X28921D01*
X29088Y48527D01*
Y48361D01*
X28921Y48194D01*
X28588D01*
X28421Y48361D01*
X43617Y47633D02*
X43450Y47800D01*
X43117D01*
X42950Y47633D01*
Y46967D01*
X43117Y46800D01*
X43450D01*
X43617Y46967D01*
X43950Y46800D02*
X44283D01*
X44117D01*
Y47800D01*
X43950Y47633D01*
X45450Y46800D02*
X44783D01*
X45450Y47467D01*
Y47633D01*
X45283Y47800D01*
X44950D01*
X44783Y47633D01*
X41983Y23233D02*
X41817Y23400D01*
X41484D01*
X41317Y23233D01*
Y22567D01*
X41484Y22400D01*
X41817D01*
X41983Y22567D01*
X42317Y22400D02*
X42650D01*
X42483D01*
Y23400D01*
X42317Y23233D01*
X43150Y22400D02*
X43483D01*
X43316D01*
Y23400D01*
X43150Y23233D01*
X32488Y63323D02*
X32322Y63490D01*
X31989D01*
X31822Y63323D01*
Y62657D01*
X31989Y62490D01*
X32322D01*
X32488Y62657D01*
X32822Y62490D02*
X33155D01*
X32988D01*
Y63490D01*
X32822Y63323D01*
X33655D02*
X33821Y63490D01*
X34155D01*
X34321Y63323D01*
Y62657D01*
X34155Y62490D01*
X33821D01*
X33655Y62657D01*
Y63323D01*
X21714Y47280D02*
X21547Y47447D01*
X21214D01*
X21047Y47280D01*
Y46614D01*
X21214Y46447D01*
X21547D01*
X21714Y46614D01*
X22047D02*
X22214Y46447D01*
X22547D01*
X22714Y46614D01*
Y47280D01*
X22547Y47447D01*
X22214D01*
X22047Y47280D01*
Y47114D01*
X22214Y46947D01*
X22714D01*
X111216Y76050D02*
X111049Y75884D01*
Y75550D01*
X111216Y75384D01*
X111883D01*
X112049Y75550D01*
Y75884D01*
X111883Y76050D01*
X111049Y76384D02*
Y77050D01*
X111216D01*
X111883Y76384D01*
X112049D01*
X66433Y77633D02*
X66267Y77800D01*
X65934D01*
X65767Y77633D01*
Y76967D01*
X65934Y76800D01*
X66267D01*
X66433Y76967D01*
X67433Y77800D02*
X67100Y77633D01*
X66767Y77300D01*
Y76967D01*
X66933Y76800D01*
X67266D01*
X67433Y76967D01*
Y77133D01*
X67266Y77300D01*
X66767D01*
X66265Y88625D02*
X66099Y88791D01*
X65766D01*
X65599Y88625D01*
Y87958D01*
X65766Y87792D01*
X66099D01*
X66265Y87958D01*
X67265Y88791D02*
X66599D01*
Y88291D01*
X66932Y88458D01*
X67098D01*
X67265Y88291D01*
Y87958D01*
X67098Y87792D01*
X66765D01*
X66599Y87958D01*
X42757Y83835D02*
X42590Y84001D01*
X42257D01*
X42090Y83835D01*
Y83168D01*
X42257Y83001D01*
X42590D01*
X42757Y83168D01*
X43590Y83001D02*
Y84001D01*
X43090Y83501D01*
X43757D01*
X42931Y78133D02*
X42764Y78300D01*
X42431D01*
X42265Y78133D01*
Y77467D01*
X42431Y77300D01*
X42764D01*
X42931Y77467D01*
X43264Y78133D02*
X43431Y78300D01*
X43764D01*
X43931Y78133D01*
Y77967D01*
X43764Y77800D01*
X43597D01*
X43764D01*
X43931Y77633D01*
Y77467D01*
X43764Y77300D01*
X43431D01*
X43264Y77467D01*
X40213Y71321D02*
X40046Y71487D01*
X39713D01*
X39546Y71321D01*
Y70654D01*
X39713Y70488D01*
X40046D01*
X40213Y70654D01*
X41212Y70488D02*
X40546D01*
X41212Y71154D01*
Y71321D01*
X41046Y71487D01*
X40712D01*
X40546Y71321D01*
X40478Y68349D02*
X40312Y68515D01*
X39978D01*
X39812Y68349D01*
Y67682D01*
X39978Y67515D01*
X40312D01*
X40478Y67682D01*
X40811Y67515D02*
X41145D01*
X40978D01*
Y68515D01*
X40811Y68349D01*
D84*
X69100Y49325D02*
G03*
X69100Y49325I-75J0D01*
G01*
X113467Y73000D02*
X117753Y65000D01*
X108767D02*
X113467Y73000D01*
X108767Y65000D02*
X117753D01*
X113467Y65800D02*
Y66300D01*
Y67255D02*
Y70900D01*
D85*
X101643Y1412D02*
X101670Y9500D01*
X102300Y6875D02*
Y6075D01*
X102700Y5675D01*
X103100Y6075D01*
Y6875D01*
X104099Y5675D02*
X103700D01*
X103500Y5875D01*
Y6275D01*
X103700Y6475D01*
X104099D01*
X104299Y6275D01*
Y6075D01*
X103500D01*
X104699Y6475D02*
Y5675D01*
Y6075D01*
X104899Y6275D01*
X105099Y6475D01*
X105299D01*
X105899Y5675D02*
X106499D01*
X106699Y5875D01*
X106499Y6075D01*
X106099D01*
X105899Y6275D01*
X106099Y6475D01*
X106699D01*
X107098Y5675D02*
X107498D01*
X107298D01*
Y6475D01*
X107098D01*
X108298Y5675D02*
X108698D01*
X108898Y5875D01*
Y6275D01*
X108698Y6475D01*
X108298D01*
X108098Y6275D01*
Y5875D01*
X108298Y5675D01*
X109298D02*
Y6475D01*
X109898D01*
X110097Y6275D01*
Y5675D01*
X111697D02*
X112097D01*
X111897D01*
Y6875D01*
X111697Y6675D01*
X112697Y5675D02*
Y5875D01*
X112897D01*
Y5675D01*
X112697D01*
X113696Y6675D02*
X113896Y6875D01*
X114296D01*
X114496Y6675D01*
Y5875D01*
X114296Y5675D01*
X113896D01*
X113696Y5875D01*
Y6675D01*
X114896Y5675D02*
Y5875D01*
X115096D01*
Y5675D01*
X114896D01*
X115896Y6675D02*
X116096Y6875D01*
X116495D01*
X116695Y6675D01*
Y5875D01*
X116495Y5675D01*
X116096D01*
X115896Y5875D01*
Y6675D01*
X103100Y7700D02*
X102300D01*
X103100Y8500D01*
Y8700D01*
X102900Y8899D01*
X102500D01*
X102300Y8700D01*
X103500D02*
X103700Y8899D01*
X104099D01*
X104299Y8700D01*
Y8500D01*
X104099Y8300D01*
X103899D01*
X104099D01*
X104299Y8100D01*
Y7900D01*
X104099Y7700D01*
X103700D01*
X103500Y7900D01*
X104699Y8700D02*
X104899Y8899D01*
X105299D01*
X105499Y8700D01*
Y7900D01*
X105299Y7700D01*
X104899D01*
X104699Y7900D01*
Y8700D01*
X105899Y7900D02*
X106099Y7700D01*
X106499D01*
X106699Y7900D01*
Y8700D01*
X106499Y8899D01*
X106099D01*
X105899Y8700D01*
Y8500D01*
X106099Y8300D01*
X106699D01*
X107098Y7500D02*
X107898D01*
X108298Y7700D02*
Y8500D01*
X108698Y8899D01*
X109098Y8500D01*
Y7700D01*
Y8300D01*
X108298D01*
X109498Y8500D02*
Y7900D01*
X109698Y7700D01*
X110297D01*
Y8500D01*
X110897Y8700D02*
Y8500D01*
X110697D01*
X111097D01*
X110897D01*
Y7900D01*
X111097Y7700D01*
X111897D02*
X112297D01*
X112497Y7900D01*
Y8300D01*
X112297Y8500D01*
X111897D01*
X111697Y8300D01*
Y7900D01*
X111897Y7700D01*
X112897D02*
Y8500D01*
X113096D01*
X113296Y8300D01*
Y7700D01*
Y8300D01*
X113496Y8500D01*
X113696Y8300D01*
Y7700D01*
X114296Y8500D02*
X114696D01*
X114896Y8300D01*
Y7700D01*
X114296D01*
X114096Y7900D01*
X114296Y8100D01*
X114896D01*
X115496Y8700D02*
Y8500D01*
X115296D01*
X115696D01*
X115496D01*
Y7900D01*
X115696Y7700D01*
X116295D02*
X116695D01*
X116495D01*
Y8500D01*
X116295D01*
X117295Y7700D02*
X117895D01*
X118095Y7900D01*
X117895Y8100D01*
X117495D01*
X117295Y8300D01*
X117495Y8500D01*
X118095D01*
X118695D02*
X119095D01*
X119295Y8300D01*
Y7700D01*
X118695D01*
X118495Y7900D01*
X118695Y8100D01*
X119295D01*
X119894Y8700D02*
Y8500D01*
X119694D01*
X120094D01*
X119894D01*
Y7900D01*
X120094Y7700D01*
X120694D02*
X121094D01*
X120894D01*
Y8500D01*
X120694D01*
X121894Y7700D02*
X122294D01*
X122493Y7900D01*
Y8300D01*
X122294Y8500D01*
X121894D01*
X121694Y8300D01*
Y7900D01*
X121894Y7700D01*
X122893D02*
Y8500D01*
X123493D01*
X123693Y8300D01*
Y7700D01*
X124093D02*
Y8899D01*
X124693D01*
X124893Y8700D01*
Y8300D01*
X124693Y8100D01*
X124093D01*
X125293Y8500D02*
Y7700D01*
Y8100D01*
X125493Y8300D01*
X125692Y8500D01*
X125892D01*
X126492Y7700D02*
X126892D01*
X126692D01*
Y8500D01*
X126492D01*
X127492Y7700D02*
X128092D01*
X128292Y7900D01*
X128092Y8100D01*
X127692D01*
X127492Y8300D01*
X127692Y8500D01*
X128292D01*
X129291Y7700D02*
X128891D01*
X128691Y7900D01*
Y8300D01*
X128891Y8500D01*
X129291D01*
X129491Y8300D01*
Y8100D01*
X128691D01*
X129891Y8899D02*
X130291D01*
X130091D01*
Y7700D01*
X129891D01*
X130291D01*
X130891D02*
Y8500D01*
X131091D01*
X131291Y8300D01*
Y7700D01*
Y8300D01*
X131491Y8500D01*
X131690Y8300D01*
Y7700D01*
X132290Y8500D02*
X132690D01*
X132890Y8300D01*
Y7700D01*
X132290D01*
X132090Y7900D01*
X132290Y8100D01*
X132890D01*
X133690Y7300D02*
X133890D01*
X134090Y7500D01*
Y8500D01*
X133490D01*
X133290Y8300D01*
Y7900D01*
X133490Y7700D01*
X134090D01*
X135089D02*
X134690D01*
X134490Y7900D01*
Y8300D01*
X134690Y8500D01*
X135089D01*
X135289Y8300D01*
Y8100D01*
X134490D01*
X135689Y7700D02*
Y8899D01*
X136289D01*
X136489Y8700D01*
Y8300D01*
X136289Y8100D01*
X135689D01*
X136089D02*
X136489Y7700D01*
X136889Y8899D02*
X137689D01*
X137289D01*
Y7700D01*
X138088Y8899D02*
X138488D01*
X138288D01*
Y7700D01*
X138088D01*
X138488D01*
X102300Y3800D02*
Y5000D01*
X102700Y4600D01*
X103100Y5000D01*
Y3800D01*
X104099D02*
X103700D01*
X103500Y4000D01*
Y4400D01*
X103700Y4600D01*
X104099D01*
X104299Y4400D01*
Y4200D01*
X103500D01*
X104699Y4600D02*
X105099Y3800D01*
X105499Y4600D01*
X106499Y3800D02*
X106099D01*
X105899Y4000D01*
Y4400D01*
X106099Y4600D01*
X106499D01*
X106699Y4400D01*
Y4200D01*
X105899D01*
X107098Y3800D02*
Y4600D01*
X107698D01*
X107898Y4400D01*
Y3800D01*
X109498D02*
Y5000D01*
X110097D01*
X110297Y4800D01*
Y4400D01*
X110097Y4200D01*
X109498D01*
X109898D02*
X110297Y3800D01*
X110697D02*
X111097D01*
X110897D01*
Y4600D01*
X110697D01*
X112497D02*
X111897D01*
X111697Y4400D01*
Y4000D01*
X111897Y3800D01*
X112497D01*
X113696Y4600D02*
X113096D01*
X112897Y4400D01*
Y4000D01*
X113096Y3800D01*
X113696D01*
X114096Y5000D02*
Y3800D01*
Y4400D01*
X114296Y4600D01*
X114696D01*
X114896Y4400D01*
Y3800D01*
X115296D02*
X115696D01*
X115496D01*
Y4600D01*
X115296D01*
X116895Y3800D02*
X116495D01*
X116295Y4000D01*
Y4400D01*
X116495Y4600D01*
X116895D01*
X117095Y4400D01*
Y4200D01*
X116295D01*
X117495Y4600D02*
Y3800D01*
Y4200D01*
X117695Y4400D01*
X117895Y4600D01*
X118095D01*
X118695Y3800D02*
X119095D01*
X118895D01*
Y4600D01*
X118695D01*
X102300Y3324D02*
Y2125D01*
X103100D01*
X103700Y2925D02*
X104099D01*
X104299Y2725D01*
Y2125D01*
X103700D01*
X103500Y2325D01*
X103700Y2525D01*
X104299D01*
X104699Y2925D02*
Y2325D01*
X104899Y2125D01*
X105499D01*
Y2925D01*
X105899Y2125D02*
X106499D01*
X106699Y2325D01*
X106499Y2525D01*
X106099D01*
X105899Y2725D01*
X106099Y2925D01*
X106699D01*
X107298D02*
X107698D01*
X107898Y2725D01*
Y2125D01*
X107298D01*
X107098Y2325D01*
X107298Y2525D01*
X107898D01*
X108298Y2125D02*
Y2925D01*
X108898D01*
X109098Y2725D01*
Y2125D01*
X109498D02*
Y2925D01*
X110097D01*
X110297Y2725D01*
Y2125D01*
X111297D02*
X110897D01*
X110697Y2325D01*
Y2725D01*
X110897Y2925D01*
X111297D01*
X111497Y2725D01*
Y2525D01*
X110697D01*
X112097Y1925D02*
X112297Y2125D01*
Y2325D01*
X112097D01*
Y2125D01*
X112297D01*
X112097Y1925D01*
X111897Y1725D01*
X114496Y2925D02*
X114896D01*
X115096Y2725D01*
Y2125D01*
X114496D01*
X114296Y2325D01*
X114496Y2525D01*
X115096D01*
X115696Y2125D02*
X116096D01*
X116295Y2325D01*
Y2725D01*
X116096Y2925D01*
X115696D01*
X115496Y2725D01*
Y2325D01*
X115696Y2125D01*
X116695Y2925D02*
Y2325D01*
X116895Y2125D01*
X117495D01*
Y2925D01*
X118095Y3125D02*
Y2925D01*
X117895D01*
X118295D01*
X118095D01*
Y2325D01*
X118295Y2125D01*
X120894D02*
X120094D01*
X120894Y2925D01*
Y3125D01*
X120694Y3324D01*
X120294D01*
X120094Y3125D01*
X121294D02*
X121494Y3324D01*
X121894D01*
X122094Y3125D01*
Y2325D01*
X121894Y2125D01*
X121494D01*
X121294Y2325D01*
Y3125D01*
X123293Y2125D02*
X122493D01*
X123293Y2925D01*
Y3125D01*
X123093Y3324D01*
X122693D01*
X122493Y3125D01*
X123693D02*
X123893Y3324D01*
X124293D01*
X124493Y3125D01*
Y2925D01*
X124293Y2725D01*
X124093D01*
X124293D01*
X124493Y2525D01*
Y2325D01*
X124293Y2125D01*
X123893D01*
X123693Y2325D01*
D86*
X151500Y53500D02*
Y54000D01*
Y48500D02*
Y53500D01*
Y48000D02*
Y48500D01*
X148400Y48000D02*
X151500D01*
X137000D02*
X145800D01*
X137000D02*
Y54000D01*
X150400D02*
X151500D01*
X141300D02*
X147800D01*
X137000D02*
X138100D01*
X151500Y48500D02*
X154000D01*
Y53500D01*
X151500D02*
X154000D01*
X26075Y30590D02*
X28005D01*
X26075Y41590D02*
X28005D01*
X40045Y30590D02*
X41975D01*
X40045Y41590D02*
X41975D01*
X26075Y30590D02*
Y41590D01*
X41975Y30590D02*
Y41590D01*
X102650Y71710D02*
Y83210D01*
X85150Y71710D02*
X102650D01*
X85150D02*
Y83210D01*
X102650D01*
D87*
X69869Y50131D02*
X70778D01*
X69869Y49222D02*
Y50131D01*
Y39869D02*
X70778D01*
X80131D02*
Y40778D01*
X79222Y50131D02*
X80131D01*
X69869Y39869D02*
Y40778D01*
X79222Y39869D02*
X80131D01*
Y49222D02*
Y50131D01*
X80703Y20984D02*
X81041Y21154D01*
X81380Y21492D01*
Y21831D01*
X81211Y22000D01*
X80872D01*
X80703Y21831D01*
Y21661D01*
X80872Y21492D01*
X81380D01*
X93820Y22000D02*
X93481D01*
X93651D01*
Y20984D01*
X93820Y21154D01*
%TF.MD5,3f3446920721e8dd699f3069460f57f5*%
M02*
