%TF.GenerationSoftware,Altium Limited,Altium Designer,22.11.1 (43)*%
G04 Layer_Color=16776960*
%FSLAX43Y43*%
%MOMM*%
%TF.SameCoordinates,713154A8-74CC-4FB3-A553-2C66CAAA5226*%
%TF.FilePolarity,Positive*%
%TF.FileFunction,Other,Top_Dimensions*%
%TF.Part,Single*%
G01*
G75*
%TA.AperFunction,NonConductor*%
%ADD84C,0.254*%
%ADD87C,0.152*%
D84*
X75000Y44000D02*
Y46000D01*
Y-4500D02*
Y44000D01*
X74000Y45000D02*
X76000D01*
X95000Y-5100D02*
X96524Y-4592D01*
X95000Y-5100D02*
X96524Y-5608D01*
X143476D02*
X145000Y-5100D01*
X143476Y-4592D02*
X145000Y-5100D01*
X95000D02*
X120000D01*
X145000D01*
X95000Y-5354D02*
Y2996D01*
X145000Y-5354D02*
Y2996D01*
X5000Y-5100D02*
X6524Y-4592D01*
X5000Y-5100D02*
X6524Y-5608D01*
X93476D02*
X95000Y-5100D01*
X93476Y-4592D02*
X95000Y-5100D01*
X5000D02*
X50000D01*
X95000D01*
X5000Y-5354D02*
Y2996D01*
X95000Y-5354D02*
Y2996D01*
X150000Y97000D02*
X151524Y97508D01*
X150000Y97000D02*
X151524Y96492D01*
X152476D02*
X154000Y97000D01*
X152476Y97508D02*
X154000Y97000D01*
X150000D02*
X152000D01*
X154000D01*
X150000Y85381D02*
Y97254D01*
X154000Y78381D02*
Y97254D01*
X-12508Y1524D02*
X-12000Y0D01*
X-11492Y1524D01*
X-12000Y90000D02*
X-11492Y88476D01*
X-12508D02*
X-12000Y90000D01*
Y0D02*
Y40632D01*
Y48555D02*
Y90000D01*
X-12254Y0D02*
X4619D01*
X-12254Y90000D02*
X4619D01*
X-7000Y85000D02*
X-6492Y83476D01*
X-7508D02*
X-7000Y85000D01*
X-7508Y6524D02*
X-7000Y5000D01*
X-6492Y6524D01*
X-7000Y48555D02*
Y85000D01*
Y5000D02*
Y40632D01*
X-7254Y85000D02*
X2996D01*
X-7254Y5000D02*
X2996D01*
X0Y97000D02*
X1524Y97508D01*
X0Y97000D02*
X1524Y96492D01*
X148476D02*
X150000Y97000D01*
X148476Y97508D02*
X150000Y97000D01*
X0D02*
X75000D01*
X150000D01*
X0Y85381D02*
Y97254D01*
X150000Y85381D02*
Y97254D01*
X143476Y92492D02*
X145000Y93000D01*
X143476Y93508D02*
X145000Y93000D01*
X5000D02*
X6524Y93508D01*
X5000Y93000D02*
X6524Y92492D01*
X75000Y93000D02*
X145000D01*
X5000D02*
X75000D01*
X145000Y87004D02*
Y93254D01*
X5000Y87004D02*
Y93254D01*
X160000Y62000D02*
X160508Y60476D01*
X159492D02*
X160000Y62000D01*
X159492Y52524D02*
X160000Y51000D01*
X160508Y52524D01*
X160000Y56500D02*
Y62000D01*
Y51000D02*
Y56500D01*
X153000Y62000D02*
X160254D01*
X149104Y51000D02*
X160254D01*
X160000Y73000D02*
X160508Y71476D01*
X159492D02*
X160000Y73000D01*
X159492Y63524D02*
X160000Y62000D01*
X160508Y63524D01*
X160000Y67500D02*
Y73000D01*
Y62000D02*
Y67500D01*
X152104Y73000D02*
X160254D01*
X153000Y62000D02*
X160254D01*
X160000Y85000D02*
X160508Y83476D01*
X159492D02*
X160000Y85000D01*
X159492Y74524D02*
X160000Y73000D01*
X160508Y74524D01*
X160000Y79000D02*
Y85000D01*
Y73000D02*
Y79000D01*
X147004Y85000D02*
X160254D01*
X152104Y73000D02*
X160254D01*
D87*
X117768Y-2516D02*
X116752D01*
Y-3278D01*
X117260Y-3024D01*
X117514D01*
X117768Y-3278D01*
Y-3786D01*
X117514Y-4040D01*
X117006D01*
X116752Y-3786D01*
X118276Y-2770D02*
X118530Y-2516D01*
X119038D01*
X119292Y-2770D01*
Y-3786D01*
X119038Y-4040D01*
X118530D01*
X118276Y-3786D01*
Y-2770D01*
X120053Y-4294D02*
X120307Y-4040D01*
Y-3786D01*
X120053D01*
Y-4040D01*
X120307D01*
X120053Y-4294D01*
X119799Y-4548D01*
X121323Y-2770D02*
X121577Y-2516D01*
X122085D01*
X122339Y-2770D01*
Y-3786D01*
X122085Y-4040D01*
X121577D01*
X121323Y-3786D01*
Y-2770D01*
X122846D02*
X123100Y-2516D01*
X123608D01*
X123862Y-2770D01*
Y-3786D01*
X123608Y-4040D01*
X123100D01*
X122846Y-3786D01*
Y-2770D01*
X45785Y-3886D02*
X46039Y-4140D01*
X46547D01*
X46800Y-3886D01*
Y-2870D01*
X46547Y-2616D01*
X46039D01*
X45785Y-2870D01*
Y-3124D01*
X46039Y-3378D01*
X46800D01*
X47308Y-2870D02*
X47562Y-2616D01*
X48070D01*
X48324Y-2870D01*
Y-3886D01*
X48070Y-4140D01*
X47562D01*
X47308Y-3886D01*
Y-2870D01*
X49086Y-4394D02*
X49340Y-4140D01*
Y-3886D01*
X49086D01*
Y-4140D01*
X49340D01*
X49086Y-4394D01*
X48832Y-4648D01*
X50355Y-2870D02*
X50609Y-2616D01*
X51117D01*
X51371Y-2870D01*
Y-3886D01*
X51117Y-4140D01*
X50609D01*
X50355Y-3886D01*
Y-2870D01*
X51879D02*
X52133Y-2616D01*
X52641D01*
X52894Y-2870D01*
Y-3886D01*
X52641Y-4140D01*
X52133D01*
X51879Y-3886D01*
Y-2870D01*
X150414Y100160D02*
Y101684D01*
X149652Y100922D01*
X150668D01*
X151430Y99906D02*
X151684Y100160D01*
Y100414D01*
X151430D01*
Y100160D01*
X151684D01*
X151430Y99906D01*
X151176Y99652D01*
X152699Y101430D02*
X152953Y101684D01*
X153461D01*
X153715Y101430D01*
Y100414D01*
X153461Y100160D01*
X152953D01*
X152699Y100414D01*
Y101430D01*
X154223D02*
X154477Y101684D01*
X154985D01*
X155239Y101430D01*
Y100414D01*
X154985Y100160D01*
X154477D01*
X154223Y100414D01*
Y101430D01*
X-11086Y41039D02*
X-10832Y41293D01*
Y41800D01*
X-11086Y42054D01*
X-12102D01*
X-12355Y41800D01*
Y41293D01*
X-12102Y41039D01*
X-11848D01*
X-11594Y41293D01*
Y42054D01*
X-12102Y42562D02*
X-12355Y42816D01*
Y43324D01*
X-12102Y43578D01*
X-11086D01*
X-10832Y43324D01*
Y42816D01*
X-11086Y42562D01*
X-12102D01*
X-10578Y44340D02*
X-10832Y44594D01*
X-11086D01*
Y44340D01*
X-10832D01*
Y44594D01*
X-10578Y44340D01*
X-10324Y44086D01*
X-12102Y45609D02*
X-12355Y45863D01*
Y46371D01*
X-12102Y46625D01*
X-11086D01*
X-10832Y46371D01*
Y45863D01*
X-11086Y45609D01*
X-12102D01*
Y47133D02*
X-12355Y47387D01*
Y47895D01*
X-12102Y48148D01*
X-11086D01*
X-10832Y47895D01*
Y47387D01*
X-11086Y47133D01*
X-12102D01*
X-7102Y41039D02*
X-7355Y41293D01*
Y41800D01*
X-7102Y42054D01*
X-6848D01*
X-6594Y41800D01*
X-6340Y42054D01*
X-6086D01*
X-5832Y41800D01*
Y41293D01*
X-6086Y41039D01*
X-6340D01*
X-6594Y41293D01*
X-6848Y41039D01*
X-7102D01*
X-6594Y41293D02*
Y41800D01*
X-7102Y42562D02*
X-7355Y42816D01*
Y43324D01*
X-7102Y43578D01*
X-6086D01*
X-5832Y43324D01*
Y42816D01*
X-6086Y42562D01*
X-7102D01*
X-5578Y44340D02*
X-5832Y44594D01*
X-6086D01*
Y44340D01*
X-5832D01*
Y44594D01*
X-5578Y44340D01*
X-5324Y44086D01*
X-7102Y45609D02*
X-7355Y45863D01*
Y46371D01*
X-7102Y46625D01*
X-6086D01*
X-5832Y46371D01*
Y45863D01*
X-6086Y45609D01*
X-7102D01*
Y47133D02*
X-7355Y47387D01*
Y47895D01*
X-7102Y48148D01*
X-6086D01*
X-5832Y47895D01*
Y47387D01*
X-6086Y47133D01*
X-7102D01*
X70652Y98660D02*
X71160D01*
X70906D01*
Y100184D01*
X70652Y99930D01*
X72938Y100184D02*
X71922D01*
Y99422D01*
X72430Y99676D01*
X72684D01*
X72938Y99422D01*
Y98914D01*
X72684Y98660D01*
X72176D01*
X71922Y98914D01*
X73446Y99930D02*
X73699Y100184D01*
X74207D01*
X74461Y99930D01*
Y98914D01*
X74207Y98660D01*
X73699D01*
X73446Y98914D01*
Y99930D01*
X75223Y98406D02*
X75477Y98660D01*
Y98914D01*
X75223D01*
Y98660D01*
X75477D01*
X75223Y98406D01*
X74969Y98152D01*
X76493Y99930D02*
X76746Y100184D01*
X77254D01*
X77508Y99930D01*
Y98914D01*
X77254Y98660D01*
X76746D01*
X76493Y98914D01*
Y99930D01*
X78016D02*
X78270Y100184D01*
X78778D01*
X79032Y99930D01*
Y98914D01*
X78778Y98660D01*
X78270D01*
X78016Y98914D01*
Y99930D01*
X70652Y94660D02*
X71160D01*
X70906D01*
Y96184D01*
X70652Y95930D01*
X72684Y94660D02*
Y96184D01*
X71922Y95422D01*
X72938D01*
X73446Y95930D02*
X73699Y96184D01*
X74207D01*
X74461Y95930D01*
Y94914D01*
X74207Y94660D01*
X73699D01*
X73446Y94914D01*
Y95930D01*
X75223Y94406D02*
X75477Y94660D01*
Y94914D01*
X75223D01*
Y94660D01*
X75477D01*
X75223Y94406D01*
X74969Y94152D01*
X76493Y95930D02*
X76746Y96184D01*
X77254D01*
X77508Y95930D01*
Y94914D01*
X77254Y94660D01*
X76746D01*
X76493Y94914D01*
Y95930D01*
X78016D02*
X78270Y96184D01*
X78778D01*
X79032Y95930D01*
Y94914D01*
X78778Y94660D01*
X78270D01*
X78016Y94914D01*
Y95930D01*
X162340Y53152D02*
Y53660D01*
Y53406D01*
X160816D01*
X161070Y53152D01*
X162340Y54422D02*
Y54930D01*
Y54676D01*
X160816D01*
X161070Y54422D01*
X162594Y55945D02*
X162340Y56199D01*
X162086D01*
Y55945D01*
X162340D01*
Y56199D01*
X162594Y55945D01*
X162848Y55692D01*
X161070Y57215D02*
X160816Y57469D01*
Y57977D01*
X161070Y58231D01*
X162086D01*
X162340Y57977D01*
Y57469D01*
X162086Y57215D01*
X161070D01*
Y58739D02*
X160816Y58993D01*
Y59500D01*
X161070Y59754D01*
X162086D01*
X162340Y59500D01*
Y58993D01*
X162086Y58739D01*
X161070D01*
X162340Y63676D02*
Y64184D01*
Y63930D01*
X160816D01*
X161070Y63676D01*
X162340Y64946D02*
Y65454D01*
Y65200D01*
X160816D01*
X161070Y64946D01*
X162594Y66469D02*
X162340Y66723D01*
X162086D01*
Y66469D01*
X162340D01*
Y66723D01*
X162594Y66469D01*
X162848Y66216D01*
X161070Y67739D02*
X160816Y67993D01*
Y68501D01*
X161070Y68755D01*
X162086D01*
X162340Y68501D01*
Y67993D01*
X162086Y67739D01*
X161070D01*
Y69263D02*
X160816Y69517D01*
Y70024D01*
X161070Y70278D01*
X162086D01*
X162340Y70024D01*
Y69517D01*
X162086Y69263D01*
X161070D01*
X162340Y75152D02*
Y75660D01*
Y75406D01*
X160816D01*
X161070Y75152D01*
X162340Y77438D02*
Y76422D01*
X161324Y77438D01*
X161070D01*
X160816Y77184D01*
Y76676D01*
X161070Y76422D01*
X162594Y78199D02*
X162340Y78453D01*
X162086D01*
Y78199D01*
X162340D01*
Y78453D01*
X162594Y78199D01*
X162848Y77946D01*
X161070Y79469D02*
X160816Y79723D01*
Y80231D01*
X161070Y80485D01*
X162086D01*
X162340Y80231D01*
Y79723D01*
X162086Y79469D01*
X161070D01*
Y80993D02*
X160816Y81246D01*
Y81754D01*
X161070Y82008D01*
X162086D01*
X162340Y81754D01*
Y81246D01*
X162086Y80993D01*
X161070D01*
%TF.MD5,a7caa962a5b147406ebb7836a9da16e7*%
M02*
