%TF.GenerationSoftware,Altium Limited,Altium Designer,22.11.1 (43)*%
G04 Layer_Color=16711935*
%FSLAX43Y43*%
%MOMM*%
%TF.SameCoordinates,713154A8-74CC-4FB3-A553-2C66CAAA5226*%
%TF.FilePolarity,Negative*%
%TF.FileFunction,Soldermask,Bot*%
%TF.Part,Single*%
G01*
G75*
%TA.AperFunction,SMDPad,CuDef*%
%ADD10R,1.450X1.200*%
%ADD18R,1.356X1.055*%
%ADD21R,1.150X1.450*%
%ADD22R,1.200X1.450*%
%ADD23R,0.700X0.600*%
%ADD37R,1.000X1.350*%
%TA.AperFunction,ComponentPad*%
G04:AMPARAMS|DCode=54|XSize=2.6mm|YSize=4.7mm|CornerRadius=1.3mm|HoleSize=0mm|Usage=FLASHONLY|Rotation=180.000|XOffset=0mm|YOffset=0mm|HoleType=Round|Shape=RoundedRectangle|*
%AMROUNDEDRECTD54*
21,1,2.600,2.100,0,0,180.0*
21,1,0.000,4.700,0,0,180.0*
1,1,2.600,0.000,1.050*
1,1,2.600,0.000,1.050*
1,1,2.600,0.000,-1.050*
1,1,2.600,0.000,-1.050*
%
%ADD54ROUNDEDRECTD54*%
%ADD55C,1.550*%
%ADD56R,1.550X1.550*%
%ADD57C,1.337*%
%ADD58R,1.337X1.337*%
%ADD59R,1.250X1.250*%
%ADD60C,1.250*%
%ADD61C,1.700*%
%ADD62R,3.000X1.500*%
%ADD63C,1.400*%
%ADD64R,1.500X3.500*%
%ADD65R,1.500X2.800*%
%ADD66C,2.400*%
G04:AMPARAMS|DCode=67|XSize=2.4mm|YSize=2.4mm|CornerRadius=0.6mm|HoleSize=0mm|Usage=FLASHONLY|Rotation=270.000|XOffset=0mm|YOffset=0mm|HoleType=Round|Shape=RoundedRectangle|*
%AMROUNDEDRECTD67*
21,1,2.400,1.200,0,0,270.0*
21,1,1.200,2.400,0,0,270.0*
1,1,1.200,-0.600,-0.600*
1,1,1.200,-0.600,0.600*
1,1,1.200,0.600,0.600*
1,1,1.200,0.600,-0.600*
%
%ADD67ROUNDEDRECTD67*%
%ADD68C,1.600*%
G04:AMPARAMS|DCode=69|XSize=1.6mm|YSize=1.6mm|CornerRadius=0.4mm|HoleSize=0mm|Usage=FLASHONLY|Rotation=180.000|XOffset=0mm|YOffset=0mm|HoleType=Round|Shape=RoundedRectangle|*
%AMROUNDEDRECTD69*
21,1,1.600,0.800,0,0,180.0*
21,1,0.800,1.600,0,0,180.0*
1,1,0.800,-0.400,0.400*
1,1,0.800,0.400,0.400*
1,1,0.800,0.400,-0.400*
1,1,0.800,-0.400,-0.400*
%
%ADD69ROUNDEDRECTD69*%
G04:AMPARAMS|DCode=70|XSize=1.5mm|YSize=1.5mm|CornerRadius=0.375mm|HoleSize=0mm|Usage=FLASHONLY|Rotation=270.000|XOffset=0mm|YOffset=0mm|HoleType=Round|Shape=RoundedRectangle|*
%AMROUNDEDRECTD70*
21,1,1.500,0.750,0,0,270.0*
21,1,0.750,1.500,0,0,270.0*
1,1,0.750,-0.375,-0.375*
1,1,0.750,-0.375,0.375*
1,1,0.750,0.375,0.375*
1,1,0.750,0.375,-0.375*
%
%ADD70ROUNDEDRECTD70*%
%ADD71C,1.500*%
%TA.AperFunction,ViaPad*%
%ADD72C,3.500*%
%TA.AperFunction,ComponentPad*%
%ADD73C,1.800*%
%ADD74R,1.800X1.800*%
%ADD75C,1.950*%
G04:AMPARAMS|DCode=76|XSize=1.95mm|YSize=1.95mm|CornerRadius=0.488mm|HoleSize=0mm|Usage=FLASHONLY|Rotation=180.000|XOffset=0mm|YOffset=0mm|HoleType=Round|Shape=RoundedRectangle|*
%AMROUNDEDRECTD76*
21,1,1.950,0.975,0,0,180.0*
21,1,0.975,1.950,0,0,180.0*
1,1,0.975,-0.488,0.488*
1,1,0.975,0.488,0.488*
1,1,0.975,0.488,-0.488*
1,1,0.975,-0.488,-0.488*
%
%ADD76ROUNDEDRECTD76*%
G04:AMPARAMS|DCode=77|XSize=1.6mm|YSize=1.6mm|CornerRadius=0.4mm|HoleSize=0mm|Usage=FLASHONLY|Rotation=90.000|XOffset=0mm|YOffset=0mm|HoleType=Round|Shape=RoundedRectangle|*
%AMROUNDEDRECTD77*
21,1,1.600,0.800,0,0,90.0*
21,1,0.800,1.600,0,0,90.0*
1,1,0.800,0.400,0.400*
1,1,0.800,0.400,-0.400*
1,1,0.800,-0.400,-0.400*
1,1,0.800,-0.400,0.400*
%
%ADD77ROUNDEDRECTD77*%
%TA.AperFunction,ViaPad*%
%ADD78C,0.800*%
%ADD79C,0.750*%
%TA.AperFunction,SMDPad,CuDef*%
%ADD80R,1.300X3.400*%
%ADD81R,0.900X0.950*%
D10*
X32800Y41000D02*
D03*
Y43000D02*
D03*
X36902Y37100D02*
D03*
Y39100D02*
D03*
D18*
X99130Y78548D02*
D03*
Y80000D02*
D03*
D21*
X110000Y59500D02*
D03*
X111750D02*
D03*
D22*
X125190Y65500D02*
D03*
X127190D02*
D03*
D23*
X112000D02*
D03*
X110000Y66450D02*
D03*
Y64550D02*
D03*
D37*
X110000Y61500D02*
D03*
X111800D02*
D03*
D54*
X69400Y14000D02*
D03*
X80600D02*
D03*
D55*
X72500Y6500D02*
D03*
X75000D02*
D03*
X72500Y21000D02*
D03*
X77500D02*
D03*
D56*
Y6500D02*
D03*
D57*
X48330Y25950D02*
D03*
X53410D02*
D03*
X50870D02*
D03*
X61030Y64050D02*
D03*
X71190D02*
D03*
X68650D02*
D03*
X66110D02*
D03*
X63570D02*
D03*
X58490D02*
D03*
X55950D02*
D03*
X53410D02*
D03*
X50870D02*
D03*
X48330D02*
D03*
X99130Y25950D02*
D03*
X96590D02*
D03*
X73730Y64050D02*
D03*
X101670D02*
D03*
X88970D02*
D03*
X83890D02*
D03*
X81350D02*
D03*
X78810D02*
D03*
X76270D02*
D03*
X91510D02*
D03*
X94050D02*
D03*
X96590D02*
D03*
X86430D02*
D03*
X99130D02*
D03*
D58*
X101670Y25950D02*
D03*
D59*
X126190Y56640D02*
D03*
Y46840D02*
D03*
D60*
Y54100D02*
D03*
Y51560D02*
D03*
X133810D02*
D03*
Y54100D02*
D03*
Y56640D02*
D03*
X126190Y44300D02*
D03*
Y41760D02*
D03*
X133810D02*
D03*
Y44300D02*
D03*
Y46840D02*
D03*
D61*
X148000Y51000D02*
D03*
X141000D02*
D03*
D62*
X149000Y68500D02*
D03*
Y77500D02*
D03*
D63*
X151000Y73000D02*
D03*
D64*
X142000D02*
D03*
D65*
X148000D02*
D03*
D66*
X6000Y13000D02*
D03*
Y18080D02*
D03*
Y28240D02*
D03*
Y38400D02*
D03*
Y33320D02*
D03*
Y23160D02*
D03*
X6000Y51700D02*
D03*
Y56780D02*
D03*
Y66940D02*
D03*
Y72020D02*
D03*
Y61860D02*
D03*
D67*
X6000Y43480D02*
D03*
X6000Y77100D02*
D03*
D68*
X57080Y68000D02*
D03*
X54540D02*
D03*
X52000D02*
D03*
X96590D02*
D03*
X94050D02*
D03*
X91510D02*
D03*
X81000Y23700D02*
D03*
X83540D02*
D03*
X88620D02*
D03*
X91160D02*
D03*
X86080D02*
D03*
X111000Y34920D02*
D03*
Y32380D02*
D03*
Y37460D02*
D03*
Y40000D02*
D03*
Y51120D02*
D03*
Y48580D02*
D03*
Y46040D02*
D03*
D69*
X59620Y68000D02*
D03*
X99130D02*
D03*
X93700Y23700D02*
D03*
D70*
X77000Y80300D02*
D03*
D71*
Y77760D02*
D03*
Y75220D02*
D03*
D72*
X95000Y5000D02*
D03*
X5000Y85000D02*
D03*
X145000D02*
D03*
X5000Y5000D02*
D03*
X145000D02*
D03*
D73*
X53900Y14000D02*
D03*
X57710Y17810D02*
D03*
X104000Y77460D02*
D03*
Y80000D02*
D03*
D74*
Y74920D02*
D03*
D75*
X130500Y82000D02*
D03*
D76*
X134000D02*
D03*
D77*
X111000Y29840D02*
D03*
Y43500D02*
D03*
D78*
X138500Y88000D02*
D03*
X140250Y84500D02*
D03*
X135000Y88000D02*
D03*
X136750Y84500D02*
D03*
X131500Y88000D02*
D03*
X128000D02*
D03*
X124500D02*
D03*
Y74000D02*
D03*
X126250Y70500D02*
D03*
X124500Y67000D02*
D03*
Y53000D02*
D03*
Y46000D02*
D03*
Y39000D02*
D03*
X121000Y74000D02*
D03*
X122750Y70500D02*
D03*
X121000Y67000D02*
D03*
Y60000D02*
D03*
Y53000D02*
D03*
Y39000D02*
D03*
X122750Y35500D02*
D03*
X119250Y84500D02*
D03*
X117500Y74000D02*
D03*
X119250Y70500D02*
D03*
X117500Y67000D02*
D03*
Y53000D02*
D03*
X119250Y49500D02*
D03*
X117500Y46000D02*
D03*
X119250Y42500D02*
D03*
X117500Y39000D02*
D03*
X119250Y35500D02*
D03*
X117500Y32000D02*
D03*
X114000Y88000D02*
D03*
Y74000D02*
D03*
X115750Y70500D02*
D03*
X114000Y53000D02*
D03*
X115750Y49500D02*
D03*
X114000Y46000D02*
D03*
X115750Y42500D02*
D03*
X114000Y39000D02*
D03*
X115750Y35500D02*
D03*
X114000Y32000D02*
D03*
X115750Y28500D02*
D03*
X110500Y88000D02*
D03*
X112250Y84500D02*
D03*
Y77500D02*
D03*
Y70500D02*
D03*
Y63500D02*
D03*
Y49500D02*
D03*
Y42500D02*
D03*
Y35500D02*
D03*
Y28500D02*
D03*
X107000Y88000D02*
D03*
X108750Y84500D02*
D03*
Y70500D02*
D03*
X107000Y67000D02*
D03*
X108750Y63500D02*
D03*
X107000Y60000D02*
D03*
X108750Y49500D02*
D03*
Y42500D02*
D03*
X107000Y32000D02*
D03*
X108750Y28500D02*
D03*
X103500Y88000D02*
D03*
X105250Y84500D02*
D03*
Y70500D02*
D03*
X103500Y67000D02*
D03*
X105250Y63500D02*
D03*
X103500Y60000D02*
D03*
X105250Y56500D02*
D03*
Y49500D02*
D03*
Y42500D02*
D03*
Y35500D02*
D03*
Y28500D02*
D03*
X100000Y88000D02*
D03*
X101750Y84500D02*
D03*
Y77500D02*
D03*
X100000Y74000D02*
D03*
X101750Y70500D02*
D03*
X100000Y60000D02*
D03*
X101750Y56500D02*
D03*
Y42500D02*
D03*
Y35500D02*
D03*
Y28500D02*
D03*
X96500Y88000D02*
D03*
X98250Y84500D02*
D03*
X96500Y81000D02*
D03*
Y74000D02*
D03*
X98250Y70500D02*
D03*
X96500Y60000D02*
D03*
X98250Y56500D02*
D03*
Y42500D02*
D03*
Y35500D02*
D03*
Y28500D02*
D03*
X93000Y88000D02*
D03*
X94750Y84500D02*
D03*
X93000Y81000D02*
D03*
X94750Y77500D02*
D03*
X93000Y74000D02*
D03*
X94750Y70500D02*
D03*
X93000Y60000D02*
D03*
X94750Y49500D02*
D03*
Y42500D02*
D03*
Y35500D02*
D03*
Y28500D02*
D03*
X89500Y88000D02*
D03*
X91250Y84500D02*
D03*
X89500Y81000D02*
D03*
X91250Y77500D02*
D03*
X89500Y74000D02*
D03*
X91250Y70500D02*
D03*
X89500Y67000D02*
D03*
X91250Y49500D02*
D03*
Y35500D02*
D03*
Y28500D02*
D03*
X86000Y88000D02*
D03*
X87750Y84500D02*
D03*
X86000Y81000D02*
D03*
X87750Y77500D02*
D03*
X86000Y74000D02*
D03*
X87750Y70500D02*
D03*
Y42500D02*
D03*
Y35500D02*
D03*
Y28500D02*
D03*
X82500Y88000D02*
D03*
X84250Y84500D02*
D03*
X82500Y81000D02*
D03*
X84250Y77500D02*
D03*
X82500Y74000D02*
D03*
X84250Y70500D02*
D03*
X82500Y67000D02*
D03*
X84250Y42500D02*
D03*
Y28500D02*
D03*
X79000Y88000D02*
D03*
X80750Y84500D02*
D03*
X79000Y81000D02*
D03*
X80750Y77500D02*
D03*
X79000Y74000D02*
D03*
X80750Y70500D02*
D03*
X79000Y67000D02*
D03*
Y60000D02*
D03*
X80750Y28500D02*
D03*
X75500Y88000D02*
D03*
Y74000D02*
D03*
X77250Y70500D02*
D03*
X75500Y60000D02*
D03*
X77250Y28500D02*
D03*
X72000Y88000D02*
D03*
X73750Y84500D02*
D03*
X72000Y81000D02*
D03*
X73750Y77500D02*
D03*
X72000Y74000D02*
D03*
X73750Y70500D02*
D03*
X65000Y88000D02*
D03*
X66750Y84500D02*
D03*
X65000Y81000D02*
D03*
X66750Y77500D02*
D03*
X65000Y74000D02*
D03*
X66750Y56500D02*
D03*
X65000Y32000D02*
D03*
X61500Y88000D02*
D03*
X63250Y84500D02*
D03*
Y77500D02*
D03*
X61500Y32000D02*
D03*
X63250Y28500D02*
D03*
X58000Y88000D02*
D03*
X59750Y84500D02*
D03*
Y77500D02*
D03*
X58000Y74000D02*
D03*
X59750Y70500D02*
D03*
Y63500D02*
D03*
Y56500D02*
D03*
Y42500D02*
D03*
X58000Y39000D02*
D03*
X59750Y28500D02*
D03*
X54500Y88000D02*
D03*
Y81000D02*
D03*
X56250Y70500D02*
D03*
Y56500D02*
D03*
Y42500D02*
D03*
X51000Y88000D02*
D03*
X52750Y77500D02*
D03*
X51000Y67000D02*
D03*
X52750Y56500D02*
D03*
X47500Y88000D02*
D03*
X49250Y77500D02*
D03*
X47500Y67000D02*
D03*
X49250Y56500D02*
D03*
Y42500D02*
D03*
X44000Y88000D02*
D03*
X45750Y77500D02*
D03*
X44000Y67000D02*
D03*
X45750Y63500D02*
D03*
Y56500D02*
D03*
X40500Y88000D02*
D03*
X42250Y77500D02*
D03*
Y63500D02*
D03*
Y56500D02*
D03*
X37000Y88000D02*
D03*
X38750Y77500D02*
D03*
X33500Y88000D02*
D03*
X35250Y77500D02*
D03*
Y70500D02*
D03*
X33500Y67000D02*
D03*
X35250Y63500D02*
D03*
X30000Y88000D02*
D03*
X31750Y84500D02*
D03*
Y77500D02*
D03*
X30000Y67000D02*
D03*
X31750Y63500D02*
D03*
X30000Y53000D02*
D03*
X26500Y88000D02*
D03*
X28250Y84500D02*
D03*
Y77500D02*
D03*
Y70500D02*
D03*
X26500Y67000D02*
D03*
Y53000D02*
D03*
X23000Y88000D02*
D03*
X24750Y77500D02*
D03*
Y70500D02*
D03*
X23000Y67000D02*
D03*
X24750Y63500D02*
D03*
X23000Y60000D02*
D03*
X24750Y49500D02*
D03*
X19500Y88000D02*
D03*
X21250Y84500D02*
D03*
X19500Y81000D02*
D03*
X21250Y77500D02*
D03*
X19500Y46000D02*
D03*
X16000Y88000D02*
D03*
X17750Y84500D02*
D03*
X16000Y81000D02*
D03*
Y46000D02*
D03*
X12500Y88000D02*
D03*
X14250Y84500D02*
D03*
X12500Y81000D02*
D03*
Y74000D02*
D03*
Y60000D02*
D03*
Y53000D02*
D03*
Y46000D02*
D03*
X9000Y88000D02*
D03*
X10750Y84500D02*
D03*
X9000Y81000D02*
D03*
Y74000D02*
D03*
X10750Y70500D02*
D03*
Y63500D02*
D03*
X9000Y60000D02*
D03*
Y53000D02*
D03*
X10750Y49500D02*
D03*
X9000Y46000D02*
D03*
X5500Y74000D02*
D03*
X7250Y70500D02*
D03*
Y63500D02*
D03*
X5500Y60000D02*
D03*
X7250Y49500D02*
D03*
X5500Y46000D02*
D03*
X2000Y81000D02*
D03*
X3750Y77500D02*
D03*
X2000Y74000D02*
D03*
X3750Y70500D02*
D03*
X2000Y67000D02*
D03*
X3750Y63500D02*
D03*
X2000Y60000D02*
D03*
X3750Y56500D02*
D03*
X2000Y53000D02*
D03*
X3750Y49500D02*
D03*
X2000Y46000D02*
D03*
X3750Y42500D02*
D03*
X35250Y7500D02*
D03*
X136750Y70500D02*
D03*
X37000Y11000D02*
D03*
X26500Y4000D02*
D03*
X140250Y35500D02*
D03*
X10750Y21500D02*
D03*
X122750Y14500D02*
D03*
X14250Y7500D02*
D03*
X47500Y11000D02*
D03*
X23000D02*
D03*
X28250Y7500D02*
D03*
X45750Y14500D02*
D03*
Y28500D02*
D03*
X135000Y4000D02*
D03*
X140250Y14500D02*
D03*
X89500Y4000D02*
D03*
X40500D02*
D03*
X19500Y32000D02*
D03*
X94750Y14500D02*
D03*
X143750Y21500D02*
D03*
X14250D02*
D03*
X12500Y25000D02*
D03*
X115750Y7500D02*
D03*
X138500Y4000D02*
D03*
X136750Y49500D02*
D03*
X7250Y35500D02*
D03*
X143750D02*
D03*
X149000Y60000D02*
D03*
X89500Y11000D02*
D03*
X149000Y81000D02*
D03*
X138500Y18000D02*
D03*
X140250Y77500D02*
D03*
X3750Y21500D02*
D03*
X122750D02*
D03*
X129750Y28500D02*
D03*
X51000Y4000D02*
D03*
X10750Y35500D02*
D03*
X145500Y18000D02*
D03*
X9000Y25000D02*
D03*
X138500Y81000D02*
D03*
X140250Y49500D02*
D03*
X51000Y11000D02*
D03*
X115750Y14500D02*
D03*
X12500Y32000D02*
D03*
Y11000D02*
D03*
X150750Y63500D02*
D03*
X14250Y35500D02*
D03*
X138500Y46000D02*
D03*
X142000Y11000D02*
D03*
X103500Y4000D02*
D03*
X119250Y7500D02*
D03*
X9000Y32000D02*
D03*
X136750Y28500D02*
D03*
X138500Y32000D02*
D03*
X149000Y46000D02*
D03*
X17750Y21500D02*
D03*
X147250Y49500D02*
D03*
X150750Y56500D02*
D03*
X140250Y7500D02*
D03*
X42250D02*
D03*
X86000Y4000D02*
D03*
X3750Y14500D02*
D03*
X145500Y39000D02*
D03*
X10750Y14500D02*
D03*
X112250D02*
D03*
X103500Y11000D02*
D03*
X19500D02*
D03*
X138500Y25000D02*
D03*
X128000Y11000D02*
D03*
X7250Y14500D02*
D03*
X119250D02*
D03*
X114000Y11000D02*
D03*
X126250Y7500D02*
D03*
X21250D02*
D03*
X135000Y60000D02*
D03*
X101750Y14500D02*
D03*
X135000Y46000D02*
D03*
X10750Y7500D02*
D03*
X150750Y49500D02*
D03*
X87750Y7500D02*
D03*
X86000Y11000D02*
D03*
X138500Y39000D02*
D03*
X150750Y70500D02*
D03*
X149000Y11000D02*
D03*
X49250Y7500D02*
D03*
X138500Y11000D02*
D03*
X140250Y28500D02*
D03*
X23000Y32000D02*
D03*
X108750Y7500D02*
D03*
X45750D02*
D03*
X33500Y4000D02*
D03*
X101750Y7500D02*
D03*
X7250Y21500D02*
D03*
X42250Y14500D02*
D03*
X140250Y21500D02*
D03*
X117500Y4000D02*
D03*
X135000Y39000D02*
D03*
X24750Y7500D02*
D03*
X136750Y56500D02*
D03*
X145500Y11000D02*
D03*
X122750Y7500D02*
D03*
X110500Y4000D02*
D03*
X5500Y25000D02*
D03*
X135000Y32000D02*
D03*
X9000Y11000D02*
D03*
X42250Y28500D02*
D03*
X16000Y11000D02*
D03*
X147250Y70500D02*
D03*
X143750Y42500D02*
D03*
X2000Y18000D02*
D03*
X124500Y4000D02*
D03*
X17750Y7500D02*
D03*
X142000Y32000D02*
D03*
Y46000D02*
D03*
X147250Y35500D02*
D03*
Y21500D02*
D03*
X149000Y39000D02*
D03*
X145500Y25000D02*
D03*
X3750Y28500D02*
D03*
X143750Y77500D02*
D03*
X23000Y18000D02*
D03*
X105250Y14500D02*
D03*
X136750Y42500D02*
D03*
X135000Y67000D02*
D03*
X149000Y18000D02*
D03*
X142000Y81000D02*
D03*
X107000Y11000D02*
D03*
X93000D02*
D03*
X100000D02*
D03*
X124500D02*
D03*
X110500D02*
D03*
X135000D02*
D03*
X133250Y7500D02*
D03*
X121000Y11000D02*
D03*
X142000Y39000D02*
D03*
X131500Y32000D02*
D03*
X147250Y56500D02*
D03*
X142000Y18000D02*
D03*
X143750Y70500D02*
D03*
X37000Y4000D02*
D03*
X23000D02*
D03*
X133250Y14500D02*
D03*
X108750D02*
D03*
X117500Y11000D02*
D03*
X12500Y4000D02*
D03*
X105250Y7500D02*
D03*
X145500Y67000D02*
D03*
X3750Y35500D02*
D03*
X19500Y4000D02*
D03*
X38750Y7500D02*
D03*
X14250Y14500D02*
D03*
X149000Y25000D02*
D03*
X142000D02*
D03*
X131500Y11000D02*
D03*
X91250Y14500D02*
D03*
X140250Y70500D02*
D03*
X133250Y28500D02*
D03*
X44000Y4000D02*
D03*
X87750Y14500D02*
D03*
X149000Y32000D02*
D03*
X31750Y7500D02*
D03*
X131500Y4000D02*
D03*
X147250Y28500D02*
D03*
X107000Y4000D02*
D03*
X147250Y14500D02*
D03*
X145500Y74000D02*
D03*
X47500Y4000D02*
D03*
X30000D02*
D03*
X136750Y77500D02*
D03*
X112250Y7500D02*
D03*
X140250Y42500D02*
D03*
X100000Y4000D02*
D03*
X2000Y25000D02*
D03*
X126250Y14500D02*
D03*
X143750Y49500D02*
D03*
X147250Y42500D02*
D03*
X16000Y25000D02*
D03*
X136750Y7500D02*
D03*
X49250Y28500D02*
D03*
X96500Y11000D02*
D03*
X23000Y25000D02*
D03*
X2000Y32000D02*
D03*
X129750Y7500D02*
D03*
X128000Y4000D02*
D03*
X5500Y11000D02*
D03*
X136750Y14500D02*
D03*
X98250D02*
D03*
X117500Y18000D02*
D03*
X2000Y11000D02*
D03*
X143750Y28500D02*
D03*
X142000Y67000D02*
D03*
X129750Y14500D02*
D03*
X143750Y56500D02*
D03*
X121000Y4000D02*
D03*
X136750Y35500D02*
D03*
X145500Y32000D02*
D03*
X17750Y35500D02*
D03*
X114000Y4000D02*
D03*
X138500Y67000D02*
D03*
X149000D02*
D03*
X49250Y14500D02*
D03*
D79*
X72153Y44654D02*
D03*
X70953Y46010D02*
D03*
X69400Y25950D02*
D03*
X72245Y17282D02*
D03*
X67000Y32000D02*
D03*
X27795Y73967D02*
D03*
X29021D02*
D03*
X30247D02*
D03*
X31474D02*
D03*
X32700D02*
D03*
X15419Y74500D02*
D03*
X16444D02*
D03*
X17469D02*
D03*
X15419Y69420D02*
D03*
X16444D02*
D03*
X17469D02*
D03*
X15419Y64340D02*
D03*
X16444D02*
D03*
X17469D02*
D03*
X15419Y59260D02*
D03*
X16444D02*
D03*
X17469D02*
D03*
Y54180D02*
D03*
X16444D02*
D03*
X15419D02*
D03*
X127190Y61895D02*
D03*
X77373Y18127D02*
D03*
X87100Y26388D02*
D03*
X51895Y27386D02*
D03*
X94197Y30450D02*
D03*
X69000Y68000D02*
D03*
X72153Y29840D02*
D03*
X74260D02*
D03*
X26498Y12000D02*
D03*
X28349D02*
D03*
X30200D02*
D03*
X38000Y50682D02*
D03*
X65607Y44913D02*
D03*
X73469Y43426D02*
D03*
X72783Y44010D02*
D03*
X61200Y44142D02*
D03*
X61700Y50100D02*
D03*
X62500Y48694D02*
D03*
X124250Y68000D02*
D03*
X76381Y55668D02*
D03*
X76299Y44962D02*
D03*
X74218Y42731D02*
D03*
X76055Y37000D02*
D03*
X79223Y43527D02*
D03*
X77043Y44078D02*
D03*
X74010Y48694D02*
D03*
X85470Y66984D02*
D03*
X29800Y23700D02*
D03*
X33050D02*
D03*
X35000D02*
D03*
X38250D02*
D03*
X78263Y42335D02*
D03*
X77626Y43201D02*
D03*
X78839Y41322D02*
D03*
X28098Y27491D02*
D03*
X20700Y18200D02*
D03*
X21700Y13120D02*
D03*
X40000Y27491D02*
D03*
X38000Y22000D02*
D03*
X35000D02*
D03*
X33050D02*
D03*
X30000D02*
D03*
X104000Y49246D02*
D03*
X31400Y41000D02*
D03*
X28960Y59961D02*
D03*
Y60959D02*
D03*
Y61946D02*
D03*
Y62948D02*
D03*
Y63949D02*
D03*
X85000Y54000D02*
D03*
X86600Y50000D02*
D03*
X38300Y75749D02*
D03*
X79500Y53500D02*
D03*
X116275Y47200D02*
D03*
X104816Y51120D02*
D03*
X53900Y37000D02*
D03*
X70900Y52500D02*
D03*
X75000Y35500D02*
D03*
X59748Y48000D02*
D03*
X74100Y36500D02*
D03*
X36902Y41000D02*
D03*
X39000Y46000D02*
D03*
X38250Y40600D02*
D03*
X19700Y23280D02*
D03*
D80*
X122850Y65500D02*
D03*
X114150D02*
D03*
D81*
X120075Y59000D02*
D03*
X116925D02*
D03*
%TF.MD5,7707eded0733f59ba058ed58d819a192*%
M02*
