%TF.GenerationSoftware,Altium Limited,Altium Designer,22.5.1 (42)*%
G04 Layer_Color=0*
%FSLAX43Y43*%
%MOMM*%
%TF.SameCoordinates,1CDD9A58-554C-4E31-8E55-BAED9532D10C*%
%TF.FilePolarity,Positive*%
%TF.FileFunction,Plated,1,2,PTH,Drill*%
%TF.Part,CustomerPanel*%
G01*
G75*
%TA.AperFunction,ComponentDrill*%
%ADD127C,0.700*%
%ADD128C,1.000*%
%ADD129C,4.000*%
%ADD130C,1.100*%
%ADD131C,1.200*%
%ADD132C,1.000*%
%ADD133C,0.700*%
%ADD134C,1.600*%
%ADD135O,1.700X0.600*%
%ADD136O,1.400X0.600*%
%TA.AperFunction,ViaDrill,NotFilled*%
%ADD137C,0.400*%
%ADD138C,3.200*%
%TA.AperFunction,ComponentDrill*%
%ADD139O,2.000X4.100*%
%ADD140C,0.780*%
%ADD141C,0.750*%
%ADD142O,2.500X1.000*%
%ADD143O,1.000X3.000*%
%ADD144O,1.000X2.300*%
%ADD145C,1.600*%
%TA.AperFunction,OtherDrill,Free Pad (106mm,12mm)*%
%ADD146C,3.500*%
%TA.AperFunction,OtherDrill,Free Pad (16mm,92mm)*%
%ADD147C,3.500*%
%TA.AperFunction,ComponentDrill*%
%ADD148C,1.300*%
%TA.AperFunction,OtherDrill,Free Pad (156mm,92mm)*%
%ADD149C,3.500*%
%TA.AperFunction,OtherDrill,Free Pad (16mm,12mm)*%
%ADD150C,3.500*%
%TA.AperFunction,OtherDrill,Free Pad (156mm,12mm)*%
%ADD151C,3.500*%
%TA.AperFunction,ComponentDrill*%
%ADD152C,1.100*%
%TA.AperFunction,ViaDrill,NotFilled*%
%ADD153C,0.350*%
D127*
X24780Y142180D02*
D03*
X27320D02*
D03*
X29860D02*
D03*
X69350Y177000D02*
D03*
X66810D02*
D03*
X64270D02*
D03*
X61730D02*
D03*
X59190D02*
D03*
X56650D02*
D03*
D128*
X94520Y193000D02*
D03*
X97060D02*
D03*
X99600D02*
D03*
X102140D02*
D03*
X104680D02*
D03*
X107220D02*
D03*
X109760D02*
D03*
X112300D02*
D03*
X114840D02*
D03*
X117380D02*
D03*
X119920D02*
D03*
X122460D02*
D03*
X125000D02*
D03*
X127540D02*
D03*
X130080D02*
D03*
X132620D02*
D03*
X83500Y13500D02*
D03*
X86000D02*
D03*
X88500D02*
D03*
X83500Y28000D02*
D03*
X88500D02*
D03*
D129*
X88020Y192000D02*
D03*
Y152000D02*
D03*
X158020D02*
D03*
Y192000D02*
D03*
D130*
X40020Y107890D02*
D03*
Y105350D02*
D03*
X37480Y107890D02*
D03*
Y105350D02*
D03*
X34940D02*
D03*
Y107890D02*
D03*
X32400Y105350D02*
D03*
Y107890D02*
D03*
X29860Y105350D02*
D03*
Y107890D02*
D03*
X68080Y75000D02*
D03*
X70620D02*
D03*
X65540D02*
D03*
X63000D02*
D03*
X107590D02*
D03*
X110130D02*
D03*
X105050D02*
D03*
X102510D02*
D03*
X64900Y21000D02*
D03*
X68710Y24810D02*
D03*
X92000Y30700D02*
D03*
X94540D02*
D03*
X99620D02*
D03*
X104700D02*
D03*
X102160D02*
D03*
X97080D02*
D03*
D131*
X147290Y114920D02*
D03*
X142290D02*
D03*
X147290Y129420D02*
D03*
X144790D02*
D03*
X142290D02*
D03*
X14000Y113000D02*
D03*
X115000Y81920D02*
D03*
Y84460D02*
D03*
Y87000D02*
D03*
D132*
X169000Y184500D02*
D03*
Y182000D02*
D03*
Y179500D02*
D03*
X88000Y87300D02*
D03*
Y84760D02*
D03*
Y82220D02*
D03*
D133*
X12000Y135620D02*
D03*
Y133080D02*
D03*
Y130540D02*
D03*
Y128000D02*
D03*
Y125460D02*
D03*
Y122920D02*
D03*
X32400Y160060D02*
D03*
Y162600D02*
D03*
Y165140D02*
D03*
Y167680D02*
D03*
Y170220D02*
D03*
Y172760D02*
D03*
D134*
X10850Y116150D02*
D03*
Y109850D02*
D03*
X17150D02*
D03*
Y116150D02*
D03*
D135*
X14180Y179545D02*
D03*
Y188185D02*
D03*
D136*
X10000Y179545D02*
D03*
Y188185D02*
D03*
D137*
X154000Y142750D02*
D03*
X64270Y159945D02*
D03*
X66900Y160050D02*
D03*
X19717Y154320D02*
D03*
X19781Y161940D02*
D03*
X16090Y181000D02*
D03*
X51103Y158290D02*
D03*
X71770Y182540D02*
D03*
X65420Y117527D02*
D03*
X64461Y117491D02*
D03*
X54433Y162927D02*
D03*
X68000Y145000D02*
D03*
X62500Y139999D02*
D03*
X63500Y140016D02*
D03*
X60059Y146295D02*
D03*
X60500Y158000D02*
D03*
X57250Y160060D02*
D03*
X52000Y159000D02*
D03*
X50273Y157754D02*
D03*
X49500Y157000D02*
D03*
X50600Y161778D02*
D03*
X50273Y162747D02*
D03*
X49721Y163532D02*
D03*
X55141Y163575D02*
D03*
X56650Y164763D02*
D03*
X57446Y165300D02*
D03*
X55919Y164138D02*
D03*
X27000Y181801D02*
D03*
X25479Y183767D02*
D03*
X49000Y172100D02*
D03*
X49000Y173231D02*
D03*
X55395Y172100D02*
D03*
Y173231D02*
D03*
X71770Y179889D02*
D03*
X64270Y161778D02*
D03*
X63500Y162600D02*
D03*
X62654Y163420D02*
D03*
X60170Y114670D02*
D03*
X76000Y122670D02*
D03*
X71670Y109760D02*
D03*
X64170Y103920D02*
D03*
X50273Y152285D02*
D03*
X54473Y150000D02*
D03*
X64000Y167000D02*
D03*
X78000Y155000D02*
D03*
X52720Y105350D02*
D03*
X47995Y107895D02*
D03*
X70630Y191580D02*
D03*
X58670Y113670D02*
D03*
X50000Y116019D02*
D03*
X40000Y164094D02*
D03*
X59871Y149000D02*
D03*
X66500Y156000D02*
D03*
X59871Y150000D02*
D03*
Y151000D02*
D03*
X46408Y195102D02*
D03*
X67506Y147008D02*
D03*
X60739Y147000D02*
D03*
X53250Y150331D02*
D03*
X28000Y152152D02*
D03*
X26890Y146110D02*
D03*
X38000Y144000D02*
D03*
X60506Y140061D02*
D03*
X43830Y184130D02*
D03*
X45100D02*
D03*
X12842Y183091D02*
D03*
X16205Y186818D02*
D03*
X16199Y185091D02*
D03*
X21437Y187326D02*
D03*
X22600Y172340D02*
D03*
X48030Y105350D02*
D03*
Y103920D02*
D03*
X48120Y101540D02*
D03*
X36210Y195102D02*
D03*
X61515Y139999D02*
D03*
X70630Y168088D02*
D03*
X46408Y184130D02*
D03*
X31130Y195102D02*
D03*
X41290D02*
D03*
X47640Y184130D02*
D03*
X101488Y130310D02*
D03*
X116728D02*
D03*
X62500Y117527D02*
D03*
X66900Y167000D02*
D03*
X63500Y117527D02*
D03*
X79136Y142180D02*
D03*
X33416Y114748D02*
D03*
X144974Y85920D02*
D03*
Y87340D02*
D03*
Y84501D02*
D03*
Y83081D02*
D03*
X142500D02*
D03*
Y84501D02*
D03*
Y87340D02*
D03*
Y85920D02*
D03*
X97600Y47761D02*
D03*
X149500Y95000D02*
D03*
X151250Y91500D02*
D03*
X146000Y95000D02*
D03*
X147750Y91500D02*
D03*
X142500Y95000D02*
D03*
X139000D02*
D03*
X135500D02*
D03*
Y81000D02*
D03*
X137250Y77500D02*
D03*
X135500Y74000D02*
D03*
Y60000D02*
D03*
Y53000D02*
D03*
Y46000D02*
D03*
X132000Y81000D02*
D03*
X133750Y77500D02*
D03*
X132000Y74000D02*
D03*
Y67000D02*
D03*
Y60000D02*
D03*
Y46000D02*
D03*
X133750Y42500D02*
D03*
X130250Y91500D02*
D03*
X128500Y81000D02*
D03*
X130250Y77500D02*
D03*
X128500Y74000D02*
D03*
Y60000D02*
D03*
X130250Y56500D02*
D03*
X128500Y53000D02*
D03*
X130250Y49500D02*
D03*
X128500Y46000D02*
D03*
X130250Y42500D02*
D03*
X128500Y39000D02*
D03*
X125000Y95000D02*
D03*
Y81000D02*
D03*
X126750Y77500D02*
D03*
X125000Y60000D02*
D03*
X126750Y56500D02*
D03*
X125000Y53000D02*
D03*
X126750Y49500D02*
D03*
X125000Y46000D02*
D03*
X126750Y42500D02*
D03*
X125000Y39000D02*
D03*
X126750Y35500D02*
D03*
X121500Y95000D02*
D03*
X123250Y91500D02*
D03*
Y84500D02*
D03*
Y77500D02*
D03*
Y70500D02*
D03*
Y56500D02*
D03*
Y49500D02*
D03*
Y42500D02*
D03*
Y35500D02*
D03*
X118000Y95000D02*
D03*
X119750Y91500D02*
D03*
Y77500D02*
D03*
X118000Y74000D02*
D03*
X119750Y70500D02*
D03*
X118000Y67000D02*
D03*
X119750Y56500D02*
D03*
Y49500D02*
D03*
X118000Y39000D02*
D03*
X119750Y35500D02*
D03*
X114500Y95000D02*
D03*
X116250Y91500D02*
D03*
Y77500D02*
D03*
X114500Y74000D02*
D03*
X116250Y70500D02*
D03*
X114500Y67000D02*
D03*
X116250Y63500D02*
D03*
Y56500D02*
D03*
Y49500D02*
D03*
Y42500D02*
D03*
Y35500D02*
D03*
X111000Y95000D02*
D03*
X112750Y91500D02*
D03*
Y84500D02*
D03*
X111000Y81000D02*
D03*
X112750Y77500D02*
D03*
X111000Y67000D02*
D03*
X112750Y63500D02*
D03*
Y49500D02*
D03*
Y42500D02*
D03*
Y35500D02*
D03*
X107500Y95000D02*
D03*
X109250Y91500D02*
D03*
X107500Y88000D02*
D03*
Y81000D02*
D03*
X109250Y77500D02*
D03*
X107500Y67000D02*
D03*
X109250Y63500D02*
D03*
Y49500D02*
D03*
Y42500D02*
D03*
Y35500D02*
D03*
X104000Y95000D02*
D03*
X105750Y91500D02*
D03*
X104000Y88000D02*
D03*
X105750Y84500D02*
D03*
X104000Y81000D02*
D03*
X105750Y77500D02*
D03*
X104000Y67000D02*
D03*
X105750Y56500D02*
D03*
Y49500D02*
D03*
Y42500D02*
D03*
Y35500D02*
D03*
X100500Y95000D02*
D03*
X102250Y91500D02*
D03*
X100500Y88000D02*
D03*
X102250Y84500D02*
D03*
X100500Y81000D02*
D03*
X102250Y77500D02*
D03*
X100500Y74000D02*
D03*
X102250Y56500D02*
D03*
X97000Y95000D02*
D03*
X98750Y91500D02*
D03*
X97000Y88000D02*
D03*
X98750Y84500D02*
D03*
X97000Y81000D02*
D03*
X98750Y77500D02*
D03*
Y42500D02*
D03*
Y35500D02*
D03*
X93500Y95000D02*
D03*
X95250Y91500D02*
D03*
X93500Y88000D02*
D03*
X95250Y84500D02*
D03*
X93500Y81000D02*
D03*
X95250Y77500D02*
D03*
X93500Y74000D02*
D03*
X95250Y35500D02*
D03*
X90000Y95000D02*
D03*
X91750Y91500D02*
D03*
X90000Y88000D02*
D03*
X91750Y84500D02*
D03*
X90000Y81000D02*
D03*
X91750Y77500D02*
D03*
X90000Y74000D02*
D03*
Y67000D02*
D03*
X91750Y35500D02*
D03*
X86500Y95000D02*
D03*
Y81000D02*
D03*
X88250Y77500D02*
D03*
X86500Y67000D02*
D03*
X88250Y35500D02*
D03*
X83000Y95000D02*
D03*
X84750Y91500D02*
D03*
X83000Y88000D02*
D03*
X84750Y84500D02*
D03*
X83000Y81000D02*
D03*
X84750Y77500D02*
D03*
Y49500D02*
D03*
X76000Y95000D02*
D03*
X77750Y91500D02*
D03*
X76000Y88000D02*
D03*
X77750Y84500D02*
D03*
X76000Y81000D02*
D03*
Y39000D02*
D03*
X72500Y95000D02*
D03*
X74250Y91500D02*
D03*
Y84500D02*
D03*
X72500Y39000D02*
D03*
X69000Y95000D02*
D03*
X70750Y91500D02*
D03*
Y84500D02*
D03*
X69000Y81000D02*
D03*
X70750Y77500D02*
D03*
Y70500D02*
D03*
Y63500D02*
D03*
Y35500D02*
D03*
X65500Y95000D02*
D03*
Y88000D02*
D03*
X67250Y77500D02*
D03*
Y63500D02*
D03*
Y49500D02*
D03*
X65500Y46000D02*
D03*
X62000Y95000D02*
D03*
X63750Y84500D02*
D03*
X62000Y74000D02*
D03*
X63750Y63500D02*
D03*
X58500Y95000D02*
D03*
X60250Y84500D02*
D03*
X58500Y74000D02*
D03*
X60250Y63500D02*
D03*
Y49500D02*
D03*
X55000Y95000D02*
D03*
X56750Y84500D02*
D03*
X55000Y74000D02*
D03*
X56750Y70500D02*
D03*
Y63500D02*
D03*
X51500Y95000D02*
D03*
X53250Y84500D02*
D03*
Y70500D02*
D03*
Y63500D02*
D03*
X48000Y95000D02*
D03*
X49750Y84500D02*
D03*
X44500Y95000D02*
D03*
X46250Y84500D02*
D03*
Y77500D02*
D03*
X44500Y74000D02*
D03*
X46250Y70500D02*
D03*
X41000Y95000D02*
D03*
X42750Y91500D02*
D03*
Y84500D02*
D03*
X41000Y74000D02*
D03*
X42750Y70500D02*
D03*
X41000Y60000D02*
D03*
X37500Y95000D02*
D03*
X39250Y91500D02*
D03*
Y84500D02*
D03*
Y77500D02*
D03*
X37500Y74000D02*
D03*
Y60000D02*
D03*
X34000Y95000D02*
D03*
X35750Y84500D02*
D03*
Y77500D02*
D03*
X34000Y74000D02*
D03*
X35750Y70500D02*
D03*
X34000Y67000D02*
D03*
X35750Y56500D02*
D03*
X30500Y95000D02*
D03*
X32250Y91500D02*
D03*
X30500Y88000D02*
D03*
X32250Y84500D02*
D03*
X30500Y53000D02*
D03*
X27000Y95000D02*
D03*
X28750Y91500D02*
D03*
X27000Y88000D02*
D03*
Y53000D02*
D03*
X23500Y95000D02*
D03*
X25250Y91500D02*
D03*
X23500Y88000D02*
D03*
Y81000D02*
D03*
Y67000D02*
D03*
Y60000D02*
D03*
Y53000D02*
D03*
X20000Y95000D02*
D03*
X21750Y91500D02*
D03*
X20000Y88000D02*
D03*
Y81000D02*
D03*
X21750Y77500D02*
D03*
Y70500D02*
D03*
X20000Y67000D02*
D03*
Y60000D02*
D03*
X21750Y56500D02*
D03*
X20000Y53000D02*
D03*
X16500Y81000D02*
D03*
X18250Y77500D02*
D03*
Y70500D02*
D03*
X16500Y67000D02*
D03*
X18250Y56500D02*
D03*
X16500Y53000D02*
D03*
X13000Y88000D02*
D03*
X14750Y84500D02*
D03*
X13000Y81000D02*
D03*
X14750Y77500D02*
D03*
X13000Y74000D02*
D03*
X14750Y70500D02*
D03*
X13000Y67000D02*
D03*
X14750Y63500D02*
D03*
X13000Y60000D02*
D03*
X14750Y56500D02*
D03*
X13000Y53000D02*
D03*
X14750Y49500D02*
D03*
X46250Y14500D02*
D03*
X147750Y77500D02*
D03*
X48000Y18000D02*
D03*
X37500Y11000D02*
D03*
X151250Y42500D02*
D03*
X21750Y28500D02*
D03*
X133750Y21500D02*
D03*
X25250Y14500D02*
D03*
X58500Y18000D02*
D03*
X34000D02*
D03*
X39250Y14500D02*
D03*
X56750Y21500D02*
D03*
Y35500D02*
D03*
X146000Y11000D02*
D03*
X151250Y21500D02*
D03*
X100500Y11000D02*
D03*
X51500D02*
D03*
X30500Y39000D02*
D03*
X105750Y21500D02*
D03*
X154750Y28500D02*
D03*
X25250D02*
D03*
X23500Y32000D02*
D03*
X126750Y14500D02*
D03*
X149500Y11000D02*
D03*
X147750Y56500D02*
D03*
X18250Y42500D02*
D03*
X154750D02*
D03*
X160000Y67000D02*
D03*
X100500Y18000D02*
D03*
X160000Y88000D02*
D03*
X149500Y25000D02*
D03*
X151250Y84500D02*
D03*
X14750Y28500D02*
D03*
X133750D02*
D03*
X140750Y35500D02*
D03*
X62000Y11000D02*
D03*
X21750Y42500D02*
D03*
X156500Y25000D02*
D03*
X20000Y32000D02*
D03*
X149500Y88000D02*
D03*
X151250Y56500D02*
D03*
X62000Y18000D02*
D03*
X126750Y21500D02*
D03*
X23500Y39000D02*
D03*
Y18000D02*
D03*
X161750Y70500D02*
D03*
X25250Y42500D02*
D03*
X149500Y53000D02*
D03*
X153000Y18000D02*
D03*
X114500Y11000D02*
D03*
X130250Y14500D02*
D03*
X20000Y39000D02*
D03*
X147750Y35500D02*
D03*
X149500Y39000D02*
D03*
X160000Y53000D02*
D03*
X28750Y28500D02*
D03*
X158250Y56500D02*
D03*
X161750Y63500D02*
D03*
X151250Y14500D02*
D03*
X53250D02*
D03*
X97000Y11000D02*
D03*
X14750Y21500D02*
D03*
X156500Y46000D02*
D03*
X21750Y21500D02*
D03*
X123250D02*
D03*
X114500Y18000D02*
D03*
X30500D02*
D03*
X149500Y32000D02*
D03*
X139000Y18000D02*
D03*
X18250Y21500D02*
D03*
X130250D02*
D03*
X125000Y18000D02*
D03*
X137250Y14500D02*
D03*
X32250D02*
D03*
X146000Y67000D02*
D03*
X112750Y21500D02*
D03*
X146000Y53000D02*
D03*
X21750Y14500D02*
D03*
X161750Y56500D02*
D03*
X98750Y14500D02*
D03*
X97000Y18000D02*
D03*
X149500Y46000D02*
D03*
X161750Y77500D02*
D03*
X160000Y18000D02*
D03*
X60250Y14500D02*
D03*
X149500Y18000D02*
D03*
X151250Y35500D02*
D03*
X34000Y39000D02*
D03*
X119750Y14500D02*
D03*
X56750D02*
D03*
X44500Y11000D02*
D03*
X112750Y14500D02*
D03*
X18250Y28500D02*
D03*
X53250Y21500D02*
D03*
X151250Y28500D02*
D03*
X128500Y11000D02*
D03*
X146000Y46000D02*
D03*
X35750Y14500D02*
D03*
X147750Y63500D02*
D03*
X156500Y18000D02*
D03*
X133750Y14500D02*
D03*
X121500Y11000D02*
D03*
X16500Y32000D02*
D03*
X146000Y39000D02*
D03*
X20000Y18000D02*
D03*
X53250Y35500D02*
D03*
X27000Y18000D02*
D03*
X158250Y77500D02*
D03*
X154750Y49500D02*
D03*
X13000Y25000D02*
D03*
X135500Y11000D02*
D03*
X28750Y14500D02*
D03*
X153000Y39000D02*
D03*
Y53000D02*
D03*
X158250Y42500D02*
D03*
Y28500D02*
D03*
X160000Y46000D02*
D03*
X156500Y32000D02*
D03*
X14750Y35500D02*
D03*
X154750Y84500D02*
D03*
X34000Y25000D02*
D03*
X116250Y21500D02*
D03*
X147750Y49500D02*
D03*
X146000Y74000D02*
D03*
X160000Y25000D02*
D03*
X153000Y88000D02*
D03*
X118000Y18000D02*
D03*
X104000D02*
D03*
X111000D02*
D03*
X135500D02*
D03*
X121500D02*
D03*
X146000D02*
D03*
X144250Y14500D02*
D03*
X132000Y18000D02*
D03*
X153000Y46000D02*
D03*
X142500Y39000D02*
D03*
X158250Y63500D02*
D03*
X153000Y25000D02*
D03*
X154750Y77500D02*
D03*
X48000Y11000D02*
D03*
X34000D02*
D03*
X144250Y21500D02*
D03*
X119750D02*
D03*
X128500Y18000D02*
D03*
X23500Y11000D02*
D03*
X116250Y14500D02*
D03*
X156500Y74000D02*
D03*
X14750Y42500D02*
D03*
X30500Y11000D02*
D03*
X49750Y14500D02*
D03*
X25250Y21500D02*
D03*
X160000Y32000D02*
D03*
X153000D02*
D03*
X142500Y18000D02*
D03*
X102250Y21500D02*
D03*
X151250Y77500D02*
D03*
X144250Y35500D02*
D03*
X55000Y11000D02*
D03*
X98750Y21500D02*
D03*
X160000Y39000D02*
D03*
X42750Y14500D02*
D03*
X142500Y11000D02*
D03*
X158250Y35500D02*
D03*
X118000Y11000D02*
D03*
X158250Y21500D02*
D03*
X156500Y81000D02*
D03*
X58500Y11000D02*
D03*
X41000D02*
D03*
X147750Y84500D02*
D03*
X123250Y14500D02*
D03*
X151250Y49500D02*
D03*
X111000Y11000D02*
D03*
X13000Y32000D02*
D03*
X137250Y21500D02*
D03*
X154750Y56500D02*
D03*
X158250Y49500D02*
D03*
X27000Y32000D02*
D03*
X147750Y14500D02*
D03*
X60250Y35500D02*
D03*
X107500Y18000D02*
D03*
X34000Y32000D02*
D03*
X13000Y39000D02*
D03*
X140750Y14500D02*
D03*
X139000Y11000D02*
D03*
X16500Y18000D02*
D03*
X147750Y21500D02*
D03*
X109250D02*
D03*
X128500Y25000D02*
D03*
X13000Y18000D02*
D03*
X154750Y35500D02*
D03*
X153000Y74000D02*
D03*
X140750Y21500D02*
D03*
X154750Y63500D02*
D03*
X132000Y11000D02*
D03*
X147750Y42500D02*
D03*
X156500Y39000D02*
D03*
X28750Y42500D02*
D03*
X125000Y11000D02*
D03*
X149500Y74000D02*
D03*
X160000D02*
D03*
X60250Y21500D02*
D03*
D138*
X172000Y104000D02*
D03*
X12000D02*
D03*
Y194000D02*
D03*
X172000D02*
D03*
D139*
X80400Y21000D02*
D03*
X91600D02*
D03*
D140*
X59330Y32950D02*
D03*
X64410D02*
D03*
X61870D02*
D03*
X72030Y71050D02*
D03*
X82190D02*
D03*
X79650D02*
D03*
X77110D02*
D03*
X74570D02*
D03*
X69490D02*
D03*
X66950D02*
D03*
X64410D02*
D03*
X61870D02*
D03*
X59330D02*
D03*
X112670Y32950D02*
D03*
X110130D02*
D03*
X107590D02*
D03*
X84730Y71050D02*
D03*
X112670D02*
D03*
X99970D02*
D03*
X94890D02*
D03*
X92350D02*
D03*
X89810D02*
D03*
X87270D02*
D03*
X102510D02*
D03*
X105050D02*
D03*
X107590D02*
D03*
X97430D02*
D03*
X110130D02*
D03*
D141*
X137190Y63640D02*
D03*
Y61100D02*
D03*
Y58560D02*
D03*
X144810D02*
D03*
Y61100D02*
D03*
Y63640D02*
D03*
X137190Y53840D02*
D03*
Y51300D02*
D03*
Y48760D02*
D03*
X144810D02*
D03*
Y51300D02*
D03*
Y53840D02*
D03*
D142*
X160000Y75500D02*
D03*
Y84500D02*
D03*
D143*
X153000Y80000D02*
D03*
D144*
X159000D02*
D03*
D145*
X17000Y20000D02*
D03*
Y25080D02*
D03*
Y35240D02*
D03*
Y45400D02*
D03*
Y50480D02*
D03*
Y40320D02*
D03*
Y30160D02*
D03*
X17000Y58700D02*
D03*
Y63780D02*
D03*
Y73940D02*
D03*
Y84100D02*
D03*
Y79020D02*
D03*
Y68860D02*
D03*
D146*
X106000Y12000D02*
D03*
D147*
X16000Y92000D02*
D03*
D148*
X141500Y89000D02*
D03*
X145000D02*
D03*
D149*
X156000Y92000D02*
D03*
D150*
X16000Y12000D02*
D03*
D151*
X156000D02*
D03*
D152*
X122000Y41920D02*
D03*
Y36840D02*
D03*
Y39380D02*
D03*
Y44460D02*
D03*
Y47000D02*
D03*
Y58120D02*
D03*
Y55580D02*
D03*
Y50500D02*
D03*
Y53040D02*
D03*
D153*
X49000Y28000D02*
D03*
X46000D02*
D03*
X44050D02*
D03*
X40952D02*
D03*
X84916Y55911D02*
D03*
X69490Y49800D02*
D03*
X70748Y55000D02*
D03*
X102160Y47000D02*
D03*
Y43824D02*
D03*
Y37450D02*
D03*
X79800Y34000D02*
D03*
X79485Y36100D02*
D03*
X78000Y39000D02*
D03*
X81700Y36100D02*
D03*
X75500D02*
D03*
X87034Y44000D02*
D03*
X72700Y61800D02*
D03*
X77600Y64000D02*
D03*
X84469Y64800D02*
D03*
X97600Y52213D02*
D03*
X89839Y48322D02*
D03*
X83153Y51654D02*
D03*
X81953Y53010D02*
D03*
X83245Y24282D02*
D03*
X38795Y80967D02*
D03*
X40021D02*
D03*
X41248D02*
D03*
X42474D02*
D03*
X43700D02*
D03*
X26419Y81500D02*
D03*
X27444D02*
D03*
X28469D02*
D03*
X26419Y76420D02*
D03*
X27444D02*
D03*
X28469D02*
D03*
X26419Y71340D02*
D03*
X27444D02*
D03*
X28469D02*
D03*
X26419Y66260D02*
D03*
X27444D02*
D03*
X28469D02*
D03*
Y61180D02*
D03*
X27444D02*
D03*
X26419D02*
D03*
X138190Y68895D02*
D03*
X88373Y25127D02*
D03*
X98100Y33388D02*
D03*
X62895Y34386D02*
D03*
X80000Y75000D02*
D03*
X83153Y36840D02*
D03*
X85260D02*
D03*
X37498Y19000D02*
D03*
X39349D02*
D03*
X41200D02*
D03*
X49000Y57682D02*
D03*
X76607Y51913D02*
D03*
X84469Y50426D02*
D03*
X83783Y51010D02*
D03*
X72700Y57100D02*
D03*
X73500Y55694D02*
D03*
X135250Y75000D02*
D03*
X87381Y62668D02*
D03*
X87299Y51962D02*
D03*
X88043Y51078D02*
D03*
X96470Y73984D02*
D03*
X40800Y30700D02*
D03*
X44050D02*
D03*
X46000D02*
D03*
X49250D02*
D03*
X89263Y49335D02*
D03*
X88626Y50201D02*
D03*
X39098Y34491D02*
D03*
X31700Y25200D02*
D03*
X32700Y20120D02*
D03*
X51000Y34491D02*
D03*
X49000Y29000D02*
D03*
X46000D02*
D03*
X44050D02*
D03*
X41000D02*
D03*
X115000Y56246D02*
D03*
X42400Y48000D02*
D03*
X39960Y66961D02*
D03*
Y67959D02*
D03*
Y68946D02*
D03*
Y69948D02*
D03*
Y70949D02*
D03*
X96000Y61000D02*
D03*
X97600Y57000D02*
D03*
X49300Y82749D02*
D03*
X90500Y60500D02*
D03*
X127275Y54200D02*
D03*
X115816Y58120D02*
D03*
X64900Y44000D02*
D03*
X81900Y59500D02*
D03*
X86000Y42500D02*
D03*
X85100Y43500D02*
D03*
X47902Y48000D02*
D03*
X50000Y53000D02*
D03*
X49250Y47600D02*
D03*
X30700Y30280D02*
D03*
%TF.MD5,099a6452b70498eb72736a7c0cc8ec18*%
M02*
