%TF.GenerationSoftware,Altium Limited,Altium Designer,22.5.1 (42)*%
G04 Layer_Color=255*
%FSLAX43Y43*%
%MOMM*%
%TF.SameCoordinates,1CDD9A58-554C-4E31-8E55-BAED9532D10C*%
%TF.FilePolarity,Positive*%
%TF.FileFunction,Pads,Bot*%
%TF.Part,CustomerPanel*%
G01*
G75*
%TA.AperFunction,SMDPad,CuDef*%
%ADD15R,1.150X1.450*%
%ADD31R,1.450X1.200*%
%ADD37R,1.356X1.055*%
%ADD40R,1.150X1.450*%
%ADD41R,1.200X1.450*%
%ADD42R,0.700X0.600*%
%ADD56R,1.000X1.350*%
%TA.AperFunction,ComponentPad*%
%ADD73R,1.200X1.200*%
%ADD74C,1.200*%
%ADD75C,1.600*%
%ADD76C,6.000*%
%ADD77C,1.800*%
%ADD78C,0.600*%
%ADD79C,2.600*%
%ADD80R,1.800X1.800*%
%ADD81R,1.600X1.600*%
%ADD82R,1.200X1.200*%
%ADD83C,2.400*%
%ADD84C,2.000*%
%ADD85O,2.100X1.050*%
%ADD86O,2.000X1.000*%
G04:AMPARAMS|DCode=89|XSize=2.6mm|YSize=4.7mm|CornerRadius=1.3mm|HoleSize=0mm|Usage=FLASHONLY|Rotation=180.000|XOffset=0mm|YOffset=0mm|HoleType=Round|Shape=RoundedRectangle|*
%AMROUNDEDRECTD89*
21,1,2.600,2.100,0,0,180.0*
21,1,0.000,4.700,0,0,180.0*
1,1,2.600,0.000,1.050*
1,1,2.600,0.000,1.050*
1,1,2.600,0.000,-1.050*
1,1,2.600,0.000,-1.050*
%
%ADD89ROUNDEDRECTD89*%
%ADD90C,1.550*%
%ADD91R,1.550X1.550*%
%ADD92C,1.337*%
%ADD93R,1.337X1.337*%
%ADD94R,1.250X1.250*%
%ADD95C,1.250*%
%ADD96C,1.700*%
%ADD97R,3.000X1.500*%
%ADD98C,1.400*%
%ADD99R,1.500X3.500*%
%ADD100R,1.500X2.800*%
G04:AMPARAMS|DCode=101|XSize=2.4mm|YSize=2.4mm|CornerRadius=0.6mm|HoleSize=0mm|Usage=FLASHONLY|Rotation=270.000|XOffset=0mm|YOffset=0mm|HoleType=Round|Shape=RoundedRectangle|*
%AMROUNDEDRECTD101*
21,1,2.400,1.200,0,0,270.0*
21,1,1.200,2.400,0,0,270.0*
1,1,1.200,-0.600,-0.600*
1,1,1.200,-0.600,0.600*
1,1,1.200,0.600,0.600*
1,1,1.200,0.600,-0.600*
%
%ADD101ROUNDEDRECTD101*%
G04:AMPARAMS|DCode=102|XSize=1.6mm|YSize=1.6mm|CornerRadius=0.4mm|HoleSize=0mm|Usage=FLASHONLY|Rotation=180.000|XOffset=0mm|YOffset=0mm|HoleType=Round|Shape=RoundedRectangle|*
%AMROUNDEDRECTD102*
21,1,1.600,0.800,0,0,180.0*
21,1,0.800,1.600,0,0,180.0*
1,1,0.800,-0.400,0.400*
1,1,0.800,0.400,0.400*
1,1,0.800,0.400,-0.400*
1,1,0.800,-0.400,-0.400*
%
%ADD102ROUNDEDRECTD102*%
G04:AMPARAMS|DCode=103|XSize=1.5mm|YSize=1.5mm|CornerRadius=0.375mm|HoleSize=0mm|Usage=FLASHONLY|Rotation=270.000|XOffset=0mm|YOffset=0mm|HoleType=Round|Shape=RoundedRectangle|*
%AMROUNDEDRECTD103*
21,1,1.500,0.750,0,0,270.0*
21,1,0.750,1.500,0,0,270.0*
1,1,0.750,-0.375,-0.375*
1,1,0.750,-0.375,0.375*
1,1,0.750,0.375,0.375*
1,1,0.750,0.375,-0.375*
%
%ADD103ROUNDEDRECTD103*%
%ADD104C,1.500*%
%TA.AperFunction,ViaPad*%
%ADD105C,3.500*%
%TA.AperFunction,ComponentPad*%
%ADD106C,1.950*%
G04:AMPARAMS|DCode=107|XSize=1.95mm|YSize=1.95mm|CornerRadius=0.488mm|HoleSize=0mm|Usage=FLASHONLY|Rotation=180.000|XOffset=0mm|YOffset=0mm|HoleType=Round|Shape=RoundedRectangle|*
%AMROUNDEDRECTD107*
21,1,1.950,0.975,0,0,180.0*
21,1,0.975,1.950,0,0,180.0*
1,1,0.975,-0.488,0.488*
1,1,0.975,0.488,0.488*
1,1,0.975,0.488,-0.488*
1,1,0.975,-0.488,-0.488*
%
%ADD107ROUNDEDRECTD107*%
G04:AMPARAMS|DCode=108|XSize=1.6mm|YSize=1.6mm|CornerRadius=0.4mm|HoleSize=0mm|Usage=FLASHONLY|Rotation=90.000|XOffset=0mm|YOffset=0mm|HoleType=Round|Shape=RoundedRectangle|*
%AMROUNDEDRECTD108*
21,1,1.600,0.800,0,0,90.0*
21,1,0.800,1.600,0,0,90.0*
1,1,0.800,0.400,0.400*
1,1,0.800,0.400,-0.400*
1,1,0.800,-0.400,-0.400*
1,1,0.800,-0.400,0.400*
%
%ADD108ROUNDEDRECTD108*%
%TA.AperFunction,SMDPad,CuDef*%
%ADD110R,1.300X3.400*%
%ADD111R,0.900X0.950*%
D15*
X98900Y190000D02*
D03*
X97100D02*
D03*
D31*
X43800Y48000D02*
D03*
Y50000D02*
D03*
X47902Y44100D02*
D03*
Y46100D02*
D03*
D37*
X110130Y85548D02*
D03*
Y87000D02*
D03*
D40*
X121000Y66500D02*
D03*
X122750D02*
D03*
D41*
X136190Y72500D02*
D03*
X138190D02*
D03*
D42*
X123000D02*
D03*
X121000Y73450D02*
D03*
Y71550D02*
D03*
D56*
X121000Y68500D02*
D03*
X122800D02*
D03*
D73*
X24780Y142180D02*
D03*
X56650Y177000D02*
D03*
D74*
X27320Y142180D02*
D03*
X29860D02*
D03*
X12000Y135620D02*
D03*
Y133080D02*
D03*
Y130540D02*
D03*
Y128000D02*
D03*
Y125460D02*
D03*
X32400Y160060D02*
D03*
Y162600D02*
D03*
Y165140D02*
D03*
Y167680D02*
D03*
Y170220D02*
D03*
X69350Y177000D02*
D03*
X66810D02*
D03*
X64270D02*
D03*
X61730D02*
D03*
X59190D02*
D03*
D75*
X94520Y193000D02*
D03*
X97060D02*
D03*
X99600D02*
D03*
X102140D02*
D03*
X104680D02*
D03*
X107220D02*
D03*
X109760D02*
D03*
X112300D02*
D03*
X114840D02*
D03*
X117380D02*
D03*
X119920D02*
D03*
X122460D02*
D03*
X125000D02*
D03*
X127540D02*
D03*
X130080D02*
D03*
X132620D02*
D03*
X169000Y182000D02*
D03*
Y179500D02*
D03*
X68080Y75000D02*
D03*
X65540D02*
D03*
X63000D02*
D03*
X107590D02*
D03*
X105050D02*
D03*
X102510D02*
D03*
X92000Y30700D02*
D03*
X94540D02*
D03*
X99620D02*
D03*
X102160D02*
D03*
X97080D02*
D03*
X122000Y41920D02*
D03*
Y39380D02*
D03*
Y44460D02*
D03*
Y47000D02*
D03*
Y58120D02*
D03*
Y55580D02*
D03*
Y53040D02*
D03*
D76*
X88020Y192000D02*
D03*
Y152000D02*
D03*
X158020D02*
D03*
Y192000D02*
D03*
D77*
X40020Y107890D02*
D03*
Y105350D02*
D03*
X37480Y107890D02*
D03*
Y105350D02*
D03*
X34940D02*
D03*
Y107890D02*
D03*
X32400Y105350D02*
D03*
Y107890D02*
D03*
X29860Y105350D02*
D03*
Y107890D02*
D03*
X142290Y114920D02*
D03*
X147290Y129420D02*
D03*
X144790D02*
D03*
X142290D02*
D03*
X64900Y21000D02*
D03*
X68710Y24810D02*
D03*
X115000Y84460D02*
D03*
Y87000D02*
D03*
D78*
X13680Y186755D02*
D03*
Y180975D02*
D03*
D79*
X150390Y121920D02*
D03*
X139190D02*
D03*
D80*
X147290Y114920D02*
D03*
X115000Y81920D02*
D03*
D81*
X169000Y184500D02*
D03*
D82*
X12000Y122920D02*
D03*
X32400Y172760D02*
D03*
D83*
X10850Y116150D02*
D03*
Y109850D02*
D03*
X17150D02*
D03*
Y116150D02*
D03*
X17000Y20000D02*
D03*
Y25080D02*
D03*
Y35240D02*
D03*
Y45400D02*
D03*
Y40320D02*
D03*
Y30160D02*
D03*
X17000Y58700D02*
D03*
Y63780D02*
D03*
Y73940D02*
D03*
Y79020D02*
D03*
Y68860D02*
D03*
D84*
X14000Y113000D02*
D03*
D85*
X14180Y179545D02*
D03*
Y188185D02*
D03*
D86*
X10000Y179545D02*
D03*
Y188185D02*
D03*
D89*
X80400Y21000D02*
D03*
X91600D02*
D03*
D90*
X83500Y13500D02*
D03*
X86000D02*
D03*
X83500Y28000D02*
D03*
X88500D02*
D03*
D91*
Y13500D02*
D03*
D92*
X59330Y32950D02*
D03*
X64410D02*
D03*
X61870D02*
D03*
X72030Y71050D02*
D03*
X82190D02*
D03*
X79650D02*
D03*
X77110D02*
D03*
X74570D02*
D03*
X69490D02*
D03*
X66950D02*
D03*
X64410D02*
D03*
X61870D02*
D03*
X59330D02*
D03*
X110130Y32950D02*
D03*
X107590D02*
D03*
X84730Y71050D02*
D03*
X112670D02*
D03*
X99970D02*
D03*
X94890D02*
D03*
X92350D02*
D03*
X89810D02*
D03*
X87270D02*
D03*
X102510D02*
D03*
X105050D02*
D03*
X107590D02*
D03*
X97430D02*
D03*
X110130D02*
D03*
D93*
X112670Y32950D02*
D03*
D94*
X137190Y63640D02*
D03*
Y53840D02*
D03*
D95*
Y61100D02*
D03*
Y58560D02*
D03*
X144810D02*
D03*
Y61100D02*
D03*
Y63640D02*
D03*
X137190Y51300D02*
D03*
Y48760D02*
D03*
X144810D02*
D03*
Y51300D02*
D03*
Y53840D02*
D03*
D96*
X159000Y58000D02*
D03*
X152000D02*
D03*
D97*
X160000Y75500D02*
D03*
Y84500D02*
D03*
D98*
X162000Y80000D02*
D03*
D99*
X153000D02*
D03*
D100*
X159000D02*
D03*
D101*
X17000Y50480D02*
D03*
X17000Y84100D02*
D03*
D102*
X70620Y75000D02*
D03*
X110130D02*
D03*
X104700Y30700D02*
D03*
D103*
X88000Y87300D02*
D03*
D104*
Y84760D02*
D03*
Y82220D02*
D03*
D105*
X106000Y12000D02*
D03*
X16000Y92000D02*
D03*
X156000D02*
D03*
X16000Y12000D02*
D03*
X156000D02*
D03*
D106*
X141500Y89000D02*
D03*
D107*
X145000D02*
D03*
D108*
X122000Y36840D02*
D03*
Y50500D02*
D03*
D110*
X133850Y72500D02*
D03*
X125150D02*
D03*
D111*
X131075Y66000D02*
D03*
X127925D02*
D03*
%TF.MD5,bbd4e1bb8e7627be350ac78712b0c4bf*%
M02*
