M48
;Layer_Color=9474304
;FILE_FORMAT=4:3
METRIC,LZ
;TYPE=PLATED
T1F00S00C0.350
T2F00S00C0.400
T4F00S00C0.700
T5F00S00C0.750
T6F00S00C0.780
T7F00S00C1.000
T9F00S00C1.100
T10F00S00C1.200
T11F00S00C1.300
T12F00S00C1.600
T14F00S00C3.200
T15F00S00C3.500
T16F00S00C4.000
;TYPE=NON_PLATED
T17F00S00C0.600
T18F00S00C1.400
T19F00S00C1.700
T20F00S00C2.600
%
T01
X00327Y002012
X0037498Y0019
X0039349
X00412
X00317Y00252
X0083245Y0024282
X0088373Y0025127
X0115Y0056246
X0115816Y005812
X0127275Y00542
X00976Y0052213
Y0057
X0096Y0061
X00905Y00605
X0087381Y0062668
X0084469Y00648
X00776Y0064
X00727Y00618
X00727Y00571
X00735Y0055694
X0070748Y0055
X006949Y00498
X0076607Y0051913
X0081953Y005301
X0083153Y0051654
X0083783Y005101
X0084469Y0050426
X0088043Y0051078
X0088626Y0050201
X0089263Y0049335
X0089839Y0048322
X0087299Y0051962
X0084916Y0055911
X00819Y00595
X00851Y00435
X0086Y00425
X0087034Y0044
X008526Y003684
X0083153
X00817Y00361
X0079485
X00798Y0034
X00755Y00361
X0078Y0039
X010216Y003745
Y0043824
Y0047
X00981Y0033388
X0062895Y0034386
X00649Y0044
X004925Y00476
X0047902Y0048
X00424
X005Y0053
X0049Y0057682
X003996Y0066961
X0028469Y006626
Y006118
X00307Y003028
X00408Y00307
X0041Y0029
X0040952Y0028
X004405
Y0029
Y00307
X0046
Y0029
Y0028
X0049
Y0029
X004925Y00307
X0051Y0034491
X0039098
X0027444Y006118
X0026419
Y006626
X0027444
Y007134
X0026419
Y007642
X0027444
Y00815
X0026419
X0028469
Y007642
Y007134
X003996Y0070949
Y0069948
Y0068946
Y0067959
X0040021Y0080967
X0038795
X0041248
X0042474
X00437
X00493Y0082749
X008Y0075
X009647Y0073984
X013525Y0075
X013819Y0068895
T02
X0013Y0018
X00165
X002
X00235
X0027
X002525Y00145
X002175
X00235Y0011
X002525Y00215
X002175
X001825
X001475
X0013Y0025
X0034
Y0018
X00305
X003225Y00145
X003575
X003925
X004275
X004625
X004975
X005325
X005675
X006025
X00585Y0018
X0062
X006025Y00215
X005675
X005325
X0048Y0018
Y0011
X00515
X0055
X00585
X0062
X00445
X0041
X00375
X0034
X00305
X002875Y00145
X009875
X0097Y0011
X01005
Y0018
X0097
X009875Y00215
X010225
X010575
X0104Y0018
X01075
X0111
X01145
X0118
X01215
X0125
X01285
X0132
X01355
X0139
X01425
X0146
X014425Y00145
X014075
X013725
X013375
X013025
X012675
X012325
X011975
X011625
X011275
X0111Y0011
X01145
X0118
X01215
X0125
X01285
X0132
X01355
X0139
X01425
X0146
X014425Y00215
X014075
X013725
X013375
X013025
X012675
X012325
X011975
X011625
X011275
X010925
X01285Y0025
X01495
X0153
X01565
X016
X015825Y00215
X01565Y0018
X0153
X01495
X015125Y00215
X014775
Y00145
X015125
X01495Y0011
X016Y0018
X015825Y00285
X015475
X015125
X01495Y0032
X0153
X01565
X016
X015825Y00355
X015475
X015125
X014775
X01495Y0039
X0153
X01565
X016
X015825Y00425
X015475
X015125
X014775
X01495Y0046
X0153
X01565
X016
X015825Y00495
X015475
X015125
X014775
X01495Y0053
X0153
X015475Y00565
X015125
X014775
Y00635
X015475
X015825
X016175
X016Y0067
X016175Y00565
X015825
X016Y0053
X0146
Y0046
Y0039
X01425
X014425Y00355
X014075
X013375Y00425
X013025
X012675
X012325
X0125Y0046
X01285
X0132
X01355
Y0053
Y006
X0132
X01285
X0125
X012675Y00565
X013025
X01285Y0053
X0125
X012675Y00495
X013025
X012325
X011975
X011625
X011275
X010925
Y00425
X011275
X011625
X0118Y0039
X011975Y00355
X012325
X012675
X0125Y0039
X01285
X013375Y00285
X011625Y00355
X011275
X010925
X011625Y00565
X011975
X012325
X011625Y00635
X011275
X010925
X01075Y0067
X0111
X01145
X0118
X0132
X0146
X0104
X010575Y00565
X010225
X010575Y00495
Y00425
Y00355
X009875
X009525
X009175
X008825
X0076Y0039
X00725
X007075Y00355
X008475Y00495
X00976Y0047761
X009875Y00425
X009Y0067
X00865
X007075Y00635
X006725
X006375
X006025
X005675
X005325
X0041Y006
X00375
X003575Y00565
X00305Y0053
X002875Y00425
X00305Y0039
X0034
Y0032
X002875Y00285
X005325Y00355
X005675
X006025
Y00495
X006725
X00655Y0046
X0034Y0067
X00235
X002
X00165
X0013
X001475Y00635
X0013Y006
X001475Y00565
X001825
X002175
X002Y006
X00235
Y0053
X0027
X002
X00165
X0013
X001475Y00495
Y00425
X001825
X002175
X002525
X00235Y0039
X002
Y0032
X00235
X0027
X002525Y00285
X002175
X001825
X001475
X0013Y0032
X00165
X001475Y00355
X0013Y0039
X001475Y00705
X001825
X002175
Y00775
X001825
X001475
X0013Y0081
X00165
X002
X00235
Y0088
X0027
X002525Y00915
X002175
X002Y0095
X00235
X0027
X002Y0088
X0013
X001475Y00845
X0013Y0074
X0034
X00375
X0041
X00445
X004625Y00775
Y00845
X004975
X005325
X005675
X006025
X006375
X00655Y0088
Y0095
X0062
X00585
X0055
X00515
X0048
X00445
X0041
X00375
X0034
X00305
X003225Y00915
X002875
X00305Y0088
X003225Y00845
X003575
X003925
X004275
Y00915
X003925
Y00775
X003575
Y00705
X004275
X004625
X005325
X005675
X0055Y0074
X00585
X0062
X006725Y00775
X006417Y010392
X005272Y010535
X004803
Y010392
X004812Y010154
X0069Y0095
X00725
X0076
X007775Y00915
X007425
X007075
Y00845
X007425
X007775
X0076Y0088
X0083
X008475Y00915
X0083Y0095
X00865
X009
X00935
X0097
X01005
X0104
X010575Y00915
X010225
X009875
X009525
X009175
X009Y0088
X00935
X0097
X01005
X0104
X010575Y00845
X010225
X009875
X009525
X009175
X009Y0081
X00935
X0097
X01005
X0104
X010575Y00775
X010225
X009875
X009525
X009175
X008825
X008475
X0083Y0081
X00865
X008475Y00845
X0076Y0081
X0069
X007075Y00775
Y00705
X009Y0074
X00935
X01005
X010925Y00775
X011275
X011625
X011975
X012325
X012675
X013025
X013375
X013725
X01355Y0081
X0132
X01285
X0125
X012325Y00845
Y00915
X011975
X011625
X011275
X010925
X01075Y0095
X0111
X01145
X0118
X01215
X0125
X013025Y00915
X01355Y0095
X0139
X01425
X0146
X0144974Y008734
Y008592
Y0084501
Y0083081
X01425
Y0084501
Y008592
Y008734
X0146Y0074
X01355
X0132
X01285
X012325Y00705
X011975
X011625
X01145Y0074
X0118
X0111Y0081
X01075
Y0088
X011275Y00845
X014775
X015125
X015475
X0153Y0088
X01495
X015125Y00915
X014775
X01495Y0095
X016Y0088
X01565Y0081
X015825Y00775
X016175
X016Y0074
X01565
X0153
X01495
X015125Y00775
X014775
X015475
X016175Y00705
X0154Y014275
X0116728Y013031
X0101488
X0076Y012267
X007167Y010976
X0068Y0145
X0079136Y014218
X00635Y0140016
X00625Y0139999
X0061515
X0060506Y0140061
X0060059Y0146295
X0038Y0144
X0033416Y0114748
X005Y0116019
X0047995Y0107895
X005867Y011367
X006017Y011467
X00625Y0117527
X00635
X0064461Y0117491
X006542Y0117527
X002689Y014611
X0019717Y015432
X0019781Y016194
X00226Y017234
X0027Y0181801
X0025479Y0183767
X0016199Y0185091
X001609Y0181
X0012842Y0183091
X004383Y018413
X00451
X0046408
X004764
X0049Y0173231
X0049Y01721
X0055395
Y0173231
X0055919Y0164138
X0055141Y0163575
X0054433Y0162927
X005665Y0164763
X0057446Y01653
X005725Y016006
X00605Y0158
X006427Y0159945
Y0161778
X00635Y01626
X0062654Y016342
X0064Y0167
X00669
Y016005
X00665Y0156
X0059871Y0151
Y015
Y0149
X0060739Y0147
X0054473Y015
X005325Y0150331
X0050273Y0152285
Y0157754
X0051103Y015829
X0052Y0159
X00506Y0161778
X0050273Y0162747
X0049721Y0163532
X00495Y0157
X004Y0164094
X0028Y0152152
X0067506Y0147008
X0078Y0155
X007063Y0168088
X007177Y0179889
Y018254
X007063Y019158
X0046408Y0195102
X004129Y0195102
X003621
X003113
X0021437Y0187326
X0016205Y0186818
T04
X002986Y014218
X002732
X002478
X0012Y013562
Y013308
Y013054
Y0128
Y012546
Y012292
X00324Y016006
Y01626
Y016514
Y016768
Y017022
Y017276
X005665Y0177
X005919
X006173
X006427
X006681
X006935
T05
X013719Y004876
Y00513
Y005384
Y005856
Y00611
Y006364
X014481
Y00611
Y005856
Y005384
Y00513
Y004876
T06
X010759Y003295
X011013
X011267
X006441
X006187
X005933
Y007105
X006187
X006441
X006695
X006949
X007203
X007457
X007711
X007965
X008219
X008473
X008727
X008981
X009235
X009489
X009743
X009997
X010251
X010505
X010759
X011013
X011267
T07
X00835Y00135
X0086
X00885
Y0028
X00835
X0088Y008222
Y008476
Y00873
X0169Y01795
Y0182
Y01845
X013262Y0193
X013008
X012754
X0125
X012246
X011992
X011738
X011484
X01123
X010976
X010722
X010468
X010214
X00996
X009706
X009452
T09
X00649Y0021
X006871Y002481
X0122Y003684
Y003938
Y004192
Y004446
Y0047
Y00505
Y005304
Y005558
Y005812
X01047Y00307
X010216
X009962
X009708
X009454
X0092
X006554Y0075
X0063
X004002Y010535
X003748
X003494
X00324
X002986
X006808Y0075
X007062
X010251
X010505
X010759
X011013
X004002Y010789
X003748
X003494
X00324
X002986
T10
X0115Y008192
Y008446
Y0087
X014729Y011492
Y012942
X014479
X014229
Y011492
X0014Y0113
T11
X01415Y0089
X0145
T12
X0017Y002
Y002508
Y003016
Y003524
Y004032
Y00454
Y005048
X0017Y00587
Y006378
Y006886
Y007394
Y007902
Y00841
X001715Y010985
X001085
Y011615
X001715
T14
X0012Y0104
X0172
Y0194
X0012
T15
X0016Y0012
X0106
X0156
X0016Y0092
X0156
T16
X008802Y0152
X015802
Y0192
X008802
T17
X001368Y0180975
Y0186755
T18
X006109Y002481
X006871Y001719
T19
X0152Y0058
X0159
X0162Y008
T20
X015039Y012192
X013919
M30
