%TF.GenerationSoftware,Altium Limited,Altium Designer,22.5.1 (42)*%
G04 Layer_Color=32768*
%FSLAX43Y43*%
%MOMM*%
%TF.SameCoordinates,1CDD9A58-554C-4E31-8E55-BAED9532D10C*%
%TF.FilePolarity,Positive*%
%TF.FileFunction,Other,Top_Dimensions*%
%TF.Part,CustomerPanel*%
G01*
G75*
%TA.AperFunction,NonConductor*%
%ADD113C,0.152*%
%ADD119C,0.254*%
D113*
X-2086Y99420D02*
Y98404D01*
X-3102Y99420D01*
X-3355D01*
X-3609Y99166D01*
Y98658D01*
X-3355Y98404D01*
Y99927D02*
X-3609Y100181D01*
Y100689D01*
X-3355Y100943D01*
X-2340D01*
X-2086Y100689D01*
Y100181D01*
X-2340Y99927D01*
X-3355D01*
X-3609Y102467D02*
X-3355Y101959D01*
X-2848Y101451D01*
X-2340D01*
X-2086Y101705D01*
Y102213D01*
X-2340Y102467D01*
X-2594D01*
X-2848Y102213D01*
Y101451D01*
X-2086Y102974D02*
X-2340D01*
Y103228D01*
X-2086D01*
Y102974D01*
X-3355Y104244D02*
X-3609Y104498D01*
Y105006D01*
X-3355Y105260D01*
X-2340D01*
X-2086Y105006D01*
Y104498D01*
X-2340Y104244D01*
X-3355D01*
Y105768D02*
X-3609Y106021D01*
Y106529D01*
X-3355Y106783D01*
X-2340D01*
X-2086Y106529D01*
Y106021D01*
X-2340Y105768D01*
X-3355D01*
X87531Y-3914D02*
X88039D01*
X87785D01*
Y-2391D01*
X87531Y-2645D01*
X88800D02*
X89054Y-2391D01*
X89562D01*
X89816Y-2645D01*
Y-2898D01*
X89562Y-3152D01*
X89816Y-3406D01*
Y-3660D01*
X89562Y-3914D01*
X89054D01*
X88800Y-3660D01*
Y-3406D01*
X89054Y-3152D01*
X88800Y-2898D01*
Y-2645D01*
X89054Y-3152D02*
X89562D01*
X91086Y-3914D02*
Y-2391D01*
X90324Y-3152D01*
X91340D01*
X91848Y-3914D02*
Y-3660D01*
X92101D01*
Y-3914D01*
X91848D01*
X93117Y-2645D02*
X93371Y-2391D01*
X93879D01*
X94133Y-2645D01*
Y-3660D01*
X93879Y-3914D01*
X93371D01*
X93117Y-3660D01*
Y-2645D01*
X94641D02*
X94895Y-2391D01*
X95402D01*
X95656Y-2645D01*
Y-3660D01*
X95402Y-3914D01*
X94895D01*
X94641Y-3660D01*
Y-2645D01*
X87531Y93086D02*
X88039D01*
X87785D01*
Y94609D01*
X87531Y94355D01*
X88801Y94609D02*
X89816D01*
Y94355D01*
X88801Y93340D01*
Y93086D01*
X90324Y94355D02*
X90578Y94609D01*
X91086D01*
X91340Y94355D01*
Y93340D01*
X91086Y93086D01*
X90578D01*
X90324Y93340D01*
Y94355D01*
X91848Y93086D02*
Y93340D01*
X92101D01*
Y93086D01*
X91848D01*
X93117Y94355D02*
X93371Y94609D01*
X93879D01*
X94133Y94355D01*
Y93340D01*
X93879Y93086D01*
X93371D01*
X93117Y93340D01*
Y94355D01*
X94641D02*
X94895Y94609D01*
X95402D01*
X95656Y94355D01*
Y93340D01*
X95402Y93086D01*
X94895D01*
X94641Y93340D01*
Y94355D01*
X2914Y144531D02*
Y145039D01*
Y144785D01*
X1391D01*
X1645Y144531D01*
Y145801D02*
X1391Y146054D01*
Y146562D01*
X1645Y146816D01*
X2660D01*
X2914Y146562D01*
Y146054D01*
X2660Y145801D01*
X1645D01*
Y147324D02*
X1391Y147578D01*
Y148086D01*
X1645Y148340D01*
X2660D01*
X2914Y148086D01*
Y147578D01*
X2660Y147324D01*
X1645D01*
X2914Y148848D02*
X2660D01*
Y149101D01*
X2914D01*
Y148848D01*
X1645Y150117D02*
X1391Y150371D01*
Y150879D01*
X1645Y151133D01*
X2660D01*
X2914Y150879D01*
Y150371D01*
X2660Y150117D01*
X1645D01*
Y151641D02*
X1391Y151895D01*
Y152402D01*
X1645Y152656D01*
X2660D01*
X2914Y152402D01*
Y151895D01*
X2660Y151641D01*
X1645D01*
X128768Y4484D02*
X127752D01*
Y3722D01*
X128260Y3976D01*
X128514D01*
X128768Y3722D01*
Y3214D01*
X128514Y2960D01*
X128006D01*
X127752Y3214D01*
X129276Y4230D02*
X129530Y4484D01*
X130038D01*
X130292Y4230D01*
Y3214D01*
X130038Y2960D01*
X129530D01*
X129276Y3214D01*
Y4230D01*
X130799Y2960D02*
Y3214D01*
X131053D01*
Y2960D01*
X130799D01*
X132069Y4230D02*
X132323Y4484D01*
X132831D01*
X133085Y4230D01*
Y3214D01*
X132831Y2960D01*
X132323D01*
X132069Y3214D01*
Y4230D01*
X133593D02*
X133846Y4484D01*
X134354D01*
X134608Y4230D01*
Y3214D01*
X134354Y2960D01*
X133846D01*
X133593Y3214D01*
Y4230D01*
X56785Y3114D02*
X57039Y2860D01*
X57547D01*
X57800Y3114D01*
Y4130D01*
X57547Y4384D01*
X57039D01*
X56785Y4130D01*
Y3876D01*
X57039Y3622D01*
X57800D01*
X58308Y4130D02*
X58562Y4384D01*
X59070D01*
X59324Y4130D01*
Y3114D01*
X59070Y2860D01*
X58562D01*
X58308Y3114D01*
Y4130D01*
X59832Y2860D02*
Y3114D01*
X60086D01*
Y2860D01*
X59832D01*
X61101Y4130D02*
X61355Y4384D01*
X61863D01*
X62117Y4130D01*
Y3114D01*
X61863Y2860D01*
X61355D01*
X61101Y3114D01*
Y4130D01*
X62625D02*
X62879Y4384D01*
X63387D01*
X63641Y4130D01*
Y3114D01*
X63387Y2860D01*
X62879D01*
X62625Y3114D01*
Y4130D01*
X161414Y107160D02*
Y108684D01*
X160652Y107922D01*
X161668D01*
X162176Y107160D02*
Y107414D01*
X162430D01*
Y107160D01*
X162176D01*
X163445Y108430D02*
X163699Y108684D01*
X164207D01*
X164461Y108430D01*
Y107414D01*
X164207Y107160D01*
X163699D01*
X163445Y107414D01*
Y108430D01*
X164969D02*
X165223Y108684D01*
X165731D01*
X165985Y108430D01*
Y107414D01*
X165731Y107160D01*
X165223D01*
X164969Y107414D01*
Y108430D01*
X-340Y48166D02*
X-86Y48420D01*
Y48927D01*
X-340Y49181D01*
X-1355D01*
X-1609Y48927D01*
Y48420D01*
X-1355Y48166D01*
X-1102D01*
X-848Y48420D01*
Y49181D01*
X-1355Y49689D02*
X-1609Y49943D01*
Y50451D01*
X-1355Y50705D01*
X-340D01*
X-86Y50451D01*
Y49943D01*
X-340Y49689D01*
X-1355D01*
X-86Y51213D02*
X-340D01*
Y51467D01*
X-86D01*
Y51213D01*
X-1355Y52482D02*
X-1609Y52736D01*
Y53244D01*
X-1355Y53498D01*
X-340D01*
X-86Y53244D01*
Y52736D01*
X-340Y52482D01*
X-1355D01*
Y54006D02*
X-1609Y54260D01*
Y54768D01*
X-1355Y55021D01*
X-340D01*
X-86Y54768D01*
Y54260D01*
X-340Y54006D01*
X-1355D01*
X3645Y48166D02*
X3391Y48420D01*
Y48927D01*
X3645Y49181D01*
X3898D01*
X4152Y48927D01*
X4406Y49181D01*
X4660D01*
X4914Y48927D01*
Y48420D01*
X4660Y48166D01*
X4406D01*
X4152Y48420D01*
X3898Y48166D01*
X3645D01*
X4152Y48420D02*
Y48927D01*
X3645Y49689D02*
X3391Y49943D01*
Y50451D01*
X3645Y50705D01*
X4660D01*
X4914Y50451D01*
Y49943D01*
X4660Y49689D01*
X3645D01*
X4914Y51213D02*
X4660D01*
Y51467D01*
X4914D01*
Y51213D01*
X3645Y52482D02*
X3391Y52736D01*
Y53244D01*
X3645Y53498D01*
X4660D01*
X4914Y53244D01*
Y52736D01*
X4660Y52482D01*
X3645D01*
Y54006D02*
X3391Y54260D01*
Y54768D01*
X3645Y55021D01*
X4660D01*
X4914Y54768D01*
Y54260D01*
X4660Y54006D01*
X3645D01*
X81652Y105660D02*
X82160D01*
X81906D01*
Y107184D01*
X81652Y106930D01*
X83938Y107184D02*
X82922D01*
Y106422D01*
X83430Y106676D01*
X83684D01*
X83938Y106422D01*
Y105914D01*
X83684Y105660D01*
X83176D01*
X82922Y105914D01*
X84446Y106930D02*
X84699Y107184D01*
X85207D01*
X85461Y106930D01*
Y105914D01*
X85207Y105660D01*
X84699D01*
X84446Y105914D01*
Y106930D01*
X85969Y105660D02*
Y105914D01*
X86223D01*
Y105660D01*
X85969D01*
X87239Y106930D02*
X87493Y107184D01*
X88000D01*
X88254Y106930D01*
Y105914D01*
X88000Y105660D01*
X87493D01*
X87239Y105914D01*
Y106930D01*
X88762D02*
X89016Y107184D01*
X89524D01*
X89778Y106930D01*
Y105914D01*
X89524Y105660D01*
X89016D01*
X88762Y105914D01*
Y106930D01*
X81652Y101660D02*
X82160D01*
X81906D01*
Y103184D01*
X81652Y102930D01*
X83684Y101660D02*
Y103184D01*
X82922Y102422D01*
X83938D01*
X84446Y102930D02*
X84699Y103184D01*
X85207D01*
X85461Y102930D01*
Y101914D01*
X85207Y101660D01*
X84699D01*
X84446Y101914D01*
Y102930D01*
X85969Y101660D02*
Y101914D01*
X86223D01*
Y101660D01*
X85969D01*
X87239Y102930D02*
X87493Y103184D01*
X88000D01*
X88254Y102930D01*
Y101914D01*
X88000Y101660D01*
X87493D01*
X87239Y101914D01*
Y102930D01*
X88762D02*
X89016Y103184D01*
X89524D01*
X89778Y102930D01*
Y101914D01*
X89524Y101660D01*
X89016D01*
X88762Y101914D01*
Y102930D01*
X173340Y60152D02*
Y60660D01*
Y60406D01*
X171816D01*
X172070Y60152D01*
X173340Y61422D02*
Y61930D01*
Y61676D01*
X171816D01*
X172070Y61422D01*
X173340Y62692D02*
X173086D01*
Y62945D01*
X173340D01*
Y62692D01*
X172070Y63961D02*
X171816Y64215D01*
Y64723D01*
X172070Y64977D01*
X173086D01*
X173340Y64723D01*
Y64215D01*
X173086Y63961D01*
X172070D01*
Y65485D02*
X171816Y65739D01*
Y66246D01*
X172070Y66500D01*
X173086D01*
X173340Y66246D01*
Y65739D01*
X173086Y65485D01*
X172070D01*
X173340Y70676D02*
Y71184D01*
Y70930D01*
X171816D01*
X172070Y70676D01*
X173340Y71946D02*
Y72454D01*
Y72200D01*
X171816D01*
X172070Y71946D01*
X173340Y73216D02*
X173086D01*
Y73469D01*
X173340D01*
Y73216D01*
X172070Y74485D02*
X171816Y74739D01*
Y75247D01*
X172070Y75501D01*
X173086D01*
X173340Y75247D01*
Y74739D01*
X173086Y74485D01*
X172070D01*
Y76009D02*
X171816Y76263D01*
Y76770D01*
X172070Y77024D01*
X173086D01*
X173340Y76770D01*
Y76263D01*
X173086Y76009D01*
X172070D01*
X173340Y82152D02*
Y82660D01*
Y82406D01*
X171816D01*
X172070Y82152D01*
X173340Y84438D02*
Y83422D01*
X172324Y84438D01*
X172070D01*
X171816Y84184D01*
Y83676D01*
X172070Y83422D01*
X173340Y84946D02*
X173086D01*
Y85199D01*
X173340D01*
Y84946D01*
X172070Y86215D02*
X171816Y86469D01*
Y86977D01*
X172070Y87231D01*
X173086D01*
X173340Y86977D01*
Y86469D01*
X173086Y86215D01*
X172070D01*
Y87739D02*
X171816Y87993D01*
Y88500D01*
X172070Y88754D01*
X173086D01*
X173340Y88500D01*
Y87993D01*
X173086Y87739D01*
X172070D01*
D119*
X-3000Y206000D02*
X-2492Y204476D01*
X-3508D02*
X-3000Y206000D01*
X-3508Y1524D02*
X-3000Y0D01*
X-2492Y1524D01*
X-3000Y107190D02*
Y206000D01*
Y0D02*
Y97998D01*
X-3254Y206000D02*
X-381D01*
X-3254Y0D02*
X-381D01*
X182476Y-3508D02*
X184000Y-3000D01*
X182476Y-2492D02*
X184000Y-3000D01*
X-0D02*
X1524Y-2492D01*
X-0Y-3000D02*
X1524Y-3508D01*
X96063Y-3000D02*
X184000D01*
X-0D02*
X87124D01*
X184000Y-3254D02*
Y-381D01*
X-0Y-3254D02*
Y-381D01*
X7000Y94000D02*
X8524Y94508D01*
X7000Y94000D02*
X8524Y93492D01*
X175476D02*
X177000Y94000D01*
X175476Y94508D02*
X177000Y94000D01*
X7000D02*
X87125D01*
X96063D02*
X177000D01*
X7000Y93746D02*
Y98619D01*
X177000Y93746D02*
Y98619D01*
X1492Y100524D02*
X2000Y99000D01*
X2508Y100524D01*
X2000Y199000D02*
X2508Y197476D01*
X1492D02*
X2000Y199000D01*
Y99000D02*
Y144125D01*
Y153063D02*
Y199000D01*
X1746Y99000D02*
X6619D01*
X1746Y199000D02*
X6619D01*
X86000Y51000D02*
Y53000D01*
Y2500D02*
Y51000D01*
X85000Y52000D02*
X87000D01*
X106000Y1900D02*
X107524Y2408D01*
X106000Y1900D02*
X107524Y1392D01*
X154476D02*
X156000Y1900D01*
X154476Y2408D02*
X156000Y1900D01*
X106000D02*
X131000D01*
X156000D01*
X106000Y1646D02*
Y9996D01*
X156000Y1646D02*
Y9996D01*
X16000Y1900D02*
X17524Y2408D01*
X16000Y1900D02*
X17524Y1392D01*
X104476D02*
X106000Y1900D01*
X104476Y2408D02*
X106000Y1900D01*
X16000D02*
X61000D01*
X106000D01*
X16000Y1646D02*
Y9996D01*
X106000Y1646D02*
Y9996D01*
X161000Y104000D02*
X162524Y104508D01*
X161000Y104000D02*
X162524Y103492D01*
X163476D02*
X165000Y104000D01*
X163476Y104508D02*
X165000Y104000D01*
X161000D02*
X163000D01*
X165000D01*
X161000Y92381D02*
Y104254D01*
X165000Y85381D02*
Y104254D01*
X-1508Y8524D02*
X-1000Y7000D01*
X-492Y8524D01*
X-1000Y97000D02*
X-492Y95476D01*
X-1508D02*
X-1000Y97000D01*
Y7000D02*
Y47759D01*
Y55428D02*
Y97000D01*
X-1254Y7000D02*
X15619D01*
X-1254Y97000D02*
X15619D01*
X4000Y92000D02*
X4508Y90476D01*
X3492D02*
X4000Y92000D01*
X3492Y13524D02*
X4000Y12000D01*
X4508Y13524D01*
X4000Y55428D02*
Y92000D01*
Y12000D02*
Y47759D01*
X3746Y92000D02*
X13996D01*
X3746Y12000D02*
X13996D01*
X11000Y104000D02*
X12524Y104508D01*
X11000Y104000D02*
X12524Y103492D01*
X159476D02*
X161000Y104000D01*
X159476Y104508D02*
X161000Y104000D01*
X11000D02*
X86000D01*
X161000D01*
X11000Y92381D02*
Y104254D01*
X161000Y92381D02*
Y104254D01*
X154476Y99492D02*
X156000Y100000D01*
X154476Y100508D02*
X156000Y100000D01*
X16000D02*
X17524Y100508D01*
X16000Y100000D02*
X17524Y99492D01*
X86000Y100000D02*
X156000D01*
X16000D02*
X86000D01*
X156000Y94004D02*
Y100254D01*
X16000Y94004D02*
Y100254D01*
X171000Y69000D02*
X171508Y67476D01*
X170492D02*
X171000Y69000D01*
X170492Y59524D02*
X171000Y58000D01*
X171508Y59524D01*
X171000Y63500D02*
Y69000D01*
Y58000D02*
Y63500D01*
X164000Y69000D02*
X171254D01*
X160104Y58000D02*
X171254D01*
X171000Y80000D02*
X171508Y78476D01*
X170492D02*
X171000Y80000D01*
X170492Y70524D02*
X171000Y69000D01*
X171508Y70524D01*
X171000Y74500D02*
Y80000D01*
Y69000D02*
Y74500D01*
X163104Y80000D02*
X171254D01*
X164000Y69000D02*
X171254D01*
X171000Y92000D02*
X171508Y90476D01*
X170492D02*
X171000Y92000D01*
X170492Y81524D02*
X171000Y80000D01*
X171508Y81524D01*
X171000Y86000D02*
Y92000D01*
Y80000D02*
Y86000D01*
X158004Y92000D02*
X171254D01*
X163104Y80000D02*
X171254D01*
%TF.MD5,31a3df1e154a30e38ca9ef88ae839a85*%
M02*
