%TF.GenerationSoftware,Altium Limited,Altium Designer,22.5.1 (42)*%
G04 Layer_Color=65535*
%FSLAX43Y43*%
%MOMM*%
%TF.SameCoordinates,1CDD9A58-554C-4E31-8E55-BAED9532D10C*%
%TF.FilePolarity,Positive*%
%TF.FileFunction,Legend,Top*%
%TF.Part,CustomerPanel*%
G01*
G75*
%TA.AperFunction,NonConductor*%
%ADD112C,0.200*%
%ADD113C,0.152*%
%ADD114C,0.305*%
%ADD115C,0.127*%
%ADD116C,0.300*%
%ADD117C,0.100*%
%ADD118C,0.076*%
%ADD119C,0.254*%
%ADD120C,0.250*%
%ADD121C,0.500*%
G36*
X24399Y178634D02*
X24018D01*
Y178888D01*
X24399D01*
Y178634D01*
D02*
G37*
G36*
X51591Y167598D02*
X51210D01*
Y167852D01*
X51591D01*
Y167598D01*
D02*
G37*
G36*
X59852Y163209D02*
X59598D01*
Y163590D01*
X59852D01*
Y163209D01*
D02*
G37*
G36*
X46402Y160009D02*
X46148D01*
Y160390D01*
X46402D01*
Y160009D01*
D02*
G37*
G36*
X56391Y154148D02*
X56010D01*
Y154402D01*
X56391D01*
Y154148D01*
D02*
G37*
G36*
X109330Y64592D02*
X109377D01*
Y64568D01*
X109400D01*
Y64545D01*
X109423D01*
Y64522D01*
X109447D01*
Y64499D01*
X109470D01*
Y64475D01*
X109493D01*
Y64452D01*
X109517D01*
Y64429D01*
X109540D01*
Y64405D01*
X109563D01*
Y64382D01*
X109586D01*
Y64336D01*
X109610D01*
Y64312D01*
X109633D01*
Y64289D01*
X109656D01*
Y64243D01*
X109679D01*
Y64219D01*
X109703D01*
Y64173D01*
X109726D01*
Y64149D01*
X109749D01*
Y64103D01*
X109773D01*
Y64056D01*
X109796D01*
Y64010D01*
X109819D01*
Y63963D01*
X109842D01*
Y63917D01*
X109866D01*
Y63847D01*
X109889D01*
Y63754D01*
X109912D01*
Y63381D01*
X109889D01*
Y63288D01*
X109866D01*
Y63219D01*
X109842D01*
Y63172D01*
X109819D01*
Y63125D01*
X109796D01*
Y63079D01*
X109773D01*
Y63032D01*
X109749D01*
Y63009D01*
X109726D01*
Y62963D01*
X109703D01*
Y62939D01*
X109679D01*
Y62893D01*
X109656D01*
Y62869D01*
X109633D01*
Y62846D01*
X109610D01*
Y62800D01*
X109586D01*
Y62776D01*
X109563D01*
Y62753D01*
X109540D01*
Y62730D01*
X109517D01*
Y62707D01*
X109493D01*
Y62660D01*
X109470D01*
Y62637D01*
X109447D01*
Y62613D01*
X109423D01*
Y62590D01*
X109400D01*
Y62567D01*
X109377D01*
Y62520D01*
X109354D01*
Y62497D01*
X109330D01*
Y62474D01*
X109307D01*
Y62451D01*
X109284D01*
Y62404D01*
X109261D01*
Y62381D01*
X109237D01*
Y62357D01*
X109214D01*
Y62311D01*
X109191D01*
Y62264D01*
X109167D01*
Y62218D01*
X109144D01*
Y62171D01*
X109121D01*
Y62125D01*
X109098D01*
Y62101D01*
Y62078D01*
Y61985D01*
X109074D01*
Y61915D01*
X109098D01*
Y61776D01*
X109121D01*
Y61706D01*
X109144D01*
Y61659D01*
X109167D01*
Y61613D01*
X109191D01*
Y61566D01*
X109214D01*
Y61520D01*
X109237D01*
Y61496D01*
X109261D01*
Y61450D01*
X109284D01*
Y61426D01*
X109307D01*
Y61380D01*
X109330D01*
Y61357D01*
X109354D01*
Y61333D01*
X109377D01*
Y61310D01*
X109400D01*
Y61264D01*
X109423D01*
Y61240D01*
X109447D01*
Y61194D01*
X109470D01*
Y61054D01*
X109447D01*
Y61008D01*
X109423D01*
Y60984D01*
X109400D01*
Y60961D01*
X109354D01*
Y60938D01*
X109191D01*
Y60961D01*
X109144D01*
Y60984D01*
X109121D01*
Y61008D01*
X109098D01*
Y61054D01*
X109074D01*
Y61077D01*
X109051D01*
Y61101D01*
X109028D01*
Y61124D01*
X109005D01*
Y61171D01*
X108981D01*
Y61194D01*
X108958D01*
Y61217D01*
X108935D01*
Y61264D01*
X108911D01*
Y61287D01*
X108888D01*
Y61333D01*
X108865D01*
Y61380D01*
X108842D01*
Y61426D01*
X108818D01*
Y61473D01*
X108795D01*
Y61520D01*
X108772D01*
Y61566D01*
X108748D01*
Y61636D01*
X108725D01*
Y61729D01*
X108702D01*
Y61869D01*
X108679D01*
Y62032D01*
X108702D01*
Y62171D01*
X108725D01*
Y62264D01*
X108748D01*
Y62311D01*
X108772D01*
Y62381D01*
X108795D01*
Y62404D01*
X108818D01*
Y62451D01*
X108842D01*
Y62497D01*
X108865D01*
Y62544D01*
X108888D01*
Y62567D01*
X108911D01*
Y62613D01*
X108935D01*
Y62637D01*
X108958D01*
Y62660D01*
X108981D01*
Y62707D01*
X109005D01*
Y62730D01*
X109028D01*
Y62753D01*
X109051D01*
Y62776D01*
X109074D01*
Y62823D01*
X109098D01*
Y62846D01*
X109121D01*
Y62869D01*
X109144D01*
Y62893D01*
X109167D01*
Y62916D01*
X109191D01*
Y62963D01*
X109214D01*
Y62986D01*
X109237D01*
Y63009D01*
X109261D01*
Y63032D01*
X109284D01*
Y63056D01*
X109307D01*
Y63102D01*
X109330D01*
Y63125D01*
X109354D01*
Y63149D01*
X109377D01*
Y63195D01*
X109400D01*
Y63219D01*
X109423D01*
Y63265D01*
X109447D01*
Y63312D01*
X109470D01*
Y63358D01*
X109493D01*
Y63428D01*
X109517D01*
Y63707D01*
X109493D01*
Y63777D01*
X109470D01*
Y63824D01*
X109447D01*
Y63870D01*
X109423D01*
Y63917D01*
X109400D01*
Y63963D01*
X109377D01*
Y63987D01*
X109354D01*
Y64033D01*
X109330D01*
Y64056D01*
X109307D01*
Y64080D01*
X109284D01*
Y64126D01*
X109261D01*
Y64149D01*
X109237D01*
Y64173D01*
X109214D01*
Y64196D01*
X109191D01*
Y64219D01*
X109167D01*
Y64243D01*
X109144D01*
Y64266D01*
X109121D01*
Y64312D01*
X109098D01*
Y64359D01*
X109074D01*
Y64475D01*
X109098D01*
Y64522D01*
X109121D01*
Y64545D01*
X109144D01*
Y64568D01*
X109167D01*
Y64592D01*
X109214D01*
Y64615D01*
X109330D01*
Y64592D01*
D02*
G37*
G36*
X111378Y64545D02*
X111425D01*
Y64522D01*
X111471D01*
Y64499D01*
X111495D01*
Y64475D01*
X111518D01*
Y64452D01*
X111541D01*
Y64429D01*
X111565D01*
Y64382D01*
X111588D01*
Y64359D01*
X111611D01*
Y64336D01*
X111634D01*
Y64312D01*
X111658D01*
Y64289D01*
X111681D01*
Y64243D01*
X111704D01*
Y64219D01*
X111727D01*
Y64196D01*
X111751D01*
Y64149D01*
X111774D01*
Y64103D01*
X111797D01*
Y64080D01*
X111821D01*
Y64033D01*
X111844D01*
Y63987D01*
X111867D01*
Y63940D01*
X111890D01*
Y63893D01*
X111914D01*
Y63824D01*
X111937D01*
Y63754D01*
X111960D01*
Y63637D01*
X111983D01*
Y63381D01*
X111960D01*
Y63288D01*
X111937D01*
Y63195D01*
X111914D01*
Y63149D01*
X111890D01*
Y63102D01*
X111867D01*
Y63056D01*
X111844D01*
Y63009D01*
X111821D01*
Y62963D01*
X111797D01*
Y62939D01*
X111774D01*
Y62893D01*
X111751D01*
Y62869D01*
X111727D01*
Y62846D01*
X111704D01*
Y62800D01*
X111681D01*
Y62776D01*
X111658D01*
Y62753D01*
X111634D01*
Y62730D01*
X111611D01*
Y62683D01*
X111588D01*
Y62660D01*
X111565D01*
Y62637D01*
X111541D01*
Y62613D01*
X111518D01*
Y62590D01*
X111495D01*
Y62544D01*
X111471D01*
Y62520D01*
X111448D01*
Y62497D01*
X111425D01*
Y62474D01*
X111402D01*
Y62451D01*
X111378D01*
Y62404D01*
X111355D01*
Y62381D01*
X111332D01*
Y62357D01*
X111309D01*
Y62311D01*
X111285D01*
Y62288D01*
X111262D01*
Y62241D01*
X111239D01*
Y62195D01*
X111215D01*
Y62148D01*
X111192D01*
Y62101D01*
X111169D01*
Y62032D01*
X111146D01*
Y61776D01*
X111169D01*
Y61683D01*
X111192D01*
Y61636D01*
X111215D01*
Y61589D01*
X111239D01*
Y61543D01*
X111262D01*
Y61496D01*
X111285D01*
Y61450D01*
X111309D01*
Y61426D01*
X111332D01*
Y61380D01*
X111355D01*
Y61357D01*
X111378D01*
Y61333D01*
X111402D01*
Y61287D01*
X111425D01*
Y61264D01*
X111448D01*
Y61240D01*
X111471D01*
Y61217D01*
X111495D01*
Y61171D01*
X111518D01*
Y61101D01*
X111541D01*
Y61054D01*
X111518D01*
Y60984D01*
X111495D01*
Y60938D01*
X111471D01*
Y60914D01*
X111425D01*
Y60891D01*
X111239D01*
Y60914D01*
X111215D01*
Y60938D01*
X111192D01*
Y60961D01*
X111169D01*
Y60984D01*
X111146D01*
Y61008D01*
X111122D01*
Y61031D01*
X111099D01*
Y61077D01*
X111076D01*
Y61101D01*
X111053D01*
Y61124D01*
X111029D01*
Y61171D01*
X111006D01*
Y61194D01*
X110983D01*
Y61240D01*
X110959D01*
Y61264D01*
X110936D01*
Y61310D01*
X110913D01*
Y61357D01*
X110890D01*
Y61380D01*
X110866D01*
Y61450D01*
X110843D01*
Y61496D01*
X110820D01*
Y61543D01*
X110797D01*
Y61636D01*
X110773D01*
Y61729D01*
X110750D01*
Y62078D01*
X110773D01*
Y62171D01*
X110797D01*
Y62241D01*
X110820D01*
Y62288D01*
X110843D01*
Y62357D01*
X110866D01*
Y62381D01*
X110890D01*
Y62427D01*
X110913D01*
Y62474D01*
X110936D01*
Y62497D01*
X110959D01*
Y62544D01*
X110983D01*
Y62567D01*
X111006D01*
Y62613D01*
X111029D01*
Y62637D01*
X111053D01*
Y62660D01*
X111076D01*
Y62707D01*
X111099D01*
Y62730D01*
X111122D01*
Y62753D01*
X111146D01*
Y62776D01*
X111169D01*
Y62800D01*
X111192D01*
Y62846D01*
X111215D01*
Y62869D01*
X111239D01*
Y62893D01*
X111262D01*
Y62916D01*
X111285D01*
Y62939D01*
X111309D01*
Y62986D01*
X111332D01*
Y63009D01*
X111355D01*
Y63032D01*
X111378D01*
Y63056D01*
X111402D01*
Y63102D01*
X111425D01*
Y63125D01*
X111448D01*
Y63149D01*
X111471D01*
Y63195D01*
X111495D01*
Y63242D01*
X111518D01*
Y63288D01*
X111541D01*
Y63335D01*
X111565D01*
Y63428D01*
X111588D01*
Y63591D01*
X111565D01*
Y63684D01*
X111541D01*
Y63754D01*
X111518D01*
Y63800D01*
X111495D01*
Y63847D01*
X111471D01*
Y63893D01*
X111448D01*
Y63917D01*
X111425D01*
Y63963D01*
X111402D01*
Y63987D01*
X111378D01*
Y64033D01*
X111355D01*
Y64056D01*
X111332D01*
Y64080D01*
X111309D01*
Y64103D01*
X111285D01*
Y64126D01*
X111262D01*
Y64173D01*
X111239D01*
Y64196D01*
X111215D01*
Y64219D01*
X111192D01*
Y64243D01*
X111169D01*
Y64266D01*
X111146D01*
Y64452D01*
X111169D01*
Y64499D01*
X111192D01*
Y64522D01*
X111239D01*
Y64545D01*
X111285D01*
Y64568D01*
X111378D01*
Y64545D01*
D02*
G37*
G36*
X110308D02*
X110354D01*
Y64522D01*
X110378D01*
Y64499D01*
X110401D01*
Y64475D01*
X110424D01*
Y64452D01*
X110447D01*
Y64429D01*
X110471D01*
Y64405D01*
X110494D01*
Y64382D01*
X110517D01*
Y64359D01*
X110541D01*
Y64336D01*
X110564D01*
Y64289D01*
X110587D01*
Y64266D01*
X110610D01*
Y64243D01*
X110634D01*
Y64196D01*
X110657D01*
Y64173D01*
X110680D01*
Y64149D01*
X110703D01*
Y64103D01*
X110727D01*
Y64056D01*
X110750D01*
Y64010D01*
X110773D01*
Y63987D01*
X110797D01*
Y63917D01*
X110820D01*
Y63870D01*
X110843D01*
Y63800D01*
X110866D01*
Y63731D01*
X110890D01*
Y63521D01*
X110913D01*
Y63498D01*
X110890D01*
Y63312D01*
X110866D01*
Y63219D01*
X110843D01*
Y63172D01*
X110820D01*
Y63125D01*
X110797D01*
Y63056D01*
X110773D01*
Y63032D01*
X110750D01*
Y62986D01*
X110727D01*
Y62939D01*
X110703D01*
Y62916D01*
X110680D01*
Y62869D01*
X110657D01*
Y62846D01*
X110634D01*
Y62823D01*
X110610D01*
Y62776D01*
X110587D01*
Y62753D01*
X110564D01*
Y62730D01*
X110541D01*
Y62707D01*
X110517D01*
Y62660D01*
X110494D01*
Y62637D01*
X110471D01*
Y62613D01*
X110447D01*
Y62590D01*
X110424D01*
Y62567D01*
X110401D01*
Y62544D01*
X110378D01*
Y62497D01*
X110354D01*
Y62474D01*
X110331D01*
Y62451D01*
X110308D01*
Y62427D01*
X110285D01*
Y62381D01*
X110261D01*
Y62357D01*
X110238D01*
Y62334D01*
X110215D01*
Y62288D01*
X110191D01*
Y62264D01*
X110168D01*
Y62218D01*
X110145D01*
Y62171D01*
X110122D01*
Y62125D01*
X110098D01*
Y62055D01*
X110075D01*
Y61729D01*
X110098D01*
Y61659D01*
X110122D01*
Y61613D01*
X110145D01*
Y61566D01*
X110168D01*
Y61520D01*
X110191D01*
Y61473D01*
X110215D01*
Y61450D01*
X110238D01*
Y61403D01*
X110261D01*
Y61380D01*
X110285D01*
Y61333D01*
X110308D01*
Y61310D01*
X110331D01*
Y61287D01*
X110354D01*
Y61264D01*
X110378D01*
Y61217D01*
X110401D01*
Y61194D01*
X110424D01*
Y61147D01*
X110447D01*
Y61008D01*
X110424D01*
Y60961D01*
X110401D01*
Y60938D01*
X110378D01*
Y60914D01*
X110354D01*
Y60891D01*
X110261D01*
Y60868D01*
X110238D01*
Y60891D01*
X110168D01*
Y60914D01*
X110122D01*
Y60938D01*
X110098D01*
Y60961D01*
X110075D01*
Y61008D01*
X110052D01*
Y61031D01*
X110029D01*
Y61054D01*
X110005D01*
Y61077D01*
X109982D01*
Y61124D01*
X109959D01*
Y61147D01*
X109935D01*
Y61171D01*
X109912D01*
Y61194D01*
Y61217D01*
X109889D01*
Y61264D01*
X109866D01*
Y61287D01*
X109842D01*
Y61333D01*
X109819D01*
Y61380D01*
X109796D01*
Y61426D01*
X109773D01*
Y61473D01*
X109749D01*
Y61543D01*
X109726D01*
Y61589D01*
X109703D01*
Y61683D01*
X109679D01*
Y61869D01*
X109656D01*
Y61915D01*
X109679D01*
Y62101D01*
X109703D01*
Y62195D01*
X109726D01*
Y62264D01*
X109749D01*
Y62311D01*
X109773D01*
Y62357D01*
X109796D01*
Y62404D01*
X109819D01*
Y62451D01*
X109842D01*
Y62474D01*
X109866D01*
Y62520D01*
X109889D01*
Y62544D01*
X109912D01*
Y62590D01*
X109935D01*
Y62613D01*
X109959D01*
Y62637D01*
X109982D01*
Y62683D01*
X110005D01*
Y62707D01*
X110029D01*
Y62730D01*
X110052D01*
Y62753D01*
X110075D01*
Y62800D01*
X110098D01*
Y62823D01*
X110122D01*
Y62846D01*
X110145D01*
Y62869D01*
X110168D01*
Y62893D01*
X110191D01*
Y62939D01*
X110215D01*
Y62963D01*
X110238D01*
Y62986D01*
X110261D01*
Y63009D01*
X110285D01*
Y63032D01*
X110308D01*
Y63079D01*
X110331D01*
Y63102D01*
X110354D01*
Y63149D01*
X110378D01*
Y63172D01*
X110401D01*
Y63219D01*
X110424D01*
Y63265D01*
X110447D01*
Y63312D01*
X110471D01*
Y63358D01*
X110494D01*
Y63661D01*
X110471D01*
Y63731D01*
X110447D01*
Y63777D01*
X110424D01*
Y63824D01*
X110401D01*
Y63870D01*
X110378D01*
Y63917D01*
X110354D01*
Y63940D01*
X110331D01*
Y63987D01*
X110308D01*
Y64010D01*
X110285D01*
Y64033D01*
X110261D01*
Y64080D01*
X110238D01*
Y64103D01*
X110215D01*
Y64126D01*
X110191D01*
Y64149D01*
X110168D01*
Y64173D01*
X110145D01*
Y64196D01*
X110122D01*
Y64219D01*
X110098D01*
Y64266D01*
X110075D01*
Y64312D01*
X110052D01*
Y64405D01*
X110075D01*
Y64475D01*
X110098D01*
Y64499D01*
X110122D01*
Y64522D01*
X110145D01*
Y64545D01*
X110215D01*
Y64568D01*
X110308D01*
Y64545D01*
D02*
G37*
G36*
X89440Y58598D02*
X89060D01*
Y58852D01*
X89440D01*
Y58598D01*
D02*
G37*
G36*
X84440D02*
X84060D01*
Y58852D01*
X84440D01*
Y58598D01*
D02*
G37*
G36*
X114101Y60682D02*
X114171D01*
Y60658D01*
X114218D01*
Y60635D01*
X114241D01*
Y60612D01*
X114264D01*
Y60589D01*
X114288D01*
Y60565D01*
X114311D01*
Y60519D01*
X114334D01*
Y60449D01*
X114357D01*
Y59890D01*
X114334D01*
Y59797D01*
X114381D01*
Y59821D01*
X114404D01*
Y59844D01*
X114427D01*
Y59867D01*
X114450D01*
Y59890D01*
X114474D01*
Y59914D01*
X114497D01*
Y59937D01*
X114520D01*
Y59960D01*
X114544D01*
Y59984D01*
X114590D01*
Y60007D01*
X114613D01*
Y60030D01*
X114637D01*
Y60053D01*
X114683D01*
Y60077D01*
X114706D01*
Y60100D01*
X114753D01*
Y60123D01*
X114800D01*
Y60146D01*
X114846D01*
Y60170D01*
X114869D01*
Y60193D01*
X114939D01*
Y60216D01*
X114986D01*
Y60240D01*
X115032D01*
Y60263D01*
X115102D01*
Y60286D01*
X115172D01*
Y60309D01*
X115288D01*
Y60333D01*
X115428D01*
Y60356D01*
X115730D01*
Y60333D01*
X115847D01*
Y60309D01*
X115940D01*
Y60286D01*
X116010D01*
Y60263D01*
X116080D01*
Y60240D01*
X116126D01*
Y60216D01*
X116173D01*
Y60193D01*
X116219D01*
Y60170D01*
X116266D01*
Y60146D01*
X116312D01*
Y60123D01*
X116336D01*
Y60100D01*
X116359D01*
Y60077D01*
X116405D01*
Y60053D01*
X116429D01*
Y60030D01*
X116452D01*
Y60007D01*
X116475D01*
Y59984D01*
X116498D01*
Y59960D01*
X116522D01*
Y59937D01*
X116545D01*
Y59914D01*
X116568D01*
Y59890D01*
X116592D01*
Y59867D01*
X116615D01*
Y59844D01*
X116638D01*
Y59821D01*
X116661D01*
Y59774D01*
X116685D01*
Y59751D01*
X116708D01*
Y59704D01*
X116731D01*
Y59681D01*
X116755D01*
Y59634D01*
X116778D01*
Y59588D01*
X116801D01*
Y59541D01*
X116824D01*
Y59495D01*
X116848D01*
Y59448D01*
X116871D01*
Y59402D01*
X116894D01*
Y59332D01*
X116917D01*
Y59262D01*
X116941D01*
Y59192D01*
X116964D01*
Y59076D01*
X116987D01*
Y58960D01*
X117011D01*
Y58750D01*
X117034D01*
Y58448D01*
X117011D01*
Y58238D01*
X116987D01*
Y58098D01*
X116964D01*
Y58005D01*
X116941D01*
Y57912D01*
X116917D01*
Y57842D01*
X116894D01*
Y57773D01*
X116871D01*
Y57703D01*
X116848D01*
Y57633D01*
X116824D01*
Y57586D01*
X116801D01*
Y57540D01*
X116778D01*
Y57470D01*
X116755D01*
Y57424D01*
X116731D01*
Y57377D01*
X116708D01*
Y57354D01*
X116685D01*
Y57307D01*
X116661D01*
Y57261D01*
X116638D01*
Y57214D01*
X116615D01*
Y57191D01*
X116592D01*
Y57144D01*
X116568D01*
Y57121D01*
X116545D01*
Y57098D01*
X116522D01*
Y57051D01*
X116498D01*
Y57028D01*
X116475D01*
Y57005D01*
X116452D01*
Y56958D01*
X116429D01*
Y56935D01*
X116405D01*
Y56911D01*
X116382D01*
Y56888D01*
X116359D01*
Y56865D01*
X116336D01*
Y56842D01*
X116312D01*
Y56818D01*
X116289D01*
Y56795D01*
X116266D01*
Y56772D01*
X116243D01*
Y56749D01*
X116219D01*
Y56725D01*
X116196D01*
Y56702D01*
X116173D01*
Y56679D01*
X116149D01*
Y56655D01*
X116103D01*
Y56632D01*
X116080D01*
Y56609D01*
X116056D01*
Y56586D01*
X116010D01*
Y56562D01*
X115986D01*
Y56539D01*
X115940D01*
Y56516D01*
X115917D01*
Y56493D01*
X115870D01*
Y56469D01*
X115824D01*
Y56446D01*
X115800D01*
Y56423D01*
X115754D01*
Y56399D01*
X115684D01*
Y56376D01*
X115637D01*
Y56353D01*
X115568D01*
Y56330D01*
X115498D01*
Y56306D01*
X115405D01*
Y56283D01*
X115288D01*
Y56260D01*
X114893D01*
Y56283D01*
X114776D01*
Y56306D01*
X114683D01*
Y56330D01*
X114613D01*
Y56353D01*
X114567D01*
Y56376D01*
X114520D01*
Y56399D01*
X114474D01*
Y56423D01*
X114427D01*
Y56446D01*
X114381D01*
Y56469D01*
X114357D01*
Y56493D01*
X114311D01*
Y56516D01*
X114288D01*
Y56539D01*
X114264D01*
Y56562D01*
X114218D01*
Y56586D01*
X114194D01*
Y56609D01*
X114171D01*
Y56632D01*
X114148D01*
Y56655D01*
X114125D01*
Y56679D01*
X114101D01*
Y56702D01*
X114078D01*
Y56725D01*
X114055D01*
Y56749D01*
X114032D01*
Y56795D01*
X114008D01*
Y56818D01*
X113985D01*
Y56842D01*
X113962D01*
Y56888D01*
X113938D01*
Y56911D01*
X113915D01*
Y56958D01*
X113892D01*
Y57005D01*
X113869D01*
Y57028D01*
X113822D01*
Y56958D01*
X113799D01*
Y56911D01*
X113776D01*
Y56865D01*
X113752D01*
Y56818D01*
X113729D01*
Y56772D01*
X113706D01*
Y56725D01*
X113682D01*
Y56679D01*
X113659D01*
Y56632D01*
X113636D01*
Y56586D01*
X113613D01*
Y56539D01*
X113589D01*
Y56516D01*
X113566D01*
Y56469D01*
X113543D01*
Y56423D01*
X113520D01*
Y56376D01*
X113496D01*
Y56353D01*
X113473D01*
Y56306D01*
X113450D01*
Y56283D01*
X113426D01*
Y56237D01*
X113403D01*
Y56213D01*
X113380D01*
Y56167D01*
X113357D01*
Y56143D01*
X113333D01*
Y56097D01*
X113310D01*
Y56074D01*
X113287D01*
Y56027D01*
X113264D01*
Y56004D01*
X113240D01*
Y55981D01*
X113217D01*
Y55957D01*
X114939D01*
Y55934D01*
X115009D01*
Y55911D01*
X115056D01*
Y55887D01*
X115079D01*
Y55864D01*
X115102D01*
Y55841D01*
X115125D01*
Y55794D01*
X115149D01*
Y55748D01*
X115172D01*
Y55562D01*
X115149D01*
Y55515D01*
X115125D01*
Y55469D01*
X115102D01*
Y55445D01*
X115079D01*
Y55422D01*
X115056D01*
Y55399D01*
X115032D01*
Y55375D01*
X115009D01*
Y55352D01*
X114986D01*
Y55329D01*
X114962D01*
Y55306D01*
X114939D01*
Y55282D01*
X114916D01*
Y55259D01*
X114893D01*
Y55236D01*
X114869D01*
Y55213D01*
X114846D01*
Y55189D01*
X114823D01*
Y55166D01*
X114800D01*
Y55143D01*
X114776D01*
Y55119D01*
X114753D01*
Y55096D01*
X114730D01*
Y55050D01*
X114706D01*
Y55026D01*
X114683D01*
Y55003D01*
X114660D01*
Y54980D01*
X114637D01*
Y54957D01*
X114613D01*
Y54933D01*
X114590D01*
Y54910D01*
X114567D01*
Y54887D01*
X114544D01*
Y54863D01*
X114520D01*
Y54840D01*
X114497D01*
Y54817D01*
X114474D01*
Y54794D01*
X114450D01*
Y54770D01*
X114427D01*
Y54747D01*
X114404D01*
Y54724D01*
X114381D01*
Y54701D01*
X114357D01*
Y54677D01*
X114334D01*
Y54654D01*
X114311D01*
Y54631D01*
X114288D01*
Y54607D01*
X114264D01*
Y54584D01*
X114241D01*
Y54561D01*
X114194D01*
Y54538D01*
X114171D01*
Y54514D01*
X114148D01*
Y54491D01*
X114101D01*
Y54468D01*
X114078D01*
Y54445D01*
X114055D01*
Y54421D01*
X114008D01*
Y54398D01*
X113985D01*
Y54375D01*
X113938D01*
Y54351D01*
X113892D01*
Y54328D01*
X113845D01*
Y54305D01*
X113822D01*
Y54282D01*
X113776D01*
Y54258D01*
X113729D01*
Y54235D01*
X113682D01*
Y54212D01*
X113613D01*
Y54189D01*
X113566D01*
Y54165D01*
X113496D01*
Y54142D01*
X113450D01*
Y54119D01*
X113380D01*
Y54095D01*
X113310D01*
Y54072D01*
X113240D01*
Y54049D01*
X113147D01*
Y54026D01*
X113077D01*
Y54002D01*
X112984D01*
Y53979D01*
X112891D01*
Y53956D01*
X112798D01*
Y53933D01*
X112682D01*
Y53909D01*
X112565D01*
Y53886D01*
X112426D01*
Y53863D01*
X112309D01*
Y53839D01*
X112146D01*
Y53816D01*
X108074D01*
Y53839D01*
X107887D01*
Y53863D01*
X107748D01*
Y53886D01*
X107608D01*
Y53909D01*
X107468D01*
Y53933D01*
X107352D01*
Y53956D01*
X107259D01*
Y53979D01*
X107166D01*
Y54002D01*
X107073D01*
Y54026D01*
X106980D01*
Y54049D01*
X106910D01*
Y54072D01*
X106840D01*
Y54095D01*
X106770D01*
Y54119D01*
X106700D01*
Y54142D01*
X106654D01*
Y54165D01*
X106584D01*
Y54189D01*
X106538D01*
Y54212D01*
X106491D01*
Y54235D01*
X106444D01*
Y54258D01*
X106398D01*
Y54282D01*
X106351D01*
Y54305D01*
X106328D01*
Y54328D01*
X106282D01*
Y54351D01*
X106235D01*
Y54375D01*
X106212D01*
Y54398D01*
X106165D01*
Y54421D01*
X106142D01*
Y54445D01*
X106119D01*
Y54468D01*
X106072D01*
Y54491D01*
X106049D01*
Y54514D01*
X106026D01*
Y54538D01*
X106002D01*
Y54561D01*
X105956D01*
Y54584D01*
X105932D01*
Y54607D01*
X105909D01*
Y54631D01*
X105886D01*
Y54654D01*
X105863D01*
Y54677D01*
X105839D01*
Y54701D01*
X105816D01*
Y54724D01*
X105793D01*
Y54747D01*
X105770D01*
Y54770D01*
X105746D01*
Y54794D01*
X105723D01*
Y54817D01*
X105700D01*
Y54840D01*
X105676D01*
Y54887D01*
X105653D01*
Y54910D01*
X105630D01*
Y54933D01*
X105607D01*
Y54957D01*
X105583D01*
Y54980D01*
X105560D01*
Y55003D01*
X105537D01*
Y55026D01*
X105514D01*
Y55050D01*
X105490D01*
Y55096D01*
X105467D01*
Y55119D01*
X105444D01*
Y55143D01*
X105420D01*
Y55166D01*
X105397D01*
Y55189D01*
X105374D01*
Y55213D01*
X105351D01*
Y55236D01*
X105327D01*
Y55282D01*
X105304D01*
Y55306D01*
X105281D01*
Y55329D01*
X105258D01*
Y55352D01*
X105234D01*
Y55375D01*
X105211D01*
Y55399D01*
X105188D01*
Y55422D01*
X105164D01*
Y55445D01*
X105141D01*
Y55469D01*
X105118D01*
Y55492D01*
X105095D01*
Y55562D01*
X105071D01*
Y55771D01*
X105095D01*
Y55818D01*
X105118D01*
Y55841D01*
X105141D01*
Y55864D01*
X105164D01*
Y55887D01*
X105188D01*
Y55911D01*
X105234D01*
Y55934D01*
X105304D01*
Y55957D01*
X106980D01*
Y55981D01*
X106956D01*
Y56004D01*
X106933D01*
Y56027D01*
X106910D01*
Y56074D01*
X106887D01*
Y56097D01*
X106863D01*
Y56143D01*
X106840D01*
Y56167D01*
X106817D01*
Y56213D01*
X106794D01*
Y56260D01*
X106770D01*
Y56283D01*
X106747D01*
Y56330D01*
X106724D01*
Y56353D01*
X106700D01*
Y56399D01*
X106677D01*
Y56446D01*
X106654D01*
Y56493D01*
X106631D01*
Y56539D01*
X106607D01*
Y56562D01*
X106584D01*
Y56609D01*
X106561D01*
Y56655D01*
X106538D01*
Y56702D01*
X106514D01*
Y56749D01*
X106491D01*
Y56795D01*
X106468D01*
Y56865D01*
X106444D01*
Y56911D01*
X106421D01*
Y56958D01*
X106398D01*
Y57028D01*
X106375D01*
Y57074D01*
X106351D01*
Y57144D01*
X106328D01*
Y57191D01*
X106305D01*
Y57261D01*
X106282D01*
Y57330D01*
X106258D01*
Y57400D01*
X106235D01*
Y57470D01*
X106212D01*
Y57540D01*
X106188D01*
Y57610D01*
X106165D01*
Y57703D01*
X106142D01*
Y57796D01*
X106119D01*
Y57866D01*
X106095D01*
Y57982D01*
X106072D01*
Y58075D01*
X106049D01*
Y58192D01*
X106026D01*
Y58308D01*
X106002D01*
Y58448D01*
X105979D01*
Y58587D01*
X105956D01*
Y58750D01*
X105932D01*
Y58983D01*
X105909D01*
Y59216D01*
X105886D01*
Y59565D01*
X105863D01*
Y60519D01*
X105886D01*
Y60565D01*
X105909D01*
Y60589D01*
X105932D01*
Y60612D01*
X105956D01*
Y60635D01*
X105979D01*
Y60658D01*
X106026D01*
Y60682D01*
X106095D01*
Y60705D01*
X114101D01*
Y60682D01*
D02*
G37*
G36*
X92852Y51560D02*
X92598D01*
Y51940D01*
X92852D01*
Y51560D01*
D02*
G37*
G36*
X79402Y51060D02*
X79148D01*
Y51440D01*
X79402D01*
Y51060D01*
D02*
G37*
G36*
X88940Y45148D02*
X88560D01*
Y45402D01*
X88940D01*
Y45148D01*
D02*
G37*
G36*
X83940D02*
X83560D01*
Y45402D01*
X83940D01*
Y45148D01*
D02*
G37*
%LPC*%
G36*
X115730Y59751D02*
X115405D01*
Y59728D01*
X115312D01*
Y59704D01*
X115242D01*
Y59681D01*
X115195D01*
Y59658D01*
X115149D01*
Y59634D01*
X115102D01*
Y59611D01*
X115056D01*
Y59588D01*
X115009D01*
Y59565D01*
X114986D01*
Y59541D01*
X114962D01*
Y59518D01*
X114916D01*
Y59495D01*
X114893D01*
Y59472D01*
X114869D01*
Y59448D01*
X114846D01*
Y59425D01*
X114823D01*
Y59402D01*
X114800D01*
Y59378D01*
X114776D01*
Y59355D01*
X114753D01*
Y59332D01*
X114730D01*
Y59309D01*
X114706D01*
Y59285D01*
X114683D01*
Y59262D01*
X114660D01*
Y59239D01*
X114637D01*
Y59192D01*
X114613D01*
Y59169D01*
X114590D01*
Y59146D01*
X114567D01*
Y59099D01*
X114544D01*
Y59053D01*
X114520D01*
Y59029D01*
X114497D01*
Y58983D01*
X114474D01*
Y58936D01*
X114450D01*
Y58890D01*
X114427D01*
Y58843D01*
X114404D01*
Y58797D01*
X114381D01*
Y58727D01*
X114357D01*
Y58680D01*
X114334D01*
Y58610D01*
X114311D01*
Y58541D01*
X114288D01*
Y58424D01*
X114264D01*
Y58331D01*
X114241D01*
Y58122D01*
X114218D01*
Y57889D01*
X114241D01*
Y57703D01*
X114264D01*
Y57586D01*
X114288D01*
Y57517D01*
X114311D01*
Y57447D01*
X114334D01*
Y57400D01*
X114357D01*
Y57330D01*
X114381D01*
Y57307D01*
X114404D01*
Y57261D01*
X114427D01*
Y57214D01*
X114450D01*
Y57191D01*
X114474D01*
Y57144D01*
X114497D01*
Y57121D01*
X114520D01*
Y57098D01*
X114544D01*
Y57074D01*
X114567D01*
Y57051D01*
X114590D01*
Y57028D01*
X114613D01*
Y57005D01*
X114660D01*
Y56981D01*
X114683D01*
Y56958D01*
X114730D01*
Y56935D01*
X114776D01*
Y56911D01*
X114823D01*
Y56888D01*
X114893D01*
Y56865D01*
X115032D01*
Y56842D01*
X115149D01*
Y56865D01*
X115288D01*
Y56888D01*
X115358D01*
Y56911D01*
X115428D01*
Y56935D01*
X115474D01*
Y56958D01*
X115521D01*
Y56981D01*
X115568D01*
Y57005D01*
X115614D01*
Y57028D01*
X115637D01*
Y57051D01*
X115684D01*
Y57074D01*
X115707D01*
Y57098D01*
X115754D01*
Y57121D01*
X115777D01*
Y57144D01*
X115800D01*
Y57167D01*
X115824D01*
Y57191D01*
X115847D01*
Y57214D01*
X115870D01*
Y57237D01*
X115893D01*
Y57261D01*
X115917D01*
Y57284D01*
X115940D01*
Y57307D01*
X115963D01*
Y57330D01*
X115986D01*
Y57354D01*
X116010D01*
Y57400D01*
X116033D01*
Y57424D01*
X116056D01*
Y57447D01*
X116080D01*
Y57493D01*
X116103D01*
Y57517D01*
X116126D01*
Y57563D01*
X116149D01*
Y57610D01*
X116173D01*
Y57656D01*
X116196D01*
Y57680D01*
X116219D01*
Y57726D01*
X116243D01*
Y57796D01*
X116266D01*
Y57842D01*
X116289D01*
Y57889D01*
X116312D01*
Y57959D01*
X116336D01*
Y58029D01*
X116359D01*
Y58122D01*
X116382D01*
Y58215D01*
X116405D01*
Y58354D01*
X116429D01*
Y58843D01*
X116405D01*
Y58983D01*
X116382D01*
Y59053D01*
X116359D01*
Y59122D01*
X116336D01*
Y59192D01*
X116312D01*
Y59239D01*
X116289D01*
Y59285D01*
X116266D01*
Y59332D01*
X116243D01*
Y59378D01*
X116219D01*
Y59402D01*
X116196D01*
Y59448D01*
X116173D01*
Y59472D01*
X116149D01*
Y59495D01*
X116126D01*
Y59518D01*
X116103D01*
Y59541D01*
X116080D01*
Y59565D01*
X116056D01*
Y59588D01*
X116033D01*
Y59611D01*
X115986D01*
Y59634D01*
X115963D01*
Y59658D01*
X115917D01*
Y59681D01*
X115870D01*
Y59704D01*
X115824D01*
Y59728D01*
X115730D01*
Y59751D01*
D02*
G37*
G36*
X113752Y60100D02*
X106444D01*
Y59867D01*
X106468D01*
Y59378D01*
X106491D01*
Y59099D01*
X106514D01*
Y58890D01*
X106538D01*
Y58704D01*
X106561D01*
Y58564D01*
X106584D01*
Y58424D01*
X106607D01*
Y58308D01*
X106631D01*
Y58192D01*
X106654D01*
Y58098D01*
X106677D01*
Y58005D01*
X106700D01*
Y57912D01*
X106724D01*
Y57819D01*
X106747D01*
Y57749D01*
X106770D01*
Y57656D01*
X106794D01*
Y57586D01*
X106817D01*
Y57517D01*
X106840D01*
Y57470D01*
X106863D01*
Y57400D01*
X106887D01*
Y57330D01*
X106910D01*
Y57284D01*
X106933D01*
Y57214D01*
X106956D01*
Y57167D01*
X106980D01*
Y57121D01*
X107003D01*
Y57051D01*
X107026D01*
Y57005D01*
X107050D01*
Y56958D01*
X107073D01*
Y56911D01*
X107096D01*
Y56865D01*
X107119D01*
Y56842D01*
X107143D01*
Y56795D01*
X107166D01*
Y56749D01*
X107189D01*
Y56702D01*
X107212D01*
Y56655D01*
X107236D01*
Y56632D01*
X107259D01*
Y56586D01*
X107282D01*
Y56539D01*
X107306D01*
Y56516D01*
X107329D01*
Y56469D01*
X107352D01*
Y56446D01*
X107375D01*
Y56399D01*
X107399D01*
Y56376D01*
X107422D01*
Y56353D01*
X107445D01*
Y56306D01*
X107468D01*
Y56283D01*
X107492D01*
Y56237D01*
X107515D01*
Y56213D01*
X107538D01*
Y56190D01*
X107562D01*
Y56167D01*
X107585D01*
Y56120D01*
X107608D01*
Y56097D01*
X107631D01*
Y56074D01*
X107655D01*
Y56050D01*
X107678D01*
Y56004D01*
X107701D01*
Y55981D01*
X107724D01*
Y55957D01*
X112449D01*
Y55981D01*
X112472D01*
Y56004D01*
X112495D01*
Y56027D01*
X112519D01*
Y56050D01*
X112542D01*
Y56074D01*
X112565D01*
Y56097D01*
X112589D01*
Y56143D01*
X112612D01*
Y56167D01*
X112635D01*
Y56190D01*
X112658D01*
Y56213D01*
X112682D01*
Y56260D01*
X112705D01*
Y56283D01*
X112728D01*
Y56306D01*
X112752D01*
Y56353D01*
X112775D01*
Y56376D01*
X112798D01*
Y56399D01*
X112821D01*
Y56446D01*
X112845D01*
Y56469D01*
X112868D01*
Y56516D01*
X112891D01*
Y56539D01*
X112914D01*
Y56586D01*
X112938D01*
Y56609D01*
X112961D01*
Y56655D01*
X112984D01*
Y56679D01*
X113008D01*
Y56725D01*
X113031D01*
Y56772D01*
X113054D01*
Y56818D01*
X113077D01*
Y56842D01*
X113101D01*
Y56888D01*
X113124D01*
Y56935D01*
X113147D01*
Y56981D01*
X113170D01*
Y57028D01*
X113194D01*
Y57074D01*
X113217D01*
Y57121D01*
X113240D01*
Y57167D01*
X113264D01*
Y57214D01*
X113287D01*
Y57284D01*
X113310D01*
Y57330D01*
X113333D01*
Y57400D01*
X113357D01*
Y57447D01*
X113380D01*
Y57517D01*
X113403D01*
Y57586D01*
X113426D01*
Y57656D01*
X113450D01*
Y57726D01*
X113473D01*
Y57819D01*
X113496D01*
Y57889D01*
X113520D01*
Y57982D01*
X113543D01*
Y58075D01*
X113566D01*
Y58192D01*
X113589D01*
Y58285D01*
X113613D01*
Y58424D01*
X113636D01*
Y58564D01*
X113659D01*
Y58727D01*
X113682D01*
Y58936D01*
X113706D01*
Y59169D01*
X113729D01*
Y59541D01*
X113752D01*
Y60100D01*
D02*
G37*
G36*
X114171Y55352D02*
X106049D01*
Y55329D01*
X106072D01*
Y55306D01*
X106095D01*
Y55282D01*
X106119D01*
Y55236D01*
X106142D01*
Y55213D01*
X106165D01*
Y55189D01*
X106188D01*
Y55166D01*
X106212D01*
Y55143D01*
X106235D01*
Y55119D01*
X106258D01*
Y55096D01*
X106282D01*
Y55073D01*
X106305D01*
Y55050D01*
X106328D01*
Y55026D01*
X106351D01*
Y55003D01*
X106398D01*
Y54980D01*
X106421D01*
Y54957D01*
X106444D01*
Y54933D01*
X106468D01*
Y54910D01*
X106514D01*
Y54887D01*
X106538D01*
Y54863D01*
X106584D01*
Y54840D01*
X106631D01*
Y54817D01*
X106654D01*
Y54794D01*
X106700D01*
Y54770D01*
X106747D01*
Y54747D01*
X106794D01*
Y54724D01*
X106863D01*
Y54701D01*
X106910D01*
Y54677D01*
X106980D01*
Y54654D01*
X107050D01*
Y54631D01*
X107119D01*
Y54607D01*
X107189D01*
Y54584D01*
X107282D01*
Y54561D01*
X107375D01*
Y54538D01*
X107492D01*
Y54514D01*
X107585D01*
Y54491D01*
X107724D01*
Y54468D01*
X107864D01*
Y54445D01*
X108027D01*
Y54421D01*
X108190D01*
Y54398D01*
X112030D01*
Y54421D01*
X112170D01*
Y54445D01*
X112309D01*
Y54468D01*
X112449D01*
Y54491D01*
X112565D01*
Y54514D01*
X112658D01*
Y54538D01*
X112775D01*
Y54561D01*
X112868D01*
Y54584D01*
X112938D01*
Y54607D01*
X113031D01*
Y54631D01*
X113101D01*
Y54654D01*
X113170D01*
Y54677D01*
X113240D01*
Y54701D01*
X113310D01*
Y54724D01*
X113357D01*
Y54747D01*
X113403D01*
Y54770D01*
X113473D01*
Y54794D01*
X113520D01*
Y54817D01*
X113566D01*
Y54840D01*
X113589D01*
Y54863D01*
X113636D01*
Y54887D01*
X113682D01*
Y54910D01*
X113706D01*
Y54933D01*
X113752D01*
Y54957D01*
X113776D01*
Y54980D01*
X113799D01*
Y55003D01*
X113822D01*
Y55026D01*
X113869D01*
Y55050D01*
X113892D01*
Y55073D01*
X113915D01*
Y55096D01*
X113938D01*
Y55119D01*
X113962D01*
Y55143D01*
X113985D01*
Y55166D01*
X114008D01*
Y55189D01*
X114032D01*
Y55213D01*
X114055D01*
Y55236D01*
X114078D01*
Y55259D01*
X114101D01*
Y55282D01*
X114125D01*
Y55306D01*
X114148D01*
Y55329D01*
X114171D01*
Y55352D01*
D02*
G37*
%LPD*%
D112*
X27350Y133910D02*
G03*
X27350Y133910I-100J0D01*
G01*
X22960Y142180D02*
G03*
X22960Y142180I-100J0D01*
G01*
X94620Y196100D02*
G03*
X94420Y196100I-100J0D01*
G01*
D02*
G03*
X94620Y196100I100J0D01*
G01*
X42400Y122540D02*
G03*
X42400Y122540I-100J0D01*
G01*
X54680Y126670D02*
G03*
X54680Y126670I-100J0D01*
G01*
X24400Y149720D02*
G03*
X24400Y149720I-100J0D01*
G01*
Y157340D02*
G03*
X24400Y157340I-100J0D01*
G01*
X169100Y187500D02*
G03*
X169100Y187500I-100J0D01*
G01*
X12100Y121000D02*
G03*
X12100Y121000I-100J0D01*
G01*
X32500Y174680D02*
G03*
X32500Y174680I-100J0D01*
G01*
X54830Y177000D02*
G03*
X54830Y177000I-100J0D01*
G01*
X11800Y143480D02*
X11550Y143230D01*
Y142730D01*
X11800Y142480D01*
X12800D01*
X13050Y142730D01*
Y143230D01*
X12800Y143480D01*
X12300D01*
Y142980D01*
X13050Y143980D02*
X11550D01*
X13050Y144979D01*
X11550D01*
Y145479D02*
X13050D01*
Y146229D01*
X12800Y146479D01*
X11800D01*
X11550Y146229D01*
Y145479D01*
X64096Y141872D02*
Y142972D01*
X64829Y141872D01*
Y142972D01*
X65929Y142788D02*
X65745Y142972D01*
X65379D01*
X65196Y142788D01*
Y142605D01*
X65379Y142422D01*
X65745D01*
X65929Y142239D01*
Y142055D01*
X65745Y141872D01*
X65379D01*
X65196Y142055D01*
X67028Y142788D02*
X66845Y142972D01*
X66479D01*
X66295Y142788D01*
Y142605D01*
X66479Y142422D01*
X66845D01*
X67028Y142239D01*
Y142055D01*
X66845Y141872D01*
X66479D01*
X66295Y142055D01*
X59016Y141872D02*
Y142972D01*
X59383Y142605D01*
X59749Y142972D01*
Y141872D01*
X60665Y142972D02*
X60299D01*
X60116Y142788D01*
Y142055D01*
X60299Y141872D01*
X60665D01*
X60849Y142055D01*
Y142788D01*
X60665Y142972D01*
X61948Y142788D02*
X61765Y142972D01*
X61399D01*
X61215Y142788D01*
Y142605D01*
X61399Y142422D01*
X61765D01*
X61948Y142239D01*
Y142055D01*
X61765Y141872D01*
X61399D01*
X61215Y142055D01*
X62315Y142972D02*
X62681D01*
X62498D01*
Y141872D01*
X62315D01*
X62681D01*
X53450D02*
Y142972D01*
X53817Y142605D01*
X54183Y142972D01*
Y141872D01*
X54550Y142972D02*
X54916D01*
X54733D01*
Y141872D01*
X54550D01*
X54916D01*
X56199Y142788D02*
X56016Y142972D01*
X55649D01*
X55466Y142788D01*
Y142605D01*
X55649Y142422D01*
X56016D01*
X56199Y142239D01*
Y142055D01*
X56016Y141872D01*
X55649D01*
X55466Y142055D01*
X57115Y142972D02*
X56749D01*
X56566Y142788D01*
Y142055D01*
X56749Y141872D01*
X57115D01*
X57299Y142055D01*
Y142788D01*
X57115Y142972D01*
X48802Y142788D02*
X48619Y142972D01*
X48252D01*
X48069Y142788D01*
Y142605D01*
X48252Y142422D01*
X48619D01*
X48802Y142239D01*
Y142055D01*
X48619Y141872D01*
X48252D01*
X48069Y142055D01*
X49902Y142788D02*
X49719Y142972D01*
X49352D01*
X49169Y142788D01*
Y142055D01*
X49352Y141872D01*
X49719D01*
X49902Y142055D01*
X50268Y142972D02*
Y141872D01*
X51002D01*
X51368Y142972D02*
Y141872D01*
Y142239D01*
X52101Y142972D01*
X51551Y142422D01*
X52101Y141872D01*
X45058Y194063D02*
X45791D01*
X45424D01*
Y192964D01*
X46157Y194063D02*
X46890Y192964D01*
Y194063D02*
X46157Y192964D01*
X47257Y194063D02*
Y192964D01*
X47807D01*
X47990Y193147D01*
Y193880D01*
X47807Y194063D01*
X47257D01*
X39200Y193180D02*
Y194280D01*
X39750D01*
X39933Y194096D01*
Y193730D01*
X39750Y193547D01*
X39200D01*
X39567D02*
X39933Y193180D01*
X40300Y194280D02*
X41033D01*
X40666D01*
Y193180D01*
X42132Y194096D02*
X41949Y194280D01*
X41583D01*
X41399Y194096D01*
Y193913D01*
X41583Y193730D01*
X41949D01*
X42132Y193547D01*
Y193363D01*
X41949Y193180D01*
X41583D01*
X41399Y193363D01*
X42682Y193180D02*
Y194280D01*
X43049D02*
Y193180D01*
X42499Y193913D02*
X43049D01*
X43232D01*
X42499Y193547D02*
X43232D01*
X34360Y193180D02*
Y194280D01*
X34910D01*
X35093Y194096D01*
Y193730D01*
X34910Y193547D01*
X34360D01*
X34727D02*
X35093Y193180D01*
X35460Y194280D02*
X36193Y193180D01*
Y194280D02*
X35460Y193180D01*
X36559Y194280D02*
Y193180D01*
X37109D01*
X37292Y193363D01*
Y194096D01*
X37109Y194280D01*
X36559D01*
X29933Y194223D02*
X29750Y194406D01*
X29383D01*
X29200Y194223D01*
Y193490D01*
X29383Y193307D01*
X29750D01*
X29933Y193490D01*
X30300Y194406D02*
X31033D01*
X30666D01*
Y193307D01*
X32132Y194223D02*
X31949Y194406D01*
X31583D01*
X31399Y194223D01*
Y194040D01*
X31583Y193857D01*
X31949D01*
X32132Y193673D01*
Y193490D01*
X31949Y193307D01*
X31583D01*
X31399Y193490D01*
X32682Y193307D02*
Y194406D01*
X33049D02*
Y193307D01*
X32499Y194040D02*
X33049D01*
X33232D01*
X32499Y193673D02*
X33232D01*
X175343Y128410D02*
Y128777D01*
Y128593D01*
X174244D01*
X174427Y128410D01*
Y129326D02*
X174244Y129510D01*
Y129876D01*
X174427Y130059D01*
X174610D01*
X174794Y129876D01*
X174977Y130059D01*
X175160D01*
X175343Y129876D01*
Y129510D01*
X175160Y129326D01*
X174977D01*
X174794Y129510D01*
X174610Y129326D01*
X174427D01*
X174794Y129510D02*
Y129876D01*
X175343Y130426D02*
Y130793D01*
Y130609D01*
X174244D01*
X174427Y130426D01*
X174244Y132075D02*
Y131342D01*
X174794D01*
X174610Y131709D01*
Y131892D01*
X174794Y132075D01*
X175160D01*
X175343Y131892D01*
Y131526D01*
X175160Y131342D01*
X174427Y133175D02*
X174244Y132992D01*
Y132625D01*
X174427Y132442D01*
X175160D01*
X175343Y132625D01*
Y132992D01*
X175160Y133175D01*
X175527Y133542D02*
Y134275D01*
X174427Y135374D02*
X174244Y135191D01*
Y134825D01*
X174427Y134641D01*
X175160D01*
X175343Y134825D01*
Y135191D01*
X175160Y135374D01*
X174794D01*
Y135008D01*
X175343Y136291D02*
Y135924D01*
X175160Y135741D01*
X174794D01*
X174610Y135924D01*
Y136291D01*
X174794Y136474D01*
X174977D01*
Y135741D01*
X175343Y136841D02*
X174610D01*
Y137390D01*
X174794Y137574D01*
X175343D01*
Y138490D02*
Y138124D01*
X175160Y137940D01*
X174794D01*
X174610Y138124D01*
Y138490D01*
X174794Y138673D01*
X174977D01*
Y137940D01*
X174610Y139040D02*
X175343D01*
X174977D01*
X174794Y139223D01*
X174610Y139406D01*
Y139590D01*
Y140323D02*
Y140689D01*
X174794Y140873D01*
X175343D01*
Y140323D01*
X175160Y140140D01*
X174977Y140323D01*
Y140873D01*
X174427Y141422D02*
X174610D01*
Y141239D01*
Y141606D01*
Y141422D01*
X175160D01*
X175343Y141606D01*
Y142705D02*
Y142339D01*
X175160Y142156D01*
X174794D01*
X174610Y142339D01*
Y142705D01*
X174794Y142889D01*
X174977D01*
Y142156D01*
X174610Y143255D02*
X175160D01*
X175343Y143438D01*
Y143988D01*
X174610D01*
Y144355D02*
X175343D01*
X174977D01*
X174794Y144538D01*
X174610Y144721D01*
Y144905D01*
X174427Y146188D02*
X174244Y146004D01*
Y145638D01*
X174427Y145454D01*
X174610D01*
X174794Y145638D01*
Y146004D01*
X174977Y146188D01*
X175160D01*
X175343Y146004D01*
Y145638D01*
X175160Y145454D01*
X175343Y146554D02*
Y146921D01*
Y146737D01*
X174610D01*
Y146554D01*
X175710Y147837D02*
Y148020D01*
X175527Y148204D01*
X174610D01*
Y147654D01*
X174794Y147471D01*
X175160D01*
X175343Y147654D01*
Y148204D01*
Y148570D02*
X174610D01*
Y149120D01*
X174794Y149303D01*
X175343D01*
X174610Y149853D02*
Y150220D01*
X174794Y150403D01*
X175343D01*
Y149853D01*
X175160Y149670D01*
X174977Y149853D01*
Y150403D01*
X174610Y150769D02*
X175160D01*
X175343Y150953D01*
Y151503D01*
X174610D01*
Y151869D02*
X175343Y152602D01*
X174977Y152236D01*
X174610Y152602D01*
X175343Y151869D01*
X174244Y152969D02*
X175343D01*
Y153702D01*
Y154252D02*
Y154618D01*
X175160Y154801D01*
X174794D01*
X174610Y154618D01*
Y154252D01*
X174794Y154068D01*
X175160D01*
X175343Y154252D01*
X175710Y155535D02*
Y155718D01*
X175527Y155901D01*
X174610D01*
Y155351D01*
X174794Y155168D01*
X175160D01*
X175343Y155351D01*
Y155901D01*
Y156268D02*
X174244D01*
Y156817D01*
X174427Y157001D01*
X174794D01*
X174977Y156817D01*
Y156268D01*
X174610Y157367D02*
X175343D01*
X174977D01*
X174794Y157551D01*
X174610Y157734D01*
Y157917D01*
X175343Y158650D02*
Y159017D01*
X175160Y159200D01*
X174794D01*
X174610Y159017D01*
Y158650D01*
X174794Y158467D01*
X175160D01*
X175343Y158650D01*
X175710Y159933D02*
Y160116D01*
X175527Y160300D01*
X174610D01*
Y159750D01*
X174794Y159567D01*
X175160D01*
X175343Y159750D01*
Y160300D01*
X175527Y160666D02*
Y161399D01*
X175343Y161766D02*
X174244D01*
X174610Y162132D01*
X174244Y162499D01*
X175343D01*
X174244Y162866D02*
X175343D01*
Y163599D01*
X174244Y163965D02*
Y164332D01*
Y164148D01*
X175343D01*
Y163965D01*
Y164332D01*
X12985Y149920D02*
Y150420D01*
Y150170D01*
X11485D01*
X11735Y149920D01*
X11485Y151170D02*
X12485D01*
X12985Y151669D01*
X12485Y152169D01*
X11485D01*
X11735Y152669D02*
X11485Y152919D01*
Y153419D01*
X11735Y153669D01*
X11985D01*
X12235Y153419D01*
X12485Y153669D01*
X12735D01*
X12985Y153419D01*
Y152919D01*
X12735Y152669D01*
X12485D01*
X12235Y152919D01*
X11985Y152669D01*
X11735D01*
X12235Y152919D02*
Y153419D01*
X11487Y157540D02*
X11237Y157790D01*
Y158290D01*
X11487Y158540D01*
X11737D01*
X11987Y158290D01*
Y158040D01*
Y158290D01*
X12237Y158540D01*
X12487D01*
X12737Y158290D01*
Y157790D01*
X12487Y157540D01*
X11237Y159040D02*
X12237D01*
X12737Y159539D01*
X12237Y160039D01*
X11237D01*
X11487Y160539D02*
X11237Y160789D01*
Y161289D01*
X11487Y161539D01*
X11737D01*
X11987Y161289D01*
Y161039D01*
Y161289D01*
X12237Y161539D01*
X12487D01*
X12737Y161289D01*
Y160789D01*
X12487Y160539D01*
X11142Y164266D02*
Y163267D01*
X11892D01*
X11642Y163766D01*
Y164016D01*
X11892Y164266D01*
X12392D01*
X12642Y164016D01*
Y163517D01*
X12392Y163267D01*
X11142Y164766D02*
X12142D01*
X12642Y165266D01*
X12142Y165766D01*
X11142D01*
X31428Y113451D02*
X31245Y113635D01*
X30878D01*
X30695Y113451D01*
Y112718D01*
X30878Y112535D01*
X31245D01*
X31428Y112718D01*
X31795Y112535D02*
Y113635D01*
X32344D01*
X32528Y113451D01*
Y113085D01*
X32344Y112902D01*
X31795D01*
X32894Y113635D02*
Y112535D01*
X33627D01*
X33994Y113635D02*
Y112535D01*
X34544D01*
X34727Y112718D01*
Y113451D01*
X34544Y113635D01*
X33994D01*
X36926Y113268D02*
X36376D01*
X36193Y113085D01*
Y112718D01*
X36376Y112535D01*
X36926D01*
X37476D02*
X37843D01*
X38026Y112718D01*
Y113085D01*
X37843Y113268D01*
X37476D01*
X37293Y113085D01*
Y112718D01*
X37476Y112535D01*
X38393D02*
Y113268D01*
X38942D01*
X39126Y113085D01*
Y112535D01*
X39492D02*
Y113268D01*
X40042D01*
X40225Y113085D01*
Y112535D01*
X40592D02*
Y112718D01*
X40775D01*
Y112535D01*
X40592D01*
X91118Y102021D02*
X90935Y102205D01*
X90568D01*
X90385Y102021D01*
Y101288D01*
X90568Y101105D01*
X90935D01*
X91118Y101288D01*
Y101655D01*
X90752D01*
X91485Y101105D02*
Y102205D01*
X92218Y101105D01*
Y102205D01*
X92584D02*
Y101105D01*
X93134D01*
X93317Y101288D01*
Y102021D01*
X93134Y102205D01*
X92584D01*
X75167Y152767D02*
X74984Y152950D01*
X74617D01*
X74434Y152767D01*
Y152033D01*
X74617Y151850D01*
X74984D01*
X75167Y152033D01*
X76267Y151850D02*
X75533D01*
X76267Y152583D01*
Y152767D01*
X76083Y152950D01*
X75717D01*
X75533Y152767D01*
X76633D02*
X76816Y152950D01*
X77183D01*
X77366Y152767D01*
Y152583D01*
X77183Y152400D01*
X77000D01*
X77183D01*
X77366Y152217D01*
Y152033D01*
X77183Y151850D01*
X76816D01*
X76633Y152033D01*
X14762Y190379D02*
X14396D01*
X14579D01*
Y189462D01*
X14396Y189279D01*
X14212D01*
X14029Y189462D01*
X15129Y189279D02*
X15495D01*
X15312D01*
Y190379D01*
X15129Y190195D01*
X42462Y125585D02*
Y125402D01*
X42828Y125035D01*
X43195Y125402D01*
Y125585D01*
X42828Y125035D02*
Y124485D01*
X43562D02*
X43928D01*
X43745D01*
Y125585D01*
X43562Y125402D01*
X24184Y137550D02*
Y136633D01*
X24367Y136450D01*
X24733D01*
X24917Y136633D01*
Y137550D01*
X25833Y136450D02*
Y137550D01*
X25283Y137000D01*
X26016D01*
X55084Y131128D02*
Y130212D01*
X55267Y130029D01*
X55633D01*
X55817Y130212D01*
Y131128D01*
X56916D02*
X56550Y130945D01*
X56183Y130579D01*
Y130212D01*
X56367Y130029D01*
X56733D01*
X56916Y130212D01*
Y130395D01*
X56733Y130579D01*
X56183D01*
X45684Y168050D02*
Y167133D01*
X45867Y166950D01*
X46233D01*
X46417Y167133D01*
Y168050D01*
X47516D02*
X46783D01*
Y167500D01*
X47150Y167683D01*
X47333D01*
X47516Y167500D01*
Y167133D01*
X47333Y166950D01*
X46967D01*
X46783Y167133D01*
X124370Y127490D02*
Y126573D01*
X124554Y126390D01*
X124920D01*
X125104Y126573D01*
Y127490D01*
X125470Y126390D02*
X125837D01*
X125653D01*
Y127490D01*
X125470Y127307D01*
X126386D02*
X126570Y127490D01*
X126936D01*
X127120Y127307D01*
Y126573D01*
X126936Y126390D01*
X126570D01*
X126386Y126573D01*
Y127307D01*
X69584Y162415D02*
Y161498D01*
X69767Y161315D01*
X70133D01*
X70317Y161498D01*
Y162415D01*
X70683D02*
X71416D01*
Y162232D01*
X70683Y161498D01*
Y161315D01*
X73170Y163150D02*
Y162233D01*
X73353Y162050D01*
X73720D01*
X73903Y162233D01*
Y163150D01*
X74270Y162967D02*
X74453Y163150D01*
X74820D01*
X75003Y162967D01*
Y162783D01*
X74820Y162600D01*
X75003Y162417D01*
Y162233D01*
X74820Y162050D01*
X74453D01*
X74270Y162233D01*
Y162417D01*
X74453Y162600D01*
X74270Y162783D01*
Y162967D01*
X74453Y162600D02*
X74820D01*
X109589Y127490D02*
Y126573D01*
X109772Y126390D01*
X110138D01*
X110322Y126573D01*
Y127490D01*
X110688Y126573D02*
X110872Y126390D01*
X111238D01*
X111421Y126573D01*
Y127307D01*
X111238Y127490D01*
X110872D01*
X110688Y127307D01*
Y127123D01*
X110872Y126940D01*
X111421D01*
X16427Y147810D02*
Y146893D01*
X16610Y146710D01*
X16977D01*
X17160Y146893D01*
Y147810D01*
X17527Y146710D02*
X17893D01*
X17710D01*
Y147810D01*
X17527Y147627D01*
X16244Y164644D02*
Y163728D01*
X16427Y163544D01*
X16793D01*
X16977Y163728D01*
Y164644D01*
X18076Y163544D02*
X17343D01*
X18076Y164277D01*
Y164461D01*
X17893Y164644D01*
X17527D01*
X17343Y164461D01*
X28944Y180465D02*
Y179549D01*
X29127Y179365D01*
X29493D01*
X29677Y179549D01*
Y180465D01*
X30043Y180282D02*
X30227Y180465D01*
X30593D01*
X30776Y180282D01*
Y180099D01*
X30593Y179915D01*
X30410D01*
X30593D01*
X30776Y179732D01*
Y179549D01*
X30593Y179365D01*
X30227D01*
X30043Y179549D01*
X138445Y131117D02*
X138262Y131300D01*
X137895D01*
X137712Y131117D01*
Y130933D01*
X137895Y130750D01*
X138262D01*
X138445Y130567D01*
Y130383D01*
X138262Y130200D01*
X137895D01*
X137712Y130383D01*
X138812Y130200D02*
X139178D01*
X138995D01*
Y131300D01*
X138812Y131117D01*
X69352Y191795D02*
Y192895D01*
X69902D01*
X70086Y192712D01*
Y192345D01*
X69902Y192162D01*
X69352D01*
X69719D02*
X70086Y191795D01*
X70452Y192895D02*
X71185D01*
Y192712D01*
X70452Y191978D01*
Y191795D01*
X61329D02*
Y192895D01*
X61878D01*
X62062Y192712D01*
Y192345D01*
X61878Y192162D01*
X61329D01*
X61695D02*
X62062Y191795D01*
X63161Y192895D02*
X62795Y192712D01*
X62428Y192345D01*
Y191978D01*
X62612Y191795D01*
X62978D01*
X63161Y191978D01*
Y192162D01*
X62978Y192345D01*
X62428D01*
X72184Y170850D02*
Y171950D01*
X72733D01*
X72917Y171767D01*
Y171400D01*
X72733Y171217D01*
X72184D01*
X72550D02*
X72917Y170850D01*
X73283Y171033D02*
X73467Y170850D01*
X73833D01*
X74016Y171033D01*
Y171767D01*
X73833Y171950D01*
X73467D01*
X73283Y171767D01*
Y171583D01*
X73467Y171400D01*
X74016D01*
X74205Y175285D02*
Y176385D01*
X74755D01*
X74939Y176202D01*
Y175835D01*
X74755Y175652D01*
X74205D01*
X74572D02*
X74939Y175285D01*
X75305D02*
X75672D01*
X75488D01*
Y176385D01*
X75305Y176202D01*
X76221D02*
X76405Y176385D01*
X76771D01*
X76955Y176202D01*
Y175468D01*
X76771Y175285D01*
X76405D01*
X76221Y175468D01*
Y176202D01*
X140850Y137225D02*
X139750D01*
Y137775D01*
X139933Y137959D01*
X140300D01*
X140483Y137775D01*
Y137225D01*
Y137592D02*
X140850Y137959D01*
Y138325D02*
Y138692D01*
Y138508D01*
X139750D01*
X139933Y138325D01*
Y139241D02*
X139750Y139425D01*
Y139791D01*
X139933Y139975D01*
X140117D01*
X140300Y139791D01*
Y139608D01*
Y139791D01*
X140483Y139975D01*
X140667D01*
X140850Y139791D01*
Y139425D01*
X140667Y139241D01*
X148450Y137325D02*
X147350D01*
Y137875D01*
X147533Y138059D01*
X147900D01*
X148083Y137875D01*
Y137325D01*
Y137692D02*
X148450Y138059D01*
Y138425D02*
Y138792D01*
Y138608D01*
X147350D01*
X147533Y138425D01*
X147350Y140075D02*
X147533Y139708D01*
X147900Y139341D01*
X148267D01*
X148450Y139525D01*
Y139891D01*
X148267Y140075D01*
X148083D01*
X147900Y139891D01*
Y139341D01*
X145710Y101990D02*
X144610D01*
Y102540D01*
X144793Y102724D01*
X145160D01*
X145343Y102540D01*
Y101990D01*
Y102357D02*
X145710Y102724D01*
Y103090D02*
Y103457D01*
Y103273D01*
X144610D01*
X144793Y103090D01*
X145710Y104556D02*
X144610D01*
X145160Y104006D01*
Y104740D01*
X149960Y101990D02*
X148860D01*
Y102540D01*
X149043Y102724D01*
X149410D01*
X149593Y102540D01*
Y101990D01*
Y102357D02*
X149960Y102724D01*
Y103090D02*
Y103457D01*
Y103273D01*
X148860D01*
X149043Y103090D01*
X148860Y104006D02*
Y104740D01*
X149043D01*
X149777Y104006D01*
X149960D01*
X147960Y101990D02*
X146860D01*
Y102540D01*
X147043Y102724D01*
X147410D01*
X147593Y102540D01*
Y101990D01*
Y102357D02*
X147960Y102724D01*
Y103090D02*
Y103457D01*
Y103273D01*
X146860D01*
X147043Y103090D01*
X146860Y104740D02*
Y104006D01*
X147410D01*
X147227Y104373D01*
Y104556D01*
X147410Y104740D01*
X147777D01*
X147960Y104556D01*
Y104190D01*
X147777Y104006D01*
X171995Y185445D02*
Y186545D01*
X172545D01*
X172729Y186362D01*
Y185995D01*
X172545Y185812D01*
X171995D01*
X172362D02*
X172729Y185445D01*
X173095D02*
X173462D01*
X173278D01*
Y186545D01*
X173095Y186362D01*
X174011D02*
X174195Y186545D01*
X174561D01*
X174745Y186362D01*
Y186178D01*
X174561Y185995D01*
X174745Y185812D01*
Y185628D01*
X174561Y185445D01*
X174195D01*
X174011Y185628D01*
Y185812D01*
X174195Y185995D01*
X174011Y186178D01*
Y186362D01*
X174195Y185995D02*
X174561D01*
X71984Y151850D02*
Y152950D01*
X72533D01*
X72717Y152767D01*
Y152400D01*
X72533Y152217D01*
X71984D01*
X72350D02*
X72717Y151850D01*
X73083Y152767D02*
X73267Y152950D01*
X73633D01*
X73816Y152767D01*
Y152583D01*
X73633Y152400D01*
X73816Y152217D01*
Y152033D01*
X73633Y151850D01*
X73267D01*
X73083Y152033D01*
Y152217D01*
X73267Y152400D01*
X73083Y152583D01*
Y152767D01*
X73267Y152400D02*
X73633D01*
X117385Y133375D02*
Y134475D01*
X117935D01*
X118119Y134292D01*
Y133925D01*
X117935Y133742D01*
X117385D01*
X117752D02*
X118119Y133375D01*
X118485D02*
X118852D01*
X118668D01*
Y134475D01*
X118485Y134292D01*
X120135Y133375D02*
X119401D01*
X120135Y134108D01*
Y134292D01*
X119951Y134475D01*
X119585D01*
X119401Y134292D01*
X102329Y133375D02*
Y134475D01*
X102879D01*
X103062Y134292D01*
Y133925D01*
X102879Y133742D01*
X102329D01*
X102695D02*
X103062Y133375D01*
X103428D02*
X103795D01*
X103612D01*
Y134475D01*
X103428Y134292D01*
X104345Y133375D02*
X104711D01*
X104528D01*
Y134475D01*
X104345Y134292D01*
X12805Y167450D02*
Y168550D01*
X13354D01*
X13538Y168367D01*
Y168000D01*
X13354Y167817D01*
X12805D01*
X13171D02*
X13538Y167450D01*
X13904D02*
X14271D01*
X14088D01*
Y168550D01*
X13904Y168367D01*
X14271Y171888D02*
X13171D01*
Y172437D01*
X13354Y172621D01*
X13721D01*
X13904Y172437D01*
Y171888D01*
Y172254D02*
X14271Y172621D01*
Y173720D02*
Y172987D01*
X13537Y173720D01*
X13354D01*
X13171Y173537D01*
Y173171D01*
X13354Y172987D01*
X16172Y171788D02*
X15072D01*
Y172337D01*
X15255Y172521D01*
X15622D01*
X15805Y172337D01*
Y171788D01*
Y172154D02*
X16172Y172521D01*
X15255Y172887D02*
X15072Y173071D01*
Y173437D01*
X15255Y173620D01*
X15439D01*
X15622Y173437D01*
Y173254D01*
Y173437D01*
X15805Y173620D01*
X15988D01*
X16172Y173437D01*
Y173071D01*
X15988Y172887D01*
X22250Y179984D02*
X21150D01*
Y180533D01*
X21333Y180717D01*
X21700D01*
X21883Y180533D01*
Y179984D01*
Y180350D02*
X22250Y180717D01*
Y181633D02*
X21150D01*
X21700Y181083D01*
Y181816D01*
X22350Y182284D02*
X21250D01*
Y182833D01*
X21433Y183017D01*
X21800D01*
X21983Y182833D01*
Y182284D01*
Y182650D02*
X22350Y183017D01*
X21250Y184116D02*
Y183383D01*
X21800D01*
X21617Y183750D01*
Y183933D01*
X21800Y184116D01*
X22167D01*
X22350Y183933D01*
Y183567D01*
X22167Y183383D01*
X11377Y138984D02*
X11011D01*
X11194D01*
Y138068D01*
X11011Y137884D01*
X10828D01*
X10644Y138068D01*
X11744Y138801D02*
X11927Y138984D01*
X12294D01*
X12477Y138801D01*
Y138617D01*
X12294Y138434D01*
X12111D01*
X12294D01*
X12477Y138251D01*
Y138068D01*
X12294Y137884D01*
X11927D01*
X11744Y138068D01*
X18496Y107170D02*
X18130D01*
X18313D01*
Y106253D01*
X18130Y106070D01*
X17947D01*
X17763Y106253D01*
X19596Y106070D02*
X18863D01*
X19596Y106803D01*
Y106987D01*
X19413Y107170D01*
X19046D01*
X18863Y106987D01*
X23617Y145050D02*
X23250D01*
X23433D01*
Y144133D01*
X23250Y143950D01*
X23067D01*
X22884Y144133D01*
X24533Y143950D02*
Y145050D01*
X23983Y144500D01*
X24716D01*
X25232Y112885D02*
X24865D01*
X25048D01*
Y111968D01*
X24865Y111785D01*
X24682D01*
X24499Y111968D01*
X26331Y112885D02*
X25598D01*
Y112335D01*
X25965Y112518D01*
X26148D01*
X26331Y112335D01*
Y111968D01*
X26148Y111785D01*
X25782D01*
X25598Y111968D01*
X31799Y176678D02*
X31433D01*
X31616D01*
Y175761D01*
X31433Y175578D01*
X31249D01*
X31066Y175761D01*
X32899Y176678D02*
X32532Y176494D01*
X32166Y176128D01*
Y175761D01*
X32349Y175578D01*
X32715D01*
X32899Y175761D01*
Y175945D01*
X32715Y176128D01*
X32166D01*
X56501Y180195D02*
X56135D01*
X56318D01*
Y179278D01*
X56135Y179095D01*
X55952D01*
X55768Y179278D01*
X56868Y180195D02*
X57601D01*
Y180012D01*
X56868Y179278D01*
Y179095D01*
X83737Y147175D02*
Y146075D01*
Y146625D01*
X84470D01*
Y147175D01*
Y146075D01*
X84837D02*
X85203D01*
X85020D01*
Y147175D01*
X84837Y146992D01*
X19229Y190190D02*
X18496D01*
Y189090D01*
X19229D01*
X18496Y189640D02*
X18862D01*
X19595Y189090D02*
X19962D01*
X19779D01*
Y190190D01*
X19595Y190006D01*
X68949Y196705D02*
Y195605D01*
X69498D01*
X69682Y195788D01*
Y196522D01*
X69498Y196705D01*
X68949D01*
X70048Y196522D02*
X70232Y196705D01*
X70598D01*
X70781Y196522D01*
Y196338D01*
X70598Y196155D01*
X70415D01*
X70598D01*
X70781Y195972D01*
Y195788D01*
X70598Y195605D01*
X70232D01*
X70048Y195788D01*
X61329Y196705D02*
Y195605D01*
X61878D01*
X62062Y195788D01*
Y196522D01*
X61878Y196705D01*
X61329D01*
X63161Y195605D02*
X62428D01*
X63161Y196338D01*
Y196522D01*
X62978Y196705D01*
X62612D01*
X62428Y196522D01*
X8767Y168550D02*
Y167450D01*
X9317D01*
X9500Y167633D01*
Y168367D01*
X9317Y168550D01*
X8767D01*
X9867Y167450D02*
X10233D01*
X10050D01*
Y168550D01*
X9867Y168367D01*
X70585Y102542D02*
X70402Y102725D01*
X70035D01*
X69852Y102542D01*
Y101808D01*
X70035Y101625D01*
X70402D01*
X70585Y101808D01*
X71685Y101625D02*
X70952D01*
X71685Y102358D01*
Y102542D01*
X71502Y102725D01*
X71135D01*
X70952Y102542D01*
X72051Y101625D02*
X72418D01*
X72235D01*
Y102725D01*
X72051Y102542D01*
X60969D02*
X60785Y102725D01*
X60419D01*
X60235Y102542D01*
Y101808D01*
X60419Y101625D01*
X60785D01*
X60969Y101808D01*
X61335Y101625D02*
X61702D01*
X61518D01*
Y102725D01*
X61335Y102542D01*
X62985Y102725D02*
X62618Y102542D01*
X62251Y102175D01*
Y101808D01*
X62435Y101625D01*
X62801D01*
X62985Y101808D01*
Y101992D01*
X62801Y102175D01*
X62251D01*
X82992Y113507D02*
X82808Y113324D01*
Y112957D01*
X82992Y112774D01*
X83725D01*
X83908Y112957D01*
Y113324D01*
X83725Y113507D01*
X83908Y114607D02*
Y113873D01*
X83175Y114607D01*
X82992D01*
X82808Y114423D01*
Y114057D01*
X82992Y113873D01*
X82808Y115706D02*
Y114973D01*
X83358D01*
X83175Y115340D01*
Y115523D01*
X83358Y115706D01*
X83725D01*
X83908Y115523D01*
Y115156D01*
X83725Y114973D01*
X82992Y121762D02*
X82808Y121579D01*
Y121212D01*
X82992Y121029D01*
X83725D01*
X83908Y121212D01*
Y121579D01*
X83725Y121762D01*
X83908Y122862D02*
Y122128D01*
X83175Y122862D01*
X82992D01*
X82808Y122678D01*
Y122312D01*
X82992Y122128D01*
X82808Y123228D02*
Y123961D01*
X82992D01*
X83725Y123228D01*
X83908D01*
X50448Y121854D02*
X50265Y121670D01*
Y121304D01*
X50448Y121120D01*
X51182D01*
X51365Y121304D01*
Y121670D01*
X51182Y121854D01*
X51365Y122220D02*
Y122587D01*
Y122403D01*
X50265D01*
X50448Y122220D01*
X51365Y123686D02*
X50265D01*
X50815Y123136D01*
Y123870D01*
X50448Y112964D02*
X50265Y112780D01*
Y112414D01*
X50448Y112230D01*
X51182D01*
X51365Y112414D01*
Y112780D01*
X51182Y112964D01*
X51365Y113330D02*
Y113697D01*
Y113513D01*
X50265D01*
X50448Y113330D01*
X51365Y114980D02*
Y114246D01*
X50632Y114980D01*
X50448D01*
X50265Y114796D01*
Y114430D01*
X50448Y114246D01*
X72307Y134292D02*
X72124Y134475D01*
X71757D01*
X71574Y134292D01*
Y133558D01*
X71757Y133375D01*
X72124D01*
X72307Y133558D01*
X73407Y133375D02*
X72673D01*
X73407Y134108D01*
Y134292D01*
X73223Y134475D01*
X72857D01*
X72673Y134292D01*
X74506Y133375D02*
X73773D01*
X74506Y134108D01*
Y134292D01*
X74323Y134475D01*
X73956D01*
X73773Y134292D01*
X62543D02*
X62360Y134475D01*
X61993D01*
X61810Y134292D01*
Y133558D01*
X61993Y133375D01*
X62360D01*
X62543Y133558D01*
X62910Y133375D02*
X63276D01*
X63093D01*
Y134475D01*
X62910Y134292D01*
X63826D02*
X64009Y134475D01*
X64376D01*
X64559Y134292D01*
Y134108D01*
X64376Y133925D01*
X64559Y133742D01*
Y133558D01*
X64376Y133375D01*
X64009D01*
X63826Y133558D01*
Y133742D01*
X64009Y133925D01*
X63826Y134108D01*
Y134292D01*
X64009Y133925D02*
X64376D01*
X50448Y117585D02*
X50265Y117402D01*
Y117036D01*
X50448Y116852D01*
X51182D01*
X51365Y117036D01*
Y117402D01*
X51182Y117585D01*
X51365Y117952D02*
Y118319D01*
Y118135D01*
X50265D01*
X50448Y117952D01*
Y118868D02*
X50265Y119052D01*
Y119418D01*
X50448Y119601D01*
X50632D01*
X50815Y119418D01*
Y119235D01*
Y119418D01*
X50998Y119601D01*
X51182D01*
X51365Y119418D01*
Y119052D01*
X51182Y118868D01*
X66592Y134292D02*
X66409Y134475D01*
X66042D01*
X65859Y134292D01*
Y133558D01*
X66042Y133375D01*
X66409D01*
X66592Y133558D01*
X67692Y133375D02*
X66958D01*
X67692Y134108D01*
Y134292D01*
X67508Y134475D01*
X67142D01*
X66958Y134292D01*
X68058D02*
X68241Y134475D01*
X68608D01*
X68791Y134292D01*
Y133558D01*
X68608Y133375D01*
X68241D01*
X68058Y133558D01*
Y134292D01*
X82992Y117646D02*
X82808Y117463D01*
Y117097D01*
X82992Y116913D01*
X83725D01*
X83908Y117097D01*
Y117463D01*
X83725Y117646D01*
X83908Y118746D02*
Y118013D01*
X83175Y118746D01*
X82992D01*
X82808Y118563D01*
Y118196D01*
X82992Y118013D01*
X82808Y119846D02*
X82992Y119479D01*
X83358Y119113D01*
X83725D01*
X83908Y119296D01*
Y119663D01*
X83725Y119846D01*
X83541D01*
X83358Y119663D01*
Y119113D01*
X66049Y102542D02*
X65865Y102725D01*
X65499D01*
X65315Y102542D01*
Y101808D01*
X65499Y101625D01*
X65865D01*
X66049Y101808D01*
X66415Y101625D02*
X66782D01*
X66598D01*
Y102725D01*
X66415Y102542D01*
X67331Y101808D02*
X67515Y101625D01*
X67881D01*
X68065Y101808D01*
Y102542D01*
X67881Y102725D01*
X67515D01*
X67331Y102542D01*
Y102358D01*
X67515Y102175D01*
X68065D01*
X52158Y150802D02*
X51974Y150985D01*
X51608D01*
X51424Y150802D01*
Y150068D01*
X51608Y149885D01*
X51974D01*
X52158Y150068D01*
X52524Y149885D02*
X52891D01*
X52707D01*
Y150985D01*
X52524Y150802D01*
X53440D02*
X53624Y150985D01*
X53990D01*
X54174Y150802D01*
Y150068D01*
X53990Y149885D01*
X53624D01*
X53440Y150068D01*
Y150802D01*
X41225Y161047D02*
X41041Y160863D01*
Y160497D01*
X41225Y160314D01*
X41958D01*
X42141Y160497D01*
Y160863D01*
X41958Y161047D01*
Y161413D02*
X42141Y161597D01*
Y161963D01*
X41958Y162146D01*
X41225D01*
X41041Y161963D01*
Y161597D01*
X41225Y161413D01*
X41408D01*
X41591Y161597D01*
Y162146D01*
X51890Y172761D02*
X51707Y172944D01*
X51341D01*
X51157Y172761D01*
Y172027D01*
X51341Y171844D01*
X51707D01*
X51890Y172027D01*
X52257Y171844D02*
X52624D01*
X52440D01*
Y172944D01*
X52257Y172761D01*
X53173Y171844D02*
X53540D01*
X53357D01*
Y172944D01*
X53173Y172761D01*
X62883Y159319D02*
X62700Y159135D01*
Y158769D01*
X62883Y158585D01*
X63617D01*
X63800Y158769D01*
Y159135D01*
X63617Y159319D01*
X63800Y159685D02*
Y160052D01*
Y159868D01*
X62700D01*
X62883Y159685D01*
X62700Y160601D02*
Y161335D01*
X62883D01*
X63617Y160601D01*
X63800D01*
X56524Y150802D02*
X56340Y150985D01*
X55974D01*
X55790Y150802D01*
Y150068D01*
X55974Y149885D01*
X56340D01*
X56524Y150068D01*
X56890Y149885D02*
X57257D01*
X57073D01*
Y150985D01*
X56890Y150802D01*
X58540Y150985D02*
X57806D01*
Y150435D01*
X58173Y150618D01*
X58356D01*
X58540Y150435D01*
Y150068D01*
X58356Y149885D01*
X57990D01*
X57806Y150068D01*
X77118Y168117D02*
X76935Y167934D01*
Y167567D01*
X77118Y167384D01*
X77852D01*
X78035Y167567D01*
Y167934D01*
X77852Y168117D01*
X78035Y169217D02*
Y168483D01*
X77302Y169217D01*
X77118D01*
X76935Y169033D01*
Y168667D01*
X77118Y168483D01*
X78035Y170133D02*
X76935D01*
X77485Y169583D01*
Y170316D01*
X145033Y137967D02*
X144850Y137784D01*
Y137417D01*
X145033Y137234D01*
X145767D01*
X145950Y137417D01*
Y137784D01*
X145767Y137967D01*
X145950Y139067D02*
Y138333D01*
X145217Y139067D01*
X145033D01*
X144850Y138883D01*
Y138517D01*
X145033Y138333D01*
X145767Y139433D02*
X145950Y139616D01*
Y139983D01*
X145767Y140166D01*
X145033D01*
X144850Y139983D01*
Y139616D01*
X145033Y139433D01*
X145217D01*
X145400Y139616D01*
Y140166D01*
X142433Y137967D02*
X142250Y137784D01*
Y137417D01*
X142433Y137234D01*
X143167D01*
X143350Y137417D01*
Y137784D01*
X143167Y137967D01*
X143350Y139067D02*
Y138333D01*
X142617Y139067D01*
X142433D01*
X142250Y138883D01*
Y138517D01*
X142433Y138333D01*
Y139433D02*
X142250Y139616D01*
Y139983D01*
X142433Y140166D01*
X142617D01*
X142800Y139983D01*
X142983Y140166D01*
X143167D01*
X143350Y139983D01*
Y139616D01*
X143167Y139433D01*
X142983D01*
X142800Y139616D01*
X142617Y139433D01*
X142433D01*
X142800Y139616D02*
Y139983D01*
X27817Y150802D02*
X27633Y150985D01*
X27267D01*
X27084Y150802D01*
Y150068D01*
X27267Y149885D01*
X27633D01*
X27817Y150068D01*
X28183Y150985D02*
X28916D01*
Y150802D01*
X28183Y150068D01*
Y149885D01*
X29042Y154612D02*
X28858Y154795D01*
X28492D01*
X28309Y154612D01*
Y153878D01*
X28492Y153695D01*
X28858D01*
X29042Y153878D01*
X30141Y154795D02*
X29408D01*
Y154245D01*
X29775Y154428D01*
X29958D01*
X30141Y154245D01*
Y153878D01*
X29958Y153695D01*
X29592D01*
X29408Y153878D01*
X27817Y159157D02*
X27633Y159340D01*
X27267D01*
X27084Y159157D01*
Y158423D01*
X27267Y158240D01*
X27633D01*
X27817Y158423D01*
X28183Y159157D02*
X28367Y159340D01*
X28733D01*
X28916Y159157D01*
Y158973D01*
X28733Y158790D01*
X28916Y158607D01*
Y158423D01*
X28733Y158240D01*
X28367D01*
X28183Y158423D01*
Y158607D01*
X28367Y158790D01*
X28183Y158973D01*
Y159157D01*
X28367Y158790D02*
X28733D01*
X25867Y164461D02*
X25683Y164644D01*
X25317D01*
X25134Y164461D01*
Y163728D01*
X25317Y163544D01*
X25683D01*
X25867Y163728D01*
X26966Y164644D02*
X26600Y164461D01*
X26233Y164094D01*
Y163728D01*
X26417Y163544D01*
X26783D01*
X26966Y163728D01*
Y163911D01*
X26783Y164094D01*
X26233D01*
X20941Y174781D02*
X20758Y174597D01*
Y174231D01*
X20941Y174048D01*
X21675D01*
X21858Y174231D01*
Y174597D01*
X21675Y174781D01*
X20941Y175147D02*
X20758Y175331D01*
Y175697D01*
X20941Y175880D01*
X21125D01*
X21308Y175697D01*
Y175514D01*
Y175697D01*
X21491Y175880D01*
X21675D01*
X21858Y175697D01*
Y175331D01*
X21675Y175147D01*
X17933Y174964D02*
X17749Y174781D01*
Y174414D01*
X17933Y174231D01*
X18666D01*
X18849Y174414D01*
Y174781D01*
X18666Y174964D01*
X18849Y175331D02*
Y175697D01*
Y175514D01*
X17749D01*
X17933Y175331D01*
X26502Y176933D02*
X26318Y177116D01*
X25952D01*
X25769Y176933D01*
Y176200D01*
X25952Y176016D01*
X26318D01*
X26502Y176200D01*
X27418Y176016D02*
Y177116D01*
X26868Y176566D01*
X27601D01*
X21233Y185417D02*
X21050Y185233D01*
Y184867D01*
X21233Y184684D01*
X21967D01*
X22150Y184867D01*
Y185233D01*
X21967Y185417D01*
X22150Y186516D02*
Y185783D01*
X21417Y186516D01*
X21233D01*
X21050Y186333D01*
Y185967D01*
X21233Y185783D01*
X163400Y61300D02*
G03*
X163400Y61300I-100J0D01*
G01*
X51130Y51690D02*
G03*
X51130Y51690I-100J0D01*
G01*
X117000Y81920D02*
G03*
X117000Y81920I-100J0D01*
G01*
X44675Y81902D02*
Y82102D01*
X45925Y81902D02*
Y82102D01*
X89075Y24127D02*
Y24327D01*
X87925Y24127D02*
Y24327D01*
X39448Y10350D02*
X54248D01*
X36948Y12850D02*
X39448Y10350D01*
X54248D02*
Y16950D01*
X36948Y12850D02*
Y16950D01*
Y21050D02*
Y25150D01*
X54248Y21050D02*
Y27650D01*
X36948Y25150D02*
X39448Y27650D01*
X54248D01*
X85223Y65925D02*
X87729D01*
X85223Y63675D02*
X87729D01*
X81271Y41225D02*
X83777D01*
X81271Y38975D02*
X83777D01*
X85721D02*
X88227D01*
X85721Y41225D02*
X88227D01*
X98725Y48793D02*
Y51299D01*
X96475Y48793D02*
Y51299D01*
X56500Y83902D02*
Y84802D01*
X61500Y83902D02*
Y84802D01*
X48900Y65155D02*
Y69030D01*
Y58530D02*
Y62405D01*
X39400Y58530D02*
X48900D01*
X38400Y59530D02*
X39400Y58530D01*
X38400Y59530D02*
Y62405D01*
X39400Y69030D02*
X48900D01*
X38400Y68030D02*
X39400Y69030D01*
X38400Y65155D02*
Y68030D01*
X73575Y20000D02*
Y20200D01*
X72425Y20000D02*
Y20200D01*
X80150Y9625D02*
X80350D01*
X80150Y8375D02*
X80350D01*
X120700Y28725D02*
Y29275D01*
X121125Y27500D02*
X122100D01*
Y29675D02*
Y30500D01*
Y27500D02*
Y28325D01*
X121125Y30500D02*
X122100D01*
X133800Y25800D02*
Y30200D01*
X126200Y31950D02*
X130200D01*
X126200Y31150D02*
Y31950D01*
Y31150D02*
X127800D01*
Y29900D02*
Y31150D01*
Y24850D02*
Y26100D01*
X126200Y24850D02*
X127800D01*
X126200Y24050D02*
Y24850D01*
Y24050D02*
X130200D01*
X137700Y65545D02*
X144300D01*
Y56655D02*
Y57560D01*
Y59560D02*
Y60100D01*
Y62100D02*
Y62640D01*
Y64640D02*
Y65545D01*
X137700Y56655D02*
X144300D01*
X137700D02*
Y57560D01*
Y59560D02*
Y60100D01*
Y62100D02*
Y62640D01*
Y64640D02*
Y65545D01*
X150740Y69664D02*
Y70236D01*
X151617Y68500D02*
X152040D01*
Y70614D02*
Y71400D01*
Y68500D02*
Y69286D01*
X151617Y71400D02*
X152040D01*
X156925Y65000D02*
X160925D01*
X156925D02*
Y65800D01*
X158525D01*
Y67050D01*
Y70850D02*
Y72100D01*
X156925D02*
X158525D01*
X156925D02*
Y72900D01*
X160925D01*
X164525Y66750D02*
Y71150D01*
X152000Y82062D02*
Y85000D01*
Y75000D02*
Y77938D01*
Y85000D02*
X158100D01*
X161900D02*
X165000D01*
X161900Y75000D02*
X165000D01*
X152000D02*
X158100D01*
X165000D02*
Y85000D01*
X52754Y86347D02*
Y89253D01*
X55010Y86347D02*
Y89253D01*
X91650Y8375D02*
X91850D01*
X91650Y9625D02*
X91850D01*
X89125Y9900D02*
Y10100D01*
X87875Y9900D02*
Y10100D01*
X90400Y10425D02*
X92600D01*
X90400Y12575D02*
X92600D01*
X84125Y9900D02*
Y10100D01*
X82875Y9900D02*
Y10100D01*
X79400Y12575D02*
X81600D01*
X79400Y10425D02*
X81600D01*
X118675Y27000D02*
Y27200D01*
X117525Y27000D02*
Y27200D01*
X116975Y23525D02*
X117175D01*
X116975Y24875D02*
X117175D01*
X73600Y57725D02*
X73800D01*
X73600Y56475D02*
X73800D01*
X75325Y50300D02*
Y50500D01*
X74075Y50300D02*
Y50500D01*
X121350Y82550D02*
Y83950D01*
X118650Y82550D02*
Y83950D01*
X75850Y43500D02*
X75975D01*
X72150D02*
X74400D01*
X70575D02*
X70700D01*
X70575Y38100D02*
Y43500D01*
X75850Y38100D02*
X75975D01*
X72150D02*
X74400D01*
X70575D02*
X70700D01*
X75975D02*
Y43500D01*
X67485Y34721D02*
X68035D01*
X66260Y33321D02*
Y34296D01*
X68435Y33321D02*
X69260D01*
X66260D02*
X67085D01*
X69260D02*
Y34296D01*
X67660Y36425D02*
X67860D01*
X67660Y37575D02*
X67860D01*
X7000Y16460D02*
X19000D01*
X7000D02*
Y54020D01*
X19000D01*
Y16460D02*
Y54020D01*
X148845Y77975D02*
Y78007D01*
Y81988D02*
Y82025D01*
X147805D02*
X148845D01*
X147805Y77975D02*
X148845D01*
X48925Y80527D02*
X49775D01*
X48925Y83577D02*
X49775D01*
X76880Y56098D02*
X78980D01*
X76891Y58100D02*
X78991D01*
X75741Y56950D02*
Y57250D01*
X75591Y57100D02*
X75891D01*
X44325Y55725D02*
X44525D01*
X44325Y54475D02*
X44525D01*
X61580Y76345D02*
X72040D01*
Y73655D02*
Y76345D01*
X61580Y73655D02*
X72040D01*
X61580D02*
Y76345D01*
X101090D02*
X111550D01*
Y73655D02*
Y76345D01*
X101090Y73655D02*
X111550D01*
X101090D02*
Y76345D01*
X85750Y90810D02*
X94750D01*
X85750Y78710D02*
X94750D01*
Y90810D01*
X85750Y78710D02*
Y90810D01*
X151400Y67525D02*
X151600D01*
X151400Y66275D02*
X151600D01*
X146875Y70850D02*
Y71050D01*
X148125Y70850D02*
Y71050D01*
X133375Y54665D02*
Y54865D01*
X134625Y54665D02*
Y54865D01*
X133825Y52800D02*
X134800D01*
Y49800D02*
Y50625D01*
Y51975D02*
Y52800D01*
X133825Y49800D02*
X134800D01*
X133400Y51025D02*
Y51575D01*
X130500Y62625D02*
X130700D01*
X130500Y61475D02*
X130700D01*
X130500Y52825D02*
X130700D01*
X130500Y51675D02*
X130700D01*
X133825Y62600D02*
X134800D01*
Y59600D02*
Y60425D01*
Y61775D02*
Y62600D01*
X133825Y59600D02*
X134800D01*
X133400Y60825D02*
Y61375D01*
X137700Y55745D02*
X144300D01*
Y46855D02*
Y47760D01*
Y49760D02*
Y50300D01*
Y52300D02*
Y52840D01*
Y54840D02*
Y55745D01*
X137700Y46855D02*
X144300D01*
X137700D02*
Y47760D01*
Y49760D02*
Y50300D01*
Y52300D02*
Y52840D01*
Y54840D02*
Y55745D01*
X55325Y81147D02*
Y83653D01*
X53075Y81147D02*
Y83653D01*
X90580Y29355D02*
Y32045D01*
Y29355D02*
X106120D01*
Y32045D01*
X90580D02*
X106120D01*
X28100Y68585D02*
Y69135D01*
X26700Y70360D02*
X27675D01*
X26700Y67360D02*
Y68185D01*
Y69535D02*
Y70360D01*
Y67360D02*
X27675D01*
X28100Y73665D02*
Y74215D01*
X26700Y75440D02*
X27675D01*
X26700Y72440D02*
Y73265D01*
Y74615D02*
Y75440D01*
Y72440D02*
X27675D01*
X28100Y78745D02*
Y79295D01*
X26700Y80520D02*
X27675D01*
X26700Y77520D02*
Y78345D01*
Y79695D02*
Y80520D01*
Y77520D02*
X27675D01*
X19000Y55160D02*
Y87640D01*
X7000D02*
X19000D01*
X7000Y55160D02*
Y87640D01*
Y55160D02*
X19000D01*
X74321Y68951D02*
X77227D01*
X74321Y66695D02*
X77227D01*
X70850Y47126D02*
Y47326D01*
X72000Y47126D02*
Y47326D01*
X31625Y59075D02*
X31825D01*
X31625Y60225D02*
X31825D01*
X31625Y64155D02*
X31825D01*
X31625Y65305D02*
X31825D01*
X31675Y69235D02*
X31875D01*
X31675Y70385D02*
X31875D01*
X31675Y74315D02*
X31875D01*
X31675Y75465D02*
X31875D01*
X31675Y79395D02*
X31875D01*
X31675Y80545D02*
X31875D01*
X70902Y65998D02*
Y68904D01*
X73158Y65998D02*
Y68904D01*
X68362Y65998D02*
Y68904D01*
X70618Y65998D02*
Y68904D01*
X65822Y65998D02*
Y68904D01*
X68078Y65998D02*
Y68904D01*
X63282Y65998D02*
Y68904D01*
X65538Y65998D02*
Y68904D01*
X60742Y65998D02*
Y68904D01*
X62998Y65998D02*
Y68904D01*
X58202Y65998D02*
Y68904D01*
X60458Y65998D02*
Y68904D01*
X139750Y85000D02*
X146750D01*
X139750Y92400D02*
X146750D01*
X139750Y85000D02*
Y92400D01*
X147150Y91245D02*
Y91895D01*
X146750Y91820D02*
X147150Y91895D01*
X146750Y91320D02*
X147150Y91245D01*
X146750Y91820D02*
Y92400D01*
Y86080D02*
X147150Y86155D01*
X146750Y85580D02*
X147150Y85505D01*
Y86155D01*
X146750Y85000D02*
Y85580D01*
Y86080D02*
Y91320D01*
X120655Y48420D02*
X123345D01*
X120655Y35420D02*
Y48420D01*
Y35420D02*
X123345D01*
Y48420D01*
X120655Y59540D02*
X123345D01*
X120655Y49080D02*
Y59540D01*
Y49080D02*
X123345D01*
Y59540D01*
X81175Y87400D02*
X83400D01*
X76600D02*
X78825D01*
X76600D02*
Y93200D01*
X83400Y87400D02*
Y93200D01*
X77600Y94200D02*
X78800D01*
X81200D02*
X82400D01*
X76600Y93200D02*
X77600Y94200D01*
X82400D02*
X83400Y93200D01*
X76600Y83200D02*
X78825D01*
X81175D02*
X83400D01*
X76600Y77400D02*
Y83200D01*
X83400Y77400D02*
Y83200D01*
X81300Y76400D02*
X82400D01*
X77600D02*
X78700D01*
X76600Y77400D02*
X77600Y76400D01*
X82400D02*
X83400Y77400D01*
X72550Y49222D02*
Y51729D01*
X70300Y49222D02*
Y51729D01*
X53873Y51065D02*
X56379D01*
X53873Y53315D02*
X56379D01*
X53873Y48575D02*
X56379D01*
X53873Y50825D02*
X56379D01*
X56560Y38598D02*
Y43998D01*
Y38598D02*
X58660D01*
X61360D02*
X63360D01*
Y43998D01*
X56560D02*
X57960Y45398D01*
X61960D02*
X63360Y43998D01*
X57960Y45398D02*
X58660D01*
X61260D02*
X61960D01*
X35573Y31025D02*
X38079D01*
X35573Y33275D02*
X38079D01*
X52047D02*
X54553D01*
X52047Y31025D02*
X54553D01*
X48723D02*
X51229D01*
X48723Y33275D02*
X51229D01*
X31950Y33341D02*
Y35847D01*
X34200Y33341D02*
Y35847D01*
X31950Y43501D02*
Y46007D01*
X34200Y43501D02*
Y46007D01*
Y50033D02*
Y52539D01*
X31950Y50033D02*
Y52539D01*
X34200Y39821D02*
Y42327D01*
X31950Y39821D02*
Y42327D01*
X44300Y78250D02*
Y79550D01*
X47221Y76128D02*
X50127D01*
X47221Y73872D02*
X50127D01*
X47473Y79125D02*
X49979D01*
X47473Y76875D02*
X49979D01*
X37585Y54625D02*
X40091D01*
X37585Y52375D02*
X40091D01*
X43321Y51675D02*
X45827D01*
X43321Y53925D02*
X45827D01*
X26700Y57200D02*
X27675D01*
X26700Y59375D02*
Y60200D01*
Y57200D02*
Y58025D01*
Y60200D02*
X27675D01*
X28100Y58425D02*
Y58975D01*
X26700Y62280D02*
X27675D01*
X26700Y64455D02*
Y65280D01*
Y62280D02*
Y63105D01*
Y65280D02*
X27675D01*
X28100Y63505D02*
Y64055D01*
X73575Y45621D02*
Y48127D01*
X75825Y45621D02*
Y48127D01*
X42071Y33275D02*
X44577D01*
X42071Y31025D02*
X44577D01*
X45473D02*
X47979D01*
X45473Y33275D02*
X47979D01*
X38821D02*
X41327D01*
X38821Y31025D02*
X41327D01*
X134625Y64465D02*
Y64665D01*
X133375Y64465D02*
Y64665D01*
X129500Y78439D02*
Y77439D01*
X130000D01*
X130166Y77606D01*
Y78272D01*
X130000Y78439D01*
X129500D01*
X130666Y77439D02*
X131000D01*
X131166Y77606D01*
Y77939D01*
X131000Y78105D01*
X130666D01*
X130500Y77939D01*
Y77606D01*
X130666Y77439D01*
X132499D02*
Y78105D01*
X132999D01*
X133165Y77939D01*
Y77439D01*
X133665D02*
X133999D01*
X134165Y77606D01*
Y77939D01*
X133999Y78105D01*
X133665D01*
X133499Y77939D01*
Y77606D01*
X133665Y77439D01*
X134665Y78272D02*
Y78105D01*
X134498D01*
X134832D01*
X134665D01*
Y77606D01*
X134832Y77439D01*
X129500Y75759D02*
X130000D01*
X130166Y75926D01*
X130000Y76093D01*
X129667D01*
X129500Y76259D01*
X129667Y76426D01*
X130166D01*
X130666Y75759D02*
X131000D01*
X131166Y75926D01*
Y76259D01*
X131000Y76426D01*
X130666D01*
X130500Y76259D01*
Y75926D01*
X130666Y75759D01*
X131499D02*
X131833D01*
X131666D01*
Y76759D01*
X131499D01*
X132999D02*
Y75759D01*
X132499D01*
X132332Y75926D01*
Y76259D01*
X132499Y76426D01*
X132999D01*
X133832Y75759D02*
X133499D01*
X133332Y75926D01*
Y76259D01*
X133499Y76426D01*
X133832D01*
X133999Y76259D01*
Y76093D01*
X133332D01*
X134332Y76426D02*
Y75759D01*
Y76093D01*
X134498Y76259D01*
X134665Y76426D01*
X134832D01*
X129500Y75079D02*
Y74080D01*
X130000D01*
X130166Y74246D01*
Y74413D01*
Y74580D01*
X130000Y74746D01*
X129500D01*
X130666Y74080D02*
X131000D01*
X131166Y74246D01*
Y74580D01*
X131000Y74746D01*
X130666D01*
X130500Y74580D01*
Y74246D01*
X130666Y74080D01*
X131666Y74913D02*
Y74746D01*
X131499D01*
X131833D01*
X131666D01*
Y74246D01*
X131833Y74080D01*
X132332Y75079D02*
Y74080D01*
Y74580D01*
X132499Y74746D01*
X132832D01*
X132999Y74580D01*
Y74080D01*
X134332Y74580D02*
X134998D01*
X134665Y74913D02*
Y74246D01*
X135331Y74080D02*
X135665D01*
X135498D01*
Y75079D01*
X135331Y74913D01*
X136831Y74080D02*
X136165D01*
X136831Y74746D01*
Y74913D01*
X136664Y75079D01*
X136331D01*
X136165Y74913D01*
X137164Y75079D02*
Y74413D01*
X137497Y74080D01*
X137831Y74413D01*
Y75079D01*
X129667Y73067D02*
X130000D01*
X130166Y72900D01*
Y72400D01*
X129667D01*
X129500Y72567D01*
X129667Y72733D01*
X130166D01*
X130500Y72400D02*
Y73067D01*
X131000D01*
X131166Y72900D01*
Y72400D01*
X132166Y73400D02*
Y72400D01*
X131666D01*
X131499Y72567D01*
Y72900D01*
X131666Y73067D01*
X132166D01*
X133499Y72900D02*
X134165D01*
X133832Y73233D02*
Y72567D01*
X135165Y72400D02*
X134498D01*
X135165Y73067D01*
Y73233D01*
X134998Y73400D01*
X134665D01*
X134498Y73233D01*
X135998Y72400D02*
Y73400D01*
X135498Y72900D01*
X136165D01*
X136498Y73400D02*
Y72733D01*
X136831Y72400D01*
X137164Y72733D01*
Y73400D01*
X35370Y18643D02*
Y19500D01*
X35798Y19072D02*
X34941D01*
X133700Y91361D02*
X134366D01*
X134033Y91694D02*
Y91028D01*
X134700Y90861D02*
X135033D01*
X134866D01*
Y91861D01*
X134700Y91694D01*
X136199Y90861D02*
X135533D01*
X136199Y91527D01*
Y91694D01*
X136033Y91861D01*
X135699D01*
X135533Y91694D01*
X136532Y91861D02*
Y91194D01*
X136866Y90861D01*
X137199Y91194D01*
Y91861D01*
X133386Y81500D02*
X134053D01*
X133719Y81833D02*
Y81167D01*
X135052Y81000D02*
X134386D01*
X135052Y81667D01*
Y81833D01*
X134886Y82000D01*
X134552D01*
X134386Y81833D01*
X135885Y81000D02*
Y82000D01*
X135386Y81500D01*
X136052D01*
X136385Y82000D02*
Y81333D01*
X136718Y81000D01*
X137052Y81333D01*
Y82000D01*
X119300Y47286D02*
Y46620D01*
X119800D01*
X119634Y46953D01*
Y47120D01*
X119800Y47286D01*
X120133D01*
X120300Y47120D01*
Y46787D01*
X120133Y46620D01*
X120300Y36720D02*
Y37053D01*
Y36887D01*
X119300D01*
X119467Y36720D01*
X26667Y14500D02*
X27334D01*
X27000D01*
Y13500D01*
X27667D02*
Y14500D01*
X28167D01*
X28333Y14333D01*
Y14000D01*
X28167Y13833D01*
X27667D01*
X29333Y14500D02*
X29000Y14333D01*
X28666Y14000D01*
Y13667D01*
X28833Y13500D01*
X29166D01*
X29333Y13667D01*
Y13833D01*
X29166Y14000D01*
X28666D01*
X109950Y35309D02*
X108950D01*
Y35809D01*
X109117Y35975D01*
X109450D01*
X109617Y35809D01*
Y35309D01*
Y35642D02*
X109950Y35975D01*
Y36975D02*
Y36308D01*
X109283Y36975D01*
X109117D01*
X108950Y36808D01*
Y36475D01*
X109117Y36308D01*
X109950Y37308D02*
Y37641D01*
Y37475D01*
X108950D01*
X109117Y37308D01*
X24233Y68344D02*
Y69010D01*
X24067Y69177D01*
X23734D01*
X23567Y69010D01*
Y68344D01*
X23734Y68177D01*
X24067D01*
X23900Y68511D02*
X24233Y68177D01*
X24067D02*
X24233Y68344D01*
X24567Y69010D02*
X24733Y69177D01*
X25066D01*
X25233Y69010D01*
Y68844D01*
X25066Y68677D01*
X24900D01*
X25066D01*
X25233Y68511D01*
Y68344D01*
X25066Y68177D01*
X24733D01*
X24567Y68344D01*
X24233Y73767D02*
Y74433D01*
X24067Y74600D01*
X23734D01*
X23567Y74433D01*
Y73767D01*
X23734Y73600D01*
X24067D01*
X23900Y73933D02*
X24233Y73600D01*
X24067D02*
X24233Y73767D01*
X25233Y73600D02*
X24567D01*
X25233Y74267D01*
Y74433D01*
X25066Y74600D01*
X24733D01*
X24567Y74433D01*
X24400Y78607D02*
Y79273D01*
X24233Y79440D01*
X23900D01*
X23734Y79273D01*
Y78607D01*
X23900Y78440D01*
X24233D01*
X24067Y78773D02*
X24400Y78440D01*
X24233D02*
X24400Y78607D01*
X24733Y78440D02*
X25066D01*
X24900D01*
Y79440D01*
X24733Y79273D01*
X67810Y46950D02*
Y47950D01*
X68310D01*
X68477Y47783D01*
Y47450D01*
X68310Y47283D01*
X67810D01*
X68143D02*
X68477Y46950D01*
X68810Y47783D02*
X68976Y47950D01*
X69310D01*
X69476Y47783D01*
Y47616D01*
X69310Y47450D01*
X69143D01*
X69310D01*
X69476Y47283D01*
Y47117D01*
X69310Y46950D01*
X68976D01*
X68810Y47117D01*
X69810Y47950D02*
X70476D01*
Y47783D01*
X69810Y47117D01*
Y46950D01*
X49584Y30342D02*
X49417Y30509D01*
X49084D01*
X48917Y30342D01*
Y29676D01*
X49084Y29509D01*
X49417D01*
X49584Y29676D01*
X50583Y29509D02*
X49917D01*
X50583Y30176D01*
Y30342D01*
X50417Y30509D01*
X50083D01*
X49917Y30342D01*
X50916D02*
X51083Y30509D01*
X51416D01*
X51583Y30342D01*
Y29676D01*
X51416Y29509D01*
X51083D01*
X50916Y29676D01*
Y30342D01*
X106647Y30150D02*
Y31150D01*
X107147D01*
X107313Y30983D01*
Y30650D01*
X107147Y30483D01*
X106647D01*
X108313Y31150D02*
X107647D01*
Y30650D01*
X107980Y30817D01*
X108146D01*
X108313Y30650D01*
Y30317D01*
X108146Y30150D01*
X107813D01*
X107647Y30317D01*
X45800Y84199D02*
X44800D01*
Y84699D01*
X44967Y84866D01*
X45300D01*
X45467Y84699D01*
Y84199D01*
Y84532D02*
X45800Y84866D01*
Y85699D02*
X44800D01*
X45300Y85199D01*
Y85865D01*
X45800Y86865D02*
Y86199D01*
X45133Y86865D01*
X44967D01*
X44800Y86698D01*
Y86365D01*
X44967Y86199D01*
X120035Y91974D02*
X119868Y92140D01*
X119535D01*
X119369Y91974D01*
Y91807D01*
X119535Y91641D01*
X119868D01*
X120035Y91474D01*
Y91307D01*
X119868Y91141D01*
X119535D01*
X119369Y91307D01*
X120368Y92140D02*
Y91141D01*
X120868D01*
X121035Y91307D01*
Y91474D01*
X120868Y91641D01*
X120368D01*
X120868D01*
X121035Y91807D01*
Y91974D01*
X120868Y92140D01*
X120368D01*
X121368Y91974D02*
X121535Y92140D01*
X121868D01*
X122034Y91974D01*
Y91807D01*
X121868Y91641D01*
X121701D01*
X121868D01*
X122034Y91474D01*
Y91307D01*
X121868Y91141D01*
X121535D01*
X121368Y91307D01*
X129934Y91694D02*
X129767Y91861D01*
X129434D01*
X129267Y91694D01*
Y91527D01*
X129434Y91361D01*
X129767D01*
X129934Y91194D01*
Y91028D01*
X129767Y90861D01*
X129434D01*
X129267Y91028D01*
X130267Y91861D02*
Y90861D01*
X130767D01*
X130933Y91028D01*
Y91194D01*
X130767Y91361D01*
X130267D01*
X130767D01*
X130933Y91527D01*
Y91694D01*
X130767Y91861D01*
X130267D01*
X131933Y90861D02*
X131266D01*
X131933Y91527D01*
Y91694D01*
X131766Y91861D01*
X131433D01*
X131266Y91694D01*
X130000Y81833D02*
X129834Y82000D01*
X129500D01*
X129334Y81833D01*
Y81667D01*
X129500Y81500D01*
X129834D01*
X130000Y81333D01*
Y81167D01*
X129834Y81000D01*
X129500D01*
X129334Y81167D01*
X130333Y82000D02*
Y81000D01*
X130833D01*
X131000Y81167D01*
Y81333D01*
X130833Y81500D01*
X130333D01*
X130833D01*
X131000Y81667D01*
Y81833D01*
X130833Y82000D01*
X130333D01*
X131333Y81000D02*
X131666D01*
X131500D01*
Y82000D01*
X131333Y81833D01*
X90917Y58912D02*
Y58079D01*
X91084Y57913D01*
X91417D01*
X91584Y58079D01*
Y58912D01*
X92583D02*
X91917D01*
Y58412D01*
X92250Y58579D01*
X92417D01*
X92583Y58412D01*
Y58079D01*
X92417Y57913D01*
X92083D01*
X91917Y58079D01*
X36867Y50300D02*
Y49467D01*
X37034Y49300D01*
X37367D01*
X37533Y49467D01*
Y50300D01*
X38366Y49300D02*
Y50300D01*
X37867Y49800D01*
X38533D01*
X96390Y91685D02*
Y90852D01*
X96556Y90685D01*
X96890D01*
X97056Y90852D01*
Y91685D01*
X97389Y91519D02*
X97556Y91685D01*
X97889D01*
X98056Y91519D01*
Y91352D01*
X97889Y91185D01*
X97723D01*
X97889D01*
X98056Y91019D01*
Y90852D01*
X97889Y90685D01*
X97556D01*
X97389Y90852D01*
X85755Y92383D02*
Y91550D01*
X85922Y91384D01*
X86255D01*
X86422Y91550D01*
Y92383D01*
X87421Y91384D02*
X86755D01*
X87421Y92050D01*
Y92217D01*
X87255Y92383D01*
X86921D01*
X86755Y92217D01*
X48724Y84986D02*
Y84153D01*
X48891Y83986D01*
X49224D01*
X49390Y84153D01*
Y84986D01*
X49724Y83986D02*
X50057D01*
X49890D01*
Y84986D01*
X49724Y84819D01*
X26176Y33136D02*
X26842D01*
X26509D01*
Y32137D01*
X27176D02*
Y33136D01*
X27676D01*
X27842Y32970D01*
Y32636D01*
X27676Y32470D01*
X27176D01*
X28175Y32137D02*
X28509D01*
X28342D01*
Y33136D01*
X28175Y32970D01*
X29008Y32303D02*
X29175Y32137D01*
X29508D01*
X29675Y32303D01*
Y32970D01*
X29508Y33136D01*
X29175D01*
X29008Y32970D01*
Y32803D01*
X29175Y32636D01*
X29675D01*
X26176Y28056D02*
X26842D01*
X26509D01*
Y27057D01*
X27176D02*
Y28056D01*
X27676D01*
X27842Y27890D01*
Y27556D01*
X27676Y27390D01*
X27176D01*
X28175Y27057D02*
X28509D01*
X28342D01*
Y28056D01*
X28175Y27890D01*
X29008D02*
X29175Y28056D01*
X29508D01*
X29675Y27890D01*
Y27723D01*
X29508Y27556D01*
X29675Y27390D01*
Y27223D01*
X29508Y27057D01*
X29175D01*
X29008Y27223D01*
Y27390D01*
X29175Y27556D01*
X29008Y27723D01*
Y27890D01*
X29175Y27556D02*
X29508D01*
X26176Y22976D02*
X26842D01*
X26509D01*
Y21977D01*
X27176D02*
Y22976D01*
X27676D01*
X27842Y22810D01*
Y22476D01*
X27676Y22310D01*
X27176D01*
X28175Y21977D02*
X28509D01*
X28342D01*
Y22976D01*
X28175Y22810D01*
X29008Y22976D02*
X29675D01*
Y22810D01*
X29008Y22143D01*
Y21977D01*
X51245Y63820D02*
X51911D01*
X51578D01*
Y62821D01*
X52245D02*
Y63820D01*
X52744D01*
X52911Y63654D01*
Y63321D01*
X52744Y63154D01*
X52245D01*
X53244Y62821D02*
X53578D01*
X53411D01*
Y63820D01*
X53244Y63654D01*
X54744Y63820D02*
X54411Y63654D01*
X54077Y63321D01*
Y62987D01*
X54244Y62821D01*
X54577D01*
X54744Y62987D01*
Y63154D01*
X54577Y63321D01*
X54077D01*
X56265Y61619D02*
X56931D01*
X56598D01*
Y60619D01*
X57264D02*
Y61619D01*
X57764D01*
X57931Y61452D01*
Y61119D01*
X57764Y60953D01*
X57264D01*
X58264Y60619D02*
X58597D01*
X58431D01*
Y61619D01*
X58264Y61452D01*
X59764Y61619D02*
X59097D01*
Y61119D01*
X59430Y61286D01*
X59597D01*
X59764Y61119D01*
Y60786D01*
X59597Y60619D01*
X59264D01*
X59097Y60786D01*
X61365Y59625D02*
X62031D01*
X61698D01*
Y58625D01*
X62365D02*
Y59625D01*
X62865D01*
X63031Y59458D01*
Y59125D01*
X62865Y58958D01*
X62365D01*
X63364Y58625D02*
X63698D01*
X63531D01*
Y59625D01*
X63364Y59458D01*
X64697Y58625D02*
Y59625D01*
X64197Y59125D01*
X64864D01*
X66266Y57602D02*
X66932D01*
X66599D01*
Y56602D01*
X67266D02*
Y57602D01*
X67765D01*
X67932Y57435D01*
Y57102D01*
X67765Y56935D01*
X67266D01*
X68265Y56602D02*
X68598D01*
X68432D01*
Y57602D01*
X68265Y57435D01*
X69098D02*
X69265Y57602D01*
X69598D01*
X69765Y57435D01*
Y57268D01*
X69598Y57102D01*
X69432D01*
X69598D01*
X69765Y56935D01*
Y56768D01*
X69598Y56602D01*
X69265D01*
X69098Y56768D01*
X26176Y38165D02*
X26842D01*
X26509D01*
Y37166D01*
X27176D02*
Y38165D01*
X27676D01*
X27842Y37999D01*
Y37666D01*
X27676Y37499D01*
X27176D01*
X28175Y37166D02*
X28509D01*
X28342D01*
Y38165D01*
X28175Y37999D01*
X29675Y37166D02*
X29008D01*
X29675Y37832D01*
Y37999D01*
X29508Y38165D01*
X29175D01*
X29008Y37999D01*
X26176Y48325D02*
X26842D01*
X26509D01*
Y47326D01*
X27176D02*
Y48325D01*
X27676D01*
X27842Y48159D01*
Y47826D01*
X27676Y47659D01*
X27176D01*
X28175Y47326D02*
X28509D01*
X28342D01*
Y48325D01*
X28175Y48159D01*
X29008Y47326D02*
X29342D01*
X29175D01*
Y48325D01*
X29008Y48159D01*
X26176Y43245D02*
X26842D01*
X26509D01*
Y42246D01*
X27176D02*
Y43245D01*
X27676D01*
X27842Y43079D01*
Y42746D01*
X27676Y42579D01*
X27176D01*
X28175Y42246D02*
X28509D01*
X28342D01*
Y43245D01*
X28175Y43079D01*
X29008D02*
X29175Y43245D01*
X29508D01*
X29675Y43079D01*
Y42412D01*
X29508Y42246D01*
X29175D01*
X29008Y42412D01*
Y43079D01*
X26176Y53405D02*
X26842D01*
X26509D01*
Y52406D01*
X27176D02*
Y53405D01*
X27676D01*
X27842Y53239D01*
Y52906D01*
X27676Y52739D01*
X27176D01*
X28175Y52572D02*
X28342Y52406D01*
X28675D01*
X28842Y52572D01*
Y53239D01*
X28675Y53405D01*
X28342D01*
X28175Y53239D01*
Y53072D01*
X28342Y52906D01*
X28842D01*
X71185Y91150D02*
X71851D01*
X71518D01*
Y90150D01*
X72184D02*
Y91150D01*
X72684D01*
X72851Y90983D01*
Y90650D01*
X72684Y90483D01*
X72184D01*
X73184Y90983D02*
X73351Y91150D01*
X73684D01*
X73851Y90983D01*
Y90817D01*
X73684Y90650D01*
X73851Y90483D01*
Y90317D01*
X73684Y90150D01*
X73351D01*
X73184Y90317D01*
Y90483D01*
X73351Y90650D01*
X73184Y90817D01*
Y90983D01*
X73351Y90650D02*
X73684D01*
X34667Y94500D02*
X35334D01*
X35000D01*
Y93500D01*
X35667D02*
Y94500D01*
X36167D01*
X36333Y94333D01*
Y94000D01*
X36167Y93833D01*
X35667D01*
X36666Y94500D02*
X37333D01*
Y94333D01*
X36666Y93667D01*
Y93500D01*
X71667Y84579D02*
X72334D01*
X72000D01*
Y83579D01*
X72667D02*
Y84579D01*
X73167D01*
X73333Y84412D01*
Y84079D01*
X73167Y83912D01*
X72667D01*
X74333Y84579D02*
X73666D01*
Y84079D01*
X74000Y84246D01*
X74166D01*
X74333Y84079D01*
Y83746D01*
X74166Y83579D01*
X73833D01*
X73666Y83746D01*
X44592Y94500D02*
X45259D01*
X44925D01*
Y93500D01*
X45592D02*
Y94500D01*
X46092D01*
X46258Y94333D01*
Y94000D01*
X46092Y93833D01*
X45592D01*
X47091Y93500D02*
Y94500D01*
X46591Y94000D01*
X47258D01*
X57667Y92500D02*
X58334D01*
X58000D01*
Y91500D01*
X58667D02*
Y92500D01*
X59167D01*
X59333Y92333D01*
Y92000D01*
X59167Y91833D01*
X58667D01*
X59666Y92333D02*
X59833Y92500D01*
X60166D01*
X60333Y92333D01*
Y92167D01*
X60166Y92000D01*
X60000D01*
X60166D01*
X60333Y91833D01*
Y91667D01*
X60166Y91500D01*
X59833D01*
X59666Y91667D01*
X153332Y20691D02*
Y21358D01*
Y21025D01*
X154331D01*
Y21691D02*
X153332D01*
Y22191D01*
X153498Y22358D01*
X153831D01*
X153998Y22191D01*
Y21691D01*
X154331Y23357D02*
Y22691D01*
X153665Y23357D01*
X153498D01*
X153332Y23191D01*
Y22857D01*
X153498Y22691D01*
X129660Y96000D02*
X130326D01*
X129993D01*
Y95000D01*
X130659D02*
Y96000D01*
X131159D01*
X131326Y95833D01*
Y95500D01*
X131159Y95333D01*
X130659D01*
X131659Y95000D02*
X131992D01*
X131826D01*
Y96000D01*
X131659Y95833D01*
X68967Y40634D02*
X68800Y40467D01*
Y40134D01*
X68967Y39967D01*
X69133D01*
X69300Y40134D01*
Y40467D01*
X69467Y40634D01*
X69633D01*
X69800Y40467D01*
Y40134D01*
X69633Y39967D01*
X68800Y40967D02*
X69800D01*
X69467Y41300D01*
X69800Y41633D01*
X68800D01*
X69800Y42633D02*
Y41966D01*
X69133Y42633D01*
X68967D01*
X68800Y42466D01*
Y42133D01*
X68967Y41966D01*
X146334Y73300D02*
Y74300D01*
X146834D01*
X147000Y74133D01*
Y73800D01*
X146834Y73633D01*
X146334D01*
X146667D02*
X147000Y73300D01*
X147833D02*
Y74300D01*
X147333Y73800D01*
X148000D01*
X148333Y73300D02*
X148666D01*
X148500D01*
Y74300D01*
X148333Y74133D01*
X146667Y66452D02*
Y67452D01*
X147167D01*
X147334Y67285D01*
Y66952D01*
X147167Y66785D01*
X146667D01*
X147000D02*
X147334Y66452D01*
X148167D02*
Y67452D01*
X147667Y66952D01*
X148333D01*
X148666Y67285D02*
X148833Y67452D01*
X149166D01*
X149333Y67285D01*
Y66619D01*
X149166Y66452D01*
X148833D01*
X148666Y66619D01*
Y67285D01*
X75777Y49900D02*
Y50900D01*
X76277D01*
X76444Y50733D01*
Y50400D01*
X76277Y50233D01*
X75777D01*
X76110D02*
X76444Y49900D01*
X76777Y50733D02*
X76943Y50900D01*
X77277D01*
X77443Y50733D01*
Y50567D01*
X77277Y50400D01*
X77110D01*
X77277D01*
X77443Y50233D01*
Y50067D01*
X77277Y49900D01*
X76943D01*
X76777Y50067D01*
X77776D02*
X77943Y49900D01*
X78276D01*
X78443Y50067D01*
Y50733D01*
X78276Y50900D01*
X77943D01*
X77776Y50733D01*
Y50567D01*
X77943Y50400D01*
X78443D01*
X116900Y25667D02*
X115900D01*
Y26167D01*
X116067Y26334D01*
X116400D01*
X116567Y26167D01*
Y25667D01*
Y26000D02*
X116900Y26334D01*
X116067Y26667D02*
X115900Y26833D01*
Y27167D01*
X116067Y27333D01*
X116233D01*
X116400Y27167D01*
Y27000D01*
Y27167D01*
X116567Y27333D01*
X116733D01*
X116900Y27167D01*
Y26833D01*
X116733Y26667D01*
X116900Y28166D02*
X115900D01*
X116400Y27666D01*
Y28333D01*
X129267Y55500D02*
Y56500D01*
X129767D01*
X129934Y56333D01*
Y56000D01*
X129767Y55833D01*
X129267D01*
X129600D02*
X129934Y55500D01*
X130267Y56333D02*
X130433Y56500D01*
X130767D01*
X130933Y56333D01*
Y56167D01*
X130767Y56000D01*
X130600D01*
X130767D01*
X130933Y55833D01*
Y55667D01*
X130767Y55500D01*
X130433D01*
X130267Y55667D01*
X131266Y56333D02*
X131433Y56500D01*
X131766D01*
X131933Y56333D01*
Y56167D01*
X131766Y56000D01*
X131600D01*
X131766D01*
X131933Y55833D01*
Y55667D01*
X131766Y55500D01*
X131433D01*
X131266Y55667D01*
X132667Y56600D02*
Y57600D01*
X133167D01*
X133334Y57433D01*
Y57100D01*
X133167Y56933D01*
X132667D01*
X133000D02*
X133334Y56600D01*
X133667Y57433D02*
X133833Y57600D01*
X134167D01*
X134333Y57433D01*
Y57267D01*
X134167Y57100D01*
X134000D01*
X134167D01*
X134333Y56933D01*
Y56767D01*
X134167Y56600D01*
X133833D01*
X133667Y56767D01*
X135333Y56600D02*
X134666D01*
X135333Y57267D01*
Y57433D01*
X135166Y57600D01*
X134833D01*
X134666Y57433D01*
X129434Y50000D02*
Y51000D01*
X129934D01*
X130100Y50833D01*
Y50500D01*
X129934Y50333D01*
X129434D01*
X129767D02*
X130100Y50000D01*
X130433Y50833D02*
X130600Y51000D01*
X130933D01*
X131100Y50833D01*
Y50667D01*
X130933Y50500D01*
X130767D01*
X130933D01*
X131100Y50333D01*
Y50167D01*
X130933Y50000D01*
X130600D01*
X130433Y50167D01*
X131433Y50000D02*
X131766D01*
X131600D01*
Y51000D01*
X131433Y50833D01*
X112467Y29400D02*
Y30400D01*
X112967D01*
X113134Y30233D01*
Y29900D01*
X112967Y29733D01*
X112467D01*
X112800D02*
X113134Y29400D01*
X113467Y30233D02*
X113633Y30400D01*
X113967D01*
X114133Y30233D01*
Y30067D01*
X113967Y29900D01*
X113800D01*
X113967D01*
X114133Y29733D01*
Y29567D01*
X113967Y29400D01*
X113633D01*
X113467Y29567D01*
X114466Y30233D02*
X114633Y30400D01*
X114966D01*
X115133Y30233D01*
Y29567D01*
X114966Y29400D01*
X114633D01*
X114466Y29567D01*
Y30233D01*
X129167Y59600D02*
Y60600D01*
X129667D01*
X129834Y60433D01*
Y60100D01*
X129667Y59933D01*
X129167D01*
X129500D02*
X129834Y59600D01*
X130833D02*
X130167D01*
X130833Y60267D01*
Y60433D01*
X130667Y60600D01*
X130333D01*
X130167Y60433D01*
X131166Y59767D02*
X131333Y59600D01*
X131666D01*
X131833Y59767D01*
Y60433D01*
X131666Y60600D01*
X131333D01*
X131166Y60433D01*
Y60267D01*
X131333Y60100D01*
X131833D01*
X129267Y65400D02*
Y66400D01*
X129767D01*
X129934Y66233D01*
Y65900D01*
X129767Y65733D01*
X129267D01*
X129600D02*
X129934Y65400D01*
X130933D02*
X130267D01*
X130933Y66067D01*
Y66233D01*
X130767Y66400D01*
X130433D01*
X130267Y66233D01*
X131266D02*
X131433Y66400D01*
X131766D01*
X131933Y66233D01*
Y66067D01*
X131766Y65900D01*
X131933Y65733D01*
Y65567D01*
X131766Y65400D01*
X131433D01*
X131266Y65567D01*
Y65733D01*
X131433Y65900D01*
X131266Y66067D01*
Y66233D01*
X131433Y65900D02*
X131766D01*
X133186Y66985D02*
Y67985D01*
X133686D01*
X133853Y67818D01*
Y67485D01*
X133686Y67319D01*
X133186D01*
X133519D02*
X133853Y66985D01*
X134852D02*
X134186D01*
X134852Y67652D01*
Y67818D01*
X134686Y67985D01*
X134352D01*
X134186Y67818D01*
X135186Y67985D02*
X135852D01*
Y67818D01*
X135186Y67152D01*
Y66985D01*
X115842Y21900D02*
Y22900D01*
X116342D01*
X116509Y22733D01*
Y22400D01*
X116342Y22233D01*
X115842D01*
X116175D02*
X116509Y21900D01*
X117508D02*
X116842D01*
X117508Y22567D01*
Y22733D01*
X117342Y22900D01*
X117008D01*
X116842Y22733D01*
X118508Y22900D02*
X118175Y22733D01*
X117841Y22400D01*
Y22067D01*
X118008Y21900D01*
X118341D01*
X118508Y22067D01*
Y22233D01*
X118341Y22400D01*
X117841D01*
X72381Y58340D02*
Y59340D01*
X72881D01*
X73047Y59173D01*
Y58840D01*
X72881Y58673D01*
X72381D01*
X72714D02*
X73047Y58340D01*
X74047D02*
X73381D01*
X74047Y59006D01*
Y59173D01*
X73881Y59340D01*
X73547D01*
X73381Y59173D01*
X75047Y59340D02*
X74380D01*
Y58840D01*
X74714Y59006D01*
X74880D01*
X75047Y58840D01*
Y58507D01*
X74880Y58340D01*
X74547D01*
X74380Y58507D01*
X65520Y35617D02*
X64521D01*
Y36117D01*
X64687Y36284D01*
X65021D01*
X65187Y36117D01*
Y35617D01*
Y35950D02*
X65520Y36284D01*
Y37283D02*
Y36617D01*
X64854Y37283D01*
X64687D01*
X64521Y37117D01*
Y36783D01*
X64687Y36617D01*
X65520Y38116D02*
X64521D01*
X65021Y37616D01*
Y38283D01*
X71595Y18667D02*
X70596D01*
Y19167D01*
X70762Y19334D01*
X71095D01*
X71262Y19167D01*
Y18667D01*
Y19000D02*
X71595Y19334D01*
Y20333D02*
Y19667D01*
X70929Y20333D01*
X70762D01*
X70596Y20167D01*
Y19833D01*
X70762Y19667D01*
Y20666D02*
X70596Y20833D01*
Y21166D01*
X70762Y21333D01*
X70929D01*
X71095Y21166D01*
Y21000D01*
Y21166D01*
X71262Y21333D01*
X71429D01*
X71595Y21166D01*
Y20833D01*
X71429Y20666D01*
X67450Y40254D02*
X66450D01*
Y40754D01*
X66617Y40921D01*
X66950D01*
X67117Y40754D01*
Y40254D01*
Y40587D02*
X67450Y40921D01*
Y41920D02*
Y41254D01*
X66783Y41920D01*
X66617D01*
X66450Y41754D01*
Y41420D01*
X66617Y41254D01*
X67450Y42920D02*
Y42254D01*
X66783Y42920D01*
X66617D01*
X66450Y42753D01*
Y42420D01*
X66617Y42254D01*
X87200Y22967D02*
X86200D01*
Y23467D01*
X86367Y23634D01*
X86700D01*
X86867Y23467D01*
Y22967D01*
Y23300D02*
X87200Y23634D01*
Y24633D02*
Y23967D01*
X86533Y24633D01*
X86367D01*
X86200Y24467D01*
Y24133D01*
X86367Y23967D01*
Y24966D02*
X86200Y25133D01*
Y25466D01*
X86367Y25633D01*
X87033D01*
X87200Y25466D01*
Y25133D01*
X87033Y24966D01*
X86367D01*
X85776Y8680D02*
X84776D01*
Y9180D01*
X84943Y9346D01*
X85276D01*
X85443Y9180D01*
Y8680D01*
Y9013D02*
X85776Y9346D01*
Y9680D02*
Y10013D01*
Y9846D01*
X84776D01*
X84943Y9680D01*
X85609Y10513D02*
X85776Y10679D01*
Y11012D01*
X85609Y11179D01*
X84943D01*
X84776Y11012D01*
Y10679D01*
X84943Y10513D01*
X85110D01*
X85276Y10679D01*
Y11179D01*
X87200Y8675D02*
X86200D01*
Y9175D01*
X86367Y9342D01*
X86700D01*
X86867Y9175D01*
Y8675D01*
Y9009D02*
X87200Y9342D01*
Y9675D02*
Y10008D01*
Y9842D01*
X86200D01*
X86367Y9675D01*
Y10508D02*
X86200Y10675D01*
Y11008D01*
X86367Y11175D01*
X86533D01*
X86700Y11008D01*
X86867Y11175D01*
X87033D01*
X87200Y11008D01*
Y10675D01*
X87033Y10508D01*
X86867D01*
X86700Y10675D01*
X86533Y10508D01*
X86367D01*
X86700Y10675D02*
Y11008D01*
X75600Y8575D02*
Y9575D01*
X76100D01*
X76267Y9408D01*
Y9075D01*
X76100Y8908D01*
X75600D01*
X75934D02*
X76267Y8575D01*
X76600D02*
X76933D01*
X76767D01*
Y9575D01*
X76600Y9408D01*
X77433Y9575D02*
X78100D01*
Y9408D01*
X77433Y8742D01*
Y8575D01*
X93950Y8600D02*
Y9600D01*
X94450D01*
X94617Y9433D01*
Y9100D01*
X94450Y8933D01*
X93950D01*
X94284D02*
X94617Y8600D01*
X94950D02*
X95283D01*
X95117D01*
Y9600D01*
X94950Y9433D01*
X96450Y9600D02*
X96116Y9433D01*
X95783Y9100D01*
Y8767D01*
X95950Y8600D01*
X96283D01*
X96450Y8767D01*
Y8933D01*
X96283Y9100D01*
X95783D01*
X33734Y59030D02*
Y60030D01*
X34234D01*
X34400Y59863D01*
Y59530D01*
X34234Y59363D01*
X33734D01*
X34067D02*
X34400Y59030D01*
X34734D02*
X35067D01*
X34900D01*
Y60030D01*
X34734Y59863D01*
X36233Y60030D02*
X35567D01*
Y59530D01*
X35900Y59697D01*
X36066D01*
X36233Y59530D01*
Y59197D01*
X36066Y59030D01*
X35733D01*
X35567Y59197D01*
X33850Y64275D02*
Y65275D01*
X34350D01*
X34517Y65108D01*
Y64775D01*
X34350Y64608D01*
X33850D01*
X34184D02*
X34517Y64275D01*
X34850D02*
X35183D01*
X35017D01*
Y65275D01*
X34850Y65108D01*
X36183Y64275D02*
Y65275D01*
X35683Y64775D01*
X36350D01*
X33734Y57182D02*
Y58182D01*
X34234D01*
X34400Y58015D01*
Y57682D01*
X34234Y57515D01*
X33734D01*
X34067D02*
X34400Y57182D01*
X34734D02*
X35067D01*
X34900D01*
Y58182D01*
X34734Y58015D01*
X35567D02*
X35733Y58182D01*
X36066D01*
X36233Y58015D01*
Y57849D01*
X36066Y57682D01*
X35900D01*
X36066D01*
X36233Y57515D01*
Y57349D01*
X36066Y57182D01*
X35733D01*
X35567Y57349D01*
X33750Y62384D02*
Y63384D01*
X34250D01*
X34417Y63217D01*
Y62884D01*
X34250Y62717D01*
X33750D01*
X34084D02*
X34417Y62384D01*
X34750D02*
X35083D01*
X34917D01*
Y63384D01*
X34750Y63217D01*
X36250Y62384D02*
X35583D01*
X36250Y63050D01*
Y63217D01*
X36083Y63384D01*
X35750D01*
X35583Y63217D01*
X33692Y69323D02*
Y70322D01*
X34192D01*
X34358Y70156D01*
Y69822D01*
X34192Y69656D01*
X33692D01*
X34025D02*
X34358Y69323D01*
X34691D02*
X35025D01*
X34858D01*
Y70322D01*
X34691Y70156D01*
X35524Y69323D02*
X35858D01*
X35691D01*
Y70322D01*
X35524Y70156D01*
X33750Y74351D02*
Y75351D01*
X34249D01*
X34416Y75184D01*
Y74851D01*
X34249Y74684D01*
X33750D01*
X34083D02*
X34416Y74351D01*
X34749D02*
X35082D01*
X34916D01*
Y75351D01*
X34749Y75184D01*
X35582D02*
X35749Y75351D01*
X36082D01*
X36249Y75184D01*
Y74518D01*
X36082Y74351D01*
X35749D01*
X35582Y74518D01*
Y75184D01*
X33740Y79424D02*
Y80424D01*
X34239D01*
X34406Y80257D01*
Y79924D01*
X34239Y79758D01*
X33740D01*
X34073D02*
X34406Y79424D01*
X34739Y79591D02*
X34906Y79424D01*
X35239D01*
X35406Y79591D01*
Y80257D01*
X35239Y80424D01*
X34906D01*
X34739Y80257D01*
Y80091D01*
X34906Y79924D01*
X35406D01*
X33817Y67375D02*
Y68375D01*
X34317D01*
X34483Y68208D01*
Y67875D01*
X34317Y67708D01*
X33817D01*
X34150D02*
X34483Y67375D01*
X34817Y68208D02*
X34983Y68375D01*
X35316D01*
X35483Y68208D01*
Y68042D01*
X35316Y67875D01*
X35483Y67708D01*
Y67542D01*
X35316Y67375D01*
X34983D01*
X34817Y67542D01*
Y67708D01*
X34983Y67875D01*
X34817Y68042D01*
Y68208D01*
X34983Y67875D02*
X35316D01*
X33672Y72398D02*
Y73398D01*
X34172D01*
X34339Y73231D01*
Y72898D01*
X34172Y72731D01*
X33672D01*
X34005D02*
X34339Y72398D01*
X34672Y73398D02*
X35338D01*
Y73231D01*
X34672Y72565D01*
Y72398D01*
X33717Y77494D02*
Y78493D01*
X34217D01*
X34384Y78327D01*
Y77994D01*
X34217Y77827D01*
X33717D01*
X34050D02*
X34384Y77494D01*
X35383Y78493D02*
X35050Y78327D01*
X34717Y77994D01*
Y77660D01*
X34883Y77494D01*
X35217D01*
X35383Y77660D01*
Y77827D01*
X35217Y77994D01*
X34717D01*
X48167Y56600D02*
Y57600D01*
X48667D01*
X48833Y57433D01*
Y57100D01*
X48667Y56933D01*
X48167D01*
X48500D02*
X48833Y56600D01*
X49167Y57433D02*
X49333Y57600D01*
X49666D01*
X49833Y57433D01*
Y57267D01*
X49666Y57100D01*
X49500D01*
X49666D01*
X49833Y56933D01*
Y56767D01*
X49666Y56600D01*
X49333D01*
X49167Y56767D01*
X46640Y54500D02*
Y55500D01*
X47139D01*
X47306Y55333D01*
Y55000D01*
X47139Y54833D01*
X46640D01*
X46973D02*
X47306Y54500D01*
X48306D02*
X47639D01*
X48306Y55167D01*
Y55333D01*
X48139Y55500D01*
X47806D01*
X47639Y55333D01*
X40734Y78400D02*
Y79400D01*
X41233D01*
X41400Y79233D01*
Y78900D01*
X41233Y78733D01*
X40734D01*
X41067D02*
X41400Y78400D01*
X41733D02*
X42066D01*
X41900D01*
Y79400D01*
X41733Y79233D01*
X133583Y48427D02*
Y49093D01*
X133417Y49260D01*
X133084D01*
X132917Y49093D01*
Y48427D01*
X133084Y48260D01*
X133417D01*
X133250Y48593D02*
X133583Y48260D01*
X133417D02*
X133583Y48427D01*
X133917Y48260D02*
X134250D01*
X134083D01*
Y49260D01*
X133917Y49093D01*
X134750Y48260D02*
X135083D01*
X134916D01*
Y49260D01*
X134750Y49093D01*
X138517Y45267D02*
Y45933D01*
X138350Y46100D01*
X138017D01*
X137850Y45933D01*
Y45267D01*
X138017Y45100D01*
X138350D01*
X138184Y45433D02*
X138517Y45100D01*
X138350D02*
X138517Y45267D01*
X138850Y45100D02*
X139183D01*
X139017D01*
Y46100D01*
X138850Y45933D01*
X139683D02*
X139850Y46100D01*
X140183D01*
X140350Y45933D01*
Y45267D01*
X140183Y45100D01*
X139850D01*
X139683Y45267D01*
Y45933D01*
X121233Y31267D02*
Y31933D01*
X121067Y32100D01*
X120734D01*
X120567Y31933D01*
Y31267D01*
X120734Y31100D01*
X121067D01*
X120900Y31433D02*
X121233Y31100D01*
X121067D02*
X121233Y31267D01*
X121567D02*
X121733Y31100D01*
X122066D01*
X122233Y31267D01*
Y31933D01*
X122066Y32100D01*
X121733D01*
X121567Y31933D01*
Y31767D01*
X121733Y31600D01*
X122233D01*
X133658Y58227D02*
Y58893D01*
X133492Y59060D01*
X133159D01*
X132992Y58893D01*
Y58227D01*
X133159Y58060D01*
X133492D01*
X133325Y58393D02*
X133658Y58060D01*
X133492D02*
X133658Y58227D01*
X133992Y58893D02*
X134158Y59060D01*
X134491D01*
X134658Y58893D01*
Y58727D01*
X134491Y58560D01*
X134658Y58393D01*
Y58227D01*
X134491Y58060D01*
X134158D01*
X133992Y58227D01*
Y58393D01*
X134158Y58560D01*
X133992Y58727D01*
Y58893D01*
X134158Y58560D02*
X134491D01*
X138333Y66367D02*
Y67033D01*
X138167Y67200D01*
X137834D01*
X137667Y67033D01*
Y66367D01*
X137834Y66200D01*
X138167D01*
X138000Y66533D02*
X138333Y66200D01*
X138167D02*
X138333Y66367D01*
X138667Y67200D02*
X139333D01*
Y67033D01*
X138667Y66367D01*
Y66200D01*
X70608Y33450D02*
Y34117D01*
X70441Y34283D01*
X70108D01*
X69941Y34117D01*
Y33450D01*
X70108Y33284D01*
X70441D01*
X70274Y33617D02*
X70608Y33284D01*
X70441D02*
X70608Y33450D01*
X71607Y34283D02*
X71274Y34117D01*
X70941Y33784D01*
Y33450D01*
X71107Y33284D01*
X71441D01*
X71607Y33450D01*
Y33617D01*
X71441Y33784D01*
X70941D01*
X24233Y58367D02*
Y59033D01*
X24067Y59200D01*
X23734D01*
X23567Y59033D01*
Y58367D01*
X23734Y58200D01*
X24067D01*
X23900Y58533D02*
X24233Y58200D01*
X24067D02*
X24233Y58367D01*
X25233Y59200D02*
X24567D01*
Y58700D01*
X24900Y58867D01*
X25066D01*
X25233Y58700D01*
Y58367D01*
X25066Y58200D01*
X24733D01*
X24567Y58367D01*
X24233Y63447D02*
Y64113D01*
X24067Y64280D01*
X23734D01*
X23567Y64113D01*
Y63447D01*
X23734Y63280D01*
X24067D01*
X23900Y63613D02*
X24233Y63280D01*
X24067D02*
X24233Y63447D01*
X25066Y63280D02*
Y64280D01*
X24567Y63780D01*
X25233D01*
X72667Y74500D02*
Y75500D01*
X73167D01*
X73333Y75333D01*
Y75000D01*
X73167Y74833D01*
X72667D01*
X73667Y75500D02*
X74333D01*
Y75333D01*
X73667Y74667D01*
Y74500D01*
X112192Y74365D02*
Y75365D01*
X112692D01*
X112859Y75198D01*
Y74865D01*
X112692Y74698D01*
X112192D01*
X113858Y75365D02*
X113525Y75198D01*
X113192Y74865D01*
Y74532D01*
X113359Y74365D01*
X113692D01*
X113858Y74532D01*
Y74698D01*
X113692Y74865D01*
X113192D01*
X120963Y59979D02*
Y60979D01*
X121463D01*
X121630Y60812D01*
Y60479D01*
X121463Y60312D01*
X120963D01*
X122463Y59979D02*
Y60979D01*
X121963Y60479D01*
X122629D01*
X120767Y33900D02*
Y34900D01*
X121267D01*
X121433Y34733D01*
Y34400D01*
X121267Y34233D01*
X120767D01*
X121767Y34733D02*
X121933Y34900D01*
X122266D01*
X122433Y34733D01*
Y34567D01*
X122266Y34400D01*
X122100D01*
X122266D01*
X122433Y34233D01*
Y34067D01*
X122266Y33900D01*
X121933D01*
X121767Y34067D01*
X20167Y54740D02*
Y55740D01*
X20667D01*
X20833Y55573D01*
Y55240D01*
X20667Y55073D01*
X20167D01*
X21833Y54740D02*
X21167D01*
X21833Y55407D01*
Y55573D01*
X21666Y55740D01*
X21333D01*
X21167Y55573D01*
X19834Y86500D02*
Y87500D01*
X20333D01*
X20500Y87333D01*
Y87000D01*
X20333Y86833D01*
X19834D01*
X20833Y86500D02*
X21166D01*
X21000D01*
Y87500D01*
X20833Y87333D01*
X62235Y86685D02*
Y85685D01*
X62902D01*
X63235D02*
X63568D01*
X63402D01*
Y86685D01*
X63235Y86518D01*
X148433Y54300D02*
X148100D01*
X148267D01*
Y53467D01*
X148100Y53300D01*
X147934D01*
X147767Y53467D01*
X149433Y54300D02*
X148767D01*
Y53800D01*
X149100Y53967D01*
X149266D01*
X149433Y53800D01*
Y53467D01*
X149266Y53300D01*
X148933D01*
X148767Y53467D01*
X127108Y33700D02*
X126775D01*
X126942D01*
Y32867D01*
X126775Y32700D01*
X126609D01*
X126442Y32867D01*
X127941Y32700D02*
Y33700D01*
X127442Y33200D01*
X128108D01*
X154933Y72946D02*
X154600D01*
X154767D01*
Y72113D01*
X154600Y71947D01*
X154434D01*
X154267Y72113D01*
X155267Y72780D02*
X155433Y72946D01*
X155766D01*
X155933Y72780D01*
Y72613D01*
X155766Y72446D01*
X155600D01*
X155766D01*
X155933Y72280D01*
Y72113D01*
X155766Y71947D01*
X155433D01*
X155267Y72113D01*
X152633Y86400D02*
X152300D01*
X152467D01*
Y85567D01*
X152300Y85400D01*
X152134D01*
X151967Y85567D01*
X153633Y85400D02*
X152967D01*
X153633Y86067D01*
Y86233D01*
X153466Y86400D01*
X153133D01*
X152967Y86233D01*
X145900Y93900D02*
X145567D01*
X145733D01*
Y93067D01*
X145567Y92900D01*
X145400D01*
X145234Y93067D01*
X146233Y92900D02*
X146566D01*
X146400D01*
Y93900D01*
X146233Y93733D01*
X77098Y59739D02*
Y58739D01*
X77598D01*
X77764Y58905D01*
Y59572D01*
X77598Y59739D01*
X77098D01*
X78098Y59572D02*
X78264Y59739D01*
X78597D01*
X78764Y59572D01*
Y59405D01*
X78597Y59239D01*
X78431D01*
X78597D01*
X78764Y59072D01*
Y58905D01*
X78597Y58739D01*
X78264D01*
X78098Y58905D01*
X150267Y73200D02*
Y72200D01*
X150767D01*
X150933Y72367D01*
Y73033D01*
X150767Y73200D01*
X150267D01*
X151933Y72200D02*
X151267D01*
X151933Y72867D01*
Y73033D01*
X151766Y73200D01*
X151433D01*
X151267Y73033D01*
X142334Y83500D02*
Y82500D01*
X142833D01*
X143000Y82667D01*
Y83333D01*
X142833Y83500D01*
X142334D01*
X143333Y82500D02*
X143666D01*
X143500D01*
Y83500D01*
X143333Y83333D01*
X85824Y67414D02*
X85657Y67581D01*
X85324D01*
X85157Y67414D01*
Y66748D01*
X85324Y66581D01*
X85657D01*
X85824Y66748D01*
X86657Y66581D02*
Y67581D01*
X86157Y67081D01*
X86823D01*
X87157Y67414D02*
X87323Y67581D01*
X87656D01*
X87823Y67414D01*
Y66748D01*
X87656Y66581D01*
X87323D01*
X87157Y66748D01*
Y67414D01*
X99502Y49312D02*
X99335Y49145D01*
Y48812D01*
X99502Y48645D01*
X100168D01*
X100335Y48812D01*
Y49145D01*
X100168Y49312D01*
X99502Y49645D02*
X99335Y49812D01*
Y50145D01*
X99502Y50312D01*
X99668D01*
X99835Y50145D01*
Y49978D01*
Y50145D01*
X100002Y50312D01*
X100168D01*
X100335Y50145D01*
Y49812D01*
X100168Y49645D01*
Y50645D02*
X100335Y50811D01*
Y51145D01*
X100168Y51311D01*
X99502D01*
X99335Y51145D01*
Y50811D01*
X99502Y50645D01*
X99668D01*
X99835Y50811D01*
Y51311D01*
X86509Y38258D02*
X86342Y38425D01*
X86009D01*
X85842Y38258D01*
Y37592D01*
X86009Y37425D01*
X86342D01*
X86509Y37592D01*
X86842Y38258D02*
X87008Y38425D01*
X87342D01*
X87508Y38258D01*
Y38092D01*
X87342Y37925D01*
X87175D01*
X87342D01*
X87508Y37758D01*
Y37592D01*
X87342Y37425D01*
X87008D01*
X86842Y37592D01*
X87841Y38258D02*
X88008Y38425D01*
X88341D01*
X88508Y38258D01*
Y38092D01*
X88341Y37925D01*
X88508Y37758D01*
Y37592D01*
X88341Y37425D01*
X88008D01*
X87841Y37592D01*
Y37758D01*
X88008Y37925D01*
X87841Y38092D01*
Y38258D01*
X88008Y37925D02*
X88341D01*
X71064Y53467D02*
X70897Y53634D01*
X70564D01*
X70397Y53467D01*
Y52801D01*
X70564Y52634D01*
X70897D01*
X71064Y52801D01*
X71397Y53467D02*
X71564Y53634D01*
X71897D01*
X72064Y53467D01*
Y53301D01*
X71897Y53134D01*
X71730D01*
X71897D01*
X72064Y52968D01*
Y52801D01*
X71897Y52634D01*
X71564D01*
X71397Y52801D01*
X72397Y53634D02*
X73063D01*
Y53467D01*
X72397Y52801D01*
Y52634D01*
X81934Y38308D02*
X81767Y38475D01*
X81434D01*
X81267Y38308D01*
Y37642D01*
X81434Y37475D01*
X81767D01*
X81934Y37642D01*
X82267Y38308D02*
X82433Y38475D01*
X82767D01*
X82933Y38308D01*
Y38142D01*
X82767Y37975D01*
X82600D01*
X82767D01*
X82933Y37808D01*
Y37642D01*
X82767Y37475D01*
X82433D01*
X82267Y37642D01*
X83933Y38475D02*
X83600Y38308D01*
X83266Y37975D01*
Y37642D01*
X83433Y37475D01*
X83766D01*
X83933Y37642D01*
Y37808D01*
X83766Y37975D01*
X83266D01*
X76934Y47133D02*
X76767Y47300D01*
X76434D01*
X76267Y47133D01*
Y46467D01*
X76434Y46300D01*
X76767D01*
X76934Y46467D01*
X77267Y47133D02*
X77433Y47300D01*
X77767D01*
X77933Y47133D01*
Y46967D01*
X77767Y46800D01*
X77600D01*
X77767D01*
X77933Y46633D01*
Y46467D01*
X77767Y46300D01*
X77433D01*
X77267Y46467D01*
X78933Y47300D02*
X78266D01*
Y46800D01*
X78600Y46967D01*
X78766D01*
X78933Y46800D01*
Y46467D01*
X78766Y46300D01*
X78433D01*
X78266Y46467D01*
X79684Y14033D02*
X79517Y14200D01*
X79184D01*
X79017Y14033D01*
Y13367D01*
X79184Y13200D01*
X79517D01*
X79684Y13367D01*
X80017Y14033D02*
X80183Y14200D01*
X80517D01*
X80683Y14033D01*
Y13867D01*
X80517Y13700D01*
X80350D01*
X80517D01*
X80683Y13533D01*
Y13367D01*
X80517Y13200D01*
X80183D01*
X80017Y13367D01*
X81516Y13200D02*
Y14200D01*
X81016Y13700D01*
X81683D01*
X90784Y14033D02*
X90617Y14200D01*
X90284D01*
X90117Y14033D01*
Y13367D01*
X90284Y13200D01*
X90617D01*
X90784Y13367D01*
X91117Y14033D02*
X91283Y14200D01*
X91617D01*
X91783Y14033D01*
Y13867D01*
X91617Y13700D01*
X91450D01*
X91617D01*
X91783Y13533D01*
Y13367D01*
X91617Y13200D01*
X91283D01*
X91117Y13367D01*
X92116Y14033D02*
X92283Y14200D01*
X92616D01*
X92783Y14033D01*
Y13867D01*
X92616Y13700D01*
X92450D01*
X92616D01*
X92783Y13533D01*
Y13367D01*
X92616Y13200D01*
X92283D01*
X92116Y13367D01*
X75148Y65993D02*
X74982Y66160D01*
X74648D01*
X74482Y65993D01*
Y65327D01*
X74648Y65160D01*
X74982D01*
X75148Y65327D01*
X75481Y65993D02*
X75648Y66160D01*
X75981D01*
X76148Y65993D01*
Y65827D01*
X75981Y65660D01*
X75815D01*
X75981D01*
X76148Y65493D01*
Y65327D01*
X75981Y65160D01*
X75648D01*
X75481Y65327D01*
X77147Y65160D02*
X76481D01*
X77147Y65827D01*
Y65993D01*
X76981Y66160D01*
X76648D01*
X76481Y65993D01*
X58792Y63550D02*
X58625Y63384D01*
Y63050D01*
X58792Y62884D01*
X59458D01*
X59625Y63050D01*
Y63384D01*
X59458Y63550D01*
X58792Y63884D02*
X58625Y64050D01*
Y64383D01*
X58792Y64550D01*
X58958D01*
X59125Y64383D01*
Y64217D01*
Y64383D01*
X59292Y64550D01*
X59458D01*
X59625Y64383D01*
Y64050D01*
X59458Y63884D01*
X59625Y64883D02*
Y65216D01*
Y65050D01*
X58625D01*
X58792Y64883D01*
X61537Y63217D02*
X61370Y63050D01*
Y62717D01*
X61537Y62551D01*
X62203D01*
X62370Y62717D01*
Y63050D01*
X62203Y63217D01*
X61537Y63550D02*
X61370Y63717D01*
Y64050D01*
X61537Y64217D01*
X61703D01*
X61870Y64050D01*
Y63884D01*
Y64050D01*
X62037Y64217D01*
X62203D01*
X62370Y64050D01*
Y63717D01*
X62203Y63550D01*
X61537Y64550D02*
X61370Y64717D01*
Y65050D01*
X61537Y65216D01*
X62203D01*
X62370Y65050D01*
Y64717D01*
X62203Y64550D01*
X61537D01*
X64077Y63217D02*
X63910Y63050D01*
Y62717D01*
X64077Y62551D01*
X64743D01*
X64910Y62717D01*
Y63050D01*
X64743Y63217D01*
X64910Y64217D02*
Y63550D01*
X64243Y64217D01*
X64077D01*
X63910Y64050D01*
Y63717D01*
X64077Y63550D01*
X64743Y64550D02*
X64910Y64717D01*
Y65050D01*
X64743Y65216D01*
X64077D01*
X63910Y65050D01*
Y64717D01*
X64077Y64550D01*
X64243D01*
X64410Y64717D01*
Y65216D01*
X66617Y63217D02*
X66450Y63050D01*
Y62717D01*
X66617Y62551D01*
X67283D01*
X67450Y62717D01*
Y63050D01*
X67283Y63217D01*
X67450Y64217D02*
Y63550D01*
X66783Y64217D01*
X66617D01*
X66450Y64050D01*
Y63717D01*
X66617Y63550D01*
Y64550D02*
X66450Y64717D01*
Y65050D01*
X66617Y65216D01*
X66783D01*
X66950Y65050D01*
X67117Y65216D01*
X67283D01*
X67450Y65050D01*
Y64717D01*
X67283Y64550D01*
X67117D01*
X66950Y64717D01*
X66783Y64550D01*
X66617D01*
X66950Y64717D02*
Y65050D01*
X69167Y63234D02*
X69000Y63067D01*
Y62734D01*
X69167Y62567D01*
X69833D01*
X70000Y62734D01*
Y63067D01*
X69833Y63234D01*
X70000Y64233D02*
Y63567D01*
X69333Y64233D01*
X69167D01*
X69000Y64067D01*
Y63733D01*
X69167Y63567D01*
X69000Y64566D02*
Y65233D01*
X69167D01*
X69833Y64566D01*
X70000D01*
X71697Y63217D02*
X71530Y63050D01*
Y62717D01*
X71697Y62551D01*
X72363D01*
X72530Y62717D01*
Y63050D01*
X72363Y63217D01*
X72530Y64217D02*
Y63550D01*
X71863Y64217D01*
X71697D01*
X71530Y64050D01*
Y63717D01*
X71697Y63550D01*
X71530Y65216D02*
X71697Y64883D01*
X72030Y64550D01*
X72363D01*
X72530Y64717D01*
Y65050D01*
X72363Y65216D01*
X72197D01*
X72030Y65050D01*
Y64550D01*
X59334Y47533D02*
X59167Y47700D01*
X58834D01*
X58667Y47533D01*
Y46867D01*
X58834Y46700D01*
X59167D01*
X59334Y46867D01*
X60333Y46700D02*
X59667D01*
X60333Y47367D01*
Y47533D01*
X60167Y47700D01*
X59833D01*
X59667Y47533D01*
X61333Y47700D02*
X60666D01*
Y47200D01*
X61000Y47367D01*
X61166D01*
X61333Y47200D01*
Y46867D01*
X61166Y46700D01*
X60833D01*
X60666Y46867D01*
X54634Y47933D02*
X54467Y48100D01*
X54134D01*
X53967Y47933D01*
Y47267D01*
X54134Y47100D01*
X54467D01*
X54634Y47267D01*
X55633Y47100D02*
X54967D01*
X55633Y47767D01*
Y47933D01*
X55467Y48100D01*
X55133D01*
X54967Y47933D01*
X56466Y47100D02*
Y48100D01*
X55966Y47600D01*
X56633D01*
X39334Y30333D02*
X39167Y30500D01*
X38834D01*
X38667Y30333D01*
Y29667D01*
X38834Y29500D01*
X39167D01*
X39334Y29667D01*
X40333Y29500D02*
X39667D01*
X40333Y30167D01*
Y30333D01*
X40167Y30500D01*
X39833D01*
X39667Y30333D01*
X40666D02*
X40833Y30500D01*
X41166D01*
X41333Y30333D01*
Y30167D01*
X41166Y30000D01*
X41000D01*
X41166D01*
X41333Y29833D01*
Y29667D01*
X41166Y29500D01*
X40833D01*
X40666Y29667D01*
X42734Y30233D02*
X42567Y30400D01*
X42234D01*
X42067Y30233D01*
Y29567D01*
X42234Y29400D01*
X42567D01*
X42734Y29567D01*
X43733Y29400D02*
X43067D01*
X43733Y30067D01*
Y30233D01*
X43567Y30400D01*
X43233D01*
X43067Y30233D01*
X44733Y29400D02*
X44066D01*
X44733Y30067D01*
Y30233D01*
X44566Y30400D01*
X44233D01*
X44066Y30233D01*
X46200D02*
X46034Y30400D01*
X45700D01*
X45534Y30233D01*
Y29567D01*
X45700Y29400D01*
X46034D01*
X46200Y29567D01*
X47200Y29400D02*
X46533D01*
X47200Y30067D01*
Y30233D01*
X47033Y30400D01*
X46700D01*
X46533Y30233D01*
X47533Y29400D02*
X47866D01*
X47700D01*
Y30400D01*
X47533Y30233D01*
X55417Y27183D02*
X55250Y27350D01*
X54917D01*
X54750Y27183D01*
Y26517D01*
X54917Y26350D01*
X55250D01*
X55417Y26517D01*
X55750Y26350D02*
X56083D01*
X55917D01*
Y27350D01*
X55750Y27183D01*
X56583Y26517D02*
X56750Y26350D01*
X57083D01*
X57250Y26517D01*
Y27183D01*
X57083Y27350D01*
X56750D01*
X56583Y27183D01*
Y27017D01*
X56750Y26850D01*
X57250D01*
X46890Y53239D02*
X46723Y53405D01*
X46390D01*
X46223Y53239D01*
Y52572D01*
X46390Y52406D01*
X46723D01*
X46890Y52572D01*
X47223Y52406D02*
X47556D01*
X47389D01*
Y53405D01*
X47223Y53239D01*
X48056D02*
X48222Y53405D01*
X48556D01*
X48722Y53239D01*
Y53072D01*
X48556Y52906D01*
X48722Y52739D01*
Y52572D01*
X48556Y52406D01*
X48222D01*
X48056Y52572D01*
Y52739D01*
X48222Y52906D01*
X48056Y53072D01*
Y53239D01*
X48222Y52906D02*
X48556D01*
X34942Y34137D02*
X34775Y33970D01*
Y33637D01*
X34942Y33470D01*
X35608D01*
X35775Y33637D01*
Y33970D01*
X35608Y34137D01*
X35775Y34470D02*
Y34803D01*
Y34637D01*
X34775D01*
X34942Y34470D01*
X34775Y35303D02*
Y35970D01*
X34942D01*
X35608Y35303D01*
X35775D01*
X34899Y40417D02*
X34733Y40250D01*
Y39917D01*
X34899Y39750D01*
X35566D01*
X35732Y39917D01*
Y40250D01*
X35566Y40417D01*
X35732Y40750D02*
Y41083D01*
Y40917D01*
X34733D01*
X34899Y40750D01*
X34733Y42250D02*
X34899Y41916D01*
X35232Y41583D01*
X35566D01*
X35732Y41750D01*
Y42083D01*
X35566Y42250D01*
X35399D01*
X35232Y42083D01*
Y41583D01*
X35067Y44017D02*
X34900Y43850D01*
Y43517D01*
X35067Y43350D01*
X35733D01*
X35900Y43517D01*
Y43850D01*
X35733Y44017D01*
X35900Y44350D02*
Y44683D01*
Y44517D01*
X34900D01*
X35067Y44350D01*
X34900Y45850D02*
Y45183D01*
X35400D01*
X35233Y45516D01*
Y45683D01*
X35400Y45850D01*
X35733D01*
X35900Y45683D01*
Y45350D01*
X35733Y45183D01*
X36217Y30333D02*
X36050Y30500D01*
X35717D01*
X35550Y30333D01*
Y29667D01*
X35717Y29500D01*
X36050D01*
X36217Y29667D01*
X36550Y29500D02*
X36883D01*
X36717D01*
Y30500D01*
X36550Y30333D01*
X37883Y29500D02*
Y30500D01*
X37383Y30000D01*
X38050D01*
X38255Y56027D02*
X38088Y56194D01*
X37755D01*
X37589Y56027D01*
Y55361D01*
X37755Y55194D01*
X38088D01*
X38255Y55361D01*
X38588Y55194D02*
X38921D01*
X38755D01*
Y56194D01*
X38588Y56027D01*
X39421D02*
X39588Y56194D01*
X39921D01*
X40088Y56027D01*
Y55861D01*
X39921Y55694D01*
X39755D01*
X39921D01*
X40088Y55527D01*
Y55361D01*
X39921Y55194D01*
X39588D01*
X39421Y55361D01*
X54617Y54633D02*
X54450Y54800D01*
X54117D01*
X53950Y54633D01*
Y53967D01*
X54117Y53800D01*
X54450D01*
X54617Y53967D01*
X54950Y53800D02*
X55283D01*
X55117D01*
Y54800D01*
X54950Y54633D01*
X56450Y53800D02*
X55783D01*
X56450Y54467D01*
Y54633D01*
X56283Y54800D01*
X55950D01*
X55783Y54633D01*
X52983Y30233D02*
X52817Y30400D01*
X52484D01*
X52317Y30233D01*
Y29567D01*
X52484Y29400D01*
X52817D01*
X52983Y29567D01*
X53317Y29400D02*
X53650D01*
X53483D01*
Y30400D01*
X53317Y30233D01*
X54150Y29400D02*
X54483D01*
X54316D01*
Y30400D01*
X54150Y30233D01*
X43488Y70323D02*
X43322Y70490D01*
X42989D01*
X42822Y70323D01*
Y69657D01*
X42989Y69490D01*
X43322D01*
X43488Y69657D01*
X43822Y69490D02*
X44155D01*
X43988D01*
Y70490D01*
X43822Y70323D01*
X44655D02*
X44821Y70490D01*
X45155D01*
X45321Y70323D01*
Y69657D01*
X45155Y69490D01*
X44821D01*
X44655Y69657D01*
Y70323D01*
X32714Y54280D02*
X32547Y54447D01*
X32214D01*
X32047Y54280D01*
Y53614D01*
X32214Y53447D01*
X32547D01*
X32714Y53614D01*
X33047D02*
X33214Y53447D01*
X33547D01*
X33714Y53614D01*
Y54280D01*
X33547Y54447D01*
X33214D01*
X33047Y54280D01*
Y54114D01*
X33214Y53947D01*
X33714D01*
X122216Y83050D02*
X122049Y82884D01*
Y82550D01*
X122216Y82384D01*
X122883D01*
X123049Y82550D01*
Y82884D01*
X122883Y83050D01*
X122049Y83384D02*
Y84050D01*
X122216D01*
X122883Y83384D01*
X123049D01*
X77433Y84633D02*
X77267Y84800D01*
X76934D01*
X76767Y84633D01*
Y83967D01*
X76934Y83800D01*
X77267D01*
X77433Y83967D01*
X78433Y84800D02*
X78100Y84633D01*
X77767Y84300D01*
Y83967D01*
X77933Y83800D01*
X78266D01*
X78433Y83967D01*
Y84133D01*
X78266Y84300D01*
X77767D01*
X77265Y95625D02*
X77099Y95791D01*
X76766D01*
X76599Y95625D01*
Y94958D01*
X76766Y94792D01*
X77099D01*
X77265Y94958D01*
X78265Y95791D02*
X77599D01*
Y95291D01*
X77932Y95458D01*
X78098D01*
X78265Y95291D01*
Y94958D01*
X78098Y94792D01*
X77765D01*
X77599Y94958D01*
X53757Y90835D02*
X53590Y91001D01*
X53257D01*
X53090Y90835D01*
Y90168D01*
X53257Y90001D01*
X53590D01*
X53757Y90168D01*
X54590Y90001D02*
Y91001D01*
X54090Y90501D01*
X54757D01*
X53931Y85133D02*
X53764Y85300D01*
X53431D01*
X53265Y85133D01*
Y84467D01*
X53431Y84300D01*
X53764D01*
X53931Y84467D01*
X54264Y85133D02*
X54431Y85300D01*
X54764D01*
X54931Y85133D01*
Y84967D01*
X54764Y84800D01*
X54597D01*
X54764D01*
X54931Y84633D01*
Y84467D01*
X54764Y84300D01*
X54431D01*
X54264Y84467D01*
X51213Y78321D02*
X51046Y78487D01*
X50713D01*
X50546Y78321D01*
Y77654D01*
X50713Y77488D01*
X51046D01*
X51213Y77654D01*
X52212Y77488D02*
X51546D01*
X52212Y78154D01*
Y78321D01*
X52046Y78487D01*
X51712D01*
X51546Y78321D01*
X51478Y75349D02*
X51312Y75515D01*
X50978D01*
X50812Y75349D01*
Y74682D01*
X50978Y74515D01*
X51312D01*
X51478Y74682D01*
X51811Y74515D02*
X52145D01*
X51978D01*
Y75515D01*
X51811Y75349D01*
D113*
X124264Y122320D02*
G03*
X124264Y122320I-1854J0D01*
G01*
X68252Y161775D02*
G03*
X68252Y161775I-127J0D01*
G01*
X109024Y122320D02*
G03*
X109024Y122320I-1854J0D01*
G01*
X73078Y159160D02*
Y160760D01*
X74170Y159160D02*
X74450D01*
X75542D02*
Y160760D01*
X47869Y166131D02*
X48414D01*
X58131Y165586D02*
Y166131D01*
X57586Y155869D02*
X58131D01*
X47869Y165586D02*
Y166131D01*
X57586D02*
X58131D01*
Y155869D02*
Y156414D01*
X47869Y155869D02*
X48414D01*
X47869D02*
Y156414D01*
X125636Y125288D02*
Y125546D01*
X119184Y119094D02*
X125636D01*
Y119352D01*
X119184Y125546D02*
X125636D01*
X119184Y125288D02*
Y125546D01*
Y120788D02*
Y123852D01*
Y119094D02*
Y119352D01*
X125636Y120788D02*
Y123852D01*
X68430Y160632D02*
X70030D01*
Y158168D02*
Y158834D01*
X68430Y158168D02*
X70030D01*
Y159966D02*
Y160632D01*
X110396Y125288D02*
Y125546D01*
X103944Y119094D02*
X110396D01*
Y119352D01*
X103944Y125546D02*
X110396D01*
X103944Y125288D02*
Y125546D01*
Y120788D02*
Y123852D01*
Y119094D02*
Y119352D01*
X110396Y120788D02*
Y123852D01*
X28425Y180839D02*
Y184344D01*
X23167Y180839D02*
Y184344D01*
X80869Y57131D02*
X81778D01*
X80869Y56222D02*
Y57131D01*
Y46869D02*
X81778D01*
X91131D02*
Y47778D01*
X90222Y57131D02*
X91131D01*
X80869Y46869D02*
Y47778D01*
X90222Y46869D02*
X91131D01*
Y56222D02*
Y57131D01*
X91703Y27984D02*
X92041Y28154D01*
X92380Y28492D01*
Y28831D01*
X92211Y29000D01*
X91872D01*
X91703Y28831D01*
Y28661D01*
X91872Y28492D01*
X92380D01*
X104820Y29000D02*
X104481D01*
X104651D01*
Y27984D01*
X104820Y28154D01*
D114*
X147490Y113420D02*
G03*
X147490Y113420I-200J0D01*
G01*
D115*
X14001Y107500D02*
G03*
X16915Y108336I0J5500D01*
G01*
X13999Y118500D02*
G03*
X11085Y117664I0J-5500D01*
G01*
X19500Y113001D02*
G03*
X18664Y115915I-5500J0D01*
G01*
X8500Y112999D02*
G03*
X9336Y110085I5500J0D01*
G01*
X11109Y108320D02*
G03*
X13971Y107500I2861J4579D01*
G01*
X16891Y117680D02*
G03*
X14029Y118500I-2861J-4579D01*
G01*
X18680Y110109D02*
G03*
X19500Y112971I-4579J2861D01*
G01*
X9320Y115891D02*
G03*
X8500Y113029I4579J-2861D01*
G01*
X24525Y135730D02*
X25775D01*
X24525Y133390D02*
X25775D01*
X24760Y102070D02*
Y111170D01*
Y102070D02*
X45120D01*
Y111170D01*
X24760D02*
X45120D01*
X45320Y116500D02*
X46680D01*
X48540Y118680D02*
Y121320D01*
X45320Y123500D02*
X46680D01*
X43460Y118680D02*
Y121320D01*
X76130Y107920D02*
X76920D01*
X76130Y127920D02*
X76920D01*
X56920Y107920D02*
X57710D01*
X56920Y127920D02*
X57710D01*
X76920Y107920D02*
Y108710D01*
Y127130D02*
Y127920D01*
X56920Y107920D02*
Y108710D01*
Y127130D02*
Y127920D01*
X17950Y148770D02*
Y150010D01*
Y148770D02*
X21450D01*
X17950Y154030D02*
Y155270D01*
X21450D01*
X17950Y156390D02*
Y157630D01*
Y156390D02*
X21450D01*
X17950Y161650D02*
Y162890D01*
X21450D01*
X148790Y114920D02*
X150290D01*
Y120420D01*
X139290Y114920D02*
X140790D01*
X139290D02*
Y119920D01*
X150290Y123420D02*
Y128920D01*
X148690D02*
X150290D01*
X139290Y123420D02*
Y128920D01*
X140790D01*
X166590Y186765D02*
X171420D01*
Y177235D02*
Y186765D01*
X166590Y177235D02*
X171420D01*
X166590D02*
Y186765D01*
X162500Y60500D02*
Y61000D01*
Y55500D02*
Y60500D01*
Y55000D02*
Y55500D01*
X159400Y55000D02*
X162500D01*
X148000D02*
X156800D01*
X148000D02*
Y61000D01*
X161400D02*
X162500D01*
X152300D02*
X158800D01*
X148000D02*
X149100D01*
X162500Y55500D02*
X165000D01*
Y60500D01*
X162500D02*
X165000D01*
X37075Y37590D02*
X39005D01*
X37075Y48590D02*
X39005D01*
X51045Y37590D02*
X52975D01*
X51045Y48590D02*
X52975D01*
X37075Y37590D02*
Y48590D01*
X52975Y37590D02*
Y48590D01*
X113650Y78710D02*
Y90210D01*
X96150Y78710D02*
X113650D01*
X96150D02*
Y90210D01*
X113650D01*
D116*
X23510Y140910D02*
Y143450D01*
X31130Y140910D02*
Y143450D01*
X23510D02*
X31130D01*
X23510Y140910D02*
X31130D01*
X13270Y121650D02*
Y136890D01*
X10730Y121650D02*
Y136890D01*
X13270D01*
X10730Y121650D02*
X13270D01*
X31130Y158790D02*
Y174030D01*
X33670Y158790D02*
Y174030D01*
X31130Y158790D02*
X33670D01*
X31130Y174030D02*
X33670D01*
X55380Y175730D02*
X70620D01*
X55380Y178270D02*
X70620D01*
Y175730D02*
Y178270D01*
X55380Y175730D02*
Y178270D01*
X11400Y179075D02*
X12650D01*
X11400Y188655D02*
X12650D01*
X7400Y179075D02*
X8680D01*
X7400D02*
Y188655D01*
X8680D01*
X112643Y8412D02*
X112670Y16500D01*
X113300Y13875D02*
Y13075D01*
X113700Y12675D01*
X114100Y13075D01*
Y13875D01*
X115099Y12675D02*
X114700D01*
X114500Y12875D01*
Y13275D01*
X114700Y13475D01*
X115099D01*
X115299Y13275D01*
Y13075D01*
X114500D01*
X115699Y13475D02*
Y12675D01*
Y13075D01*
X115899Y13275D01*
X116099Y13475D01*
X116299D01*
X116899Y12675D02*
X117499D01*
X117699Y12875D01*
X117499Y13075D01*
X117099D01*
X116899Y13275D01*
X117099Y13475D01*
X117699D01*
X118098Y12675D02*
X118498D01*
X118298D01*
Y13475D01*
X118098D01*
X119298Y12675D02*
X119698D01*
X119898Y12875D01*
Y13275D01*
X119698Y13475D01*
X119298D01*
X119098Y13275D01*
Y12875D01*
X119298Y12675D01*
X120298D02*
Y13475D01*
X120898D01*
X121097Y13275D01*
Y12675D01*
X122697D02*
X123097D01*
X122897D01*
Y13875D01*
X122697Y13675D01*
X123697Y12675D02*
Y12875D01*
X123897D01*
Y12675D01*
X123697D01*
X124696Y13675D02*
X124896Y13875D01*
X125296D01*
X125496Y13675D01*
Y12875D01*
X125296Y12675D01*
X124896D01*
X124696Y12875D01*
Y13675D01*
X125896Y12675D02*
Y12875D01*
X126096D01*
Y12675D01*
X125896D01*
X126896Y13675D02*
X127096Y13875D01*
X127495D01*
X127695Y13675D01*
Y12875D01*
X127495Y12675D01*
X127096D01*
X126896Y12875D01*
Y13675D01*
X114100Y14700D02*
X113300D01*
X114100Y15500D01*
Y15700D01*
X113900Y15899D01*
X113500D01*
X113300Y15700D01*
X114500D02*
X114700Y15899D01*
X115099D01*
X115299Y15700D01*
Y15500D01*
X115099Y15300D01*
X114899D01*
X115099D01*
X115299Y15100D01*
Y14900D01*
X115099Y14700D01*
X114700D01*
X114500Y14900D01*
X115699Y15700D02*
X115899Y15899D01*
X116299D01*
X116499Y15700D01*
Y14900D01*
X116299Y14700D01*
X115899D01*
X115699Y14900D01*
Y15700D01*
X116899Y14900D02*
X117099Y14700D01*
X117499D01*
X117699Y14900D01*
Y15700D01*
X117499Y15899D01*
X117099D01*
X116899Y15700D01*
Y15500D01*
X117099Y15300D01*
X117699D01*
X118098Y14500D02*
X118898D01*
X119298Y14700D02*
Y15500D01*
X119698Y15899D01*
X120098Y15500D01*
Y14700D01*
Y15300D01*
X119298D01*
X120498Y15500D02*
Y14900D01*
X120698Y14700D01*
X121297D01*
Y15500D01*
X121897Y15700D02*
Y15500D01*
X121697D01*
X122097D01*
X121897D01*
Y14900D01*
X122097Y14700D01*
X122897D02*
X123297D01*
X123497Y14900D01*
Y15300D01*
X123297Y15500D01*
X122897D01*
X122697Y15300D01*
Y14900D01*
X122897Y14700D01*
X123897D02*
Y15500D01*
X124097D01*
X124296Y15300D01*
Y14700D01*
Y15300D01*
X124496Y15500D01*
X124696Y15300D01*
Y14700D01*
X125296Y15500D02*
X125696D01*
X125896Y15300D01*
Y14700D01*
X125296D01*
X125096Y14900D01*
X125296Y15100D01*
X125896D01*
X126496Y15700D02*
Y15500D01*
X126296D01*
X126696D01*
X126496D01*
Y14900D01*
X126696Y14700D01*
X127295D02*
X127695D01*
X127495D01*
Y15500D01*
X127295D01*
X128295Y14700D02*
X128895D01*
X129095Y14900D01*
X128895Y15100D01*
X128495D01*
X128295Y15300D01*
X128495Y15500D01*
X129095D01*
X129695D02*
X130095D01*
X130294Y15300D01*
Y14700D01*
X129695D01*
X129495Y14900D01*
X129695Y15100D01*
X130294D01*
X130894Y15700D02*
Y15500D01*
X130694D01*
X131094D01*
X130894D01*
Y14900D01*
X131094Y14700D01*
X131694D02*
X132094D01*
X131894D01*
Y15500D01*
X131694D01*
X132894Y14700D02*
X133294D01*
X133493Y14900D01*
Y15300D01*
X133294Y15500D01*
X132894D01*
X132694Y15300D01*
Y14900D01*
X132894Y14700D01*
X133893D02*
Y15500D01*
X134493D01*
X134693Y15300D01*
Y14700D01*
X135093D02*
Y15899D01*
X135693D01*
X135893Y15700D01*
Y15300D01*
X135693Y15100D01*
X135093D01*
X136293Y15500D02*
Y14700D01*
Y15100D01*
X136492Y15300D01*
X136692Y15500D01*
X136892D01*
X137492Y14700D02*
X137892D01*
X137692D01*
Y15500D01*
X137492D01*
X138492Y14700D02*
X139092D01*
X139292Y14900D01*
X139092Y15100D01*
X138692D01*
X138492Y15300D01*
X138692Y15500D01*
X139292D01*
X140291Y14700D02*
X139891D01*
X139691Y14900D01*
Y15300D01*
X139891Y15500D01*
X140291D01*
X140491Y15300D01*
Y15100D01*
X139691D01*
X140891Y15899D02*
X141291D01*
X141091D01*
Y14700D01*
X140891D01*
X141291D01*
X141891D02*
Y15500D01*
X142091D01*
X142291Y15300D01*
Y14700D01*
Y15300D01*
X142491Y15500D01*
X142691Y15300D01*
Y14700D01*
X143290Y15500D02*
X143690D01*
X143890Y15300D01*
Y14700D01*
X143290D01*
X143090Y14900D01*
X143290Y15100D01*
X143890D01*
X144690Y14300D02*
X144890D01*
X145090Y14500D01*
Y15500D01*
X144490D01*
X144290Y15300D01*
Y14900D01*
X144490Y14700D01*
X145090D01*
X146089D02*
X145690D01*
X145490Y14900D01*
Y15300D01*
X145690Y15500D01*
X146089D01*
X146289Y15300D01*
Y15100D01*
X145490D01*
X146689Y14700D02*
Y15899D01*
X147289D01*
X147489Y15700D01*
Y15300D01*
X147289Y15100D01*
X146689D01*
X147089D02*
X147489Y14700D01*
X147889Y15899D02*
X148689D01*
X148289D01*
Y14700D01*
X149088Y15899D02*
X149488D01*
X149288D01*
Y14700D01*
X149088D01*
X149488D01*
X113300Y10800D02*
Y12000D01*
X113700Y11600D01*
X114100Y12000D01*
Y10800D01*
X115099D02*
X114700D01*
X114500Y11000D01*
Y11400D01*
X114700Y11600D01*
X115099D01*
X115299Y11400D01*
Y11200D01*
X114500D01*
X115699Y11600D02*
X116099Y10800D01*
X116499Y11600D01*
X117499Y10800D02*
X117099D01*
X116899Y11000D01*
Y11400D01*
X117099Y11600D01*
X117499D01*
X117699Y11400D01*
Y11200D01*
X116899D01*
X118098Y10800D02*
Y11600D01*
X118698D01*
X118898Y11400D01*
Y10800D01*
X120498D02*
Y12000D01*
X121097D01*
X121297Y11800D01*
Y11400D01*
X121097Y11200D01*
X120498D01*
X120898D02*
X121297Y10800D01*
X121697D02*
X122097D01*
X121897D01*
Y11600D01*
X121697D01*
X123497D02*
X122897D01*
X122697Y11400D01*
Y11000D01*
X122897Y10800D01*
X123497D01*
X124696Y11600D02*
X124097D01*
X123897Y11400D01*
Y11000D01*
X124097Y10800D01*
X124696D01*
X125096Y12000D02*
Y10800D01*
Y11400D01*
X125296Y11600D01*
X125696D01*
X125896Y11400D01*
Y10800D01*
X126296D02*
X126696D01*
X126496D01*
Y11600D01*
X126296D01*
X127895Y10800D02*
X127495D01*
X127295Y11000D01*
Y11400D01*
X127495Y11600D01*
X127895D01*
X128095Y11400D01*
Y11200D01*
X127295D01*
X128495Y11600D02*
Y10800D01*
Y11200D01*
X128695Y11400D01*
X128895Y11600D01*
X129095D01*
X129695Y10800D02*
X130095D01*
X129895D01*
Y11600D01*
X129695D01*
X113300Y10324D02*
Y9125D01*
X114100D01*
X114700Y9925D02*
X115099D01*
X115299Y9725D01*
Y9125D01*
X114700D01*
X114500Y9325D01*
X114700Y9525D01*
X115299D01*
X115699Y9925D02*
Y9325D01*
X115899Y9125D01*
X116499D01*
Y9925D01*
X116899Y9125D02*
X117499D01*
X117699Y9325D01*
X117499Y9525D01*
X117099D01*
X116899Y9725D01*
X117099Y9925D01*
X117699D01*
X118298D02*
X118698D01*
X118898Y9725D01*
Y9125D01*
X118298D01*
X118098Y9325D01*
X118298Y9525D01*
X118898D01*
X119298Y9125D02*
Y9925D01*
X119898D01*
X120098Y9725D01*
Y9125D01*
X120498D02*
Y9925D01*
X121097D01*
X121297Y9725D01*
Y9125D01*
X122297D02*
X121897D01*
X121697Y9325D01*
Y9725D01*
X121897Y9925D01*
X122297D01*
X122497Y9725D01*
Y9525D01*
X121697D01*
X123097Y8925D02*
X123297Y9125D01*
Y9325D01*
X123097D01*
Y9125D01*
X123297D01*
X123097Y8925D01*
X122897Y8725D01*
X125496Y9925D02*
X125896D01*
X126096Y9725D01*
Y9125D01*
X125496D01*
X125296Y9325D01*
X125496Y9525D01*
X126096D01*
X126696Y9125D02*
X127096D01*
X127295Y9325D01*
Y9725D01*
X127096Y9925D01*
X126696D01*
X126496Y9725D01*
Y9325D01*
X126696Y9125D01*
X127695Y9925D02*
Y9325D01*
X127895Y9125D01*
X128495D01*
Y9925D01*
X129095Y10125D02*
Y9925D01*
X128895D01*
X129295D01*
X129095D01*
Y9325D01*
X129295Y9125D01*
X131894D02*
X131094D01*
X131894Y9925D01*
Y10125D01*
X131694Y10324D01*
X131294D01*
X131094Y10125D01*
X132294D02*
X132494Y10324D01*
X132894D01*
X133094Y10125D01*
Y9325D01*
X132894Y9125D01*
X132494D01*
X132294Y9325D01*
Y10125D01*
X134293Y9125D02*
X133493D01*
X134293Y9925D01*
Y10125D01*
X134093Y10324D01*
X133693D01*
X133493Y10125D01*
X134693D02*
X134893Y10324D01*
X135293D01*
X135493Y10125D01*
Y9925D01*
X135293Y9725D01*
X135093D01*
X135293D01*
X135493Y9525D01*
Y9325D01*
X135293Y9125D01*
X134893D01*
X134693Y9325D01*
D117*
X84520Y195500D02*
X161520D01*
Y148500D02*
Y195500D01*
X84520Y148500D02*
X161520D01*
X84520D02*
Y195500D01*
D118*
X76368Y162260D02*
X75522Y161414D01*
Y162260D02*
X76368Y161414D01*
X75945Y162260D02*
Y161414D01*
X75522Y161837D02*
X76368D01*
X47342Y153700D02*
X48188Y154546D01*
Y153700D02*
X47342Y154546D01*
X47765Y153700D02*
Y154546D01*
X48188Y154123D02*
X47342D01*
X117990Y126272D02*
X118837Y125426D01*
X117990D02*
X118837Y126272D01*
X117990Y125849D02*
X118837D01*
X118414Y125426D02*
Y126272D01*
X102750D02*
X103597Y125426D01*
X102750D02*
X103597Y126272D01*
X102750Y125849D02*
X103597D01*
X103174Y125426D02*
Y126272D01*
X29304Y185884D02*
X28458Y185038D01*
Y185884D02*
X29304Y185038D01*
X28881Y185884D02*
Y185038D01*
X28458Y185461D02*
X29304D01*
D119*
X27955Y104715D02*
X28378D01*
X28167D01*
Y105985D01*
X27955Y105773D01*
X57419Y173549D02*
Y175073D01*
X57927Y174565D01*
X58435Y175073D01*
Y173549D01*
X59958Y174819D02*
X59704Y175073D01*
X59196D01*
X58943Y174819D01*
Y173803D01*
X59196Y173549D01*
X59704D01*
X59958Y173803D01*
X60466Y175073D02*
Y173803D01*
X60720Y173549D01*
X61228D01*
X61482Y173803D01*
Y175073D01*
X64529Y174565D02*
X63767D01*
X63513Y174311D01*
Y173803D01*
X63767Y173549D01*
X64529D01*
X65290D02*
X65798D01*
X66052Y173803D01*
Y174311D01*
X65798Y174565D01*
X65290D01*
X65037Y174311D01*
Y173803D01*
X65290Y173549D01*
X66560D02*
Y174565D01*
X67322D01*
X67576Y174311D01*
Y173549D01*
X68084D02*
Y174565D01*
X68845D01*
X69099Y174311D01*
Y173549D01*
X69607D02*
Y173803D01*
X69861D01*
Y173549D01*
X69607D01*
X80100Y56325D02*
G03*
X80100Y56325I-75J0D01*
G01*
D120*
X59125Y81102D02*
G03*
X59125Y81102I-125J0D01*
G01*
X50725Y63780D02*
G03*
X50725Y63780I-125J0D01*
G01*
X124375Y27000D02*
G03*
X124375Y27000I-125J0D01*
G01*
X136075Y63640D02*
G03*
X136075Y63640I-125J0D01*
G01*
X155100Y67950D02*
G03*
X155100Y67950I-125J0D01*
G01*
X151825Y80000D02*
G03*
X151825Y80000I-125J0D01*
G01*
X75600Y44925D02*
G03*
X75600Y44925I-125J0D01*
G01*
X142070Y80000D02*
G03*
X142070Y80000I-125J0D01*
G01*
X47025Y83002D02*
G03*
X47025Y83002I-125J0D01*
G01*
X136075Y53840D02*
G03*
X136075Y53840I-125J0D01*
G01*
X80125Y86100D02*
G03*
X80125Y86100I-125J0D01*
G01*
Y84525D02*
G03*
X80125Y84525I-125J0D01*
G01*
X60085Y37323D02*
G03*
X60085Y37323I-125J0D01*
G01*
D121*
X123467Y80000D02*
X127753Y72000D01*
X118767D02*
X123467Y80000D01*
X118767Y72000D02*
X127753D01*
X123467Y72800D02*
Y73300D01*
Y74255D02*
Y77000D01*
%TF.MD5,31d871983355a8b063f1ba4ec112e1b0*%
M02*
