%TF.GenerationSoftware,Altium Limited,Altium Designer,22.5.1 (42)*%
G04 Layer_Color=2752767*
%FSLAX43Y43*%
%MOMM*%
%TF.SameCoordinates,1CDD9A58-554C-4E31-8E55-BAED9532D10C*%
%TF.FilePolarity,Positive*%
%TF.FileFunction,Drawing*%
%TF.Part,CustomerPanel*%
G01*
G75*
%TA.AperFunction,NonConductor*%
%ADD115C,0.127*%
%ADD155C,0.169*%
%ADD156C,0.102*%
D115*
X24272Y141672D02*
Y142688D01*
X25288D01*
Y141672D01*
X24272D01*
X26812D02*
Y142688D01*
X27828D01*
Y141672D01*
X26812D01*
X29352D02*
Y142688D01*
X30368D01*
Y141672D01*
X29352D01*
X88020Y191492D02*
X87512Y192508D01*
X88528D01*
X88020Y191492D01*
Y151492D02*
X87512Y152508D01*
X88528D01*
X88020Y151492D01*
X158020D02*
X157512Y152508D01*
X158528D01*
X158020Y151492D01*
Y191492D02*
X157512Y192508D01*
X158528D01*
X158020Y191492D01*
X40020Y107382D02*
X40274Y107636D01*
X40528D01*
X40274Y107890D01*
X40528Y108144D01*
X40274D01*
X40020Y108398D01*
X39766Y108144D01*
X39512D01*
X39766Y107890D01*
X39512Y107636D01*
X39766D01*
X40020Y107382D01*
Y104842D02*
X40274Y105096D01*
X40528D01*
X40274Y105350D01*
X40528Y105604D01*
X40274D01*
X40020Y105858D01*
X39766Y105604D01*
X39512D01*
X39766Y105350D01*
X39512Y105096D01*
X39766D01*
X40020Y104842D01*
X37480Y107382D02*
X37734Y107636D01*
X37988D01*
X37734Y107890D01*
X37988Y108144D01*
X37734D01*
X37480Y108398D01*
X37226Y108144D01*
X36972D01*
X37226Y107890D01*
X36972Y107636D01*
X37226D01*
X37480Y107382D01*
Y104842D02*
X37734Y105096D01*
X37988D01*
X37734Y105350D01*
X37988Y105604D01*
X37734D01*
X37480Y105858D01*
X37226Y105604D01*
X36972D01*
X37226Y105350D01*
X36972Y105096D01*
X37226D01*
X37480Y104842D01*
X34940D02*
X35194Y105096D01*
X35448D01*
X35194Y105350D01*
X35448Y105604D01*
X35194D01*
X34940Y105858D01*
X34686Y105604D01*
X34432D01*
X34686Y105350D01*
X34432Y105096D01*
X34686D01*
X34940Y104842D01*
Y107382D02*
X35194Y107636D01*
X35448D01*
X35194Y107890D01*
X35448Y108144D01*
X35194D01*
X34940Y108398D01*
X34686Y108144D01*
X34432D01*
X34686Y107890D01*
X34432Y107636D01*
X34686D01*
X34940Y107382D01*
X32400Y104842D02*
X32654Y105096D01*
X32908D01*
X32654Y105350D01*
X32908Y105604D01*
X32654D01*
X32400Y105858D01*
X32146Y105604D01*
X31892D01*
X32146Y105350D01*
X31892Y105096D01*
X32146D01*
X32400Y104842D01*
Y107382D02*
X32654Y107636D01*
X32908D01*
X32654Y107890D01*
X32908Y108144D01*
X32654D01*
X32400Y108398D01*
X32146Y108144D01*
X31892D01*
X32146Y107890D01*
X31892Y107636D01*
X32146D01*
X32400Y107382D01*
X29860Y104842D02*
X30114Y105096D01*
X30368D01*
X30114Y105350D01*
X30368Y105604D01*
X30114D01*
X29860Y105858D01*
X29606Y105604D01*
X29352D01*
X29606Y105350D01*
X29352Y105096D01*
X29606D01*
X29860Y104842D01*
Y107382D02*
X30114Y107636D01*
X30368D01*
X30114Y107890D01*
X30368Y108144D01*
X30114D01*
X29860Y108398D01*
X29606Y108144D01*
X29352D01*
X29606Y107890D01*
X29352Y107636D01*
X29606D01*
X29860Y107382D01*
X13172Y186247D02*
X13426Y186755D01*
X13172Y187263D01*
X13680Y187009D01*
X14188Y187263D01*
X13934Y186755D01*
X14188Y186247D01*
X13680Y186501D01*
X13172Y186247D01*
Y180467D02*
X13426Y180975D01*
X13172Y181483D01*
X13680Y181229D01*
X14188Y181483D01*
X13934Y180975D01*
X14188Y180467D01*
X13680Y180721D01*
X13172Y180467D01*
X150136Y121666D02*
Y121412D01*
X150644D01*
Y121666D01*
X150898D01*
Y122174D01*
X150644D01*
Y122428D01*
X150136D01*
Y122174D01*
X149882D01*
Y121666D01*
X150136D01*
X138936D02*
Y121412D01*
X139444D01*
Y121666D01*
X139698D01*
Y122174D01*
X139444D01*
Y122428D01*
X138936D01*
Y122174D01*
X138682D01*
Y121666D01*
X138936D01*
X146782Y114412D02*
X147036D01*
X147290Y114666D01*
X147544Y114412D01*
X147798D01*
Y114666D01*
X147544Y114920D01*
X147798Y115174D01*
Y115428D01*
X147544D01*
X147290Y115174D01*
X147036Y115428D01*
X146782D01*
Y115174D01*
X147036Y114920D01*
X146782Y114666D01*
Y114412D01*
X141782D02*
X142036D01*
X142290Y114666D01*
X142544Y114412D01*
X142798D01*
Y114666D01*
X142544Y114920D01*
X142798Y115174D01*
Y115428D01*
X142544D01*
X142290Y115174D01*
X142036Y115428D01*
X141782D01*
Y115174D01*
X142036Y114920D01*
X141782Y114666D01*
Y114412D01*
X146782Y128912D02*
X147036D01*
X147290Y129166D01*
X147544Y128912D01*
X147798D01*
Y129166D01*
X147544Y129420D01*
X147798Y129674D01*
Y129928D01*
X147544D01*
X147290Y129674D01*
X147036Y129928D01*
X146782D01*
Y129674D01*
X147036Y129420D01*
X146782Y129166D01*
Y128912D01*
X144282D02*
X144536D01*
X144790Y129166D01*
X145044Y128912D01*
X145298D01*
Y129166D01*
X145044Y129420D01*
X145298Y129674D01*
Y129928D01*
X145044D01*
X144790Y129674D01*
X144536Y129928D01*
X144282D01*
Y129674D01*
X144536Y129420D01*
X144282Y129166D01*
Y128912D01*
X141782D02*
X142036D01*
X142290Y129166D01*
X142544Y128912D01*
X142798D01*
Y129166D01*
X142544Y129420D01*
X142798Y129674D01*
Y129928D01*
X142544D01*
X142290Y129674D01*
X142036Y129928D01*
X141782D01*
Y129674D01*
X142036Y129420D01*
X141782Y129166D01*
Y128912D01*
X11492Y135112D02*
Y136128D01*
X12508D01*
Y135112D01*
X11492D01*
Y132572D02*
Y133588D01*
X12508D01*
Y132572D01*
X11492D01*
Y130032D02*
Y131048D01*
X12508D01*
Y130032D01*
X11492D01*
Y127492D02*
Y128508D01*
X12508D01*
Y127492D01*
X11492D01*
Y124952D02*
Y125968D01*
X12508D01*
Y124952D01*
X11492D01*
Y122412D02*
Y123428D01*
X12508D01*
Y122412D01*
X11492D01*
X10342Y116150D02*
X10850Y116658D01*
X11358Y116150D01*
X10850Y115642D01*
X10342Y116150D01*
Y109850D02*
X10850Y110358D01*
X11358Y109850D01*
X10850Y109342D01*
X10342Y109850D01*
X16642D02*
X17150Y110358D01*
X17658Y109850D01*
X17150Y109342D01*
X16642Y109850D01*
Y116150D02*
X17150Y116658D01*
X17658Y116150D01*
X17150Y115642D01*
X16642Y116150D01*
X13492Y112492D02*
X13746D01*
X14000Y112746D01*
X14254Y112492D01*
X14508D01*
Y112746D01*
X14254Y113000D01*
X14508Y113254D01*
Y113508D01*
X14254D01*
X14000Y113254D01*
X13746Y113508D01*
X13492D01*
Y113254D01*
X13746Y113000D01*
X13492Y112746D01*
Y112492D01*
X31892Y159552D02*
Y160568D01*
X32908D01*
Y159552D01*
X31892D01*
Y162092D02*
Y163108D01*
X32908D01*
Y162092D01*
X31892D01*
Y164632D02*
Y165648D01*
X32908D01*
Y164632D01*
X31892D01*
Y167172D02*
Y168188D01*
X32908D01*
Y167172D01*
X31892D01*
Y169712D02*
Y170728D01*
X32908D01*
Y169712D01*
X31892D01*
Y172252D02*
Y173268D01*
X32908D01*
Y172252D01*
X31892D01*
X68842Y176492D02*
Y177508D01*
X69858D01*
Y176492D01*
X68842D01*
X66302D02*
Y177508D01*
X67318D01*
Y176492D01*
X66302D01*
X63762D02*
Y177508D01*
X64778D01*
Y176492D01*
X63762D01*
X61222D02*
Y177508D01*
X62238D01*
Y176492D01*
X61222D01*
X58682D02*
Y177508D01*
X59698D01*
Y176492D01*
X58682D01*
X56142D02*
Y177508D01*
X57158D01*
Y176492D01*
X56142D01*
X13672Y179037D02*
Y180053D01*
X14688D01*
Y179037D01*
X13672D01*
X13875Y179240D02*
Y179850D01*
X14485D01*
Y179240D01*
X13875D01*
X13672Y187677D02*
Y188693D01*
X14688D01*
Y187677D01*
X13672D01*
X13875Y187880D02*
Y188490D01*
X14485D01*
Y187880D01*
X13875D01*
X154000Y142242D02*
X153492Y143258D01*
X154508D01*
X154000Y142242D01*
Y142445D02*
X153695Y143055D01*
X154305D01*
X154000Y142445D01*
X64270Y159437D02*
X63762Y160453D01*
X64778D01*
X64270Y159437D01*
Y159640D02*
X63965Y160250D01*
X64575D01*
X64270Y159640D01*
X66900Y159542D02*
X66392Y160558D01*
X67408D01*
X66900Y159542D01*
Y159745D02*
X66595Y160355D01*
X67205D01*
X66900Y159745D01*
X19717Y153812D02*
X19209Y154828D01*
X20225D01*
X19717Y153812D01*
Y154015D02*
X19412Y154625D01*
X20022D01*
X19717Y154015D01*
X19781Y161432D02*
X19273Y162448D01*
X20289D01*
X19781Y161432D01*
Y161635D02*
X19476Y162245D01*
X20086D01*
X19781Y161635D01*
X16090Y180492D02*
X15582Y181508D01*
X16598D01*
X16090Y180492D01*
Y180695D02*
X15785Y181305D01*
X16395D01*
X16090Y180695D01*
X51103Y157782D02*
X50595Y158798D01*
X51611D01*
X51103Y157782D01*
Y157985D02*
X50798Y158595D01*
X51408D01*
X51103Y157985D01*
X71770Y182032D02*
X71262Y183048D01*
X72278D01*
X71770Y182032D01*
Y182235D02*
X71465Y182845D01*
X72075D01*
X71770Y182235D01*
X65420Y117019D02*
X64912Y118035D01*
X65928D01*
X65420Y117019D01*
Y117222D02*
X65115Y117831D01*
X65725D01*
X65420Y117222D01*
X64461Y116983D02*
X63953Y117999D01*
X64969D01*
X64461Y116983D01*
Y117186D02*
X64156Y117796D01*
X64765D01*
X64461Y117186D01*
X54433Y162419D02*
X53925Y163435D01*
X54941D01*
X54433Y162419D01*
Y162622D02*
X54128Y163232D01*
X54738D01*
X54433Y162622D01*
X68000Y144492D02*
X67492Y145508D01*
X68508D01*
X68000Y144492D01*
Y144695D02*
X67695Y145305D01*
X68305D01*
X68000Y144695D01*
X62500Y139491D02*
X61992Y140507D01*
X63008D01*
X62500Y139491D01*
Y139694D02*
X62195Y140303D01*
X62805D01*
X62500Y139694D01*
X63500Y139508D02*
X62992Y140524D01*
X64008D01*
X63500Y139508D01*
Y139711D02*
X63195Y140321D01*
X63805D01*
X63500Y139711D01*
X60059Y145787D02*
X59551Y146803D01*
X60567D01*
X60059Y145787D01*
Y145990D02*
X59754Y146600D01*
X60363D01*
X60059Y145990D01*
X60500Y157492D02*
X59992Y158508D01*
X61008D01*
X60500Y157492D01*
Y157695D02*
X60195Y158305D01*
X60805D01*
X60500Y157695D01*
X57250Y159552D02*
X56742Y160568D01*
X57758D01*
X57250Y159552D01*
Y159755D02*
X56945Y160365D01*
X57555D01*
X57250Y159755D01*
X52000Y158492D02*
X51492Y159508D01*
X52508D01*
X52000Y158492D01*
Y158695D02*
X51695Y159305D01*
X52305D01*
X52000Y158695D01*
X50273Y157246D02*
X49765Y158262D01*
X50781D01*
X50273Y157246D01*
Y157450D02*
X49969Y158059D01*
X50578D01*
X50273Y157450D01*
X49500Y156492D02*
X48992Y157508D01*
X50008D01*
X49500Y156492D01*
Y156695D02*
X49195Y157305D01*
X49805D01*
X49500Y156695D01*
X50600Y161270D02*
X50092Y162286D01*
X51108D01*
X50600Y161270D01*
Y161473D02*
X50295Y162083D01*
X50905D01*
X50600Y161473D01*
X50273Y162239D02*
X49765Y163255D01*
X50781D01*
X50273Y162239D01*
Y162442D02*
X49969Y163051D01*
X50578D01*
X50273Y162442D01*
X49721Y163024D02*
X49213Y164040D01*
X50229D01*
X49721Y163024D01*
Y163227D02*
X49417Y163837D01*
X50026D01*
X49721Y163227D01*
X55141Y163067D02*
X54633Y164083D01*
X55649D01*
X55141Y163067D01*
Y163270D02*
X54836Y163880D01*
X55446D01*
X55141Y163270D01*
X56650Y164255D02*
X56142Y165271D01*
X57158D01*
X56650Y164255D01*
Y164458D02*
X56345Y165067D01*
X56955D01*
X56650Y164458D01*
X57446Y164792D02*
X56938Y165808D01*
X57954D01*
X57446Y164792D01*
Y164995D02*
X57141Y165605D01*
X57750D01*
X57446Y164995D01*
X55919Y163630D02*
X55411Y164646D01*
X56427D01*
X55919Y163630D01*
Y163833D02*
X55614Y164442D01*
X56224D01*
X55919Y163833D01*
X27000Y181293D02*
X26492Y182309D01*
X27508D01*
X27000Y181293D01*
Y181496D02*
X26695Y182106D01*
X27305D01*
X27000Y181496D01*
X25479Y183259D02*
X24971Y184275D01*
X25987D01*
X25479Y183259D01*
Y183462D02*
X25174Y184072D01*
X25783D01*
X25479Y183462D01*
X49000Y171592D02*
X48492Y172608D01*
X49508D01*
X49000Y171592D01*
Y171796D02*
X48695Y172405D01*
X49305D01*
X49000Y171796D01*
X49000Y172723D02*
X48492Y173739D01*
X49508D01*
X49000Y172723D01*
Y172926D02*
X48695Y173536D01*
X49305D01*
X49000Y172926D01*
X55395Y171592D02*
X54887Y172608D01*
X55903D01*
X55395Y171592D01*
Y171796D02*
X55091Y172405D01*
X55700D01*
X55395Y171796D01*
Y172723D02*
X54887Y173739D01*
X55903D01*
X55395Y172723D01*
Y172926D02*
X55091Y173536D01*
X55700D01*
X55395Y172926D01*
X71770Y179381D02*
X71262Y180397D01*
X72278D01*
X71770Y179381D01*
Y179585D02*
X71465Y180194D01*
X72075D01*
X71770Y179585D01*
X64270Y161270D02*
X63762Y162286D01*
X64778D01*
X64270Y161270D01*
Y161473D02*
X63965Y162083D01*
X64575D01*
X64270Y161473D01*
X63500Y162092D02*
X62992Y163108D01*
X64008D01*
X63500Y162092D01*
Y162295D02*
X63195Y162905D01*
X63805D01*
X63500Y162295D01*
X62654Y162912D02*
X62146Y163928D01*
X63162D01*
X62654Y162912D01*
Y163115D02*
X62349Y163725D01*
X62959D01*
X62654Y163115D01*
X60170Y114162D02*
X59662Y115178D01*
X60678D01*
X60170Y114162D01*
Y114365D02*
X59865Y114975D01*
X60475D01*
X60170Y114365D01*
X76000Y122162D02*
X75492Y123178D01*
X76508D01*
X76000Y122162D01*
Y122365D02*
X75695Y122975D01*
X76305D01*
X76000Y122365D01*
X71670Y109252D02*
X71162Y110268D01*
X72178D01*
X71670Y109252D01*
Y109455D02*
X71365Y110065D01*
X71975D01*
X71670Y109455D01*
X64170Y103412D02*
X63662Y104428D01*
X64678D01*
X64170Y103412D01*
Y103615D02*
X63865Y104225D01*
X64475D01*
X64170Y103615D01*
X50273Y151777D02*
X49765Y152793D01*
X50781D01*
X50273Y151777D01*
Y151980D02*
X49969Y152590D01*
X50578D01*
X50273Y151980D01*
X54473Y149492D02*
X53965Y150508D01*
X54981D01*
X54473Y149492D01*
Y149695D02*
X54168Y150305D01*
X54778D01*
X54473Y149695D01*
X64000Y166492D02*
X63492Y167508D01*
X64508D01*
X64000Y166492D01*
Y166695D02*
X63695Y167305D01*
X64305D01*
X64000Y166695D01*
X78000Y154492D02*
X77492Y155508D01*
X78508D01*
X78000Y154492D01*
Y154695D02*
X77695Y155305D01*
X78305D01*
X78000Y154695D01*
X52720Y104842D02*
X52212Y105858D01*
X53228D01*
X52720Y104842D01*
Y105045D02*
X52415Y105655D01*
X53025D01*
X52720Y105045D01*
X47995Y107387D02*
X47487Y108403D01*
X48503D01*
X47995Y107387D01*
Y107591D02*
X47690Y108200D01*
X48299D01*
X47995Y107591D01*
X70630Y191072D02*
X70122Y192088D01*
X71138D01*
X70630Y191072D01*
Y191275D02*
X70325Y191885D01*
X70935D01*
X70630Y191275D01*
X58670Y113162D02*
X58162Y114178D01*
X59178D01*
X58670Y113162D01*
Y113365D02*
X58365Y113975D01*
X58975D01*
X58670Y113365D01*
X50000Y115511D02*
X49492Y116527D01*
X50508D01*
X50000Y115511D01*
Y115714D02*
X49695Y116324D01*
X50305D01*
X50000Y115714D01*
X40000Y163586D02*
X39492Y164602D01*
X40508D01*
X40000Y163586D01*
Y163789D02*
X39695Y164399D01*
X40305D01*
X40000Y163789D01*
X59871Y148492D02*
X59363Y149508D01*
X60379D01*
X59871Y148492D01*
Y148695D02*
X59566Y149305D01*
X60176D01*
X59871Y148695D01*
X66500Y155492D02*
X65992Y156508D01*
X67008D01*
X66500Y155492D01*
Y155695D02*
X66195Y156305D01*
X66805D01*
X66500Y155695D01*
X59871Y149492D02*
X59363Y150508D01*
X60379D01*
X59871Y149492D01*
Y149695D02*
X59566Y150305D01*
X60176D01*
X59871Y149695D01*
Y150492D02*
X59363Y151508D01*
X60379D01*
X59871Y150492D01*
Y150695D02*
X59566Y151305D01*
X60176D01*
X59871Y150695D01*
X46408Y194594D02*
X45900Y195610D01*
X46916D01*
X46408Y194594D01*
Y194797D02*
X46104Y195407D01*
X46713D01*
X46408Y194797D01*
X67506Y146500D02*
X66998Y147516D01*
X68014D01*
X67506Y146500D01*
Y146704D02*
X67201Y147313D01*
X67811D01*
X67506Y146704D01*
X60739Y146492D02*
X60231Y147508D01*
X61247D01*
X60739Y146492D01*
Y146695D02*
X60434Y147305D01*
X61044D01*
X60739Y146695D01*
X53250Y149823D02*
X52742Y150839D01*
X53758D01*
X53250Y149823D01*
Y150026D02*
X52945Y150636D01*
X53555D01*
X53250Y150026D01*
X28000Y151644D02*
X27492Y152660D01*
X28508D01*
X28000Y151644D01*
Y151848D02*
X27695Y152457D01*
X28305D01*
X28000Y151848D01*
X26890Y145602D02*
X26382Y146618D01*
X27398D01*
X26890Y145602D01*
Y145805D02*
X26585Y146415D01*
X27195D01*
X26890Y145805D01*
X38000Y143492D02*
X37492Y144508D01*
X38508D01*
X38000Y143492D01*
Y143695D02*
X37695Y144305D01*
X38305D01*
X38000Y143695D01*
X60506Y139553D02*
X59998Y140569D01*
X61014D01*
X60506Y139553D01*
Y139757D02*
X60201Y140366D01*
X60811D01*
X60506Y139757D01*
X43830Y183622D02*
X43322Y184638D01*
X44338D01*
X43830Y183622D01*
Y183825D02*
X43525Y184435D01*
X44135D01*
X43830Y183825D01*
X45100Y183622D02*
X44592Y184638D01*
X45608D01*
X45100Y183622D01*
Y183825D02*
X44795Y184435D01*
X45405D01*
X45100Y183825D01*
X12842Y182583D02*
X12334Y183599D01*
X13350D01*
X12842Y182583D01*
Y182786D02*
X12537Y183396D01*
X13147D01*
X12842Y182786D01*
X16205Y186310D02*
X15697Y187326D01*
X16713D01*
X16205Y186310D01*
Y186513D02*
X15900Y187123D01*
X16509D01*
X16205Y186513D01*
X16199Y184583D02*
X15691Y185599D01*
X16707D01*
X16199Y184583D01*
Y184786D02*
X15894Y185396D01*
X16504D01*
X16199Y184786D01*
X21437Y186818D02*
X20929Y187834D01*
X21945D01*
X21437Y186818D01*
Y187021D02*
X21132Y187631D01*
X21741D01*
X21437Y187021D01*
X22600Y171832D02*
X22092Y172848D01*
X23108D01*
X22600Y171832D01*
Y172035D02*
X22295Y172645D01*
X22905D01*
X22600Y172035D01*
X48030Y104842D02*
X47522Y105858D01*
X48538D01*
X48030Y104842D01*
Y105045D02*
X47725Y105655D01*
X48335D01*
X48030Y105045D01*
Y103412D02*
X47522Y104428D01*
X48538D01*
X48030Y103412D01*
Y103615D02*
X47725Y104225D01*
X48335D01*
X48030Y103615D01*
X48120Y101032D02*
X47612Y102048D01*
X48628D01*
X48120Y101032D01*
Y101235D02*
X47815Y101845D01*
X48425D01*
X48120Y101235D01*
X36210Y194594D02*
X35702Y195610D01*
X36718D01*
X36210Y194594D01*
Y194797D02*
X35905Y195407D01*
X36515D01*
X36210Y194797D01*
X61515Y139491D02*
X61007Y140507D01*
X62023D01*
X61515Y139491D01*
Y139694D02*
X61210Y140303D01*
X61819D01*
X61515Y139694D01*
X70630Y167580D02*
X70122Y168596D01*
X71138D01*
X70630Y167580D01*
Y167783D02*
X70325Y168393D01*
X70935D01*
X70630Y167783D01*
X46408Y183622D02*
X45900Y184638D01*
X46916D01*
X46408Y183622D01*
Y183825D02*
X46104Y184435D01*
X46713D01*
X46408Y183825D01*
X31130Y194594D02*
X30622Y195610D01*
X31638D01*
X31130Y194594D01*
Y194797D02*
X30825Y195407D01*
X31435D01*
X31130Y194797D01*
X41290Y194594D02*
X40782Y195610D01*
X41798D01*
X41290Y194594D01*
Y194797D02*
X40985Y195407D01*
X41595D01*
X41290Y194797D01*
X47640Y183622D02*
X47132Y184638D01*
X48148D01*
X47640Y183622D01*
Y183825D02*
X47335Y184435D01*
X47945D01*
X47640Y183825D01*
X101488Y129802D02*
X100980Y130818D01*
X101996D01*
X101488Y129802D01*
Y130005D02*
X101183Y130615D01*
X101793D01*
X101488Y130005D01*
X116728Y129802D02*
X116220Y130818D01*
X117236D01*
X116728Y129802D01*
Y130005D02*
X116423Y130615D01*
X117033D01*
X116728Y130005D01*
X62500Y117019D02*
X61992Y118035D01*
X63008D01*
X62500Y117019D01*
Y117222D02*
X62195Y117831D01*
X62805D01*
X62500Y117222D01*
X66900Y166492D02*
X66392Y167508D01*
X67408D01*
X66900Y166492D01*
Y166695D02*
X66595Y167305D01*
X67205D01*
X66900Y166695D01*
X63500Y117019D02*
X62992Y118035D01*
X64008D01*
X63500Y117019D01*
Y117222D02*
X63195Y117831D01*
X63805D01*
X63500Y117222D01*
X79136Y141672D02*
X78628Y142688D01*
X79644D01*
X79136Y141672D01*
Y141875D02*
X78831Y142485D01*
X79441D01*
X79136Y141875D01*
X33416Y114240D02*
X32908Y115256D01*
X33924D01*
X33416Y114240D01*
Y114443D02*
X33111Y115053D01*
X33721D01*
X33416Y114443D01*
X172000Y103492D02*
X172254Y103746D01*
X172508D01*
X172254Y104000D01*
X172508Y104254D01*
X172254D01*
X172000Y104508D01*
X171746Y104254D01*
X171492D01*
X171746Y104000D01*
X171492Y103746D01*
X171746D01*
X172000Y103492D01*
Y103695D02*
X172152Y103848D01*
X172305D01*
X172152Y104000D01*
X172305Y104152D01*
X172152D01*
X172000Y104305D01*
X171848Y104152D01*
X171695D01*
X171848Y104000D01*
X171695Y103848D01*
X171848D01*
X172000Y103695D01*
X12000Y103492D02*
X12254Y103746D01*
X12508D01*
X12254Y104000D01*
X12508Y104254D01*
X12254D01*
X12000Y104508D01*
X11746Y104254D01*
X11492D01*
X11746Y104000D01*
X11492Y103746D01*
X11746D01*
X12000Y103492D01*
Y103695D02*
X12152Y103848D01*
X12305D01*
X12152Y104000D01*
X12305Y104152D01*
X12152D01*
X12000Y104305D01*
X11848Y104152D01*
X11695D01*
X11848Y104000D01*
X11695Y103848D01*
X11848D01*
X12000Y103695D01*
Y193492D02*
X12254Y193746D01*
X12508D01*
X12254Y194000D01*
X12508Y194254D01*
X12254D01*
X12000Y194508D01*
X11746Y194254D01*
X11492D01*
X11746Y194000D01*
X11492Y193746D01*
X11746D01*
X12000Y193492D01*
Y193695D02*
X12152Y193848D01*
X12305D01*
X12152Y194000D01*
X12305Y194152D01*
X12152D01*
X12000Y194305D01*
X11848Y194152D01*
X11695D01*
X11848Y194000D01*
X11695Y193848D01*
X11848D01*
X12000Y193695D01*
X172000Y193492D02*
X172254Y193746D01*
X172508D01*
X172254Y194000D01*
X172508Y194254D01*
X172254D01*
X172000Y194508D01*
X171746Y194254D01*
X171492D01*
X171746Y194000D01*
X171492Y193746D01*
X171746D01*
X172000Y193492D01*
Y193695D02*
X172152Y193848D01*
X172305D01*
X172152Y194000D01*
X172305Y194152D01*
X172152D01*
X172000Y194305D01*
X171848Y194152D01*
X171695D01*
X171848Y194000D01*
X171695Y193848D01*
X171848D01*
X172000Y193695D01*
X79892Y20492D02*
X80146Y21000D01*
X79892Y21508D01*
X80400Y21254D01*
X80908Y21508D01*
X80654Y21000D01*
X80908Y20492D01*
X80400Y20746D01*
X79892Y20492D01*
X80095Y20695D02*
X80248Y21000D01*
X80095Y21305D01*
X80400Y21152D01*
X80705Y21305D01*
X80552Y21000D01*
X80705Y20695D01*
X80400Y20848D01*
X80095Y20695D01*
X91092Y20492D02*
X91346Y21000D01*
X91092Y21508D01*
X91600Y21254D01*
X92108Y21508D01*
X91854Y21000D01*
X92108Y20492D01*
X91600Y20746D01*
X91092Y20492D01*
X91295Y20695D02*
X91448Y21000D01*
X91295Y21305D01*
X91600Y21152D01*
X91905Y21305D01*
X91752Y21000D01*
X91905Y20695D01*
X91600Y20848D01*
X91295Y20695D01*
X59076Y32696D02*
Y32442D01*
X59584D01*
Y32696D01*
X59838D01*
Y33204D01*
X59584D01*
Y33458D01*
X59076D01*
Y33204D01*
X58822D01*
Y32696D01*
X59076D01*
X59178Y32798D02*
Y32645D01*
X59482D01*
Y32798D01*
X59635D01*
Y33102D01*
X59482D01*
Y33255D01*
X59178D01*
Y33102D01*
X59025D01*
Y32798D01*
X59178D01*
X64156Y32696D02*
Y32442D01*
X64664D01*
Y32696D01*
X64918D01*
Y33204D01*
X64664D01*
Y33458D01*
X64156D01*
Y33204D01*
X63902D01*
Y32696D01*
X64156D01*
X64258Y32798D02*
Y32645D01*
X64562D01*
Y32798D01*
X64715D01*
Y33102D01*
X64562D01*
Y33255D01*
X64258D01*
Y33102D01*
X64105D01*
Y32798D01*
X64258D01*
X61616Y32696D02*
Y32442D01*
X62124D01*
Y32696D01*
X62378D01*
Y33204D01*
X62124D01*
Y33458D01*
X61616D01*
Y33204D01*
X61362D01*
Y32696D01*
X61616D01*
X61718Y32798D02*
Y32645D01*
X62022D01*
Y32798D01*
X62175D01*
Y33102D01*
X62022D01*
Y33255D01*
X61718D01*
Y33102D01*
X61565D01*
Y32798D01*
X61718D01*
X71776Y70796D02*
Y70542D01*
X72284D01*
Y70796D01*
X72538D01*
Y71304D01*
X72284D01*
Y71558D01*
X71776D01*
Y71304D01*
X71522D01*
Y70796D01*
X71776D01*
X71878Y70898D02*
Y70745D01*
X72182D01*
Y70898D01*
X72335D01*
Y71202D01*
X72182D01*
Y71355D01*
X71878D01*
Y71202D01*
X71725D01*
Y70898D01*
X71878D01*
X81936Y70796D02*
Y70542D01*
X82444D01*
Y70796D01*
X82698D01*
Y71304D01*
X82444D01*
Y71558D01*
X81936D01*
Y71304D01*
X81682D01*
Y70796D01*
X81936D01*
X82038Y70898D02*
Y70745D01*
X82342D01*
Y70898D01*
X82495D01*
Y71202D01*
X82342D01*
Y71355D01*
X82038D01*
Y71202D01*
X81885D01*
Y70898D01*
X82038D01*
X79396Y70796D02*
Y70542D01*
X79904D01*
Y70796D01*
X80158D01*
Y71304D01*
X79904D01*
Y71558D01*
X79396D01*
Y71304D01*
X79142D01*
Y70796D01*
X79396D01*
X79498Y70898D02*
Y70745D01*
X79802D01*
Y70898D01*
X79955D01*
Y71202D01*
X79802D01*
Y71355D01*
X79498D01*
Y71202D01*
X79345D01*
Y70898D01*
X79498D01*
X76856Y70796D02*
Y70542D01*
X77364D01*
Y70796D01*
X77618D01*
Y71304D01*
X77364D01*
Y71558D01*
X76856D01*
Y71304D01*
X76602D01*
Y70796D01*
X76856D01*
X76958Y70898D02*
Y70745D01*
X77262D01*
Y70898D01*
X77415D01*
Y71202D01*
X77262D01*
Y71355D01*
X76958D01*
Y71202D01*
X76805D01*
Y70898D01*
X76958D01*
X74316Y70796D02*
Y70542D01*
X74824D01*
Y70796D01*
X75078D01*
Y71304D01*
X74824D01*
Y71558D01*
X74316D01*
Y71304D01*
X74062D01*
Y70796D01*
X74316D01*
X74418Y70898D02*
Y70745D01*
X74722D01*
Y70898D01*
X74875D01*
Y71202D01*
X74722D01*
Y71355D01*
X74418D01*
Y71202D01*
X74265D01*
Y70898D01*
X74418D01*
X69236Y70796D02*
Y70542D01*
X69744D01*
Y70796D01*
X69998D01*
Y71304D01*
X69744D01*
Y71558D01*
X69236D01*
Y71304D01*
X68982D01*
Y70796D01*
X69236D01*
X69338Y70898D02*
Y70745D01*
X69642D01*
Y70898D01*
X69795D01*
Y71202D01*
X69642D01*
Y71355D01*
X69338D01*
Y71202D01*
X69185D01*
Y70898D01*
X69338D01*
X66696Y70796D02*
Y70542D01*
X67204D01*
Y70796D01*
X67458D01*
Y71304D01*
X67204D01*
Y71558D01*
X66696D01*
Y71304D01*
X66442D01*
Y70796D01*
X66696D01*
X66798Y70898D02*
Y70745D01*
X67102D01*
Y70898D01*
X67255D01*
Y71202D01*
X67102D01*
Y71355D01*
X66798D01*
Y71202D01*
X66645D01*
Y70898D01*
X66798D01*
X64156Y70796D02*
Y70542D01*
X64664D01*
Y70796D01*
X64918D01*
Y71304D01*
X64664D01*
Y71558D01*
X64156D01*
Y71304D01*
X63902D01*
Y70796D01*
X64156D01*
X64258Y70898D02*
Y70745D01*
X64562D01*
Y70898D01*
X64715D01*
Y71202D01*
X64562D01*
Y71355D01*
X64258D01*
Y71202D01*
X64105D01*
Y70898D01*
X64258D01*
X61616Y70796D02*
Y70542D01*
X62124D01*
Y70796D01*
X62378D01*
Y71304D01*
X62124D01*
Y71558D01*
X61616D01*
Y71304D01*
X61362D01*
Y70796D01*
X61616D01*
X61718Y70898D02*
Y70745D01*
X62022D01*
Y70898D01*
X62175D01*
Y71202D01*
X62022D01*
Y71355D01*
X61718D01*
Y71202D01*
X61565D01*
Y70898D01*
X61718D01*
X59076Y70796D02*
Y70542D01*
X59584D01*
Y70796D01*
X59838D01*
Y71304D01*
X59584D01*
Y71558D01*
X59076D01*
Y71304D01*
X58822D01*
Y70796D01*
X59076D01*
X59178Y70898D02*
Y70745D01*
X59482D01*
Y70898D01*
X59635D01*
Y71202D01*
X59482D01*
Y71355D01*
X59178D01*
Y71202D01*
X59025D01*
Y70898D01*
X59178D01*
X112416Y32696D02*
Y32442D01*
X112924D01*
Y32696D01*
X113178D01*
Y33204D01*
X112924D01*
Y33458D01*
X112416D01*
Y33204D01*
X112162D01*
Y32696D01*
X112416D01*
X112518Y32798D02*
Y32645D01*
X112822D01*
Y32798D01*
X112975D01*
Y33102D01*
X112822D01*
Y33255D01*
X112518D01*
Y33102D01*
X112365D01*
Y32798D01*
X112518D01*
X109876Y32696D02*
Y32442D01*
X110384D01*
Y32696D01*
X110638D01*
Y33204D01*
X110384D01*
Y33458D01*
X109876D01*
Y33204D01*
X109622D01*
Y32696D01*
X109876D01*
X109978Y32798D02*
Y32645D01*
X110282D01*
Y32798D01*
X110435D01*
Y33102D01*
X110282D01*
Y33255D01*
X109978D01*
Y33102D01*
X109825D01*
Y32798D01*
X109978D01*
X107336Y32696D02*
Y32442D01*
X107844D01*
Y32696D01*
X108098D01*
Y33204D01*
X107844D01*
Y33458D01*
X107336D01*
Y33204D01*
X107082D01*
Y32696D01*
X107336D01*
X107438Y32798D02*
Y32645D01*
X107742D01*
Y32798D01*
X107895D01*
Y33102D01*
X107742D01*
Y33255D01*
X107438D01*
Y33102D01*
X107285D01*
Y32798D01*
X107438D01*
X84476Y70796D02*
Y70542D01*
X84984D01*
Y70796D01*
X85238D01*
Y71304D01*
X84984D01*
Y71558D01*
X84476D01*
Y71304D01*
X84222D01*
Y70796D01*
X84476D01*
X84578Y70898D02*
Y70745D01*
X84882D01*
Y70898D01*
X85035D01*
Y71202D01*
X84882D01*
Y71355D01*
X84578D01*
Y71202D01*
X84425D01*
Y70898D01*
X84578D01*
X112416Y70796D02*
Y70542D01*
X112924D01*
Y70796D01*
X113178D01*
Y71304D01*
X112924D01*
Y71558D01*
X112416D01*
Y71304D01*
X112162D01*
Y70796D01*
X112416D01*
X112518Y70898D02*
Y70745D01*
X112822D01*
Y70898D01*
X112975D01*
Y71202D01*
X112822D01*
Y71355D01*
X112518D01*
Y71202D01*
X112365D01*
Y70898D01*
X112518D01*
X99716Y70796D02*
Y70542D01*
X100224D01*
Y70796D01*
X100478D01*
Y71304D01*
X100224D01*
Y71558D01*
X99716D01*
Y71304D01*
X99462D01*
Y70796D01*
X99716D01*
X99818Y70898D02*
Y70745D01*
X100122D01*
Y70898D01*
X100275D01*
Y71202D01*
X100122D01*
Y71355D01*
X99818D01*
Y71202D01*
X99665D01*
Y70898D01*
X99818D01*
X94636Y70796D02*
Y70542D01*
X95144D01*
Y70796D01*
X95398D01*
Y71304D01*
X95144D01*
Y71558D01*
X94636D01*
Y71304D01*
X94382D01*
Y70796D01*
X94636D01*
X94738Y70898D02*
Y70745D01*
X95042D01*
Y70898D01*
X95195D01*
Y71202D01*
X95042D01*
Y71355D01*
X94738D01*
Y71202D01*
X94585D01*
Y70898D01*
X94738D01*
X92096Y70796D02*
Y70542D01*
X92604D01*
Y70796D01*
X92858D01*
Y71304D01*
X92604D01*
Y71558D01*
X92096D01*
Y71304D01*
X91842D01*
Y70796D01*
X92096D01*
X92198Y70898D02*
Y70745D01*
X92502D01*
Y70898D01*
X92655D01*
Y71202D01*
X92502D01*
Y71355D01*
X92198D01*
Y71202D01*
X92045D01*
Y70898D01*
X92198D01*
X89556Y70796D02*
Y70542D01*
X90064D01*
Y70796D01*
X90318D01*
Y71304D01*
X90064D01*
Y71558D01*
X89556D01*
Y71304D01*
X89302D01*
Y70796D01*
X89556D01*
X89658Y70898D02*
Y70745D01*
X89962D01*
Y70898D01*
X90115D01*
Y71202D01*
X89962D01*
Y71355D01*
X89658D01*
Y71202D01*
X89505D01*
Y70898D01*
X89658D01*
X87016Y70796D02*
Y70542D01*
X87524D01*
Y70796D01*
X87778D01*
Y71304D01*
X87524D01*
Y71558D01*
X87016D01*
Y71304D01*
X86762D01*
Y70796D01*
X87016D01*
X87118Y70898D02*
Y70745D01*
X87422D01*
Y70898D01*
X87575D01*
Y71202D01*
X87422D01*
Y71355D01*
X87118D01*
Y71202D01*
X86965D01*
Y70898D01*
X87118D01*
X102256Y70796D02*
Y70542D01*
X102764D01*
Y70796D01*
X103018D01*
Y71304D01*
X102764D01*
Y71558D01*
X102256D01*
Y71304D01*
X102002D01*
Y70796D01*
X102256D01*
X102358Y70898D02*
Y70745D01*
X102662D01*
Y70898D01*
X102815D01*
Y71202D01*
X102662D01*
Y71355D01*
X102358D01*
Y71202D01*
X102205D01*
Y70898D01*
X102358D01*
X104796Y70796D02*
Y70542D01*
X105304D01*
Y70796D01*
X105558D01*
Y71304D01*
X105304D01*
Y71558D01*
X104796D01*
Y71304D01*
X104542D01*
Y70796D01*
X104796D01*
X104898Y70898D02*
Y70745D01*
X105202D01*
Y70898D01*
X105355D01*
Y71202D01*
X105202D01*
Y71355D01*
X104898D01*
Y71202D01*
X104745D01*
Y70898D01*
X104898D01*
X107336Y70796D02*
Y70542D01*
X107844D01*
Y70796D01*
X108098D01*
Y71304D01*
X107844D01*
Y71558D01*
X107336D01*
Y71304D01*
X107082D01*
Y70796D01*
X107336D01*
X107438Y70898D02*
Y70745D01*
X107742D01*
Y70898D01*
X107895D01*
Y71202D01*
X107742D01*
Y71355D01*
X107438D01*
Y71202D01*
X107285D01*
Y70898D01*
X107438D01*
X97176Y70796D02*
Y70542D01*
X97684D01*
Y70796D01*
X97938D01*
Y71304D01*
X97684D01*
Y71558D01*
X97176D01*
Y71304D01*
X96922D01*
Y70796D01*
X97176D01*
X97278Y70898D02*
Y70745D01*
X97582D01*
Y70898D01*
X97735D01*
Y71202D01*
X97582D01*
Y71355D01*
X97278D01*
Y71202D01*
X97125D01*
Y70898D01*
X97278D01*
X109876Y70796D02*
Y70542D01*
X110384D01*
Y70796D01*
X110638D01*
Y71304D01*
X110384D01*
Y71558D01*
X109876D01*
Y71304D01*
X109622D01*
Y70796D01*
X109876D01*
X109978Y70898D02*
Y70745D01*
X110282D01*
Y70898D01*
X110435D01*
Y71202D01*
X110282D01*
Y71355D01*
X109978D01*
Y71202D01*
X109825D01*
Y70898D01*
X109978D01*
X136682Y63132D02*
X136936D01*
X137190Y63386D01*
X137444Y63132D01*
X137698D01*
Y63386D01*
X137444Y63640D01*
X137698Y63894D01*
Y64148D01*
X137444D01*
X137190Y63894D01*
X136936Y64148D01*
X136682D01*
Y63894D01*
X136936Y63640D01*
X136682Y63386D01*
Y63132D01*
X136885Y63335D02*
X137038D01*
X137190Y63488D01*
X137342Y63335D01*
X137495D01*
Y63488D01*
X137342Y63640D01*
X137495Y63792D01*
Y63945D01*
X137342D01*
X137190Y63792D01*
X137038Y63945D01*
X136885D01*
Y63792D01*
X137038Y63640D01*
X136885Y63488D01*
Y63335D01*
X136682Y60592D02*
X136936D01*
X137190Y60846D01*
X137444Y60592D01*
X137698D01*
Y60846D01*
X137444Y61100D01*
X137698Y61354D01*
Y61608D01*
X137444D01*
X137190Y61354D01*
X136936Y61608D01*
X136682D01*
Y61354D01*
X136936Y61100D01*
X136682Y60846D01*
Y60592D01*
X136885Y60795D02*
X137038D01*
X137190Y60948D01*
X137342Y60795D01*
X137495D01*
Y60948D01*
X137342Y61100D01*
X137495Y61252D01*
Y61405D01*
X137342D01*
X137190Y61252D01*
X137038Y61405D01*
X136885D01*
Y61252D01*
X137038Y61100D01*
X136885Y60948D01*
Y60795D01*
X136682Y58052D02*
X136936D01*
X137190Y58306D01*
X137444Y58052D01*
X137698D01*
Y58306D01*
X137444Y58560D01*
X137698Y58814D01*
Y59068D01*
X137444D01*
X137190Y58814D01*
X136936Y59068D01*
X136682D01*
Y58814D01*
X136936Y58560D01*
X136682Y58306D01*
Y58052D01*
X136885Y58255D02*
X137038D01*
X137190Y58408D01*
X137342Y58255D01*
X137495D01*
Y58408D01*
X137342Y58560D01*
X137495Y58712D01*
Y58865D01*
X137342D01*
X137190Y58712D01*
X137038Y58865D01*
X136885D01*
Y58712D01*
X137038Y58560D01*
X136885Y58408D01*
Y58255D01*
X144302Y58052D02*
X144556D01*
X144810Y58306D01*
X145064Y58052D01*
X145318D01*
Y58306D01*
X145064Y58560D01*
X145318Y58814D01*
Y59068D01*
X145064D01*
X144810Y58814D01*
X144556Y59068D01*
X144302D01*
Y58814D01*
X144556Y58560D01*
X144302Y58306D01*
Y58052D01*
X144505Y58255D02*
X144658D01*
X144810Y58408D01*
X144962Y58255D01*
X145115D01*
Y58408D01*
X144962Y58560D01*
X145115Y58712D01*
Y58865D01*
X144962D01*
X144810Y58712D01*
X144658Y58865D01*
X144505D01*
Y58712D01*
X144658Y58560D01*
X144505Y58408D01*
Y58255D01*
X144302Y60592D02*
X144556D01*
X144810Y60846D01*
X145064Y60592D01*
X145318D01*
Y60846D01*
X145064Y61100D01*
X145318Y61354D01*
Y61608D01*
X145064D01*
X144810Y61354D01*
X144556Y61608D01*
X144302D01*
Y61354D01*
X144556Y61100D01*
X144302Y60846D01*
Y60592D01*
X144505Y60795D02*
X144658D01*
X144810Y60948D01*
X144962Y60795D01*
X145115D01*
Y60948D01*
X144962Y61100D01*
X145115Y61252D01*
Y61405D01*
X144962D01*
X144810Y61252D01*
X144658Y61405D01*
X144505D01*
Y61252D01*
X144658Y61100D01*
X144505Y60948D01*
Y60795D01*
X144302Y63132D02*
X144556D01*
X144810Y63386D01*
X145064Y63132D01*
X145318D01*
Y63386D01*
X145064Y63640D01*
X145318Y63894D01*
Y64148D01*
X145064D01*
X144810Y63894D01*
X144556Y64148D01*
X144302D01*
Y63894D01*
X144556Y63640D01*
X144302Y63386D01*
Y63132D01*
X144505Y63335D02*
X144658D01*
X144810Y63488D01*
X144962Y63335D01*
X145115D01*
Y63488D01*
X144962Y63640D01*
X145115Y63792D01*
Y63945D01*
X144962D01*
X144810Y63792D01*
X144658Y63945D01*
X144505D01*
Y63792D01*
X144658Y63640D01*
X144505Y63488D01*
Y63335D01*
X159000Y58000D02*
Y58846D01*
X159423Y59270D01*
X159846Y58846D01*
Y58000D01*
Y58635D01*
X159000D01*
X152000Y58000D02*
Y58846D01*
X152423Y59270D01*
X152846Y58846D01*
Y58000D01*
Y58635D01*
X152000D01*
X160000Y76770D02*
Y75500D01*
X160635D01*
X160846Y75712D01*
Y75923D01*
X160635Y76135D01*
X160000D01*
X160635D01*
X160846Y76346D01*
Y76558D01*
X160635Y76770D01*
X160000D01*
X162000Y80000D02*
Y80846D01*
X162423Y81270D01*
X162846Y80846D01*
Y80000D01*
Y80635D01*
X162000D01*
X153846Y81058D02*
X153635Y81270D01*
X153212D01*
X153000Y81058D01*
Y80212D01*
X153212Y80000D01*
X153635D01*
X153846Y80212D01*
X159000Y81270D02*
Y80000D01*
X159635D01*
X159846Y80212D01*
Y81058D01*
X159635Y81270D01*
X159000D01*
X160000Y85770D02*
Y84500D01*
X160635D01*
X160846Y84712D01*
Y84923D01*
X160635Y85135D01*
X160000D01*
X160635D01*
X160846Y85346D01*
Y85558D01*
X160635Y85770D01*
X160000D01*
X16492Y20000D02*
X17000Y20508D01*
X17508Y20000D01*
X17000Y19492D01*
X16492Y20000D01*
Y25080D02*
X17000Y25588D01*
X17508Y25080D01*
X17000Y24572D01*
X16492Y25080D01*
Y35240D02*
X17000Y35748D01*
X17508Y35240D01*
X17000Y34732D01*
X16492Y35240D01*
Y45400D02*
X17000Y45908D01*
X17508Y45400D01*
X17000Y44892D01*
X16492Y45400D01*
Y50480D02*
X17000Y50988D01*
X17508Y50480D01*
X17000Y49972D01*
X16492Y50480D01*
Y40320D02*
X17000Y40828D01*
X17508Y40320D01*
X17000Y39812D01*
X16492Y40320D01*
Y30160D02*
X17000Y30668D01*
X17508Y30160D01*
X17000Y29652D01*
X16492Y30160D01*
X68080Y74492D02*
X68334Y74746D01*
X68588D01*
X68334Y75000D01*
X68588Y75254D01*
X68334D01*
X68080Y75508D01*
X67826Y75254D01*
X67572D01*
X67826Y75000D01*
X67572Y74746D01*
X67826D01*
X68080Y74492D01*
X70620D02*
X70874Y74746D01*
X71128D01*
X70874Y75000D01*
X71128Y75254D01*
X70874D01*
X70620Y75508D01*
X70366Y75254D01*
X70112D01*
X70366Y75000D01*
X70112Y74746D01*
X70366D01*
X70620Y74492D01*
X65540D02*
X65794Y74746D01*
X66048D01*
X65794Y75000D01*
X66048Y75254D01*
X65794D01*
X65540Y75508D01*
X65286Y75254D01*
X65032D01*
X65286Y75000D01*
X65032Y74746D01*
X65286D01*
X65540Y74492D01*
X63000D02*
X63254Y74746D01*
X63508D01*
X63254Y75000D01*
X63508Y75254D01*
X63254D01*
X63000Y75508D01*
X62746Y75254D01*
X62492D01*
X62746Y75000D01*
X62492Y74746D01*
X62746D01*
X63000Y74492D01*
X107590D02*
X107844Y74746D01*
X108098D01*
X107844Y75000D01*
X108098Y75254D01*
X107844D01*
X107590Y75508D01*
X107336Y75254D01*
X107082D01*
X107336Y75000D01*
X107082Y74746D01*
X107336D01*
X107590Y74492D01*
X110130D02*
X110384Y74746D01*
X110638D01*
X110384Y75000D01*
X110638Y75254D01*
X110384D01*
X110130Y75508D01*
X109876Y75254D01*
X109622D01*
X109876Y75000D01*
X109622Y74746D01*
X109876D01*
X110130Y74492D01*
X105050D02*
X105304Y74746D01*
X105558D01*
X105304Y75000D01*
X105558Y75254D01*
X105304D01*
X105050Y75508D01*
X104796Y75254D01*
X104542D01*
X104796Y75000D01*
X104542Y74746D01*
X104796D01*
X105050Y74492D01*
X102510D02*
X102764Y74746D01*
X103018D01*
X102764Y75000D01*
X103018Y75254D01*
X102764D01*
X102510Y75508D01*
X102256Y75254D01*
X102002D01*
X102256Y75000D01*
X102002Y74746D01*
X102256D01*
X102510Y74492D01*
X106846Y13270D02*
X106000D01*
Y12000D01*
X106846D01*
X106000Y12635D02*
X106423D01*
X136682Y53332D02*
X136936D01*
X137190Y53586D01*
X137444Y53332D01*
X137698D01*
Y53586D01*
X137444Y53840D01*
X137698Y54094D01*
Y54348D01*
X137444D01*
X137190Y54094D01*
X136936Y54348D01*
X136682D01*
Y54094D01*
X136936Y53840D01*
X136682Y53586D01*
Y53332D01*
X136885Y53535D02*
X137038D01*
X137190Y53688D01*
X137342Y53535D01*
X137495D01*
Y53688D01*
X137342Y53840D01*
X137495Y53992D01*
Y54145D01*
X137342D01*
X137190Y53992D01*
X137038Y54145D01*
X136885D01*
Y53992D01*
X137038Y53840D01*
X136885Y53688D01*
Y53535D01*
X136682Y50792D02*
X136936D01*
X137190Y51046D01*
X137444Y50792D01*
X137698D01*
Y51046D01*
X137444Y51300D01*
X137698Y51554D01*
Y51808D01*
X137444D01*
X137190Y51554D01*
X136936Y51808D01*
X136682D01*
Y51554D01*
X136936Y51300D01*
X136682Y51046D01*
Y50792D01*
X136885Y50995D02*
X137038D01*
X137190Y51148D01*
X137342Y50995D01*
X137495D01*
Y51148D01*
X137342Y51300D01*
X137495Y51452D01*
Y51605D01*
X137342D01*
X137190Y51452D01*
X137038Y51605D01*
X136885D01*
Y51452D01*
X137038Y51300D01*
X136885Y51148D01*
Y50995D01*
X136682Y48252D02*
X136936D01*
X137190Y48506D01*
X137444Y48252D01*
X137698D01*
Y48506D01*
X137444Y48760D01*
X137698Y49014D01*
Y49268D01*
X137444D01*
X137190Y49014D01*
X136936Y49268D01*
X136682D01*
Y49014D01*
X136936Y48760D01*
X136682Y48506D01*
Y48252D01*
X136885Y48455D02*
X137038D01*
X137190Y48608D01*
X137342Y48455D01*
X137495D01*
Y48608D01*
X137342Y48760D01*
X137495Y48912D01*
Y49065D01*
X137342D01*
X137190Y48912D01*
X137038Y49065D01*
X136885D01*
Y48912D01*
X137038Y48760D01*
X136885Y48608D01*
Y48455D01*
X144302Y48252D02*
X144556D01*
X144810Y48506D01*
X145064Y48252D01*
X145318D01*
Y48506D01*
X145064Y48760D01*
X145318Y49014D01*
Y49268D01*
X145064D01*
X144810Y49014D01*
X144556Y49268D01*
X144302D01*
Y49014D01*
X144556Y48760D01*
X144302Y48506D01*
Y48252D01*
X144505Y48455D02*
X144658D01*
X144810Y48608D01*
X144962Y48455D01*
X145115D01*
Y48608D01*
X144962Y48760D01*
X145115Y48912D01*
Y49065D01*
X144962D01*
X144810Y48912D01*
X144658Y49065D01*
X144505D01*
Y48912D01*
X144658Y48760D01*
X144505Y48608D01*
Y48455D01*
X144302Y50792D02*
X144556D01*
X144810Y51046D01*
X145064Y50792D01*
X145318D01*
Y51046D01*
X145064Y51300D01*
X145318Y51554D01*
Y51808D01*
X145064D01*
X144810Y51554D01*
X144556Y51808D01*
X144302D01*
Y51554D01*
X144556Y51300D01*
X144302Y51046D01*
Y50792D01*
X144505Y50995D02*
X144658D01*
X144810Y51148D01*
X144962Y50995D01*
X145115D01*
Y51148D01*
X144962Y51300D01*
X145115Y51452D01*
Y51605D01*
X144962D01*
X144810Y51452D01*
X144658Y51605D01*
X144505D01*
Y51452D01*
X144658Y51300D01*
X144505Y51148D01*
Y50995D01*
X144302Y53332D02*
X144556D01*
X144810Y53586D01*
X145064Y53332D01*
X145318D01*
Y53586D01*
X145064Y53840D01*
X145318Y54094D01*
Y54348D01*
X145064D01*
X144810Y54094D01*
X144556Y54348D01*
X144302D01*
Y54094D01*
X144556Y53840D01*
X144302Y53586D01*
Y53332D01*
X144505Y53535D02*
X144658D01*
X144810Y53688D01*
X144962Y53535D01*
X145115D01*
Y53688D01*
X144962Y53840D01*
X145115Y53992D01*
Y54145D01*
X144962D01*
X144810Y53992D01*
X144658Y54145D01*
X144505D01*
Y53992D01*
X144658Y53840D01*
X144505Y53688D01*
Y53535D01*
X64900Y20492D02*
X65154Y20746D01*
X65408D01*
X65154Y21000D01*
X65408Y21254D01*
X65154D01*
X64900Y21508D01*
X64646Y21254D01*
X64392D01*
X64646Y21000D01*
X64392Y20746D01*
X64646D01*
X64900Y20492D01*
X68710Y24302D02*
X68964Y24556D01*
X69218D01*
X68964Y24810D01*
X69218Y25064D01*
X68964D01*
X68710Y25318D01*
X68456Y25064D01*
X68202D01*
X68456Y24810D01*
X68202Y24556D01*
X68456D01*
X68710Y24302D01*
X61936Y26080D02*
X61090D01*
Y25445D01*
X61513D01*
X61090D01*
Y24810D01*
X69556Y18460D02*
X68710D01*
Y17825D01*
X69133D01*
X68710D01*
Y17190D01*
X92000Y30192D02*
X92254Y30446D01*
X92508D01*
X92254Y30700D01*
X92508Y30954D01*
X92254D01*
X92000Y31208D01*
X91746Y30954D01*
X91492D01*
X91746Y30700D01*
X91492Y30446D01*
X91746D01*
X92000Y30192D01*
X94540D02*
X94794Y30446D01*
X95048D01*
X94794Y30700D01*
X95048Y30954D01*
X94794D01*
X94540Y31208D01*
X94286Y30954D01*
X94032D01*
X94286Y30700D01*
X94032Y30446D01*
X94286D01*
X94540Y30192D01*
X99620D02*
X99874Y30446D01*
X100128D01*
X99874Y30700D01*
X100128Y30954D01*
X99874D01*
X99620Y31208D01*
X99366Y30954D01*
X99112D01*
X99366Y30700D01*
X99112Y30446D01*
X99366D01*
X99620Y30192D01*
X104700D02*
X104954Y30446D01*
X105208D01*
X104954Y30700D01*
X105208Y30954D01*
X104954D01*
X104700Y31208D01*
X104446Y30954D01*
X104192D01*
X104446Y30700D01*
X104192Y30446D01*
X104446D01*
X104700Y30192D01*
X102160D02*
X102414Y30446D01*
X102668D01*
X102414Y30700D01*
X102668Y30954D01*
X102414D01*
X102160Y31208D01*
X101906Y30954D01*
X101652D01*
X101906Y30700D01*
X101652Y30446D01*
X101906D01*
X102160Y30192D01*
X97080D02*
X97334Y30446D01*
X97588D01*
X97334Y30700D01*
X97588Y30954D01*
X97334D01*
X97080Y31208D01*
X96826Y30954D01*
X96572D01*
X96826Y30700D01*
X96572Y30446D01*
X96826D01*
X97080Y30192D01*
X16492Y58700D02*
X17000Y59208D01*
X17508Y58700D01*
X17000Y58192D01*
X16492Y58700D01*
Y63780D02*
X17000Y64288D01*
X17508Y63780D01*
X17000Y63272D01*
X16492Y63780D01*
Y73940D02*
X17000Y74448D01*
X17508Y73940D01*
X17000Y73432D01*
X16492Y73940D01*
Y84100D02*
X17000Y84608D01*
X17508Y84100D01*
X17000Y83592D01*
X16492Y84100D01*
Y79020D02*
X17000Y79528D01*
X17508Y79020D01*
X17000Y78512D01*
X16492Y79020D01*
Y68860D02*
X17000Y69368D01*
X17508Y68860D01*
X17000Y68352D01*
X16492Y68860D01*
X16846Y93270D02*
X16000D01*
Y92000D01*
X16846D01*
X16000Y92635D02*
X16423D01*
X114492Y81412D02*
X114746D01*
X115000Y81666D01*
X115254Y81412D01*
X115508D01*
Y81666D01*
X115254Y81920D01*
X115508Y82174D01*
Y82428D01*
X115254D01*
X115000Y82174D01*
X114746Y82428D01*
X114492D01*
Y82174D01*
X114746Y81920D01*
X114492Y81666D01*
Y81412D01*
Y83952D02*
X114746D01*
X115000Y84206D01*
X115254Y83952D01*
X115508D01*
Y84206D01*
X115254Y84460D01*
X115508Y84714D01*
Y84968D01*
X115254D01*
X115000Y84714D01*
X114746Y84968D01*
X114492D01*
Y84714D01*
X114746Y84460D01*
X114492Y84206D01*
Y83952D01*
Y86492D02*
X114746D01*
X115000Y86746D01*
X115254Y86492D01*
X115508D01*
Y86746D01*
X115254Y87000D01*
X115508Y87254D01*
Y87508D01*
X115254D01*
X115000Y87254D01*
X114746Y87508D01*
X114492D01*
Y87254D01*
X114746Y87000D01*
X114492Y86746D01*
Y86492D01*
X142346Y90058D02*
X142135Y90270D01*
X141712D01*
X141500Y90058D01*
Y89212D01*
X141712Y89000D01*
X142135D01*
X142346Y89212D01*
Y89635D01*
X141923D01*
X145846Y90058D02*
X145635Y90270D01*
X145212D01*
X145000Y90058D01*
Y89212D01*
X145212Y89000D01*
X145635D01*
X145846Y89212D01*
Y89635D01*
X145423D01*
X156846Y93270D02*
X156000D01*
Y92000D01*
X156846D01*
X156000Y92635D02*
X156423D01*
X16846Y13270D02*
X16000D01*
Y12000D01*
X16846D01*
X16000Y12635D02*
X16423D01*
X156846Y13270D02*
X156000D01*
Y12000D01*
X156846D01*
X156000Y12635D02*
X156423D01*
X122000Y41412D02*
X122254Y41666D01*
X122508D01*
X122254Y41920D01*
X122508Y42174D01*
X122254D01*
X122000Y42428D01*
X121746Y42174D01*
X121492D01*
X121746Y41920D01*
X121492Y41666D01*
X121746D01*
X122000Y41412D01*
Y36332D02*
X122254Y36586D01*
X122508D01*
X122254Y36840D01*
X122508Y37094D01*
X122254D01*
X122000Y37348D01*
X121746Y37094D01*
X121492D01*
X121746Y36840D01*
X121492Y36586D01*
X121746D01*
X122000Y36332D01*
Y38872D02*
X122254Y39126D01*
X122508D01*
X122254Y39380D01*
X122508Y39634D01*
X122254D01*
X122000Y39888D01*
X121746Y39634D01*
X121492D01*
X121746Y39380D01*
X121492Y39126D01*
X121746D01*
X122000Y38872D01*
Y43952D02*
X122254Y44206D01*
X122508D01*
X122254Y44460D01*
X122508Y44714D01*
X122254D01*
X122000Y44968D01*
X121746Y44714D01*
X121492D01*
X121746Y44460D01*
X121492Y44206D01*
X121746D01*
X122000Y43952D01*
Y46492D02*
X122254Y46746D01*
X122508D01*
X122254Y47000D01*
X122508Y47254D01*
X122254D01*
X122000Y47508D01*
X121746Y47254D01*
X121492D01*
X121746Y47000D01*
X121492Y46746D01*
X121746D01*
X122000Y46492D01*
Y57612D02*
X122254Y57866D01*
X122508D01*
X122254Y58120D01*
X122508Y58374D01*
X122254D01*
X122000Y58628D01*
X121746Y58374D01*
X121492D01*
X121746Y58120D01*
X121492Y57866D01*
X121746D01*
X122000Y57612D01*
Y55072D02*
X122254Y55326D01*
X122508D01*
X122254Y55580D01*
X122508Y55834D01*
X122254D01*
X122000Y56088D01*
X121746Y55834D01*
X121492D01*
X121746Y55580D01*
X121492Y55326D01*
X121746D01*
X122000Y55072D01*
Y49992D02*
X122254Y50246D01*
X122508D01*
X122254Y50500D01*
X122508Y50754D01*
X122254D01*
X122000Y51008D01*
X121746Y50754D01*
X121492D01*
X121746Y50500D01*
X121492Y50246D01*
X121746D01*
X122000Y49992D01*
Y52532D02*
X122254Y52786D01*
X122508D01*
X122254Y53040D01*
X122508Y53294D01*
X122254D01*
X122000Y53548D01*
X121746Y53294D01*
X121492D01*
X121746Y53040D01*
X121492Y52786D01*
X121746D01*
X122000Y52532D01*
X49000Y29270D02*
Y28000D01*
Y28635D01*
X49846D01*
Y29270D01*
Y28000D01*
X46000Y29270D02*
Y28000D01*
Y28635D01*
X46846D01*
Y29270D01*
Y28000D01*
X44050Y29270D02*
Y28000D01*
Y28635D01*
X44896D01*
Y29270D01*
Y28000D01*
X40952Y29270D02*
Y28000D01*
Y28635D01*
X41798D01*
Y29270D01*
Y28000D01*
X144974Y85412D02*
X144466Y86428D01*
X145482D01*
X144974Y85412D01*
Y85616D02*
X144669Y86225D01*
X145278D01*
X144974Y85616D01*
Y86832D02*
X144466Y87848D01*
X145482D01*
X144974Y86832D01*
Y87035D02*
X144669Y87645D01*
X145278D01*
X144974Y87035D01*
Y83993D02*
X144466Y85009D01*
X145482D01*
X144974Y83993D01*
Y84196D02*
X144669Y84805D01*
X145278D01*
X144974Y84196D01*
Y82573D02*
X144466Y83589D01*
X145482D01*
X144974Y82573D01*
Y82776D02*
X144669Y83386D01*
X145278D01*
X144974Y82776D01*
X142500Y82573D02*
X141992Y83589D01*
X143008D01*
X142500Y82573D01*
Y82776D02*
X142195Y83386D01*
X142805D01*
X142500Y82776D01*
Y83993D02*
X141992Y85009D01*
X143008D01*
X142500Y83993D01*
Y84196D02*
X142195Y84805D01*
X142805D01*
X142500Y84196D01*
Y86832D02*
X141992Y87848D01*
X143008D01*
X142500Y86832D01*
Y87035D02*
X142195Y87645D01*
X142805D01*
X142500Y87035D01*
Y85412D02*
X141992Y86428D01*
X143008D01*
X142500Y85412D01*
Y85616D02*
X142195Y86225D01*
X142805D01*
X142500Y85616D01*
X97600Y47253D02*
X97092Y48269D01*
X98108D01*
X97600Y47253D01*
Y47456D02*
X97295Y48066D01*
X97905D01*
X97600Y47456D01*
X149500Y94492D02*
X148992Y95508D01*
X150008D01*
X149500Y94492D01*
Y94695D02*
X149195Y95305D01*
X149805D01*
X149500Y94695D01*
X151250Y90992D02*
X150742Y92008D01*
X151758D01*
X151250Y90992D01*
Y91195D02*
X150945Y91805D01*
X151555D01*
X151250Y91195D01*
X146000Y94492D02*
X145492Y95508D01*
X146508D01*
X146000Y94492D01*
Y94695D02*
X145695Y95305D01*
X146305D01*
X146000Y94695D01*
X147750Y90992D02*
X147242Y92008D01*
X148258D01*
X147750Y90992D01*
Y91195D02*
X147445Y91805D01*
X148055D01*
X147750Y91195D01*
X142500Y94492D02*
X141992Y95508D01*
X143008D01*
X142500Y94492D01*
Y94695D02*
X142195Y95305D01*
X142805D01*
X142500Y94695D01*
X139000Y94492D02*
X138492Y95508D01*
X139508D01*
X139000Y94492D01*
Y94695D02*
X138695Y95305D01*
X139305D01*
X139000Y94695D01*
X135500Y94492D02*
X134992Y95508D01*
X136008D01*
X135500Y94492D01*
Y94695D02*
X135195Y95305D01*
X135805D01*
X135500Y94695D01*
Y80492D02*
X134992Y81508D01*
X136008D01*
X135500Y80492D01*
Y80695D02*
X135195Y81305D01*
X135805D01*
X135500Y80695D01*
X137250Y76992D02*
X136742Y78008D01*
X137758D01*
X137250Y76992D01*
Y77195D02*
X136945Y77805D01*
X137555D01*
X137250Y77195D01*
X135500Y73492D02*
X134992Y74508D01*
X136008D01*
X135500Y73492D01*
Y73695D02*
X135195Y74305D01*
X135805D01*
X135500Y73695D01*
Y59492D02*
X134992Y60508D01*
X136008D01*
X135500Y59492D01*
Y59695D02*
X135195Y60305D01*
X135805D01*
X135500Y59695D01*
Y52492D02*
X134992Y53508D01*
X136008D01*
X135500Y52492D01*
Y52695D02*
X135195Y53305D01*
X135805D01*
X135500Y52695D01*
Y45492D02*
X134992Y46508D01*
X136008D01*
X135500Y45492D01*
Y45695D02*
X135195Y46305D01*
X135805D01*
X135500Y45695D01*
X132000Y80492D02*
X131492Y81508D01*
X132508D01*
X132000Y80492D01*
Y80695D02*
X131695Y81305D01*
X132305D01*
X132000Y80695D01*
X133750Y76992D02*
X133242Y78008D01*
X134258D01*
X133750Y76992D01*
Y77195D02*
X133445Y77805D01*
X134055D01*
X133750Y77195D01*
X132000Y73492D02*
X131492Y74508D01*
X132508D01*
X132000Y73492D01*
Y73695D02*
X131695Y74305D01*
X132305D01*
X132000Y73695D01*
Y66492D02*
X131492Y67508D01*
X132508D01*
X132000Y66492D01*
Y66695D02*
X131695Y67305D01*
X132305D01*
X132000Y66695D01*
Y59492D02*
X131492Y60508D01*
X132508D01*
X132000Y59492D01*
Y59695D02*
X131695Y60305D01*
X132305D01*
X132000Y59695D01*
Y45492D02*
X131492Y46508D01*
X132508D01*
X132000Y45492D01*
Y45695D02*
X131695Y46305D01*
X132305D01*
X132000Y45695D01*
X133750Y41992D02*
X133242Y43008D01*
X134258D01*
X133750Y41992D01*
Y42195D02*
X133445Y42805D01*
X134055D01*
X133750Y42195D01*
X130250Y90992D02*
X129742Y92008D01*
X130758D01*
X130250Y90992D01*
Y91195D02*
X129945Y91805D01*
X130555D01*
X130250Y91195D01*
X128500Y80492D02*
X127992Y81508D01*
X129008D01*
X128500Y80492D01*
Y80695D02*
X128195Y81305D01*
X128805D01*
X128500Y80695D01*
X130250Y76992D02*
X129742Y78008D01*
X130758D01*
X130250Y76992D01*
Y77195D02*
X129945Y77805D01*
X130555D01*
X130250Y77195D01*
X128500Y73492D02*
X127992Y74508D01*
X129008D01*
X128500Y73492D01*
Y73695D02*
X128195Y74305D01*
X128805D01*
X128500Y73695D01*
Y59492D02*
X127992Y60508D01*
X129008D01*
X128500Y59492D01*
Y59695D02*
X128195Y60305D01*
X128805D01*
X128500Y59695D01*
X130250Y55992D02*
X129742Y57008D01*
X130758D01*
X130250Y55992D01*
Y56195D02*
X129945Y56805D01*
X130555D01*
X130250Y56195D01*
X128500Y52492D02*
X127992Y53508D01*
X129008D01*
X128500Y52492D01*
Y52695D02*
X128195Y53305D01*
X128805D01*
X128500Y52695D01*
X130250Y48992D02*
X129742Y50008D01*
X130758D01*
X130250Y48992D01*
Y49195D02*
X129945Y49805D01*
X130555D01*
X130250Y49195D01*
X128500Y45492D02*
X127992Y46508D01*
X129008D01*
X128500Y45492D01*
Y45695D02*
X128195Y46305D01*
X128805D01*
X128500Y45695D01*
X130250Y41992D02*
X129742Y43008D01*
X130758D01*
X130250Y41992D01*
Y42195D02*
X129945Y42805D01*
X130555D01*
X130250Y42195D01*
X128500Y38492D02*
X127992Y39508D01*
X129008D01*
X128500Y38492D01*
Y38695D02*
X128195Y39305D01*
X128805D01*
X128500Y38695D01*
X125000Y94492D02*
X124492Y95508D01*
X125508D01*
X125000Y94492D01*
Y94695D02*
X124695Y95305D01*
X125305D01*
X125000Y94695D01*
Y80492D02*
X124492Y81508D01*
X125508D01*
X125000Y80492D01*
Y80695D02*
X124695Y81305D01*
X125305D01*
X125000Y80695D01*
X126750Y76992D02*
X126242Y78008D01*
X127258D01*
X126750Y76992D01*
Y77195D02*
X126445Y77805D01*
X127055D01*
X126750Y77195D01*
X125000Y59492D02*
X124492Y60508D01*
X125508D01*
X125000Y59492D01*
Y59695D02*
X124695Y60305D01*
X125305D01*
X125000Y59695D01*
X126750Y55992D02*
X126242Y57008D01*
X127258D01*
X126750Y55992D01*
Y56195D02*
X126445Y56805D01*
X127055D01*
X126750Y56195D01*
X125000Y52492D02*
X124492Y53508D01*
X125508D01*
X125000Y52492D01*
Y52695D02*
X124695Y53305D01*
X125305D01*
X125000Y52695D01*
X126750Y48992D02*
X126242Y50008D01*
X127258D01*
X126750Y48992D01*
Y49195D02*
X126445Y49805D01*
X127055D01*
X126750Y49195D01*
X125000Y45492D02*
X124492Y46508D01*
X125508D01*
X125000Y45492D01*
Y45695D02*
X124695Y46305D01*
X125305D01*
X125000Y45695D01*
X126750Y41992D02*
X126242Y43008D01*
X127258D01*
X126750Y41992D01*
Y42195D02*
X126445Y42805D01*
X127055D01*
X126750Y42195D01*
X125000Y38492D02*
X124492Y39508D01*
X125508D01*
X125000Y38492D01*
Y38695D02*
X124695Y39305D01*
X125305D01*
X125000Y38695D01*
X126750Y34992D02*
X126242Y36008D01*
X127258D01*
X126750Y34992D01*
Y35195D02*
X126445Y35805D01*
X127055D01*
X126750Y35195D01*
X121500Y94492D02*
X120992Y95508D01*
X122008D01*
X121500Y94492D01*
Y94695D02*
X121195Y95305D01*
X121805D01*
X121500Y94695D01*
X123250Y90992D02*
X122742Y92008D01*
X123758D01*
X123250Y90992D01*
Y91195D02*
X122945Y91805D01*
X123555D01*
X123250Y91195D01*
Y83992D02*
X122742Y85008D01*
X123758D01*
X123250Y83992D01*
Y84195D02*
X122945Y84805D01*
X123555D01*
X123250Y84195D01*
Y76992D02*
X122742Y78008D01*
X123758D01*
X123250Y76992D01*
Y77195D02*
X122945Y77805D01*
X123555D01*
X123250Y77195D01*
Y69992D02*
X122742Y71008D01*
X123758D01*
X123250Y69992D01*
Y70195D02*
X122945Y70805D01*
X123555D01*
X123250Y70195D01*
Y55992D02*
X122742Y57008D01*
X123758D01*
X123250Y55992D01*
Y56195D02*
X122945Y56805D01*
X123555D01*
X123250Y56195D01*
Y48992D02*
X122742Y50008D01*
X123758D01*
X123250Y48992D01*
Y49195D02*
X122945Y49805D01*
X123555D01*
X123250Y49195D01*
Y41992D02*
X122742Y43008D01*
X123758D01*
X123250Y41992D01*
Y42195D02*
X122945Y42805D01*
X123555D01*
X123250Y42195D01*
Y34992D02*
X122742Y36008D01*
X123758D01*
X123250Y34992D01*
Y35195D02*
X122945Y35805D01*
X123555D01*
X123250Y35195D01*
X118000Y94492D02*
X117492Y95508D01*
X118508D01*
X118000Y94492D01*
Y94695D02*
X117695Y95305D01*
X118305D01*
X118000Y94695D01*
X119750Y90992D02*
X119242Y92008D01*
X120258D01*
X119750Y90992D01*
Y91195D02*
X119445Y91805D01*
X120055D01*
X119750Y91195D01*
Y76992D02*
X119242Y78008D01*
X120258D01*
X119750Y76992D01*
Y77195D02*
X119445Y77805D01*
X120055D01*
X119750Y77195D01*
X118000Y73492D02*
X117492Y74508D01*
X118508D01*
X118000Y73492D01*
Y73695D02*
X117695Y74305D01*
X118305D01*
X118000Y73695D01*
X119750Y69992D02*
X119242Y71008D01*
X120258D01*
X119750Y69992D01*
Y70195D02*
X119445Y70805D01*
X120055D01*
X119750Y70195D01*
X118000Y66492D02*
X117492Y67508D01*
X118508D01*
X118000Y66492D01*
Y66695D02*
X117695Y67305D01*
X118305D01*
X118000Y66695D01*
X119750Y55992D02*
X119242Y57008D01*
X120258D01*
X119750Y55992D01*
Y56195D02*
X119445Y56805D01*
X120055D01*
X119750Y56195D01*
Y48992D02*
X119242Y50008D01*
X120258D01*
X119750Y48992D01*
Y49195D02*
X119445Y49805D01*
X120055D01*
X119750Y49195D01*
X118000Y38492D02*
X117492Y39508D01*
X118508D01*
X118000Y38492D01*
Y38695D02*
X117695Y39305D01*
X118305D01*
X118000Y38695D01*
X119750Y34992D02*
X119242Y36008D01*
X120258D01*
X119750Y34992D01*
Y35195D02*
X119445Y35805D01*
X120055D01*
X119750Y35195D01*
X114500Y94492D02*
X113992Y95508D01*
X115008D01*
X114500Y94492D01*
Y94695D02*
X114195Y95305D01*
X114805D01*
X114500Y94695D01*
X116250Y90992D02*
X115742Y92008D01*
X116758D01*
X116250Y90992D01*
Y91195D02*
X115945Y91805D01*
X116555D01*
X116250Y91195D01*
Y76992D02*
X115742Y78008D01*
X116758D01*
X116250Y76992D01*
Y77195D02*
X115945Y77805D01*
X116555D01*
X116250Y77195D01*
X114500Y73492D02*
X113992Y74508D01*
X115008D01*
X114500Y73492D01*
Y73695D02*
X114195Y74305D01*
X114805D01*
X114500Y73695D01*
X116250Y69992D02*
X115742Y71008D01*
X116758D01*
X116250Y69992D01*
Y70195D02*
X115945Y70805D01*
X116555D01*
X116250Y70195D01*
X114500Y66492D02*
X113992Y67508D01*
X115008D01*
X114500Y66492D01*
Y66695D02*
X114195Y67305D01*
X114805D01*
X114500Y66695D01*
X116250Y62992D02*
X115742Y64008D01*
X116758D01*
X116250Y62992D01*
Y63195D02*
X115945Y63805D01*
X116555D01*
X116250Y63195D01*
Y55992D02*
X115742Y57008D01*
X116758D01*
X116250Y55992D01*
Y56195D02*
X115945Y56805D01*
X116555D01*
X116250Y56195D01*
Y48992D02*
X115742Y50008D01*
X116758D01*
X116250Y48992D01*
Y49195D02*
X115945Y49805D01*
X116555D01*
X116250Y49195D01*
Y41992D02*
X115742Y43008D01*
X116758D01*
X116250Y41992D01*
Y42195D02*
X115945Y42805D01*
X116555D01*
X116250Y42195D01*
Y34992D02*
X115742Y36008D01*
X116758D01*
X116250Y34992D01*
Y35195D02*
X115945Y35805D01*
X116555D01*
X116250Y35195D01*
X111000Y94492D02*
X110492Y95508D01*
X111508D01*
X111000Y94492D01*
Y94695D02*
X110695Y95305D01*
X111305D01*
X111000Y94695D01*
X112750Y90992D02*
X112242Y92008D01*
X113258D01*
X112750Y90992D01*
Y91195D02*
X112445Y91805D01*
X113055D01*
X112750Y91195D01*
Y83992D02*
X112242Y85008D01*
X113258D01*
X112750Y83992D01*
Y84195D02*
X112445Y84805D01*
X113055D01*
X112750Y84195D01*
X111000Y80492D02*
X110492Y81508D01*
X111508D01*
X111000Y80492D01*
Y80695D02*
X110695Y81305D01*
X111305D01*
X111000Y80695D01*
X112750Y76992D02*
X112242Y78008D01*
X113258D01*
X112750Y76992D01*
Y77195D02*
X112445Y77805D01*
X113055D01*
X112750Y77195D01*
X111000Y66492D02*
X110492Y67508D01*
X111508D01*
X111000Y66492D01*
Y66695D02*
X110695Y67305D01*
X111305D01*
X111000Y66695D01*
X112750Y62992D02*
X112242Y64008D01*
X113258D01*
X112750Y62992D01*
Y63195D02*
X112445Y63805D01*
X113055D01*
X112750Y63195D01*
Y48992D02*
X112242Y50008D01*
X113258D01*
X112750Y48992D01*
Y49195D02*
X112445Y49805D01*
X113055D01*
X112750Y49195D01*
Y41992D02*
X112242Y43008D01*
X113258D01*
X112750Y41992D01*
Y42195D02*
X112445Y42805D01*
X113055D01*
X112750Y42195D01*
Y34992D02*
X112242Y36008D01*
X113258D01*
X112750Y34992D01*
Y35195D02*
X112445Y35805D01*
X113055D01*
X112750Y35195D01*
X107500Y94492D02*
X106992Y95508D01*
X108008D01*
X107500Y94492D01*
Y94695D02*
X107195Y95305D01*
X107805D01*
X107500Y94695D01*
X109250Y90992D02*
X108742Y92008D01*
X109758D01*
X109250Y90992D01*
Y91195D02*
X108945Y91805D01*
X109555D01*
X109250Y91195D01*
X107500Y87492D02*
X106992Y88508D01*
X108008D01*
X107500Y87492D01*
Y87695D02*
X107195Y88305D01*
X107805D01*
X107500Y87695D01*
Y80492D02*
X106992Y81508D01*
X108008D01*
X107500Y80492D01*
Y80695D02*
X107195Y81305D01*
X107805D01*
X107500Y80695D01*
X109250Y76992D02*
X108742Y78008D01*
X109758D01*
X109250Y76992D01*
Y77195D02*
X108945Y77805D01*
X109555D01*
X109250Y77195D01*
X107500Y66492D02*
X106992Y67508D01*
X108008D01*
X107500Y66492D01*
Y66695D02*
X107195Y67305D01*
X107805D01*
X107500Y66695D01*
X109250Y62992D02*
X108742Y64008D01*
X109758D01*
X109250Y62992D01*
Y63195D02*
X108945Y63805D01*
X109555D01*
X109250Y63195D01*
Y48992D02*
X108742Y50008D01*
X109758D01*
X109250Y48992D01*
Y49195D02*
X108945Y49805D01*
X109555D01*
X109250Y49195D01*
Y41992D02*
X108742Y43008D01*
X109758D01*
X109250Y41992D01*
Y42195D02*
X108945Y42805D01*
X109555D01*
X109250Y42195D01*
Y34992D02*
X108742Y36008D01*
X109758D01*
X109250Y34992D01*
Y35195D02*
X108945Y35805D01*
X109555D01*
X109250Y35195D01*
X104000Y94492D02*
X103492Y95508D01*
X104508D01*
X104000Y94492D01*
Y94695D02*
X103695Y95305D01*
X104305D01*
X104000Y94695D01*
X105750Y90992D02*
X105242Y92008D01*
X106258D01*
X105750Y90992D01*
Y91195D02*
X105445Y91805D01*
X106055D01*
X105750Y91195D01*
X104000Y87492D02*
X103492Y88508D01*
X104508D01*
X104000Y87492D01*
Y87695D02*
X103695Y88305D01*
X104305D01*
X104000Y87695D01*
X105750Y83992D02*
X105242Y85008D01*
X106258D01*
X105750Y83992D01*
Y84195D02*
X105445Y84805D01*
X106055D01*
X105750Y84195D01*
X104000Y80492D02*
X103492Y81508D01*
X104508D01*
X104000Y80492D01*
Y80695D02*
X103695Y81305D01*
X104305D01*
X104000Y80695D01*
X105750Y76992D02*
X105242Y78008D01*
X106258D01*
X105750Y76992D01*
Y77195D02*
X105445Y77805D01*
X106055D01*
X105750Y77195D01*
X104000Y66492D02*
X103492Y67508D01*
X104508D01*
X104000Y66492D01*
Y66695D02*
X103695Y67305D01*
X104305D01*
X104000Y66695D01*
X105750Y55992D02*
X105242Y57008D01*
X106258D01*
X105750Y55992D01*
Y56195D02*
X105445Y56805D01*
X106055D01*
X105750Y56195D01*
Y48992D02*
X105242Y50008D01*
X106258D01*
X105750Y48992D01*
Y49195D02*
X105445Y49805D01*
X106055D01*
X105750Y49195D01*
Y41992D02*
X105242Y43008D01*
X106258D01*
X105750Y41992D01*
Y42195D02*
X105445Y42805D01*
X106055D01*
X105750Y42195D01*
Y34992D02*
X105242Y36008D01*
X106258D01*
X105750Y34992D01*
Y35195D02*
X105445Y35805D01*
X106055D01*
X105750Y35195D01*
X100500Y94492D02*
X99992Y95508D01*
X101008D01*
X100500Y94492D01*
Y94695D02*
X100195Y95305D01*
X100805D01*
X100500Y94695D01*
X102250Y90992D02*
X101742Y92008D01*
X102758D01*
X102250Y90992D01*
Y91195D02*
X101945Y91805D01*
X102555D01*
X102250Y91195D01*
X100500Y87492D02*
X99992Y88508D01*
X101008D01*
X100500Y87492D01*
Y87695D02*
X100195Y88305D01*
X100805D01*
X100500Y87695D01*
X102250Y83992D02*
X101742Y85008D01*
X102758D01*
X102250Y83992D01*
Y84195D02*
X101945Y84805D01*
X102555D01*
X102250Y84195D01*
X100500Y80492D02*
X99992Y81508D01*
X101008D01*
X100500Y80492D01*
Y80695D02*
X100195Y81305D01*
X100805D01*
X100500Y80695D01*
X102250Y76992D02*
X101742Y78008D01*
X102758D01*
X102250Y76992D01*
Y77195D02*
X101945Y77805D01*
X102555D01*
X102250Y77195D01*
X100500Y73492D02*
X99992Y74508D01*
X101008D01*
X100500Y73492D01*
Y73695D02*
X100195Y74305D01*
X100805D01*
X100500Y73695D01*
X102250Y55992D02*
X101742Y57008D01*
X102758D01*
X102250Y55992D01*
Y56195D02*
X101945Y56805D01*
X102555D01*
X102250Y56195D01*
X97000Y94492D02*
X96492Y95508D01*
X97508D01*
X97000Y94492D01*
Y94695D02*
X96695Y95305D01*
X97305D01*
X97000Y94695D01*
X98750Y90992D02*
X98242Y92008D01*
X99258D01*
X98750Y90992D01*
Y91195D02*
X98445Y91805D01*
X99055D01*
X98750Y91195D01*
X97000Y87492D02*
X96492Y88508D01*
X97508D01*
X97000Y87492D01*
Y87695D02*
X96695Y88305D01*
X97305D01*
X97000Y87695D01*
X98750Y83992D02*
X98242Y85008D01*
X99258D01*
X98750Y83992D01*
Y84195D02*
X98445Y84805D01*
X99055D01*
X98750Y84195D01*
X97000Y80492D02*
X96492Y81508D01*
X97508D01*
X97000Y80492D01*
Y80695D02*
X96695Y81305D01*
X97305D01*
X97000Y80695D01*
X98750Y76992D02*
X98242Y78008D01*
X99258D01*
X98750Y76992D01*
Y77195D02*
X98445Y77805D01*
X99055D01*
X98750Y77195D01*
Y41992D02*
X98242Y43008D01*
X99258D01*
X98750Y41992D01*
Y42195D02*
X98445Y42805D01*
X99055D01*
X98750Y42195D01*
Y34992D02*
X98242Y36008D01*
X99258D01*
X98750Y34992D01*
Y35195D02*
X98445Y35805D01*
X99055D01*
X98750Y35195D01*
X93500Y94492D02*
X92992Y95508D01*
X94008D01*
X93500Y94492D01*
Y94695D02*
X93195Y95305D01*
X93805D01*
X93500Y94695D01*
X95250Y90992D02*
X94742Y92008D01*
X95758D01*
X95250Y90992D01*
Y91195D02*
X94945Y91805D01*
X95555D01*
X95250Y91195D01*
X93500Y87492D02*
X92992Y88508D01*
X94008D01*
X93500Y87492D01*
Y87695D02*
X93195Y88305D01*
X93805D01*
X93500Y87695D01*
X95250Y83992D02*
X94742Y85008D01*
X95758D01*
X95250Y83992D01*
Y84195D02*
X94945Y84805D01*
X95555D01*
X95250Y84195D01*
X93500Y80492D02*
X92992Y81508D01*
X94008D01*
X93500Y80492D01*
Y80695D02*
X93195Y81305D01*
X93805D01*
X93500Y80695D01*
X95250Y76992D02*
X94742Y78008D01*
X95758D01*
X95250Y76992D01*
Y77195D02*
X94945Y77805D01*
X95555D01*
X95250Y77195D01*
X93500Y73492D02*
X92992Y74508D01*
X94008D01*
X93500Y73492D01*
Y73695D02*
X93195Y74305D01*
X93805D01*
X93500Y73695D01*
X95250Y34992D02*
X94742Y36008D01*
X95758D01*
X95250Y34992D01*
Y35195D02*
X94945Y35805D01*
X95555D01*
X95250Y35195D01*
X90000Y94492D02*
X89492Y95508D01*
X90508D01*
X90000Y94492D01*
Y94695D02*
X89695Y95305D01*
X90305D01*
X90000Y94695D01*
X91750Y90992D02*
X91242Y92008D01*
X92258D01*
X91750Y90992D01*
Y91195D02*
X91445Y91805D01*
X92055D01*
X91750Y91195D01*
X90000Y87492D02*
X89492Y88508D01*
X90508D01*
X90000Y87492D01*
Y87695D02*
X89695Y88305D01*
X90305D01*
X90000Y87695D01*
X91750Y83992D02*
X91242Y85008D01*
X92258D01*
X91750Y83992D01*
Y84195D02*
X91445Y84805D01*
X92055D01*
X91750Y84195D01*
X90000Y80492D02*
X89492Y81508D01*
X90508D01*
X90000Y80492D01*
Y80695D02*
X89695Y81305D01*
X90305D01*
X90000Y80695D01*
X91750Y76992D02*
X91242Y78008D01*
X92258D01*
X91750Y76992D01*
Y77195D02*
X91445Y77805D01*
X92055D01*
X91750Y77195D01*
X90000Y73492D02*
X89492Y74508D01*
X90508D01*
X90000Y73492D01*
Y73695D02*
X89695Y74305D01*
X90305D01*
X90000Y73695D01*
Y66492D02*
X89492Y67508D01*
X90508D01*
X90000Y66492D01*
Y66695D02*
X89695Y67305D01*
X90305D01*
X90000Y66695D01*
X91750Y34992D02*
X91242Y36008D01*
X92258D01*
X91750Y34992D01*
Y35195D02*
X91445Y35805D01*
X92055D01*
X91750Y35195D01*
X86500Y94492D02*
X85992Y95508D01*
X87008D01*
X86500Y94492D01*
Y94695D02*
X86195Y95305D01*
X86805D01*
X86500Y94695D01*
Y80492D02*
X85992Y81508D01*
X87008D01*
X86500Y80492D01*
Y80695D02*
X86195Y81305D01*
X86805D01*
X86500Y80695D01*
X88250Y76992D02*
X87742Y78008D01*
X88758D01*
X88250Y76992D01*
Y77195D02*
X87945Y77805D01*
X88555D01*
X88250Y77195D01*
X86500Y66492D02*
X85992Y67508D01*
X87008D01*
X86500Y66492D01*
Y66695D02*
X86195Y67305D01*
X86805D01*
X86500Y66695D01*
X88250Y34992D02*
X87742Y36008D01*
X88758D01*
X88250Y34992D01*
Y35195D02*
X87945Y35805D01*
X88555D01*
X88250Y35195D01*
X83000Y94492D02*
X82492Y95508D01*
X83508D01*
X83000Y94492D01*
Y94695D02*
X82695Y95305D01*
X83305D01*
X83000Y94695D01*
X84750Y90992D02*
X84242Y92008D01*
X85258D01*
X84750Y90992D01*
Y91195D02*
X84445Y91805D01*
X85055D01*
X84750Y91195D01*
X83000Y87492D02*
X82492Y88508D01*
X83508D01*
X83000Y87492D01*
Y87695D02*
X82695Y88305D01*
X83305D01*
X83000Y87695D01*
X84750Y83992D02*
X84242Y85008D01*
X85258D01*
X84750Y83992D01*
Y84195D02*
X84445Y84805D01*
X85055D01*
X84750Y84195D01*
X83000Y80492D02*
X82492Y81508D01*
X83508D01*
X83000Y80492D01*
Y80695D02*
X82695Y81305D01*
X83305D01*
X83000Y80695D01*
X84750Y76992D02*
X84242Y78008D01*
X85258D01*
X84750Y76992D01*
Y77195D02*
X84445Y77805D01*
X85055D01*
X84750Y77195D01*
Y48992D02*
X84242Y50008D01*
X85258D01*
X84750Y48992D01*
Y49195D02*
X84445Y49805D01*
X85055D01*
X84750Y49195D01*
X76000Y94492D02*
X75492Y95508D01*
X76508D01*
X76000Y94492D01*
Y94695D02*
X75695Y95305D01*
X76305D01*
X76000Y94695D01*
X77750Y90992D02*
X77242Y92008D01*
X78258D01*
X77750Y90992D01*
Y91195D02*
X77445Y91805D01*
X78055D01*
X77750Y91195D01*
X76000Y87492D02*
X75492Y88508D01*
X76508D01*
X76000Y87492D01*
Y87695D02*
X75695Y88305D01*
X76305D01*
X76000Y87695D01*
X77750Y83992D02*
X77242Y85008D01*
X78258D01*
X77750Y83992D01*
Y84195D02*
X77445Y84805D01*
X78055D01*
X77750Y84195D01*
X76000Y80492D02*
X75492Y81508D01*
X76508D01*
X76000Y80492D01*
Y80695D02*
X75695Y81305D01*
X76305D01*
X76000Y80695D01*
Y38492D02*
X75492Y39508D01*
X76508D01*
X76000Y38492D01*
Y38695D02*
X75695Y39305D01*
X76305D01*
X76000Y38695D01*
X72500Y94492D02*
X71992Y95508D01*
X73008D01*
X72500Y94492D01*
Y94695D02*
X72195Y95305D01*
X72805D01*
X72500Y94695D01*
X74250Y90992D02*
X73742Y92008D01*
X74758D01*
X74250Y90992D01*
Y91195D02*
X73945Y91805D01*
X74555D01*
X74250Y91195D01*
Y83992D02*
X73742Y85008D01*
X74758D01*
X74250Y83992D01*
Y84195D02*
X73945Y84805D01*
X74555D01*
X74250Y84195D01*
X72500Y38492D02*
X71992Y39508D01*
X73008D01*
X72500Y38492D01*
Y38695D02*
X72195Y39305D01*
X72805D01*
X72500Y38695D01*
X69000Y94492D02*
X68492Y95508D01*
X69508D01*
X69000Y94492D01*
Y94695D02*
X68695Y95305D01*
X69305D01*
X69000Y94695D01*
X70750Y90992D02*
X70242Y92008D01*
X71258D01*
X70750Y90992D01*
Y91195D02*
X70445Y91805D01*
X71055D01*
X70750Y91195D01*
Y83992D02*
X70242Y85008D01*
X71258D01*
X70750Y83992D01*
Y84195D02*
X70445Y84805D01*
X71055D01*
X70750Y84195D01*
X69000Y80492D02*
X68492Y81508D01*
X69508D01*
X69000Y80492D01*
Y80695D02*
X68695Y81305D01*
X69305D01*
X69000Y80695D01*
X70750Y76992D02*
X70242Y78008D01*
X71258D01*
X70750Y76992D01*
Y77195D02*
X70445Y77805D01*
X71055D01*
X70750Y77195D01*
Y69992D02*
X70242Y71008D01*
X71258D01*
X70750Y69992D01*
Y70195D02*
X70445Y70805D01*
X71055D01*
X70750Y70195D01*
Y62992D02*
X70242Y64008D01*
X71258D01*
X70750Y62992D01*
Y63195D02*
X70445Y63805D01*
X71055D01*
X70750Y63195D01*
Y34992D02*
X70242Y36008D01*
X71258D01*
X70750Y34992D01*
Y35195D02*
X70445Y35805D01*
X71055D01*
X70750Y35195D01*
X65500Y94492D02*
X64992Y95508D01*
X66008D01*
X65500Y94492D01*
Y94695D02*
X65195Y95305D01*
X65805D01*
X65500Y94695D01*
Y87492D02*
X64992Y88508D01*
X66008D01*
X65500Y87492D01*
Y87695D02*
X65195Y88305D01*
X65805D01*
X65500Y87695D01*
X67250Y76992D02*
X66742Y78008D01*
X67758D01*
X67250Y76992D01*
Y77195D02*
X66945Y77805D01*
X67555D01*
X67250Y77195D01*
Y62992D02*
X66742Y64008D01*
X67758D01*
X67250Y62992D01*
Y63195D02*
X66945Y63805D01*
X67555D01*
X67250Y63195D01*
Y48992D02*
X66742Y50008D01*
X67758D01*
X67250Y48992D01*
Y49195D02*
X66945Y49805D01*
X67555D01*
X67250Y49195D01*
X65500Y45492D02*
X64992Y46508D01*
X66008D01*
X65500Y45492D01*
Y45695D02*
X65195Y46305D01*
X65805D01*
X65500Y45695D01*
X62000Y94492D02*
X61492Y95508D01*
X62508D01*
X62000Y94492D01*
Y94695D02*
X61695Y95305D01*
X62305D01*
X62000Y94695D01*
X63750Y83992D02*
X63242Y85008D01*
X64258D01*
X63750Y83992D01*
Y84195D02*
X63445Y84805D01*
X64055D01*
X63750Y84195D01*
X62000Y73492D02*
X61492Y74508D01*
X62508D01*
X62000Y73492D01*
Y73695D02*
X61695Y74305D01*
X62305D01*
X62000Y73695D01*
X63750Y62992D02*
X63242Y64008D01*
X64258D01*
X63750Y62992D01*
Y63195D02*
X63445Y63805D01*
X64055D01*
X63750Y63195D01*
X58500Y94492D02*
X57992Y95508D01*
X59008D01*
X58500Y94492D01*
Y94695D02*
X58195Y95305D01*
X58805D01*
X58500Y94695D01*
X60250Y83992D02*
X59742Y85008D01*
X60758D01*
X60250Y83992D01*
Y84195D02*
X59945Y84805D01*
X60555D01*
X60250Y84195D01*
X58500Y73492D02*
X57992Y74508D01*
X59008D01*
X58500Y73492D01*
Y73695D02*
X58195Y74305D01*
X58805D01*
X58500Y73695D01*
X60250Y62992D02*
X59742Y64008D01*
X60758D01*
X60250Y62992D01*
Y63195D02*
X59945Y63805D01*
X60555D01*
X60250Y63195D01*
Y48992D02*
X59742Y50008D01*
X60758D01*
X60250Y48992D01*
Y49195D02*
X59945Y49805D01*
X60555D01*
X60250Y49195D01*
X55000Y94492D02*
X54492Y95508D01*
X55508D01*
X55000Y94492D01*
Y94695D02*
X54695Y95305D01*
X55305D01*
X55000Y94695D01*
X56750Y83992D02*
X56242Y85008D01*
X57258D01*
X56750Y83992D01*
Y84195D02*
X56445Y84805D01*
X57055D01*
X56750Y84195D01*
X55000Y73492D02*
X54492Y74508D01*
X55508D01*
X55000Y73492D01*
Y73695D02*
X54695Y74305D01*
X55305D01*
X55000Y73695D01*
X56750Y69992D02*
X56242Y71008D01*
X57258D01*
X56750Y69992D01*
Y70195D02*
X56445Y70805D01*
X57055D01*
X56750Y70195D01*
Y62992D02*
X56242Y64008D01*
X57258D01*
X56750Y62992D01*
Y63195D02*
X56445Y63805D01*
X57055D01*
X56750Y63195D01*
X51500Y94492D02*
X50992Y95508D01*
X52008D01*
X51500Y94492D01*
Y94695D02*
X51195Y95305D01*
X51805D01*
X51500Y94695D01*
X53250Y83992D02*
X52742Y85008D01*
X53758D01*
X53250Y83992D01*
Y84195D02*
X52945Y84805D01*
X53555D01*
X53250Y84195D01*
Y69992D02*
X52742Y71008D01*
X53758D01*
X53250Y69992D01*
Y70195D02*
X52945Y70805D01*
X53555D01*
X53250Y70195D01*
Y62992D02*
X52742Y64008D01*
X53758D01*
X53250Y62992D01*
Y63195D02*
X52945Y63805D01*
X53555D01*
X53250Y63195D01*
X48000Y94492D02*
X47492Y95508D01*
X48508D01*
X48000Y94492D01*
Y94695D02*
X47695Y95305D01*
X48305D01*
X48000Y94695D01*
X49750Y83992D02*
X49242Y85008D01*
X50258D01*
X49750Y83992D01*
Y84195D02*
X49445Y84805D01*
X50055D01*
X49750Y84195D01*
X44500Y94492D02*
X43992Y95508D01*
X45008D01*
X44500Y94492D01*
Y94695D02*
X44195Y95305D01*
X44805D01*
X44500Y94695D01*
X46250Y83992D02*
X45742Y85008D01*
X46758D01*
X46250Y83992D01*
Y84195D02*
X45945Y84805D01*
X46555D01*
X46250Y84195D01*
Y76992D02*
X45742Y78008D01*
X46758D01*
X46250Y76992D01*
Y77195D02*
X45945Y77805D01*
X46555D01*
X46250Y77195D01*
X44500Y73492D02*
X43992Y74508D01*
X45008D01*
X44500Y73492D01*
Y73695D02*
X44195Y74305D01*
X44805D01*
X44500Y73695D01*
X46250Y69992D02*
X45742Y71008D01*
X46758D01*
X46250Y69992D01*
Y70195D02*
X45945Y70805D01*
X46555D01*
X46250Y70195D01*
X41000Y94492D02*
X40492Y95508D01*
X41508D01*
X41000Y94492D01*
Y94695D02*
X40695Y95305D01*
X41305D01*
X41000Y94695D01*
X42750Y90992D02*
X42242Y92008D01*
X43258D01*
X42750Y90992D01*
Y91195D02*
X42445Y91805D01*
X43055D01*
X42750Y91195D01*
Y83992D02*
X42242Y85008D01*
X43258D01*
X42750Y83992D01*
Y84195D02*
X42445Y84805D01*
X43055D01*
X42750Y84195D01*
X41000Y73492D02*
X40492Y74508D01*
X41508D01*
X41000Y73492D01*
Y73695D02*
X40695Y74305D01*
X41305D01*
X41000Y73695D01*
X42750Y69992D02*
X42242Y71008D01*
X43258D01*
X42750Y69992D01*
Y70195D02*
X42445Y70805D01*
X43055D01*
X42750Y70195D01*
X41000Y59492D02*
X40492Y60508D01*
X41508D01*
X41000Y59492D01*
Y59695D02*
X40695Y60305D01*
X41305D01*
X41000Y59695D01*
X37500Y94492D02*
X36992Y95508D01*
X38008D01*
X37500Y94492D01*
Y94695D02*
X37195Y95305D01*
X37805D01*
X37500Y94695D01*
X39250Y90992D02*
X38742Y92008D01*
X39758D01*
X39250Y90992D01*
Y91195D02*
X38945Y91805D01*
X39555D01*
X39250Y91195D01*
Y83992D02*
X38742Y85008D01*
X39758D01*
X39250Y83992D01*
Y84195D02*
X38945Y84805D01*
X39555D01*
X39250Y84195D01*
Y76992D02*
X38742Y78008D01*
X39758D01*
X39250Y76992D01*
Y77195D02*
X38945Y77805D01*
X39555D01*
X39250Y77195D01*
X37500Y73492D02*
X36992Y74508D01*
X38008D01*
X37500Y73492D01*
Y73695D02*
X37195Y74305D01*
X37805D01*
X37500Y73695D01*
Y59492D02*
X36992Y60508D01*
X38008D01*
X37500Y59492D01*
Y59695D02*
X37195Y60305D01*
X37805D01*
X37500Y59695D01*
X34000Y94492D02*
X33492Y95508D01*
X34508D01*
X34000Y94492D01*
Y94695D02*
X33695Y95305D01*
X34305D01*
X34000Y94695D01*
X35750Y83992D02*
X35242Y85008D01*
X36258D01*
X35750Y83992D01*
Y84195D02*
X35445Y84805D01*
X36055D01*
X35750Y84195D01*
Y76992D02*
X35242Y78008D01*
X36258D01*
X35750Y76992D01*
Y77195D02*
X35445Y77805D01*
X36055D01*
X35750Y77195D01*
X34000Y73492D02*
X33492Y74508D01*
X34508D01*
X34000Y73492D01*
Y73695D02*
X33695Y74305D01*
X34305D01*
X34000Y73695D01*
X35750Y69992D02*
X35242Y71008D01*
X36258D01*
X35750Y69992D01*
Y70195D02*
X35445Y70805D01*
X36055D01*
X35750Y70195D01*
X34000Y66492D02*
X33492Y67508D01*
X34508D01*
X34000Y66492D01*
Y66695D02*
X33695Y67305D01*
X34305D01*
X34000Y66695D01*
X35750Y55992D02*
X35242Y57008D01*
X36258D01*
X35750Y55992D01*
Y56195D02*
X35445Y56805D01*
X36055D01*
X35750Y56195D01*
X30500Y94492D02*
X29992Y95508D01*
X31008D01*
X30500Y94492D01*
Y94695D02*
X30195Y95305D01*
X30805D01*
X30500Y94695D01*
X32250Y90992D02*
X31742Y92008D01*
X32758D01*
X32250Y90992D01*
Y91195D02*
X31945Y91805D01*
X32555D01*
X32250Y91195D01*
X30500Y87492D02*
X29992Y88508D01*
X31008D01*
X30500Y87492D01*
Y87695D02*
X30195Y88305D01*
X30805D01*
X30500Y87695D01*
X32250Y83992D02*
X31742Y85008D01*
X32758D01*
X32250Y83992D01*
Y84195D02*
X31945Y84805D01*
X32555D01*
X32250Y84195D01*
X30500Y52492D02*
X29992Y53508D01*
X31008D01*
X30500Y52492D01*
Y52695D02*
X30195Y53305D01*
X30805D01*
X30500Y52695D01*
X27000Y94492D02*
X26492Y95508D01*
X27508D01*
X27000Y94492D01*
Y94695D02*
X26695Y95305D01*
X27305D01*
X27000Y94695D01*
X28750Y90992D02*
X28242Y92008D01*
X29258D01*
X28750Y90992D01*
Y91195D02*
X28445Y91805D01*
X29055D01*
X28750Y91195D01*
X27000Y87492D02*
X26492Y88508D01*
X27508D01*
X27000Y87492D01*
Y87695D02*
X26695Y88305D01*
X27305D01*
X27000Y87695D01*
Y52492D02*
X26492Y53508D01*
X27508D01*
X27000Y52492D01*
Y52695D02*
X26695Y53305D01*
X27305D01*
X27000Y52695D01*
X23500Y94492D02*
X22992Y95508D01*
X24008D01*
X23500Y94492D01*
Y94695D02*
X23195Y95305D01*
X23805D01*
X23500Y94695D01*
X25250Y90992D02*
X24742Y92008D01*
X25758D01*
X25250Y90992D01*
Y91195D02*
X24945Y91805D01*
X25555D01*
X25250Y91195D01*
X23500Y87492D02*
X22992Y88508D01*
X24008D01*
X23500Y87492D01*
Y87695D02*
X23195Y88305D01*
X23805D01*
X23500Y87695D01*
Y80492D02*
X22992Y81508D01*
X24008D01*
X23500Y80492D01*
Y80695D02*
X23195Y81305D01*
X23805D01*
X23500Y80695D01*
Y66492D02*
X22992Y67508D01*
X24008D01*
X23500Y66492D01*
Y66695D02*
X23195Y67305D01*
X23805D01*
X23500Y66695D01*
Y59492D02*
X22992Y60508D01*
X24008D01*
X23500Y59492D01*
Y59695D02*
X23195Y60305D01*
X23805D01*
X23500Y59695D01*
Y52492D02*
X22992Y53508D01*
X24008D01*
X23500Y52492D01*
Y52695D02*
X23195Y53305D01*
X23805D01*
X23500Y52695D01*
X20000Y94492D02*
X19492Y95508D01*
X20508D01*
X20000Y94492D01*
Y94695D02*
X19695Y95305D01*
X20305D01*
X20000Y94695D01*
X21750Y90992D02*
X21242Y92008D01*
X22258D01*
X21750Y90992D01*
Y91195D02*
X21445Y91805D01*
X22055D01*
X21750Y91195D01*
X20000Y87492D02*
X19492Y88508D01*
X20508D01*
X20000Y87492D01*
Y87695D02*
X19695Y88305D01*
X20305D01*
X20000Y87695D01*
Y80492D02*
X19492Y81508D01*
X20508D01*
X20000Y80492D01*
Y80695D02*
X19695Y81305D01*
X20305D01*
X20000Y80695D01*
X21750Y76992D02*
X21242Y78008D01*
X22258D01*
X21750Y76992D01*
Y77195D02*
X21445Y77805D01*
X22055D01*
X21750Y77195D01*
Y69992D02*
X21242Y71008D01*
X22258D01*
X21750Y69992D01*
Y70195D02*
X21445Y70805D01*
X22055D01*
X21750Y70195D01*
X20000Y66492D02*
X19492Y67508D01*
X20508D01*
X20000Y66492D01*
Y66695D02*
X19695Y67305D01*
X20305D01*
X20000Y66695D01*
Y59492D02*
X19492Y60508D01*
X20508D01*
X20000Y59492D01*
Y59695D02*
X19695Y60305D01*
X20305D01*
X20000Y59695D01*
X21750Y55992D02*
X21242Y57008D01*
X22258D01*
X21750Y55992D01*
Y56195D02*
X21445Y56805D01*
X22055D01*
X21750Y56195D01*
X20000Y52492D02*
X19492Y53508D01*
X20508D01*
X20000Y52492D01*
Y52695D02*
X19695Y53305D01*
X20305D01*
X20000Y52695D01*
X16500Y80492D02*
X15992Y81508D01*
X17008D01*
X16500Y80492D01*
Y80695D02*
X16195Y81305D01*
X16805D01*
X16500Y80695D01*
X18250Y76992D02*
X17742Y78008D01*
X18758D01*
X18250Y76992D01*
Y77195D02*
X17945Y77805D01*
X18555D01*
X18250Y77195D01*
Y69992D02*
X17742Y71008D01*
X18758D01*
X18250Y69992D01*
Y70195D02*
X17945Y70805D01*
X18555D01*
X18250Y70195D01*
X16500Y66492D02*
X15992Y67508D01*
X17008D01*
X16500Y66492D01*
Y66695D02*
X16195Y67305D01*
X16805D01*
X16500Y66695D01*
X18250Y55992D02*
X17742Y57008D01*
X18758D01*
X18250Y55992D01*
Y56195D02*
X17945Y56805D01*
X18555D01*
X18250Y56195D01*
X16500Y52492D02*
X15992Y53508D01*
X17008D01*
X16500Y52492D01*
Y52695D02*
X16195Y53305D01*
X16805D01*
X16500Y52695D01*
X13000Y87492D02*
X12492Y88508D01*
X13508D01*
X13000Y87492D01*
Y87695D02*
X12695Y88305D01*
X13305D01*
X13000Y87695D01*
X14750Y83992D02*
X14242Y85008D01*
X15258D01*
X14750Y83992D01*
Y84195D02*
X14445Y84805D01*
X15055D01*
X14750Y84195D01*
X13000Y80492D02*
X12492Y81508D01*
X13508D01*
X13000Y80492D01*
Y80695D02*
X12695Y81305D01*
X13305D01*
X13000Y80695D01*
X14750Y76992D02*
X14242Y78008D01*
X15258D01*
X14750Y76992D01*
Y77195D02*
X14445Y77805D01*
X15055D01*
X14750Y77195D01*
X13000Y73492D02*
X12492Y74508D01*
X13508D01*
X13000Y73492D01*
Y73695D02*
X12695Y74305D01*
X13305D01*
X13000Y73695D01*
X14750Y69992D02*
X14242Y71008D01*
X15258D01*
X14750Y69992D01*
Y70195D02*
X14445Y70805D01*
X15055D01*
X14750Y70195D01*
X13000Y66492D02*
X12492Y67508D01*
X13508D01*
X13000Y66492D01*
Y66695D02*
X12695Y67305D01*
X13305D01*
X13000Y66695D01*
X14750Y62992D02*
X14242Y64008D01*
X15258D01*
X14750Y62992D01*
Y63195D02*
X14445Y63805D01*
X15055D01*
X14750Y63195D01*
X13000Y59492D02*
X12492Y60508D01*
X13508D01*
X13000Y59492D01*
Y59695D02*
X12695Y60305D01*
X13305D01*
X13000Y59695D01*
X14750Y55992D02*
X14242Y57008D01*
X15258D01*
X14750Y55992D01*
Y56195D02*
X14445Y56805D01*
X15055D01*
X14750Y56195D01*
X13000Y52492D02*
X12492Y53508D01*
X13508D01*
X13000Y52492D01*
Y52695D02*
X12695Y53305D01*
X13305D01*
X13000Y52695D01*
X14750Y48992D02*
X14242Y50008D01*
X15258D01*
X14750Y48992D01*
Y49195D02*
X14445Y49805D01*
X15055D01*
X14750Y49195D01*
X84916Y57180D02*
Y55911D01*
Y56546D01*
X85762D01*
Y57180D01*
Y55911D01*
X69490Y51070D02*
Y49800D01*
Y50435D01*
X70336D01*
Y51070D01*
Y49800D01*
X70748Y56270D02*
Y55000D01*
Y55635D01*
X71595D01*
Y56270D01*
Y55000D01*
X102160Y48270D02*
Y47000D01*
Y47635D01*
X103006D01*
Y48270D01*
Y47000D01*
X102160Y45094D02*
Y43824D01*
Y44459D01*
X103006D01*
Y45094D01*
Y43824D01*
X102160Y38720D02*
Y37450D01*
Y38085D01*
X103006D01*
Y38720D01*
Y37450D01*
X79800Y35270D02*
Y34000D01*
Y34635D01*
X80646D01*
Y35270D01*
Y34000D01*
X79485Y37370D02*
Y36100D01*
Y36735D01*
X80331D01*
Y37370D01*
Y36100D01*
X78000Y40270D02*
Y39000D01*
Y39635D01*
X78846D01*
Y40270D01*
Y39000D01*
X81700Y37370D02*
Y36100D01*
Y36735D01*
X82546D01*
Y37370D01*
Y36100D01*
X75500Y37370D02*
Y36100D01*
Y36735D01*
X76346D01*
Y37370D01*
Y36100D01*
X87034Y45270D02*
Y44000D01*
Y44635D01*
X87880D01*
Y45270D01*
Y44000D01*
X72700Y63070D02*
Y61800D01*
Y62435D01*
X73546D01*
Y63070D01*
Y61800D01*
X77600Y65270D02*
Y64000D01*
Y64635D01*
X78446D01*
Y65270D01*
Y64000D01*
X84469Y66070D02*
Y64800D01*
Y65435D01*
X85315D01*
Y66070D01*
Y64800D01*
X97600Y53483D02*
Y52213D01*
Y52848D01*
X98446D01*
Y53483D01*
Y52213D01*
X89839Y49591D02*
Y48322D01*
Y48957D01*
X90685D01*
Y49591D01*
Y48322D01*
X46250Y13992D02*
X45742Y15008D01*
X46758D01*
X46250Y13992D01*
Y14195D02*
X45945Y14805D01*
X46555D01*
X46250Y14195D01*
X147750Y76992D02*
X147242Y78008D01*
X148258D01*
X147750Y76992D01*
Y77195D02*
X147445Y77805D01*
X148055D01*
X147750Y77195D01*
X48000Y17492D02*
X47492Y18508D01*
X48508D01*
X48000Y17492D01*
Y17695D02*
X47695Y18305D01*
X48305D01*
X48000Y17695D01*
X37500Y10492D02*
X36992Y11508D01*
X38008D01*
X37500Y10492D01*
Y10695D02*
X37195Y11305D01*
X37805D01*
X37500Y10695D01*
X151250Y41992D02*
X150742Y43008D01*
X151758D01*
X151250Y41992D01*
Y42195D02*
X150945Y42805D01*
X151555D01*
X151250Y42195D01*
X21750Y27992D02*
X21242Y29008D01*
X22258D01*
X21750Y27992D01*
Y28195D02*
X21445Y28805D01*
X22055D01*
X21750Y28195D01*
X133750Y20992D02*
X133242Y22008D01*
X134258D01*
X133750Y20992D01*
Y21195D02*
X133445Y21805D01*
X134055D01*
X133750Y21195D01*
X25250Y13992D02*
X24742Y15008D01*
X25758D01*
X25250Y13992D01*
Y14195D02*
X24945Y14805D01*
X25555D01*
X25250Y14195D01*
X58500Y17492D02*
X57992Y18508D01*
X59008D01*
X58500Y17492D01*
Y17695D02*
X58195Y18305D01*
X58805D01*
X58500Y17695D01*
X34000Y17492D02*
X33492Y18508D01*
X34508D01*
X34000Y17492D01*
Y17695D02*
X33695Y18305D01*
X34305D01*
X34000Y17695D01*
X39250Y13992D02*
X38742Y15008D01*
X39758D01*
X39250Y13992D01*
Y14195D02*
X38945Y14805D01*
X39555D01*
X39250Y14195D01*
X56750Y20992D02*
X56242Y22008D01*
X57258D01*
X56750Y20992D01*
Y21195D02*
X56445Y21805D01*
X57055D01*
X56750Y21195D01*
Y34992D02*
X56242Y36008D01*
X57258D01*
X56750Y34992D01*
Y35195D02*
X56445Y35805D01*
X57055D01*
X56750Y35195D01*
X146000Y10492D02*
X145492Y11508D01*
X146508D01*
X146000Y10492D01*
Y10695D02*
X145695Y11305D01*
X146305D01*
X146000Y10695D01*
X151250Y20992D02*
X150742Y22008D01*
X151758D01*
X151250Y20992D01*
Y21195D02*
X150945Y21805D01*
X151555D01*
X151250Y21195D01*
X100500Y10492D02*
X99992Y11508D01*
X101008D01*
X100500Y10492D01*
Y10695D02*
X100195Y11305D01*
X100805D01*
X100500Y10695D01*
X51500Y10492D02*
X50992Y11508D01*
X52008D01*
X51500Y10492D01*
Y10695D02*
X51195Y11305D01*
X51805D01*
X51500Y10695D01*
X30500Y38492D02*
X29992Y39508D01*
X31008D01*
X30500Y38492D01*
Y38695D02*
X30195Y39305D01*
X30805D01*
X30500Y38695D01*
X105750Y20992D02*
X105242Y22008D01*
X106258D01*
X105750Y20992D01*
Y21195D02*
X105445Y21805D01*
X106055D01*
X105750Y21195D01*
X154750Y27992D02*
X154242Y29008D01*
X155258D01*
X154750Y27992D01*
Y28195D02*
X154445Y28805D01*
X155055D01*
X154750Y28195D01*
X25250Y27992D02*
X24742Y29008D01*
X25758D01*
X25250Y27992D01*
Y28195D02*
X24945Y28805D01*
X25555D01*
X25250Y28195D01*
X23500Y31492D02*
X22992Y32508D01*
X24008D01*
X23500Y31492D01*
Y31695D02*
X23195Y32305D01*
X23805D01*
X23500Y31695D01*
X126750Y13992D02*
X126242Y15008D01*
X127258D01*
X126750Y13992D01*
Y14195D02*
X126445Y14805D01*
X127055D01*
X126750Y14195D01*
X149500Y10492D02*
X148992Y11508D01*
X150008D01*
X149500Y10492D01*
Y10695D02*
X149195Y11305D01*
X149805D01*
X149500Y10695D01*
X147750Y55992D02*
X147242Y57008D01*
X148258D01*
X147750Y55992D01*
Y56195D02*
X147445Y56805D01*
X148055D01*
X147750Y56195D01*
X18250Y41992D02*
X17742Y43008D01*
X18758D01*
X18250Y41992D01*
Y42195D02*
X17945Y42805D01*
X18555D01*
X18250Y42195D01*
X154750Y41992D02*
X154242Y43008D01*
X155258D01*
X154750Y41992D01*
Y42195D02*
X154445Y42805D01*
X155055D01*
X154750Y42195D01*
X160000Y66492D02*
X159492Y67508D01*
X160508D01*
X160000Y66492D01*
Y66695D02*
X159695Y67305D01*
X160305D01*
X160000Y66695D01*
X100500Y17492D02*
X99992Y18508D01*
X101008D01*
X100500Y17492D01*
Y17695D02*
X100195Y18305D01*
X100805D01*
X100500Y17695D01*
X160000Y87492D02*
X159492Y88508D01*
X160508D01*
X160000Y87492D01*
Y87695D02*
X159695Y88305D01*
X160305D01*
X160000Y87695D01*
X149500Y24492D02*
X148992Y25508D01*
X150008D01*
X149500Y24492D01*
Y24695D02*
X149195Y25305D01*
X149805D01*
X149500Y24695D01*
X151250Y83992D02*
X150742Y85008D01*
X151758D01*
X151250Y83992D01*
Y84195D02*
X150945Y84805D01*
X151555D01*
X151250Y84195D01*
X14750Y27992D02*
X14242Y29008D01*
X15258D01*
X14750Y27992D01*
Y28195D02*
X14445Y28805D01*
X15055D01*
X14750Y28195D01*
X133750Y27992D02*
X133242Y29008D01*
X134258D01*
X133750Y27992D01*
Y28195D02*
X133445Y28805D01*
X134055D01*
X133750Y28195D01*
X140750Y34992D02*
X140242Y36008D01*
X141258D01*
X140750Y34992D01*
Y35195D02*
X140445Y35805D01*
X141055D01*
X140750Y35195D01*
X62000Y10492D02*
X61492Y11508D01*
X62508D01*
X62000Y10492D01*
Y10695D02*
X61695Y11305D01*
X62305D01*
X62000Y10695D01*
X21750Y41992D02*
X21242Y43008D01*
X22258D01*
X21750Y41992D01*
Y42195D02*
X21445Y42805D01*
X22055D01*
X21750Y42195D01*
X156500Y24492D02*
X155992Y25508D01*
X157008D01*
X156500Y24492D01*
Y24695D02*
X156195Y25305D01*
X156805D01*
X156500Y24695D01*
X20000Y31492D02*
X19492Y32508D01*
X20508D01*
X20000Y31492D01*
Y31695D02*
X19695Y32305D01*
X20305D01*
X20000Y31695D01*
X149500Y87492D02*
X148992Y88508D01*
X150008D01*
X149500Y87492D01*
Y87695D02*
X149195Y88305D01*
X149805D01*
X149500Y87695D01*
X151250Y55992D02*
X150742Y57008D01*
X151758D01*
X151250Y55992D01*
Y56195D02*
X150945Y56805D01*
X151555D01*
X151250Y56195D01*
X62000Y17492D02*
X61492Y18508D01*
X62508D01*
X62000Y17492D01*
Y17695D02*
X61695Y18305D01*
X62305D01*
X62000Y17695D01*
X126750Y20992D02*
X126242Y22008D01*
X127258D01*
X126750Y20992D01*
Y21195D02*
X126445Y21805D01*
X127055D01*
X126750Y21195D01*
X23500Y38492D02*
X22992Y39508D01*
X24008D01*
X23500Y38492D01*
Y38695D02*
X23195Y39305D01*
X23805D01*
X23500Y38695D01*
Y17492D02*
X22992Y18508D01*
X24008D01*
X23500Y17492D01*
Y17695D02*
X23195Y18305D01*
X23805D01*
X23500Y17695D01*
X161750Y69992D02*
X161242Y71008D01*
X162258D01*
X161750Y69992D01*
Y70195D02*
X161445Y70805D01*
X162055D01*
X161750Y70195D01*
X25250Y41992D02*
X24742Y43008D01*
X25758D01*
X25250Y41992D01*
Y42195D02*
X24945Y42805D01*
X25555D01*
X25250Y42195D01*
X149500Y52492D02*
X148992Y53508D01*
X150008D01*
X149500Y52492D01*
Y52695D02*
X149195Y53305D01*
X149805D01*
X149500Y52695D01*
X153000Y17492D02*
X152492Y18508D01*
X153508D01*
X153000Y17492D01*
Y17695D02*
X152695Y18305D01*
X153305D01*
X153000Y17695D01*
X114500Y10492D02*
X113992Y11508D01*
X115008D01*
X114500Y10492D01*
Y10695D02*
X114195Y11305D01*
X114805D01*
X114500Y10695D01*
X130250Y13992D02*
X129742Y15008D01*
X130758D01*
X130250Y13992D01*
Y14195D02*
X129945Y14805D01*
X130555D01*
X130250Y14195D01*
X20000Y38492D02*
X19492Y39508D01*
X20508D01*
X20000Y38492D01*
Y38695D02*
X19695Y39305D01*
X20305D01*
X20000Y38695D01*
X147750Y34992D02*
X147242Y36008D01*
X148258D01*
X147750Y34992D01*
Y35195D02*
X147445Y35805D01*
X148055D01*
X147750Y35195D01*
X149500Y38492D02*
X148992Y39508D01*
X150008D01*
X149500Y38492D01*
Y38695D02*
X149195Y39305D01*
X149805D01*
X149500Y38695D01*
X160000Y52492D02*
X159492Y53508D01*
X160508D01*
X160000Y52492D01*
Y52695D02*
X159695Y53305D01*
X160305D01*
X160000Y52695D01*
X28750Y27992D02*
X28242Y29008D01*
X29258D01*
X28750Y27992D01*
Y28195D02*
X28445Y28805D01*
X29055D01*
X28750Y28195D01*
X158250Y55992D02*
X157742Y57008D01*
X158758D01*
X158250Y55992D01*
Y56195D02*
X157945Y56805D01*
X158555D01*
X158250Y56195D01*
X161750Y62992D02*
X161242Y64008D01*
X162258D01*
X161750Y62992D01*
Y63195D02*
X161445Y63805D01*
X162055D01*
X161750Y63195D01*
X151250Y13992D02*
X150742Y15008D01*
X151758D01*
X151250Y13992D01*
Y14195D02*
X150945Y14805D01*
X151555D01*
X151250Y14195D01*
X53250Y13992D02*
X52742Y15008D01*
X53758D01*
X53250Y13992D01*
Y14195D02*
X52945Y14805D01*
X53555D01*
X53250Y14195D01*
X97000Y10492D02*
X96492Y11508D01*
X97508D01*
X97000Y10492D01*
Y10695D02*
X96695Y11305D01*
X97305D01*
X97000Y10695D01*
X14750Y20992D02*
X14242Y22008D01*
X15258D01*
X14750Y20992D01*
Y21195D02*
X14445Y21805D01*
X15055D01*
X14750Y21195D01*
X156500Y45492D02*
X155992Y46508D01*
X157008D01*
X156500Y45492D01*
Y45695D02*
X156195Y46305D01*
X156805D01*
X156500Y45695D01*
X21750Y20992D02*
X21242Y22008D01*
X22258D01*
X21750Y20992D01*
Y21195D02*
X21445Y21805D01*
X22055D01*
X21750Y21195D01*
X123250Y20992D02*
X122742Y22008D01*
X123758D01*
X123250Y20992D01*
Y21195D02*
X122945Y21805D01*
X123555D01*
X123250Y21195D01*
X114500Y17492D02*
X113992Y18508D01*
X115008D01*
X114500Y17492D01*
Y17695D02*
X114195Y18305D01*
X114805D01*
X114500Y17695D01*
X30500Y17492D02*
X29992Y18508D01*
X31008D01*
X30500Y17492D01*
Y17695D02*
X30195Y18305D01*
X30805D01*
X30500Y17695D01*
X149500Y31492D02*
X148992Y32508D01*
X150008D01*
X149500Y31492D01*
Y31695D02*
X149195Y32305D01*
X149805D01*
X149500Y31695D01*
X139000Y17492D02*
X138492Y18508D01*
X139508D01*
X139000Y17492D01*
Y17695D02*
X138695Y18305D01*
X139305D01*
X139000Y17695D01*
X18250Y20992D02*
X17742Y22008D01*
X18758D01*
X18250Y20992D01*
Y21195D02*
X17945Y21805D01*
X18555D01*
X18250Y21195D01*
X130250Y20992D02*
X129742Y22008D01*
X130758D01*
X130250Y20992D01*
Y21195D02*
X129945Y21805D01*
X130555D01*
X130250Y21195D01*
X125000Y17492D02*
X124492Y18508D01*
X125508D01*
X125000Y17492D01*
Y17695D02*
X124695Y18305D01*
X125305D01*
X125000Y17695D01*
X137250Y13992D02*
X136742Y15008D01*
X137758D01*
X137250Y13992D01*
Y14195D02*
X136945Y14805D01*
X137555D01*
X137250Y14195D01*
X32250Y13992D02*
X31742Y15008D01*
X32758D01*
X32250Y13992D01*
Y14195D02*
X31945Y14805D01*
X32555D01*
X32250Y14195D01*
X146000Y66492D02*
X145492Y67508D01*
X146508D01*
X146000Y66492D01*
Y66695D02*
X145695Y67305D01*
X146305D01*
X146000Y66695D01*
X112750Y20992D02*
X112242Y22008D01*
X113258D01*
X112750Y20992D01*
Y21195D02*
X112445Y21805D01*
X113055D01*
X112750Y21195D01*
X146000Y52492D02*
X145492Y53508D01*
X146508D01*
X146000Y52492D01*
Y52695D02*
X145695Y53305D01*
X146305D01*
X146000Y52695D01*
X21750Y13992D02*
X21242Y15008D01*
X22258D01*
X21750Y13992D01*
Y14195D02*
X21445Y14805D01*
X22055D01*
X21750Y14195D01*
X161750Y55992D02*
X161242Y57008D01*
X162258D01*
X161750Y55992D01*
Y56195D02*
X161445Y56805D01*
X162055D01*
X161750Y56195D01*
X98750Y13992D02*
X98242Y15008D01*
X99258D01*
X98750Y13992D01*
Y14195D02*
X98445Y14805D01*
X99055D01*
X98750Y14195D01*
X97000Y17492D02*
X96492Y18508D01*
X97508D01*
X97000Y17492D01*
Y17695D02*
X96695Y18305D01*
X97305D01*
X97000Y17695D01*
X149500Y45492D02*
X148992Y46508D01*
X150008D01*
X149500Y45492D01*
Y45695D02*
X149195Y46305D01*
X149805D01*
X149500Y45695D01*
X161750Y76992D02*
X161242Y78008D01*
X162258D01*
X161750Y76992D01*
Y77195D02*
X161445Y77805D01*
X162055D01*
X161750Y77195D01*
X160000Y17492D02*
X159492Y18508D01*
X160508D01*
X160000Y17492D01*
Y17695D02*
X159695Y18305D01*
X160305D01*
X160000Y17695D01*
X60250Y13992D02*
X59742Y15008D01*
X60758D01*
X60250Y13992D01*
Y14195D02*
X59945Y14805D01*
X60555D01*
X60250Y14195D01*
X149500Y17492D02*
X148992Y18508D01*
X150008D01*
X149500Y17492D01*
Y17695D02*
X149195Y18305D01*
X149805D01*
X149500Y17695D01*
X151250Y34992D02*
X150742Y36008D01*
X151758D01*
X151250Y34992D01*
Y35195D02*
X150945Y35805D01*
X151555D01*
X151250Y35195D01*
X34000Y38492D02*
X33492Y39508D01*
X34508D01*
X34000Y38492D01*
Y38695D02*
X33695Y39305D01*
X34305D01*
X34000Y38695D01*
X119750Y13992D02*
X119242Y15008D01*
X120258D01*
X119750Y13992D01*
Y14195D02*
X119445Y14805D01*
X120055D01*
X119750Y14195D01*
X56750Y13992D02*
X56242Y15008D01*
X57258D01*
X56750Y13992D01*
Y14195D02*
X56445Y14805D01*
X57055D01*
X56750Y14195D01*
X44500Y10492D02*
X43992Y11508D01*
X45008D01*
X44500Y10492D01*
Y10695D02*
X44195Y11305D01*
X44805D01*
X44500Y10695D01*
X112750Y13992D02*
X112242Y15008D01*
X113258D01*
X112750Y13992D01*
Y14195D02*
X112445Y14805D01*
X113055D01*
X112750Y14195D01*
X18250Y27992D02*
X17742Y29008D01*
X18758D01*
X18250Y27992D01*
Y28195D02*
X17945Y28805D01*
X18555D01*
X18250Y28195D01*
X53250Y20992D02*
X52742Y22008D01*
X53758D01*
X53250Y20992D01*
Y21195D02*
X52945Y21805D01*
X53555D01*
X53250Y21195D01*
X151250Y27992D02*
X150742Y29008D01*
X151758D01*
X151250Y27992D01*
Y28195D02*
X150945Y28805D01*
X151555D01*
X151250Y28195D01*
X128500Y10492D02*
X127992Y11508D01*
X129008D01*
X128500Y10492D01*
Y10695D02*
X128195Y11305D01*
X128805D01*
X128500Y10695D01*
X146000Y45492D02*
X145492Y46508D01*
X146508D01*
X146000Y45492D01*
Y45695D02*
X145695Y46305D01*
X146305D01*
X146000Y45695D01*
X35750Y13992D02*
X35242Y15008D01*
X36258D01*
X35750Y13992D01*
Y14195D02*
X35445Y14805D01*
X36055D01*
X35750Y14195D01*
X147750Y62992D02*
X147242Y64008D01*
X148258D01*
X147750Y62992D01*
Y63195D02*
X147445Y63805D01*
X148055D01*
X147750Y63195D01*
X156500Y17492D02*
X155992Y18508D01*
X157008D01*
X156500Y17492D01*
Y17695D02*
X156195Y18305D01*
X156805D01*
X156500Y17695D01*
X133750Y13992D02*
X133242Y15008D01*
X134258D01*
X133750Y13992D01*
Y14195D02*
X133445Y14805D01*
X134055D01*
X133750Y14195D01*
X121500Y10492D02*
X120992Y11508D01*
X122008D01*
X121500Y10492D01*
Y10695D02*
X121195Y11305D01*
X121805D01*
X121500Y10695D01*
X16500Y31492D02*
X15992Y32508D01*
X17008D01*
X16500Y31492D01*
Y31695D02*
X16195Y32305D01*
X16805D01*
X16500Y31695D01*
X146000Y38492D02*
X145492Y39508D01*
X146508D01*
X146000Y38492D01*
Y38695D02*
X145695Y39305D01*
X146305D01*
X146000Y38695D01*
X20000Y17492D02*
X19492Y18508D01*
X20508D01*
X20000Y17492D01*
Y17695D02*
X19695Y18305D01*
X20305D01*
X20000Y17695D01*
X53250Y34992D02*
X52742Y36008D01*
X53758D01*
X53250Y34992D01*
Y35195D02*
X52945Y35805D01*
X53555D01*
X53250Y35195D01*
X27000Y17492D02*
X26492Y18508D01*
X27508D01*
X27000Y17492D01*
Y17695D02*
X26695Y18305D01*
X27305D01*
X27000Y17695D01*
X158250Y76992D02*
X157742Y78008D01*
X158758D01*
X158250Y76992D01*
Y77195D02*
X157945Y77805D01*
X158555D01*
X158250Y77195D01*
X154750Y48992D02*
X154242Y50008D01*
X155258D01*
X154750Y48992D01*
Y49195D02*
X154445Y49805D01*
X155055D01*
X154750Y49195D01*
X13000Y24492D02*
X12492Y25508D01*
X13508D01*
X13000Y24492D01*
Y24695D02*
X12695Y25305D01*
X13305D01*
X13000Y24695D01*
X135500Y10492D02*
X134992Y11508D01*
X136008D01*
X135500Y10492D01*
Y10695D02*
X135195Y11305D01*
X135805D01*
X135500Y10695D01*
X28750Y13992D02*
X28242Y15008D01*
X29258D01*
X28750Y13992D01*
Y14195D02*
X28445Y14805D01*
X29055D01*
X28750Y14195D01*
X153000Y38492D02*
X152492Y39508D01*
X153508D01*
X153000Y38492D01*
Y38695D02*
X152695Y39305D01*
X153305D01*
X153000Y38695D01*
Y52492D02*
X152492Y53508D01*
X153508D01*
X153000Y52492D01*
Y52695D02*
X152695Y53305D01*
X153305D01*
X153000Y52695D01*
X158250Y41992D02*
X157742Y43008D01*
X158758D01*
X158250Y41992D01*
Y42195D02*
X157945Y42805D01*
X158555D01*
X158250Y42195D01*
Y27992D02*
X157742Y29008D01*
X158758D01*
X158250Y27992D01*
Y28195D02*
X157945Y28805D01*
X158555D01*
X158250Y28195D01*
X160000Y45492D02*
X159492Y46508D01*
X160508D01*
X160000Y45492D01*
Y45695D02*
X159695Y46305D01*
X160305D01*
X160000Y45695D01*
X156500Y31492D02*
X155992Y32508D01*
X157008D01*
X156500Y31492D01*
Y31695D02*
X156195Y32305D01*
X156805D01*
X156500Y31695D01*
X14750Y34992D02*
X14242Y36008D01*
X15258D01*
X14750Y34992D01*
Y35195D02*
X14445Y35805D01*
X15055D01*
X14750Y35195D01*
X154750Y83992D02*
X154242Y85008D01*
X155258D01*
X154750Y83992D01*
Y84195D02*
X154445Y84805D01*
X155055D01*
X154750Y84195D01*
X34000Y24492D02*
X33492Y25508D01*
X34508D01*
X34000Y24492D01*
Y24695D02*
X33695Y25305D01*
X34305D01*
X34000Y24695D01*
X116250Y20992D02*
X115742Y22008D01*
X116758D01*
X116250Y20992D01*
Y21195D02*
X115945Y21805D01*
X116555D01*
X116250Y21195D01*
X147750Y48992D02*
X147242Y50008D01*
X148258D01*
X147750Y48992D01*
Y49195D02*
X147445Y49805D01*
X148055D01*
X147750Y49195D01*
X146000Y73492D02*
X145492Y74508D01*
X146508D01*
X146000Y73492D01*
Y73695D02*
X145695Y74305D01*
X146305D01*
X146000Y73695D01*
X160000Y24492D02*
X159492Y25508D01*
X160508D01*
X160000Y24492D01*
Y24695D02*
X159695Y25305D01*
X160305D01*
X160000Y24695D01*
X153000Y87492D02*
X152492Y88508D01*
X153508D01*
X153000Y87492D01*
Y87695D02*
X152695Y88305D01*
X153305D01*
X153000Y87695D01*
X118000Y17492D02*
X117492Y18508D01*
X118508D01*
X118000Y17492D01*
Y17695D02*
X117695Y18305D01*
X118305D01*
X118000Y17695D01*
X104000Y17492D02*
X103492Y18508D01*
X104508D01*
X104000Y17492D01*
Y17695D02*
X103695Y18305D01*
X104305D01*
X104000Y17695D01*
X111000Y17492D02*
X110492Y18508D01*
X111508D01*
X111000Y17492D01*
Y17695D02*
X110695Y18305D01*
X111305D01*
X111000Y17695D01*
X135500Y17492D02*
X134992Y18508D01*
X136008D01*
X135500Y17492D01*
Y17695D02*
X135195Y18305D01*
X135805D01*
X135500Y17695D01*
X121500Y17492D02*
X120992Y18508D01*
X122008D01*
X121500Y17492D01*
Y17695D02*
X121195Y18305D01*
X121805D01*
X121500Y17695D01*
X146000Y17492D02*
X145492Y18508D01*
X146508D01*
X146000Y17492D01*
Y17695D02*
X145695Y18305D01*
X146305D01*
X146000Y17695D01*
X144250Y13992D02*
X143742Y15008D01*
X144758D01*
X144250Y13992D01*
Y14195D02*
X143945Y14805D01*
X144555D01*
X144250Y14195D01*
X132000Y17492D02*
X131492Y18508D01*
X132508D01*
X132000Y17492D01*
Y17695D02*
X131695Y18305D01*
X132305D01*
X132000Y17695D01*
X153000Y45492D02*
X152492Y46508D01*
X153508D01*
X153000Y45492D01*
Y45695D02*
X152695Y46305D01*
X153305D01*
X153000Y45695D01*
X142500Y38492D02*
X141992Y39508D01*
X143008D01*
X142500Y38492D01*
Y38695D02*
X142195Y39305D01*
X142805D01*
X142500Y38695D01*
X158250Y62992D02*
X157742Y64008D01*
X158758D01*
X158250Y62992D01*
Y63195D02*
X157945Y63805D01*
X158555D01*
X158250Y63195D01*
X153000Y24492D02*
X152492Y25508D01*
X153508D01*
X153000Y24492D01*
Y24695D02*
X152695Y25305D01*
X153305D01*
X153000Y24695D01*
X154750Y76992D02*
X154242Y78008D01*
X155258D01*
X154750Y76992D01*
Y77195D02*
X154445Y77805D01*
X155055D01*
X154750Y77195D01*
X48000Y10492D02*
X47492Y11508D01*
X48508D01*
X48000Y10492D01*
Y10695D02*
X47695Y11305D01*
X48305D01*
X48000Y10695D01*
X34000Y10492D02*
X33492Y11508D01*
X34508D01*
X34000Y10492D01*
Y10695D02*
X33695Y11305D01*
X34305D01*
X34000Y10695D01*
X144250Y20992D02*
X143742Y22008D01*
X144758D01*
X144250Y20992D01*
Y21195D02*
X143945Y21805D01*
X144555D01*
X144250Y21195D01*
X119750Y20992D02*
X119242Y22008D01*
X120258D01*
X119750Y20992D01*
Y21195D02*
X119445Y21805D01*
X120055D01*
X119750Y21195D01*
X128500Y17492D02*
X127992Y18508D01*
X129008D01*
X128500Y17492D01*
Y17695D02*
X128195Y18305D01*
X128805D01*
X128500Y17695D01*
X23500Y10492D02*
X22992Y11508D01*
X24008D01*
X23500Y10492D01*
Y10695D02*
X23195Y11305D01*
X23805D01*
X23500Y10695D01*
X116250Y13992D02*
X115742Y15008D01*
X116758D01*
X116250Y13992D01*
Y14195D02*
X115945Y14805D01*
X116555D01*
X116250Y14195D01*
X156500Y73492D02*
X155992Y74508D01*
X157008D01*
X156500Y73492D01*
Y73695D02*
X156195Y74305D01*
X156805D01*
X156500Y73695D01*
X14750Y41992D02*
X14242Y43008D01*
X15258D01*
X14750Y41992D01*
Y42195D02*
X14445Y42805D01*
X15055D01*
X14750Y42195D01*
X30500Y10492D02*
X29992Y11508D01*
X31008D01*
X30500Y10492D01*
Y10695D02*
X30195Y11305D01*
X30805D01*
X30500Y10695D01*
X49750Y13992D02*
X49242Y15008D01*
X50258D01*
X49750Y13992D01*
Y14195D02*
X49445Y14805D01*
X50055D01*
X49750Y14195D01*
X25250Y20992D02*
X24742Y22008D01*
X25758D01*
X25250Y20992D01*
Y21195D02*
X24945Y21805D01*
X25555D01*
X25250Y21195D01*
X160000Y31492D02*
X159492Y32508D01*
X160508D01*
X160000Y31492D01*
Y31695D02*
X159695Y32305D01*
X160305D01*
X160000Y31695D01*
X153000Y31492D02*
X152492Y32508D01*
X153508D01*
X153000Y31492D01*
Y31695D02*
X152695Y32305D01*
X153305D01*
X153000Y31695D01*
X142500Y17492D02*
X141992Y18508D01*
X143008D01*
X142500Y17492D01*
Y17695D02*
X142195Y18305D01*
X142805D01*
X142500Y17695D01*
X102250Y20992D02*
X101742Y22008D01*
X102758D01*
X102250Y20992D01*
Y21195D02*
X101945Y21805D01*
X102555D01*
X102250Y21195D01*
X151250Y76992D02*
X150742Y78008D01*
X151758D01*
X151250Y76992D01*
Y77195D02*
X150945Y77805D01*
X151555D01*
X151250Y77195D01*
X144250Y34992D02*
X143742Y36008D01*
X144758D01*
X144250Y34992D01*
Y35195D02*
X143945Y35805D01*
X144555D01*
X144250Y35195D01*
X55000Y10492D02*
X54492Y11508D01*
X55508D01*
X55000Y10492D01*
Y10695D02*
X54695Y11305D01*
X55305D01*
X55000Y10695D01*
X98750Y20992D02*
X98242Y22008D01*
X99258D01*
X98750Y20992D01*
Y21195D02*
X98445Y21805D01*
X99055D01*
X98750Y21195D01*
X160000Y38492D02*
X159492Y39508D01*
X160508D01*
X160000Y38492D01*
Y38695D02*
X159695Y39305D01*
X160305D01*
X160000Y38695D01*
X42750Y13992D02*
X42242Y15008D01*
X43258D01*
X42750Y13992D01*
Y14195D02*
X42445Y14805D01*
X43055D01*
X42750Y14195D01*
X142500Y10492D02*
X141992Y11508D01*
X143008D01*
X142500Y10492D01*
Y10695D02*
X142195Y11305D01*
X142805D01*
X142500Y10695D01*
X158250Y34992D02*
X157742Y36008D01*
X158758D01*
X158250Y34992D01*
Y35195D02*
X157945Y35805D01*
X158555D01*
X158250Y35195D01*
X118000Y10492D02*
X117492Y11508D01*
X118508D01*
X118000Y10492D01*
Y10695D02*
X117695Y11305D01*
X118305D01*
X118000Y10695D01*
X158250Y20992D02*
X157742Y22008D01*
X158758D01*
X158250Y20992D01*
Y21195D02*
X157945Y21805D01*
X158555D01*
X158250Y21195D01*
X156500Y80492D02*
X155992Y81508D01*
X157008D01*
X156500Y80492D01*
Y80695D02*
X156195Y81305D01*
X156805D01*
X156500Y80695D01*
X58500Y10492D02*
X57992Y11508D01*
X59008D01*
X58500Y10492D01*
Y10695D02*
X58195Y11305D01*
X58805D01*
X58500Y10695D01*
X41000Y10492D02*
X40492Y11508D01*
X41508D01*
X41000Y10492D01*
Y10695D02*
X40695Y11305D01*
X41305D01*
X41000Y10695D01*
X147750Y83992D02*
X147242Y85008D01*
X148258D01*
X147750Y83992D01*
Y84195D02*
X147445Y84805D01*
X148055D01*
X147750Y84195D01*
X123250Y13992D02*
X122742Y15008D01*
X123758D01*
X123250Y13992D01*
Y14195D02*
X122945Y14805D01*
X123555D01*
X123250Y14195D01*
X151250Y48992D02*
X150742Y50008D01*
X151758D01*
X151250Y48992D01*
Y49195D02*
X150945Y49805D01*
X151555D01*
X151250Y49195D01*
X111000Y10492D02*
X110492Y11508D01*
X111508D01*
X111000Y10492D01*
Y10695D02*
X110695Y11305D01*
X111305D01*
X111000Y10695D01*
X13000Y31492D02*
X12492Y32508D01*
X13508D01*
X13000Y31492D01*
Y31695D02*
X12695Y32305D01*
X13305D01*
X13000Y31695D01*
X137250Y20992D02*
X136742Y22008D01*
X137758D01*
X137250Y20992D01*
Y21195D02*
X136945Y21805D01*
X137555D01*
X137250Y21195D01*
X154750Y55992D02*
X154242Y57008D01*
X155258D01*
X154750Y55992D01*
Y56195D02*
X154445Y56805D01*
X155055D01*
X154750Y56195D01*
X158250Y48992D02*
X157742Y50008D01*
X158758D01*
X158250Y48992D01*
Y49195D02*
X157945Y49805D01*
X158555D01*
X158250Y49195D01*
X27000Y31492D02*
X26492Y32508D01*
X27508D01*
X27000Y31492D01*
Y31695D02*
X26695Y32305D01*
X27305D01*
X27000Y31695D01*
X147750Y13992D02*
X147242Y15008D01*
X148258D01*
X147750Y13992D01*
Y14195D02*
X147445Y14805D01*
X148055D01*
X147750Y14195D01*
X60250Y34992D02*
X59742Y36008D01*
X60758D01*
X60250Y34992D01*
Y35195D02*
X59945Y35805D01*
X60555D01*
X60250Y35195D01*
X107500Y17492D02*
X106992Y18508D01*
X108008D01*
X107500Y17492D01*
Y17695D02*
X107195Y18305D01*
X107805D01*
X107500Y17695D01*
X34000Y31492D02*
X33492Y32508D01*
X34508D01*
X34000Y31492D01*
Y31695D02*
X33695Y32305D01*
X34305D01*
X34000Y31695D01*
X13000Y38492D02*
X12492Y39508D01*
X13508D01*
X13000Y38492D01*
Y38695D02*
X12695Y39305D01*
X13305D01*
X13000Y38695D01*
X140750Y13992D02*
X140242Y15008D01*
X141258D01*
X140750Y13992D01*
Y14195D02*
X140445Y14805D01*
X141055D01*
X140750Y14195D01*
X139000Y10492D02*
X138492Y11508D01*
X139508D01*
X139000Y10492D01*
Y10695D02*
X138695Y11305D01*
X139305D01*
X139000Y10695D01*
X16500Y17492D02*
X15992Y18508D01*
X17008D01*
X16500Y17492D01*
Y17695D02*
X16195Y18305D01*
X16805D01*
X16500Y17695D01*
X147750Y20992D02*
X147242Y22008D01*
X148258D01*
X147750Y20992D01*
Y21195D02*
X147445Y21805D01*
X148055D01*
X147750Y21195D01*
X109250Y20992D02*
X108742Y22008D01*
X109758D01*
X109250Y20992D01*
Y21195D02*
X108945Y21805D01*
X109555D01*
X109250Y21195D01*
X128500Y24492D02*
X127992Y25508D01*
X129008D01*
X128500Y24492D01*
Y24695D02*
X128195Y25305D01*
X128805D01*
X128500Y24695D01*
X13000Y17492D02*
X12492Y18508D01*
X13508D01*
X13000Y17492D01*
Y17695D02*
X12695Y18305D01*
X13305D01*
X13000Y17695D01*
X154750Y34992D02*
X154242Y36008D01*
X155258D01*
X154750Y34992D01*
Y35195D02*
X154445Y35805D01*
X155055D01*
X154750Y35195D01*
X153000Y73492D02*
X152492Y74508D01*
X153508D01*
X153000Y73492D01*
Y73695D02*
X152695Y74305D01*
X153305D01*
X153000Y73695D01*
X140750Y20992D02*
X140242Y22008D01*
X141258D01*
X140750Y20992D01*
Y21195D02*
X140445Y21805D01*
X141055D01*
X140750Y21195D01*
X154750Y62992D02*
X154242Y64008D01*
X155258D01*
X154750Y62992D01*
Y63195D02*
X154445Y63805D01*
X155055D01*
X154750Y63195D01*
X132000Y10492D02*
X131492Y11508D01*
X132508D01*
X132000Y10492D01*
Y10695D02*
X131695Y11305D01*
X132305D01*
X132000Y10695D01*
X147750Y41992D02*
X147242Y43008D01*
X148258D01*
X147750Y41992D01*
Y42195D02*
X147445Y42805D01*
X148055D01*
X147750Y42195D01*
X156500Y38492D02*
X155992Y39508D01*
X157008D01*
X156500Y38492D01*
Y38695D02*
X156195Y39305D01*
X156805D01*
X156500Y38695D01*
X28750Y41992D02*
X28242Y43008D01*
X29258D01*
X28750Y41992D01*
Y42195D02*
X28445Y42805D01*
X29055D01*
X28750Y42195D01*
X125000Y10492D02*
X124492Y11508D01*
X125508D01*
X125000Y10492D01*
Y10695D02*
X124695Y11305D01*
X125305D01*
X125000Y10695D01*
X149500Y73492D02*
X148992Y74508D01*
X150008D01*
X149500Y73492D01*
Y73695D02*
X149195Y74305D01*
X149805D01*
X149500Y73695D01*
X160000Y73492D02*
X159492Y74508D01*
X160508D01*
X160000Y73492D01*
Y73695D02*
X159695Y74305D01*
X160305D01*
X160000Y73695D01*
X60250Y20992D02*
X59742Y22008D01*
X60758D01*
X60250Y20992D01*
Y21195D02*
X59945Y21805D01*
X60555D01*
X60250Y21195D01*
X83153Y52924D02*
Y51654D01*
Y52289D01*
X83999D01*
Y52924D01*
Y51654D01*
X81953Y54280D02*
Y53010D01*
Y53645D01*
X82800D01*
Y54280D01*
Y53010D01*
X83245Y25552D02*
Y24282D01*
Y24917D01*
X84091D01*
Y25552D01*
Y24282D01*
X38795Y82237D02*
Y80967D01*
Y81602D01*
X39641D01*
Y82237D01*
Y80967D01*
X40021Y82237D02*
Y80967D01*
Y81602D01*
X40868D01*
Y82237D01*
Y80967D01*
X41248Y82237D02*
Y80967D01*
Y81602D01*
X42094D01*
Y82237D01*
Y80967D01*
X42474Y82237D02*
Y80967D01*
Y81602D01*
X43320D01*
Y82237D01*
Y80967D01*
X43700Y82237D02*
Y80967D01*
Y81602D01*
X44546D01*
Y82237D01*
Y80967D01*
X26419Y82770D02*
Y81500D01*
Y82135D01*
X27265D01*
Y82770D01*
Y81500D01*
X27444Y82770D02*
Y81500D01*
Y82135D01*
X28290D01*
Y82770D01*
Y81500D01*
X28469Y82770D02*
Y81500D01*
Y82135D01*
X29315D01*
Y82770D01*
Y81500D01*
X26419Y77690D02*
Y76420D01*
Y77055D01*
X27265D01*
Y77690D01*
Y76420D01*
X27444Y77690D02*
Y76420D01*
Y77055D01*
X28290D01*
Y77690D01*
Y76420D01*
X28469Y77690D02*
Y76420D01*
Y77055D01*
X29315D01*
Y77690D01*
Y76420D01*
X26419Y72610D02*
Y71340D01*
Y71975D01*
X27265D01*
Y72610D01*
Y71340D01*
X27444Y72610D02*
Y71340D01*
Y71975D01*
X28290D01*
Y72610D01*
Y71340D01*
X28469Y72610D02*
Y71340D01*
Y71975D01*
X29315D01*
Y72610D01*
Y71340D01*
X26419Y67530D02*
Y66260D01*
Y66895D01*
X27265D01*
Y67530D01*
Y66260D01*
X27444Y67530D02*
Y66260D01*
Y66895D01*
X28290D01*
Y67530D01*
Y66260D01*
X28469Y67530D02*
Y66260D01*
Y66895D01*
X29315D01*
Y67530D01*
Y66260D01*
X28469Y62450D02*
Y61180D01*
Y61815D01*
X29315D01*
Y62450D01*
Y61180D01*
X27444Y62450D02*
Y61180D01*
Y61815D01*
X28290D01*
Y62450D01*
Y61180D01*
X26419Y62450D02*
Y61180D01*
Y61815D01*
X27265D01*
Y62450D01*
Y61180D01*
X138190Y70165D02*
Y68895D01*
Y69530D01*
X139036D01*
Y70165D01*
Y68895D01*
X88373Y26397D02*
Y25127D01*
Y25762D01*
X89219D01*
Y26397D01*
Y25127D01*
X98100Y34658D02*
Y33388D01*
Y34023D01*
X98946D01*
Y34658D01*
Y33388D01*
X62895Y35656D02*
Y34386D01*
Y35021D01*
X63742D01*
Y35656D01*
Y34386D01*
X80000Y76270D02*
Y75000D01*
Y75635D01*
X80846D01*
Y76270D01*
Y75000D01*
X83153Y38110D02*
Y36840D01*
Y37475D01*
X83999D01*
Y38110D01*
Y36840D01*
X85260Y38110D02*
Y36840D01*
Y37475D01*
X86106D01*
Y38110D01*
Y36840D01*
X37498Y20270D02*
Y19000D01*
Y19635D01*
X38344D01*
Y20270D01*
Y19000D01*
X39349Y20270D02*
Y19000D01*
Y19635D01*
X40195D01*
Y20270D01*
Y19000D01*
X41200Y20270D02*
Y19000D01*
Y19635D01*
X42047D01*
Y20270D01*
Y19000D01*
X49000Y58951D02*
Y57682D01*
Y58317D01*
X49846D01*
Y58951D01*
Y57682D01*
X76607Y53183D02*
Y51913D01*
Y52548D01*
X77453D01*
Y53183D01*
Y51913D01*
X84469Y51696D02*
Y50426D01*
Y51061D01*
X85315D01*
Y51696D01*
Y50426D01*
X83783Y52280D02*
Y51010D01*
Y51645D01*
X84629D01*
Y52280D01*
Y51010D01*
X72700Y58370D02*
Y57100D01*
Y57735D01*
X73546D01*
Y58370D01*
Y57100D01*
X73500Y56964D02*
Y55694D01*
Y56329D01*
X74346D01*
Y56964D01*
Y55694D01*
X135250Y76270D02*
Y75000D01*
Y75635D01*
X136096D01*
Y76270D01*
Y75000D01*
X87381Y63938D02*
Y62668D01*
Y63303D01*
X88227D01*
Y63938D01*
Y62668D01*
X87299Y53232D02*
Y51962D01*
Y52597D01*
X88146D01*
Y53232D01*
Y51962D01*
X88043Y52348D02*
Y51078D01*
Y51713D01*
X88890D01*
Y52348D01*
Y51078D01*
X96470Y75254D02*
Y73984D01*
Y74619D01*
X97317D01*
Y75254D01*
Y73984D01*
X40800Y31970D02*
Y30700D01*
Y31335D01*
X41646D01*
Y31970D01*
Y30700D01*
X44050Y31970D02*
Y30700D01*
Y31335D01*
X44896D01*
Y31970D01*
Y30700D01*
X46000Y31970D02*
Y30700D01*
Y31335D01*
X46846D01*
Y31970D01*
Y30700D01*
X49250Y31970D02*
Y30700D01*
Y31335D01*
X50096D01*
Y31970D01*
Y30700D01*
X89263Y50605D02*
Y49335D01*
Y49970D01*
X90109D01*
Y50605D01*
Y49335D01*
X88626Y51470D02*
Y50201D01*
Y50836D01*
X89472D01*
Y51470D01*
Y50201D01*
X39098Y35761D02*
Y34491D01*
Y35126D01*
X39945D01*
Y35761D01*
Y34491D01*
X31700Y26470D02*
Y25200D01*
Y25835D01*
X32546D01*
Y26470D01*
Y25200D01*
X32700Y21390D02*
Y20120D01*
Y20755D01*
X33546D01*
Y21390D01*
Y20120D01*
X51000Y35761D02*
Y34491D01*
Y35126D01*
X51846D01*
Y35761D01*
Y34491D01*
X49000Y30270D02*
Y29000D01*
Y29635D01*
X49846D01*
Y30270D01*
Y29000D01*
X46000Y30270D02*
Y29000D01*
Y29635D01*
X46846D01*
Y30270D01*
Y29000D01*
X44050Y30270D02*
Y29000D01*
Y29635D01*
X44896D01*
Y30270D01*
Y29000D01*
X41000Y30270D02*
Y29000D01*
Y29635D01*
X41846D01*
Y30270D01*
Y29000D01*
X115000Y57516D02*
Y56246D01*
Y56881D01*
X115846D01*
Y57516D01*
Y56246D01*
X42400Y49270D02*
Y48000D01*
Y48635D01*
X43246D01*
Y49270D01*
Y48000D01*
X39960Y68230D02*
Y66961D01*
Y67596D01*
X40806D01*
Y68230D01*
Y66961D01*
X39960Y69228D02*
Y67959D01*
Y68593D01*
X40806D01*
Y69228D01*
Y67959D01*
X39960Y70215D02*
Y68946D01*
Y69581D01*
X40806D01*
Y70215D01*
Y68946D01*
X39960Y71217D02*
Y69948D01*
Y70582D01*
X40806D01*
Y71217D01*
Y69948D01*
X39960Y72219D02*
Y70949D01*
Y71584D01*
X40806D01*
Y72219D01*
Y70949D01*
X96000Y62270D02*
Y61000D01*
Y61635D01*
X96846D01*
Y62270D01*
Y61000D01*
X97600Y58270D02*
Y57000D01*
Y57635D01*
X98446D01*
Y58270D01*
Y57000D01*
X49300Y84019D02*
Y82749D01*
Y83384D01*
X50146D01*
Y84019D01*
Y82749D01*
X90500Y61770D02*
Y60500D01*
Y61135D01*
X91346D01*
Y61770D01*
Y60500D01*
X127275Y55470D02*
Y54200D01*
Y54835D01*
X128121D01*
Y55470D01*
Y54200D01*
X115816Y59390D02*
Y58120D01*
Y58755D01*
X116663D01*
Y59390D01*
Y58120D01*
X64900Y45270D02*
Y44000D01*
Y44635D01*
X65746D01*
Y45270D01*
Y44000D01*
X81900Y60770D02*
Y59500D01*
Y60135D01*
X82746D01*
Y60770D01*
Y59500D01*
X86000Y43770D02*
Y42500D01*
Y43135D01*
X86846D01*
Y43770D01*
Y42500D01*
X85100Y44770D02*
Y43500D01*
Y44135D01*
X85946D01*
Y44770D01*
Y43500D01*
X47902Y49270D02*
Y48000D01*
Y48635D01*
X48748D01*
Y49270D01*
Y48000D01*
X50000Y54270D02*
Y53000D01*
Y53635D01*
X50846D01*
Y54270D01*
Y53000D01*
X49250Y48870D02*
Y47600D01*
Y48235D01*
X50096D01*
Y48870D01*
Y47600D01*
X30700Y31550D02*
Y30280D01*
Y30915D01*
X31546D01*
Y31550D01*
Y30280D01*
D155*
X95028Y193000D02*
G03*
X95028Y193000I-508J0D01*
G01*
X97568D02*
G03*
X97568Y193000I-508J0D01*
G01*
X100108D02*
G03*
X100108Y193000I-508J0D01*
G01*
X102648D02*
G03*
X102648Y193000I-508J0D01*
G01*
X105188D02*
G03*
X105188Y193000I-508J0D01*
G01*
X107728D02*
G03*
X107728Y193000I-508J0D01*
G01*
X110268D02*
G03*
X110268Y193000I-508J0D01*
G01*
X112808D02*
G03*
X112808Y193000I-508J0D01*
G01*
X115348D02*
G03*
X115348Y193000I-508J0D01*
G01*
X117888D02*
G03*
X117888Y193000I-508J0D01*
G01*
X120428D02*
G03*
X120428Y193000I-508J0D01*
G01*
X122968D02*
G03*
X122968Y193000I-508J0D01*
G01*
X125508D02*
G03*
X125508Y193000I-508J0D01*
G01*
X128048D02*
G03*
X128048Y193000I-508J0D01*
G01*
X130588D02*
G03*
X130588Y193000I-508J0D01*
G01*
X133128D02*
G03*
X133128Y193000I-508J0D01*
G01*
X169508Y184500D02*
G03*
X169508Y184500I-508J0D01*
G01*
Y182000D02*
G03*
X169508Y182000I-508J0D01*
G01*
Y179500D02*
G03*
X169508Y179500I-508J0D01*
G01*
X10508Y179545D02*
G03*
X10508Y179545I-508J0D01*
G01*
Y188185D02*
G03*
X10508Y188185I-508J0D01*
G01*
X84008Y13500D02*
G03*
X84008Y13500I-508J0D01*
G01*
X86508D02*
G03*
X86508Y13500I-508J0D01*
G01*
X89008D02*
G03*
X89008Y13500I-508J0D01*
G01*
X84008Y28000D02*
G03*
X84008Y28000I-508J0D01*
G01*
X89008D02*
G03*
X89008Y28000I-508J0D01*
G01*
X88508Y87300D02*
G03*
X88508Y87300I-508J0D01*
G01*
Y84760D02*
G03*
X88508Y84760I-508J0D01*
G01*
Y82220D02*
G03*
X88508Y82220I-508J0D01*
G01*
D156*
X10305Y179545D02*
G03*
X10305Y179545I-305J0D01*
G01*
Y188185D02*
G03*
X10305Y188185I-305J0D01*
G01*
%TF.MD5,7eb25f0d12e6a30dcb02a78fec5e9c1b*%
M02*
