%TF.GenerationSoftware,Altium Limited,Altium Designer,22.5.1 (42)*%
G04 Layer_Color=16711935*
%FSLAX43Y43*%
%MOMM*%
%TF.SameCoordinates,1CDD9A58-554C-4E31-8E55-BAED9532D10C*%
%TF.FilePolarity,Negative*%
%TF.FileFunction,Soldermask,Bot*%
%TF.Part,CustomerPanel*%
G01*
G75*
%TA.AperFunction,SMDPad,CuDef*%
%ADD15R,1.150X1.450*%
%ADD31R,1.450X1.200*%
%ADD37R,1.356X1.055*%
%ADD40R,1.150X1.450*%
%ADD41R,1.200X1.450*%
%ADD42R,0.700X0.600*%
%ADD56R,1.000X1.350*%
%TA.AperFunction,ComponentPad*%
%ADD73R,1.200X1.200*%
%ADD74C,1.200*%
%ADD75C,1.600*%
%ADD76C,6.000*%
%ADD77C,1.800*%
%ADD78C,0.600*%
%ADD79C,2.600*%
%ADD80R,1.800X1.800*%
%ADD81R,1.600X1.600*%
%ADD82R,1.200X1.200*%
%ADD83C,2.400*%
%ADD84C,2.000*%
%ADD85O,2.100X1.050*%
%ADD86O,2.000X1.000*%
%TA.AperFunction,ViaPad*%
%ADD87C,0.800*%
%ADD88C,4.000*%
%TA.AperFunction,ComponentPad*%
G04:AMPARAMS|DCode=89|XSize=2.6mm|YSize=4.7mm|CornerRadius=1.3mm|HoleSize=0mm|Usage=FLASHONLY|Rotation=180.000|XOffset=0mm|YOffset=0mm|HoleType=Round|Shape=RoundedRectangle|*
%AMROUNDEDRECTD89*
21,1,2.600,2.100,0,0,180.0*
21,1,0.000,4.700,0,0,180.0*
1,1,2.600,0.000,1.050*
1,1,2.600,0.000,1.050*
1,1,2.600,0.000,-1.050*
1,1,2.600,0.000,-1.050*
%
%ADD89ROUNDEDRECTD89*%
%ADD90C,1.550*%
%ADD91R,1.550X1.550*%
%ADD92C,1.337*%
%ADD93R,1.337X1.337*%
%ADD94R,1.250X1.250*%
%ADD95C,1.250*%
%ADD96C,1.700*%
%ADD97R,3.000X1.500*%
%ADD98C,1.400*%
%ADD99R,1.500X3.500*%
%ADD100R,1.500X2.800*%
G04:AMPARAMS|DCode=101|XSize=2.4mm|YSize=2.4mm|CornerRadius=0.6mm|HoleSize=0mm|Usage=FLASHONLY|Rotation=270.000|XOffset=0mm|YOffset=0mm|HoleType=Round|Shape=RoundedRectangle|*
%AMROUNDEDRECTD101*
21,1,2.400,1.200,0,0,270.0*
21,1,1.200,2.400,0,0,270.0*
1,1,1.200,-0.600,-0.600*
1,1,1.200,-0.600,0.600*
1,1,1.200,0.600,0.600*
1,1,1.200,0.600,-0.600*
%
%ADD101ROUNDEDRECTD101*%
G04:AMPARAMS|DCode=102|XSize=1.6mm|YSize=1.6mm|CornerRadius=0.4mm|HoleSize=0mm|Usage=FLASHONLY|Rotation=180.000|XOffset=0mm|YOffset=0mm|HoleType=Round|Shape=RoundedRectangle|*
%AMROUNDEDRECTD102*
21,1,1.600,0.800,0,0,180.0*
21,1,0.800,1.600,0,0,180.0*
1,1,0.800,-0.400,0.400*
1,1,0.800,0.400,0.400*
1,1,0.800,0.400,-0.400*
1,1,0.800,-0.400,-0.400*
%
%ADD102ROUNDEDRECTD102*%
G04:AMPARAMS|DCode=103|XSize=1.5mm|YSize=1.5mm|CornerRadius=0.375mm|HoleSize=0mm|Usage=FLASHONLY|Rotation=270.000|XOffset=0mm|YOffset=0mm|HoleType=Round|Shape=RoundedRectangle|*
%AMROUNDEDRECTD103*
21,1,1.500,0.750,0,0,270.0*
21,1,0.750,1.500,0,0,270.0*
1,1,0.750,-0.375,-0.375*
1,1,0.750,-0.375,0.375*
1,1,0.750,0.375,0.375*
1,1,0.750,0.375,-0.375*
%
%ADD103ROUNDEDRECTD103*%
%ADD104C,1.500*%
%TA.AperFunction,ViaPad*%
%ADD105C,3.500*%
%TA.AperFunction,ComponentPad*%
%ADD106C,1.950*%
G04:AMPARAMS|DCode=107|XSize=1.95mm|YSize=1.95mm|CornerRadius=0.488mm|HoleSize=0mm|Usage=FLASHONLY|Rotation=180.000|XOffset=0mm|YOffset=0mm|HoleType=Round|Shape=RoundedRectangle|*
%AMROUNDEDRECTD107*
21,1,1.950,0.975,0,0,180.0*
21,1,0.975,1.950,0,0,180.0*
1,1,0.975,-0.488,0.488*
1,1,0.975,0.488,0.488*
1,1,0.975,0.488,-0.488*
1,1,0.975,-0.488,-0.488*
%
%ADD107ROUNDEDRECTD107*%
G04:AMPARAMS|DCode=108|XSize=1.6mm|YSize=1.6mm|CornerRadius=0.4mm|HoleSize=0mm|Usage=FLASHONLY|Rotation=90.000|XOffset=0mm|YOffset=0mm|HoleType=Round|Shape=RoundedRectangle|*
%AMROUNDEDRECTD108*
21,1,1.600,0.800,0,0,90.0*
21,1,0.800,1.600,0,0,90.0*
1,1,0.800,0.400,0.400*
1,1,0.800,0.400,-0.400*
1,1,0.800,-0.400,-0.400*
1,1,0.800,-0.400,0.400*
%
%ADD108ROUNDEDRECTD108*%
%TA.AperFunction,ViaPad*%
%ADD109C,0.750*%
%TA.AperFunction,SMDPad,CuDef*%
%ADD110R,1.300X3.400*%
%ADD111R,0.900X0.950*%
D15*
X98900Y190000D02*
D03*
X97100D02*
D03*
D31*
X43800Y48000D02*
D03*
Y50000D02*
D03*
X47902Y44100D02*
D03*
Y46100D02*
D03*
D37*
X110130Y85548D02*
D03*
Y87000D02*
D03*
D40*
X121000Y66500D02*
D03*
X122750D02*
D03*
D41*
X136190Y72500D02*
D03*
X138190D02*
D03*
D42*
X123000D02*
D03*
X121000Y73450D02*
D03*
Y71550D02*
D03*
D56*
X121000Y68500D02*
D03*
X122800D02*
D03*
D73*
X24780Y142180D02*
D03*
X56650Y177000D02*
D03*
D74*
X27320Y142180D02*
D03*
X29860D02*
D03*
X12000Y135620D02*
D03*
Y133080D02*
D03*
Y130540D02*
D03*
Y128000D02*
D03*
Y125460D02*
D03*
X32400Y160060D02*
D03*
Y162600D02*
D03*
Y165140D02*
D03*
Y167680D02*
D03*
Y170220D02*
D03*
X69350Y177000D02*
D03*
X66810D02*
D03*
X64270D02*
D03*
X61730D02*
D03*
X59190D02*
D03*
D75*
X94520Y193000D02*
D03*
X97060D02*
D03*
X99600D02*
D03*
X102140D02*
D03*
X104680D02*
D03*
X107220D02*
D03*
X109760D02*
D03*
X112300D02*
D03*
X114840D02*
D03*
X117380D02*
D03*
X119920D02*
D03*
X122460D02*
D03*
X125000D02*
D03*
X127540D02*
D03*
X130080D02*
D03*
X132620D02*
D03*
X169000Y182000D02*
D03*
Y179500D02*
D03*
X68080Y75000D02*
D03*
X65540D02*
D03*
X63000D02*
D03*
X107590D02*
D03*
X105050D02*
D03*
X102510D02*
D03*
X92000Y30700D02*
D03*
X94540D02*
D03*
X99620D02*
D03*
X102160D02*
D03*
X97080D02*
D03*
X122000Y41920D02*
D03*
Y39380D02*
D03*
Y44460D02*
D03*
Y47000D02*
D03*
Y58120D02*
D03*
Y55580D02*
D03*
Y53040D02*
D03*
D76*
X88020Y192000D02*
D03*
Y152000D02*
D03*
X158020D02*
D03*
Y192000D02*
D03*
D77*
X40020Y107890D02*
D03*
Y105350D02*
D03*
X37480Y107890D02*
D03*
Y105350D02*
D03*
X34940D02*
D03*
Y107890D02*
D03*
X32400Y105350D02*
D03*
Y107890D02*
D03*
X29860Y105350D02*
D03*
Y107890D02*
D03*
X142290Y114920D02*
D03*
X147290Y129420D02*
D03*
X144790D02*
D03*
X142290D02*
D03*
X64900Y21000D02*
D03*
X68710Y24810D02*
D03*
X115000Y84460D02*
D03*
Y87000D02*
D03*
D78*
X13680Y186755D02*
D03*
Y180975D02*
D03*
D79*
X150390Y121920D02*
D03*
X139190D02*
D03*
D80*
X147290Y114920D02*
D03*
X115000Y81920D02*
D03*
D81*
X169000Y184500D02*
D03*
D82*
X12000Y122920D02*
D03*
X32400Y172760D02*
D03*
D83*
X10850Y116150D02*
D03*
Y109850D02*
D03*
X17150D02*
D03*
Y116150D02*
D03*
X17000Y20000D02*
D03*
Y25080D02*
D03*
Y35240D02*
D03*
Y45400D02*
D03*
Y40320D02*
D03*
Y30160D02*
D03*
X17000Y58700D02*
D03*
Y63780D02*
D03*
Y73940D02*
D03*
Y79020D02*
D03*
Y68860D02*
D03*
D84*
X14000Y113000D02*
D03*
D85*
X14180Y179545D02*
D03*
Y188185D02*
D03*
D86*
X10000Y179545D02*
D03*
Y188185D02*
D03*
D87*
X27000Y181801D02*
D03*
X144974Y85920D02*
D03*
Y87340D02*
D03*
Y84501D02*
D03*
Y83081D02*
D03*
X142500D02*
D03*
Y84501D02*
D03*
Y87340D02*
D03*
Y85920D02*
D03*
X97600Y47761D02*
D03*
X149500Y95000D02*
D03*
X151250Y91500D02*
D03*
X146000Y95000D02*
D03*
X147750Y91500D02*
D03*
X142500Y95000D02*
D03*
X139000D02*
D03*
X135500D02*
D03*
Y81000D02*
D03*
X137250Y77500D02*
D03*
X135500Y74000D02*
D03*
Y60000D02*
D03*
Y53000D02*
D03*
Y46000D02*
D03*
X132000Y81000D02*
D03*
X133750Y77500D02*
D03*
X132000Y74000D02*
D03*
Y67000D02*
D03*
Y60000D02*
D03*
Y46000D02*
D03*
X133750Y42500D02*
D03*
X130250Y91500D02*
D03*
X128500Y81000D02*
D03*
X130250Y77500D02*
D03*
X128500Y74000D02*
D03*
Y60000D02*
D03*
X130250Y56500D02*
D03*
X128500Y53000D02*
D03*
X130250Y49500D02*
D03*
X128500Y46000D02*
D03*
X130250Y42500D02*
D03*
X128500Y39000D02*
D03*
X125000Y95000D02*
D03*
Y81000D02*
D03*
X126750Y77500D02*
D03*
X125000Y60000D02*
D03*
X126750Y56500D02*
D03*
X125000Y53000D02*
D03*
X126750Y49500D02*
D03*
X125000Y46000D02*
D03*
X126750Y42500D02*
D03*
X125000Y39000D02*
D03*
X126750Y35500D02*
D03*
X121500Y95000D02*
D03*
X123250Y91500D02*
D03*
Y84500D02*
D03*
Y77500D02*
D03*
Y70500D02*
D03*
Y56500D02*
D03*
Y49500D02*
D03*
Y42500D02*
D03*
Y35500D02*
D03*
X118000Y95000D02*
D03*
X119750Y91500D02*
D03*
Y77500D02*
D03*
X118000Y74000D02*
D03*
X119750Y70500D02*
D03*
X118000Y67000D02*
D03*
X119750Y56500D02*
D03*
Y49500D02*
D03*
X118000Y39000D02*
D03*
X119750Y35500D02*
D03*
X114500Y95000D02*
D03*
X116250Y91500D02*
D03*
Y77500D02*
D03*
X114500Y74000D02*
D03*
X116250Y70500D02*
D03*
X114500Y67000D02*
D03*
X116250Y63500D02*
D03*
Y56500D02*
D03*
Y49500D02*
D03*
Y42500D02*
D03*
Y35500D02*
D03*
X111000Y95000D02*
D03*
X112750Y91500D02*
D03*
Y84500D02*
D03*
X111000Y81000D02*
D03*
X112750Y77500D02*
D03*
X111000Y67000D02*
D03*
X112750Y63500D02*
D03*
Y49500D02*
D03*
Y42500D02*
D03*
Y35500D02*
D03*
X107500Y95000D02*
D03*
X109250Y91500D02*
D03*
X107500Y88000D02*
D03*
Y81000D02*
D03*
X109250Y77500D02*
D03*
X107500Y67000D02*
D03*
X109250Y63500D02*
D03*
Y49500D02*
D03*
Y42500D02*
D03*
Y35500D02*
D03*
X104000Y95000D02*
D03*
X105750Y91500D02*
D03*
X104000Y88000D02*
D03*
X105750Y84500D02*
D03*
X104000Y81000D02*
D03*
X105750Y77500D02*
D03*
X104000Y67000D02*
D03*
X105750Y56500D02*
D03*
Y49500D02*
D03*
Y42500D02*
D03*
Y35500D02*
D03*
X100500Y95000D02*
D03*
X102250Y91500D02*
D03*
X100500Y88000D02*
D03*
X102250Y84500D02*
D03*
X100500Y81000D02*
D03*
X102250Y77500D02*
D03*
X100500Y74000D02*
D03*
X102250Y56500D02*
D03*
X97000Y95000D02*
D03*
X98750Y91500D02*
D03*
X97000Y88000D02*
D03*
X98750Y84500D02*
D03*
X97000Y81000D02*
D03*
X98750Y77500D02*
D03*
Y42500D02*
D03*
Y35500D02*
D03*
X93500Y95000D02*
D03*
X95250Y91500D02*
D03*
X93500Y88000D02*
D03*
X95250Y84500D02*
D03*
X93500Y81000D02*
D03*
X95250Y77500D02*
D03*
X93500Y74000D02*
D03*
X95250Y35500D02*
D03*
X90000Y95000D02*
D03*
X91750Y91500D02*
D03*
X90000Y88000D02*
D03*
X91750Y84500D02*
D03*
X90000Y81000D02*
D03*
X91750Y77500D02*
D03*
X90000Y74000D02*
D03*
Y67000D02*
D03*
X91750Y35500D02*
D03*
X86500Y95000D02*
D03*
Y81000D02*
D03*
X88250Y77500D02*
D03*
X86500Y67000D02*
D03*
X88250Y35500D02*
D03*
X83000Y95000D02*
D03*
X84750Y91500D02*
D03*
X83000Y88000D02*
D03*
X84750Y84500D02*
D03*
X83000Y81000D02*
D03*
X84750Y77500D02*
D03*
Y49500D02*
D03*
X76000Y95000D02*
D03*
X77750Y91500D02*
D03*
X76000Y88000D02*
D03*
X77750Y84500D02*
D03*
X76000Y81000D02*
D03*
Y39000D02*
D03*
X72500Y95000D02*
D03*
X74250Y91500D02*
D03*
Y84500D02*
D03*
X72500Y39000D02*
D03*
X69000Y95000D02*
D03*
X70750Y91500D02*
D03*
Y84500D02*
D03*
X69000Y81000D02*
D03*
X70750Y77500D02*
D03*
Y70500D02*
D03*
Y63500D02*
D03*
Y35500D02*
D03*
X65500Y95000D02*
D03*
Y88000D02*
D03*
X67250Y77500D02*
D03*
Y63500D02*
D03*
Y49500D02*
D03*
X65500Y46000D02*
D03*
X62000Y95000D02*
D03*
X63750Y84500D02*
D03*
X62000Y74000D02*
D03*
X63750Y63500D02*
D03*
X58500Y95000D02*
D03*
X60250Y84500D02*
D03*
X58500Y74000D02*
D03*
X60250Y63500D02*
D03*
Y49500D02*
D03*
X55000Y95000D02*
D03*
X56750Y84500D02*
D03*
X55000Y74000D02*
D03*
X56750Y70500D02*
D03*
Y63500D02*
D03*
X51500Y95000D02*
D03*
X53250Y84500D02*
D03*
Y70500D02*
D03*
Y63500D02*
D03*
X48000Y95000D02*
D03*
X49750Y84500D02*
D03*
X44500Y95000D02*
D03*
X46250Y84500D02*
D03*
Y77500D02*
D03*
X44500Y74000D02*
D03*
X46250Y70500D02*
D03*
X41000Y95000D02*
D03*
X42750Y91500D02*
D03*
Y84500D02*
D03*
X41000Y74000D02*
D03*
X42750Y70500D02*
D03*
X41000Y60000D02*
D03*
X37500Y95000D02*
D03*
X39250Y91500D02*
D03*
Y84500D02*
D03*
Y77500D02*
D03*
X37500Y74000D02*
D03*
Y60000D02*
D03*
X34000Y95000D02*
D03*
X35750Y84500D02*
D03*
Y77500D02*
D03*
X34000Y74000D02*
D03*
X35750Y70500D02*
D03*
X34000Y67000D02*
D03*
X35750Y56500D02*
D03*
X30500Y95000D02*
D03*
X32250Y91500D02*
D03*
X30500Y88000D02*
D03*
X32250Y84500D02*
D03*
X30500Y53000D02*
D03*
X27000Y95000D02*
D03*
X28750Y91500D02*
D03*
X27000Y88000D02*
D03*
Y53000D02*
D03*
X23500Y95000D02*
D03*
X25250Y91500D02*
D03*
X23500Y88000D02*
D03*
Y81000D02*
D03*
Y67000D02*
D03*
Y60000D02*
D03*
Y53000D02*
D03*
X20000Y95000D02*
D03*
X21750Y91500D02*
D03*
X20000Y88000D02*
D03*
Y81000D02*
D03*
X21750Y77500D02*
D03*
Y70500D02*
D03*
X20000Y67000D02*
D03*
Y60000D02*
D03*
X21750Y56500D02*
D03*
X20000Y53000D02*
D03*
X16500Y81000D02*
D03*
X18250Y77500D02*
D03*
Y70500D02*
D03*
X16500Y67000D02*
D03*
X18250Y56500D02*
D03*
X16500Y53000D02*
D03*
X13000Y88000D02*
D03*
X14750Y84500D02*
D03*
X13000Y81000D02*
D03*
X14750Y77500D02*
D03*
X13000Y74000D02*
D03*
X14750Y70500D02*
D03*
X13000Y67000D02*
D03*
X14750Y63500D02*
D03*
X13000Y60000D02*
D03*
X14750Y56500D02*
D03*
X13000Y53000D02*
D03*
X14750Y49500D02*
D03*
X46250Y14500D02*
D03*
X147750Y77500D02*
D03*
X48000Y18000D02*
D03*
X37500Y11000D02*
D03*
X151250Y42500D02*
D03*
X21750Y28500D02*
D03*
X133750Y21500D02*
D03*
X25250Y14500D02*
D03*
X58500Y18000D02*
D03*
X34000D02*
D03*
X39250Y14500D02*
D03*
X56750Y21500D02*
D03*
Y35500D02*
D03*
X146000Y11000D02*
D03*
X151250Y21500D02*
D03*
X100500Y11000D02*
D03*
X51500D02*
D03*
X30500Y39000D02*
D03*
X105750Y21500D02*
D03*
X154750Y28500D02*
D03*
X25250D02*
D03*
X23500Y32000D02*
D03*
X126750Y14500D02*
D03*
X149500Y11000D02*
D03*
X147750Y56500D02*
D03*
X18250Y42500D02*
D03*
X154750D02*
D03*
X160000Y67000D02*
D03*
X100500Y18000D02*
D03*
X160000Y88000D02*
D03*
X149500Y25000D02*
D03*
X151250Y84500D02*
D03*
X14750Y28500D02*
D03*
X133750D02*
D03*
X140750Y35500D02*
D03*
X62000Y11000D02*
D03*
X21750Y42500D02*
D03*
X156500Y25000D02*
D03*
X20000Y32000D02*
D03*
X149500Y88000D02*
D03*
X151250Y56500D02*
D03*
X62000Y18000D02*
D03*
X126750Y21500D02*
D03*
X23500Y39000D02*
D03*
Y18000D02*
D03*
X161750Y70500D02*
D03*
X25250Y42500D02*
D03*
X149500Y53000D02*
D03*
X153000Y18000D02*
D03*
X114500Y11000D02*
D03*
X130250Y14500D02*
D03*
X20000Y39000D02*
D03*
X147750Y35500D02*
D03*
X149500Y39000D02*
D03*
X160000Y53000D02*
D03*
X28750Y28500D02*
D03*
X158250Y56500D02*
D03*
X161750Y63500D02*
D03*
X151250Y14500D02*
D03*
X53250D02*
D03*
X97000Y11000D02*
D03*
X14750Y21500D02*
D03*
X156500Y46000D02*
D03*
X21750Y21500D02*
D03*
X123250D02*
D03*
X114500Y18000D02*
D03*
X30500D02*
D03*
X149500Y32000D02*
D03*
X139000Y18000D02*
D03*
X18250Y21500D02*
D03*
X130250D02*
D03*
X125000Y18000D02*
D03*
X137250Y14500D02*
D03*
X32250D02*
D03*
X146000Y67000D02*
D03*
X112750Y21500D02*
D03*
X146000Y53000D02*
D03*
X21750Y14500D02*
D03*
X161750Y56500D02*
D03*
X98750Y14500D02*
D03*
X97000Y18000D02*
D03*
X149500Y46000D02*
D03*
X161750Y77500D02*
D03*
X160000Y18000D02*
D03*
X60250Y14500D02*
D03*
X149500Y18000D02*
D03*
X151250Y35500D02*
D03*
X34000Y39000D02*
D03*
X119750Y14500D02*
D03*
X56750D02*
D03*
X44500Y11000D02*
D03*
X112750Y14500D02*
D03*
X18250Y28500D02*
D03*
X53250Y21500D02*
D03*
X151250Y28500D02*
D03*
X128500Y11000D02*
D03*
X146000Y46000D02*
D03*
X35750Y14500D02*
D03*
X147750Y63500D02*
D03*
X156500Y18000D02*
D03*
X133750Y14500D02*
D03*
X121500Y11000D02*
D03*
X16500Y32000D02*
D03*
X146000Y39000D02*
D03*
X20000Y18000D02*
D03*
X53250Y35500D02*
D03*
X27000Y18000D02*
D03*
X158250Y77500D02*
D03*
X154750Y49500D02*
D03*
X13000Y25000D02*
D03*
X135500Y11000D02*
D03*
X28750Y14500D02*
D03*
X153000Y39000D02*
D03*
Y53000D02*
D03*
X158250Y42500D02*
D03*
Y28500D02*
D03*
X160000Y46000D02*
D03*
X156500Y32000D02*
D03*
X14750Y35500D02*
D03*
X154750Y84500D02*
D03*
X34000Y25000D02*
D03*
X116250Y21500D02*
D03*
X147750Y49500D02*
D03*
X146000Y74000D02*
D03*
X160000Y25000D02*
D03*
X153000Y88000D02*
D03*
X118000Y18000D02*
D03*
X104000D02*
D03*
X111000D02*
D03*
X135500D02*
D03*
X121500D02*
D03*
X146000D02*
D03*
X144250Y14500D02*
D03*
X132000Y18000D02*
D03*
X153000Y46000D02*
D03*
X142500Y39000D02*
D03*
X158250Y63500D02*
D03*
X153000Y25000D02*
D03*
X154750Y77500D02*
D03*
X48000Y11000D02*
D03*
X34000D02*
D03*
X144250Y21500D02*
D03*
X119750D02*
D03*
X128500Y18000D02*
D03*
X23500Y11000D02*
D03*
X116250Y14500D02*
D03*
X156500Y74000D02*
D03*
X14750Y42500D02*
D03*
X30500Y11000D02*
D03*
X49750Y14500D02*
D03*
X25250Y21500D02*
D03*
X160000Y32000D02*
D03*
X153000D02*
D03*
X142500Y18000D02*
D03*
X102250Y21500D02*
D03*
X151250Y77500D02*
D03*
X144250Y35500D02*
D03*
X55000Y11000D02*
D03*
X98750Y21500D02*
D03*
X160000Y39000D02*
D03*
X42750Y14500D02*
D03*
X142500Y11000D02*
D03*
X158250Y35500D02*
D03*
X118000Y11000D02*
D03*
X158250Y21500D02*
D03*
X156500Y81000D02*
D03*
X58500Y11000D02*
D03*
X41000D02*
D03*
X147750Y84500D02*
D03*
X123250Y14500D02*
D03*
X151250Y49500D02*
D03*
X111000Y11000D02*
D03*
X13000Y32000D02*
D03*
X137250Y21500D02*
D03*
X154750Y56500D02*
D03*
X158250Y49500D02*
D03*
X27000Y32000D02*
D03*
X147750Y14500D02*
D03*
X60250Y35500D02*
D03*
X107500Y18000D02*
D03*
X34000Y32000D02*
D03*
X13000Y39000D02*
D03*
X140750Y14500D02*
D03*
X139000Y11000D02*
D03*
X16500Y18000D02*
D03*
X147750Y21500D02*
D03*
X109250D02*
D03*
X128500Y25000D02*
D03*
X13000Y18000D02*
D03*
X154750Y35500D02*
D03*
X153000Y74000D02*
D03*
X140750Y21500D02*
D03*
X154750Y63500D02*
D03*
X132000Y11000D02*
D03*
X147750Y42500D02*
D03*
X156500Y39000D02*
D03*
X28750Y42500D02*
D03*
X125000Y11000D02*
D03*
X149500Y74000D02*
D03*
X160000D02*
D03*
X60250Y21500D02*
D03*
D88*
X172000Y104000D02*
D03*
X12000D02*
D03*
Y194000D02*
D03*
X172000D02*
D03*
D89*
X80400Y21000D02*
D03*
X91600D02*
D03*
D90*
X83500Y13500D02*
D03*
X86000D02*
D03*
X83500Y28000D02*
D03*
X88500D02*
D03*
D91*
Y13500D02*
D03*
D92*
X59330Y32950D02*
D03*
X64410D02*
D03*
X61870D02*
D03*
X72030Y71050D02*
D03*
X82190D02*
D03*
X79650D02*
D03*
X77110D02*
D03*
X74570D02*
D03*
X69490D02*
D03*
X66950D02*
D03*
X64410D02*
D03*
X61870D02*
D03*
X59330D02*
D03*
X110130Y32950D02*
D03*
X107590D02*
D03*
X84730Y71050D02*
D03*
X112670D02*
D03*
X99970D02*
D03*
X94890D02*
D03*
X92350D02*
D03*
X89810D02*
D03*
X87270D02*
D03*
X102510D02*
D03*
X105050D02*
D03*
X107590D02*
D03*
X97430D02*
D03*
X110130D02*
D03*
D93*
X112670Y32950D02*
D03*
D94*
X137190Y63640D02*
D03*
Y53840D02*
D03*
D95*
Y61100D02*
D03*
Y58560D02*
D03*
X144810D02*
D03*
Y61100D02*
D03*
Y63640D02*
D03*
X137190Y51300D02*
D03*
Y48760D02*
D03*
X144810D02*
D03*
Y51300D02*
D03*
Y53840D02*
D03*
D96*
X159000Y58000D02*
D03*
X152000D02*
D03*
D97*
X160000Y75500D02*
D03*
Y84500D02*
D03*
D98*
X162000Y80000D02*
D03*
D99*
X153000D02*
D03*
D100*
X159000D02*
D03*
D101*
X17000Y50480D02*
D03*
X17000Y84100D02*
D03*
D102*
X70620Y75000D02*
D03*
X110130D02*
D03*
X104700Y30700D02*
D03*
D103*
X88000Y87300D02*
D03*
D104*
Y84760D02*
D03*
Y82220D02*
D03*
D105*
X106000Y12000D02*
D03*
X16000Y92000D02*
D03*
X156000D02*
D03*
X16000Y12000D02*
D03*
X156000D02*
D03*
D106*
X141500Y89000D02*
D03*
D107*
X145000D02*
D03*
D108*
X122000Y36840D02*
D03*
Y50500D02*
D03*
D109*
X49000Y28000D02*
D03*
X46000D02*
D03*
X44050D02*
D03*
X40952D02*
D03*
X84916Y55911D02*
D03*
X69490Y49800D02*
D03*
X70748Y55000D02*
D03*
X102160Y47000D02*
D03*
Y43824D02*
D03*
Y37450D02*
D03*
X79800Y34000D02*
D03*
X79485Y36100D02*
D03*
X78000Y39000D02*
D03*
X81700Y36100D02*
D03*
X75500D02*
D03*
X87034Y44000D02*
D03*
X72700Y61800D02*
D03*
X77600Y64000D02*
D03*
X84469Y64800D02*
D03*
X97600Y52213D02*
D03*
X89839Y48322D02*
D03*
X83153Y51654D02*
D03*
X81953Y53010D02*
D03*
X83245Y24282D02*
D03*
X38795Y80967D02*
D03*
X40021D02*
D03*
X41248D02*
D03*
X42474D02*
D03*
X43700D02*
D03*
X26419Y81500D02*
D03*
X27444D02*
D03*
X28469D02*
D03*
X26419Y76420D02*
D03*
X27444D02*
D03*
X28469D02*
D03*
X26419Y71340D02*
D03*
X27444D02*
D03*
X28469D02*
D03*
X26419Y66260D02*
D03*
X27444D02*
D03*
X28469D02*
D03*
Y61180D02*
D03*
X27444D02*
D03*
X26419D02*
D03*
X138190Y68895D02*
D03*
X88373Y25127D02*
D03*
X98100Y33388D02*
D03*
X62895Y34386D02*
D03*
X80000Y75000D02*
D03*
X83153Y36840D02*
D03*
X85260D02*
D03*
X37498Y19000D02*
D03*
X39349D02*
D03*
X41200D02*
D03*
X49000Y57682D02*
D03*
X76607Y51913D02*
D03*
X84469Y50426D02*
D03*
X83783Y51010D02*
D03*
X72700Y57100D02*
D03*
X73500Y55694D02*
D03*
X135250Y75000D02*
D03*
X87381Y62668D02*
D03*
X87299Y51962D02*
D03*
X88043Y51078D02*
D03*
X96470Y73984D02*
D03*
X40800Y30700D02*
D03*
X44050D02*
D03*
X46000D02*
D03*
X49250D02*
D03*
X89263Y49335D02*
D03*
X88626Y50201D02*
D03*
X39098Y34491D02*
D03*
X31700Y25200D02*
D03*
X32700Y20120D02*
D03*
X51000Y34491D02*
D03*
X49000Y29000D02*
D03*
X46000D02*
D03*
X44050D02*
D03*
X41000D02*
D03*
X115000Y56246D02*
D03*
X42400Y48000D02*
D03*
X39960Y66961D02*
D03*
Y67959D02*
D03*
Y68946D02*
D03*
Y69948D02*
D03*
Y70949D02*
D03*
X96000Y61000D02*
D03*
X97600Y57000D02*
D03*
X49300Y82749D02*
D03*
X90500Y60500D02*
D03*
X127275Y54200D02*
D03*
X115816Y58120D02*
D03*
X64900Y44000D02*
D03*
X81900Y59500D02*
D03*
X86000Y42500D02*
D03*
X85100Y43500D02*
D03*
X47902Y48000D02*
D03*
X50000Y53000D02*
D03*
X49250Y47600D02*
D03*
X30700Y30280D02*
D03*
D110*
X133850Y72500D02*
D03*
X125150D02*
D03*
D111*
X131075Y66000D02*
D03*
X127925D02*
D03*
%TF.MD5,d3eabffdbd9bdcb71c35e6769e47cf8f*%
M02*
